<svg width="13" height="13" viewBox="0 0 13 13" fill="none" xmlns="http://www.w3.org/2000/svg">
<path d="M2.26 0.912324C2.26 0.718213 2.33 0.553218 2.47 0.417341C2.61 0.281463 2.77333 0.213524 2.96 0.213524L12.22 1.69314e-06C12.4333 1.69314e-06 12.6067 0.0647054 12.74 0.194113C12.8733 0.32352 12.94 0.49175 12.94 0.698802L12.72 9.68615C12.72 9.86732 12.65 10.0258 12.51 10.1617C12.37 10.2976 12.2 10.3623 12 10.3558C11.8 10.3494 11.63 10.2782 11.49 10.1423C11.35 10.0064 11.2867 9.84144 11.3 9.64732L11.5 1.3976L3 1.59171C2.8 1.59171 2.63 1.52701 2.49 1.3976C2.35 1.26819 2.27333 1.10644 2.26 0.912324ZM0.2 12.2096C0.0666667 12.0672 0 11.9022 0 11.7146C0 11.527 0.0666667 11.3684 0.2 11.239L11.38 0.388224C11.5267 0.245876 11.6967 0.174702 11.89 0.174702C12.0833 0.174702 12.25 0.242641 12.39 0.378518C12.53 0.514396 12.6 0.679391 12.6 0.873502C12.6 1.06761 12.5267 1.22937 12.38 1.35878L1.2 12.2096C1.06667 12.339 0.903333 12.4037 0.71 12.4037C0.516667 12.4037 0.346667 12.339 0.2 12.2096Z" fill="#1D304D"/>
</svg>
