<svg width="40" height="40" viewBox="0 0 40 40" fill="none" xmlns="http://www.w3.org/2000/svg">
<path d="M26.2242 10.1854C26.5034 10.426 26.7675 10.6802 27.0313 10.9375C27.092 10.9925 27.1528 11.0475 27.2153 11.1042C28.9493 12.7184 29.8726 15.224 29.9889 17.5507C30.0436 19.086 29.7425 20.5173 29.2188 21.9532C29.3107 21.9797 29.3107 21.9797 29.4044 22.0069C29.7753 22.1412 30.1189 22.3188 30.4688 22.5C31.1593 20.9486 31.1593 20.9486 31.7969 19.375C31.7369 19.3172 31.6769 19.2594 31.6151 19.1999C31.4442 19.0235 31.3171 18.8702 31.1915 18.6621C31.1596 18.6104 31.1278 18.5586 31.095 18.5053C30.8367 18.0304 30.8689 17.4011 30.9376 16.875C31.1508 16.1903 31.5071 15.7234 32.1232 15.3717C32.7217 15.0876 33.3905 15.0457 34.0323 15.2079C34.7471 15.493 35.2452 16.0183 35.5469 16.7188C35.7763 17.4807 35.5877 18.2211 35.3449 18.9521C35.3158 19.0433 35.2867 19.1346 35.2567 19.2287C35.1787 19.4721 35.0996 19.715 35.0198 19.9578C34.9376 20.2088 34.8567 20.4602 34.7757 20.7115C34.6486 21.1052 34.5205 21.4985 34.3918 21.8917C34.267 22.273 34.1442 22.6548 34.0236 23.0375C33.9398 23.303 33.8546 23.568 33.7696 23.833C33.7418 23.9222 33.7139 24.0115 33.6852 24.1034C33.415 24.9266 32.934 25.6135 32.1604 26.0382C31.2035 26.4598 30.2548 26.3462 29.2966 25.979C29.1901 25.9362 29.0838 25.893 28.9777 25.8493C28.9246 25.8276 28.8715 25.8059 28.8168 25.7836C28.5986 25.6938 28.3808 25.6033 28.1646 25.5086C27.5505 25.2096 27.5505 25.2096 26.904 25.2271C26.7417 25.3483 26.6177 25.4731 26.4844 25.625C26.3929 25.6966 26.3003 25.7669 26.2061 25.835C25.4947 26.4654 25.241 27.3183 25.0001 28.2032C25.0586 28.2229 25.1171 28.2426 25.1774 28.263C25.5846 28.4471 25.8531 28.8155 26.0499 29.209C26.1653 29.8502 26.1425 30.4472 25.7651 30.9967C25.6038 31.1986 25.4501 31.3406 25.2344 31.4844C25.2602 31.573 25.286 31.6616 25.3126 31.753C25.4737 32.4174 25.4326 32.9955 25.0782 33.5938C24.8035 33.9046 24.4761 34.2083 24.0626 34.2969C23.8015 34.3078 23.5423 34.306 23.2813 34.2969C23.2654 34.3848 23.2654 34.3848 23.2493 34.4745C23.0614 35.3676 22.6228 36.0334 21.8751 36.5625C21.009 37.0895 20.1312 37.2359 19.1407 37.0215C18.3199 36.796 17.6226 36.3382 17.1915 35.5979C16.9664 35.1721 16.7762 34.7804 16.7188 34.2969C16.6697 34.3005 16.6205 34.3042 16.5699 34.3079C16.0029 34.3318 15.6067 34.2478 15.178 33.8639C14.7487 33.4029 14.5701 32.9128 14.5908 32.2855C14.6201 32.0081 14.6878 31.752 14.7657 31.4844C14.6948 31.4312 14.6239 31.3781 14.5508 31.3233C14.1538 30.9928 13.9418 30.571 13.8877 30.0577C13.87 29.478 13.969 29.0176 14.3732 28.5846C14.7945 28.2032 14.7945 28.2032 15.0001 28.2032C14.6241 26.9086 14.1684 26.0463 13.0469 25.2344C12.879 25.1276 12.879 25.1276 12.6393 25.2382C12.5312 25.28 12.4234 25.3225 12.3157 25.3653C12.1966 25.4112 12.0775 25.457 11.9584 25.5028C11.7716 25.5754 11.5849 25.6483 11.3985 25.7219C10.2711 26.1651 9.19201 26.5388 7.99841 26.0959C7.18554 25.7309 6.75688 25.1733 6.40631 24.375C6.25277 23.9525 6.11779 23.5247 5.98333 23.0957C5.94422 22.9726 5.90505 22.8495 5.86583 22.7264C5.76338 22.4042 5.6617 22.0818 5.56018 21.7594C5.45719 21.4328 5.35339 21.1064 5.24969 20.7801C4.16291 17.3557 4.16291 17.3557 4.58349 16.4313C4.95058 15.7919 5.45944 15.3591 6.17193 15.1563C6.98755 15.0732 7.67335 15.1732 8.3399 15.6641C8.81565 16.1184 9.07798 16.6943 9.11423 17.3475C9.12408 18.131 8.88617 18.7157 8.35943 19.2969C8.30787 19.3485 8.25631 19.4 8.20318 19.4532C8.34206 19.7741 8.48098 20.095 8.61994 20.4159C8.66707 20.5248 8.7142 20.6336 8.76131 20.7425C9.01533 21.3295 9.27008 21.9162 9.53131 22.5C9.60845 22.4605 9.68559 22.4211 9.76507 22.3804C9.86618 22.3291 9.96729 22.2778 10.0684 22.2266C10.1447 22.1875 10.1447 22.1875 10.2225 22.1475C10.6074 21.9532 10.6074 21.9532 10.7813 21.9532C10.7502 21.8661 10.7191 21.7791 10.687 21.6895C9.74379 18.9972 9.78042 16.1815 11.0185 13.5799C12.2261 11.1819 14.3204 9.37745 16.8553 8.50758C19.9917 7.49125 23.6601 8.07536 26.2242 10.1854ZM13.3399 12.1338C11.6244 14.0964 11.0315 16.5008 11.1719 19.0625C11.4268 21.4458 12.7373 23.5205 14.546 25.044C15.4904 25.8608 15.7803 26.8721 16.1719 28.0469C18.6985 28.0469 21.2251 28.0469 23.8282 28.0469C24.0989 27.2735 24.0989 27.2735 24.3751 26.4844C24.8086 25.704 25.289 25.1552 25.9424 24.5655C27.5438 23.1177 28.7206 21.0599 28.839 18.8613C28.893 17.237 28.7414 15.7765 28.0469 14.2969C28.0252 14.2495 28.0035 14.2022 27.9811 14.1534C27.018 12.0835 25.2058 10.4866 23.0841 9.67631C19.5484 8.45313 15.8963 9.44284 13.3399 12.1338ZM5.66992 16.781C5.43733 17.1807 5.45681 17.5244 5.54693 17.9688C5.66393 18.3969 5.7997 18.8183 5.93664 19.2404C5.97612 19.3637 6.01554 19.4869 6.05492 19.6102C6.13733 19.8676 6.22017 20.1249 6.30337 20.3822C6.40934 20.7098 6.51449 21.0378 6.61934 21.3658C6.70067 21.6201 6.78232 21.8743 6.86406 22.1285C6.9029 22.2493 6.94167 22.3701 6.98038 22.4909C7.40473 24.0307 7.40473 24.0307 8.50622 25.0846C9.38398 25.3427 10.1403 25.0014 10.9522 24.6875C11.0724 24.6422 11.1927 24.5971 11.3131 24.552C11.6051 24.4424 11.8965 24.3311 12.1876 24.2188C12.1032 24.0835 12.0185 23.9485 11.9337 23.8135C11.8865 23.7383 11.8394 23.663 11.7908 23.5855C11.6472 23.3692 11.4935 23.1688 11.3282 22.9688C10.8958 23.1036 10.5017 23.2912 10.0953 23.4891C9.71048 23.6493 9.40471 23.7153 9.00396 23.584C8.94475 23.5661 8.88553 23.5482 8.82452 23.5297C8.61601 23.4037 8.59931 23.2729 8.51568 23.0469C8.4621 22.9224 8.40794 22.7982 8.35327 22.6742C8.17834 22.2762 8.00492 21.8776 7.83203 21.4787C7.75724 21.3068 7.68198 21.1351 7.60628 20.9636C7.49689 20.7156 7.38923 20.4668 7.28186 20.2179C7.24777 20.1417 7.21368 20.0654 7.17855 19.9868C6.99729 19.5616 6.89615 19.2786 7.03131 18.8282C7.18451 18.6716 7.18451 18.6716 7.3731 18.5498C7.67694 18.3325 7.85587 18.1815 7.96881 17.8125C8.02733 17.391 7.97477 17.0793 7.73443 16.7188C7.43144 16.4125 7.17731 16.2649 6.74322 16.2207C6.2923 16.229 5.94855 16.4299 5.66992 16.781ZM32.2803 16.7188C32.0229 17.0718 31.9867 17.385 32.0313 17.8125C32.1681 18.1868 32.3401 18.3604 32.6563 18.5938C32.8809 18.7744 32.8809 18.7744 33.0469 18.9844C33.0297 19.477 32.8359 19.8926 32.642 20.34C32.6095 20.4163 32.577 20.4927 32.5436 20.5713C32.4402 20.8141 32.3359 21.0565 32.2315 21.2989C32.1616 21.4624 32.0918 21.626 32.022 21.7896C31.8683 22.15 31.7139 22.5102 31.5591 22.8701C31.5049 22.9984 31.4543 23.1281 31.406 23.2587C31.3282 23.4375 31.3282 23.4375 31.1811 23.5324C31.0944 23.5604 31.0944 23.5604 31.0059 23.5889C30.9493 23.6089 30.8927 23.629 30.8344 23.6496C30.3155 23.7048 29.842 23.4584 29.3897 23.2324C29.0109 23.0337 29.0109 23.0337 28.5938 22.9688C28.4621 23.1458 28.3464 23.318 28.2325 23.5059C28.2007 23.5567 28.1688 23.6076 28.136 23.66C28.0219 23.8434 27.9092 24.0255 27.8126 24.2188C28.1633 24.3541 28.5147 24.4875 28.8668 24.6193C28.9862 24.6643 29.1054 24.7097 29.2244 24.7557C29.9882 25.0505 30.6639 25.3056 31.4884 25.0955C31.5467 25.0656 31.605 25.0357 31.6651 25.0049C31.7244 24.9768 31.7837 24.9487 31.8448 24.9198C32.4266 24.4389 32.6313 23.7508 32.8419 23.0518C32.8902 22.8952 32.9389 22.7388 32.9875 22.5823C33.0235 22.4666 33.0593 22.3508 33.095 22.235C33.2333 21.7883 33.3782 21.3439 33.5254 20.9001C33.642 20.5483 33.7576 20.1961 33.8731 19.8439C33.9308 19.6688 33.989 19.4938 34.0476 19.3189C34.1307 19.0705 34.212 18.8215 34.293 18.5724C34.3182 18.4983 34.3435 18.4241 34.3695 18.3478C34.5309 17.8436 34.6198 17.3592 34.3704 16.8682C34.17 16.5504 33.9556 16.3706 33.5938 16.25C33.0554 16.1734 32.6439 16.3012 32.2803 16.7188ZM15.0782 29.5313C14.9851 29.8104 14.9741 29.938 15.0879 30.21C15.292 30.4616 15.4679 30.6056 15.7992 30.6466C16.0219 30.6556 16.2435 30.6567 16.4664 30.6554C16.5936 30.656 16.5936 30.656 16.7233 30.6566C17.0034 30.6576 17.2835 30.6569 17.5635 30.6562C17.7582 30.6563 17.9529 30.6565 18.1476 30.6568C18.6078 30.6572 19.068 30.6564 19.5282 30.6552C19.895 30.6543 20.2618 30.6546 20.6286 30.6556C21.1346 30.6569 21.6406 30.6572 22.1466 30.6564C22.3395 30.6562 22.5324 30.6564 22.7252 30.657C22.9947 30.6576 23.2642 30.6567 23.5337 30.6554C23.6135 30.6558 23.6933 30.6563 23.7755 30.6568C24.3093 30.6529 24.3093 30.6529 24.7657 30.3907C24.9463 30.1679 25.0001 30.0536 25.0001 29.7657C24.8959 29.4532 24.7966 29.3398 24.5313 29.1407C24.2416 29.0821 23.9559 29.0873 23.6613 29.0901C23.5734 29.0894 23.4856 29.0887 23.3951 29.088C23.1049 29.0863 22.8147 29.0875 22.5245 29.0888C22.3228 29.0885 22.1211 29.0881 21.9194 29.0876C21.4967 29.0871 21.0741 29.0879 20.6514 29.0897C20.1632 29.0919 19.675 29.0912 19.1868 29.089C18.7165 29.087 18.2463 29.0872 17.7761 29.0884C17.5762 29.0886 17.3764 29.0883 17.1765 29.0874C16.8972 29.0864 16.6181 29.0879 16.3389 29.0901C16.2561 29.0893 16.1734 29.0885 16.0882 29.0877C15.6188 29.0945 15.3668 29.1219 15.0782 29.5313ZM15.9376 31.9532C15.7676 32.2021 15.7676 32.2021 15.7032 32.5C15.8059 32.8482 15.868 33.0005 16.1719 33.2032C16.3208 33.2271 16.3208 33.2271 16.4847 33.2246C16.5798 33.2257 16.5798 33.2257 16.6768 33.2269C16.7461 33.227 16.8154 33.227 16.8868 33.2271C16.9599 33.2277 17.0331 33.2284 17.1086 33.2291C17.3511 33.2309 17.5935 33.2316 17.8361 33.2321C18.0045 33.2328 18.1729 33.2336 18.3414 33.2343C18.6948 33.2356 19.0482 33.2362 19.4016 33.2364C19.8543 33.2368 20.3069 33.2398 20.7595 33.2433C21.1076 33.2457 21.4556 33.2462 21.8036 33.2463C21.9705 33.2466 22.1374 33.2476 22.3042 33.2492C22.5378 33.2513 22.7713 33.251 23.0049 33.25C23.0737 33.2511 23.1425 33.2523 23.2134 33.2535C23.5451 33.2495 23.7619 33.2281 24.0258 33.0168C24.2306 32.8 24.3042 32.718 24.2969 32.4219C24.2029 32.1607 24.1194 31.9991 23.9026 31.8238C23.5835 31.6785 23.3064 31.686 22.9597 31.6884C22.8886 31.688 22.8175 31.6876 22.7443 31.6872C22.5099 31.6862 22.2755 31.6869 22.0411 31.6876C21.8779 31.6875 21.7148 31.6873 21.5516 31.687C21.2098 31.6866 20.8681 31.6871 20.5263 31.6882C20.0884 31.6896 19.6505 31.6888 19.2125 31.6874C18.8757 31.6865 18.5388 31.6868 18.202 31.6874C18.0405 31.6876 17.879 31.6874 17.7176 31.6868C17.4919 31.6862 17.2662 31.6871 17.0405 31.6884C16.9738 31.688 16.9072 31.6875 16.8385 31.687C16.475 31.6909 16.2304 31.7139 15.9376 31.9532ZM17.8907 34.2969C17.9999 34.8432 18.2577 35.1809 18.6719 35.5469C19.2059 35.8995 19.7179 36.0795 20.362 35.9848C21.1396 35.7859 21.6188 35.3397 22.0377 34.6771C22.1267 34.5233 22.1267 34.5233 22.1094 34.2969C20.7172 34.2969 19.3251 34.2969 17.8907 34.2969Z" fill="#1D304D"/>
<path d="M17.0329 20.3501C17.104 20.3496 17.1752 20.349 17.2485 20.3485C17.4838 20.3471 17.719 20.348 17.9542 20.3491C18.1177 20.3489 18.2811 20.3486 18.4446 20.3482C18.7871 20.3477 19.1297 20.3484 19.4722 20.3498C19.9115 20.3516 20.3507 20.3506 20.79 20.3487C21.1275 20.3476 21.465 20.3479 21.8025 20.3488C21.9645 20.349 22.1265 20.3487 22.2884 20.348C22.5148 20.3472 22.741 20.3484 22.9673 20.3501C23.0344 20.3495 23.1014 20.3489 23.1705 20.3482C23.6241 20.3547 23.6241 20.3547 23.8698 20.5388C24.1145 20.8894 24.0123 21.3115 23.9475 21.7135C23.7159 22.7803 23.1291 23.6889 22.2364 24.3261C21.2962 24.9084 20.1719 25.08 19.0922 24.8657C17.9969 24.5457 17.0642 23.9546 16.5037 22.9336C16.1654 22.2411 15.8746 21.4877 16.0157 20.7031C16.2872 20.3105 16.5958 20.346 17.0329 20.3501ZM17.1876 21.4843C17.4057 22.3567 17.7867 22.9066 18.5157 23.4374C19.23 23.8393 19.9886 23.9514 20.7862 23.7402C21.5587 23.4791 22.236 22.9418 22.6084 22.2085C22.7599 21.8574 22.7599 21.8574 22.8126 21.4843C20.9563 21.4843 19.1001 21.4843 17.1876 21.4843Z" fill="#1D304D"/>
<path d="M23.9844 15.7031C24.2876 15.945 24.5413 16.1983 24.6876 16.5624C24.6773 16.8547 24.6689 17.0388 24.4776 17.2656C24.2257 17.3745 24.0882 17.3468 23.8282 17.2656C23.6622 17.124 23.6622 17.124 23.5157 16.9531C23.2543 16.6627 23.2543 16.6627 22.8971 16.5499C22.6036 16.5626 22.4127 16.576 22.1925 16.7825C22.102 16.8954 22.0124 17.009 21.9239 17.1234C21.7969 17.2656 21.7969 17.2656 21.5479 17.3535C21.321 17.3434 21.2006 17.3175 21.0157 17.1874C20.8901 16.9363 20.9061 16.7632 20.9376 16.4843C21.1804 16.0111 21.5544 15.6936 22.0313 15.4687C22.6932 15.2588 23.3907 15.3567 23.9844 15.7031Z" fill="#1D304D"/>
<path d="M18.2812 15.625C18.6103 15.8554 18.906 16.107 19.0625 16.4844C19.1111 16.9545 19.1111 16.9545 18.9697 17.1777C18.7835 17.2933 18.6574 17.3333 18.4375 17.3438C18.1612 17.2263 18.0479 17.1108 17.8711 16.8652C17.6156 16.5982 17.4794 16.5655 17.1209 16.5494C16.8764 16.5685 16.7458 16.6351 16.5625 16.7969C16.4834 16.9265 16.4052 17.0567 16.3281 17.1875C16.1276 17.3396 16.0303 17.3444 15.7763 17.334C15.5468 17.2656 15.5468 17.2656 15.3955 17.1387C15.268 16.8538 15.3009 16.7051 15.3906 16.4063C15.6994 15.9421 16.0918 15.5903 16.6311 15.4233C17.1934 15.3125 17.7775 15.3396 18.2812 15.625Z" fill="#1D304D"/>
<path d="M27.3927 4.85355C27.6564 4.92191 27.6564 4.92191 27.8126 5.15629C27.8999 5.70529 27.6441 6.05739 27.3634 6.50394C27.3213 6.57404 27.2792 6.64413 27.2358 6.71635C26.869 7.31408 26.869 7.31408 26.5626 7.50004C26.3196 7.49012 26.1563 7.45938 25.9474 7.33402C25.8097 7.10451 25.8119 6.89659 25.8595 6.64066C25.985 6.35827 26.1444 6.10117 26.3087 5.83988C26.3508 5.76979 26.3929 5.6997 26.4363 5.62748C26.9213 4.8373 26.9213 4.8373 27.3927 4.85355Z" fill="#1D304D"/>
<path d="M32.9687 10.2343C33.1625 10.525 33.1612 10.6717 33.125 11.0156C32.8255 11.3679 32.4399 11.5609 32.041 11.7822C31.9372 11.8425 31.9372 11.8425 31.8314 11.9041C31.3186 12.1895 31.3186 12.1895 30.9753 12.1792C30.6617 12.0663 30.6617 12.0663 30.5469 11.875C30.5078 11.6064 30.5078 11.6064 30.5469 11.3281C30.8591 11.0305 31.2403 10.8259 31.6113 10.6103C31.6709 10.5751 31.7306 10.5399 31.792 10.5037C32.2117 10.2581 32.4718 10.1074 32.9687 10.2343Z" fill="#1D304D"/>
<path d="M12.7736 4.83887C13.2988 4.99832 13.514 5.55555 13.7696 6.01074C13.8055 6.07212 13.8414 6.1335 13.8783 6.19675C14.068 6.53404 14.2069 6.78913 14.1407 7.1875C13.9747 7.37793 13.9747 7.37793 13.7501 7.5C13.5109 7.50488 13.5109 7.50488 13.2814 7.42187C12.994 7.10548 12.7782 6.74187 12.5587 6.37695C12.5229 6.31995 12.487 6.26295 12.4501 6.20422C12.2332 5.84277 12.1327 5.58988 12.1876 5.15625C12.3622 4.87696 12.4426 4.84478 12.7736 4.83887Z" fill="#1D304D"/>
<path d="M7.73444 10.2343C8.01067 10.3725 8.27231 10.5316 8.53522 10.6933C8.60632 10.7357 8.67742 10.7781 8.75067 10.8218C9.27617 11.1407 9.27617 11.1407 9.45319 11.4062C9.48737 11.6357 9.48737 11.6357 9.45319 11.875C9.28717 12.0654 9.28717 12.0654 9.06256 12.1875C8.72603 12.1596 8.48272 12.0696 8.1919 11.9021C8.11974 11.8608 8.04758 11.8194 7.97324 11.7769C7.89927 11.7335 7.8253 11.6901 7.74909 11.6455C7.67361 11.6024 7.59813 11.5594 7.52036 11.515C6.96384 11.1932 6.96384 11.1932 6.87506 11.0156C6.84749 10.5101 6.84749 10.5101 7.03131 10.2343C7.32397 10.1368 7.43476 10.1537 7.73444 10.2343Z" fill="#1D304D"/>
<path d="M20.0879 2.89553C20.3244 2.97265 20.4027 3.00589 20.5468 3.20315C20.5928 3.52496 20.5871 3.8468 20.586 4.17164C20.5859 4.33034 20.5892 4.48874 20.5926 4.64739C20.5928 4.74754 20.593 4.8477 20.5932 4.95089C20.5938 5.04268 20.5943 5.13446 20.5949 5.22903C20.5468 5.46877 20.5468 5.46877 20.3639 5.65769C20.1562 5.78127 20.1562 5.78127 19.9121 5.77639C19.6756 5.69927 19.5972 5.66602 19.4531 5.46877C19.4071 5.14696 19.4129 4.82512 19.414 4.50028C19.414 4.34158 19.4108 4.18318 19.4073 4.02453C19.4071 3.92437 19.4069 3.82422 19.4067 3.72103C19.4062 3.62924 19.4056 3.53745 19.405 3.44288C19.4531 3.20315 19.4531 3.20315 19.636 3.01422C19.8437 2.89065 19.8437 2.89065 20.0879 2.89553Z" fill="#1D304D"/>
</svg>
