<svg width="40" height="40" viewBox="0 0 40 40" fill="none" xmlns="http://www.w3.org/2000/svg">
<path d="M29.5773 4.64437C30.6022 4.95952 31.4269 5.53777 31.9927 6.45594C32.1549 6.79673 32.2899 7.13764 32.424 7.49112C32.9364 7.49112 33.4488 7.49112 33.9768 7.49112C34.0729 7.28117 34.1689 7.07122 34.2679 6.85491C34.7787 5.80713 35.4739 5.16408 36.5647 4.73063C36.9421 4.61609 37.4025 4.53907 37.7617 4.73063C38.1402 5.40351 38.1218 6.27003 37.9719 7.00588C37.7139 7.91773 37.2951 8.68716 36.5647 9.30269C36.4793 9.34539 36.4793 9.34539 36.3922 9.38895C36.42 9.48803 36.4478 9.58712 36.4765 9.6892C36.7042 10.6056 36.6786 11.6575 36.2197 12.4945C35.9111 12.9712 35.5591 13.37 35.0982 13.7022C35.0413 13.7022 34.9844 13.7022 34.9257 13.7022C35.0089 13.8238 35.0089 13.8238 35.0938 13.9479C36.8775 16.6548 37.8707 20.0638 38.7268 23.159C38.7547 23.2563 38.7547 23.2563 38.7833 23.3555C38.8894 23.755 38.9447 24.0833 38.8076 24.4854C38.3497 24.9208 37.6568 25.1292 37.0823 25.3642C36.9925 25.4019 36.9026 25.4397 36.8101 25.4786C36.4213 25.6393 36.0715 25.7823 35.6536 25.8376C35.3518 25.9155 35.3518 25.9155 35.2747 26.1178C35.2328 26.2662 35.1955 26.4159 35.1617 26.5663C35.0943 26.8298 34.9959 27.0455 34.8738 27.2883C34.102 28.8915 33.8075 30.4988 33.5405 32.2502C33.5185 32.393 33.5185 32.393 33.496 32.5386C33.4689 32.7171 33.4427 32.8957 33.4177 33.0745C33.1939 34.5722 33.1939 34.5722 32.6882 35.0151C32.1448 35.3589 31.6792 35.4278 31.0438 35.3548C30.5833 35.2036 30.2785 34.8855 30.0086 34.4921C29.787 33.9194 29.8022 33.3402 29.7949 32.7321C29.7935 32.6192 29.7922 32.5062 29.7907 32.3898C29.7881 32.1504 29.7864 31.9109 29.7851 31.6714C29.7836 31.4301 29.7801 31.1891 29.7745 30.948C29.7385 29.3471 29.8883 27.9612 30.5262 26.4695C30.4759 26.4592 30.4256 26.4489 30.3738 26.4384C30.2353 26.4101 30.0968 26.3817 29.9582 26.3534C29.8122 26.3236 29.6659 26.2945 29.5197 26.2657C29.4571 26.2523 29.3944 26.2389 29.3299 26.2252C29.2658 26.2121 29.2016 26.199 29.1355 26.1855C28.9734 26.1244 28.9734 26.1244 28.8009 25.8656C28.7084 25.1113 28.864 24.3342 28.9707 23.5877C28.9882 23.462 29.0056 23.3363 29.0229 23.2107C29.0683 22.8828 29.1144 22.5551 29.1608 22.2273C29.2351 21.7005 29.3082 21.1736 29.3815 20.6466C29.4071 20.4631 29.4329 20.2797 29.4589 20.0962C29.4744 19.9853 29.49 19.8744 29.506 19.7602C29.5198 19.6624 29.5336 19.5647 29.5478 19.4641C29.5825 19.2208 29.5825 19.2208 29.5773 18.9644C29.5052 18.9953 29.4331 19.0262 29.3589 19.0581C28.9997 19.1527 28.7754 19.0858 28.4127 19.0183C28.1342 18.993 27.9313 19.0106 27.6794 19.1369C27.2058 19.6525 26.918 20.313 26.6114 20.9358C25.9238 22.2718 25.9238 22.2718 25.1885 22.566C24.6055 22.6346 24.208 22.588 23.6897 22.3072C23.6323 22.2773 23.5749 22.2474 23.5157 22.2167C21.4902 21.1429 21.4902 21.1429 21.037 20.6897C20.9786 20.1644 20.9786 20.1644 21.1772 19.8971C21.3821 19.7408 21.3821 19.7408 21.6516 19.5683C21.904 19.3927 21.9667 19.3274 22.0722 19.0507C22.1092 18.62 22.0433 18.3429 21.7649 18.0101C21.3805 17.7934 21.2138 17.7876 20.7782 17.8429C20.4455 17.9876 20.3071 18.1136 20.1743 18.4468C20.1581 18.6045 20.1477 18.7628 20.142 18.9213C20.1182 19.223 20.1054 19.3681 19.9425 19.6276C19.6794 19.7769 19.5264 19.7674 19.2254 19.7408C18.9559 19.6223 18.9559 19.6223 18.6708 19.457C18.5939 19.4129 18.5939 19.4129 18.5155 19.3679C18.4075 19.3056 18.2997 19.2428 18.1923 19.1795C18.0302 19.084 17.8672 18.9902 17.704 18.8967C16.0811 17.9594 16.0811 17.9594 15.8611 17.3254C15.6496 16.447 16.0399 15.8156 16.4757 15.0825C16.5243 14.9992 16.5729 14.9159 16.623 14.8301C16.7421 14.6262 16.8619 14.4228 16.9825 14.2198C16.9151 14.208 16.8477 14.1963 16.7782 14.1841C16.3379 14.086 16.0032 13.7251 15.7431 13.3676C15.3818 12.757 15.3201 12.0876 15.4857 11.3993C15.701 10.7977 16.0196 10.3687 16.5792 10.0518C17.1626 9.78891 17.7196 9.70176 18.3378 9.89239C18.6721 10.0228 18.9918 10.1758 19.3117 10.3379C19.3316 10.2819 19.3515 10.226 19.372 10.1684C19.5219 9.81871 19.708 9.49626 19.8994 9.1679C19.9361 9.10279 19.9729 9.03768 20.0107 8.9706C20.3042 8.46665 20.6245 8.07845 21.2095 7.92245C21.953 7.80911 22.3989 8.0617 23.0211 8.44004C23.192 8.53578 23.364 8.62964 23.5359 8.72352C24.3038 9.14352 25.0597 9.58359 25.8146 10.0264C26.3015 10.3116 26.7896 10.5943 27.2801 10.8733C27.3336 10.9038 27.3872 10.9343 27.4423 10.9657C27.7022 11.1135 27.9623 11.261 28.2226 11.4081C30.1754 12.5174 30.1754 12.5174 30.4399 13.1846C30.4913 13.3916 30.5128 13.5743 30.5262 13.7885C30.5795 13.7458 30.6329 13.7031 30.6879 13.6591C30.8712 13.5297 30.8712 13.5297 31.0438 13.5297C31.0438 13.4728 31.0438 13.4158 31.0438 13.3572C30.9923 13.3361 30.9408 13.3151 30.8877 13.2935C30.3892 13.0064 30.1135 12.3275 29.9223 11.8044C29.7286 11.0066 29.8093 10.1771 30.0086 9.38895C29.9214 9.32134 29.8342 9.25373 29.7444 9.18407C28.9307 8.48074 28.4908 7.5603 28.3803 6.49907C28.3508 5.89546 28.3629 5.28579 28.6823 4.75759C28.9899 4.58757 29.2407 4.58197 29.5773 4.64437ZM29.6635 6.02461C29.6128 6.70866 29.7599 7.25702 30.1852 7.80484C30.3518 7.99305 30.5214 8.17562 30.6987 8.35377C30.946 8.3043 31.0318 8.27946 31.2163 8.09498C31.1835 7.40698 30.8246 6.87125 30.3378 6.41078C30.1294 6.24137 29.9109 6.12719 29.6635 6.02461ZM35.8746 6.62847C35.499 7.07127 35.2544 7.51572 35.1845 8.09498C35.2658 8.28425 35.2658 8.28425 35.4433 8.35377C35.8669 8.31203 36.0603 8.00427 36.3201 7.69768C36.7203 7.17576 36.7864 6.66109 36.8235 6.02461C36.4531 6.02461 36.1353 6.39016 35.8746 6.62847ZM31.4427 9.62281C31.0674 10.1453 30.9781 10.6899 31.0761 11.3232C31.2356 11.9015 31.5835 12.349 32.0688 12.6974C32.6238 13.0097 33.2431 13.0963 33.8582 12.9258C34.5272 12.6653 34.9653 12.181 35.2708 11.5456C35.4582 10.9832 35.4276 10.4174 35.1791 9.87959C34.8429 9.28296 34.3782 8.89688 33.718 8.69883C32.7441 8.57895 32.0553 8.86061 31.4427 9.62281ZM21.4683 9.13016C21.1882 9.43011 20.9968 9.76772 20.7998 10.1259C20.7396 10.2338 20.6794 10.3417 20.6191 10.4496C20.5256 10.618 20.4324 10.7867 20.3398 10.9556C20.2495 11.1198 20.1581 11.2834 20.0665 11.4469C20.0127 11.5444 19.9589 11.6419 19.9034 11.7424C19.7439 11.9756 19.6643 12.0671 19.398 12.1494C19.1689 12.1222 19.0001 12.0799 18.7941 11.9769C18.7381 11.8568 18.7381 11.8568 18.6809 11.7343C18.5192 11.429 18.3973 11.2943 18.104 11.1143C17.7616 11.0209 17.5644 11.0078 17.2252 11.1143C16.9195 11.3316 16.7528 11.5324 16.6375 11.8906C16.6006 12.2791 16.6753 12.5153 16.907 12.8288C17.2695 13.0967 17.5897 13.1879 18.0393 13.1792C18.2765 13.1846 18.2765 13.1846 18.4383 13.2763C18.5897 13.5371 18.5567 13.75 18.5353 14.0473C18.4193 14.3176 18.4193 14.3176 18.2583 14.5878C18.2007 14.6859 18.1431 14.7839 18.0838 14.885C18.0222 14.9868 17.9607 15.0885 17.8991 15.1903C17.8381 15.2933 17.7772 15.3964 17.7165 15.4996C17.5067 15.8539 17.2972 16.2064 17.0688 16.549C17.0275 16.7651 17.0275 16.7651 17.0688 16.9803C17.2012 17.1244 17.2012 17.1244 17.3923 17.2283C17.462 17.271 17.5317 17.3137 17.6036 17.3577C17.6833 17.404 17.763 17.4502 17.8452 17.4979C17.9848 17.5806 17.9848 17.5806 18.1272 17.665C18.3774 17.8122 18.6284 17.9576 18.8804 18.1017C18.9735 17.962 19.0665 17.8222 19.1587 17.6819C19.5193 17.1642 19.9173 16.8359 20.5194 16.6352C21.292 16.5649 21.9562 16.5832 22.5898 17.0666C23.0866 17.5707 23.2838 18.0722 23.3122 18.7757C23.3067 19.2178 23.2211 19.5323 23.0103 19.9187C22.9112 20.1077 22.9112 20.1077 22.9348 20.4309C23.1695 20.6417 23.4535 20.7827 23.7274 20.9377C23.802 20.9829 23.8765 21.028 23.9533 21.0745C24.0622 21.1372 24.0622 21.1372 24.1732 21.2012C24.2396 21.2397 24.306 21.2781 24.3744 21.3178C24.576 21.3984 24.576 21.3984 24.7964 21.3322C25.056 21.1769 25.1474 21.0303 25.2963 20.7679C25.3475 20.6789 25.3986 20.59 25.4513 20.4983C25.5034 20.4049 25.5554 20.3115 25.6091 20.2152C25.6611 20.1245 25.7131 20.0338 25.7668 19.9403C26.0779 19.3938 26.3699 18.8401 26.6442 18.2743C26.6126 18.2362 26.581 18.1981 26.5484 18.1588C25.9291 17.4117 25.3143 16.6619 24.7188 15.8956C24.5563 15.6866 24.3911 15.4802 24.2241 15.2749C24.1807 15.221 24.1373 15.1672 24.0926 15.1117C24.0099 15.0092 23.9267 14.9072 23.8429 14.8057C23.4997 14.3777 23.3221 13.9954 23.3769 13.4434C23.4426 12.9346 23.6384 12.6381 24.0185 12.295C24.3228 12.0844 24.5726 12.0441 24.9351 12.0308C25.0128 12.0266 25.0906 12.0224 25.1707 12.018C25.7953 12.1241 26.2822 12.6068 26.7413 13.0175C26.8533 13.1159 26.9652 13.2143 27.0772 13.3127C27.1337 13.3625 27.1901 13.4124 27.2483 13.4638C27.5292 13.7118 27.8114 13.9582 28.0946 14.2036C28.1457 14.2486 28.1968 14.2936 28.2495 14.34C28.4902 14.5753 28.4902 14.5753 28.8009 14.6511C28.8761 14.5317 28.9494 14.411 29.0219 14.2899C29.063 14.2228 29.104 14.1558 29.1463 14.0867C29.2533 13.8226 29.2513 13.7077 29.1459 13.4434C28.9673 13.2837 28.9673 13.2837 28.72 13.1523C28.6719 13.1242 28.6237 13.0961 28.5741 13.0672C28.4596 13.0007 28.3447 12.9349 28.2295 12.8697C27.9954 12.7368 27.7626 12.6017 27.5298 12.4665C27.0981 12.2162 26.6656 11.9671 26.2328 11.7186C25.7933 11.4662 25.3544 11.2129 24.9156 10.9593C24.6367 10.7982 24.3576 10.6374 24.0785 10.4767C23.7198 10.2701 23.3618 10.0624 23.0042 9.85398C22.8391 9.75827 22.674 9.66257 22.5089 9.56688C22.4333 9.52249 22.3577 9.4781 22.2798 9.43236C22.1759 9.37234 22.1759 9.37234 22.0698 9.31111C21.9794 9.25841 21.9794 9.25841 21.8872 9.20465C21.7174 9.11196 21.7174 9.11196 21.4683 9.13016ZM24.7464 13.1846C24.592 13.394 24.592 13.394 24.4876 13.616C24.9361 14.2608 25.4208 14.8673 25.9225 15.4709C26.2962 15.921 26.6615 16.3767 27.0204 16.8387C27.4727 17.5045 27.4727 17.5045 28.1107 17.9292C28.6345 17.9616 28.9811 17.8895 29.4532 17.6704C29.8758 17.4756 30.2258 17.3566 30.6987 17.4116C30.8465 17.5095 30.8465 17.5095 30.9575 17.6704C30.9702 17.9126 30.9702 17.9126 30.9417 18.2064C30.9314 18.3148 30.9211 18.4233 30.9105 18.535C30.8543 19.0392 30.7895 19.5421 30.7183 20.0444C30.6922 20.2287 30.6666 20.413 30.6411 20.5974C30.5871 20.9877 30.5324 21.3778 30.4776 21.768C30.4138 22.2232 30.3503 22.6784 30.2873 23.1338C30.2621 23.3145 30.2366 23.4952 30.211 23.6759C30.1957 23.786 30.1805 23.896 30.1647 24.0094C30.1444 24.1539 30.1444 24.1539 30.1237 24.3014C30.0954 24.5663 30.0896 24.823 30.0948 25.0892C32.6151 25.7235 35.2478 24.8734 37.5137 23.7952C37.2792 21.5441 36.2214 19.2284 35.3408 17.1582C35.2794 17.0135 35.2794 17.0135 35.2168 16.8659C34.5897 15.3054 34.5897 15.3054 33.3729 14.2198C32.0759 14.1152 31.1793 14.7887 30.1811 15.5138C29.9917 15.6504 29.8013 15.7847 29.6096 15.9182C29.4932 16.0014 29.4932 16.0014 29.3744 16.0863C29.0899 16.2328 28.9445 16.259 28.6283 16.2039C28.421 16.0592 28.2506 15.9219 28.0676 15.751C27.9612 15.6556 27.8547 15.5603 27.7482 15.4649C27.6941 15.4158 27.64 15.3666 27.5842 15.3159C27.3259 15.0835 27.0603 14.8597 26.7952 14.635C26.3637 14.2665 25.9399 13.8911 25.5218 13.5074C25.239 13.2597 25.1334 13.1846 24.7464 13.1846ZM33.229 26.3347C33.152 26.3425 33.075 26.3502 32.9957 26.3583C32.9156 26.3665 32.8354 26.3747 32.7529 26.3832C32.6718 26.3914 32.5906 26.3997 32.5071 26.4081C32.3068 26.4285 32.1066 26.4489 31.9064 26.4695C31.8412 26.6202 31.7766 26.7712 31.7123 26.9224C31.6763 27.0064 31.6403 27.0905 31.6031 27.1771C31.56 27.2861 31.5174 27.3953 31.4751 27.5047C31.4323 27.6102 31.4323 27.6102 31.3886 27.7179C31.1227 28.4296 31.0808 29.0687 31.0872 29.8237C31.0872 29.9437 31.0871 30.0636 31.0869 30.1836C31.0867 30.4325 31.0878 30.6815 31.0898 30.9304C31.0923 31.2497 31.092 31.5689 31.0909 31.8882C31.0903 32.1348 31.091 32.3814 31.092 32.6279C31.0924 32.7458 31.0925 32.8636 31.0921 32.9815C31.0919 33.1451 31.0935 33.3088 31.0952 33.4725C31.0956 33.5655 31.0961 33.6586 31.0966 33.7544C31.1131 33.8634 31.1131 33.8634 31.13 33.9745C31.368 34.1726 31.368 34.1726 31.6099 34.1255C31.8331 34.0748 31.8331 34.0748 31.9927 33.8883C32.0458 33.7048 32.0458 33.7048 32.0794 33.4892C32.0941 33.4062 32.1088 33.3232 32.124 33.2377C32.1392 33.1475 32.1545 33.0572 32.1703 32.9643C32.1866 32.8713 32.203 32.7782 32.2199 32.6824C32.2724 32.3835 32.324 32.0846 32.3755 31.7856C32.4268 31.4897 32.4782 31.1938 32.5302 30.898C32.5624 30.7139 32.5943 30.5297 32.6258 30.3455C32.7655 29.5452 32.9172 28.7405 33.2418 27.9919C33.2799 27.9026 33.318 27.8133 33.3573 27.7213C33.4157 27.5874 33.4157 27.5874 33.4754 27.4507C33.5541 27.2682 33.6327 27.0856 33.7109 26.9028C33.7454 26.8236 33.7799 26.7443 33.8154 26.6627C33.9009 26.4772 33.9009 26.4772 33.8905 26.2969C33.6653 26.2969 33.4527 26.3119 33.229 26.3347Z" fill="#1D304D"/>
<path d="M11.2835 13.3841C11.9415 14.1142 12.2998 15.055 12.2678 16.0375C12.1725 16.8401 11.9103 17.5 11.3751 18.1018C11.2831 18.2088 11.1912 18.316 11.0995 18.4232C11.0539 18.4765 11.0083 18.5297 10.9613 18.5845C10.927 18.6245 10.8928 18.6644 10.8575 18.7056C10.9223 18.7699 10.9871 18.8343 11.0538 18.9006C11.297 19.1421 11.5399 19.384 11.7826 19.626C11.8872 19.7301 11.9919 19.8342 12.0966 19.9382C13.1189 20.9533 13.1189 20.9533 13.5809 21.4963C13.7694 21.7138 13.9728 21.912 14.1787 22.1131C14.4585 22.3887 14.7306 22.6677 14.9875 22.965C15.0345 23.0191 15.0816 23.0733 15.13 23.1291C15.2437 23.262 15.3556 23.3965 15.4673 23.5311C15.773 23.7771 15.9907 23.7755 16.3785 23.7953C16.3755 23.7285 16.3725 23.6618 16.3694 23.5931C16.3486 22.7933 16.4357 22.2024 16.9962 21.6049C17.5782 21.0959 18.1672 20.9626 18.9314 20.9933C19.591 21.0864 20.1021 21.383 20.5034 21.915C20.8165 22.3902 20.8767 22.6879 20.8704 23.2554C20.8695 23.3565 20.8686 23.4576 20.8677 23.5617C20.8666 23.6388 20.8655 23.7159 20.8643 23.7953C20.97 23.7932 20.97 23.7932 21.0778 23.7912C21.3984 23.7858 21.719 23.7824 22.0397 23.7791C22.1505 23.7769 22.2614 23.7748 22.3756 23.7725C22.5366 23.7713 22.5366 23.7713 22.7008 23.77C22.8485 23.768 22.8485 23.768 22.9992 23.7659C23.4586 23.814 23.7932 23.9997 24.0831 24.356C24.1254 24.4067 24.1678 24.4574 24.2115 24.5096C24.4276 24.8194 24.4113 25.1052 24.4096 25.4704C24.4093 25.5785 24.409 25.6866 24.4088 25.7981C24.408 25.9111 24.4073 26.0241 24.4066 26.1406C24.4061 26.2558 24.4057 26.371 24.4054 26.4862C24.4044 26.7682 24.403 27.0501 24.4012 27.3321C24.4767 27.3301 24.5522 27.328 24.63 27.3259C24.7798 27.3235 24.7798 27.3235 24.9326 27.321C25.0312 27.319 25.1299 27.3169 25.2315 27.3148C25.8212 27.35 26.2861 27.6249 26.6818 28.0546C27.1889 28.7283 27.2593 29.3429 27.1617 30.1789C26.9398 30.9154 26.4991 31.3356 25.8569 31.7209C25.5539 31.8404 25.2638 31.8276 24.941 31.824C24.8399 31.8231 24.7389 31.8222 24.6347 31.8213C24.5577 31.8202 24.4806 31.8191 24.4012 31.8179C24.4025 31.8884 24.4039 31.9588 24.4053 32.0314C24.4107 32.3521 24.414 32.6727 24.4174 32.9933C24.4206 33.1596 24.4206 33.1596 24.4239 33.3293C24.4248 33.4366 24.4256 33.5439 24.4264 33.6544C24.4278 33.7529 24.4292 33.8514 24.4306 33.9529C24.3824 34.4122 24.1967 34.7469 23.8405 35.0367C23.7897 35.0791 23.739 35.1214 23.6868 35.1651C23.4295 35.3446 23.2028 35.3658 22.899 35.3675C22.7822 35.3684 22.7822 35.3684 22.663 35.3694C22.5778 35.3696 22.4925 35.3698 22.4047 35.3701C22.3148 35.3706 22.2248 35.3712 22.1322 35.3718C21.834 35.3735 21.5358 35.3745 21.2377 35.3754C21.1359 35.3757 21.0341 35.3761 20.9292 35.3764C20.3904 35.3782 19.8517 35.3795 19.3129 35.3803C18.7564 35.3812 18.2 35.3842 17.6435 35.3876C17.2156 35.3899 16.7877 35.3906 16.3598 35.3909C16.1547 35.3913 15.9495 35.3923 15.7444 35.3939C15.4572 35.396 15.17 35.3959 14.8828 35.3953C14.756 35.397 14.756 35.397 14.6266 35.3987C14.0997 35.3947 13.7905 35.3177 13.3592 35.0097C13.0452 34.6703 12.8155 34.3572 12.8286 33.885C12.8301 33.8165 12.8315 33.7479 12.8329 33.6773C12.8353 33.6029 12.8377 33.5285 12.8401 33.4518C12.8438 33.288 12.8474 33.1242 12.851 32.9604C12.8531 32.8736 12.8553 32.7869 12.8575 32.6975C12.8678 32.2364 12.8714 31.7752 12.8758 31.314C12.8815 30.7277 12.8892 30.1418 12.9064 29.5558C12.9201 29.0815 12.9257 28.6077 12.9259 28.1333C12.9275 27.9534 12.9319 27.7734 12.9394 27.5936C12.9986 26.6153 12.9986 26.6153 12.5917 25.7656C12.1975 25.4276 11.7651 25.1676 11.3032 24.9325C11.1108 24.8274 10.9434 24.707 10.7713 24.5717C10.624 24.8367 10.4791 25.103 10.3346 25.3696C10.2927 25.4449 10.2508 25.5202 10.2077 25.5977C10.1685 25.6706 10.1293 25.7434 10.0889 25.8185C10.034 25.9187 10.034 25.9187 9.97802 26.0211C9.89639 26.2441 9.9057 26.3381 9.99489 26.5558C10.1723 26.7489 10.1723 26.7489 10.3939 26.9332C10.4717 27.0011 10.5495 27.0691 10.6297 27.1391C10.7647 27.2534 10.9001 27.3671 11.0368 27.4794C11.5183 27.8761 11.8081 28.2761 11.979 28.8849C12.008 29.1912 12.008 29.1912 12.0113 29.5157C12.0138 29.6221 12.0162 29.7286 12.0187 29.8382C11.9188 30.6947 11.3703 31.434 10.9384 32.163C10.9059 32.218 10.8734 32.2731 10.8399 32.3298C10.4446 32.9989 10.0479 33.6674 9.63365 34.325C9.59845 34.3823 9.56325 34.4397 9.52698 34.4987C9.24626 34.9345 8.93404 35.1908 8.44211 35.3548C7.81161 35.4179 7.24718 35.3805 6.71681 35.0097C6.2545 34.5348 6.0753 34.1056 6.08296 33.4378C6.14816 32.9168 6.35927 32.4303 6.54428 31.9419C6.58595 31.8291 6.62751 31.7163 6.66896 31.6034C6.77006 31.3294 6.8723 31.0559 6.9756 30.7827C6.89053 30.7795 6.80547 30.7763 6.71782 30.773C5.88463 30.7366 5.05546 30.6687 4.2259 30.5833C4.12968 30.5742 4.03345 30.5651 3.93431 30.5557C3.11692 30.4674 2.19005 30.3277 1.5756 29.7327C1.24324 29.2995 1.04634 28.7574 1.08328 28.2076C1.33712 26.4177 2.36882 24.811 3.2662 23.2777C3.31525 23.1932 3.36431 23.1087 3.41485 23.0217C5.13246 20.0643 5.13246 20.0643 6.37175 18.8781C6.48697 18.7633 6.60204 18.6484 6.71681 18.5331C6.66477 18.4798 6.61272 18.4266 6.5591 18.3717C6.12508 17.9118 5.79303 17.4988 5.59536 16.894C5.57901 16.8441 5.56267 16.7942 5.54582 16.7427C5.36084 15.7669 5.464 14.7752 5.98119 13.9246C6.5193 13.1665 7.28393 12.6602 8.18669 12.4544C9.29075 12.2758 10.4637 12.6228 11.2835 13.3841ZM7.24518 14.3762C6.76274 14.9851 6.63949 15.5258 6.71681 16.2902C6.82674 16.8981 7.19378 17.2911 7.66572 17.6704C8.17047 17.9886 8.72138 18.0495 9.29937 17.967C9.91017 17.7834 10.3777 17.4489 10.7281 16.9156C11.0085 16.3917 11.1113 15.9329 10.9691 15.35C10.7111 14.5832 10.3595 14.1674 9.64982 13.7885C8.76551 13.4937 7.87441 13.6997 7.24518 14.3762ZM6.17291 20.9547C3.4583 24.5679 3.4583 24.5679 2.36041 28.6153C2.6877 29.079 3.10709 29.1789 3.63326 29.2779C4.00864 29.3387 4.38448 29.3723 4.76337 29.4025C4.93079 29.4169 5.09821 29.4313 5.26563 29.4456C5.5257 29.4674 5.78578 29.4889 6.04587 29.5103C6.29955 29.5314 6.55316 29.5532 6.80678 29.575C6.88398 29.5812 6.96118 29.5873 7.04073 29.5936C7.47031 29.6308 7.86439 29.682 8.26958 29.8338C8.44211 30.0926 8.44211 30.0926 8.39763 30.4121C8.22582 31.0944 7.95449 31.7542 7.70359 32.4108C7.6362 32.5879 7.57064 32.7656 7.50533 32.9434C7.46577 33.0483 7.42621 33.1531 7.38545 33.2611C7.31253 33.5786 7.32661 33.6984 7.49319 33.9746C7.77283 34.161 7.85869 34.2025 8.18332 34.1471C8.4702 33.8307 8.68434 33.4731 8.89938 33.1062C8.93384 33.048 8.9683 32.9898 9.00381 32.9298C9.11342 32.7445 9.22258 32.5589 9.33172 32.3733C9.40397 32.251 9.47625 32.1287 9.54856 32.0065C9.68943 31.7682 9.82976 31.5297 9.96972 31.2909C10.0956 31.0764 10.2229 30.8631 10.3521 30.6507C10.4068 30.5598 10.4615 30.469 10.5179 30.3753C10.5657 30.2969 10.6135 30.2185 10.6628 30.1378C10.8261 29.81 10.8766 29.4966 10.7713 29.1437C10.5249 28.7097 10.2103 28.4006 9.84392 28.0708C9.76374 27.997 9.76374 27.997 9.68194 27.9218C9.34722 27.6154 9.00587 27.32 8.64531 27.044C8.46618 26.8246 8.45023 26.6649 8.44211 26.3832C8.52729 26.1617 8.61418 25.9743 8.72787 25.7686C8.79139 25.6478 8.85485 25.5269 8.91826 25.406C8.95257 25.3417 8.98689 25.2773 9.02225 25.2111C9.22269 24.8318 9.41432 24.4482 9.60669 24.0648C9.64509 23.9894 9.68349 23.914 9.72305 23.8363C9.75849 23.7661 9.79393 23.6958 9.83044 23.6234C9.86219 23.5608 9.89394 23.4982 9.92665 23.4337C10.0064 23.2797 10.0064 23.2797 9.99489 23.1051C10.3844 23.0146 10.5845 23.0216 10.9438 23.1914C11.089 23.2825 11.2314 23.378 11.3714 23.4768C11.4525 23.5337 11.5337 23.5906 11.6172 23.6493C11.7028 23.7099 11.7884 23.7705 11.8765 23.833C12.055 23.9584 12.2335 24.0837 12.412 24.2091C12.4996 24.2707 12.5872 24.3324 12.6774 24.3959C13.0711 24.6721 13.4679 24.9438 13.865 25.2153C13.9151 25.2496 13.9653 25.284 14.017 25.3194C14.0648 25.352 14.1126 25.3847 14.1618 25.4183C14.2661 25.4912 14.3691 25.5658 14.4711 25.6417C14.7802 25.8839 14.7802 25.8839 15.1546 25.9627C15.364 25.8782 15.364 25.8782 15.4566 25.6446C15.4761 25.5752 15.4957 25.5058 15.5159 25.4343C15.1102 24.965 14.6955 24.5059 14.2704 24.0541C14.2137 23.9936 14.157 23.9332 14.0985 23.8709C13.7628 23.5142 13.4218 23.1644 13.0725 22.8211C12.9218 22.6677 12.7819 22.5083 12.6421 22.3449C12.3529 22.0081 12.0405 21.6973 11.7245 21.386C11.4946 21.1583 11.2763 20.9263 11.0678 20.6789C10.4798 19.9969 9.84081 19.3415 8.9223 19.1882C7.70136 19.112 6.83421 20.0434 6.17291 20.9547ZM17.7588 22.6738C17.5587 22.9557 17.5462 23.1958 17.5862 23.5365C17.666 23.6855 17.666 23.6855 17.7641 23.833C17.9249 24.0887 17.9312 24.1427 17.9205 24.4692C17.845 24.7442 17.845 24.7442 17.6725 24.9167C17.4292 24.9524 17.4292 24.9524 17.1441 24.9706C17.0496 24.9771 16.9551 24.9835 16.8577 24.9902C16.785 24.9944 16.7122 24.9986 16.6373 25.003C16.6433 25.0844 16.6433 25.0844 16.6494 25.1674C16.6724 25.7115 16.6167 26.1093 16.2922 26.5558C16.0117 26.8502 15.7393 27.053 15.3231 27.0909C15.2515 27.0922 15.1799 27.0935 15.1061 27.0949C15.0354 27.0971 14.9647 27.0994 14.8918 27.1016C14.5815 27.0648 14.3336 26.9409 14.0494 26.8145C14.0434 27.7324 14.0388 28.6502 14.0359 29.568C14.0346 29.9942 14.0328 30.4204 14.0298 30.8465C14.027 31.2577 14.0255 31.6687 14.0248 32.0799C14.0243 32.2369 14.0234 32.3939 14.022 32.5509C14.0201 32.7705 14.0199 32.99 14.02 33.2096C14.019 33.2748 14.0181 33.34 14.0172 33.4072C14.0137 33.7425 14.0137 33.7425 14.1584 34.0344C14.3424 34.1728 14.4365 34.1796 14.665 34.18C14.7739 34.181 14.7739 34.181 14.8849 34.1822C14.9642 34.1816 15.0436 34.1811 15.1253 34.1806C15.2091 34.181 15.2928 34.1815 15.3791 34.182C15.6566 34.1831 15.9339 34.1823 16.2114 34.1815C16.4038 34.1816 16.5962 34.1819 16.7886 34.1822C17.1921 34.1826 17.5956 34.182 17.9991 34.1808C18.5169 34.1794 19.0347 34.1802 19.5525 34.1818C19.9499 34.1827 20.3473 34.1824 20.7447 34.1817C20.9357 34.1815 21.1267 34.1818 21.3176 34.1824C21.5843 34.183 21.8509 34.182 22.1175 34.1806C22.1968 34.1811 22.2762 34.1816 22.3579 34.1822C22.4305 34.1814 22.503 34.1807 22.5778 34.18C22.6408 34.1799 22.7039 34.1798 22.7688 34.1797C22.9866 34.1369 23.0625 34.0656 23.1935 33.8883C23.2179 33.639 23.2274 33.4073 23.2255 33.1581C23.227 33.0111 23.2285 32.8641 23.23 32.7171C23.2309 32.4856 23.2312 32.2541 23.2311 32.0226C23.2314 31.799 23.2337 31.5755 23.2363 31.3519C23.2356 31.2828 23.2348 31.2137 23.2341 31.1425C23.2383 30.8328 23.254 30.6462 23.4364 30.391C23.6248 30.2652 23.6248 30.2652 23.9213 30.2705C24.2286 30.3514 24.2286 30.3514 24.4335 30.4916C24.726 30.6448 24.9218 30.6398 25.2443 30.5897C25.5953 30.4696 25.7869 30.2448 25.954 29.9201C26.0475 29.595 26.0184 29.3553 25.864 29.0551C25.6382 28.7458 25.4343 28.5889 25.0536 28.5237C24.7607 28.5104 24.593 28.555 24.3473 28.7124C24.0561 28.8849 24.0561 28.8849 23.7272 28.8795C23.4523 28.7986 23.4523 28.7986 23.2797 28.5399C23.262 28.2929 23.2538 28.0536 23.2531 27.8066C23.2509 27.6592 23.2487 27.5119 23.2465 27.3645C23.2441 27.1322 23.242 26.8999 23.2404 26.6676C23.2385 26.4434 23.2351 26.2192 23.2315 25.995C23.2315 25.8907 23.2315 25.8907 23.2315 25.7843C23.2338 25.4262 23.2338 25.4262 23.0822 25.114C22.8261 24.9213 22.5126 24.9686 22.2044 24.971C22.0575 24.9695 21.9105 24.9679 21.7635 24.9664C21.532 24.9655 21.3005 24.9652 21.069 24.9654C20.8454 24.9651 20.6218 24.9627 20.3983 24.9602C20.3292 24.9609 20.26 24.9616 20.1888 24.9623C19.8774 24.9582 19.6927 24.943 19.4374 24.7573C19.3115 24.5717 19.3115 24.5717 19.3169 24.3182C19.3978 24.0541 19.3978 24.0541 19.5326 23.8492C19.7009 23.5418 19.7376 23.27 19.6566 22.9326C19.4768 22.6462 19.2716 22.3951 18.9665 22.2425C18.3858 22.1844 18.1629 22.2505 17.7588 22.6738Z" fill="#1D304D"/>
</svg>
