<svg width="40" height="40" viewBox="0 0 40 40" fill="none" xmlns="http://www.w3.org/2000/svg">
<path d="M14.0722 3.36919C14.8871 3.98039 15.5677 4.87696 15.8593 5.85942C15.9445 5.85534 15.9445 5.85534 16.0314 5.85118C17.1847 5.82013 18.1242 6.14253 19.0038 6.89458C19.8776 7.72679 20.38 8.7857 20.4101 10.0049C20.3903 11.1664 19.9696 12.1953 19.1665 13.0277C18.5412 13.6299 17.9166 13.9284 17.1093 14.2188C17.3906 14.4129 17.6722 14.6064 17.954 14.7998C18.034 14.8551 18.114 14.9103 18.1965 14.9672C18.2733 15.0199 18.3501 15.0725 18.4292 15.1267C18.5 15.1754 18.5707 15.2241 18.6437 15.2742C19.2477 15.6557 19.9872 15.4422 20.6387 15.2979C20.8065 15.2623 20.9744 15.2267 21.1423 15.1911C21.4036 15.1348 21.6649 15.0782 21.926 15.0213C22.1803 14.9662 22.4349 14.9123 22.6894 14.8584C22.7661 14.8414 22.8428 14.8243 22.9218 14.8067C23.5966 14.6646 24.3946 14.5182 25.0191 14.8859C25.4679 15.2597 25.6425 15.679 25.703 16.25C26.7363 16.1478 27.7158 16.0508 28.6718 15.625C28.6718 15.403 28.5689 15.3449 28.4179 15.1856C27.8423 14.5403 27.6142 13.8051 27.6369 12.9432C27.7029 12.2274 27.9049 11.6515 28.3593 11.0938C28.3986 11.0448 28.4378 10.9959 28.4783 10.9455C29.0329 10.326 29.7734 10.0435 30.5862 9.96251C30.8143 9.91503 30.8754 9.87035 31.0155 9.68754C31.1008 9.55388 31.1836 9.4186 31.2646 9.28227C31.6643 8.64866 32.131 8.06756 32.8905 7.89067C33.6707 7.80918 34.289 7.85674 34.9276 8.32097C36.1511 9.32311 36.7145 10.8954 36.9228 12.4259C36.954 12.7447 36.9729 13.0588 36.9775 13.379C36.9797 13.4331 36.982 13.4873 36.9843 13.5431C36.9877 13.8109 36.9729 13.9575 36.8124 14.1758C36.5594 14.3541 36.3952 14.3454 36.0937 14.2969C35.8645 14.0504 35.7119 13.7934 35.5675 13.4909C35.5294 13.4123 35.4913 13.3337 35.4521 13.2527C35.4124 13.1703 35.3728 13.0879 35.3319 13.003C34.9158 12.1548 34.5148 11.3664 33.828 10.7032C33.5108 10.8624 33.5108 10.8624 33.3593 11.1719C33.4487 11.3515 33.4487 11.3515 33.579 11.5381C34.0367 12.2762 34.1084 13.078 33.9306 13.9289C33.7168 14.6326 33.3412 15.1274 32.8124 15.625C32.9125 15.8457 33.0174 15.9969 33.1884 16.167C33.7037 16.7678 33.8451 17.4993 33.9425 18.2615C33.9572 18.3727 33.9572 18.3727 33.9722 18.4863C34.0836 19.3505 34.1699 20.2174 34.258 21.0842C34.4947 23.3912 34.814 25.6244 35.3948 27.872C35.4099 27.9315 35.4251 27.991 35.4408 28.0524C35.4692 28.1635 35.4981 28.2745 35.5277 28.3853C35.6135 28.7221 35.6574 29.028 35.6249 29.375C35.5059 29.5334 35.4372 29.6006 35.2408 29.6376C35.1844 29.6371 35.128 29.6366 35.0699 29.636C34.9737 29.636 34.9737 29.636 34.8756 29.636C34.8068 29.6348 34.7379 29.6336 34.667 29.6323C34.5962 29.632 34.5254 29.6316 34.4525 29.6313C34.2264 29.63 34.0004 29.627 33.7743 29.6241C33.6211 29.6229 33.4678 29.6218 33.3146 29.6209C32.9388 29.6183 32.5631 29.6142 32.1874 29.6094C32.1815 29.7335 32.1815 29.7335 32.1756 29.8601C32.1323 30.7717 32.0877 31.6833 32.042 32.5948C32.035 32.7366 32.0279 32.8784 32.0209 33.0202C32.0021 33.4004 31.9827 33.7806 31.9623 34.1608C31.9562 34.2764 31.9503 34.3922 31.9446 34.5079C31.8612 36.1907 31.8612 36.1907 31.3268 36.745C30.9504 37.0607 30.5147 37.1613 30.0286 37.1412C29.6028 37.0681 29.2144 36.8944 28.9291 36.5647C28.6796 36.1801 28.5878 35.8465 28.5705 35.3895C28.5673 35.3114 28.5642 35.2333 28.561 35.1528C28.5565 35.026 28.5565 35.026 28.5519 34.8966C28.5485 34.808 28.5451 34.7195 28.5417 34.6282C28.5346 34.4397 28.5277 34.2511 28.521 34.0626C28.5109 33.7812 28.5001 33.4999 28.4891 33.2186C28.4441 32.0151 28.4277 30.8137 28.4374 29.6094C28.3539 29.6111 28.2703 29.6127 28.1842 29.6144C27.8738 29.62 27.5634 29.6236 27.253 29.6266C27.1187 29.6282 26.9844 29.6303 26.8501 29.633C26.657 29.6368 26.4639 29.6386 26.2707 29.6399C26.1808 29.6424 26.1808 29.6424 26.0891 29.6448C25.8326 29.6449 25.6502 29.6232 25.4234 29.5001C25.1453 28.9911 25.4499 28.1731 25.5644 27.6309C25.5819 27.5462 25.5994 27.4615 25.6175 27.3743C25.675 27.0969 25.7331 26.8197 25.7912 26.5424C25.8314 26.3491 25.8716 26.1558 25.9118 25.9625C26.0064 25.5073 26.1013 25.0522 26.1965 24.5971C26.3049 24.0785 26.4128 23.5599 26.5207 23.0412C26.7424 21.9753 26.9647 20.9095 27.1874 19.8438C27.0915 19.823 26.9956 19.8022 26.8968 19.7808C26.7694 19.7529 26.6419 19.725 26.5145 19.6971C26.42 19.6767 26.42 19.6767 26.3235 19.6559C25.83 19.5474 25.3597 19.4047 24.8876 19.2237C24.8192 19.1985 24.7508 19.1734 24.6802 19.1475C24.6118 19.122 24.5434 19.0965 24.4729 19.0702C24.3712 19.0325 24.3712 19.0325 24.2674 18.9941C24.0624 18.9063 24.0624 18.9063 23.8592 18.7818C23.5261 18.5862 23.3241 18.4851 22.9393 18.5822C22.6425 18.7132 22.3624 18.8595 22.08 19.0186C21.888 19.1224 21.6952 19.2244 21.502 19.3259C21.455 19.3509 21.4079 19.3758 21.3594 19.4015C19.905 20.156 18.7362 19.9377 17.2343 19.5103C16.974 19.4371 16.7127 19.3712 16.4501 19.3067C16.3439 19.2804 16.3439 19.2804 16.2356 19.2536C16.1887 19.2421 16.1419 19.2306 16.0937 19.2188C16.0838 19.3085 16.0738 19.3982 16.0636 19.4906C16.0209 19.8315 15.9502 20.1613 15.8712 20.4953C15.8429 20.6183 15.8147 20.7412 15.7865 20.8641C15.7424 21.0548 15.6981 21.2454 15.6533 21.436C15.6097 21.6219 15.567 21.8081 15.5245 21.9944C15.5044 22.0783 15.5044 22.0783 15.4838 22.1639C15.3948 22.5576 15.339 22.9562 15.3905 23.3594C15.7354 23.8711 16.3563 23.9649 16.9296 24.079C17.0947 24.1098 17.2599 24.1401 17.4252 24.17C17.6059 24.2037 17.7866 24.2375 17.9673 24.2713C18.2496 24.3234 18.532 24.3754 18.8144 24.4271C19.0887 24.4775 19.3629 24.5288 19.6371 24.5801C19.7213 24.5953 19.8055 24.6104 19.8923 24.626C20.299 24.7025 20.6602 24.7753 21.0155 25C21.1267 25.2223 21.1152 25.378 21.0937 25.625C20.9789 25.8484 20.9789 25.8484 20.8202 26.0743C20.7635 26.1553 20.7068 26.2364 20.6484 26.3199C20.434 26.6094 20.2121 26.8911 19.9813 27.1677C19.8398 27.3488 19.7235 27.5352 19.6093 27.7344C19.6625 27.7473 19.7156 27.7602 19.7704 27.7735C20.189 27.9872 20.5038 28.3715 20.6982 28.7989C20.9562 29.6652 20.7406 30.6272 20.5843 31.4957C20.5638 31.6133 20.5434 31.7309 20.523 31.8485C20.4804 32.0929 20.4372 32.3372 20.3935 32.5814C20.3379 32.8926 20.2835 33.204 20.2296 33.5154C20.1876 33.7575 20.1451 33.9995 20.1023 34.2415C20.0821 34.3562 20.062 34.471 20.0421 34.5858C19.7462 36.2819 19.7462 36.2819 19.2968 36.7188C18.8306 37.0401 18.454 37.147 17.8905 37.1094C17.4331 37.0032 17.0097 36.7814 16.7187 36.4063C16.4923 35.968 16.4571 35.5922 16.4989 35.1075C16.5033 35.0443 16.5076 34.9812 16.512 34.9161C16.5535 34.3379 16.6109 33.7607 16.6667 33.1837C16.7152 32.6664 16.734 32.1603 16.7187 31.6407C16.5064 31.52 16.2929 31.4019 16.079 31.2842C15.9889 31.2329 15.9889 31.2329 15.897 31.1806C15.5647 30.9942 15.5647 30.9942 15.1961 30.9363C15.099 30.9756 15.099 30.9756 14.9999 31.0157C14.9496 31.0359 14.8994 31.0562 14.8476 31.077C14.6009 31.1786 14.3572 31.2867 14.1134 31.3948C14.0514 31.4217 13.9895 31.4485 13.9257 31.4762C13.8288 31.5195 13.8288 31.5195 13.7299 31.5637C13.5155 31.6407 13.5155 31.6407 13.261 31.6757C12.9545 31.7262 12.7605 31.7811 12.4999 31.9532C12.1886 32.4169 12.0619 32.99 11.9091 33.5205C11.8641 33.6663 11.8186 33.8119 11.7728 33.9574C11.6859 34.235 11.6006 34.513 11.517 34.7916C11.05 36.3386 11.05 36.3386 10.3002 36.829C9.8753 37.0501 9.51216 37.1191 9.03228 37.122C8.8805 37.1231 8.8805 37.1231 8.72564 37.1243C8.61533 37.1247 8.50501 37.125 8.3947 37.1253C8.28104 37.1257 8.16737 37.1262 8.05371 37.1266C7.81546 37.1275 7.5772 37.1279 7.33894 37.1282C7.03493 37.1286 6.73094 37.1305 6.42694 37.1327C6.19208 37.1342 5.95723 37.1346 5.72236 37.1347C5.61036 37.1349 5.49836 37.1356 5.38637 37.1366C4.07743 37.1478 4.07743 37.1478 3.57475 36.7292C3.12937 36.1815 2.97523 35.7916 3.0468 35.0782C3.1773 34.666 3.36611 34.3682 3.6718 34.0625C4.04826 33.8746 4.36628 33.7907 4.78813 33.7452C4.84018 33.7391 4.89224 33.7331 4.94587 33.7268C5.16591 33.7013 5.38613 33.6776 5.60638 33.654C5.7683 33.6363 5.93006 33.6175 6.09184 33.5987C6.18778 33.5883 6.28371 33.5779 6.38256 33.5672C6.65628 33.5125 6.8162 33.4591 7.03117 33.2813C7.13741 33.041 7.13741 33.041 7.18742 32.8125C7.10622 32.8142 7.02503 32.8158 6.94137 32.8175C6.6397 32.8232 6.33804 32.8267 6.03634 32.8297C5.90584 32.8313 5.77535 32.8334 5.64487 32.8361C5.45714 32.8399 5.26947 32.8417 5.08171 32.8431C5.02351 32.8447 4.96531 32.8463 4.90535 32.8479C4.65113 32.8481 4.47854 32.8274 4.2575 32.6983C3.94218 32.1637 4.199 31.4033 4.31541 30.832C4.34311 30.6923 4.34311 30.6923 4.37137 30.5498C4.42155 30.2982 4.47239 30.0467 4.52369 29.7953C4.55577 29.6378 4.58763 29.4803 4.61944 29.3228C6.4995 20.0235 6.4995 20.0235 8.3593 16.1719C8.39091 16.1064 8.42252 16.0409 8.45508 15.9735C8.81961 15.2293 9.18817 14.5103 9.76555 13.9063C9.85029 13.8155 9.85029 13.8155 9.93675 13.7229C10.6856 12.9839 11.6362 12.6214 12.6562 12.4219C12.6185 12.352 12.5808 12.2821 12.542 12.2101C11.9622 11.1111 11.7622 10.0572 12.105 8.82786C12.2717 8.35451 12.4838 7.88367 12.788 7.48234C12.9051 7.3529 12.9051 7.3529 12.8905 7.19731C12.7254 6.84638 12.5267 6.62058 12.1923 6.43559C11.8569 6.39452 11.7483 6.51543 11.4843 6.71879C10.4652 7.86675 9.81191 9.39797 9.15291 10.7691C9.12365 10.8292 9.09439 10.8893 9.06425 10.9513C9.03921 11.0036 9.01417 11.0559 8.98838 11.1098C8.89754 11.2648 8.81145 11.3711 8.6718 11.4844C8.37989 11.5216 8.20236 11.536 7.95341 11.3703C7.74396 11.0756 7.7689 10.817 7.77824 10.4639C7.77939 10.3946 7.78053 10.3253 7.78171 10.254C7.83913 8.1912 8.4478 6.0415 9.68742 4.37504C9.72579 4.32227 9.76416 4.2695 9.80369 4.21513C10.8257 2.9139 12.6604 2.44023 14.0722 3.36919ZM10.9374 4.68754C10.8927 4.72803 10.848 4.76851 10.8019 4.81023C10.1737 5.45285 9.72139 6.41413 9.45305 7.26567C9.4818 7.43569 9.4818 7.43569 9.53117 7.57817C9.57377 7.50828 9.61637 7.43839 9.66026 7.36638C10.742 5.61911 10.742 5.61911 11.7187 5.31254C12.1519 5.23266 12.5083 5.30063 12.8915 5.51488C13.2633 5.77861 13.5758 6.10609 13.828 6.48442C14.1588 6.38203 14.4588 6.25445 14.7655 6.09379C14.3988 5.33721 13.8392 4.37421 13.0044 4.06773C12.1687 3.90849 11.5615 4.11853 10.9374 4.68754ZM13.7395 8.08018C13.2173 8.7827 12.9903 9.55853 13.0636 10.4352C13.1957 11.238 13.5932 11.9754 14.2187 12.5C15.0753 13.0414 15.9438 13.2989 16.9567 13.0716C17.8773 12.7583 18.5396 12.2213 19.0145 11.3678C19.3462 10.6021 19.3569 9.65234 19.0673 8.87211C18.6855 8.08809 18.0331 7.42362 17.214 7.10728C15.9309 6.71569 14.6361 7.06053 13.7395 8.08018ZM9.37492 7.57817C9.45305 7.73442 9.45305 7.73442 9.45305 7.73442L9.37492 7.57817ZM32.4401 9.55205C32.1997 9.86643 32.1997 9.86643 32.1093 10.2344C32.264 10.3118 32.264 10.3118 32.4218 10.3907C32.4624 10.3474 32.503 10.3041 32.5448 10.2594C32.5993 10.2028 32.6537 10.1462 32.7099 10.0879C32.7634 10.0317 32.8168 9.97554 32.8719 9.91765C33.2067 9.62672 33.5318 9.57558 33.962 9.58348C34.2546 9.62599 34.4437 9.75775 34.6874 9.92192C34.739 9.9477 34.7905 9.97348 34.8437 10C34.7234 9.54581 34.3798 9.28108 33.9876 9.05095C33.3525 8.78618 32.8369 9.0429 32.4401 9.55205ZM29.1546 11.8894C28.8146 12.4129 28.6891 12.9552 28.8036 13.5645C28.948 14.1247 29.297 14.5598 29.7777 14.8768C30.2675 15.1527 30.692 15.2444 31.2499 15.1563C31.8574 14.9767 32.3231 14.6501 32.6415 14.0967C32.9243 13.5687 32.9701 13.0441 32.8124 12.4659C32.6117 11.9238 32.2168 11.4743 31.704 11.2061C30.7643 10.8561 29.767 11.0884 29.1546 11.8894ZM10.454 14.8096C7.69709 18.5564 6.83088 24.1756 5.90324 28.6329C5.88688 28.7114 5.87051 28.79 5.85365 28.8709C5.65725 29.8176 5.47387 30.7655 5.31242 31.7188C9.8404 31.8283 14.6808 30.7807 18.0468 27.5782C18.8737 26.8262 18.8737 26.8262 19.5312 25.9375C19.5054 25.8602 19.4796 25.7829 19.453 25.7032C19.4111 25.6952 19.3691 25.6873 19.3259 25.6791C18.8845 25.5954 18.4434 25.5102 18.0025 25.4242C17.8385 25.3924 17.6744 25.361 17.5102 25.3299C15.1096 24.875 15.1096 24.875 14.5577 24.1532C14.0213 23.2884 14.288 22.3805 14.4985 21.4432C14.5185 21.3533 14.5384 21.2633 14.559 21.1706C14.6011 20.9821 14.6434 20.7936 14.6861 20.6052C14.7511 20.3166 14.8143 20.0277 14.8774 19.7387C14.9186 19.5549 14.96 19.3711 15.0014 19.1874C15.0201 19.1011 15.0387 19.0148 15.058 18.926C15.0765 18.8459 15.0949 18.7658 15.114 18.6832C15.1297 18.613 15.1454 18.5427 15.1616 18.4703C15.2507 18.2386 15.3517 18.1211 15.5468 17.9688C15.9724 17.9827 16.3568 18.0876 16.766 18.2056C16.8465 18.2286 16.8465 18.2286 16.9286 18.252C17.098 18.3004 17.2672 18.3494 17.4364 18.3985C17.6065 18.4474 17.7766 18.4963 17.9468 18.545C18.1005 18.589 18.2542 18.6334 18.4079 18.6779C19.8302 19.0668 20.9133 18.387 22.1581 17.7515C22.7333 17.4586 23.3168 17.1837 23.9025 16.9124C23.9737 16.8789 24.0449 16.8454 24.1183 16.811C24.1812 16.7817 24.2441 16.7525 24.309 16.7224C24.466 16.651 24.466 16.651 24.5312 16.4844C24.5653 16.1637 24.5653 16.1637 24.4349 15.8826C24.2518 15.7483 24.1645 15.7653 23.9418 15.7956C23.8722 15.8049 23.8027 15.8142 23.731 15.8238C23.3889 15.8803 23.0503 15.9475 22.7114 16.0209C22.5591 16.0527 22.4067 16.0845 22.2544 16.1162C22.0186 16.1658 21.783 16.2157 21.5474 16.2664C18.9304 16.828 18.9304 16.828 17.6925 16.0303C17.574 15.9481 17.4562 15.865 17.3388 15.7813C17.2752 15.737 17.2117 15.6927 17.1462 15.6471C16.8317 15.4275 16.52 15.2041 16.2096 14.9787C14.4208 13.6839 12.1599 12.7845 10.454 14.8096ZM28.5606 16.8686C28.1838 17.013 27.8205 17.1266 27.4218 17.1875C27.3203 17.2037 27.2188 17.2198 27.1142 17.2364C26.8685 17.2641 26.6326 17.2634 26.3863 17.251C25.5801 17.1954 25.5801 17.1954 24.873 17.5391C24.7189 17.6835 24.7189 17.6835 24.6093 17.8125C24.8803 18.0836 25.2663 18.1531 25.6249 18.2715C25.7089 18.2995 25.7928 18.3276 25.8794 18.3564C26.4516 18.5431 27.0223 18.6973 27.6144 18.8063C28.1783 18.9144 28.1783 18.9144 28.3593 19.1407C28.3933 19.6552 28.3026 20.1214 28.1943 20.623C28.1681 20.7485 28.1681 20.7485 28.1412 20.8765C28.0835 21.1515 28.0249 21.4263 27.9662 21.7011C27.9259 21.8925 27.8856 22.0839 27.8454 22.2753C27.7504 22.7268 27.6548 23.1781 27.559 23.6294C27.377 24.4866 27.1963 25.3442 27.0156 26.2017C26.956 26.4837 26.8962 26.7656 26.8364 27.0475C26.8 27.2192 26.7637 27.391 26.7274 27.5627C26.7106 27.6415 26.6938 27.7203 26.6765 27.8015C26.6613 27.8732 26.6462 27.9448 26.6306 28.0186C26.6174 28.081 26.6041 28.1434 26.5905 28.2077C26.5577 28.3593 26.5577 28.3593 26.5624 28.5157C29.1405 28.5157 31.7187 28.5157 34.3749 28.5157C34.0655 27.1622 34.0655 27.1622 33.7499 25.7813C33.5258 24.5021 33.3594 23.2295 33.2223 21.9394C33.2163 21.883 33.2102 21.8265 33.204 21.7684C33.1426 21.1913 33.082 20.6142 33.0244 20.0368C33.0024 19.8172 32.9798 19.5977 32.9572 19.3782C32.9417 19.2262 32.927 19.0741 32.9124 18.9219C32.8313 18.1401 32.716 17.336 32.1874 16.7188C31.0833 15.8313 29.7153 16.4221 28.5606 16.8686ZM18.3632 28.7817C17.7731 29.2997 17.1456 29.7346 16.4843 30.1563C16.7098 30.3336 16.941 30.4728 17.1923 30.6104C17.5236 30.8087 17.6978 30.946 17.8124 31.3282C17.9002 31.8313 17.8749 32.2808 17.8188 32.7866C17.8028 32.9466 17.7869 33.1065 17.7711 33.2665C17.7455 33.5165 17.7195 33.7665 17.6923 34.0164C17.6662 34.259 17.6423 34.5017 17.6186 34.7446C17.6099 34.8192 17.6012 34.8939 17.5923 34.9708C17.5506 35.3995 17.5506 35.3995 17.7223 35.7875C17.9333 35.9793 17.9333 35.9793 18.203 36.0157C18.4396 35.9143 18.5632 35.844 18.6769 35.6099C18.7597 35.3614 18.8085 35.1194 18.8537 34.8614C18.8629 34.8098 18.8721 34.7581 18.8815 34.7049C18.9115 34.5351 18.9409 34.3652 18.9703 34.1953C18.991 34.0765 19.0118 33.9577 19.0326 33.8389C19.0761 33.5901 19.1193 33.3413 19.1623 33.0924C19.2171 32.7747 19.2728 32.4572 19.3288 32.1397C19.3719 31.8944 19.4146 31.649 19.4571 31.4035C19.4774 31.2865 19.4979 31.1695 19.5186 31.0525C19.7397 30.0754 19.7397 30.0754 19.5702 29.126C19.33 28.8558 19.0699 28.6812 18.7499 28.5157C18.5872 28.5157 18.4798 28.6792 18.3632 28.7817ZM29.5312 29.6094C29.5227 30.7293 29.5502 31.8461 29.5893 32.9652C29.5996 33.2644 29.6089 33.5637 29.6181 33.863C29.6247 34.0544 29.6313 34.2459 29.638 34.4373C29.6406 34.5262 29.6432 34.615 29.6459 34.7066C29.6624 35.2998 29.6624 35.2998 29.8437 35.8594C30.0644 36.0407 30.0644 36.0407 30.3173 36.001C30.57 35.958 30.57 35.958 30.703 35.7032C30.7714 35.3319 30.7979 34.9616 30.8187 34.585C30.8218 34.5308 30.8248 34.4767 30.828 34.4208C30.8379 34.2437 30.8475 34.0666 30.8572 33.8895C30.864 33.7659 30.8709 33.6423 30.8778 33.5188C30.8959 33.195 30.9137 32.8712 30.9314 32.5474C30.9496 32.2164 30.968 31.8854 30.9864 31.5545C31.0224 30.9061 31.0581 30.2578 31.0937 29.6094C30.578 29.6094 30.0624 29.6094 29.5312 29.6094ZM9.85742 32.3939C9.74765 32.4093 9.63769 32.4234 9.5276 32.4364C8.89094 32.4875 8.89094 32.4875 8.37856 32.8137C8.29759 32.9953 8.24651 33.1658 8.20305 33.3594C8.14589 33.4967 8.08759 33.6336 8.02726 33.7696C8.00108 33.8312 7.9749 33.8928 7.94792 33.9563C7.66318 34.3437 7.27407 34.5342 6.80595 34.6152C6.66961 34.6326 6.53308 34.6486 6.3964 34.6631C6.32476 34.6723 6.25311 34.6814 6.17929 34.6908C5.85586 34.7317 5.53203 34.7673 5.20775 34.8008C5.11177 34.8117 5.0158 34.8227 4.91691 34.834C4.83383 34.8419 4.75074 34.8497 4.66514 34.8578C4.38454 34.9426 4.29331 35.0669 4.14055 35.3125C4.12076 35.5584 4.12076 35.5584 4.21867 35.7813C4.50434 35.9962 4.7131 36.0452 5.06685 36.046C5.15709 36.0467 5.24732 36.0475 5.34029 36.0482C5.43714 36.0478 5.53399 36.0473 5.63377 36.0468C5.73405 36.047 5.83432 36.0472 5.93763 36.0475C6.14969 36.0478 6.36172 36.0473 6.57377 36.0462C6.84407 36.0449 7.11432 36.0457 7.38461 36.0471C7.6441 36.0481 7.90358 36.0474 8.16307 36.0468C8.25944 36.0473 8.35581 36.0477 8.45511 36.0482C8.97199 36.044 9.37853 36.0151 9.84367 35.7813C10.2917 35.3115 10.4415 34.5921 10.6309 33.9871C10.6888 33.8026 10.7479 33.6184 10.8073 33.4343C10.8447 33.3169 10.8821 33.1995 10.9194 33.082C10.937 33.0271 10.9546 32.9721 10.9727 32.9156C11.0431 32.6897 11.0937 32.5038 11.0937 32.2657C10.6781 32.2657 10.268 32.3343 9.85742 32.3939Z" fill="#1D304D"/>
</svg>
