<svg width="123" height="40" viewBox="0 0 123 40" fill="none" xmlns="http://www.w3.org/2000/svg">
<g filter="url(#filter0_iiii_2023_26)">
<rect width="40" height="40" rx="12" fill="url(#paint0_linear_2023_26)"/>
<path d="M25.9628 9.808L26.1696 10.4261C26.1937 10.498 26.2519 10.5536 26.3253 10.5747L26.9565 10.7563C27.1414 10.8095 27.1844 11.0497 27.0294 11.1627L26.5 11.5487C26.4385 11.5936 26.4031 11.6656 26.4055 11.7414L26.4263 12.3923C26.4324 12.583 26.2152 12.6978 26.0587 12.5866L25.5248 12.207C25.4626 12.1628 25.3826 12.1518 25.3106 12.1775L24.6924 12.3982C24.5112 12.4628 24.3339 12.2936 24.3923 12.1118L24.5916 11.4912C24.6148 11.4191 24.6006 11.3402 24.5538 11.2803L24.1509 10.7658C24.0328 10.6151 24.1405 10.3957 24.333 10.3946L24.9901 10.3906C25.0666 10.3902 25.1379 10.3524 25.1809 10.2898L25.5502 9.75109C25.6583 9.59329 25.9022 9.6269 25.9628 9.808Z" fill="#1D304D"/>
<path d="M22.2028 8.08988L22.303 8.42909C22.3146 8.46855 22.3451 8.4998 22.3845 8.51266L22.7233 8.62316C22.8226 8.65554 22.8413 8.78665 22.755 8.84502L22.4604 9.04427C22.4261 9.06745 22.4056 9.10585 22.4054 9.14698L22.404 9.50043C22.4037 9.60396 22.2836 9.66212 22.2009 9.59883L21.9186 9.38277C21.8858 9.35764 21.8426 9.35012 21.8031 9.36269L21.4634 9.47062C21.3639 9.50224 21.2711 9.40707 21.3062 9.30959L21.4264 8.9768C21.4404 8.93808 21.4342 8.89502 21.41 8.86166L21.2014 8.57493C21.1403 8.49093 21.2029 8.37396 21.3074 8.37701L21.6639 8.38739C21.7054 8.38861 21.7448 8.36951 21.7693 8.33634L21.9801 8.05118C22.0418 7.96762 22.1734 7.9905 22.2028 8.08988Z" fill="#1D304D"/>
<path d="M21.2743 17.731C21.2701 17.6971 23.3189 15.5118 24.3042 14.8057C24.4435 14.7058 24.5419 14.5582 24.5717 14.3904C24.6061 14.1962 24.772 13.8522 24.9608 13.8062C25.3369 13.7145 25.1031 14.2021 25.1858 14.314C25.2285 14.3719 25.4122 14.2735 25.419 14.4279C25.4257 14.5785 25.0459 14.9186 25.0459 14.9186C25.0459 14.9186 23.2757 18.4138 22.9187 18.7688" fill="#1D304D"/>
<path d="M15.7109 20.6919C15.7109 20.6919 13.7876 22.4692 12.3501 24.0718C12.3501 24.0718 12.153 24.2464 11.9729 24.1586C11.7928 24.0709 11.5285 24.2036 11.8114 24.3551C11.8114 24.3551 11.7472 24.5244 11.5264 24.7018C11.3942 24.8079 11.7842 25.0253 12.1297 24.7467C12.4752 24.468 12.4465 24.4709 12.5788 24.4363C13.8451 24.1063 15.1459 23.38 16.8447 21.9824" fill="#1D304D"/>
<path d="M17.0654 21.4556C17.0279 21.6916 16.4115 23.6299 16.3784 23.9194C16.3453 24.209 17.706 24.8681 19.0227 24.3265C20.7633 23.6105 22.1171 23.4593 21.98 23.103C21.4116 21.6254 21.1112 18.574 20.951 17.731C20.951 17.731 20.1837 18.4288 18.8588 18.6461C18.8588 18.6461 18.618 19.1283 17.5336 19.2189" fill="#1D304D"/>
<path d="M17.309 21.7725C17.2853 21.8134 16.6712 22.3708 16.1602 22.7611C16.0867 22.8172 15.9308 22.8995 15.8702 22.8322C15.8702 22.8322 14.7713 22.0404 14.562 21.7163C14.505 21.628 14.6009 21.4698 14.7547 21.3087C15.2404 20.7998 16.7121 19.5836 17.653 19.2068" fill="#1D304D"/>
<path d="M18.7013 18.7181C19.7237 18.4995 21.2036 17.4807 21.4731 17.2915C22.3252 17.6462 23.102 18.7326 23.138 18.7821C23.138 18.7821 21.7786 20.6865 20.7267 21.1347" fill="#1D304D"/>
<path d="M21.1413 15.5961C21.1596 16.2686 20.9004 17.3368 19.2211 18.1691C16.2943 19.6196 14.9072 17.9827 14.9072 17.9827C14.4842 18.7444 13.1322 17.933 13.2457 17.0712C13.3593 16.2095 13.8597 16.6837 13.8597 16.6837C13.1289 16.4674 11.8219 15.3828 11.8754 14.0023C11.9141 13.0014 12.3714 13.128 12.3714 13.128L11.9654 13.0143C12.0515 12.6982 12.5846 12.6738 12.5846 12.6738C12.2825 12.4104 12.4319 11.9391 12.4319 11.9391C12.5428 12.2087 12.9734 12.3897 12.9734 12.3897C12.9734 12.3897 12.3629 11.7711 14.031 10.3647C15.6991 8.95837 17.3475 9.76959 17.9215 9.60663C18.4955 9.44365 18.5796 8.84869 18.5796 8.84869C18.9492 9.17906 19.1055 9.89233 19.1055 9.89233C19.2763 9.63698 19.1555 9.36542 19.1555 9.36542C19.1555 9.36542 20.3918 9.97383 20.8592 11.6039C21.3267 13.2339 20.6854 13.8729 20.6854 13.8729C20.6854 13.8729 21.1288 15.1324 21.1413 15.5961Z" fill="#1D304D"/>
<path d="M17.5336 19.2189C17.5336 19.2189 17.7555 18.6156 17.6789 18.31L18.8681 17.9496C18.8681 17.9496 19.0835 18.5423 19.3278 18.7373C19.3278 18.7373 18.9019 19.5073 17.5336 19.2189Z" fill="#1D304D"/>
<path d="M21.1977 20.8766C21.1977 20.8766 17.9538 23.6385 16.3783 23.9194C16.3783 23.9194 16.1746 27.6618 14.4943 29.0083C14.4943 29.0083 14.2161 28.8907 14.1281 29.0682C14.0401 29.2457 14.2603 29.862 14.451 29.8774C14.6416 29.8929 14.6587 29.3762 14.6587 29.3762C14.6587 29.3762 15.821 29.3505 17.1657 27.9657C18.5104 26.5809 19.3312 25.4914 20.2869 24.3566" fill="#1D304D"/>
<path d="M20.8846 21.9535C20.8846 21.9535 19.8796 24.8509 18.653 25.8703C18.653 25.8703 20.3521 29.2186 19.5687 31.2143C19.5687 31.2143 19.2683 31.2492 19.2809 31.4466C19.2935 31.6439 19.7936 32.0705 19.9668 31.99C20.14 31.9095 19.8958 31.4527 19.8958 31.4527C19.8958 31.4527 20.8917 30.8584 21.3646 28.9945C21.8375 27.1308 21.9139 26.6628 21.9835 24.9118C22.0232 23.9109 21.8602 22.8692 21.606 22.0279" fill="#1D304D"/>
<path d="M15.881 24.3359C15.5055 24.556 15.1531 24.8126 14.8168 25.085C14.6495 25.2223 14.4863 25.364 14.3301 25.5117C14.252 25.5856 14.1759 25.6611 14.1022 25.7382C14.028 25.8149 13.9566 25.8936 13.8886 25.974C13.8208 26.0545 13.7565 26.137 13.699 26.2215C13.6415 26.3059 13.5901 26.3925 13.5525 26.4781C13.5338 26.5209 13.519 26.5633 13.5098 26.6032C13.5003 26.6426 13.4981 26.6811 13.5012 26.7081C13.5049 26.7351 13.5129 26.7516 13.5259 26.7675C13.539 26.7833 13.5607 26.8 13.5915 26.8151C13.6539 26.8458 13.7446 26.8656 13.8394 26.874C13.9347 26.8842 14.036 26.8838 14.1386 26.8807C14.3443 26.8725 14.5558 26.8473 14.7665 26.8113C15.1891 26.7402 15.606 26.6156 16.018 26.4805C16.4303 26.3442 16.838 26.1908 17.2418 26.0272C18.0493 25.6991 18.8418 25.3309 19.6222 24.9387C20.4026 24.5463 21.1713 24.1299 21.9305 23.6969C22.1203 23.5886 22.3094 23.4793 22.4981 23.369C22.6873 23.2585 22.8737 23.1484 23.0572 23.0331C23.4243 22.8032 23.7822 22.5595 24.1164 22.2925C24.2836 22.1594 24.4446 22.0202 24.5944 21.8743C24.6692 21.8013 24.74 21.7256 24.8061 21.6486C24.8718 21.5715 24.9321 21.4915 24.9792 21.411C25.0027 21.371 25.0238 21.3309 25.0382 21.2927C25.0531 21.2546 25.062 21.2181 25.0636 21.1897C25.0653 21.1607 25.0612 21.1429 25.054 21.1291C25.0521 21.1256 25.0499 21.122 25.0474 21.1183C25.0459 21.1166 25.0444 21.1146 25.0431 21.1128C25.0421 21.112 25.0415 21.111 25.0405 21.1098C25.036 21.1049 25.0256 21.0973 25.0113 21.09C24.9828 21.0751 24.9417 21.0618 24.8974 21.0522C24.853 21.0424 24.8047 21.0357 24.7553 21.0312C24.6561 21.0222 24.5521 21.0218 24.4475 21.0256C24.2376 21.0328 24.0243 21.0582 23.8123 21.0933C23.5999 21.1273 23.3881 21.1719 23.1777 21.2238C22.7565 21.327 22.3414 21.4602 21.9338 21.6181L21.9337 21.6182C21.9092 21.6277 21.8815 21.6157 21.872 21.5914C21.8631 21.5691 21.8727 21.5441 21.8934 21.5328C22.2815 21.3211 22.6909 21.1463 23.113 21.0046C23.5361 20.865 23.9702 20.754 24.4267 20.7091C24.5413 20.699 24.6574 20.694 24.7775 20.699C24.8376 20.7017 24.8987 20.7068 24.9622 20.7176C25.0256 20.7286 25.0914 20.7439 25.1625 20.7755C25.1978 20.7914 25.235 20.8119 25.2721 20.8425C25.2814 20.8503 25.2906 20.859 25.2996 20.8675C25.3076 20.8757 25.3151 20.884 25.3227 20.8924C25.3375 20.9099 25.3512 20.9285 25.3635 20.9483C25.3877 20.9881 25.4051 21.032 25.4152 21.0753C25.4254 21.1187 25.4287 21.1613 25.4278 21.2014C25.4258 21.282 25.408 21.3525 25.3858 21.4167C25.3635 21.4811 25.3355 21.5388 25.3052 21.5937C25.244 21.7027 25.1732 21.7985 25.0991 21.8891C25.025 21.9798 24.9456 22.0633 24.8646 22.1437C24.7836 22.2242 24.6998 22.3005 24.6142 22.3741C24.5288 22.4478 24.4419 22.519 24.3534 22.5876C24.1765 22.7252 23.9952 22.8551 23.8111 22.9799C23.6272 23.1051 23.4404 23.2248 23.2518 23.3411C23.0631 23.4571 22.8715 23.5692 22.6819 23.679C22.4917 23.7892 22.3009 23.8985 22.1095 24.0066C21.3437 24.4392 20.5681 24.8553 19.7796 25.2478C18.991 25.6398 18.1907 26.0108 17.371 26.3412C16.9612 26.5062 16.5465 26.6611 16.1249 26.7994C15.9141 26.8685 15.7015 26.9334 15.4865 26.9923C15.2717 27.0519 15.0551 27.1071 14.835 27.1559C14.6146 27.2035 14.3906 27.2442 14.1573 27.2581C14.0406 27.2656 13.9216 27.2646 13.7983 27.2518C13.7368 27.245 13.6741 27.2337 13.61 27.217C13.5461 27.1998 13.4799 27.177 13.4141 27.1404C13.3487 27.1037 13.2815 27.0519 13.2301 26.9791C13.1783 26.9069 13.1497 26.8164 13.1457 26.7349C13.1419 26.6533 13.1538 26.5824 13.1724 26.5167C13.191 26.4512 13.2158 26.3917 13.2434 26.3358C13.2991 26.2242 13.3653 26.1257 13.4365 26.0338C13.5075 25.9418 13.5831 25.856 13.661 25.7737C13.8171 25.6093 13.9834 25.4591 14.1558 25.3177C14.3278 25.1759 14.5055 25.0424 14.6883 24.9168C14.8706 24.7906 15.0581 24.6721 15.25 24.5615C15.442 24.4511 15.6388 24.3486 15.8424 24.2605C15.864 24.2511 15.8892 24.2609 15.8987 24.2823C15.9074 24.3022 15.8996 24.3251 15.8813 24.3358L15.881 24.3359Z" fill="#1D304D"/>
<path d="M22.3449 12.8926L22.5344 13.1756C22.5564 13.2085 22.5934 13.2286 22.6333 13.2293L22.976 13.235C23.0764 13.2367 23.1313 13.3518 23.0688 13.4297L22.8558 13.6957C22.831 13.7267 22.8232 13.7677 22.8349 13.8055L22.9352 14.1303C22.9646 14.2254 22.8712 14.3127 22.7771 14.2779L22.4559 14.1593C22.4185 14.1455 22.3767 14.1508 22.3441 14.1735L22.0634 14.3685C21.9812 14.4256 21.8686 14.3645 21.8729 14.2651L21.8874 13.9257C21.8891 13.8862 21.8711 13.8484 21.8393 13.8247L21.5654 13.6204C21.4852 13.5606 21.509 13.4356 21.6058 13.4089L21.936 13.3177C21.9744 13.3071 22.0051 13.2785 22.018 13.2411L22.1294 12.9199C22.162 12.8258 22.2894 12.8097 22.3449 12.8926Z" fill="#1D304D"/>
<path d="M27.1752 14.3852L27.5453 14.6932C27.5884 14.7291 27.6465 14.7416 27.7007 14.7268L28.1666 14.5993C28.3031 14.5619 28.4236 14.6959 28.3705 14.8259L28.1892 15.27C28.1681 15.3216 28.174 15.3803 28.205 15.4268L28.4713 15.8265C28.5494 15.9436 28.458 16.0985 28.3168 16.0886L27.8346 16.055C27.7785 16.0511 27.7241 16.0748 27.689 16.1184L27.3877 16.4929C27.2995 16.6026 27.1226 16.5644 27.0883 16.4282L26.9716 15.9634C26.958 15.9094 26.9185 15.8654 26.8658 15.8458L26.4132 15.6776C26.2806 15.6283 26.2626 15.4497 26.3828 15.3754L26.7928 15.1218C26.8405 15.0923 26.8705 15.0414 26.873 14.9857L26.8946 14.5072C26.9009 14.3671 27.0667 14.2949 27.1752 14.3852Z" fill="#1D304D"/>
</g>
<path d="M55.393 28.74C54.353 28.74 53.481 28.564 52.777 28.212C52.089 27.86 51.577 27.348 51.241 26.676C50.905 25.988 50.737 25.14 50.737 24.132V19.02H49.489C49.105 19.02 48.809 18.924 48.601 18.732C48.393 18.524 48.289 18.244 48.289 17.892C48.289 17.524 48.393 17.244 48.601 17.052C48.809 16.86 49.105 16.764 49.489 16.764H50.737V14.58C50.737 14.084 50.865 13.708 51.121 13.452C51.393 13.196 51.769 13.068 52.249 13.068C52.729 13.068 53.097 13.196 53.353 13.452C53.609 13.708 53.737 14.084 53.737 14.58V16.764H56.281C56.665 16.764 56.961 16.86 57.169 17.052C57.377 17.244 57.481 17.524 57.481 17.892C57.481 18.244 57.377 18.524 57.169 18.732C56.961 18.924 56.665 19.02 56.281 19.02H53.737V23.964C53.737 24.732 53.905 25.308 54.241 25.692C54.577 26.076 55.121 26.268 55.873 26.268C56.145 26.268 56.385 26.244 56.593 26.196C56.801 26.148 56.985 26.116 57.145 26.1C57.337 26.084 57.497 26.148 57.625 26.292C57.753 26.42 57.817 26.692 57.817 27.108C57.817 27.428 57.761 27.716 57.649 27.972C57.553 28.212 57.369 28.38 57.097 28.476C56.889 28.54 56.617 28.596 56.281 28.644C55.945 28.708 55.649 28.74 55.393 28.74ZM64.4628 28.74C63.2468 28.74 62.1908 28.492 61.2948 27.996C60.3988 27.5 59.7028 26.796 59.2068 25.884C58.7108 24.956 58.4628 23.868 58.4628 22.62C58.4628 21.676 58.5988 20.836 58.8708 20.1C59.1588 19.348 59.5668 18.708 60.0948 18.18C60.6228 17.636 61.2548 17.228 61.9908 16.956C62.7268 16.668 63.5508 16.524 64.4628 16.524C65.6788 16.524 66.7348 16.772 67.6308 17.268C68.5268 17.764 69.2228 18.468 69.7188 19.38C70.2148 20.292 70.4628 21.372 70.4628 22.62C70.4628 23.564 70.3188 24.412 70.0308 25.164C69.7588 25.916 69.3588 26.564 68.8308 27.108C68.3028 27.636 67.6708 28.044 66.9348 28.332C66.1988 28.604 65.3748 28.74 64.4628 28.74ZM64.4628 26.46C65.0548 26.46 65.5748 26.316 66.0228 26.028C66.4708 25.74 66.8148 25.316 67.0548 24.756C67.3108 24.18 67.4388 23.468 67.4388 22.62C67.4388 21.34 67.1668 20.388 66.6228 19.764C66.0788 19.124 65.3588 18.804 64.4628 18.804C63.8708 18.804 63.3508 18.948 62.9028 19.236C62.4548 19.508 62.1028 19.932 61.8468 20.508C61.6068 21.068 61.4868 21.772 61.4868 22.62C61.4868 23.884 61.7588 24.844 62.3028 25.5C62.8468 26.14 63.5668 26.46 64.4628 26.46ZM78.2909 28.74C77.0749 28.74 76.0189 28.492 75.1229 27.996C74.2269 27.5 73.5309 26.796 73.0349 25.884C72.5389 24.956 72.2909 23.868 72.2909 22.62C72.2909 21.676 72.4269 20.836 72.6989 20.1C72.9869 19.348 73.3949 18.708 73.9229 18.18C74.4509 17.636 75.0829 17.228 75.8189 16.956C76.5549 16.668 77.3789 16.524 78.2909 16.524C79.5069 16.524 80.5629 16.772 81.4589 17.268C82.3549 17.764 83.0509 18.468 83.5469 19.38C84.0429 20.292 84.2909 21.372 84.2909 22.62C84.2909 23.564 84.1469 24.412 83.8589 25.164C83.5869 25.916 83.1869 26.564 82.6589 27.108C82.1309 27.636 81.4989 28.044 80.7629 28.332C80.0269 28.604 79.2029 28.74 78.2909 28.74ZM78.2909 26.46C78.8829 26.46 79.4029 26.316 79.8509 26.028C80.2989 25.74 80.6429 25.316 80.8829 24.756C81.1389 24.18 81.2669 23.468 81.2669 22.62C81.2669 21.34 80.9949 20.388 80.4509 19.764C79.9069 19.124 79.1869 18.804 78.2909 18.804C77.6989 18.804 77.1789 18.948 76.7309 19.236C76.2829 19.508 75.9309 19.932 75.6749 20.508C75.4349 21.068 75.3149 21.772 75.3149 22.62C75.3149 23.884 75.5869 24.844 76.1309 25.5C76.6749 26.14 77.3949 26.46 78.2909 26.46ZM88.303 28.692C87.807 28.692 87.423 28.564 87.151 28.308C86.895 28.036 86.767 27.652 86.767 27.156V18.084C86.767 17.588 86.895 17.212 87.151 16.956C87.407 16.7 87.767 16.572 88.231 16.572C88.695 16.572 89.055 16.7 89.311 16.956C89.567 17.212 89.695 17.588 89.695 18.084V19.596H89.455C89.679 18.636 90.119 17.908 90.775 17.412C91.431 16.916 92.303 16.62 93.391 16.524C93.727 16.492 93.991 16.58 94.183 16.788C94.391 16.98 94.511 17.284 94.543 17.7C94.575 18.1 94.479 18.428 94.255 18.684C94.047 18.924 93.727 19.068 93.295 19.116L92.767 19.164C91.791 19.26 91.055 19.564 90.559 20.076C90.063 20.572 89.815 21.276 89.815 22.188V27.156C89.815 27.652 89.687 28.036 89.431 28.308C89.175 28.564 88.799 28.692 88.303 28.692ZM100.413 28.74C99.4375 28.74 98.6295 28.564 97.9895 28.212C97.3495 27.844 96.8695 27.3 96.5495 26.58C96.2455 25.86 96.0935 24.964 96.0935 23.892V18.084C96.0935 17.572 96.2215 17.196 96.4775 16.956C96.7335 16.7 97.1015 16.572 97.5815 16.572C98.0615 16.572 98.4295 16.7 98.6855 16.956C98.9575 17.196 99.0935 17.572 99.0935 18.084V23.94C99.0935 24.772 99.2615 25.388 99.5975 25.788C99.9335 26.188 100.469 26.388 101.205 26.388C102.005 26.388 102.661 26.116 103.173 25.572C103.685 25.012 103.941 24.276 103.941 23.364V18.084C103.941 17.572 104.069 17.196 104.325 16.956C104.581 16.7 104.949 16.572 105.429 16.572C105.909 16.572 106.277 16.7 106.533 16.956C106.805 17.196 106.941 17.572 106.941 18.084V27.156C106.941 28.18 106.453 28.692 105.477 28.692C105.013 28.692 104.653 28.564 104.397 28.308C104.141 28.036 104.013 27.652 104.013 27.156V25.332L104.349 26.052C104.013 26.916 103.501 27.58 102.813 28.044C102.141 28.508 101.341 28.74 100.413 28.74ZM111.552 28.692C111.072 28.692 110.704 28.564 110.448 28.308C110.192 28.036 110.064 27.652 110.064 27.156V18.084C110.064 17.588 110.192 17.212 110.448 16.956C110.704 16.7 111.064 16.572 111.528 16.572C111.992 16.572 112.352 16.7 112.608 16.956C112.864 17.212 112.992 17.588 112.992 18.084V19.716L112.728 19.116C113.08 18.268 113.624 17.628 114.36 17.196C115.112 16.748 115.96 16.524 116.904 16.524C117.848 16.524 118.624 16.7 119.232 17.052C119.84 17.404 120.296 17.94 120.6 18.66C120.904 19.364 121.056 20.26 121.056 21.348V27.156C121.056 27.652 120.928 28.036 120.672 28.308C120.416 28.564 120.048 28.692 119.568 28.692C119.088 28.692 118.712 28.564 118.44 28.308C118.184 28.036 118.056 27.652 118.056 27.156V21.492C118.056 20.58 117.88 19.916 117.528 19.5C117.192 19.084 116.664 18.876 115.944 18.876C115.064 18.876 114.36 19.156 113.832 19.716C113.32 20.26 113.064 20.988 113.064 21.9V27.156C113.064 28.18 112.56 28.692 111.552 28.692Z" fill="#1D304D"/>
<defs>
<filter id="filter0_iiii_2023_26" x="-1.6" y="-4" width="43.6" height="45.6" filterUnits="userSpaceOnUse" color-interpolation-filters="sRGB">
<feFlood flood-opacity="0" result="BackgroundImageFix"/>
<feBlend mode="normal" in="SourceGraphic" in2="BackgroundImageFix" result="shape"/>
<feColorMatrix in="SourceAlpha" type="matrix" values="0 0 0 0 0 0 0 0 0 0 0 0 0 0 0 0 0 0 127 0" result="hardAlpha"/>
<feOffset dy="-1"/>
<feGaussianBlur stdDeviation="1.5"/>
<feComposite in2="hardAlpha" operator="arithmetic" k2="-1" k3="1"/>
<feColorMatrix type="matrix" values="0 0 0 0 0.952941 0 0 0 0 0.431373 0 0 0 0 0.494118 0 0 0 0.5 0"/>
<feBlend mode="normal" in2="shape" result="effect1_innerShadow_2023_26"/>
<feColorMatrix in="SourceAlpha" type="matrix" values="0 0 0 0 0 0 0 0 0 0 0 0 0 0 0 0 0 0 127 0" result="hardAlpha"/>
<feOffset dx="-2" dy="2"/>
<feGaussianBlur stdDeviation="0.8"/>
<feComposite in2="hardAlpha" operator="arithmetic" k2="-1" k3="1"/>
<feColorMatrix type="matrix" values="0 0 0 0 1 0 0 0 0 0.964706 0 0 0 0 0.709804 0 0 0 0.4 0"/>
<feBlend mode="normal" in2="effect1_innerShadow_2023_26" result="effect2_innerShadow_2023_26"/>
<feColorMatrix in="SourceAlpha" type="matrix" values="0 0 0 0 0 0 0 0 0 0 0 0 0 0 0 0 0 0 127 0" result="hardAlpha"/>
<feOffset dx="2" dy="-4"/>
<feGaussianBlur stdDeviation="2"/>
<feComposite in2="hardAlpha" operator="arithmetic" k2="-1" k3="1"/>
<feColorMatrix type="matrix" values="0 0 0 0 0.913725 0 0 0 0 0.443137 0 0 0 0 0.372549 0 0 0 0.6 0"/>
<feBlend mode="normal" in2="effect2_innerShadow_2023_26" result="effect3_innerShadow_2023_26"/>
<feColorMatrix in="SourceAlpha" type="matrix" values="0 0 0 0 0 0 0 0 0 0 0 0 0 0 0 0 0 0 127 0" result="hardAlpha"/>
<feOffset dy="-1"/>
<feGaussianBlur stdDeviation="0.35"/>
<feComposite in2="hardAlpha" operator="arithmetic" k2="-1" k3="1"/>
<feColorMatrix type="matrix" values="0 0 0 0 0.945098 0 0 0 0 0.470588 0 0 0 0 0.682353 0 0 0 1 0"/>
<feBlend mode="normal" in2="effect3_innerShadow_2023_26" result="effect4_innerShadow_2023_26"/>
</filter>
<linearGradient id="paint0_linear_2023_26" x1="40" y1="1.68587e-06" x2="1.68587e-06" y2="40" gradientUnits="userSpaceOnUse">
<stop offset="0.16" stop-color="#FFE254"/>
<stop offset="0.45" stop-color="#FFBA49"/>
<stop offset="0.84" stop-color="#FFBB53"/>
</linearGradient>
</defs>
</svg>
