<svg width="16" height="15" viewBox="0 0 16 15" fill="none" xmlns="http://www.w3.org/2000/svg">
<path d="M2.712 1.09462C2.712 0.861691 2.796 0.663697 2.964 0.500644C3.132 0.337591 3.328 0.256064 3.552 0.256064L14.664 -0.000162525C14.92 -0.000162525 15.128 0.0774819 15.288 0.232771C15.448 0.38806 15.528 0.589935 15.528 0.838397L15.264 11.6232C15.264 11.8406 15.18 12.0308 15.012 12.1939C14.844 12.357 14.64 12.4346 14.4 12.4268C14.16 12.4191 13.956 12.3337 13.788 12.1706C13.62 12.0076 13.544 11.8096 13.56 11.5766L13.8 1.67696L3.6 1.90989C3.36 1.90989 3.156 1.83225 2.988 1.67696C2.82 1.52167 2.728 1.32756 2.712 1.09462ZM0.24 14.6513C0.08 14.4805 0 14.2825 0 14.0574C0 13.8322 0.08 13.642 0.24 13.4867L13.656 0.465704C13.832 0.294886 14.036 0.209477 14.268 0.209477C14.5 0.209477 14.7 0.291004 14.868 0.454057C15.036 0.617111 15.12 0.815104 15.12 1.04804C15.12 1.28097 15.032 1.47508 14.856 1.63037L1.44 14.6513C1.28 14.8066 1.084 14.8843 0.852 14.8843C0.62 14.8843 0.416 14.8066 0.24 14.6513Z" fill="white"/>
</svg>
