<svg width="16" height="15" viewBox="0 0 16 15" fill="none" xmlns="http://www.w3.org/2000/svg">
<path d="M12.8158 1.09462C12.8158 0.861691 12.7318 0.663697 12.5638 0.500644C12.3958 0.337591 12.1998 0.256064 11.9758 0.256064L0.86383 -0.000162525C0.60783 -0.000162525 0.39983 0.0774819 0.23983 0.232771C0.0798295 0.38806 -0.000170514 0.589935 -0.000170514 0.838397L0.26383 11.6232C0.26383 11.8406 0.34783 12.0308 0.51583 12.1939C0.68383 12.357 0.88783 12.4346 1.12783 12.4268C1.36783 12.4191 1.57183 12.3337 1.73983 12.1706C1.90783 12.0076 1.98383 11.8096 1.96783 11.5766L1.72783 1.67696L11.9278 1.90989C12.1678 1.90989 12.3718 1.83225 12.5398 1.67696C12.7078 1.52167 12.7998 1.32756 12.8158 1.09462ZM15.2878 14.6513C15.4478 14.4805 15.5278 14.2825 15.5278 14.0574C15.5278 13.8322 15.4478 13.642 15.2878 13.4867L1.87183 0.465704C1.69583 0.294886 1.49183 0.209477 1.25983 0.209477C1.02783 0.209477 0.82783 0.291004 0.65983 0.454057C0.49183 0.617111 0.40783 0.815104 0.40783 1.04804C0.40783 1.28097 0.49583 1.47508 0.67183 1.63037L14.0878 14.6513C14.2478 14.8066 14.4438 14.8843 14.6758 14.8843C14.9078 14.8843 15.1118 14.8066 15.2878 14.6513Z" fill="white"/>
</svg>
