<svg width="18" height="17" viewBox="0 0 18 17" fill="none" xmlns="http://www.w3.org/2000/svg">
<path d="M8.21964 0.41257C8.85879 0.605408 9.46626 0.441613 10.08 0.239316C10.2197 0.193681 10.3603 0.152737 10.5017 0.112477C10.5413 0.100896 10.5809 0.0893144 10.6216 0.077382C11.0384 -0.0305714 11.4851 -0.0486329 11.8674 0.174733C11.949 0.232827 12.0235 0.294919 12.0984 0.361501C12.1242 0.383707 12.15 0.405913 12.1767 0.428792C12.4455 0.677869 12.6486 0.977329 12.8632 1.2723C13.372 1.97079 13.8997 2.27093 14.7111 2.53163C15.2889 2.71767 15.8609 2.92022 16.1609 3.4865C16.2925 3.83966 16.3181 4.20115 16.3254 4.57476C16.3259 4.60273 16.3265 4.63069 16.3271 4.65951C16.3293 4.77615 16.3314 4.89279 16.3328 5.00944C16.3433 5.83421 16.5794 6.39306 17.0651 7.05112C17.2556 7.3108 17.4194 7.57516 17.5671 7.8615C17.5819 7.88829 17.5967 7.91508 17.612 7.94268C17.748 8.22972 17.7287 8.61868 17.6541 8.92168C17.4868 9.35596 17.2037 9.76297 16.9177 10.1271C16.7828 10.303 16.674 10.4821 16.5735 10.6789C16.5606 10.7036 16.5477 10.7283 16.5344 10.7538C16.3355 11.1593 16.3429 11.5897 16.3367 12.0314C16.3203 13.1765 16.3203 13.1765 16.0828 13.6037C16.0618 13.644 16.0409 13.6843 16.0193 13.7258C15.626 14.2019 14.9553 14.3644 14.3928 14.5475C13.8088 14.7429 13.3889 14.985 13.0237 15.4811C13.0018 15.5102 12.9799 15.5393 12.9573 15.5693C12.8736 15.6806 12.7905 15.7924 12.7076 15.9042C11.9902 16.8684 11.9902 16.8684 11.3953 16.9631C10.7569 17.0293 10.0911 16.7487 9.49274 16.5604C8.8536 16.3676 8.24613 16.5314 7.63236 16.7337C7.49265 16.7793 7.35204 16.8203 7.21069 16.8605C7.17111 16.8721 7.13153 16.8837 7.09075 16.8956C6.67403 17.0036 6.22732 17.0216 5.84502 16.7983C5.76337 16.7402 5.68889 16.6781 5.61401 16.6115C5.58817 16.5893 5.56234 16.5671 5.53573 16.5442C5.23845 16.2688 5.01548 15.9304 4.77851 15.6041C4.2493 14.8783 3.61578 14.6338 2.78205 14.3624C2.30096 14.2018 1.82615 13.993 1.57592 13.5256C1.40671 13.1417 1.39515 12.7333 1.38702 12.3197C1.38618 12.279 1.38618 12.279 1.38532 12.2374C1.38309 12.1252 1.38095 12.0129 1.37958 11.9006C1.36909 11.1033 1.13718 10.566 0.663274 9.93786C0.464933 9.67335 0.295547 9.40616 0.145257 9.1115C0.130503 9.08476 0.115749 9.05802 0.100549 9.03048C-0.0361195 8.74279 -0.0167345 8.35192 0.059655 8.04857C0.220771 7.63268 0.49621 7.26681 0.755084 6.90718C1.20955 6.27437 1.36436 5.7751 1.37573 5.00261C1.39693 3.57859 1.39693 3.57859 1.82647 3.12731C2.25935 2.72892 2.84535 2.56528 3.39562 2.39536C4.00487 2.20141 4.40325 1.89887 4.77416 1.38445C4.8255 1.31474 4.87687 1.24506 4.92828 1.1754C4.95241 1.14251 4.97654 1.10962 5.0014 1.07573C5.96081 -0.226676 6.80901 -0.0313081 8.21964 0.41257ZM8.58276 4.46306C8.49973 4.59598 8.43155 4.73544 8.36272 4.87612C8.34247 4.91668 8.32222 4.95724 8.30135 4.99904C8.25865 5.08479 8.21618 5.17065 8.17392 5.25662C8.10957 5.38745 8.04449 5.51789 7.97927 5.64829C7.93777 5.73186 7.89632 5.81545 7.85491 5.89907C7.83562 5.93778 7.81633 5.97648 7.79646 6.01637C7.68826 6.23722 7.60019 6.45443 7.52807 6.68963C7.49358 6.69437 7.49358 6.69437 7.45839 6.69922C7.2156 6.73267 6.97283 6.76629 6.73008 6.80001C6.6399 6.81252 6.5497 6.82498 6.45951 6.8374C6.20311 6.87271 5.94683 6.90872 5.69073 6.94615C5.61636 6.95701 5.54197 6.96774 5.46755 6.9783C5.37378 6.99178 5.28019 7.00616 5.18661 7.02089C5.15983 7.02462 5.13306 7.02834 5.10547 7.03218C4.98816 7.05167 4.92198 7.06914 4.83689 7.15438C4.76541 7.29029 4.76393 7.35739 4.79369 7.50994C4.89691 7.64829 5.01959 7.76319 5.14526 7.88103C5.17804 7.91291 5.21082 7.94478 5.24459 7.97762C5.41473 8.14196 5.58916 8.30039 5.7678 8.45539C5.92862 8.59543 6.0861 8.73836 6.24145 8.88445C6.29292 8.92981 6.29292 8.92981 6.34544 8.97608C6.57691 9.19705 6.57691 9.19705 6.6091 9.36364C6.60136 9.49163 6.57761 9.61085 6.55151 9.7365C6.53994 9.80433 6.52867 9.87222 6.51762 9.94014C6.47116 10.223 6.42084 10.5051 6.37038 10.7873C6.34866 10.9091 6.32731 11.031 6.30599 11.153C6.29928 11.1898 6.29257 11.2267 6.28565 11.2647C6.20305 11.6583 6.20305 11.6583 6.30737 12.0217C6.39874 12.0826 6.44306 12.1086 6.55151 12.1193C6.66767 12.0765 6.66767 12.0765 6.79809 12.0046C6.82393 11.9912 6.84977 11.9777 6.87639 11.9639C6.93843 11.9317 7.00036 11.8993 7.06222 11.8667C7.19839 11.7953 7.33513 11.7251 7.47192 11.655C7.7497 11.5124 7.7497 11.5124 8.02724 11.3693C8.07707 11.3436 8.12695 11.318 8.17687 11.2924C8.29062 11.2338 8.40192 11.1732 8.51186 11.1077C8.5491 11.0855 8.58635 11.0634 8.62472 11.0405C8.65653 11.0206 8.68833 11.0007 8.72111 10.9803C8.88522 10.9242 9.00425 11.0034 9.15412 11.0736C9.18834 11.0915 9.22255 11.1094 9.2578 11.1278C9.29673 11.1481 9.33566 11.1683 9.37576 11.1892C9.417 11.211 9.45824 11.2327 9.50072 11.2551C9.54355 11.2774 9.58637 11.2998 9.63049 11.3229C9.95744 11.4944 10.2819 11.6702 10.6039 11.8509C10.7985 11.9588 10.9868 12.0539 11.1999 12.1193C11.3342 12.088 11.3342 12.088 11.4343 12.0021C11.5166 11.8482 11.5158 11.7465 11.4855 11.5768C11.4776 11.5314 11.4698 11.4861 11.4617 11.4393C11.4528 11.3906 11.4438 11.342 11.4346 11.2918C11.4212 11.2149 11.4078 11.1381 11.3944 11.0612C11.3755 10.9536 11.3561 10.8462 11.3367 10.7387C11.3029 10.5509 11.2698 10.3629 11.2368 10.1749C11.2193 10.0749 11.2015 9.97496 11.1834 9.87506C11.1753 9.82956 11.1672 9.78407 11.1589 9.7372C11.1482 9.67745 11.1482 9.67745 11.1372 9.61649C11.0951 9.30307 11.0951 9.30307 11.2065 9.15584C11.2452 9.1169 11.2846 9.0786 11.3245 9.04085C11.3454 9.02016 11.3663 8.99946 11.3879 8.97814C11.4549 8.91216 11.5227 8.84705 11.5906 8.78191C11.635 8.7383 11.6794 8.69463 11.7238 8.65091C11.9251 8.45335 12.1291 8.2606 12.3433 8.07689C12.4544 7.9797 12.5584 7.87588 12.6623 7.77117C12.683 7.7507 12.7036 7.73023 12.7248 7.70914C12.8783 7.55935 12.8783 7.55935 12.9285 7.35857C12.9172 7.21767 12.9011 7.17847 12.8015 7.08025C12.7064 7.05206 12.6232 7.03444 12.5258 7.02089C12.4971 7.01637 12.4683 7.01185 12.4388 7.00719C12.3384 6.99169 12.238 6.97732 12.1374 6.96306C12.0583 6.9515 11.9791 6.93993 11.9 6.92837C11.6399 6.8908 11.3797 6.85485 11.1194 6.81902C11.0283 6.80639 10.9372 6.79375 10.8462 6.7811C10.6256 6.75048 10.405 6.72 10.1843 6.68963C10.1777 6.64792 10.1777 6.64792 10.171 6.60538C10.1432 6.48542 10.1007 6.38996 10.0459 6.27975C10.0251 6.23778 10.0044 6.19582 9.98303 6.15258C9.94928 6.08525 9.94928 6.08525 9.91485 6.01656C9.89153 5.96974 9.86822 5.92291 9.84492 5.87608C9.79615 5.77819 9.7472 5.68039 9.69814 5.58265C9.63528 5.45739 9.57293 5.33189 9.51071 5.20632C9.46274 5.10967 9.41448 5.01316 9.36614 4.91669C9.3318 4.84801 9.29772 4.7792 9.26365 4.71039C9.24267 4.66879 9.22169 4.6272 9.20007 4.58434C9.18171 4.54763 9.16335 4.51092 9.14444 4.4731C9.09266 4.37446 9.09266 4.37446 8.97338 4.30681C8.78844 4.27761 8.71336 4.33492 8.58276 4.46306Z" fill="url(#paint0_linear_78_289)"/>
<defs>
<linearGradient id="paint0_linear_78_289" x1="8.85614" y1="0" x2="8.85614" y2="16.973" gradientUnits="userSpaceOnUse">
<stop stop-color="#455875"/>
<stop offset="1" stop-color="#1D304D"/>
</linearGradient>
</defs>
</svg>
