<svg width="18" height="18" viewBox="0 0 18 18" fill="none" xmlns="http://www.w3.org/2000/svg">
<path d="M17.5624 7.67611C18.1308 7.09308 17.8014 6.11136 16.9963 5.98929L12.5406 5.31372C12.2104 5.26365 11.9269 5.052 11.7851 4.74958L9.82776 0.575379C9.46799 -0.19188 8.37674 -0.191879 8.01696 0.57538L6.05962 4.74958C5.91781 5.052 5.63437 5.26365 5.30412 5.31372L0.851065 5.98889C0.0454564 6.11104 -0.283722 7.09374 0.285764 7.67651L3.5746 11.042C3.79675 11.2693 3.89759 11.5887 3.84626 11.9024L3.0761 16.6088C2.94119 17.4332 3.81671 18.0498 4.54749 17.6451L8.43785 15.4903C8.73928 15.3233 9.10544 15.3233 9.40688 15.4903L13.3007 17.647C14.0308 18.0514 14.9059 17.4361 14.7723 16.6121L14.0085 11.9009C13.9578 11.5881 14.0584 11.2697 14.2797 11.0428L17.5624 7.67611Z" fill="url(#paint0_linear_2038_642)"/>
<defs>
<linearGradient id="paint0_linear_2038_642" x1="18.9224" y1="-1.35547" x2="-1.07764" y2="18.6445" gradientUnits="userSpaceOnUse">
<stop offset="0.16" stop-color="#FFE254"/>
<stop offset="0.45" stop-color="#FFBA49"/>
<stop offset="0.84" stop-color="#FFBB53"/>
</linearGradient>
</defs>
</svg>
