<svg width="18" height="18" viewBox="0 0 18 18" fill="none" xmlns="http://www.w3.org/2000/svg">
<path d="M17.5616 7.67651C18.1311 7.09374 17.802 6.11104 16.9963 5.98889L12.5433 5.31372C12.213 5.26365 11.9296 5.052 11.7878 4.74958L9.83045 0.575378C9.47067 -0.191881 8.37943 -0.191881 8.01965 0.575378L6.0623 4.74958C5.92049 5.052 5.63705 5.26365 5.30681 5.31372L0.851125 5.98929C0.0460168 6.11136 -0.283437 7.09308 0.28505 7.67611L3.56775 11.0428C3.78901 11.2697 3.8896 11.5881 3.83888 11.9009L3.07513 16.6121C2.94156 17.4361 3.81659 18.0514 4.54676 17.647L8.44053 15.4903C8.74197 15.3234 9.10813 15.3233 9.40956 15.4903L13.2999 17.6451C14.0307 18.0498 14.9062 17.4332 14.7713 16.6088L14.0012 11.9024C13.9498 11.5887 14.0507 11.2693 14.2728 11.042L17.5616 7.67651Z" fill="#E8EAED"/>
</svg>
