<svg width="20" height="18" viewBox="0 0 20 18" fill="none" xmlns="http://www.w3.org/2000/svg">
<path fill-rule="evenodd" clip-rule="evenodd" d="M0 0.734036C0 0.539357 0.0773357 0.352652 0.214994 0.214994C0.352653 0.0773356 0.539357 0 0.734036 0H1.8899C2.42084 2.89666e-05 2.9339 0.191886 3.33459 0.54024C3.73528 0.888595 3.99661 1.36999 4.07047 1.89577L4.13017 2.32151H17.7979C18.1634 2.32152 18.5231 2.41248 18.8446 2.58619C19.1662 2.75991 19.4394 3.01092 19.6397 3.31659C19.84 3.62226 19.9611 3.97299 19.9921 4.33713C20.023 4.70128 19.9629 5.06741 19.817 5.4025L17.2058 11.4001C17.0346 11.7933 16.7524 12.1279 16.3937 12.363C16.0351 12.5981 15.6155 12.7233 15.1867 12.7233H6.02497C5.49402 12.7233 4.98096 12.5314 4.58028 12.183C4.17959 11.8347 3.91825 11.3533 3.84439 10.8275L2.61708 2.10032C2.59253 1.92494 2.5054 1.76436 2.37176 1.64817C2.23812 1.53198 2.06698 1.46801 1.8899 1.46807H0.735014C0.540336 1.46807 0.353631 1.39074 0.215973 1.25308C0.0783145 1.11542 0.00097876 0.928714 0.00097876 0.734036M4.33766 3.78958L5.29876 10.623C5.32332 10.7983 5.41044 10.9589 5.54408 11.0751C5.67772 11.1913 5.84886 11.2553 6.02594 11.2552H15.1877C15.3306 11.2553 15.4705 11.2137 15.5901 11.1355C15.7097 11.0572 15.8039 10.9458 15.861 10.8148L18.4713 4.81527C18.5196 4.70369 18.5394 4.58185 18.529 4.4607C18.5186 4.33955 18.4782 4.22288 18.4116 4.12119C18.3449 4.01949 18.254 3.93595 18.1471 3.87807C18.0401 3.82019 17.9205 3.78978 17.7989 3.78958H4.33766Z" fill="#043333"/>
<path d="M4.37207 15.9041C4.37207 15.4498 4.55252 15.0142 4.87372 14.693C5.19493 14.3718 5.63057 14.1913 6.08482 14.1913C6.53907 14.1913 6.97471 14.3718 7.29592 14.693C7.61712 15.0142 7.79757 15.4498 7.79757 15.9041C7.79757 16.3583 7.61712 16.794 7.29592 17.1152C6.97471 17.4364 6.53907 17.6168 6.08482 17.6168C5.63057 17.6168 5.19493 17.4364 4.87372 17.1152C4.55252 16.794 4.37207 16.3583 4.37207 15.9041ZM14.4391 14.1913C13.9849 14.1913 13.5492 14.3718 13.228 14.693C12.9068 15.0142 12.7264 15.4498 12.7264 15.9041C12.7264 16.3583 12.9068 16.794 13.228 17.1152C13.5492 17.4364 13.9849 17.6168 14.4391 17.6168C14.8934 17.6168 15.329 17.4364 15.6502 17.1152C15.9714 16.794 16.1519 16.3583 16.1519 15.9041C16.1519 15.4498 15.9714 15.0142 15.6502 14.693C15.329 14.3718 14.8934 14.1913 14.4391 14.1913Z" fill="#043333"/>
</svg>
