<svg width="54" height="42" viewBox="0 0 54 42" fill="none" xmlns="http://www.w3.org/2000/svg">
<g clip-path="url(#clip0_2104_3286)">
<path d="M9.65555 1.26482C6.42118 2.24919 3.51493 4.73357 1.8743 7.87419C0.608677 10.3117 0.655552 15.9367 2.01493 18.4679C3.88993 22.0304 9.60868 25.8742 11.7649 25.0304C13.0306 24.5617 12.3743 23.7648 10.0306 22.8742C6.70243 21.6086 5.15555 20.2492 3.7493 17.4836C1.26493 12.3742 3.1868 6.65544 8.20243 4.03044C11.5306 2.29607 14.2493 2.29607 17.6712 3.98357C20.9524 5.67107 22.7337 8.20232 23.0618 11.6711C23.5306 16.5929 19.6399 28.3117 14.7649 36.3273C12.9368 39.3742 12.5149 40.4523 12.9368 40.8742C14.5774 42.4679 21.2337 29.2023 23.9993 18.8898C25.3587 13.7336 25.3587 10.6398 23.9993 7.82732C21.5618 2.67107 14.9524 -0.328933 9.65555 1.26482Z" fill="#1D304D"/>
<path d="M37.7806 1.26495C34.4524 2.34308 31.6399 4.7337 29.9993 7.87433C28.7337 10.3119 28.7806 15.9369 30.1399 18.4681C32.0149 22.0306 37.7337 25.8744 39.8899 25.0306C41.1556 24.5619 40.4993 23.765 38.1556 22.8744C34.8274 21.6087 33.2806 20.2494 31.8743 17.4837C27.3743 8.20245 37.6868 -0.985046 46.5462 4.40558C49.8274 6.4212 51.5618 9.84308 51.1868 13.7806C50.7181 19.4525 46.6868 29.9994 42.1399 37.5462C40.8743 39.6556 40.5931 40.4056 41.0618 40.8275C41.8587 41.6244 43.3587 39.6087 46.4056 33.6556C50.2962 26.0619 53.2493 16.8744 53.2493 12.4681C53.2024 8.57745 50.2962 4.12433 46.4524 2.15558C44.4368 1.12433 39.7024 0.608704 37.7806 1.26495Z" fill="#1D304D"/>
</g>
<defs>
<clipPath id="clip0_2104_3286">
<rect width="54" height="42" fill="white"/>
</clipPath>
</defs>
</svg>
