<svg width="44" height="44" viewBox="0 0 44 44" fill="none" xmlns="http://www.w3.org/2000/svg">
<path d="M27.9619 3.75957C28.8384 4.49925 29.2033 5.30373 29.3853 6.42363C29.3989 6.5026 29.4126 6.58156 29.4267 6.66292C29.5014 7.09763 29.5718 7.53303 29.6427 7.96837C29.6707 8.14005 29.6989 8.31171 29.727 8.48336C29.7635 8.70566 29.7991 8.92804 29.8342 9.15055C29.9254 9.71351 30.0354 10.2568 30.2015 10.8027C30.2766 11.108 30.2579 11.3011 30.1641 11.6014C30.019 11.7732 30.019 11.7732 29.8203 11.8592C29.4944 11.8592 29.3501 11.8142 29.107 11.595C28.1605 10.5691 27.4536 9.4203 26.8185 8.18535C26.7411 8.03646 26.7411 8.03646 26.6621 7.88457C26.6182 7.79728 26.5744 7.70998 26.5292 7.62004C26.3209 7.29329 26.0948 7.08952 25.7222 6.97685C25.5212 6.94329 25.5212 6.94329 25.3516 7.04668C25.3951 7.13707 25.3951 7.13707 25.4395 7.2293C25.9845 8.38861 26.1441 9.4007 25.7191 10.6483C25.5065 11.1627 25.2463 11.6487 24.8359 12.0311C25.2572 12.1289 25.6765 12.2145 26.1033 12.2853C27.5001 12.5247 28.6813 13.0777 29.5199 14.2631C29.9305 14.904 30.2732 15.5881 30.628 16.2608C30.9045 16.7846 31.1918 17.3013 31.4854 17.8157C32.0534 18.8139 32.6082 19.8193 33.1618 20.8256C33.3746 21.2125 33.588 21.5992 33.8016 21.9857C33.8632 22.0971 33.9248 22.2086 33.9863 22.32C34.0743 22.4792 34.1623 22.6385 34.2503 22.7977C34.3835 23.0385 34.5163 23.2795 34.6485 23.5208C34.7566 23.7171 34.8656 23.9124 34.9761 24.1073C35.0581 24.2542 35.0581 24.2542 35.1417 24.404C35.1911 24.4914 35.2405 24.5788 35.2914 24.6688C35.4741 25.0709 35.4942 25.4371 35.4062 25.867C35.2797 26.1991 35.0888 26.5069 34.8047 26.7264C34.748 26.7264 34.6913 26.7264 34.6328 26.7264C34.6141 26.802 34.5954 26.8777 34.5761 26.9556C34.4374 27.3004 34.272 27.4542 33.9937 27.6985C33.9481 27.7391 33.9026 27.7796 33.8557 27.8213C33.5515 28.0896 33.2369 28.3432 32.9194 28.5955C32.5554 28.89 32.2808 29.1505 32.0547 29.5623C32.0829 29.8612 32.2027 29.996 32.4196 30.1944C32.4769 30.2475 32.5343 30.3006 32.5934 30.3553C32.6857 30.4387 32.6857 30.4387 32.7798 30.5237C32.8739 30.6103 32.8739 30.6103 32.9699 30.6985C33.1511 30.8648 33.3332 31.0302 33.5156 31.1951C33.5968 31.2688 33.678 31.3425 33.7617 31.4184C33.8959 31.5393 34.0303 31.66 34.1652 31.7802C34.3249 31.9236 34.4834 32.0678 34.6412 32.2133C34.6871 32.2556 34.733 32.2979 34.7803 32.3414C34.9099 32.4611 35.0394 32.5809 35.1689 32.7007C35.3237 32.8397 35.4828 32.9741 35.6463 33.1029C35.903 33.3124 35.917 33.386 35.9541 33.7195C35.9219 34.0311 35.9219 34.0311 35.7523 34.1996C35.4276 34.4183 35.0909 34.5789 34.7349 34.74C34.6333 34.7869 34.6333 34.7869 34.5296 34.8347C34.3637 34.9111 34.1975 34.9868 34.0312 35.0623C34.1518 35.3172 34.2912 35.5444 34.4522 35.7757C34.5005 35.8455 34.5488 35.9153 34.5986 35.9873C34.6995 36.1323 34.8004 36.2774 34.9014 36.4224C35.7935 37.7127 35.7935 37.7127 35.6641 38.5857C35.4617 39.0061 35.1727 39.257 34.8047 39.5311C34.2835 39.7048 33.6501 39.7145 33.145 39.4827C32.6655 39.1998 32.3204 38.8021 31.9969 38.3561C31.6879 37.9406 31.3351 37.5768 30.9697 37.2107C30.873 37.1109 30.873 37.1109 30.7744 37.009C30.7119 36.9462 30.6494 36.8834 30.585 36.8187C30.5289 36.7618 30.4728 36.705 30.415 36.6464C30.2384 36.489 30.2384 36.489 29.9062 36.5232C29.8191 36.8839 29.8096 37.2237 29.8082 37.5941C29.8067 37.7192 29.805 37.8443 29.8032 37.9694C29.8007 38.1648 29.7988 38.3601 29.7988 38.5554C29.7969 39.7843 29.7969 39.7843 29.5293 40.1685C29.1332 40.5598 28.8344 40.6637 28.2842 40.6858C27.65 40.667 27.2285 40.4963 26.791 40.0359C26.451 39.6079 26.2957 39.098 26.125 38.5857C26.0968 38.6242 26.0685 38.6626 26.0394 38.7022C25.5088 39.3767 24.7131 39.7955 23.8573 39.8998C23.6418 39.9099 23.4276 39.9128 23.2119 39.9121C23.1332 39.9125 23.0545 39.913 22.9734 39.9134C22.808 39.914 22.6427 39.9139 22.4773 39.9131C22.2268 39.9124 21.9765 39.9149 21.7261 39.9176C20.5378 39.922 19.5697 39.8206 18.6699 38.9617C18.6061 38.8944 18.5423 38.827 18.4766 38.7576C18.4198 38.7009 18.3631 38.6442 18.3047 38.5857C18.2869 38.6584 18.269 38.7311 18.2506 38.806C18.0362 39.5955 17.7559 40.1213 17.0854 40.5999C16.6738 40.8286 16.283 40.8815 15.8125 40.8201C15.3552 40.6677 15.0494 40.4543 14.7812 40.0467C14.639 39.7622 14.6905 39.4455 14.696 39.1333C14.6975 38.9807 14.6989 38.8281 14.7003 38.6755C14.703 38.4353 14.706 38.1951 14.71 37.9549C14.7137 37.7228 14.7157 37.4908 14.7175 37.2587C14.7191 37.1881 14.7207 37.1174 14.7223 37.0446C14.7244 36.5716 14.686 36.0783 14.4375 35.6639C14.2623 35.5947 14.2623 35.5947 14.0938 35.5779C14.0279 35.6608 14.0279 35.6608 13.9608 35.7454C13.5882 36.2086 13.2056 36.6537 12.7993 37.0872C12.4323 37.4791 12.0882 37.8809 11.7563 38.3034C10.8974 39.3934 10.8974 39.3934 10.2266 39.617C9.1395 39.6986 9.1395 39.6986 8.67969 39.3592C8.30356 38.9751 8.06597 38.6996 8.0459 38.1507C8.04169 38.0735 8.03748 37.9963 8.03314 37.9167C8.14368 37.2378 8.63911 36.6617 9.03955 36.1204C9.13881 35.9842 9.23806 35.8481 9.33731 35.7119C9.47376 35.5257 9.61045 35.3397 9.74791 35.1543C10.9303 33.5593 11.9281 31.8796 11.7734 29.8201C11.5698 28.8819 10.4524 28.2351 9.74619 27.6807C9.3375 27.3237 9.14489 26.9645 8.9375 26.4686C8.85364 26.3524 8.76818 26.2374 8.67969 26.1248C8.49541 25.572 8.49691 25.1005 8.74615 24.5658C8.96671 24.1317 9.21 23.7106 9.45312 23.2889C9.54214 23.1315 9.63099 22.9741 9.71967 22.8165C9.85868 22.5699 9.99794 22.3233 10.138 22.0773C10.4763 21.4827 10.8048 20.8835 11.1289 20.2811C11.5325 19.5314 11.9453 18.7879 12.3669 18.0482C12.6336 17.5793 12.8958 17.1083 13.1535 16.6344C13.2139 16.5236 13.2744 16.4128 13.3348 16.302C13.4228 16.1406 13.5106 15.9792 13.5976 15.8173C14.3607 14.3983 15.1447 13.0768 16.7578 12.5467C17.5214 12.3472 18.2944 12.2066 19.0781 12.117C19.0781 11.8843 18.9867 11.8136 18.8418 11.6336C18.1559 10.7358 17.9435 9.80534 18.0469 8.67949C18.2717 7.57716 18.7836 6.61921 19.7069 5.95903C20.5402 5.42695 21.2761 5.28239 22.2578 5.32793C22.2871 5.25714 22.2871 5.25714 22.3169 5.18492C22.8299 4.2719 23.8528 3.60137 24.8353 3.31041C25.8923 3.03485 27.048 3.11256 27.9619 3.75957ZM23.6328 5.4998C23.6328 5.55652 23.6328 5.61324 23.6328 5.67168C23.8454 5.83699 23.9812 5.93778 24.2344 6.01543C24.4815 5.97715 24.7045 5.90534 24.9424 5.82845C25.5391 5.65034 26.0484 5.73688 26.6111 5.98958C27.2798 6.36074 27.5957 6.97948 27.9471 7.63045C28.0723 7.85383 28.1994 8.05087 28.3594 8.2498C28.3203 7.12608 28.2201 5.75667 27.4141 4.89824C26.9906 4.5392 26.5435 4.41673 26.0015 4.36113C25.0869 4.45036 24.2618 4.81014 23.6328 5.4998ZM19.9375 7.47637C19.4286 8.10519 19.179 8.71577 19.25 9.53887C19.456 10.4818 19.9301 11.1379 20.7281 11.6813C21.319 12.0325 22.069 12.0284 22.7298 11.9052C23.4622 11.691 23.9887 11.2524 24.3841 10.6054C24.7453 9.91327 24.8273 9.27407 24.6641 8.50762C24.4066 7.74295 23.9005 7.12474 23.1816 6.75127C22.0161 6.21426 20.7832 6.55442 19.9375 7.47637ZM21.5732 13.151C20.6432 13.1709 19.7299 13.261 18.8096 13.3953C18.7129 13.4092 18.6162 13.4231 18.5166 13.4374C17.4262 13.5993 17.4262 13.5993 16.4409 14.0667C16.3553 14.123 16.3553 14.123 16.268 14.1805C15.6715 14.696 15.3016 15.2948 14.9424 15.9895C14.8444 16.1747 14.7463 16.3598 14.648 16.5448C14.5986 16.638 14.5492 16.7313 14.4984 16.8274C14.2756 17.2432 14.0428 17.6531 13.8091 18.0628C13.3269 18.9108 12.8542 19.7637 12.3838 20.6183C12.3257 20.7239 12.2676 20.8294 12.2095 20.935C12.1663 21.0135 12.1663 21.0135 12.1222 21.0936C11.9178 21.4646 11.7125 21.8351 11.5066 22.2052C11.4778 22.2569 11.4491 22.3086 11.4195 22.3618C11.2836 22.6059 11.1477 22.8499 11.0116 23.0939C10.6581 23.7288 10.3117 24.3671 9.96875 25.0076C10.5561 25.0904 10.5561 25.0904 11.0882 24.8848C11.2448 24.7043 11.3781 24.5191 11.5103 24.3201C11.5608 24.2497 11.6114 24.1793 11.6635 24.1067C11.7674 23.9619 11.8701 23.8163 11.9715 23.6698C12.1804 23.3701 12.4013 23.0802 12.6221 22.7894C12.7063 22.6766 12.7904 22.5638 12.8745 22.451C13.2457 21.9545 13.6232 21.4628 14.0005 20.971C14.2929 20.5886 14.5807 20.2039 14.8605 19.8121C14.9141 19.7374 14.9677 19.6627 15.023 19.5858C15.124 19.4444 15.2242 19.3024 15.3234 19.1597C15.5899 18.7878 15.7958 18.5481 16.2422 18.3904C16.6503 18.354 16.9887 18.3813 17.3594 18.5623C17.4722 18.7718 17.4722 18.7718 17.5312 18.992C17.5596 19.0771 17.588 19.1621 17.6172 19.2498C17.6254 19.3951 17.6288 19.5407 17.6294 19.6863C17.6303 19.8197 17.6303 19.8197 17.6312 19.9558C17.6316 20.052 17.6319 20.1481 17.6323 20.2471C17.6343 20.4507 17.6364 20.6543 17.6385 20.8579C17.6415 21.1789 17.644 21.4998 17.6452 21.8208C17.6465 22.1306 17.65 22.4403 17.6538 22.7501C17.6536 22.8453 17.6535 22.9406 17.6533 23.0388C17.6624 23.6228 17.7489 23.989 18.0469 24.492C18.1547 24.8154 18.142 25.1169 18.1382 25.4534C18.1378 25.5178 18.1374 25.5823 18.137 25.6486C18.136 25.8074 18.1345 25.9661 18.1328 26.1248C18.4535 25.9898 18.6664 25.7886 18.917 25.5501C20.2342 24.3414 20.2342 24.3414 21.1406 24.3201C21.3591 24.356 21.5699 24.4059 21.7845 24.4601C22.0312 24.4966 22.1998 24.4621 22.4404 24.4007C22.8891 24.2953 23.1505 24.347 23.5469 24.5779C24.1136 24.9464 24.6256 25.3681 25.1213 25.8267C25.2444 25.9624 25.2444 25.9624 25.3516 25.9529C25.3538 25.8688 25.356 25.7848 25.3583 25.6981C25.4216 24.2336 25.4216 24.2336 25.9039 23.7734C26.2738 23.4075 26.3562 23.1354 26.3618 22.6203C26.3602 22.537 26.3586 22.4536 26.357 22.3677C26.3575 22.2804 26.3581 22.193 26.3587 22.103C26.3602 21.825 26.3583 21.5473 26.356 21.2693C26.355 20.9914 26.3548 20.7136 26.356 20.4357C26.3566 20.2633 26.3559 20.0908 26.3537 19.9183C26.354 19.428 26.3992 19.0792 26.6406 18.6482C27.0097 18.3882 27.3124 18.3427 27.7578 18.3904C28.3202 18.5805 28.5818 19.0038 28.918 19.4646C29.0076 19.585 29.0076 19.585 29.0991 19.7077C29.2833 19.9553 29.466 20.204 29.6484 20.4529C29.7574 20.6007 29.8664 20.7484 29.9754 20.896C30.1283 21.1033 30.281 21.3106 30.4333 21.5183C30.775 21.9839 31.1226 22.4438 31.4793 22.8981C31.6685 23.1426 31.846 23.394 32.0231 23.6474C32.0789 23.7255 32.1346 23.8037 32.192 23.8842C32.3022 24.039 32.4108 24.195 32.5174 24.3523C32.7786 24.7154 32.9556 24.9517 33.4052 25.0469C33.4672 25.0536 33.5292 25.0604 33.5931 25.0673C33.7956 25.0968 33.9395 25.1663 34.1172 25.2654C33.9991 24.9556 33.8617 24.6664 33.7046 24.3745C33.6567 24.2853 33.6087 24.1961 33.5593 24.1042C33.5077 24.0088 33.456 23.9135 33.4028 23.8152C33.3221 23.6657 33.3221 23.6657 33.2396 23.513C32.8538 22.8002 32.4582 22.093 32.0574 21.3884C31.6843 20.732 31.3179 20.0722 30.9536 19.4109C30.9251 19.3592 30.8965 19.3074 30.8671 19.254C30.5677 18.7109 30.2689 18.1675 29.9712 17.6234C29.8486 17.3993 29.7256 17.1753 29.6027 16.9513C29.5448 16.8457 29.487 16.74 29.4294 16.6343C28.4447 14.7737 28.4447 14.7737 26.7266 13.6639C26.4336 13.5844 26.1397 13.5302 25.8403 13.4812C25.7567 13.4671 25.6732 13.4529 25.5871 13.4384C24.2668 13.2286 22.9099 13.1291 21.5732 13.151ZM16.3281 19.8514C16.2487 19.9425 16.173 20.0369 16.0988 20.1323C16.027 20.2246 16.027 20.2246 15.9537 20.3187C15.9018 20.386 15.8499 20.4534 15.7964 20.5228C15.7434 20.5912 15.6903 20.6596 15.6357 20.7302C15.0516 21.4876 14.4852 22.2581 13.9219 23.0311C14.1957 23.0475 14.1957 23.0475 14.4885 22.9032C14.8919 22.7461 15.2557 22.7436 15.6836 22.7571C15.9246 22.7624 16.1657 22.7678 16.4141 22.7732C16.4141 21.809 16.4141 20.8448 16.4141 19.8514C16.3857 19.8514 16.3573 19.8514 16.3281 19.8514ZM27.5859 19.8514C27.5859 20.7872 27.5859 21.7231 27.5859 22.6873C28.0397 22.744 28.4934 22.8007 28.9609 22.8592C29.7261 23.2162 30.0996 23.6289 30.4971 24.3577C30.6961 24.9338 30.6122 25.6105 30.5938 26.2107C30.7928 26.1147 30.9915 26.0179 31.1899 25.9207C31.2466 25.8935 31.3033 25.8662 31.3616 25.8381C31.6777 25.699 31.6777 25.699 31.8828 25.4373C31.2003 24.5035 30.5095 23.5766 29.8069 22.6578C29.449 22.1897 29.0935 21.7198 28.7407 21.2479C28.4665 20.8815 28.1921 20.5153 27.9136 20.1521C27.868 20.0928 27.8225 20.0334 27.7756 19.9722C27.7414 19.9323 27.7071 19.8925 27.6719 19.8514C27.6435 19.8514 27.6152 19.8514 27.5859 19.8514ZM14.3183 24.4524C14.0408 24.8633 14.0194 25.2999 14.0938 25.7811C14.2346 26.236 14.5259 26.5061 14.9347 26.7368C15.3624 26.9065 15.7437 26.8639 16.1724 26.721C16.5527 26.459 16.8583 26.2001 16.9901 25.7438C17.0574 25.263 17.0176 24.9142 16.7578 24.492C16.3923 24.111 16.0789 23.8831 15.5386 23.8582C15.0235 23.8658 14.6604 24.0727 14.3183 24.4524ZM26.8457 24.3799C26.5734 24.7589 26.4869 25.1049 26.5134 25.5696C26.5962 25.9935 26.7969 26.3039 27.1197 26.5874C27.5107 26.8481 27.9009 26.8795 28.3594 26.8123C28.827 26.6564 29.1138 26.3497 29.3906 25.9529C29.532 25.5289 29.5273 25.1568 29.3853 24.7391C29.1236 24.3508 28.8079 24.0399 28.3594 23.8904C27.7556 23.8393 27.2776 23.926 26.8457 24.3799ZM12.8906 24.4061C12.7425 24.5904 12.5981 24.776 12.4556 24.9646C12.415 25.0179 12.3744 25.0712 12.3325 25.1261C12.2319 25.2583 12.1315 25.3908 12.0312 25.5232C12.242 25.7426 12.4497 25.894 12.7188 26.0389C12.7755 26.0389 12.8322 26.0389 12.8906 26.0389C12.8896 25.9786 12.8886 25.9183 12.8876 25.8563C12.8829 25.3633 12.903 24.8935 12.9766 24.4061C12.9482 24.4061 12.9198 24.4061 12.8906 24.4061ZM20.7291 25.6005C20.677 25.6423 20.6249 25.6842 20.5713 25.7273C20.5111 25.7753 20.451 25.8233 20.389 25.8727C20.1857 26.0471 19.9891 26.2275 19.7925 26.4095C18.3397 27.7326 16.9625 28.197 15.0093 28.1148C13.4838 28.0252 12.1144 27.1242 10.8522 26.3195C10.664 26.1895 10.664 26.1895 10.4575 26.2376C10.4097 26.2571 10.3618 26.2766 10.3125 26.2967C10.4423 26.6126 10.6261 26.7881 10.8818 27.011C10.9584 27.0781 11.0349 27.1451 11.1138 27.2141C11.1897 27.28 11.2656 27.346 11.3438 27.4139C11.4099 27.4736 11.476 27.5333 11.5442 27.5948C11.6337 27.6754 11.6337 27.6754 11.7251 27.7576C11.7782 27.8055 11.8312 27.8533 11.8859 27.9026C12.0379 28.0335 12.0379 28.0335 12.2891 28.1014C12.3696 28.2464 12.3696 28.2464 12.4609 28.4451C12.5177 28.5267 12.5744 28.6082 12.6328 28.6922C13.2132 29.5991 13.1033 30.6984 12.8906 31.7107C12.3829 33.7437 11.1761 35.3544 9.94152 37.0061C9.47138 37.5448 9.47138 37.5448 9.30811 38.1829C9.3276 38.2308 9.3471 38.2786 9.36719 38.3279C9.67385 38.4155 9.83388 38.4351 10.1299 38.3064C10.4527 38.0627 10.6568 37.7222 10.8855 37.3937C11.1055 37.0985 11.3438 36.8335 11.5962 36.5662C12.0525 36.0826 12.4756 35.5821 12.8906 35.0623C13.4115 34.4121 13.4115 34.4121 13.8896 34.305C14.4197 34.2513 14.8603 34.4116 15.2808 34.7293C15.8047 35.4178 15.9121 36.1128 15.9068 36.9546C15.9067 37.0284 15.9066 37.1022 15.9065 37.1782C15.906 37.4128 15.9049 37.6475 15.9038 37.8821C15.9034 38.0416 15.903 38.2011 15.9026 38.3607C15.9017 38.7508 15.9002 39.1409 15.8984 39.5311C16.1803 39.6236 16.2212 39.6273 16.5054 39.4881C16.9736 39.0896 17.0623 38.5401 17.1553 37.9573C17.166 37.8924 17.1767 37.8275 17.1878 37.7605C17.2174 37.5774 17.2457 37.3942 17.2734 37.2107C17.2851 37.1363 17.2967 37.0619 17.3087 36.9852C17.452 35.8552 17.3847 34.7088 17.2305 33.5853C16.9079 31.1978 16.9079 31.1978 17.5312 30.0779C17.5739 29.9997 17.6165 29.9215 17.6605 29.8409C18.173 28.974 18.9034 28.2653 19.6186 27.5646C19.6634 27.5207 19.7082 27.4768 19.7543 27.4315C19.9373 27.2524 20.1205 27.0735 20.3049 26.8958C20.4421 26.7632 20.5783 26.6296 20.7143 26.4957C20.7942 26.4182 20.8742 26.3406 20.9565 26.2606C21.1468 26.0314 21.2009 25.9019 21.2266 25.6092C21.0226 25.5346 20.9276 25.5008 20.7291 25.6005ZM22.6016 25.5232C22.5373 25.6797 22.5373 25.6797 22.5156 25.867C22.5981 26.0221 22.5981 26.0221 22.7419 26.1641C22.7977 26.224 22.8536 26.2839 22.9112 26.3456C23.3916 26.8327 23.8794 27.3125 24.3716 27.7877C25.049 28.443 25.6293 29.1006 26.125 29.9061C26.1619 29.9591 26.1988 30.0121 26.2367 30.0667C26.417 30.6156 26.1186 31.3409 25.977 31.8789C25.9542 31.967 25.9314 32.0551 25.908 32.1458C25.8357 32.4252 25.7629 32.7045 25.6899 32.9837C25.6167 33.2645 25.5437 33.5453 25.471 33.8262C25.4259 34.0005 25.3805 34.1748 25.3347 34.349C25.3143 34.4276 25.294 34.5062 25.273 34.5872C25.2549 34.6563 25.2369 34.7254 25.2183 34.7967C25.1707 34.9877 25.1707 34.9877 25.1797 35.2342C25.2884 35.2498 25.397 35.2654 25.509 35.2815C25.6517 35.3033 25.7944 35.3251 25.937 35.347C26.0086 35.3571 26.0802 35.3672 26.154 35.3777C26.2575 35.3939 26.2575 35.3939 26.363 35.4104C26.4582 35.4246 26.4582 35.4246 26.5553 35.4391C26.7711 35.5057 26.8526 35.5656 26.9844 35.7498C27.0411 35.9863 27.0411 35.9863 27.0757 36.2711C27.0892 36.375 27.1027 36.4788 27.1166 36.5858C27.1297 36.6946 27.1428 36.8033 27.1562 36.9153C27.243 38.2015 27.243 38.2015 27.833 39.2894C28.0841 39.472 28.0841 39.472 28.3332 39.4119C28.3986 39.3945 28.4639 39.3771 28.5312 39.3592C28.5325 39.2848 28.5338 39.2104 28.535 39.1337C28.5404 38.8515 28.5468 38.5693 28.5538 38.2871C28.5566 38.1661 28.559 38.0451 28.561 37.9241C28.5752 37.0813 28.6664 36.3127 28.875 35.492C30.2376 35.1805 30.2376 35.1805 30.6797 35.2342C30.8284 35.3717 30.971 35.516 31.1094 35.6639C31.2634 35.816 31.4175 35.9681 31.5716 36.1201C31.7036 36.2508 31.8355 36.3816 31.9674 36.5124C32.0578 36.602 32.1484 36.6914 32.2391 36.7807C32.3715 36.911 32.5034 37.0418 32.6351 37.1728C32.7134 37.2502 32.7916 37.3276 32.8723 37.4073C33.0883 37.643 33.2549 37.889 33.4297 38.1561C33.6968 38.374 33.7975 38.4197 34.144 38.387C34.2203 38.3675 34.2965 38.348 34.375 38.3279C34.4342 38.1705 34.4342 38.1705 34.4609 37.9842C34.3332 37.7606 34.2038 37.5626 34.0527 37.3558C34.0103 37.2957 33.9678 37.2356 33.924 37.1737C33.703 36.8627 33.4766 36.5559 33.2481 36.2503C33.2056 36.1933 33.1631 36.1362 33.1193 36.0774C33.0381 35.969 32.9563 35.8612 32.8737 35.7541C32.5944 35.3836 32.3713 35.0601 32.4219 34.5833C32.6644 34.2426 33.0216 34.1249 33.3975 33.9612C33.4746 33.9263 33.5517 33.8913 33.6311 33.8553C33.8212 33.7694 34.0119 33.6848 34.2031 33.6014C33.875 33.2036 33.5332 32.8401 33.1504 32.4949C33.1018 32.4506 33.0532 32.4062 33.0031 32.3605C32.8592 32.2295 32.7148 32.0989 32.5703 31.9686C32.4943 31.8999 32.4183 31.8312 32.34 31.7604C32.2707 31.6979 32.2013 31.6355 32.1299 31.5711C32.0625 31.5096 31.9952 31.4481 31.9258 31.3848C31.7703 31.2475 31.6103 31.1154 31.4478 30.9867C30.8066 30.4608 30.8066 30.4608 30.6941 30.1175C30.6618 29.345 31.0496 28.7448 31.5391 28.1873C31.5391 28.1306 31.5391 28.0739 31.5391 28.0154C31.5882 27.9936 31.6374 27.9718 31.6881 27.9493C31.9057 27.8311 32.0655 27.6938 32.248 27.5267C32.4489 27.3431 32.6491 27.162 32.8593 26.9892C32.9529 26.9123 32.9529 26.9123 33.0483 26.8338C33.1336 26.7653 33.1336 26.7653 33.2206 26.6955C33.3814 26.5426 33.3814 26.5426 33.3438 26.2107C33.0235 26.2605 32.7896 26.349 32.5106 26.5125C32.4353 26.5562 32.3601 26.5998 32.2826 26.6448C32.2039 26.6912 32.1251 26.7376 32.0439 26.7854C31.8807 26.8797 31.7174 26.9739 31.5542 27.0681C31.309 27.2106 31.0654 27.3546 30.823 27.5018C29.5816 28.2351 27.8886 28.3098 26.4956 28.0047C25.2894 27.6314 24.3907 26.7926 23.4858 25.9482C23.1995 25.705 22.9845 25.5232 22.6016 25.5232ZM21.8281 26.9842C21.7714 27.0569 21.7147 27.1295 21.6562 27.2044C21.4836 27.4116 21.3033 27.5887 21.0977 27.763C20.0049 28.7014 18.5245 29.9857 18.2188 31.4529C18.1924 32.085 18.2686 32.6869 18.3601 33.3117C18.3747 33.4139 18.3894 33.516 18.4045 33.6213C18.4355 33.8364 18.4668 34.0514 18.4983 34.2664C18.5463 34.5941 18.5928 34.9221 18.6392 35.2501C18.6696 35.4598 18.7001 35.6694 18.7307 35.879C18.7444 35.9765 18.7581 36.0739 18.7722 36.1742C18.8918 36.975 19.0505 37.6874 19.6797 38.242C20.238 38.597 20.735 38.6856 21.3911 38.6922C21.4572 38.6929 21.5233 38.6935 21.5915 38.6943C21.7315 38.6954 21.8715 38.6964 22.0115 38.697C22.1533 38.698 22.2951 38.6998 22.4369 38.7023C23.7478 38.7304 23.7478 38.7304 24.8923 38.1433C25.3425 37.5996 25.5314 37.2384 25.5234 36.5232C25.42 36.5066 25.3165 36.49 25.2099 36.4729C25.0745 36.4503 24.9391 36.4277 24.8037 36.4051C24.7355 36.3942 24.6672 36.3834 24.5969 36.3722C24.5316 36.3611 24.4662 36.35 24.3989 36.3386C24.3386 36.3287 24.2783 36.3188 24.2161 36.3086C24.0625 36.2654 24.0625 36.2654 23.8906 36.0936C23.8311 35.4708 23.9958 34.9152 24.1568 34.3171C24.1837 34.2139 24.2106 34.1108 24.2384 34.0046C24.324 33.6766 24.4106 33.3489 24.4976 33.0213C24.6123 32.5887 24.7259 32.1559 24.839 31.7228C24.8657 31.6234 24.8925 31.5239 24.9201 31.4214C24.9441 31.3291 24.9682 31.2367 24.9931 31.1415C25.0146 31.0604 25.0362 30.9792 25.0584 30.8956C25.108 30.5921 25.0617 30.4181 24.895 30.1632C24.1993 29.2903 23.4366 28.4938 22.6423 27.7114C22.5215 27.5916 22.4024 27.47 22.2833 27.3484C22.0872 27.1455 22.0872 27.1455 21.8281 26.9842Z" fill="#1D304D"/>
</svg>
