<svg width="44" height="44" viewBox="0 0 44 44" fill="none" xmlns="http://www.w3.org/2000/svg">
<path d="M11.0685 3.16734C11.1385 3.16702 11.2085 3.1667 11.2807 3.16638C11.5167 3.16543 11.7526 3.1651 11.9886 3.16477C12.1573 3.16423 12.3259 3.16366 12.4946 3.16306C12.954 3.16156 13.4134 3.16066 13.8727 3.15995C14.1598 3.15951 14.4469 3.15899 14.734 3.15845C15.6324 3.15681 16.5308 3.15558 17.4291 3.15487C18.4657 3.15403 19.5023 3.15177 20.5389 3.1483C21.3402 3.1457 22.1415 3.14443 22.9428 3.14415C23.4213 3.14394 23.8997 3.14318 24.3782 3.14101C24.8289 3.13901 25.2795 3.13865 25.7302 3.13953C25.8951 3.13957 26.06 3.13903 26.225 3.13785C28.1986 3.12449 28.1986 3.12449 28.9556 3.80303C29.5469 4.4639 29.6618 5.12894 29.6588 5.9956C29.6589 6.10932 29.6589 6.10932 29.659 6.22535C29.6591 6.47935 29.6587 6.73335 29.6582 6.98736C29.6582 7.16945 29.6582 7.35155 29.6582 7.53364C29.6583 8.0281 29.6577 8.52255 29.6571 9.01701C29.6566 9.5337 29.6566 10.0504 29.6565 10.5671C29.6562 11.5456 29.6555 12.5241 29.6546 13.5026C29.6537 14.6165 29.6532 15.7305 29.6528 16.8444C29.6519 19.136 29.6503 21.4275 29.6484 23.719C29.7677 23.7156 29.7677 23.7156 29.8895 23.712C30.2684 23.7217 30.402 23.8032 30.6797 24.0628C30.9323 24.5772 31.0692 25.1388 31.1953 25.6956C31.5455 25.8638 31.9116 26.0204 32.3008 25.9066C32.5282 25.8104 32.7443 25.7013 32.9587 25.5789C33.369 25.3503 33.6454 25.294 34.1172 25.3519C34.5464 25.5746 34.8746 25.9086 35.2129 26.2488C35.2624 26.297 35.3119 26.3451 35.3629 26.3947C35.6735 26.7049 35.8961 26.9633 35.938 27.4174C35.8888 27.9495 35.6863 28.3458 35.4217 28.8068C35.3045 29.0847 35.3175 29.1939 35.4062 29.4769C35.4364 29.585 35.4665 29.6931 35.4976 29.8045C35.5374 29.9401 35.5374 29.9401 35.5781 30.0784C35.743 30.1103 35.743 30.1103 35.9111 30.1429C36.2169 30.2124 36.5126 30.2953 36.8081 30.4007C36.8769 30.4251 36.9457 30.4494 37.0166 30.4745C37.2903 30.6428 37.4449 30.8111 37.5547 31.1097C37.6044 31.483 37.6027 31.8508 37.5977 32.2269C37.599 32.3268 37.6003 32.4267 37.6017 32.5297C37.5974 33.4569 37.5974 33.4569 37.2109 33.8597C37.0384 33.9731 37.0384 33.9731 36.8564 34.0423C36.7895 34.0694 36.7226 34.0966 36.6537 34.1245C36.5051 34.1788 36.3555 34.2303 36.2052 34.2796C35.7906 34.4131 35.7906 34.4131 35.4636 34.6845C35.2952 35.0344 35.3198 35.2982 35.4062 35.6644C35.4884 35.8372 35.5765 36.0073 35.6694 36.1746C35.8721 36.5682 36.0046 36.8467 35.9219 37.2972C35.7091 37.7392 35.3595 38.0537 35.0142 38.3929C34.9553 38.4517 34.8964 38.5105 34.8357 38.5711C34.4206 38.9826 34.2077 39.1432 33.6123 39.1458C33.21 39.0799 32.8731 38.8953 32.5224 38.6916C32.3452 38.5904 32.3452 38.5904 32.0547 38.5003C31.7317 38.6017 31.7317 38.6017 31.4531 38.7581C31.368 38.7581 31.283 38.7581 31.1953 38.7581C31.1634 38.9229 31.1634 38.9229 31.1309 39.0911C31.0053 39.6467 30.8698 40.2008 30.4595 40.6111C29.9972 40.8838 29.5415 40.8395 29.02 40.8421C28.8868 40.8448 28.8868 40.8448 28.751 40.8475C28.2703 40.8499 27.9111 40.8422 27.5 40.5628C27.0982 40.1138 26.8125 39.3603 26.8125 38.7581C26.7363 38.7475 26.6601 38.7368 26.5815 38.7259C26.2969 38.6722 26.2969 38.6722 26.1002 38.5647C25.8565 38.4715 25.8565 38.4715 25.5922 38.6151C25.4918 38.6726 25.3919 38.7311 25.2925 38.7903C24.8629 39.0227 24.4939 39.2018 23.996 39.1596C23.6149 39.0446 23.3849 38.783 23.1172 38.5003C23.0421 38.429 22.967 38.3576 22.8896 38.2841C22.2102 37.6339 22.2102 37.6339 22.0859 37.2112C22.0859 36.6327 22.3001 36.2411 22.5861 35.7443C22.7451 35.3495 22.6401 35.0953 22.5126 34.7033C22.2731 34.36 22.0107 34.307 21.6186 34.198C21.1295 34.0589 20.8228 33.9695 20.5391 33.5159C20.4227 33.2831 20.4475 33.0854 20.4531 32.8284C20.3906 32.8288 20.328 32.8292 20.2636 32.8296C18.7393 32.8391 17.2151 32.8462 15.6908 32.8507C14.9536 32.8529 14.2165 32.8559 13.4793 32.8608C12.8366 32.8651 12.1938 32.8679 11.5511 32.8688C11.211 32.8694 10.8709 32.8707 10.5308 32.8739C10.2101 32.8768 9.88952 32.8777 9.56883 32.877C9.39617 32.8772 9.22351 32.8795 9.05086 32.8819C8.2919 32.8776 7.68965 32.7565 7.12064 32.2277C6.50592 31.5825 6.40703 30.9946 6.41026 30.1317C6.40961 30.0338 6.40897 29.9358 6.4083 29.8349C6.40647 29.507 6.40648 29.1792 6.40649 28.8513C6.40572 28.6161 6.40457 28.3809 6.40345 28.1457C6.4007 27.5071 6.39985 26.8684 6.39936 26.2298C6.39903 25.8308 6.39828 25.4319 6.39742 25.0329C6.39511 23.9277 6.39317 22.8226 6.39297 21.7174C6.39295 21.6468 6.39294 21.5761 6.39292 21.5033C6.3929 21.3601 6.39287 21.2168 6.39285 21.0736C6.39284 21.0025 6.39283 20.9314 6.39281 20.8582C6.3928 20.787 6.39279 20.7158 6.39278 20.6425C6.39251 19.4884 6.38936 18.3345 6.38494 17.1805C6.38043 15.9949 6.37817 14.8094 6.37822 13.6238C6.3782 12.9585 6.37724 12.2931 6.37382 11.6278C6.37093 11.0614 6.37012 10.495 6.372 9.92866C6.3729 9.63978 6.3725 9.35105 6.37013 9.06216C6.36771 8.74869 6.36901 8.43545 6.37123 8.12198C6.36966 8.0311 6.36808 7.94022 6.36646 7.84659C6.37561 7.27625 6.49205 6.98502 6.89914 6.58104C6.94789 6.53635 6.99664 6.49166 7.04687 6.44561C7.1102 6.37868 7.17352 6.31175 7.23877 6.2428C7.2934 6.1881 7.34803 6.1334 7.40432 6.07704C7.46738 6.01371 7.53044 5.95038 7.59541 5.88513C7.66132 5.81939 7.72723 5.75366 7.79513 5.68594C7.89911 5.58184 7.89911 5.58184 8.00518 5.47563C8.15046 5.3303 8.29584 5.18508 8.44132 5.03996C8.66472 4.81702 8.88765 4.59363 9.11055 4.37018C9.25212 4.22866 9.39373 4.08717 9.53536 3.9457C9.60214 3.87875 9.66892 3.8118 9.73772 3.74282C9.83028 3.65067 9.83028 3.65067 9.92471 3.55665C9.979 3.50243 10.0333 3.44821 10.0892 3.39234C10.3837 3.12124 10.6897 3.16725 11.0685 3.16734ZM11.2578 4.38311C11.2566 4.43112 11.2553 4.47914 11.254 4.52861C11.2475 4.75051 11.2392 4.97231 11.231 5.19414C11.229 5.26964 11.2271 5.34514 11.2251 5.42292C11.1985 6.0784 11.0948 6.73911 10.6455 7.2459C10.601 7.29874 10.5564 7.35158 10.5106 7.40603C9.9122 7.87964 9.28902 7.96017 8.54541 7.971C8.41538 7.97482 8.41538 7.97482 8.28273 7.97872C8.07129 7.98473 7.85993 7.98929 7.64843 7.99248C7.64056 10.8834 7.63451 13.7744 7.63088 16.6654C7.63045 17.0067 7.63 17.348 7.62955 17.6893C7.62946 17.7573 7.62937 17.8252 7.62928 17.8952C7.62778 18.9954 7.62507 20.0956 7.62191 21.1958C7.6187 22.3247 7.61679 23.4536 7.61609 24.5825C7.61562 25.2791 7.61413 25.9757 7.61134 26.6723C7.6093 27.2064 7.60909 27.7406 7.60955 28.2748C7.60946 28.4939 7.60877 28.713 7.60746 28.9321C7.60575 29.2311 7.60616 29.53 7.6071 29.829C7.60609 29.9159 7.60509 30.0027 7.60406 30.0922C7.60854 30.6189 7.66413 30.9469 7.99218 31.3675C8.40834 31.6645 8.7986 31.6621 9.29062 31.6586C9.36861 31.6591 9.44659 31.6595 9.52694 31.66C9.78779 31.6612 10.0486 31.6606 10.3095 31.66C10.4967 31.6605 10.6839 31.6611 10.8711 31.6618C11.3792 31.6633 11.8874 31.6632 12.3955 31.6628C12.8197 31.6625 13.2438 31.663 13.668 31.6635C14.6685 31.6647 15.669 31.6646 16.6694 31.6636C17.7019 31.6626 18.7343 31.6639 19.7668 31.6662C20.6531 31.6681 21.5394 31.6686 22.4257 31.6681C22.9552 31.6678 23.4846 31.668 24.014 31.6695C24.5117 31.6708 25.0094 31.6705 25.5071 31.6689C25.6898 31.6686 25.8725 31.6688 26.0552 31.6697C26.3046 31.6709 26.5538 31.6699 26.8031 31.6684C26.8755 31.6692 26.9479 31.67 27.0224 31.6709C27.4793 31.6651 27.741 31.587 28.1016 31.2815C28.3408 31.0166 28.3916 30.8492 28.3921 30.4943C28.3931 30.359 28.3931 30.359 28.3943 30.2211C28.3935 30.0726 28.3935 30.0726 28.3927 29.9212C28.3931 29.816 28.3936 29.7108 28.3941 29.6024C28.3951 29.3102 28.395 29.018 28.3943 28.7258C28.3939 28.4108 28.395 28.0957 28.3959 27.7807C28.3974 27.1634 28.3974 26.5461 28.397 25.9288C28.3966 25.4271 28.3968 24.9254 28.3972 24.4237C28.3973 24.3523 28.3973 24.281 28.3974 24.2075C28.3975 24.0625 28.3977 23.9176 28.3978 23.7726C28.399 22.4126 28.3985 21.0526 28.3975 19.6926C28.3967 18.4482 28.3978 17.2037 28.3998 15.9593C28.4019 14.6819 28.4028 13.4045 28.4022 12.1271C28.4019 11.4098 28.4021 10.6925 28.4036 9.97514C28.4049 9.36444 28.4049 8.75375 28.4034 8.14305C28.4027 7.83143 28.4025 7.51984 28.4038 7.20822C28.4052 6.87047 28.404 6.53275 28.4024 6.195C28.4033 6.09642 28.4041 5.99784 28.4049 5.89628C28.3988 5.2023 28.3988 5.2023 28.0156 4.64092C27.5784 4.39108 27.133 4.34593 26.6354 4.35211C26.5691 4.35189 26.5029 4.35167 26.4347 4.35144C26.2147 4.35102 25.9948 4.35243 25.7749 4.35384C25.6164 4.35391 25.458 4.35387 25.2996 4.35373C24.8708 4.35365 24.4421 4.35517 24.0133 4.35697C23.5648 4.35858 23.1162 4.35873 22.6676 4.35904C21.8188 4.35984 20.97 4.36195 20.1212 4.36454C19.1546 4.36743 18.1879 4.36884 17.2213 4.37013C15.2335 4.37283 13.2456 4.37736 11.2578 4.38311ZM9.65957 5.62618C9.59781 5.68783 9.53605 5.74948 9.47242 5.81299C9.40756 5.87819 9.3427 5.94338 9.27587 6.01055C9.21068 6.07541 9.14549 6.14027 9.07832 6.2071C8.98585 6.29974 8.98585 6.29974 8.89151 6.39425C8.83445 6.4514 8.77739 6.50856 8.7186 6.56744C8.58406 6.6832 8.58406 6.6832 8.59375 6.78936C9.02482 6.81472 9.28097 6.80119 9.625 6.53155C10.0057 6.17202 10.0329 5.82753 10.0547 5.32842C9.88856 5.32842 9.76928 5.51666 9.65957 5.62618ZM29.6484 25.0081C29.6484 26.0858 29.6484 27.1634 29.6484 28.2737C29.9037 28.3588 30.1589 28.4439 30.4219 28.5315C31.5076 29.0297 32.2092 29.6628 32.6844 30.7753C33.0939 31.9577 32.9849 33.0571 32.4599 34.1823C31.9663 35.0829 31.1995 35.6434 30.25 36.0081C29.2138 36.3032 28.1249 36.2253 27.1562 35.7503C26.2229 35.2103 25.6304 34.5323 25.2656 33.5159C25.2089 33.289 25.1522 33.0622 25.0937 32.8284C23.9594 32.8284 22.825 32.8284 21.6562 32.8284C21.9153 33.0011 22.1325 33.0567 22.4302 33.1333C23.2509 33.361 23.2509 33.361 23.4909 33.6606C23.6873 34.0227 23.7864 34.4086 23.8906 34.805C23.9244 34.8641 23.9582 34.9233 23.993 34.9842C24.1002 35.2379 24.047 35.4011 23.9766 35.6644C23.8491 35.9274 23.7142 36.1811 23.5695 36.4348C23.4043 36.729 23.4043 36.729 23.421 37.0535C23.5708 37.2412 23.7287 37.4094 23.9014 37.5765C23.9636 37.6372 24.0259 37.6979 24.09 37.7604C24.1615 37.8289 24.1615 37.8289 24.2344 37.8987C24.3319 37.8481 24.4293 37.7975 24.5298 37.7453C24.6604 37.68 24.7911 37.6148 24.9219 37.5496C24.9858 37.5161 25.0497 37.4826 25.1156 37.4481C25.5859 37.217 25.8703 37.1766 26.3828 37.2972C26.5762 37.3747 26.5762 37.3747 26.7266 37.4637C26.9726 37.602 27.1618 37.6594 27.4409 37.6946C27.7578 37.8128 27.7578 37.8128 27.8461 37.981C27.8887 38.1274 27.9263 38.2753 27.9596 38.4241C28.0203 38.6927 28.1072 38.9408 28.2036 39.1985C28.2807 39.4059 28.2807 39.4059 28.3594 39.6175C28.7848 39.6175 29.2102 39.6175 29.6484 39.6175C29.749 39.349 29.8492 39.0805 29.9492 38.8118C29.9779 38.7354 30.0066 38.6589 30.0362 38.5802C30.0633 38.5071 30.0904 38.434 30.1184 38.3586C30.1562 38.2574 30.1562 38.2574 30.1948 38.1541C30.2589 37.9871 30.2589 37.9871 30.25 37.8128C30.3031 37.7982 30.3561 37.7835 30.4108 37.7685C30.8618 37.6394 31.2711 37.4908 31.6851 37.269C32.2147 37.1143 32.7008 37.3726 33.1665 37.6033C33.2253 37.6316 33.284 37.6599 33.3446 37.6891C33.4879 37.7582 33.6307 37.8284 33.7734 37.8987C34.057 37.6151 34.3406 37.3315 34.6328 37.0394C34.5015 36.6454 34.3677 36.3417 34.1763 35.9813C33.8953 35.3754 33.8953 35.3754 34.0151 35.0145C34.0757 34.8863 34.1386 34.7593 34.2031 34.6331C34.2712 34.4505 34.3392 34.2679 34.4072 34.0853C34.5582 33.6878 34.6749 33.5247 35.0625 33.344C35.284 33.259 35.5077 33.1847 35.7339 33.1131C35.9377 33.0475 36.1415 32.9819 36.3516 32.9144C36.3516 32.4606 36.3516 32.0069 36.3516 31.5394C36.2429 31.5051 36.1342 31.4709 36.0222 31.4356C35.8796 31.3897 35.7369 31.3437 35.5942 31.2977C35.4868 31.264 35.4868 31.264 35.3772 31.2297C35.3082 31.2072 35.2393 31.1848 35.1682 31.1617C35.1048 31.1415 35.0413 31.1212 34.976 31.1003C34.5156 30.8944 34.3922 30.4635 34.2139 30.0247C34.1842 29.9586 34.1545 29.8924 34.1239 29.8243C33.9364 29.3616 33.9314 29.079 34.121 28.6156C34.2513 28.346 34.4017 28.0983 34.5647 27.8477C34.6527 27.6744 34.6527 27.6744 34.5808 27.5006C34.4399 27.2983 34.2836 27.1346 34.1064 26.9632C34.0131 26.8721 34.0131 26.8721 33.9178 26.7792C33.8701 26.7336 33.8225 26.6879 33.7734 26.6409C33.3577 26.7613 33.0022 26.9435 32.627 27.1545C32.2178 27.312 31.8972 27.277 31.487 27.1357C31.3854 27.0894 31.2839 27.0431 31.1792 26.9954C31.0769 26.9495 30.9747 26.9037 30.8693 26.8564C30.7784 26.8137 30.6874 26.7709 30.5937 26.7269C30.5344 26.7032 30.475 26.6794 30.4138 26.655C30.2038 26.5268 30.1757 26.4323 30.1036 26.1998C30.0815 26.1306 30.0593 26.0613 30.0365 25.99C30.0148 25.9177 29.9931 25.8453 29.9707 25.7708C29.9361 25.6613 29.9361 25.6613 29.9009 25.5496C29.8442 25.3694 29.7888 25.189 29.7344 25.0081C29.706 25.0081 29.6777 25.0081 29.6484 25.0081ZM29.6484 29.5628C29.6452 29.6397 29.642 29.7166 29.6387 29.7958C29.5873 30.742 29.5027 31.623 28.7891 32.3128C28.3856 32.5764 27.9633 32.7457 27.4802 32.7697C27.4112 32.7733 27.3423 32.7769 27.2712 32.7806C27.1996 32.784 27.128 32.7873 27.0542 32.7908C26.9816 32.7945 26.909 32.7982 26.8341 32.8021C26.6551 32.8112 26.476 32.8198 26.2969 32.8284C26.4878 33.6176 26.938 34.2035 27.602 34.6761C28.2992 35.0479 29.1173 35.1174 29.8831 34.9148C30.0742 34.8335 30.2455 34.7423 30.4219 34.6331C30.4754 34.603 30.5289 34.5728 30.584 34.5418C31.2244 34.1417 31.5711 33.4934 31.7566 32.7771C31.8894 32.0966 31.7812 31.4375 31.4283 30.8344C30.9487 30.1625 30.4505 29.7701 29.6484 29.5628Z" fill="#1D304D"/>
<path d="M18.6618 7.87548C18.7958 7.94105 18.929 8.00795 19.0618 8.07589C19.1351 8.11222 19.2083 8.14855 19.2839 8.18598C19.5251 8.30592 19.7654 8.42756 20.0057 8.5493C20.1735 8.63334 20.3414 8.71729 20.5093 8.80116C20.8606 8.97699 21.2116 9.15362 21.5623 9.33088C22.0115 9.55796 22.4616 9.78337 22.9121 10.0082C23.2586 10.1814 23.6048 10.3552 23.9509 10.5293C24.1167 10.6127 24.2827 10.6959 24.4487 10.7789C24.6807 10.895 24.9121 11.0121 25.1435 11.1294C25.212 11.1635 25.2806 11.1976 25.3512 11.2328C25.9921 11.56 25.9921 11.56 26.211 11.8592C26.2521 12.0744 26.2521 12.0744 26.2497 12.3188C26.2497 12.4565 26.2497 12.4565 26.2498 12.5969C26.2483 12.6956 26.2468 12.7942 26.2452 12.8959C26.2456 13.1047 26.2461 13.3135 26.2465 13.5223C26.2453 13.8516 26.2432 14.1808 26.2402 14.5101C26.2379 14.8279 26.2387 15.1455 26.2398 15.4632C26.238 15.5619 26.2361 15.6606 26.2342 15.7622C26.2358 16.0184 26.2411 16.2498 26.2969 16.4999C26.5314 16.7338 26.5314 16.7338 26.8125 16.8436C27.1592 17.1999 27.3231 17.5612 27.3312 18.0642C27.291 18.6407 27.115 19.0445 26.689 19.4486C26.1965 19.7729 25.7628 19.8366 25.1797 19.7655C24.6716 19.6102 24.3578 19.3404 24.0625 18.9061C23.8447 18.4186 23.8238 17.9557 23.9766 17.4452C24.1457 17.0269 24.468 16.7498 24.836 16.4999C24.8927 16.4999 24.9494 16.4999 25.0078 16.4999C24.9795 15.4222 24.9511 14.3446 24.9219 13.2342C23.986 13.7022 23.986 13.7022 23.0313 14.1796C23.0291 14.4579 23.0268 14.7363 23.0246 15.0232C23.0212 15.2939 23.0174 15.5647 23.0134 15.8355C23.011 16.0231 23.0092 16.2107 23.008 16.3983C23.0061 16.6687 23.0021 16.9389 22.9977 17.2092C22.9976 17.2926 22.9975 17.3759 22.9974 17.4618C22.9861 17.988 22.9088 18.3033 22.6016 18.7342C22.1475 19.1551 21.7803 19.177 21.183 19.1778C21.1084 19.1782 21.0337 19.1786 20.9568 19.1791C20.7096 19.1803 20.4624 19.1809 20.2151 19.1814C20.0433 19.1819 19.8715 19.1824 19.6997 19.1829C19.3393 19.1838 18.9789 19.1843 18.6185 19.1846C18.157 19.185 17.6955 19.1871 17.234 19.1896C16.879 19.1912 16.524 19.1916 16.1691 19.1917C15.9989 19.192 15.8288 19.1927 15.6587 19.1938C15.4205 19.1953 15.1824 19.1951 14.9441 19.1946C14.8741 19.1954 14.804 19.1961 14.7318 19.197C14.2412 19.1934 13.8797 19.1009 13.504 18.7614C13.4629 18.7117 13.4218 18.662 13.3794 18.6107C13.3372 18.5612 13.295 18.5117 13.2515 18.4607C13.0654 18.1788 13.0518 17.8981 13.0528 17.5668C13.0528 17.4894 13.0528 17.412 13.0528 17.3322C13.0532 17.2494 13.0537 17.1666 13.0541 17.0813C13.0542 16.9959 13.0544 16.9106 13.0545 16.8227C13.055 16.5503 13.0561 16.278 13.0571 16.0057C13.0576 15.821 13.058 15.6362 13.0583 15.4515C13.0593 14.9989 13.0607 14.5462 13.0625 14.0936C12.9891 14.0708 12.9158 14.0481 12.8402 14.0246C12.3724 13.8605 11.9365 13.6309 11.4941 13.4089C11.3275 13.3255 11.1605 13.243 10.9935 13.1606C10.887 13.1074 10.7805 13.0542 10.6741 13.0009C10.5298 12.929 10.5298 12.929 10.3826 12.8556C10.0882 12.6889 9.92495 12.5751 9.80763 12.2567C9.79333 11.9563 9.87868 11.8429 10.0547 11.6014C10.2639 11.4609 10.2639 11.4609 10.5156 11.3375C10.6101 11.2904 10.7046 11.2433 10.802 11.1948C10.9056 11.1447 11.0092 11.0946 11.1128 11.0445C11.2203 10.9914 11.3278 10.9382 11.4352 10.8849C11.7189 10.7445 12.0033 10.6054 12.2878 10.4667C12.571 10.3285 12.8537 10.1891 13.1364 10.0497C13.1914 10.0225 13.2465 9.99538 13.3032 9.9674C13.4136 9.91299 13.5239 9.85858 13.6342 9.80415C13.7978 9.72352 13.9614 9.64303 14.1251 9.56256C14.9824 9.14045 15.8304 8.7026 16.6719 8.24987C16.7528 8.20644 16.7528 8.20644 16.8354 8.16215C17.0492 8.04743 17.2629 7.93243 17.4762 7.81682C17.8975 7.66351 18.2575 7.69513 18.6618 7.87548ZM17.3906 9.29668C17.332 9.32574 17.2735 9.35481 17.2131 9.38475C17.019 9.48121 16.8251 9.57819 16.6313 9.67522C16.4969 9.74226 16.3624 9.80928 16.228 9.87629C15.9461 10.0169 15.6643 10.1579 15.3826 10.2989C15.0208 10.48 14.6587 10.6604 14.2965 10.8405C14.0188 10.9787 13.7413 11.1174 13.4638 11.2563C13.3304 11.323 13.1968 11.3895 13.0632 11.4559C12.8768 11.5486 12.6906 11.642 12.5046 11.7355C12.4489 11.763 12.3932 11.7905 12.3359 11.8189C12.0452 11.9542 12.0452 11.9542 11.8594 12.203C12.6356 12.5981 13.4124 12.9918 14.1901 13.384C14.5512 13.5661 14.9121 13.7486 15.2724 13.9322C15.6202 14.1093 15.9685 14.2853 16.3172 14.4604C16.4502 14.5275 16.583 14.595 16.7155 14.6629C16.9011 14.7578 17.0875 14.8513 17.274 14.9445C17.3287 14.9729 17.3834 15.0013 17.4398 15.0306C17.6657 15.1417 17.8371 15.2124 18.0908 15.2019C18.3674 15.1023 18.6284 14.98 18.8899 14.8469C18.947 14.8184 19.004 14.7899 19.0628 14.7605C19.2505 14.6666 19.4377 14.572 19.625 14.4773C19.7554 14.4119 19.8858 14.3465 20.0162 14.2812C20.3587 14.1094 20.701 13.937 21.0431 13.7645C21.3926 13.5884 21.7424 13.413 22.0922 13.2374C22.7779 12.8932 23.4633 12.5483 24.1485 12.203C23.8693 11.9114 23.597 11.7352 23.2347 11.5638C23.1109 11.5036 22.9871 11.4433 22.8633 11.3829C22.7947 11.3496 22.726 11.3163 22.6553 11.2821C22.2221 11.0702 21.7921 10.8517 21.3615 10.6346C21.171 10.5389 20.9804 10.4432 20.7898 10.3476C20.4952 10.1997 20.2005 10.0518 19.9061 9.90345C19.618 9.75835 19.3296 9.61368 19.0412 9.4691C18.9524 9.42427 18.8636 9.37943 18.7722 9.33323C18.6906 9.29244 18.609 9.25164 18.525 9.20961C18.4532 9.17352 18.3814 9.13743 18.3074 9.10024C17.9529 8.944 17.7112 9.13578 17.3906 9.29668ZM14.2656 14.7811C14.2614 15.1925 14.2583 15.6039 14.2562 16.0153C14.2553 16.1553 14.2542 16.2952 14.2527 16.4352C14.2506 16.6363 14.2496 16.8375 14.2489 17.0387C14.248 17.1012 14.2471 17.1638 14.2462 17.2283C14.2461 17.5494 14.2546 17.6864 14.4375 17.9608C14.6679 17.9863 14.8785 17.9951 15.1091 17.9928C15.2131 17.9933 15.2131 17.9933 15.3191 17.9938C15.549 17.9944 15.7787 17.9933 16.0086 17.992C16.1678 17.992 16.3271 17.992 16.4863 17.9922C16.8204 17.9921 17.1545 17.9912 17.4885 17.9897C17.9174 17.9877 18.3462 17.9877 18.7751 17.9883C19.1041 17.9886 19.433 17.988 19.7619 17.9871C19.9201 17.9868 20.0783 17.9867 20.2364 17.9869C20.4572 17.9869 20.678 17.9858 20.8988 17.9844C20.9646 17.9846 21.0304 17.9848 21.0982 17.9851C21.4596 17.9935 21.4596 17.9935 21.7422 17.7889C21.7573 17.5609 21.7621 17.3421 21.759 17.1142C21.7586 17.0144 21.7586 17.0144 21.7583 16.9126C21.7573 16.6998 21.7551 16.4871 21.7529 16.2743C21.7521 16.1302 21.7513 15.986 21.7506 15.8419C21.7487 15.4883 21.7457 15.1347 21.7422 14.7811C21.5057 14.8919 21.2694 15.0029 21.0332 15.1141C20.9606 15.1483 20.8881 15.1825 20.8133 15.2177C20.4175 15.4051 20.024 15.5962 19.6334 15.7942C19.5566 15.8331 19.4799 15.872 19.4008 15.9121C19.2526 15.9876 19.1046 16.0635 18.9569 16.14C18.8551 16.1918 18.8551 16.1918 18.7512 16.2447C18.6918 16.2754 18.6324 16.306 18.5713 16.3376C18.2785 16.4613 18.0653 16.5327 17.7553 16.4351C17.6846 16.4 17.6139 16.3649 17.541 16.3287C17.461 16.2896 17.3811 16.2506 17.2987 16.2104C17.2141 16.1677 17.1296 16.125 17.0425 16.0809C16.9555 16.0381 16.8684 15.9953 16.7787 15.9512C16.5133 15.8203 16.2487 15.6877 15.9844 15.5546C15.9049 15.5146 15.8255 15.4747 15.7436 15.4335C15.6686 15.3958 15.5937 15.3581 15.5164 15.3192C15.4455 15.2836 15.3746 15.248 15.3015 15.2113C15.1682 15.1441 15.0352 15.0764 14.9024 15.0083C14.5995 14.84 14.5995 14.84 14.2656 14.7811ZM25.1797 17.7889C25.0856 17.9433 25.0856 17.9433 25.0938 18.1327C25.2529 18.3692 25.2529 18.3692 25.4375 18.5624C25.7753 18.513 25.7753 18.513 26.0391 18.3046C26.0113 17.9955 26.0113 17.9955 25.9531 17.703C25.5457 17.601 25.5457 17.601 25.1797 17.7889Z" fill="#1D304D"/>
<path d="M16.7459 27.4663C16.8319 27.4659 16.9179 27.4654 17.0064 27.465C17.2907 27.4638 17.5749 27.4646 17.8592 27.4655C18.0566 27.4653 18.2539 27.465 18.4513 27.4647C18.8648 27.4643 19.2784 27.4649 19.692 27.4661C20.2228 27.4676 20.7535 27.4667 21.2843 27.4652C21.6918 27.4642 22.0993 27.4645 22.5067 27.4652C22.7025 27.4654 22.8982 27.4652 23.094 27.4646C23.3672 27.4639 23.6404 27.4649 23.9136 27.4663C23.9949 27.4658 24.0762 27.4653 24.16 27.4648C24.2343 27.4655 24.3087 27.4662 24.3853 27.467C24.4499 27.4671 24.5145 27.4672 24.581 27.4673C24.7976 27.5088 24.8723 27.5867 25.0078 27.7575C25.083 27.9616 25.083 27.9616 25.0938 28.1872C24.9956 28.3834 24.9055 28.5473 24.75 28.7028C24.6356 28.7116 24.5207 28.7144 24.4059 28.7149C24.3318 28.7154 24.2577 28.7159 24.1814 28.7164C24.0995 28.7165 24.0176 28.7166 23.9332 28.7167C23.8045 28.7173 23.8045 28.7173 23.6732 28.718C23.3879 28.7192 23.1027 28.7198 22.8174 28.7203C22.6199 28.7208 22.4224 28.7213 22.2249 28.7218C21.8101 28.7227 21.3954 28.7232 20.9806 28.7235C20.4486 28.7239 19.9165 28.726 19.3845 28.7285C18.9763 28.73 18.5681 28.7305 18.1599 28.7306C17.9637 28.7309 17.7676 28.7316 17.5714 28.7327C17.2972 28.7342 17.0229 28.734 16.7486 28.7335C16.6265 28.7346 16.6265 28.7346 16.502 28.7359C15.9529 28.7323 15.9529 28.7323 15.6763 28.5824C15.5261 28.4127 15.5083 28.3261 15.5117 28.1013C15.5108 28.0428 15.5099 27.9843 15.509 27.924C15.5547 27.7575 15.5547 27.7575 15.6764 27.6203C16.0222 27.4325 16.3586 27.4638 16.7459 27.4663Z" fill="#1D304D"/>
<path d="M16.3388 23.1049C16.4108 23.1045 16.4828 23.104 16.5571 23.1035C16.6752 23.1033 16.6752 23.1033 16.7957 23.1032C16.8789 23.1027 16.9621 23.1023 17.0477 23.1019C17.3233 23.1006 17.5988 23.1 17.8744 23.0996C18.0656 23.0991 18.2569 23.0986 18.4482 23.0981C18.8494 23.0972 19.2507 23.0967 19.6519 23.0964C20.1662 23.0959 20.6805 23.0938 21.1948 23.0914C21.5899 23.0898 21.9851 23.0893 22.3802 23.0892C22.5698 23.0889 22.7595 23.0883 22.9491 23.0871C23.2143 23.0857 23.4794 23.0858 23.7446 23.0864C23.823 23.0856 23.9014 23.0848 23.9822 23.084C24.3922 23.0867 24.6788 23.1007 25.0078 23.3748C25.1122 23.6391 25.1045 23.7682 25.0239 24.0408C24.9219 24.2342 24.9219 24.2342 24.75 24.3201C24.6308 24.3286 24.5113 24.3317 24.3918 24.3322C24.2792 24.3329 24.2792 24.3329 24.1643 24.3337C24.0405 24.3338 24.0405 24.3338 23.9142 24.334C23.784 24.3346 23.784 24.3346 23.6512 24.3353C23.3632 24.3365 23.0752 24.3371 22.7872 24.3376C22.5877 24.3381 22.3882 24.3386 22.1887 24.3391C21.77 24.34 21.3514 24.3405 20.9327 24.3408C20.3954 24.3413 19.858 24.3433 19.3207 24.3458C18.9085 24.3474 18.4963 24.3478 18.0842 24.3479C17.886 24.3482 17.6879 24.3489 17.4897 24.35C17.213 24.3515 16.9363 24.3513 16.6595 24.3508C16.5771 24.3516 16.4947 24.3524 16.4099 24.3532C16.3346 24.3527 16.2593 24.3522 16.1817 24.3517C16.0835 24.3519 16.0835 24.3519 15.9833 24.3521C15.7627 24.3108 15.687 24.2416 15.5547 24.0623C15.5212 23.687 15.5149 23.5205 15.7266 23.203C15.9608 23.1249 16.0979 23.1059 16.3388 23.1049Z" fill="#1D304D"/>
<path d="M14.7813 26.1254C14.9478 26.2651 14.9478 26.2651 15.0391 26.4692C15.0099 26.9275 14.8967 27.2145 14.6433 27.5941C14.6122 27.6412 14.5811 27.6883 14.5491 27.7369C14.4502 27.8861 14.3499 28.0343 14.2495 28.1826C14.1838 28.2816 14.1182 28.3807 14.0526 28.4798C13.071 29.9586 13.071 29.9586 12.708 30.0893C12.4372 30.0775 12.3422 30.0531 12.1172 29.9067C11.9636 29.7267 11.8218 29.5489 11.6821 29.3588C11.6449 29.3092 11.6076 29.2596 11.5692 29.2084C11.4648 29.0692 11.3613 28.9294 11.2578 28.7895C11.1819 28.6963 11.1819 28.6963 11.1044 28.6012C10.936 28.3504 10.9681 28.1363 11 27.8442C11.1237 27.6586 11.2165 27.6043 11.419 27.5165C11.6816 27.4934 11.8004 27.5404 12.0313 27.6723C12.2167 27.8626 12.3838 28.0643 12.5469 28.2739C12.8239 27.8872 13.0974 27.4997 13.3485 27.0956C13.399 27.0147 13.399 27.0147 13.4506 26.9321C13.5168 26.8255 13.5823 26.7184 13.6471 26.6108C13.9589 26.1099 14.1996 25.9522 14.7813 26.1254Z" fill="#1D304D"/>
<path d="M14.3999 21.6836C14.6953 21.7427 14.6953 21.7427 14.9102 21.9253C15.0717 22.235 15.0357 22.3537 14.9531 22.688C14.8438 22.9037 14.8438 22.9037 14.7057 23.1157C14.6299 23.2334 14.6299 23.2334 14.5526 23.3534C14.4986 23.4352 14.4447 23.5169 14.3892 23.6011C14.3074 23.7269 14.3074 23.7269 14.2241 23.8553C14.0668 24.0969 13.9085 24.3378 13.75 24.5786C13.6744 24.6953 13.5988 24.812 13.5234 24.9287C13.0869 25.5977 13.0869 25.5977 12.8906 25.6958C12.6489 25.728 12.6489 25.728 12.375 25.6958C12.05 25.4029 11.7721 25.071 11.4941 24.7344C11.4558 24.6886 11.4175 24.6428 11.378 24.5956C11.0097 24.1519 11.0097 24.1519 10.9731 23.8159C11 23.5474 11 23.5474 11.1396 23.3433C11.4082 23.1595 11.5398 23.1449 11.8594 23.2036C12.135 23.4291 12.3262 23.6464 12.4609 23.9771C12.7946 23.6796 13.0018 23.3358 13.229 22.9565C13.9397 21.7724 13.9397 21.7724 14.3999 21.6836Z" fill="#1D304D"/>
</svg>
