<svg width="44" height="44" viewBox="0 0 44 44" fill="none" xmlns="http://www.w3.org/2000/svg">
<path d="M33.3599 5.81688C34.0661 6.38473 34.5672 7.15916 34.7187 8.05663C34.7383 8.33621 34.7185 8.42232 34.5898 8.68505C34.375 8.85155 34.375 8.85155 34.1118 8.90526C33.6405 8.83044 33.2549 8.62844 32.8281 8.42186C32.4413 8.26566 32.1289 8.1968 31.7109 8.24999C31.4583 8.4523 31.4583 8.4523 31.2812 8.67968C31.4013 8.92534 31.5316 9.16245 31.668 9.3994C31.9926 9.98664 32.0908 10.5086 32.1406 11.1719C32.1897 11.126 32.2388 11.0801 32.2893 11.0329C32.7072 10.6489 33.1336 10.2813 33.5801 9.93114C33.6256 9.89465 33.6712 9.85817 33.7181 9.82057C34.1971 9.45056 34.6319 9.31524 35.2344 9.36718C35.84 9.48806 36.1713 9.81988 36.5234 10.3125C36.7443 10.687 36.7597 11.0916 36.6953 11.5156C36.5183 12.0105 36.2232 12.4436 35.9433 12.8852C35.2251 14.0407 34.6865 15.2611 34.375 16.5859C34.361 16.6419 34.3471 16.6978 34.3327 16.7555C33.7754 19.0698 33.8136 22.7679 34.8906 24.9219C35.3143 24.3588 35.6343 23.8085 35.895 23.1548C35.9304 23.0686 35.9659 22.9824 36.0024 22.8936C36.2208 22.3536 36.4217 21.8086 36.6147 21.2591C36.6371 21.1959 36.6594 21.1327 36.6825 21.0676C36.7928 20.7552 36.9014 20.4424 37.0069 20.1283C37.244 19.4387 37.492 18.7589 38.1581 18.3769C38.6232 18.166 39.1406 18.1252 39.6289 18.2751C40.1628 18.5111 40.5163 18.8878 40.7666 19.4111C40.9211 20.1836 40.7466 20.8689 40.5571 21.6186C40.5294 21.7302 40.5016 21.8419 40.4739 21.9535C40.0988 23.452 39.6527 24.9256 39.1734 26.3936C39.13 26.5269 39.0869 26.6602 39.0441 26.7937C38.8164 27.5026 38.5644 28.1856 38.2334 28.8535C38.2059 28.9093 38.1783 28.9651 38.1499 29.0227C37.8848 29.5382 37.542 29.9383 37.125 30.3359C37.0671 30.3935 37.0091 30.4511 36.9494 30.5105C35.4216 31.9552 33.3288 32.9756 31.4986 33.9754C30.6884 34.4179 30.1483 34.8631 29.8203 35.75C29.7211 36.2016 29.6589 36.6559 29.6001 37.1142C29.5694 37.3524 29.5368 37.5902 29.5031 37.8279C29.4896 37.9323 29.4761 38.0366 29.4623 38.1441C29.3783 38.4603 29.3034 38.5587 29.0469 38.7578C28.7854 38.8011 28.7854 38.8011 28.4728 38.8015C28.3864 38.8023 28.3864 38.8023 28.2982 38.8031C28.1053 38.8045 27.9125 38.8034 27.7195 38.8023C27.5812 38.8027 27.4428 38.8034 27.3045 38.8041C26.9288 38.8057 26.5531 38.8051 26.1774 38.804C25.7844 38.8031 25.3914 38.8039 24.9984 38.8045C24.3383 38.8051 23.6783 38.8043 23.0183 38.8026C22.255 38.8007 21.4918 38.8014 20.7285 38.8032C20.0734 38.8048 19.4183 38.805 18.7632 38.8041C18.3718 38.8036 17.9804 38.8035 17.5891 38.8047C17.2211 38.8056 16.8532 38.805 16.4853 38.803C16.3502 38.8025 16.2151 38.8027 16.08 38.8034C15.8957 38.8043 15.7115 38.8032 15.5272 38.8015C15.3724 38.8013 15.3724 38.8013 15.2146 38.8011C14.8996 38.749 14.7996 38.666 14.6094 38.4141C14.5377 38.1441 14.5377 38.1441 14.4969 37.8279C14.4889 37.7713 14.4808 37.7147 14.4726 37.6564C14.4385 37.4159 14.4077 37.1751 14.3768 36.9341C14.2448 35.9272 14.0547 35.0567 13.2364 34.3797C12.7718 34.0639 12.2704 33.818 11.7704 33.5636C8.25928 31.7725 5.96577 29.9307 4.72655 26.125C2.84739 20.321 2.84739 20.321 3.33611 19.1573C3.57595 18.7666 3.9445 18.4971 4.33446 18.2671C4.9254 18.1374 5.4854 18.1762 6.01561 18.4766C6.75716 19.0374 6.96899 20.0337 7.25634 20.8721C7.36278 21.1783 7.47014 21.4842 7.57827 21.7898C7.61801 21.9022 7.61801 21.9022 7.65856 22.0168C7.84473 22.5353 8.04906 23.0431 8.27181 23.5469C8.29956 23.6099 8.32732 23.673 8.35591 23.738C8.55635 24.1809 8.78886 24.5533 9.10936 24.9219C9.33593 24.159 9.50556 23.3963 9.6411 22.6123C9.65542 22.5296 9.66974 22.447 9.68449 22.3618C9.724 22.1269 9.7613 21.8918 9.79686 21.6562C9.8061 21.5952 9.81534 21.5341 9.82485 21.4712C9.90802 20.8361 9.90374 20.1956 9.90429 19.5561C9.90434 19.495 9.9044 19.4338 9.90446 19.3708C9.90303 18.4202 9.85359 17.5114 9.62499 16.5859C9.61207 16.5289 9.59915 16.4719 9.58584 16.4132C9.22191 14.8366 8.43957 13.3724 7.55376 12.0299C7.28246 11.6034 7.24863 11.2354 7.30468 10.7422C7.4651 10.2087 7.79073 9.84389 8.24999 9.53905C8.74322 9.31298 9.1719 9.3088 9.68944 9.46352C10.0993 9.623 10.3896 9.87776 10.7099 10.1728C10.8185 10.2702 10.927 10.3676 11.0356 10.4649C11.1127 10.5348 11.1127 10.5348 11.1914 10.6061C11.4093 10.8007 11.6337 10.9864 11.8594 11.1719C11.8658 11.096 11.8722 11.0201 11.8788 10.9419C11.9779 10.0374 12.1996 9.3171 12.8799 8.68505C13.7216 8.01261 14.5901 7.89751 15.6406 7.99218C16.3474 8.14715 16.9997 8.56763 17.4302 9.14931C17.8187 9.77485 17.9889 10.3001 17.9717 11.0322C17.9709 11.0955 17.9701 11.1587 17.9693 11.2239C17.9673 11.3784 17.9642 11.533 17.9609 11.6875C18.2456 11.5658 18.5303 11.4441 18.8149 11.3223C18.9343 11.2712 18.9343 11.2712 19.0561 11.2192C19.1351 11.1854 19.214 11.1516 19.2953 11.1168C19.3743 11.0831 19.4533 11.0495 19.5347 11.0148C19.6838 10.9498 19.8319 10.8826 19.9789 10.813C20.7036 10.4706 21.3294 10.4774 22.0859 10.7422C22.2005 10.6849 22.3151 10.6276 22.4297 10.5703C23.3058 10.4207 24.002 10.7577 24.7661 11.1289C24.8807 11.1829 24.9953 11.2367 25.11 11.2904C25.3176 11.3874 25.5244 11.4857 25.7309 11.5849C25.9253 11.6935 25.9253 11.6935 26.0391 11.6875C26.0341 11.6002 26.0291 11.5129 26.0239 11.423C25.9866 10.4831 26.11 9.71942 26.6997 8.94823C27.132 8.49248 27.7219 8.11166 28.3594 8.07811C28.369 8.01741 28.3786 7.9567 28.3886 7.89415C28.5686 7.11458 29.0373 6.35737 29.6484 5.84374C30.8796 5.09362 32.137 4.97591 33.3599 5.81688ZM30.1191 7.14656C29.8808 7.44342 29.7344 7.69541 29.7344 8.07811C29.9352 8.10914 29.9352 8.10914 30.1641 8.07811C30.3438 7.91874 30.3438 7.91874 30.4971 7.70751C30.7799 7.37502 31.0077 7.11574 31.4531 7.04686C31.8841 7.02812 32.3111 7.03189 32.7422 7.04686C32.3656 6.65964 32.1429 6.46984 31.5981 6.41845C30.9614 6.4724 30.554 6.67689 30.1191 7.14656ZM13.5459 9.83446C13.1531 10.3404 13.072 10.7956 13.1484 11.4297C13.3305 12.0478 13.7516 12.4293 14.2925 12.751C14.8661 12.8844 15.3964 12.8718 15.9139 12.5754C16.3453 12.2597 16.6518 11.874 16.7578 11.3437C16.8248 10.7825 16.7475 10.346 16.4141 9.8828C15.9892 9.42874 15.5955 9.19362 14.9692 9.16307C14.3635 9.17838 13.9504 9.38698 13.5459 9.83446ZM27.6396 9.83446C27.2469 10.3404 27.1657 10.7956 27.2422 11.4297C27.4242 12.0478 27.8453 12.4293 28.3862 12.751C28.96 12.8844 29.4897 12.8714 30.0076 12.5757C30.3948 12.2916 30.7413 11.9039 30.8516 11.4297C30.917 10.8409 30.8636 10.3677 30.5078 9.8828C30.0823 9.42904 29.6897 9.19365 29.063 9.16307C28.4572 9.17838 28.0441 9.38698 27.6396 9.83446ZM8.79784 10.6724C8.58737 10.8061 8.58737 10.8061 8.52694 10.9876C8.50213 11.2265 8.56173 11.322 8.68505 11.5264C8.72537 11.5947 8.76569 11.6631 8.80724 11.7335C8.89029 11.8685 8.97353 12.0035 9.057 12.1383C10.263 14.1031 11.0806 16.3146 11.1064 18.642C11.1072 18.7054 11.1081 18.7687 11.1089 18.8339C11.1321 21.0443 10.8606 23.1005 10.3465 25.2538C10.3021 25.4627 10.3021 25.4627 10.3125 25.7812C10.5323 25.8559 10.7525 25.9291 10.9731 26.0015C11.0351 26.0227 11.0971 26.0439 11.161 26.0657C11.5072 26.178 11.7621 26.2564 12.1172 26.125C12.2695 26.0241 12.2695 26.0241 12.4126 25.9048C12.7544 25.6756 13.0244 25.673 13.4307 25.6822C13.5389 25.6841 13.647 25.686 13.7584 25.6879C13.8407 25.6904 13.923 25.6928 14.0078 25.6953C14.0316 25.5731 14.0316 25.5731 14.0559 25.4484C14.9763 20.7738 16.6373 15.6993 20.7062 12.7959C20.8535 12.6974 21.002 12.6007 21.1524 12.5069C21.3227 12.3866 21.3227 12.3866 21.3894 12.2028C21.417 12.0035 21.417 12.0035 21.2266 11.7734C20.7662 11.8242 20.398 11.981 19.9825 12.1722C19.9132 12.2035 19.8439 12.2348 19.7724 12.267C19.5515 12.3669 19.3309 12.4676 19.1103 12.5683C15.1709 14.3576 15.1709 14.3576 13.3096 13.6852C12.5023 13.3353 11.8792 12.8071 11.2227 12.2353C10.8689 11.9299 10.5036 11.6381 10.1406 11.3437C10.0612 11.2785 9.98176 11.2132 9.89992 11.146C9.82337 11.0836 9.74683 11.0213 9.66796 10.957C9.59972 10.9012 9.53148 10.8454 9.46117 10.7878C9.20358 10.5994 9.09648 10.5373 8.79784 10.6724ZM34.6533 10.7096C34.357 10.9192 34.0839 11.1534 33.811 11.3921C33.7047 11.4838 33.5984 11.5756 33.4921 11.6673C33.3354 11.8032 33.1788 11.9392 33.0227 12.0757C31.8401 13.1091 30.7093 13.9281 29.0898 13.9487C29.0274 13.9512 28.9649 13.9537 28.9005 13.9563C27.6634 13.9701 26.5015 13.3028 25.4053 12.7993C25.1738 12.6938 24.9423 12.5885 24.7108 12.4832C24.5679 12.4181 24.4251 12.3529 24.2823 12.2875C24.0947 12.2016 23.9067 12.1164 23.7187 12.0312C23.6617 12.0048 23.6047 11.9784 23.546 11.9512C23.2197 11.8038 23.0348 11.7436 22.6875 11.8594C22.6054 12.0076 22.6054 12.0076 22.6016 12.2031C22.8282 12.4826 23.0953 12.6838 23.3804 12.9014C25.2364 14.3258 26.605 16.1511 27.6719 18.2187C27.7009 18.2729 27.73 18.3271 27.7599 18.3829C28.7954 20.3202 29.366 22.5332 29.773 24.6782C29.8391 25.0189 29.915 25.3569 29.9922 25.6953C30.1105 25.6878 30.1105 25.6878 30.2312 25.6802C31.2635 25.6422 31.2635 25.6422 31.7327 26.0226C31.9365 26.1616 32.0644 26.1943 32.3125 26.2109C32.5572 26.1599 32.7905 26.0823 33.0268 26.0015C33.0905 25.9806 33.1541 25.9597 33.2197 25.9382C33.3759 25.8868 33.5318 25.8341 33.6875 25.7812C33.6093 25.0169 33.438 24.2705 33.2801 23.5193C33.0078 22.1921 32.8807 20.9179 32.8872 19.5669C32.8875 19.4622 32.8875 19.4622 32.8878 19.3554C32.8921 18.328 32.9183 17.3291 33.1719 16.3281C33.1885 16.2607 33.2051 16.1932 33.2222 16.1238C33.618 14.5667 34.2569 13.1363 35.1427 11.7979C35.2921 11.5604 35.4095 11.3531 35.4922 11.0859C35.4266 10.8309 35.346 10.7593 35.1269 10.6133C34.88 10.5418 34.88 10.5418 34.6533 10.7096ZM21.2803 13.8467C21.2277 13.893 21.1751 13.9393 21.1209 13.9871C17.7745 16.9682 16.0307 20.969 15.2539 25.3408C15.2391 25.4235 15.2243 25.5063 15.209 25.5915C15.1189 26.0777 15.1189 26.0777 15.2109 26.5547C15.385 26.7119 15.5551 26.8507 15.7427 26.9897C15.8533 27.0742 15.964 27.1587 16.0747 27.2432C16.1313 27.286 16.188 27.3288 16.2464 27.3729C16.5015 27.5663 16.7533 27.7639 17.0049 27.9619C17.0536 28.0002 17.1023 28.0384 17.1525 28.0778C17.7226 28.5264 18.2864 28.9826 18.8467 29.4434C18.9673 29.5421 19.0889 29.6396 19.2107 29.7367C20.7997 31.0429 21.4059 33.414 21.9141 35.3203C21.9708 35.3203 22.0275 35.3203 22.0859 35.3203C22.0979 35.2746 22.11 35.229 22.1223 35.1819C22.8146 32.5833 23.6841 30.477 25.8831 28.8213C26.1384 28.6278 26.3893 28.4289 26.6406 28.2305C26.7398 28.1524 26.8391 28.0744 26.9384 27.9965C26.9879 27.9576 27.0374 27.9187 27.0884 27.8786C27.2489 27.7525 27.4095 27.6264 27.5701 27.5003C27.624 27.458 27.6779 27.4157 27.7335 27.3721C27.8359 27.2916 27.9384 27.2112 28.041 27.1307C28.1759 27.0248 28.3106 26.9186 28.4453 26.8125C28.5283 26.758 28.6112 26.7035 28.6967 26.6473C28.9007 26.4815 28.9007 26.4815 28.8945 26.2227C28.8689 26.0759 28.8689 26.0759 28.8428 25.9263C28.8335 25.8711 28.8242 25.816 28.8146 25.7591C28.7806 25.5653 28.7421 25.3726 28.7031 25.1797C28.6814 25.0679 28.6814 25.0679 28.6592 24.9538C28.0834 22.0209 27.1277 19.1072 25.3516 16.6719C25.3161 16.6226 25.2806 16.5732 25.244 16.5224C24.4322 15.4056 23.3741 14.1145 22.1719 13.4062C21.741 13.4062 21.5849 13.5743 21.2803 13.8467ZM4.61913 19.5132C4.41405 19.7402 4.40907 19.891 4.3828 20.1953C4.41947 20.4264 4.46284 20.6419 4.5201 20.8677C4.53602 20.9333 4.55194 20.9988 4.56835 21.0664C4.62158 21.283 4.67659 21.4992 4.73192 21.7153C4.75072 21.7898 4.76951 21.8644 4.78887 21.9411C5.10362 23.1834 5.46917 24.4069 5.86522 25.6255C5.89027 25.703 5.91531 25.7806 5.94111 25.8605C6.45151 27.4932 6.45151 27.4932 7.30468 28.9609C7.34179 29.0113 7.3789 29.0617 7.41713 29.1137C8.71829 30.7523 11.1282 31.7732 12.915 32.7652C13.0807 32.8573 13.2462 32.9501 13.4116 33.043C13.4995 33.0917 13.5873 33.1404 13.6778 33.1907C14.1079 33.4604 14.4583 33.7594 14.749 34.1763C14.7962 34.2422 14.8434 34.3081 14.892 34.376C15.4941 35.4276 15.5173 36.2989 15.7266 37.5547C17.5416 37.5547 19.3566 37.5547 21.2266 37.5547C21.0674 36.759 20.9093 35.9851 20.6894 35.2075C20.6635 35.1156 20.6375 35.0237 20.6107 34.929C19.8458 32.2835 18.6122 30.6554 16.4402 29.0059C16.1978 28.8216 15.9582 28.6338 15.7195 28.4447C15.5704 28.3268 15.4206 28.2097 15.2707 28.0928C15.0426 27.9149 14.8173 27.7338 14.5926 27.5517C14.4711 27.4556 14.3496 27.3596 14.228 27.2637C14.1721 27.2174 14.1163 27.1712 14.0587 27.1236C13.7619 26.8927 13.6357 26.8127 13.2475 26.8111C12.9537 26.8748 12.9537 26.8748 12.8047 27.1562C12.7976 27.4533 12.8113 27.6646 13.0093 27.8973C13.1718 28.0407 13.3396 28.1711 13.5137 28.3003C13.5758 28.3485 13.638 28.3967 13.7021 28.4464C13.8888 28.5908 14.0771 28.733 14.2656 28.875C14.3649 28.9515 14.4641 29.0281 14.563 29.1049C14.7879 29.2792 15.0138 29.4521 15.2398 29.6248C15.5052 29.8282 15.7692 30.0335 16.0327 30.2392C16.108 30.2976 16.108 30.2976 16.1848 30.3571C16.7177 30.7742 16.7177 30.7742 16.9297 31.0234C16.9619 31.335 16.9619 31.335 16.9297 31.625C16.7578 31.7969 16.7578 31.7969 16.4678 31.8613C15.921 31.8475 15.5596 31.4039 15.1764 31.058C14.9584 30.8668 14.7277 30.6935 14.4966 30.5185C13.9144 30.0752 13.3409 29.6216 12.7727 29.1605C12.6513 29.0619 12.5295 28.9639 12.4076 28.8659C11.8974 28.4419 11.7032 28.0743 11.6016 27.4141C11.5514 27.3981 11.5012 27.3821 11.4495 27.3656C9.71948 26.8115 8.28551 26.3254 7.40836 24.6227C6.88263 23.5384 6.47646 22.4164 6.06914 21.2836C5.9806 21.0381 5.89121 20.7929 5.80178 20.5478C5.77519 20.4729 5.7486 20.3979 5.72121 20.3208C5.69592 20.2515 5.67062 20.1823 5.64457 20.1109C5.62279 20.0502 5.60101 19.9896 5.57857 19.9271C5.44891 19.6607 5.31078 19.5324 5.0327 19.4326C4.81012 19.4044 4.81012 19.4044 4.61913 19.5132ZM38.5859 19.5937C38.482 19.8044 38.4006 20.0019 38.3227 20.2222C38.298 20.2887 38.2732 20.3552 38.2477 20.4237C38.1912 20.5756 38.1352 20.7277 38.0796 20.8799C36.2984 25.7545 36.2984 25.7545 34.6328 26.6406C33.915 26.9641 33.1569 27.2062 32.3984 27.4141C32.3842 27.5257 32.3701 27.6374 32.3555 27.7524C32.1469 28.6606 31.2801 29.1834 30.5721 29.7078C30.3199 29.8967 30.0729 30.0922 29.8257 30.2876C29.7261 30.366 29.6265 30.4445 29.5269 30.5229C29.4769 30.5623 29.4269 30.6017 29.3754 30.6423C29.2099 30.7726 29.0441 30.9026 28.8783 31.0325C28.8229 31.0759 28.7676 31.1194 28.7105 31.1641C28.6036 31.2479 28.4967 31.3316 28.3898 31.4153C28.1519 31.597 28.1519 31.597 27.9297 31.7969C27.4367 31.8203 27.4367 31.8203 27.2422 31.7969C27.0703 31.625 27.0703 31.625 27.0327 31.3403C27.09 30.8572 27.3981 30.6773 27.7628 30.3782C27.8594 30.303 27.9562 30.228 28.0532 30.1533C28.1605 30.0698 28.2678 29.9864 28.3751 29.9029C28.4296 29.8606 28.4841 29.8184 28.5403 29.7749C28.6962 29.6538 28.8517 29.5321 29.0069 29.4101C29.0562 29.3714 29.1055 29.3326 29.1563 29.2927C29.2551 29.2148 29.3538 29.1367 29.4524 29.0585C29.7134 28.8518 29.9769 28.6504 30.2463 28.4547C30.3017 28.4135 30.3572 28.3724 30.4143 28.33C30.5203 28.2515 30.6272 28.1743 30.7352 28.0987C31.0085 27.8938 31.1044 27.7764 31.1936 27.4423C31.2201 27.1554 31.2201 27.1554 31.0664 26.9414C30.8543 26.7886 30.8543 26.7886 30.5783 26.8155C30.1534 26.9228 29.9194 27.1243 29.5947 27.4087C29.4731 27.5114 29.3513 27.614 29.2295 27.7165C29.1695 27.7674 29.1096 27.8183 29.0479 27.8708C28.806 28.0734 28.557 28.2655 28.3057 28.456C26.1237 30.0007 26.1237 30.0007 24.4922 32.0547C24.4517 32.1309 24.4113 32.2071 24.3696 32.2856C23.6361 33.7724 22.7734 35.8855 22.7734 37.5547C24.5884 37.5547 26.4034 37.5547 28.2734 37.5547C28.3869 36.8741 28.5003 36.1934 28.6172 35.4922C29.1154 33.9976 30.0274 33.319 31.3833 32.6079C34.8319 30.7601 36.9654 29.2665 38.1831 25.4805C38.2066 25.4078 38.2301 25.3352 38.2543 25.2604C38.6296 24.0956 38.9642 22.9222 39.2681 21.7368C39.2874 21.6631 39.3068 21.5894 39.3267 21.5135C39.3813 21.3045 39.4336 21.095 39.4852 20.8852C39.5014 20.824 39.5175 20.7628 39.5341 20.6998C39.6329 20.2816 39.6085 19.9909 39.4453 19.5937C39.1142 19.373 38.9065 19.3607 38.5859 19.5937Z" fill="#1D304D"/>
<path d="M22 17.8322C22.0906 17.8308 22.1812 17.8295 22.2746 17.8281C22.8292 17.8309 23.1946 17.8674 23.6328 18.2189C24.0246 18.715 24.02 19.1444 23.9981 19.7604C23.9965 19.8437 23.995 19.9271 23.9934 20.013C23.9893 20.2171 23.9837 20.4211 23.9766 20.6251C24.025 20.6233 24.0735 20.6215 24.1234 20.6197C24.3466 20.6124 24.5697 20.608 24.793 20.6036C24.8692 20.6008 24.9454 20.5979 25.0239 20.5949C25.5466 20.5872 25.9518 20.6586 26.3828 20.9689C26.8156 21.5126 26.8325 21.952 26.8394 22.6178C26.8431 22.7365 26.8431 22.7365 26.8469 22.8577C26.8518 23.3854 26.7833 23.7997 26.4688 24.2345C26.0844 24.5405 25.7821 24.6757 25.2942 24.6726C25.2175 24.6723 25.1407 24.672 25.0617 24.6717C24.942 24.6707 24.942 24.6707 24.8198 24.6696C24.739 24.6692 24.6582 24.6688 24.5749 24.6684C24.3755 24.6674 24.176 24.666 23.9766 24.6642C23.9793 24.7415 23.9793 24.7415 23.982 24.8203C23.9892 25.0565 23.9937 25.2927 23.9981 25.5289C24.0009 25.61 24.0038 25.691 24.0068 25.7745C24.0143 26.3141 23.9715 26.6416 23.6328 27.0704C23.1224 27.4798 22.6368 27.4665 22 27.4572C21.8641 27.4591 21.8641 27.4591 21.7254 27.4612C21.1708 27.4584 20.8055 27.422 20.3672 27.0704C19.9754 26.5744 19.9801 26.145 20.002 25.5289C20.0035 25.4456 20.0051 25.3622 20.0067 25.2763C20.0107 25.0722 20.0163 24.8682 20.0234 24.6642C19.9507 24.6669 19.9507 24.6669 19.8766 24.6696C19.6534 24.6769 19.4303 24.6813 19.207 24.6857C19.1308 24.6885 19.0546 24.6914 18.9761 24.6944C18.4534 24.7021 18.0482 24.6307 17.6172 24.3204C17.1844 23.7767 17.1675 23.3373 17.1607 22.6715C17.1582 22.5924 17.1557 22.5132 17.1531 22.4317C17.1482 21.9039 17.2167 21.4896 17.5313 21.0548C17.9157 20.7489 18.218 20.6136 18.7058 20.6167C18.7826 20.617 18.8593 20.6173 18.9383 20.6176C19.058 20.6186 19.058 20.6186 19.1802 20.6198C19.261 20.6201 19.3418 20.6205 19.4251 20.6209C19.6245 20.6219 19.824 20.6234 20.0234 20.6251C20.0216 20.5736 20.0198 20.5221 20.018 20.469C20.0108 20.2328 20.0064 19.9966 20.002 19.7604C19.9991 19.6793 19.9962 19.5983 19.9932 19.5148C19.9857 18.9752 20.0285 18.6477 20.3672 18.2189C20.8776 17.8095 21.3632 17.8228 22 17.8322ZM21.2266 19.1642C21.2161 19.3329 21.2111 19.502 21.2084 19.6711C21.2048 19.826 21.2048 19.826 21.2011 19.9839C21.1966 20.203 21.1928 20.4221 21.1896 20.6412C21.187 20.7447 21.1843 20.8482 21.1816 20.9548C21.1799 21.0501 21.1782 21.1454 21.1764 21.2436C21.1406 21.4845 21.1406 21.4845 21.0421 21.6441C20.8114 21.7863 20.6258 21.777 20.3561 21.7802C20.253 21.7825 20.15 21.7848 20.0438 21.7871C19.936 21.7883 19.8283 21.7895 19.7173 21.7906C19.5041 21.7936 19.2909 21.7973 19.0778 21.8017C18.9831 21.8028 18.8885 21.8038 18.7909 21.8049C18.5493 21.8053 18.5493 21.8053 18.3906 22.0001C18.3736 22.2189 18.3667 22.4261 18.3691 22.6447C18.3685 22.7039 18.3678 22.7632 18.3671 22.8242C18.3583 23.1819 18.3583 23.1819 18.5625 23.4611C18.8002 23.4888 18.8002 23.4888 19.0778 23.4876C19.2323 23.4908 19.2323 23.4908 19.3898 23.4941C19.6078 23.4971 19.8258 23.4998 20.0438 23.5022C20.1984 23.5056 20.1984 23.5056 20.3561 23.5091C20.4509 23.5102 20.5456 23.5114 20.6433 23.5126C20.8828 23.547 20.8828 23.547 21.0421 23.6452C21.1849 23.8765 21.1768 24.064 21.1816 24.3345C21.1842 24.438 21.1869 24.5415 21.1896 24.6481C21.1912 24.7562 21.1927 24.8643 21.1943 24.9757C21.1987 25.1899 21.2034 25.4041 21.2084 25.6182C21.21 25.7133 21.2115 25.8085 21.213 25.9065C21.202 26.1195 21.202 26.1195 21.3125 26.2111C21.5426 26.2196 21.77 26.223 22 26.2218C22.0967 26.2223 22.0967 26.2223 22.1954 26.2228C22.5101 26.252 22.5101 26.252 22.7734 26.1251C22.7839 25.9564 22.7889 25.7873 22.7916 25.6182C22.7952 25.4634 22.7952 25.4634 22.799 25.3054C22.8034 25.0863 22.8072 24.8672 22.8104 24.6481C22.8144 24.4929 22.8144 24.4929 22.8184 24.3345C22.8201 24.2392 22.8218 24.1439 22.8236 24.0457C22.8594 23.8048 22.8594 23.8048 22.9579 23.6452C23.1886 23.503 23.3743 23.5124 23.6439 23.5091C23.747 23.5068 23.8501 23.5045 23.9563 23.5022C24.064 23.501 24.1717 23.4999 24.2827 23.4987C24.4959 23.4957 24.7091 23.4921 24.9222 23.4876C25.0169 23.4865 25.1116 23.4855 25.2091 23.4844C25.4508 23.484 25.4508 23.484 25.6094 23.2892C25.6369 23.0096 25.6369 23.0096 25.6309 22.693C25.6313 22.5859 25.6318 22.4787 25.6322 22.3684C25.6314 22.0739 25.6314 22.0739 25.4375 21.8282C25.2002 21.7886 25.2002 21.7886 24.9222 21.7933C24.8192 21.7915 24.7163 21.7896 24.6102 21.7876C24.5021 21.7869 24.3941 21.7861 24.2827 21.7853C24.0698 21.7837 23.8568 21.7811 23.6439 21.7772C23.5491 21.7766 23.4544 21.776 23.3567 21.7754C23.1172 21.7423 23.1172 21.7423 22.9579 21.6443C22.8152 21.4129 22.8233 21.2254 22.8184 20.9548C22.8158 20.8513 22.8131 20.7478 22.8104 20.6412C22.8088 20.5331 22.8073 20.425 22.8057 20.3136C22.8013 20.0994 22.7966 19.8852 22.7916 19.6711C22.7901 19.576 22.7886 19.4808 22.787 19.3828C22.798 19.1698 22.798 19.1698 22.6875 19.0782C22.4574 19.0697 22.2301 19.0663 22 19.0675C21.9355 19.0672 21.8711 19.0668 21.8046 19.0665C21.4899 19.0373 21.4899 19.0373 21.2266 19.1642Z" fill="#1D304D"/>
</svg>
