<svg width="44" height="44" viewBox="0 0 44 44" fill="none" xmlns="http://www.w3.org/2000/svg">
<path d="M26.4832 15.0921C27.3027 15.5027 27.6419 16.7347 27.9941 17.5262C28.0822 17.7231 28.1703 17.9199 28.2587 18.1166C28.3133 18.2383 28.3678 18.3601 28.4219 18.4821C28.532 18.7568 28.532 18.7568 28.7031 18.9925C28.7324 18.9375 28.7616 18.8824 28.7918 18.8257C29.3109 17.8993 29.9196 17.4205 30.9375 17.1019C31.8045 16.9003 32.7139 17.0578 33.4888 17.4863C34.263 17.9976 34.6863 18.7232 34.9766 19.5941C35.0536 20.6959 34.9509 21.5855 34.2263 22.4679C34.1098 22.601 34.1098 22.601 34.0313 22.7738C34.1188 22.7845 34.2063 22.7953 34.2965 22.8064C34.6241 22.8471 34.9513 22.8901 35.2786 22.9337C35.4197 22.9522 35.5609 22.9702 35.7021 22.9875C37.1754 23.1686 37.1754 23.1686 37.7266 23.6331C38.0355 24.0511 38.128 24.4512 38.1025 24.9689C38.0398 25.3803 37.8996 25.6939 37.6039 25.9906C37.0186 26.4189 36.3455 26.3556 35.6533 26.3509C35.4671 26.3506 35.2809 26.3509 35.0946 26.3527C34.9261 26.3542 34.7576 26.3536 34.5891 26.3528C34.2587 26.3862 34.0541 26.4657 33.7734 26.6409C33.4236 27.1959 33.4131 27.7402 33.4136 28.3758C33.4135 28.4999 33.4135 28.4999 33.4134 28.6265C33.4206 29.703 33.4821 30.7781 33.5404 31.8528C33.5794 32.5817 33.6123 33.3107 33.623 34.0406C33.6249 34.1054 33.6267 34.1702 33.6286 34.2369C33.6314 34.6759 33.6314 34.6759 33.4858 34.8867C33.3007 35.0042 33.1297 35.0337 32.9141 35.0628C32.9371 35.129 32.9601 35.1951 32.9839 35.2632C33.1073 35.625 33.2263 35.9881 33.3438 36.3519C33.3727 36.4412 33.4017 36.5306 33.4316 36.6227C33.5277 36.9221 33.6212 37.2223 33.7144 37.5228C33.7454 37.6189 33.7765 37.7151 33.8085 37.8141C34.0329 38.5497 34.2286 39.3728 33.8862 40.0955C33.4826 40.521 33.1377 40.7914 32.5435 40.8475C32.0368 40.8046 31.6822 40.693 31.3027 40.348C30.8421 39.7239 30.6802 38.8421 30.4689 38.1072C30.4427 38.017 30.4164 37.9268 30.3894 37.8338C30.3068 37.5494 30.2247 37.2649 30.1426 36.9803C30.0862 36.7859 30.0298 36.5915 29.9734 36.397C29.8361 35.9237 29.6992 35.4504 29.5625 34.9769C29.4919 34.9622 29.4212 34.9474 29.3484 34.9323C29.0849 34.8772 28.8215 34.8217 28.558 34.766C28.4443 34.7421 28.3305 34.7182 28.2167 34.6945C28.0526 34.6603 27.8886 34.6256 27.7246 34.5908C27.626 34.5701 27.5275 34.5494 27.4259 34.5281C27.1803 34.4672 26.9583 34.39 26.7266 34.2894C26.5329 34.9229 26.8224 35.3751 27.1025 35.9437C27.191 36.1285 27.2794 36.3134 27.3677 36.4982C27.4074 36.5795 27.4471 36.6607 27.488 36.7444C27.6895 37.1747 27.7484 37.5434 27.6162 38.0089C27.4291 38.4886 27.1927 38.787 26.7266 39.0159C26.2885 39.1486 25.9063 39.1429 25.4697 38.9998C24.9472 38.7192 24.6804 38.3394 24.4331 37.8128C24.391 37.725 24.391 37.725 24.348 37.6354C24.2865 37.5069 24.2252 37.3782 24.1641 37.2495C24.0544 37.0227 23.9397 36.799 23.8242 36.5751C23.7442 36.4166 23.6643 36.258 23.5845 36.0994C23.5455 36.0253 23.5064 35.9511 23.4662 35.8747C23.0599 35.0521 23.2729 34.432 23.5522 33.5965C23.5765 33.5221 23.6007 33.4477 23.6256 33.3711C23.6846 33.19 23.7443 33.0091 23.8047 32.8284C23.737 32.8022 23.6693 32.7759 23.5996 32.7489C23.2533 32.6066 23.2533 32.6066 23.1172 32.3988C23.0412 31.8301 23.254 31.3705 23.4648 30.8488C23.5325 30.6811 23.5989 30.513 23.665 30.3448C23.9281 29.6773 24.1971 29.0123 24.4658 28.3471C24.6153 27.9766 24.7639 27.6057 24.9125 27.2349C25.0225 26.9614 25.1338 26.6885 25.2453 26.4156C25.3142 26.244 25.3831 26.0724 25.4519 25.9007C25.4839 25.8234 25.5159 25.7461 25.5489 25.6664C26.0717 24.3498 25.7446 23.1475 25.3907 21.8257C25.3388 21.6316 25.2877 21.4374 25.2368 21.2431C25.0923 20.6916 24.9465 20.1405 24.7999 19.5896C24.7096 19.2503 24.6204 18.9107 24.5318 18.571C24.4982 18.4428 24.4641 18.3147 24.4297 18.1867C24.0029 16.6018 24.0029 16.6018 24.2397 15.8773C24.787 15.1006 25.5497 14.828 26.4832 15.0921ZM25.4516 16.3313C25.3185 16.5561 25.3626 16.7059 25.4199 16.9532C25.4362 17.0158 25.4524 17.0784 25.4691 17.1428C25.4852 17.2099 25.5014 17.277 25.518 17.3461C25.5752 17.5803 25.635 17.8138 25.6953 18.0472C25.7178 18.135 25.7402 18.2229 25.7633 18.3134C25.9683 19.1141 26.1789 19.9133 26.3903 20.7123C26.4708 21.0169 26.5507 21.3216 26.6306 21.6264C26.6549 21.7177 26.6793 21.809 26.7043 21.9031C27.1894 23.7583 27.1008 25.1185 26.3889 26.8988C26.3483 27.0017 26.3077 27.1046 26.2659 27.2106C26.159 27.4817 26.0513 27.7525 25.9434 28.0232C25.8563 28.2421 25.7698 28.4612 25.6833 28.6804C25.5028 29.1377 25.3219 29.5948 25.1401 30.0516C25.1045 30.1413 25.0689 30.2311 25.0322 30.3235C24.956 30.5104 24.8769 30.6961 24.7955 30.8808C24.7553 30.9723 24.7152 31.0638 24.6738 31.158C24.6369 31.2397 24.6001 31.3213 24.5621 31.4054C24.4863 31.6438 24.4734 31.7435 24.5781 31.9691C24.7923 32.112 24.9942 32.2296 25.2227 32.345C25.2882 32.3787 25.3537 32.4124 25.4212 32.4472C27.6322 33.5547 29.9544 33.8136 32.3984 33.7738C32.3932 33.6762 32.388 33.5787 32.3827 33.4782C32.2095 30.1941 32.2095 30.1941 32.1961 28.7131C32.1944 28.5478 32.191 28.3825 32.1876 28.2172C32.1856 27.2731 32.3326 26.3495 33.0175 25.6543C33.531 25.2201 34.0683 25.1716 34.7171 25.1589C34.8324 25.156 34.9477 25.1532 35.063 25.1503C35.2435 25.1462 35.424 25.1424 35.6045 25.139C35.7796 25.1356 35.9546 25.1312 36.1297 25.1266C36.234 25.1245 36.3384 25.1223 36.446 25.1201C36.7061 25.1194 36.7061 25.1194 36.8672 24.9222C36.8397 24.6985 36.8397 24.6985 36.7813 24.4925C36.2959 24.3023 35.8062 24.2467 35.2928 24.1813C35.0994 24.1556 34.9061 24.13 34.7127 24.1043C34.4101 24.0647 34.1075 24.0254 33.8048 23.9861C33.5112 23.9478 33.2177 23.9088 32.9241 23.8698C32.8352 23.8585 32.7463 23.8472 32.6547 23.8356C31.1588 23.6361 29.7762 23.2302 28.8171 21.9856C28.4625 21.4957 28.1823 20.9965 27.9297 20.4481C27.872 20.3253 27.872 20.3253 27.8131 20.2001C27.3832 19.2813 26.9662 18.3564 26.5505 17.4312C26.5235 17.3714 26.4966 17.3115 26.4688 17.2499C26.4179 17.1372 26.3673 17.0243 26.3169 16.9114C26.2091 16.6728 26.0989 16.4612 25.9531 16.2425C25.6291 16.2144 25.6291 16.2144 25.4516 16.3313ZM30.0338 19.1419C29.7126 19.6313 29.6091 20.0993 29.686 20.679C29.8336 21.3124 30.153 21.73 30.6958 22.0809C31.1956 22.3717 31.6573 22.4001 32.2266 22.3441C32.82 22.1606 33.2706 21.747 33.6016 21.2269C33.8391 20.6894 33.8584 20.1337 33.6714 19.578C33.4121 18.9785 33.056 18.6544 32.4686 18.3839C31.4887 18.0645 30.6628 18.3614 30.0338 19.1419ZM24.9219 33.6019C24.8471 33.793 24.774 33.9845 24.7017 34.1766C24.6804 34.2304 24.6592 34.2842 24.6374 34.3396C24.3851 35.0183 24.6773 35.491 24.9618 36.1152C24.9997 36.1973 24.9997 36.1973 25.0383 36.281C25.115 36.4481 25.1898 36.616 25.2646 36.7839C25.3136 36.8908 25.3627 36.9977 25.412 37.1045C25.456 37.2012 25.5 37.298 25.5453 37.3976C25.7097 37.6642 25.8462 37.7639 26.125 37.8988C26.2101 37.842 26.2952 37.7853 26.3828 37.7269C26.345 37.0256 25.9873 36.4435 25.6758 35.827C25.4151 35.2868 25.2911 34.963 25.4375 34.3753C25.4465 34.3097 25.4554 34.2442 25.4647 34.1766C25.4843 34.0423 25.5039 33.908 25.5234 33.7738C25.3249 33.717 25.1264 33.6603 24.9219 33.6019ZM30.9375 34.9769C30.9957 35.4862 31.1197 35.9631 31.2611 36.4553C31.2848 36.5377 31.3084 36.6202 31.3328 36.7052C31.3828 36.8786 31.4331 37.0519 31.4836 37.2252C31.5605 37.4905 31.6352 37.7564 31.7099 38.0223C31.7589 38.1911 31.808 38.3598 31.8573 38.5285C31.8793 38.608 31.9012 38.6875 31.9238 38.7694C32.053 39.2158 32.053 39.2158 32.3732 39.5406C32.4382 39.5659 32.5033 39.5913 32.5703 39.6175C32.7188 39.5341 32.7188 39.5341 32.8281 39.3597C32.7918 38.8384 32.6673 38.361 32.5173 37.8622C32.4951 37.7875 32.473 37.7127 32.4501 37.6358C32.4035 37.479 32.3565 37.3224 32.3093 37.1658C32.2372 36.9261 32.1665 36.6859 32.096 36.4457C32.0503 36.293 32.0045 36.1403 31.9587 35.9877C31.9377 35.916 31.9168 35.8443 31.8952 35.7704C31.8748 35.7038 31.8545 35.6372 31.8335 35.5686C31.816 35.5102 31.7985 35.4518 31.7805 35.3916C31.698 35.2054 31.6129 35.1028 31.4531 34.9769C31.1845 34.9554 31.1845 34.9554 30.9375 34.9769Z" fill="#1D304D"/>
<path d="M19.7226 16.4729C20.1451 16.8637 20.3211 17.1563 20.4528 17.7123C20.4538 18.4635 19.9888 19.2383 19.6937 19.9201C19.6076 20.1198 19.5225 20.3199 19.4376 20.5202C19.1676 21.1544 18.8918 21.7816 18.5809 22.3969C17.5988 24.3754 16.9297 26.8257 16.9297 29.0466C16.9937 29.0721 17.0578 29.0976 17.1239 29.1239C17.4178 29.2417 17.7108 29.3617 18.0039 29.4817C18.1047 29.5217 18.2055 29.5618 18.3094 29.603C19.0346 29.9025 19.655 30.2301 20.0664 30.9211C20.5606 32.2668 20.0208 33.6706 19.5982 34.9563C19.5148 35.2124 19.436 35.4694 19.3594 35.7276C19.3158 35.8729 19.2722 36.0181 19.2285 36.1633C19.2095 36.2279 19.1905 36.2925 19.1709 36.359C19.0328 36.8036 18.866 37.2116 18.4886 37.5081C18.0092 37.7399 17.6052 37.8395 17.0895 37.6635C16.7139 37.4932 16.4687 37.3063 16.2422 36.9529C16.1646 36.7203 16.1457 36.5886 16.1465 36.3502C16.1465 36.247 16.1465 36.247 16.1465 36.1418C16.1469 36.0679 16.1474 35.994 16.1478 35.9179C16.148 35.842 16.1481 35.7661 16.1482 35.6878C16.1487 35.4453 16.1498 35.2028 16.1509 34.9602C16.1513 34.7958 16.1517 34.6313 16.152 34.4669C16.153 34.0638 16.1545 33.6607 16.1562 33.2576C16.0024 33.1856 15.8484 33.114 15.6943 33.0427C15.6086 33.0028 15.5228 32.963 15.4345 32.9219C15.2249 32.8168 15.2249 32.8168 15.039 32.8279C14.9964 32.9107 14.9964 32.9107 14.9528 32.9951C14.4066 34.0535 13.8543 35.1075 13.28 36.151C12.9475 36.7573 12.6278 37.3697 12.3105 37.9841C12.132 38.3282 11.953 38.6719 11.7734 39.0154C11.7384 39.0824 11.7033 39.1495 11.6673 39.2186C11.3489 39.8221 11.0619 40.3454 10.4844 40.7341C10.0314 40.8739 9.61911 40.878 9.18455 40.6804C8.76782 40.453 8.48846 40.1605 8.33591 39.7029C8.29166 39.1766 8.36602 38.7006 8.50021 38.1937C8.51768 38.1247 8.53514 38.0557 8.55314 37.9846C8.61045 37.7591 8.66905 37.5339 8.72767 37.3087C8.76801 37.151 8.80826 36.9932 8.84844 36.8354C8.95398 36.4217 9.06061 36.0082 9.16749 35.5949C9.29726 35.0922 9.42577 34.5892 9.55444 34.0862C9.65454 33.6951 9.75483 33.304 9.85571 32.913C9.88348 32.8052 9.88348 32.8052 9.9118 32.6952C9.94624 32.5615 9.98076 32.4278 10.0154 32.2942C10.1993 31.5791 10.2534 30.9158 10.2613 30.1795C10.2632 30.052 10.2661 29.9244 10.2702 29.7968C10.3022 28.7737 10.1482 28.0178 9.48029 27.197C9.40219 27.1161 9.32409 27.0352 9.24363 26.9519C9.19997 26.9063 9.15631 26.8607 9.11132 26.8137C8.66464 26.3535 8.19149 25.9206 7.72025 25.4859C7.38326 25.174 7.05198 24.8569 6.72459 24.5349C6.67436 24.4865 6.62414 24.4381 6.57239 24.3882C6.23928 24.0579 5.98296 23.7402 5.8924 23.2653C5.8915 22.7785 5.98018 22.3961 6.27341 21.9998C6.68521 21.672 7.01867 21.5401 7.54813 21.5475C7.87126 21.5867 8.12914 21.7316 8.41111 21.887C8.50001 21.9337 8.50001 21.9337 8.59071 21.9815C8.709 22.0437 8.82704 22.1065 8.94478 22.1697C9.16926 22.2895 9.39688 22.4026 9.62498 22.5154C9.73956 22.5727 9.85414 22.63 9.96873 22.6873C9.92796 22.5933 9.88719 22.4994 9.84519 22.4026C9.54453 21.5908 9.56951 20.7763 9.88312 19.9745C10.2768 19.1236 10.8485 18.4703 11.7362 18.1353C12.7005 17.839 13.5803 17.8882 14.4892 18.3263C15.1322 18.6828 15.5813 19.118 15.9068 19.7778C15.9375 19.8399 15.9682 19.9019 15.9998 19.9658C16.0231 20.0131 16.0463 20.0604 16.0703 20.1091C16.1092 20.0212 16.1482 19.9332 16.1883 19.8426C16.3343 19.5136 16.4817 19.1853 16.6294 18.8571C16.693 18.7155 16.7561 18.5737 16.8189 18.4318C16.9097 18.2267 17.0018 18.0224 17.0942 17.818C17.1216 17.7553 17.149 17.6926 17.1772 17.6281C17.404 17.1317 17.6903 16.6526 18.1761 16.3782C18.7023 16.2547 19.2324 16.2365 19.7226 16.4729ZM18.7344 17.531C18.4257 17.9992 18.1733 18.4737 17.9455 18.9856C17.8791 19.1318 17.8128 19.278 17.7464 19.4241C17.6442 19.6509 17.5422 19.8777 17.4405 20.1046C16.5482 22.0903 15.546 23.6687 13.4922 24.5779C12.5749 24.9246 11.6145 24.9296 10.7167 24.5413C10.1528 24.2738 9.61082 23.9697 9.07075 23.6574C8.97432 23.602 8.87789 23.5467 8.77855 23.4896C8.58524 23.3781 8.39269 23.2653 8.20094 23.1511C8.11211 23.0997 8.02327 23.0484 7.93174 22.9954C7.85228 22.9485 7.77283 22.9016 7.69096 22.8532C7.47919 22.7479 7.47919 22.7479 7.27621 22.8452C7.22888 22.8782 7.18155 22.9111 7.13279 22.9451C7.25444 23.2222 7.40013 23.4042 7.61577 23.6153C7.67947 23.6782 7.74317 23.7411 7.80881 23.8058C7.9122 23.9067 7.9122 23.9067 8.01768 24.0096C8.1636 24.1537 8.30952 24.2979 8.45542 24.4421C8.68526 24.6682 8.91531 24.8941 9.14561 25.1198C9.36818 25.3381 9.58993 25.5574 9.81162 25.7766C9.87985 25.843 9.94808 25.9094 10.0184 25.9777C10.5512 26.5058 11.0285 27.0745 11.2846 27.7898C11.3109 27.8596 11.3372 27.9294 11.3642 28.0013C11.958 30.4677 11.1726 33.0041 10.5423 35.3725C10.3599 36.0604 10.1823 36.7496 10.0043 37.4387C9.94217 37.6776 9.87887 37.9163 9.81535 38.1549C9.77738 38.2997 9.73942 38.4445 9.70147 38.5893C9.68362 38.6551 9.66577 38.721 9.64737 38.7889C9.54941 39.1598 9.54941 39.1598 9.62498 39.531C9.71005 39.5594 9.79513 39.5877 9.88279 39.6169C10.1187 39.4071 10.2493 39.1823 10.3964 38.9043C10.4462 38.8107 10.496 38.7172 10.5473 38.6208C10.6015 38.5178 10.6557 38.4148 10.7099 38.3118C10.767 38.2042 10.8241 38.0966 10.8813 37.989C11.0024 37.761 11.1232 37.5328 11.2438 37.3046C11.4267 36.9582 11.6104 36.6123 11.7942 36.2664C11.8244 36.2097 11.8545 36.1529 11.8856 36.0945C12.0382 35.8073 12.1908 35.5202 12.3435 35.2331C12.4046 35.1183 12.4657 35.0035 12.5267 34.8887C12.5718 34.8039 12.5718 34.8039 12.6179 34.7173C12.8012 34.3723 12.9833 34.0267 13.1645 33.6805C13.2813 33.4578 13.3987 33.2355 13.5162 33.0131C13.5973 32.8591 13.6776 32.7046 13.7579 32.5501C14.2626 31.5969 14.2626 31.5969 14.6094 31.3669C15.203 31.3364 15.7502 31.6775 16.2744 31.9255C16.3693 31.9695 16.4643 32.0135 16.5621 32.0588C17.2588 32.3836 17.2588 32.3836 17.3594 32.4841C17.3673 32.6055 17.3694 32.7273 17.3691 32.8489C17.3691 32.965 17.3691 32.965 17.3691 33.0835C17.3686 33.1676 17.3682 33.2518 17.3677 33.3385C17.3676 33.4242 17.3675 33.5099 17.3674 33.5982C17.3669 33.8732 17.3658 34.1481 17.3647 34.4231C17.3643 34.609 17.3639 34.7949 17.3635 34.9809C17.3626 35.4377 17.3612 35.8945 17.3594 36.3513C17.5295 36.4364 17.5295 36.4364 17.7031 36.5232C17.9566 36.1483 18.0812 35.7644 18.2117 35.3358C18.2342 35.2626 18.2567 35.1894 18.2799 35.1139C18.3273 34.9591 18.3743 34.8041 18.421 34.6491C18.4919 34.4148 18.565 34.1812 18.6382 33.9476C19.0686 32.6796 19.0686 32.6796 18.8921 31.3988C18.6946 31.1437 18.522 31.0651 18.2258 30.9396C18.125 30.896 18.0243 30.8524 17.9205 30.8075C17.814 30.763 17.7075 30.7185 17.6011 30.6741C17.3939 30.5855 17.1867 30.4967 16.9797 30.4079C16.882 30.3662 16.7844 30.3245 16.6838 30.2816C15.8039 29.8974 15.8039 29.8974 15.6406 29.7341C15.607 29.1344 15.7048 28.5678 15.8074 27.9781C15.8251 27.8757 15.8427 27.7734 15.8609 27.6679C15.8985 27.4515 15.9365 27.2352 15.9747 27.0189C16.032 26.6927 16.0868 26.3662 16.1416 26.0397C16.3295 24.9527 16.542 23.9468 17.0186 22.9493C17.1413 22.6888 17.2536 22.424 17.367 22.1593C17.5201 21.8027 17.6763 21.4475 17.832 21.092C17.8946 20.9489 17.9571 20.8057 18.0197 20.6625C18.0504 20.5921 18.0812 20.5217 18.113 20.4491C18.174 20.3093 18.235 20.1694 18.2958 20.0295C18.4421 19.6934 18.5908 19.3588 18.7451 19.0262C18.7736 18.9638 18.8022 18.9014 18.8316 18.8371C18.8851 18.7204 18.9394 18.6041 18.9949 18.4883C19.1425 18.1635 19.1916 17.9595 19.0781 17.6169C18.9079 17.5744 18.9079 17.5744 18.7344 17.531ZM11.3813 19.8835C10.9658 20.407 10.8734 20.8448 10.8868 21.5056C10.9527 22.0777 11.2513 22.494 11.6875 22.8591C12.2329 23.2155 12.6758 23.345 13.3203 23.2888C13.9793 23.1005 14.5077 22.6391 14.8725 22.0642C15.0317 21.4276 15.0734 20.7599 14.7285 20.179C14.3139 19.637 13.8237 19.2911 13.1484 19.1638C12.4556 19.1194 11.8492 19.3772 11.3813 19.8835Z" fill="#1D304D"/>
<path d="M24.6315 4.45639C25.7877 5.50055 26.3812 6.84204 26.4678 8.39437C26.5118 9.88929 26.012 11.3393 25.0078 12.4613C24.9545 12.5235 24.9012 12.5856 24.8463 12.6497C24.0198 13.5493 22.7085 14.2831 21.4713 14.3641C20.5081 14.402 19.6345 14.3938 18.7344 14.0082C18.659 13.9771 18.5837 13.946 18.5061 13.9139C17.1588 13.3005 16.2665 12.1855 15.7266 10.8285C15.2436 9.17412 15.4129 7.57001 16.2335 6.06738C17.0187 4.6952 18.2535 3.74855 19.7754 3.32712C21.5081 2.90038 23.2698 3.3099 24.6315 4.45639ZM21.3125 4.46915C21.4916 5.20598 21.8385 5.67152 22.4351 6.13419C23.0303 6.46349 23.5633 6.48735 24.2344 6.44571C24.3194 6.41735 24.4045 6.38899 24.4922 6.35977C24.231 5.60022 23.6148 5.15634 22.9185 4.8129C22.4764 4.60284 22.1243 4.45562 21.6348 4.46378C21.5284 4.46555 21.4221 4.46732 21.3125 4.46915ZM17.9502 5.80118C17.1222 6.66142 16.694 7.79912 16.6642 8.98691C16.7058 9.95973 16.9663 10.8079 17.5312 11.602C17.5596 11.602 17.588 11.602 17.6172 11.602C17.6227 11.5545 17.6283 11.507 17.634 11.4581C17.8923 9.31778 18.4724 7.31658 20.0929 5.78842C20.1551 5.72173 20.2172 5.65505 20.2812 5.58634C20.2808 5.28258 20.2808 5.28258 20.1953 4.98477C20.1794 4.90147 20.1634 4.81816 20.147 4.73233C20.1346 4.67384 20.1222 4.61535 20.1094 4.55509C19.3378 4.55509 18.478 5.31483 17.9502 5.80118ZM20.9687 6.53165C19.5854 8.04216 18.7723 9.83363 18.8029 11.9017C18.8067 12.1172 18.8067 12.1172 18.9062 12.2895C19.9739 12.1345 20.943 11.14 21.5679 10.3142C22.1694 9.48334 22.7002 8.58878 22.8594 7.5629C22.7939 7.53886 22.7284 7.51482 22.661 7.49005C22.1029 7.27339 21.6538 7.035 21.196 6.64813C21.0742 6.52254 21.0742 6.52254 20.9687 6.53165ZM24.0625 7.73477C23.9093 7.95868 23.8555 8.19247 23.7939 8.4545C23.7539 8.59527 23.713 8.73581 23.6714 8.87613C23.6512 8.94526 23.631 9.01438 23.6101 9.0856C23.0959 10.6797 21.7824 12.0689 20.3877 12.9373C20.3242 12.9788 20.2607 13.0202 20.1953 13.0629C20.1953 13.0913 20.1953 13.1196 20.1953 13.1488C21.6039 13.2249 22.6918 12.8681 23.7778 11.9726C24.5176 11.2851 25.1256 10.2208 25.1908 9.19202C25.1909 9.1312 25.191 9.07038 25.1911 9.00772C25.1912 8.94059 25.1913 8.87346 25.1914 8.80429C25.1909 8.70027 25.1909 8.70027 25.1904 8.59415C25.1908 8.5248 25.1911 8.45545 25.1914 8.384C25.1913 8.28331 25.1913 8.28331 25.1911 8.18057C25.191 8.08935 25.191 8.08935 25.1908 7.99628C25.1793 7.81408 25.1433 7.65231 25.0937 7.47696C24.7164 7.47696 24.3929 7.54763 24.0625 7.73477Z" fill="#1D304D"/>
</svg>
