<svg width="44" height="44" viewBox="0 0 44 44" fill="none" xmlns="http://www.w3.org/2000/svg">
<path d="M23.4609 5.24183C23.5704 5.33024 23.5704 5.33024 23.6821 5.42042C24.8943 6.448 25.8925 7.90468 26.2969 9.45277C26.2969 9.53785 26.2969 9.62293 26.2969 9.71059C26.3519 9.7128 26.407 9.71502 26.4637 9.7173C27.153 9.7625 27.573 9.919 28.0425 10.4303C28.5743 11.0452 28.4975 11.8702 28.4453 12.6325C28.3297 13.7718 28.1855 14.744 27.262 15.5033C26.9192 15.7483 26.6031 15.8084 26.1951 15.8581C26.0869 15.8713 25.9787 15.8845 25.8672 15.8981C25.8702 15.9916 25.8732 16.0851 25.8762 16.1814C25.9 17.2429 25.7914 18.1351 25.2656 19.0778C26.2293 18.9083 27.1499 18.6065 28.08 18.3078C28.2561 18.2514 28.4325 18.1959 28.6092 18.1414C29.4394 17.8843 30.049 17.6777 30.5968 16.9673C30.9617 16.5139 31.4451 16.1532 32.0278 16.0592C32.531 16.0415 32.877 16.2205 33.2524 16.548C33.4297 16.7575 33.4297 16.7575 33.4297 16.9293C33.5406 16.9107 33.6514 16.8921 33.7657 16.8729C33.9133 16.8487 34.0609 16.8246 34.2085 16.8004C34.2813 16.7881 34.3542 16.7758 34.4292 16.7632C35.098 16.6547 35.6526 16.5838 36.2656 16.9293C36.6859 17.3288 36.8784 17.6514 36.894 18.2399C36.8862 18.6972 36.8371 18.9965 36.5234 19.3356C35.9624 19.7303 35.3414 20.0164 34.7134 20.2863C34.6273 20.3234 34.5412 20.3605 34.4525 20.3987C33.5347 20.7866 32.624 21.0732 31.6411 21.2423C30.7939 21.417 30.058 21.8479 29.3047 22.2575C29.2233 22.3012 29.1419 22.345 29.0581 22.3901C26.2185 23.8544 26.2185 23.8544 24.3414 26.3157C24.1769 26.9071 24.2443 27.4923 24.2957 28.0954C24.3156 28.3293 24.3336 28.5633 24.3511 28.7975C24.3793 29.1698 24.4085 29.5421 24.4383 29.9144C24.5334 31.1073 24.6234 32.3007 24.7129 33.4941C24.7478 33.9582 24.7835 34.4222 24.8198 34.8863C25.0286 37.5641 25.0286 37.5641 25.0444 38.6235C25.0473 38.7247 25.0473 38.7247 25.0504 38.828C25.0489 39.368 24.8647 39.798 24.5261 40.2174C24.0171 40.6434 23.4479 40.8752 22.7768 40.8445C22.2174 40.7662 21.6811 40.5791 21.3125 40.1325C20.836 39.3739 20.6349 38.493 20.3929 37.6405C20.3393 37.4527 20.2846 37.2652 20.2299 37.0777C20.2142 37.021 20.1985 36.9643 20.1824 36.9059C20.0573 36.4784 19.8849 36.078 19.5229 35.802C18.4278 35.2969 17.2986 35.2677 16.1562 35.6637C15.7751 35.8396 15.5761 36.0667 15.3828 36.4371C15.2961 36.6771 15.2262 36.921 15.1562 37.1663C15.1133 37.3102 15.0702 37.4541 15.0271 37.598C14.9604 37.8227 14.8943 38.0475 14.8298 38.2728C14.2981 40.1219 14.2981 40.1219 13.4419 40.6003C12.815 40.8905 12.2884 40.8892 11.6391 40.6911C11.1573 40.5006 10.8305 40.2391 10.5703 39.7887C10.334 39.2386 10.2836 38.7771 10.3306 38.1849C10.3356 38.107 10.3405 38.0291 10.3456 37.9488C10.3617 37.7026 10.3799 37.4566 10.3984 37.2106C10.4092 37.0544 10.4199 36.8982 10.4305 36.742C10.4641 36.2565 10.5011 35.7713 10.5384 35.2861C10.5518 35.1094 10.5652 34.9328 10.5785 34.7562C10.6132 34.2981 10.6481 33.8399 10.6832 33.3818C10.7191 32.9116 10.7547 32.4414 10.7903 31.9713C10.8599 31.0536 10.9299 30.136 11 29.2184C10.9251 29.2138 10.8503 29.2092 10.7732 29.2045C10.674 29.1978 10.5748 29.1911 10.4726 29.1842C10.3747 29.1778 10.2768 29.1714 10.176 29.1649C9.30369 29.0684 8.68082 28.6927 8.11839 28.0327C7.56875 27.3105 7.5689 26.4803 7.64842 25.609C8.05309 23.5057 10.0913 22.0222 11.6875 20.7965C11.6138 20.733 11.5401 20.6696 11.4642 20.6042C10.5405 19.7915 9.61329 18.7455 9.52793 17.4478C9.52783 17.39 9.52773 17.3323 9.52763 17.2727C9.52752 17.2091 9.52741 17.1455 9.5273 17.0799C9.52763 17.0143 9.52796 16.9486 9.5283 16.881C9.52781 16.782 9.52781 16.782 9.5273 16.6811C9.52779 16.3983 9.53497 16.1681 9.62498 15.8981C9.55331 15.8917 9.48164 15.8852 9.40779 15.8786C8.65931 15.7912 8.11123 15.6348 7.60075 15.0602C6.86809 14.0197 6.84254 12.3981 6.96092 11.1715C7.09623 10.6509 7.35427 10.2554 7.80687 9.95967C8.04014 9.86247 8.26294 9.84546 8.51317 9.81264C8.78733 9.76532 8.78733 9.76532 9.02342 9.62465C9.20339 9.30126 9.30412 8.98083 9.41215 8.62865C9.71918 7.64429 10.4074 6.77214 11.0859 6.01527C11.1384 5.95567 11.1909 5.89607 11.245 5.83467C14.4105 2.45372 19.9758 2.35003 23.4609 5.24183ZM12.6328 6.27308C12.5793 6.31529 12.5258 6.3575 12.4707 6.40098C11.502 7.17377 10.7064 8.45082 10.3125 9.62465C10.3125 9.70973 10.3125 9.7948 10.3125 9.88246C10.4543 9.91082 10.5961 9.93918 10.7422 9.9684C10.7828 9.91013 10.8235 9.85186 10.8654 9.79182C12.0342 8.14674 13.4479 6.97668 15.3828 6.35902C15.4682 6.33155 15.5536 6.30408 15.6416 6.27577C17.6462 5.74319 19.8464 6.06874 21.6562 7.04652C22.7263 7.67283 23.5799 8.47484 24.3092 9.46821C24.4485 9.65271 24.5807 9.8127 24.75 9.9684C24.9201 9.88332 24.9201 9.88332 25.0937 9.79652C24.6537 8.50388 23.9905 7.49152 23.0312 6.5309C22.9372 6.43535 22.9372 6.43535 22.8412 6.33787C21.5758 5.13128 19.7729 4.47576 18.0469 4.38246C17.9866 4.37892 17.9263 4.37537 17.8642 4.37172C15.9681 4.31595 14.0501 5.03453 12.6328 6.27308ZM13.1484 8.93715C13.0291 9.04615 13.0291 9.04615 12.9074 9.15736C12.1171 9.8963 12.1171 9.8963 11.6015 10.8278C11.6034 11.09 11.6333 11.3333 11.6804 11.591C11.7908 12.2114 11.8017 12.825 11.8056 13.4542C11.8078 13.5585 11.81 13.6628 11.8122 13.7703C11.8138 14.3548 11.7921 14.7419 11.4297 15.2106C11.2967 15.3116 11.2967 15.3116 11.1611 15.4147C10.7279 15.8103 10.7357 16.3125 10.7099 16.8756C10.7328 17.8394 11.1984 18.6729 11.8691 19.346C13.8857 21.0846 16.6356 21.2057 19.1671 21.0275C21.0372 20.8652 22.7617 20.2112 24.0004 18.7558C24.5757 18.0031 24.7059 17.239 24.6113 16.3103C24.5949 16.1913 24.5949 16.1913 24.5781 16.07C24.5677 15.9922 24.5573 15.9144 24.5466 15.8343C24.5071 15.6123 24.5071 15.6123 24.2505 15.4791C23.8822 15.2336 23.7243 14.9642 23.5803 14.5405C23.5344 14.2806 23.5453 14.0349 23.5542 13.7711C23.5561 13.7149 23.5579 13.6587 23.5598 13.6008C23.5637 13.4818 23.5679 13.3627 23.5724 13.2437C23.579 13.0652 23.5848 12.8866 23.5905 12.708C23.5945 12.5915 23.5985 12.475 23.6026 12.3585C23.6045 12.3013 23.6064 12.244 23.6083 12.185C23.6219 11.827 23.6578 11.4768 23.7026 11.1215C23.7304 10.8075 23.7352 10.6082 23.5663 10.338C23.4926 10.2533 23.4188 10.1685 23.3428 10.0812C23.3031 10.0348 23.2635 9.98841 23.2227 9.94062C23.1042 9.80396 22.9823 9.67131 22.8594 9.53871C22.7666 9.4322 22.7666 9.4322 22.672 9.32353C21.536 8.09098 19.8105 7.28935 18.1435 7.18516C16.2751 7.11937 14.5372 7.65376 13.1484 8.93715ZM8.33592 11.1715C7.94149 11.7632 8.1616 12.6462 8.27147 13.32C8.28085 13.3816 8.29023 13.4433 8.2999 13.5068C8.37102 13.9033 8.47931 14.1529 8.76561 14.4371C9.03634 14.6189 9.29803 14.6484 9.61961 14.6788C9.70724 14.6883 9.79487 14.6977 9.88515 14.7074C10.1857 14.6928 10.3315 14.6162 10.5703 14.4371C10.7079 14.1619 10.6688 13.8638 10.667 13.5617C10.6666 13.4929 10.6661 13.424 10.6657 13.3532C10.6636 13.1415 10.6602 12.93 10.6562 12.7184C10.6552 12.6545 10.6541 12.5907 10.653 12.5249C10.649 12.3494 10.642 12.174 10.6347 11.9987C10.6308 11.897 10.6268 11.7953 10.6227 11.6905C10.5604 11.38 10.4743 11.2772 10.2265 11.0856C9.58378 10.8335 8.92746 10.782 8.33592 11.1715ZM25.0078 11.1715C24.6216 11.7508 24.7317 12.6329 24.7285 13.3092C24.7267 13.406 24.725 13.5029 24.7231 13.6026C24.7227 13.6952 24.7222 13.7878 24.7218 13.8833C24.721 13.967 24.7202 14.0507 24.7194 14.137C24.733 14.3539 24.733 14.3539 24.8642 14.505C25.2162 14.76 25.6422 14.705 26.0498 14.6412C26.4513 14.5462 26.6638 14.4489 26.8984 14.0934C27.0997 13.5107 27.2055 12.9032 27.2422 12.2887C27.2467 12.2212 27.2513 12.1538 27.2559 12.0843C27.2712 11.6823 27.2622 11.4018 26.9844 11.0856C26.3914 10.7082 25.5984 10.8868 25.0078 11.1715ZM31.6357 17.7135C31.5633 17.7793 31.4908 17.8451 31.4162 17.9129C31.1876 18.1277 31.1876 18.1277 31.0103 18.393C30.7094 18.7597 30.2831 18.8728 29.8472 19.0241C29.7565 19.0566 29.6659 19.0891 29.5726 19.1227C27.8383 19.7367 26.0832 20.2724 24.2657 20.5766C23.7977 20.6584 23.4547 20.7806 23.0473 21.0382C21.4041 22.0301 19.618 22.1906 17.7407 22.1876C17.6755 22.1876 17.6104 22.1875 17.5432 22.1874C16.1793 22.1837 14.944 22.0873 13.6389 21.6663C13.5337 21.6345 13.4286 21.6027 13.3203 21.57C13.1884 21.5292 13.1884 21.5292 13.0538 21.4877C12.6939 21.4824 12.5211 21.6684 12.2729 21.903C12.1742 21.9917 12.0754 22.0803 11.9765 22.1688C11.9277 22.2133 11.8789 22.2577 11.8287 22.3035C11.631 22.4797 11.4231 22.6419 11.2148 22.8053C10.1371 23.6874 9.02573 24.6969 8.82436 26.1488C8.793 26.7396 8.98417 27.1696 9.36717 27.6124C10.273 28.1219 11.3314 28.0534 12.3367 28.0495C12.4978 28.0497 12.6588 28.0499 12.8199 28.0503C13.1555 28.0506 13.491 28.0501 13.8266 28.0489C14.256 28.0474 14.6854 28.0483 15.1148 28.0498C15.4465 28.0507 15.7783 28.0504 16.11 28.0498C16.2684 28.0496 16.4268 28.0498 16.5851 28.0504C16.8062 28.0511 17.0272 28.0501 17.2482 28.0486C17.313 28.0492 17.3779 28.0497 17.4447 28.0502C17.8514 28.0453 18.1329 27.9767 18.4765 27.7575C18.6767 27.5103 18.6767 27.5103 18.6431 27.2042C18.5452 26.8323 18.4536 26.7568 18.1328 26.5543C17.8559 26.504 17.8559 26.504 17.5517 26.5129C17.4667 26.5124 17.4667 26.5124 17.38 26.5119C17.2577 26.5113 17.1353 26.5116 17.013 26.5126C16.8194 26.5141 16.6259 26.5134 16.4322 26.5122C16.0215 26.51 15.6109 26.5105 15.2002 26.5114C14.7236 26.5124 14.247 26.5123 13.7705 26.5093C13.5797 26.5087 13.389 26.5101 13.1982 26.5116C13.0814 26.5111 12.9647 26.5106 12.8479 26.5099C12.746 26.5101 12.644 26.5104 12.539 26.5107C12.289 26.4684 12.289 26.4684 12.1242 26.3107C11.993 26.0481 12.0388 25.8863 12.1172 25.609C12.3794 25.3468 12.6868 25.4064 13.039 25.4016C13.1131 25.3999 13.1873 25.3982 13.2637 25.3965C13.501 25.3914 13.7383 25.3874 13.9756 25.3834C14.1363 25.3802 14.2969 25.3768 14.4576 25.3734C14.8519 25.3651 15.2463 25.3579 15.6406 25.3512C15.6446 25.2883 15.6487 25.2254 15.6528 25.1607C15.7076 24.4309 15.8419 23.7944 16.414 23.2887C17.0206 22.8843 17.5905 22.8819 18.3047 22.945C18.8127 23.0714 19.0979 23.3666 19.4024 23.7792C19.7119 24.3577 19.699 24.9032 19.685 25.5446C19.6821 25.7133 19.6795 25.882 19.6773 26.0508C19.6758 26.1248 19.6742 26.1989 19.6726 26.2751C19.6711 26.4831 19.6711 26.4831 19.7656 26.7262C19.7848 26.8993 19.7964 27.0732 19.8032 27.2472C19.8084 27.3386 19.8136 27.43 19.819 27.5242C19.765 27.8469 19.704 27.9515 19.5246 28.212C19.1236 28.8387 19.0598 29.5547 18.9438 30.2765C18.8991 30.5541 18.8522 30.8311 18.8038 31.108C18.7945 31.1708 18.7852 31.2335 18.7756 31.2982C18.6995 31.7329 18.5579 31.9478 18.2187 32.2262C17.9439 32.3636 17.6583 32.3432 17.3594 32.3121C16.9514 32.1489 16.845 31.9313 16.6719 31.5387C16.6031 31.2672 16.6031 31.2672 16.5527 30.9808C16.5359 30.8879 16.5191 30.7949 16.5018 30.6992C16.4817 30.5827 16.4616 30.4663 16.4409 30.3463C16.3425 29.788 16.3425 29.788 16.2422 29.2184C14.9376 29.2184 13.6331 29.2184 12.289 29.2184C12.1785 29.55 12.1636 29.8776 12.1381 30.2238C12.1323 30.3003 12.1264 30.3768 12.1203 30.4556C12.1009 30.7094 12.082 30.9633 12.0631 31.2171C12.0498 31.3944 12.0364 31.5716 12.023 31.7489C11.995 32.1215 11.9672 32.4941 11.9396 32.8668C11.9045 33.3405 11.8685 33.8142 11.8324 34.2879C11.8045 34.6548 11.7771 35.0217 11.7499 35.3886C11.7369 35.563 11.7237 35.7374 11.7103 35.9117C11.6476 36.7324 11.5894 37.5536 11.572 38.3767C11.5696 38.4355 11.5672 38.4943 11.5648 38.5549C11.5624 38.8518 11.5973 39.0086 11.7571 39.262C12.0104 39.5082 12.1983 39.5688 12.5469 39.6168C12.9677 39.4793 13.1219 39.3146 13.3203 38.9293C13.3978 38.699 13.4684 38.4714 13.5341 38.2378C13.574 38.1017 13.6139 37.9657 13.6538 37.8296C13.7154 37.6173 13.7766 37.4048 13.837 37.1921C14.3371 35.4392 14.3371 35.4392 14.9924 34.8829C16.3391 34.1459 17.8535 33.9646 19.3473 34.3713C20.0111 34.6118 20.5901 34.9724 20.9687 35.5778C21.3376 36.4086 21.5865 37.2845 21.8326 38.1578C21.879 38.3215 21.9274 38.4846 21.9758 38.6477C22.0032 38.7432 22.0307 38.8387 22.0589 38.9371C22.2204 39.2947 22.448 39.4718 22.811 39.6115C23.1185 39.619 23.2888 39.5217 23.5469 39.359C23.7374 39.1599 23.8005 39.0511 23.8323 38.7748C23.8288 38.6396 23.8288 38.6396 23.8252 38.5018C23.8229 38.4023 23.8205 38.3029 23.8181 38.2005C23.7978 37.7438 23.7696 37.2887 23.7337 36.8331C23.7261 36.7331 23.7186 36.6332 23.7108 36.5303C23.6945 36.3154 23.6781 36.1006 23.6614 35.8857C23.635 35.545 23.6092 35.2042 23.5835 34.8634C23.5334 34.2014 23.4828 33.5394 23.432 32.8774C23.3674 32.0346 23.303 31.1917 23.2393 30.3488C23.2097 29.9569 23.1795 29.5651 23.1492 29.1732C23.1335 28.9667 23.1179 28.7601 23.1022 28.5535C23.095 28.4618 23.0878 28.37 23.0803 28.2754C22.9644 26.7203 23.0655 25.5597 24.1078 24.3193C25.6716 22.6299 27.894 21.6057 29.916 20.5796C30.0655 20.5032 30.2144 20.4254 30.3619 20.3452C30.7541 20.1351 31.1049 20.0437 31.5444 19.9855C32.6612 19.8076 33.6438 19.4183 34.665 18.9435C34.7535 18.903 34.8421 18.8625 34.9333 18.8208C35.0156 18.7814 35.0979 18.742 35.1827 18.7015C35.2568 18.6664 35.331 18.6313 35.4074 18.5952C35.5887 18.4893 35.5887 18.4893 35.6619 18.3064C35.6804 18.1263 35.6804 18.1263 35.5637 17.9801C35.3593 17.8432 35.2745 17.8613 35.0353 17.9059C34.9625 17.9183 34.8896 17.9308 34.8146 17.9436C34.7386 17.9581 34.6627 17.9725 34.5845 17.9874C33.336 18.2157 33.336 18.2157 32.8281 18.1325C32.6405 17.9633 32.6405 17.9633 32.5327 17.7457C32.4268 17.5329 32.4268 17.5329 32.3125 17.359C31.9666 17.359 31.887 17.4821 31.6357 17.7135ZM17.1123 24.2609C16.7999 24.6559 16.8437 24.8099 16.8437 25.3512C17.3826 25.3796 17.9214 25.4079 18.4765 25.4371C18.5256 24.845 18.5256 24.845 18.3154 24.3146C18.0804 24.1003 17.9969 24.0662 17.6763 24.0299C17.3482 24.0342 17.3482 24.0342 17.1123 24.2609ZM17.4453 29.2184C17.502 29.5871 17.5587 29.9557 17.6172 30.3356C17.6739 30.3072 17.7306 30.2789 17.789 30.2496C17.8485 30.0082 17.8485 30.0082 17.8857 29.7287C17.9001 29.6337 17.9145 29.5388 17.9294 29.441C17.9398 29.3675 17.9502 29.2941 17.9609 29.2184C17.7908 29.2184 17.6206 29.2184 17.4453 29.2184Z" fill="#1D304D"/>
<path d="M33 24.1487C33.2226 24.3239 33.2226 24.3239 33.4243 24.5462C33.6676 24.8102 33.9126 25.0583 34.1847 25.2921C34.6345 25.6801 35.0456 26.1042 35.4616 26.5278C35.8074 26.8773 36.1588 27.2098 36.537 27.5243C36.8302 27.7981 37.0218 27.9873 37.0833 28.3957C37.0838 28.5081 37.0844 28.6206 37.0849 28.7365C37.086 28.8301 37.086 28.8301 37.0872 28.9256C37.0891 29.1312 37.0885 29.3367 37.0877 29.5423C37.0882 29.686 37.0887 29.8298 37.0894 29.9736C37.0903 30.2749 37.0899 30.5762 37.0886 30.8775C37.0871 31.2617 37.0891 31.6458 37.0922 32.0301C37.0941 32.3271 37.0939 32.6241 37.0932 32.9212C37.0932 33.0627 37.0937 33.2043 37.095 33.3458C37.101 34.134 37.091 34.8264 36.6094 35.4925C36.4103 35.6861 36.4103 35.6861 36.2173 35.7986C36.1534 35.8377 36.0895 35.8768 36.0236 35.9171C35.5208 36.1608 34.9754 36.1701 34.4502 35.992C33.9308 35.772 33.5502 35.4446 33.3176 34.9285C33.1608 34.379 33.1591 33.7498 33.3867 33.2205C33.6564 32.7682 34.0767 32.496 34.5469 32.2805C34.987 32.1889 35.4003 32.1917 35.8359 32.3128C36.0523 30.1134 36.0523 30.1134 35.4623 28.0871C35.1937 27.7952 34.8951 27.5675 34.5579 27.3601C34.1052 27.0689 33.7208 26.6786 33.3438 26.2971C33.3433 26.3503 33.3427 26.4035 33.3422 26.4583C33.3367 27.0146 33.3295 27.5709 33.3212 28.1272C33.3184 28.3345 33.3159 28.5418 33.314 28.7491C33.3111 29.048 33.3066 29.3468 33.3018 29.6457C33.301 29.7835 33.301 29.7835 33.3001 29.9241C33.2854 30.6831 33.1747 31.356 32.6385 31.9254C32.1966 32.297 31.7004 32.4556 31.1265 32.4266C30.6248 32.3526 30.1722 32.168 29.8203 31.7971C29.4038 31.1701 29.2871 30.6291 29.4255 29.8928C29.5741 29.3856 29.903 29.0762 30.3359 28.7893C30.7509 28.5721 31.0993 28.5136 31.5639 28.5691C31.6401 28.5779 31.7163 28.5866 31.7947 28.5956C31.8522 28.6028 31.9096 28.61 31.9688 28.6175C31.9682 28.5678 31.9676 28.5182 31.967 28.467C31.9613 27.9498 31.9574 27.4326 31.9546 26.9154C31.9533 26.7224 31.9515 26.5294 31.9493 26.3365C31.9462 26.0589 31.9447 25.7814 31.9436 25.5039C31.9423 25.4178 31.9409 25.3316 31.9395 25.2429C31.9394 24.4864 31.9394 24.4864 32.2266 24.1487C32.5025 24.0107 32.7056 24.0806 33 24.1487ZM30.8193 29.9656C30.6609 30.1911 30.6005 30.3181 30.5938 30.594C30.702 30.839 30.7965 30.9833 31.0127 31.1419C31.2553 31.2132 31.3864 31.1931 31.625 31.1096C31.8344 30.979 31.8344 30.979 31.9688 30.7659C32.0171 30.4273 32.0207 30.2453 31.8345 29.9549C31.4811 29.7283 31.1638 29.7209 30.8193 29.9656ZM34.5845 33.6931C34.4235 34.0222 34.4498 34.1977 34.5469 34.5471C34.6834 34.7519 34.7781 34.7952 35.0088 34.8801C35.3048 34.8942 35.4305 34.8098 35.6641 34.6331C35.8666 34.3851 35.8666 34.3851 35.8198 34.0745C35.7676 33.788 35.7676 33.788 35.6587 33.6072C35.2707 33.3944 34.914 33.4279 34.5845 33.6931Z" fill="#1D304D"/>
<path d="M33.2622 5.7998C33.7533 5.86392 33.9667 6.12317 34.3052 6.46716C34.3685 6.52946 34.4318 6.59176 34.497 6.65595C34.6254 6.78256 34.7532 6.90977 34.8804 7.03759C35.0455 7.20218 35.2134 7.36271 35.3838 7.52191C35.4772 7.61071 35.5707 7.69956 35.6641 7.78845C35.7456 7.86578 35.8271 7.9431 35.9111 8.02277C36.1183 8.28095 36.1637 8.43834 36.1797 8.76599C36.0967 9.00228 36.0611 9.08311 35.8359 9.19568C35.562 9.23865 35.562 9.23865 35.2344 9.19568C35.0691 9.06941 34.9385 8.93275 34.802 8.77606C34.649 8.61149 34.4925 8.47017 34.3215 8.32493C34.2672 8.27872 34.2129 8.2325 34.1569 8.18489C34.1154 8.14978 34.074 8.11467 34.0313 8.07849C34.0306 8.1308 34.0299 8.1831 34.0291 8.23699C34.0217 8.78353 34.0132 9.33004 34.004 9.87655C34.0007 10.0803 33.9977 10.284 33.995 10.4877C33.9911 10.7812 33.9861 11.0748 33.9809 11.3683C33.9794 11.5039 33.9794 11.5039 33.9779 11.6423C33.9613 12.4796 33.8651 13.1552 33.2363 13.7665C32.6921 14.1252 32.1746 14.2718 31.5226 14.1428C30.9432 13.9849 30.5453 13.6798 30.2416 13.1589C30.0244 12.6599 29.9813 12.1118 30.1315 11.5875C30.3753 11.0272 30.8211 10.6229 31.3672 10.3612C31.8081 10.2785 32.221 10.2779 32.6563 10.3988C32.6557 10.3492 32.6551 10.2995 32.6545 10.2484C32.6488 9.73115 32.6449 9.21396 32.6421 8.69673C32.6408 8.50376 32.639 8.31079 32.6368 8.11783C32.6337 7.8403 32.6322 7.5628 32.6311 7.28525C32.6297 7.19912 32.6284 7.11298 32.627 7.02424C32.6269 6.28146 32.6269 6.28146 32.9141 5.93005C33 5.84412 33 5.84412 33.2622 5.7998ZM31.3672 11.8597C31.2567 12.1653 31.2556 12.3089 31.3726 12.6117C31.5868 12.8604 31.7314 12.9252 32.0547 12.9769C32.3064 12.8625 32.4614 12.7421 32.6563 12.5472C32.6935 12.2117 32.71 12.0214 32.5112 11.7416C32.0513 11.4184 31.7852 11.4892 31.3672 11.8597Z" fill="#1D304D"/>
<path d="M18.627 15.5922C18.7606 15.6883 18.7606 15.6883 18.9063 15.8125C18.9721 15.8659 19.0379 15.9193 19.1057 15.9743C19.7706 16.5416 20.6025 17.2609 20.7428 18.1667C20.7581 18.7232 20.659 19.091 20.2813 19.5078C19.5318 20.2175 18.3267 20.1482 17.357 20.1255C16.4176 20.0811 15.6672 20.0297 14.9692 19.3628C14.7041 18.9613 14.5733 18.5982 14.6329 18.1133C14.8965 17.1446 15.8935 16.0983 16.7363 15.5869C17.2789 15.3548 18.0944 15.3178 18.627 15.5922ZM16.032 17.9911C15.8797 18.2082 15.8797 18.2082 15.8937 18.4517C15.9682 18.661 15.9682 18.661 16.1616 18.7575C16.4744 18.8353 16.7809 18.8639 17.1016 18.8794C17.1977 18.8843 17.1977 18.8843 17.2958 18.8893C18.419 18.9701 18.419 18.9701 19.4219 18.5625C19.5368 18.41 19.5368 18.41 19.5078 18.2187C19.3704 18.0319 19.2392 17.8778 19.0781 17.7138C19.0345 17.6683 18.9909 17.6227 18.946 17.5758C18.8195 17.445 18.6913 17.316 18.5625 17.1875C18.5035 17.1274 18.4444 17.0674 18.3836 17.0055C18.1721 16.806 17.9947 16.6814 17.7139 16.602C16.9875 16.7909 16.4995 17.4419 16.032 17.9911Z" fill="#1D304D"/>
<path d="M14.1797 12.1169C14.3513 12.2755 14.4704 12.442 14.6094 12.6325C14.8663 12.761 15.0992 12.7284 15.3828 12.7185C15.4679 12.6901 15.553 12.6618 15.6406 12.6325C15.6992 12.4898 15.7564 12.3466 15.8125 12.2029C16.0703 12.031 16.0703 12.031 16.3711 12.0417C16.6719 12.1169 16.6719 12.1169 16.8437 12.2566C16.974 12.566 16.9364 12.7406 16.8437 13.0622C16.5614 13.5276 16.1682 13.8644 15.6406 14.0075C14.9209 14.1063 14.3521 14.0622 13.75 13.6383C13.4616 13.3927 13.271 13.1808 13.2028 12.8001C13.1855 12.5214 13.198 12.3368 13.3686 12.1116C13.6799 11.9919 13.8613 12.022 14.1797 12.1169Z" fill="#1D304D"/>
<path d="M19.4219 12.1172C19.5881 12.2766 19.7125 12.4474 19.8516 12.6328C20.1213 12.7677 20.3275 12.749 20.625 12.7188C20.8613 12.5254 20.8613 12.5254 21.0547 12.2891C21.2212 12.1279 21.2212 12.1279 21.3984 12.0312C21.6657 12.0422 21.8454 12.076 22.0752 12.2139C22.2439 12.4951 22.2292 12.6532 22.1719 12.9766C21.8473 13.47 21.4667 13.8642 20.8828 14.0078C20.2223 14.0739 19.6187 14.0854 19.0781 13.6641C18.7275 13.3544 18.4978 13.1205 18.4282 12.6489C18.4766 12.375 18.4766 12.375 18.6484 12.1172C18.9622 12.0126 19.1055 12.0223 19.4219 12.1172Z" fill="#1D304D"/>
</svg>
