<svg width="44" height="44" viewBox="0 0 44 44" fill="none" xmlns="http://www.w3.org/2000/svg">
<path d="M33.1558 3.70599C34.3224 4.71221 34.3902 6.20762 34.5887 7.64552C34.6788 8.28537 34.7933 8.90829 34.9729 9.52941C35.0425 9.78574 35.0669 9.95106 35.0014 10.2111C34.8906 10.3984 34.8906 10.3984 34.6328 10.5702C34.2721 10.5644 34.0895 10.535 33.8147 10.2956C33.7497 10.2126 33.6847 10.1295 33.6177 10.0439C33.5639 9.97548 33.5639 9.97548 33.509 9.9057C32.8552 9.05986 32.2921 8.18426 31.8459 7.2123C31.705 6.94984 31.6086 6.79183 31.3672 6.61712C31.135 6.5642 30.9188 6.54713 30.6797 6.53118C30.7273 6.61006 30.775 6.68893 30.824 6.7702C31.4443 7.81248 31.7643 8.73444 31.477 9.9801C31.3065 10.4757 31.0654 10.9149 30.7656 11.3437C30.8653 11.3797 30.8653 11.3797 30.967 11.4165C31.8501 11.7564 32.3923 12.1185 32.8057 12.9776C33.0114 13.4649 33.1505 13.9711 33.29 14.4804C33.3063 14.5388 33.3226 14.5973 33.3394 14.6575C34.8302 20.0183 34.8302 20.0183 34.1977 21.3661C33.8899 21.8794 33.4751 22.2477 33 22.6015C33.0741 23.1353 33.1484 23.669 33.2228 24.2027C33.2497 24.3954 33.2765 24.5881 33.3033 24.7808C33.4566 25.8827 33.613 26.9839 33.7785 28.084C33.8067 28.2729 33.835 28.4618 33.8632 28.6507C33.917 29.0102 33.9719 29.3696 34.0272 29.7289C34.0519 29.8932 34.0765 30.0575 34.1011 30.2217C34.1186 30.3326 34.1186 30.3326 34.1365 30.4458C34.193 30.8296 34.2243 31.1584 34.1172 31.539C33.4096 32.1038 32.3214 32.1996 31.4531 32.3124C31.4495 32.4143 31.4495 32.4143 31.4458 32.5182C31.3887 33.6937 31.2353 34.8586 31.0859 36.0251C31.0469 36.3297 31.0095 36.6344 30.9724 36.9392C30.9432 37.1769 30.9129 37.4145 30.8823 37.6521C30.8612 37.8182 30.8412 37.9845 30.8212 38.1508C30.7121 38.9795 30.5277 39.7102 29.9062 40.3046C29.1592 40.7529 28.4684 40.9563 27.6017 40.7675C26.9607 40.5651 26.4516 40.2398 26.1288 39.6351C25.7999 38.9009 25.7377 38.1323 25.6456 37.3418C25.627 37.1889 25.6082 37.036 25.5893 36.8831C25.5402 36.4834 25.4926 36.0835 25.4452 35.6836C25.3965 35.2745 25.3464 34.8655 25.2965 34.4565C25.199 33.656 25.1029 32.8554 25.0078 32.0546C24.7984 32.3688 24.8038 32.5482 24.7849 32.9234C24.7817 32.9841 24.7785 33.0448 24.7753 33.1073C24.7442 33.7308 24.7269 34.3547 24.7118 34.9786C24.7036 35.3069 24.694 35.6352 24.6845 35.9634C24.6748 36.304 24.6652 36.6445 24.6575 36.9851C24.6298 38.1912 24.54 39.2429 23.6328 40.1327C22.8847 40.7099 22.0758 40.9109 21.1406 40.8202C20.3268 40.6713 19.6194 40.2662 19.1023 39.6154C18.6239 38.876 18.5556 38.0757 18.5383 37.2162C18.5367 37.154 18.5352 37.0917 18.5335 37.0276C18.5269 36.7647 18.521 36.5018 18.515 36.239C18.5105 36.0455 18.5056 35.8521 18.5007 35.6586C18.4996 35.6004 18.4984 35.5422 18.4972 35.4822C18.4869 35.0789 18.4456 34.6882 18.3906 34.289C18.3765 34.3476 18.3624 34.4061 18.3478 34.4665C18.2138 35.0217 18.0786 35.5767 17.9423 36.1313C17.8722 36.4164 17.8026 36.7016 17.7339 36.987C17.6548 37.3161 17.5737 37.6447 17.4926 37.9732C17.4565 38.1251 17.4565 38.1251 17.4196 38.2801C17.1879 39.2075 16.8673 39.9178 16.0703 40.4765C15.3718 40.8682 14.5974 40.9241 13.8306 40.7236C13.0659 40.4675 12.5745 39.983 12.2031 39.2734C12.0633 38.9046 12.0009 38.5736 11.972 38.1808C11.9677 38.1233 11.9633 38.0658 11.9587 38.0066C11.944 37.8101 11.9302 37.6135 11.9164 37.417C11.9058 37.2716 11.8951 37.1261 11.8844 36.9807C11.8461 36.4559 11.8096 35.9311 11.7734 35.4062C11.7663 35.3024 11.7591 35.1985 11.7517 35.0916C11.6194 33.1718 11.491 31.2518 11.3627 29.3318C11.3105 28.5505 11.2582 27.7692 11.2057 26.9879C11.1812 26.6237 11.1569 26.2595 11.1327 25.8952C11.1141 25.6169 11.0954 25.3386 11.0767 25.0603C11.0669 24.9121 11.0669 24.9121 11.0569 24.7608C11.0643 23.8342 11.0643 23.8342 10.7576 23.0292C10.6596 22.9717 10.6596 22.9717 10.5596 22.913C9.8132 22.3937 9.51593 21.7109 9.34184 20.8407C9.21411 20.0825 9.16428 19.3124 9.10549 18.5464C9.08251 18.2508 9.05732 17.9555 9.03199 17.6601C9.01681 17.4692 9.00175 17.2783 8.98684 17.0874C8.97925 17.0006 8.97165 16.9139 8.96382 16.8245C8.89572 15.8834 9.04388 15.0585 9.46923 14.2172C9.50373 14.1472 9.53824 14.0771 9.57378 14.005C10.1513 12.8506 10.703 11.9856 11.9453 11.5156C12.0322 11.4801 12.119 11.4447 12.2085 11.4081C12.2634 11.3869 12.3184 11.3656 12.375 11.3437C12.333 11.2827 12.333 11.2827 12.2901 11.2205C12.0063 10.791 11.8248 10.3781 11.6875 9.88275C11.668 9.81362 11.6485 9.74449 11.6284 9.67327C11.5013 8.63065 11.7194 7.61637 12.3478 6.76483C13.0306 5.94053 13.8848 5.49058 14.9511 5.38983C15.9996 5.35731 16.8949 5.65902 17.7035 6.33044C18.4344 7.02189 18.8132 7.82669 18.8551 8.83435C18.8716 9.87555 18.5881 10.6877 17.9609 11.5156C18.0566 11.5191 18.1524 11.5226 18.251 11.5263C19.0829 11.6297 19.7015 12.2423 20.2007 12.8691C20.469 13.2338 20.7969 13.7122 20.7969 14.1796C20.8643 14.1724 20.9318 14.1652 21.0013 14.1578C21.4969 14.1098 21.9408 14.0796 22.4297 14.1796C22.4455 14.0859 22.4455 14.0859 22.4616 13.9903C22.6573 13.1199 23.2466 12.349 23.9873 11.8647C24.3827 11.6398 24.7204 11.5156 25.1797 11.5156C25.1392 11.4531 25.0988 11.3906 25.0572 11.3262C24.4109 10.2826 24.1612 9.29216 24.4116 8.08343C24.6716 7.1383 25.2385 6.41091 26.0626 5.89269C26.4683 5.67076 26.8233 5.56541 27.2798 5.49456C28.0044 5.34708 28.344 4.83799 28.7891 4.29681C29.8871 3.12934 31.802 2.72698 33.1558 3.70599ZM29.4118 5.38983C29.3764 5.42616 29.3411 5.4625 29.3047 5.49993C29.333 5.58501 29.3614 5.67009 29.3906 5.75775C29.747 5.70534 30.0167 5.577 30.3359 5.414C30.8811 5.25255 31.3706 5.2626 31.8936 5.49456C32.3583 5.74754 32.6228 6.09927 32.9141 6.53118C32.9995 6.64617 33.0852 6.76088 33.1719 6.87493C33.1392 6.12297 33.0371 5.29943 32.4575 4.76409C31.382 3.96323 30.2441 4.57414 29.4118 5.38983ZM13.3901 7.50335C12.918 8.0932 12.8361 8.57215 12.856 9.32382C12.9409 10.0627 13.3169 10.5665 13.8819 11.0318C14.3798 11.3609 14.9623 11.5024 15.5547 11.4296C16.2529 11.246 16.8219 10.989 17.2305 10.3772C17.5732 9.78428 17.6879 9.27923 17.6172 8.59368C17.4084 7.81972 17.0325 7.28479 16.3379 6.87795C15.2821 6.36083 14.1676 6.65152 13.3901 7.50335ZM25.9531 7.64837C25.6097 8.17574 25.4492 8.79379 25.5644 9.4168C25.7705 10.1733 26.1621 10.7301 26.8125 11.1718C27.4746 11.4661 28.0625 11.513 28.7515 11.2846C29.4374 11.0153 29.8304 10.626 30.1641 9.96868C30.4399 9.23298 30.3776 8.66707 30.0946 7.95318C29.8339 7.39596 29.4224 7.05714 28.875 6.789C27.7128 6.36818 26.7408 6.74123 25.9531 7.64837ZM11.3077 13.4705C11.0771 13.799 10.8904 14.1439 10.71 14.5019C10.6724 14.5738 10.6348 14.6457 10.5962 14.7198C10.3171 15.2614 10.2102 15.6608 10.2118 16.2743C10.2119 16.3379 10.2121 16.4014 10.2122 16.4668C10.2201 17.2301 10.2838 17.9884 10.3545 18.748C10.3771 18.9941 10.3975 19.2403 10.4179 19.4866C10.4323 19.6458 10.4469 19.8051 10.4615 19.9643C10.4673 20.0365 10.473 20.1088 10.479 20.1832C10.5575 20.9761 10.8217 21.5595 11.4364 22.0677C11.8676 22.3941 12.3091 22.705 12.7533 23.0134C13.1465 23.2865 13.5345 23.5663 13.9219 23.8476C14.4878 24.2577 15.0561 24.6643 15.6288 25.0649C15.9216 25.27 16.2116 25.4776 16.497 25.6929C16.551 25.7331 16.605 25.7734 16.6607 25.8149C16.7615 25.8901 16.8615 25.9664 16.9607 26.0438C17.2744 26.2766 17.4862 26.3503 17.875 26.2968C18.107 26.1421 18.2653 26.0318 18.3906 25.7812C18.4372 25.4399 18.415 25.3013 18.2187 25.0131C18.039 24.818 17.8444 24.6452 17.6434 24.4723C17.2861 24.1616 16.9406 23.8399 16.5967 23.5146C16.158 23.1014 15.7163 22.6929 15.2667 22.2917C14.9605 22.0149 14.6586 21.7337 14.3569 21.4521C14.3009 21.3998 14.2449 21.3476 14.1872 21.2938C13.8859 21.012 13.8859 21.012 13.75 20.8827C13.6825 20.8224 13.6825 20.8224 13.6136 20.7609C13.374 20.4926 13.2917 20.1328 13.1753 19.7978C13.1478 19.7235 13.1202 19.6491 13.0919 19.5725C12.9158 19.0716 12.8621 18.6633 12.8906 18.1327C13.3942 18.032 13.3942 18.032 13.5781 18.0468C13.9191 18.2797 13.9957 18.5723 14.1092 18.9491C14.3839 19.8556 14.7648 20.3768 15.5081 20.9512C15.6976 21.0991 15.8753 21.2594 16.0542 21.4199C16.1454 21.4988 16.2366 21.5777 16.3281 21.6562C16.485 21.3733 16.5626 21.0927 16.645 20.7807C16.9022 19.9403 17.32 19.4302 18.0888 19.0052C18.3876 18.8681 18.6693 18.7941 18.9922 18.7343C18.9674 18.6564 18.9426 18.5786 18.917 18.4983C18.592 17.432 18.5573 16.6964 18.9922 15.6406C19.1221 15.4433 19.2564 15.295 19.4219 15.1249C19.4219 15.0682 19.4219 15.0115 19.4219 14.9531C19.5069 14.9247 19.592 14.8963 19.6797 14.8671C19.6198 14.1087 19.2422 13.5059 18.679 13.0171C18.0061 12.5964 17.3772 12.5937 16.6024 12.5955C16.4877 12.5951 16.373 12.5946 16.2583 12.5941C16.0188 12.5934 15.7794 12.5936 15.54 12.5944C15.235 12.5954 14.9302 12.5937 14.6253 12.5912C14.3887 12.5896 14.1521 12.5896 13.9155 12.5901C13.749 12.5901 13.5826 12.5887 13.4161 12.5872C12.5138 12.5943 11.8839 12.753 11.3077 13.4705ZM24.1145 13.382C23.831 13.7849 23.6473 14.2412 23.4609 14.6952C23.5371 14.7768 23.6134 14.8583 23.6919 14.9423C24.4088 15.7747 24.5416 16.6354 24.5058 17.695C24.4781 18.0607 24.3736 18.397 24.2344 18.7343C24.3278 18.7655 24.3278 18.7655 24.423 18.7974C25.288 19.0973 25.9643 19.4872 26.4083 20.3178C26.6117 20.7917 26.6934 21.2288 26.7266 21.7421C27.1516 21.3798 27.5743 21.0154 27.9888 20.641C28.0447 20.5925 28.1005 20.5439 28.1581 20.4938C28.5659 20.1227 28.7718 19.7645 28.9609 19.2499C29.0034 19.1433 29.0459 19.0366 29.0885 18.93C29.1244 18.8353 29.1603 18.7406 29.1973 18.643C29.234 18.5463 29.2708 18.4496 29.3087 18.3499C29.3357 18.2783 29.3628 18.2066 29.3906 18.1327C29.9266 18.0091 29.9266 18.0091 30.207 18.1703C30.4349 18.5597 30.2684 19.0336 30.1614 19.454C29.8267 20.5712 29.2502 21.2005 28.3651 21.937C28.1191 22.1432 27.885 22.3611 27.6504 22.58C27.5693 22.654 27.4882 22.728 27.4047 22.8043C27.1348 23.0508 26.8661 23.2987 26.5977 23.5468C26.1367 23.9728 25.6742 24.397 25.2109 24.8204C24.8873 25.097 24.8873 25.097 24.793 25.5073C24.8017 25.8248 24.8363 25.8675 25.0561 26.1303C25.4282 26.34 25.5434 26.3186 25.9531 26.2109C26.2215 26.056 26.4613 25.8697 26.7051 25.6791C26.8505 25.5687 26.996 25.4582 27.1415 25.3478C27.2153 25.2912 27.2891 25.2345 27.3652 25.1761C27.7076 24.9149 28.055 24.6607 28.4023 24.4062C28.5383 24.3061 28.6743 24.2059 28.8102 24.1057C28.8775 24.0561 28.9449 24.0065 29.0143 23.9554C29.2196 23.804 29.4248 23.6524 29.63 23.5008C29.7668 23.3998 29.9037 23.2987 30.0405 23.1977C30.1073 23.1484 30.1741 23.0991 30.2428 23.0483C30.7874 22.6471 31.3355 22.2508 31.8862 21.8581C32.6807 21.326 32.6807 21.326 33.1719 20.539C33.257 19.7695 33.0689 19.0016 32.9194 18.2509C32.8998 18.1506 32.8998 18.1506 32.8797 18.0482C32.6811 17.0413 32.445 16.0485 32.1675 15.0605C32.1515 15.003 32.1355 14.9456 32.1191 14.8864C31.7852 13.64 31.7852 13.64 30.9375 12.7187C30.6654 12.628 30.4687 12.6202 30.1828 12.6175C30.0296 12.6159 30.0296 12.6159 29.8733 12.6142C29.7626 12.6136 29.652 12.6129 29.538 12.6123C29.4815 12.6119 29.4249 12.6116 29.3667 12.6112C29.067 12.6094 28.7674 12.6082 28.4677 12.6074C28.1602 12.6064 27.8527 12.6035 27.5452 12.6001C27.3071 12.5978 27.0691 12.5971 26.831 12.5968C26.6631 12.5962 26.4953 12.5939 26.3275 12.5916C25.4702 12.5937 24.7174 12.729 24.1145 13.382ZM20.2061 15.9843C19.8956 16.4226 19.7188 16.8035 19.7868 17.361C19.9209 17.982 20.2195 18.3791 20.7381 18.736C21.1544 18.9784 21.6203 18.9519 22.0859 18.9062C22.6491 18.7295 23.0342 18.2526 23.3213 17.7568C23.4552 17.1941 23.4212 16.73 23.1343 16.2237C22.8614 15.8174 22.5475 15.5452 22.0859 15.3827C21.338 15.2887 20.7148 15.4016 20.2061 15.9843ZM17.9609 20.6249C17.7455 20.9696 17.6784 21.2592 17.6172 21.6562C17.5985 21.7447 17.5797 21.8332 17.5605 21.9244C17.5081 22.3562 17.4827 22.6786 17.747 23.0336C18.0829 23.3918 18.4571 23.7014 18.8356 24.0131C19.2351 24.3582 19.4692 24.7205 19.5397 25.2451C19.5557 25.9498 19.4365 26.5118 18.9459 27.041C18.5539 27.3596 18.1079 27.4338 17.6172 27.4999C17.6601 28.7901 17.7114 29.5369 18.6773 30.454C19.5063 31.2709 19.63 32.262 19.6535 33.3833C19.6567 33.4922 19.66 33.6011 19.6633 33.7132C19.6717 34.0007 19.6792 34.2882 19.6861 34.5758C19.6961 34.9795 19.7078 35.3831 19.7194 35.7867C19.7254 36.0008 19.7311 36.2149 19.7363 36.429C19.6958 37.8128 19.6958 37.8128 20.2581 39.0018C20.6626 39.3844 21.0101 39.6066 21.5837 39.6222C22.1577 39.5917 22.6084 39.3799 22.9947 38.9514C23.3117 38.5291 23.3836 38.1918 23.3978 37.6643C23.4007 37.5652 23.4036 37.4662 23.4065 37.3641C23.4093 37.2572 23.4121 37.1502 23.4149 37.04C23.42 36.8704 23.425 36.7009 23.4301 36.5313C23.4424 36.1147 23.4539 35.698 23.4652 35.2813C23.4715 35.0477 23.4782 34.8141 23.4853 34.5805C23.4919 34.3614 23.498 34.1424 23.5034 33.9233C23.5488 32.4517 23.6432 31.3024 24.7533 30.2476C25.2486 29.7715 25.4779 29.3114 25.5234 28.6171C25.5291 28.2446 25.5285 27.8725 25.5234 27.4999C25.4736 27.4915 25.4237 27.4831 25.3724 27.4744C24.8196 27.3686 24.4464 27.2024 24.0464 26.7909C23.7157 26.2892 23.5472 25.7822 23.6328 25.1796C23.7915 24.5275 24.1614 24.1105 24.6533 23.6757C24.7115 23.624 24.7696 23.5722 24.8296 23.5189C25.0078 23.3749 25.0078 23.3749 25.1887 23.2766C25.398 23.1517 25.4912 23.0751 25.6094 22.8593C25.7191 22.1274 25.615 21.263 25.2364 20.6239C24.9129 20.2365 24.4793 19.9367 23.9766 19.8515C23.7941 19.8414 23.6114 19.8364 23.4287 19.8354C23.3341 19.8342 23.2395 19.8329 23.142 19.8317C22.8476 19.8523 22.6203 19.9239 22.3437 20.0234C21.7008 20.1538 20.9653 20.1505 20.3672 19.8515C19.3859 19.7792 18.644 19.8802 17.9609 20.6249ZM31.7109 23.4609C30.9047 24.0391 30.1021 24.6212 29.3105 25.2191C28.7991 25.6043 28.2805 25.979 27.76 26.3515C27.6987 26.3955 27.6374 26.4395 27.5742 26.4848C27.5204 26.5232 27.4666 26.5617 27.4111 26.6013C27.3554 26.6426 27.2996 26.6839 27.2422 26.7265C27.1282 26.8027 27.1282 26.8027 27.012 26.8804C26.7575 27.1226 26.7498 27.2536 26.7262 27.6C26.7132 27.7553 26.7132 27.7553 26.6999 27.9138C26.6927 28.0219 26.6856 28.1299 26.6782 28.2411C26.6191 29.0798 26.5015 29.7546 26.125 30.5077C26.1403 31.4775 26.2793 32.4472 26.3982 33.4085C26.4168 33.5595 26.4353 33.7106 26.4538 33.8617C26.4924 34.1755 26.5313 34.4893 26.5704 34.803C26.6203 35.2043 26.669 35.6057 26.7174 36.0071C26.7551 36.3179 26.7937 36.6286 26.8325 36.9393C26.8508 37.0873 26.8688 37.2354 26.8865 37.3835C26.9113 37.59 26.9373 37.7963 26.9635 38.0026C26.9705 38.063 26.9775 38.1234 26.9846 38.1857C27.0478 38.6652 27.1819 39.0329 27.5161 39.3862C27.821 39.5691 28.0938 39.6338 28.4453 39.6171C28.8906 39.4835 29.1503 39.3302 29.3906 38.9296C29.5152 38.4862 29.5959 38.0558 29.6503 37.5977C29.6576 37.5374 29.6649 37.4771 29.6724 37.4149C29.688 37.2853 29.7034 37.1557 29.7187 37.026C29.7428 36.8203 29.7676 36.6147 29.7925 36.4091C29.8541 35.8988 29.9149 35.3884 29.9756 34.878C30.0271 34.4457 30.0789 34.0133 30.1313 33.581C30.1556 33.3793 30.1793 33.1775 30.2029 32.9757C30.218 32.8511 30.2331 32.7265 30.2481 32.6019C30.261 32.4939 30.2738 32.3859 30.2871 32.2746C30.3375 31.9591 30.4008 31.6684 30.5078 31.3671C30.7669 31.1944 30.8987 31.1568 31.1983 31.1063C31.3239 31.0844 31.3239 31.0844 31.4519 31.0621C31.5392 31.0476 31.6264 31.033 31.7163 31.018C31.8892 30.9886 32.0621 30.9589 32.235 30.929C32.3116 30.9162 32.3883 30.9033 32.4673 30.8901C32.6589 30.8595 32.6589 30.8595 32.8281 30.7656C32.7784 29.8874 32.6781 29.0237 32.5518 28.1539C32.5331 28.0231 32.5144 27.8922 32.4956 27.7614C32.4567 27.4901 32.4175 27.2189 32.378 26.9477C32.3274 26.5999 32.2779 26.2519 32.2286 25.9039C32.1904 25.6351 32.1515 25.3663 32.1125 25.0976C32.0939 24.9692 32.0756 24.8408 32.0575 24.7123C32.0323 24.5339 32.0062 24.3557 31.9798 24.1775C31.9579 24.0255 31.9579 24.0255 31.9355 23.8704C31.9027 23.6219 31.9027 23.6219 31.7109 23.4609ZM12.2891 24.2343C12.3466 25.6891 12.4377 27.141 12.5371 28.5935C12.5584 28.9058 12.5795 29.2181 12.6006 29.5304C12.636 30.0533 12.6715 30.5761 12.7072 31.0989C12.7483 31.7007 12.7891 32.3026 12.8298 32.9044C12.8693 33.4883 12.9089 34.0723 12.9486 34.6562C12.9653 34.9027 12.982 35.1492 12.9987 35.3957C13.022 35.7399 13.0455 36.084 13.069 36.4281C13.0758 36.5286 13.0826 36.6291 13.0896 36.7327C13.1204 37.1818 13.1529 37.6309 13.19 38.0796C13.1961 38.1538 13.2021 38.228 13.2084 38.3044C13.2636 38.7199 13.4338 38.9544 13.7178 39.2519C14.0401 39.4976 14.3779 39.6 14.7812 39.6171C15.2518 39.5494 15.5636 39.32 15.8602 38.9595C16.1225 38.5334 16.2081 38.0387 16.3204 37.5563C16.3493 37.4379 16.3784 37.3196 16.4076 37.2013C16.484 36.8902 16.5583 36.5787 16.6321 36.267C16.7062 35.9559 16.7822 35.6452 16.858 35.3345C16.946 34.9734 17.0338 34.6123 17.1201 34.2508C17.2431 33.7363 17.3671 33.2223 17.5007 32.7104C17.5215 32.6302 17.5423 32.55 17.5637 32.4674C17.6013 32.3237 17.6395 32.1801 17.6786 32.0367C17.7606 31.7223 17.8089 31.5042 17.7031 31.1952C17.5555 31.0139 17.5555 31.0139 17.3755 30.8354C16.6519 30.0367 16.4718 29.0902 16.5131 28.0199C16.5326 27.3687 16.5326 27.3687 16.1955 26.8376C15.9422 26.6446 15.6703 26.4841 15.3956 26.3236C15.0621 26.12 14.7519 25.8839 14.4375 25.6523C14.3069 25.5578 14.1762 25.4635 14.0454 25.3693C13.7979 25.1906 13.5509 25.0113 13.3042 24.8315C13.195 24.7524 13.0858 24.6733 12.9766 24.5942C12.9266 24.5575 12.8766 24.5208 12.8252 24.4831C12.5819 24.2922 12.5819 24.2922 12.2891 24.2343Z" fill="#1D304D"/>
</svg>
