<svg width="70" height="19" viewBox="0 0 70 19" fill="none" xmlns="http://www.w3.org/2000/svg">
<path fill-rule="evenodd" clip-rule="evenodd" d="M3.22308 7.1814V1.95514C3.22308 1.3285 3.0815 0.848065 2.79834 0.513852C2.51517 0.171284 2.11124 0 1.58656 0C1.08685 0 0.69542 0.179639 0.412255 0.538918C0.137418 0.889841 0 1.41205 0 2.10554V17.0448C0 17.6882 0.141582 18.177 0.424747 18.5112C0.716241 18.8371 1.10351 19 1.58656 19C2.06127 19 2.45271 18.8371 2.76086 18.5112C3.06901 18.177 3.22308 17.6882 3.22308 17.0448V16.7065C3.59786 17.1409 3.89768 17.4668 4.12255 17.684C4.35574 17.9013 4.63474 18.1143 4.95955 18.3232C5.28436 18.5237 5.67579 18.6867 6.13385 18.812C6.60024 18.9373 7.09578 19 7.62047 19C8.47829 19 9.26116 18.8287 9.96907 18.4861C10.6853 18.1352 11.2933 17.6423 11.793 17.0072C12.2927 16.3722 12.6716 15.6244 12.9298 14.7638C13.1963 13.8949 13.3296 12.9424 13.3296 11.9063C13.3296 10.5026 13.0922 9.29111 12.6175 8.27176C12.1511 7.24406 11.489 6.46284 10.6312 5.9281C9.78168 5.385 8.7906 5.11345 7.65795 5.11345C6.6752 5.11345 5.85069 5.29309 5.18442 5.65237C4.51815 6.0033 3.86437 6.51297 3.22308 7.1814ZM4.30994 15.2652C3.69364 14.5299 3.38549 13.4813 3.38549 12.1194C3.38549 11.1919 3.53123 10.394 3.82273 9.72559C4.11422 9.04881 4.51398 8.53496 5.02201 8.18403C5.53004 7.82475 6.10887 7.64512 6.75848 7.64512C7.39144 7.64512 7.94527 7.82475 8.41999 8.18403C8.89471 8.53496 9.26116 9.03628 9.51934 9.68799C9.77752 10.3397 9.90661 11.1167 9.90661 12.0191C9.90661 13.4145 9.59429 14.4881 8.96967 15.2401C8.35336 15.9837 7.6163 16.3555 6.75848 16.3555C5.75075 16.3555 4.93457 15.9921 4.30994 15.2652ZM32.0329 7.1814V1.95514C32.0329 1.3285 31.8913 0.848065 31.6082 0.513852C31.325 0.171284 30.9211 0 30.3964 0C29.8967 0 29.5052 0.179639 29.2221 0.538918C28.9472 0.889841 28.8098 1.41205 28.8098 2.10554V17.0448C28.8098 17.6882 28.9514 18.177 29.2346 18.5112C29.5261 18.8371 29.9133 19 30.3964 19C30.8711 19 31.2625 18.8371 31.5707 18.5112C31.8788 18.177 32.0329 17.6882 32.0329 17.0448V16.7065C32.4077 17.1409 32.7075 17.4668 32.9324 17.684C33.1656 17.9013 33.4446 18.1143 33.7694 18.3232C34.0942 18.5237 34.4856 18.6867 34.9437 18.812C35.4101 18.9373 35.9056 19 36.4303 19C37.2881 19 38.071 18.8287 38.7789 18.4861C39.4951 18.1352 40.1031 17.6423 40.6028 17.0072C41.1025 16.3722 41.4815 15.6244 41.7396 14.7638C42.0061 13.8949 42.1394 12.9424 42.1394 11.9063C42.1394 10.5026 41.902 9.29111 41.4273 8.27176C40.9609 7.24406 40.2988 6.46284 39.441 5.9281C38.5915 5.385 37.6004 5.11345 36.4678 5.11345C35.485 5.11345 34.6605 5.29309 33.9942 5.65237C33.328 6.0033 32.6742 6.51297 32.0329 7.1814ZM33.1198 15.2652C32.5035 14.5299 32.1953 13.4813 32.1953 12.1194C32.1953 11.1919 32.3411 10.394 32.6326 9.72559C32.924 9.04881 33.3238 8.53496 33.8318 8.18403C34.3399 7.82475 34.9187 7.64512 35.5683 7.64512C36.2013 7.64512 36.7551 7.82475 37.2298 8.18403C37.7045 8.53496 38.071 9.03628 38.3292 9.68799C38.5873 10.3397 38.7164 11.1167 38.7164 12.0191C38.7164 13.4145 38.4041 14.4881 37.7795 15.2401C37.1632 15.9837 36.4261 16.3555 35.5683 16.3555C34.5606 16.3555 33.7444 15.9921 33.1198 15.2652ZM52.3595 17.0699V16.6313C51.9514 17.1493 51.5225 17.5838 51.0728 17.9347C50.623 18.2856 50.1317 18.5446 49.5986 18.7117C49.0656 18.8872 48.4577 18.9749 47.7747 18.9749C46.9502 18.9749 46.209 18.8036 45.5511 18.4611C44.9014 18.1185 44.3976 17.6464 44.0394 17.0448C43.6147 16.3179 43.4023 15.2735 43.4023 13.9116V7.13127C43.4023 6.44613 43.5564 5.93646 43.8646 5.60224C44.1727 5.25967 44.5808 5.08839 45.0888 5.08839C45.6052 5.08839 46.0216 5.25967 46.3381 5.60224C46.6546 5.94481 46.8128 6.45448 46.8128 7.13127V12.6082C46.8128 13.4019 46.8794 14.0704 47.0127 14.6135C47.1459 15.1482 47.3833 15.5701 47.7248 15.8793C48.0745 16.1801 48.5451 16.3305 49.1364 16.3305C49.7111 16.3305 50.2524 16.1592 50.7605 15.8166C51.2685 15.474 51.6391 15.027 51.8723 14.4756C52.0638 13.991 52.1596 12.9299 52.1596 11.2922V7.13127C52.1596 6.45448 52.3179 5.94481 52.6343 5.60224C52.9508 5.25967 53.3631 5.08839 53.8711 5.08839C54.3791 5.08839 54.7872 5.25967 55.0954 5.60224C55.4035 5.93646 55.5576 6.44613 55.5576 7.13127V17.0448C55.5576 17.6966 55.4077 18.1854 55.1079 18.5112C54.8164 18.8371 54.4374 19 53.971 19C53.5047 19 53.1174 18.8329 52.8092 18.4987C52.5094 18.1561 52.3595 17.6799 52.3595 17.0699ZM66.8019 17.0699V16.6313C66.3938 17.1493 65.9649 17.5838 65.5152 17.9347C65.0654 18.2856 64.5741 18.5446 64.041 18.7117C63.508 18.8872 62.9001 18.9749 62.2171 18.9749C61.3926 18.9749 60.6514 18.8036 59.9934 18.4611C59.3438 18.1185 58.84 17.6464 58.4818 17.0448C58.0571 16.3179 57.8447 15.2735 57.8447 13.9116V7.13127C57.8447 6.44613 57.9988 5.93646 58.3069 5.60224C58.6151 5.25967 59.0232 5.08839 59.5312 5.08839C60.0476 5.08839 60.464 5.25967 60.7805 5.60224C61.097 5.94481 61.2552 6.45448 61.2552 7.13127V12.6082C61.2552 13.4019 61.3218 14.0704 61.4551 14.6135C61.5883 15.1482 61.8257 15.5701 62.1672 15.8793C62.5169 16.1801 62.9875 16.3305 63.5788 16.3305C64.1535 16.3305 64.6948 16.1592 65.2029 15.8166C65.7109 15.474 66.0815 15.027 66.3147 14.4756C66.5062 13.991 66.602 12.9299 66.602 11.2922V7.13127C66.602 6.45448 66.7603 5.94481 67.0767 5.60224C67.3932 5.25967 67.8055 5.08839 68.3135 5.08839C68.8215 5.08839 69.2296 5.25967 69.5378 5.60224C69.8459 5.93646 70 6.44613 70 7.13127V17.0448C70 17.6966 69.8501 18.1854 69.5503 18.5112C69.2588 18.8371 68.8798 19 68.4134 19C67.9471 19 67.5598 18.8329 67.2516 18.4987C66.9518 18.1561 66.8019 17.6799 66.8019 17.0699ZM23.662 17.0699C22.8375 17.7133 22.0379 18.1979 21.2634 18.5237C20.4972 18.8412 19.6352 19 18.6774 19C17.803 19 17.0326 18.8287 16.3663 18.4861C15.7084 18.1352 15.2003 17.6631 14.8422 17.0699C14.4841 16.4767 14.305 15.8333 14.305 15.1398C14.305 14.204 14.6007 13.4061 15.192 12.746C15.7833 12.086 16.5953 11.6431 17.6281 11.4175C17.8446 11.3674 18.3818 11.2546 19.2396 11.0792C20.0974 10.9037 20.8303 10.7449 21.4383 10.6029C22.0546 10.4525 22.7209 10.2729 23.4371 10.064C23.3955 9.16161 23.2122 8.50154 22.8874 8.08378C22.571 7.65765 21.9088 7.44459 20.9011 7.44459C20.035 7.44459 19.3812 7.56575 18.9398 7.80805C18.5067 8.05035 18.1319 8.41381 17.8155 8.89842C17.5073 9.38303 17.2866 9.70471 17.1533 9.86346C17.0284 10.0139 16.7536 10.0891 16.3288 10.0891C15.9457 10.0891 15.6126 9.9679 15.3294 9.7256C15.0546 9.47494 14.9172 9.15743 14.9172 8.77309C14.9172 8.17151 15.1295 7.58663 15.5543 7.01847C15.979 6.45031 16.6411 5.98241 17.5406 5.61478C18.4401 5.24714 19.5602 5.06333 20.9011 5.06333C22.4002 5.06333 23.5787 5.24297 24.4365 5.60225C25.2943 5.95317 25.8981 6.51298 26.2479 7.28166C26.6061 8.05035 26.7851 9.0697 26.7851 10.3397C26.7851 11.1418 26.781 11.8228 26.7726 12.3826C26.7726 12.9424 26.7685 13.5649 26.7601 14.25C26.7601 14.8934 26.8642 15.566 27.0724 16.2678C27.289 16.9613 27.3973 17.4083 27.3973 17.6088C27.3973 17.9598 27.2307 18.2814 26.8976 18.5739C26.5727 18.858 26.2021 19 25.7857 19C25.4359 19 25.0903 18.8371 24.7488 18.5112C24.4074 18.177 24.0451 17.6966 23.662 17.0699ZM23.4371 12.1194C22.9374 12.3032 22.2087 12.4996 21.2509 12.7084C20.3015 12.909 19.6435 13.0594 19.2771 13.1596C18.9106 13.2515 18.5608 13.4395 18.2277 13.7236C17.8946 13.9993 17.728 14.3879 17.728 14.8892C17.728 15.4072 17.9237 15.85 18.3152 16.2177C18.7066 16.577 19.2188 16.7566 19.8517 16.7566C20.5263 16.7566 21.1468 16.6104 21.7131 16.3179C22.2878 16.0172 22.7084 15.6328 22.9749 15.1649C23.283 14.6469 23.4371 13.7946 23.4371 12.6082V12.1194Z" fill="black"/>
</svg>
