<svg width="24" height="24" viewBox="0 0 24 24" fill="none" xmlns="http://www.w3.org/2000/svg">
<path d="M2.1573 19.6858C0.80899 18.2027 3.84952e-07 16.5847 3.84952e-07 13.888C3.84952e-07 9.16894 3.37079 4.98917 8.08989 2.83187L9.30337 4.58467C4.85393 7.01164 3.91011 10.1128 3.64045 12.1352C4.31461 11.7307 5.25843 11.5959 6.20225 11.7307C8.62921 12.0004 10.5169 13.888 10.5169 16.4498C10.5169 17.6633 9.97753 18.8768 9.16854 19.8206C8.22472 20.7645 7.14607 21.1689 5.79775 21.1689C4.31461 21.1689 2.96629 20.4948 2.1573 19.6858ZM15.6404 19.6858C14.2921 18.2027 13.4831 16.5847 13.4831 13.888C13.4831 9.16894 16.8539 4.98917 21.573 2.83187L22.7865 4.58467C18.3371 7.01164 17.3933 10.1128 17.1236 12.1352C17.7978 11.7307 18.7416 11.5959 19.6854 11.7307C22.1124 12.0004 24 14.0229 24 16.4498C24 17.6633 23.4607 18.8768 22.6517 19.8206C21.7079 20.7645 20.6292 21.1689 19.2809 21.1689C17.7978 21.1689 16.4494 20.4948 15.6404 19.6858Z" fill="#FBCE3E"/>
</svg>
