<svg width="43" height="43" viewBox="0 0 43 43" fill="none" xmlns="http://www.w3.org/2000/svg">
<g clip-path="url(#clip0_1_432)">
<path fill-rule="evenodd" clip-rule="evenodd" d="M22.0364 17.0936C21.2426 13.5772 21.134 10.0401 21.7444 6.4918C21.8649 5.78421 21.3899 5.10941 20.6772 4.98493C19.9696 4.86445 19.2947 5.3394 19.1703 6.05214C18.5096 9.94133 18.623 13.8126 19.4918 17.6681C19.6493 18.3688 20.3513 18.8153 21.0519 18.6578C21.7566 18.4951 22.1939 17.7943 22.0364 17.0936Z" fill="#6A43D7"/>
<path fill-rule="evenodd" clip-rule="evenodd" d="M26.3352 9.14341C24.8316 11.3117 23.3176 13.472 21.8293 15.6524C21.4251 16.2468 21.5781 17.0595 22.1725 17.4638C22.7669 17.868 23.5797 17.715 23.9839 17.1206C25.4682 14.9454 26.9781 12.7903 28.4818 10.6219C28.89 10.0331 28.739 9.21774 28.1478 8.8094C27.5566 8.40106 26.7407 8.54744 26.3352 9.14341Z" fill="#6A43D7"/>
<path fill-rule="evenodd" clip-rule="evenodd" d="M33.6515 15.5077C30.7884 16.4706 27.8703 17.143 24.9259 17.828C24.2213 17.9907 23.7838 18.6915 23.9505 19.391C24.1132 20.0957 24.814 20.533 25.5135 20.3664C28.5352 19.667 31.5385 18.97 34.4868 17.9824C35.1692 17.7529 35.5315 17.0103 35.302 16.328C35.0775 15.6497 34.3338 15.2781 33.6515 15.5077Z" fill="#6A43D7"/>
<path fill-rule="evenodd" clip-rule="evenodd" d="M33.0143 26.8657C29.3167 24.2477 25.5177 21.303 22.1203 18.2988C21.5779 17.8276 20.7566 17.8748 20.2763 18.4183C19.7999 18.9567 19.8522 19.7821 20.3906 20.2584C23.8601 23.3187 27.7363 26.3233 31.506 28.9974C32.0924 29.4119 32.9114 29.2721 33.3259 28.6857C33.7405 28.0993 33.6007 27.2802 33.0143 26.8657Z" fill="#6A43D7"/>
<path fill-rule="evenodd" clip-rule="evenodd" d="M19.6172 17.5012C19.7238 21.9124 19.9476 26.3322 19.7985 30.7429C19.777 31.4613 20.3407 32.0646 21.0642 32.0901C21.7827 32.1116 22.3859 31.548 22.4075 30.8295C22.5548 26.3679 22.3293 21.8973 22.221 17.4352C22.2007 16.7174 21.6039 16.1461 20.8861 16.1664C20.1631 16.1826 19.597 16.7834 19.6172 17.5012Z" fill="#6A43D7"/>
<path fill-rule="evenodd" clip-rule="evenodd" d="M19.6762 18.8029C18.0675 22.0626 16.1379 24.8746 13.9658 27.7541C13.5307 28.3245 13.647 29.1418 14.2175 29.5769C14.797 30.0109 15.6104 29.8997 16.0443 29.3201C18.3205 26.3067 20.3319 23.3684 22.0188 19.9548C22.3327 19.3066 22.0722 18.5259 21.4189 18.2081C20.7747 17.8891 19.99 18.1547 19.6762 18.8029Z" fill="#6A43D7"/>
<path fill-rule="evenodd" clip-rule="evenodd" d="M19.9451 18.6487C15.6832 20.6886 11.9416 23.7276 7.61727 25.6033C6.96013 25.8855 6.65719 26.6577 6.94453 27.3189C7.23187 27.98 7.99906 28.2789 8.6562 27.9967C13.0068 26.1084 16.7747 23.0568 21.072 21.0032C21.7206 20.6896 21.9949 19.9116 21.6904 19.2619C21.3768 18.6133 20.5988 18.339 19.9451 18.6487Z" fill="#6A43D7"/>
<path fill-rule="evenodd" clip-rule="evenodd" d="M21.4518 18.6051C17.6743 16.6106 14.1501 14.3008 10.5001 12.0997C9.88167 11.7264 9.08379 11.924 8.71046 12.5424C8.33714 13.1609 8.53476 13.9588 9.1532 14.3321C12.8392 16.5612 16.4126 18.8927 20.2353 20.9141C20.8715 21.2434 21.6636 21 21.998 20.3679C22.3313 19.7266 22.0931 18.9384 21.4518 18.6051Z" fill="#6A43D7"/>
<path fill-rule="evenodd" clip-rule="evenodd" d="M24.9793 18.8364C24.3185 18.2732 23.7057 17.7225 23.1123 17.1044C22.61 16.5817 21.7857 16.5688 21.2671 17.066C20.7484 17.5633 20.7315 18.3926 21.2287 18.9113C21.8861 19.5958 22.5619 20.2036 23.2896 20.8189C23.836 21.2849 24.6602 21.2234 25.1251 20.6678C25.5911 20.1214 25.5257 19.3024 24.9793 18.8364Z" fill="#6A43D7"/>
</g>
<defs>
<clipPath id="clip0_1_432">
<rect width="30" height="30" fill="white" transform="translate(18.411) rotate(37.8577)"/>
</clipPath>
</defs>
</svg>
