<svg width="66" height="66" viewBox="0 0 66 66" fill="none" xmlns="http://www.w3.org/2000/svg">
<path d="M53.4832 33C53.4832 31.8527 53.3801 30.7184 53.1996 29.6227C53.1996 29.5969 53.1867 29.5711 53.1867 29.5453C52.0266 22.7133 47.4633 17.0285 41.3016 14.2828C41.25 14.257 41.1984 14.2313 41.1469 14.2184C38.6461 13.1356 35.9004 12.5297 33 12.5297C28.5398 12.5297 24.4019 13.9606 21.0375 16.3969C20.973 16.4356 20.9086 16.4742 20.857 16.5258C15.8039 20.2641 12.5168 26.2582 12.5168 33.0129C12.5168 33.9797 12.5812 34.9336 12.723 35.8617C12.723 35.8746 12.723 35.9004 12.7359 35.9133C13.7543 43.0805 18.498 49.0617 24.9433 51.8332C24.9949 51.859 25.0465 51.8848 25.098 51.8977C27.5344 52.916 30.2027 53.4832 33 53.4832C37.8855 53.4832 42.3715 51.7688 45.8906 48.907C45.9551 48.8684 46.0195 48.8168 46.084 48.7523C50.5957 44.9883 53.4832 39.3293 53.4832 33ZM46.5094 46.2516C46.6769 42.9516 45.9164 39.4453 44.2406 35.9906C43.1449 33.709 41.9461 32.0461 41.3273 31.2469C42.1652 30.6152 42.7711 29.6871 42.9773 28.643C43.6863 28.5398 47.4375 28.166 51.7301 30.2414C51.859 31.1438 51.9363 32.0719 51.9363 33.0129C51.9363 38.1563 49.8609 42.8355 46.5094 46.2516ZM35.591 27.818C35.591 26.2711 36.9187 25.0207 38.5559 25.0207C40.193 25.0207 41.5207 26.2711 41.5207 27.818C41.5207 29.3648 40.193 30.6152 38.5559 30.6152C36.9187 30.6152 35.591 29.3648 35.591 27.818ZM51.3562 28.3723C47.4504 26.7738 44.1246 26.9543 42.9902 27.0832C42.7453 25.7168 41.843 24.5695 40.6055 23.9637C41.1855 22.6875 42.2684 19.7356 41.9203 16.3195C46.5609 18.7945 50.0414 23.1516 51.3562 28.3723ZM40.2445 15.5074C40.9406 19.1426 39.6129 22.4426 39.1101 23.5125C38.9297 23.4867 38.7492 23.4738 38.5559 23.4738C37.5375 23.4738 36.5965 23.7961 35.8488 24.3504C30.9891 18.3691 27.0187 16.5516 24.4277 16.1262C27.0058 14.8113 29.9191 14.0637 33.0129 14.0637C35.5652 14.0637 38.0144 14.5793 40.2445 15.5074ZM21.8109 17.7375C22.1332 17.6344 23.3191 17.3121 25.2527 17.9051C27.3281 18.5367 30.6539 20.3672 34.7789 25.4719C34.3535 26.1035 34.0957 26.8512 34.0699 27.6633C31.2211 28.0242 20.8055 29.6098 14.1281 34.3406C14.1023 33.9023 14.0766 33.4512 14.0766 33C14.0637 26.7481 17.1187 21.1922 21.8109 17.7375ZM14.3215 36.1066C20.5734 31.234 31.5176 29.5453 34.2762 29.1973C34.5726 30.0481 35.1398 30.7957 35.8746 31.3113C34.9851 33.6059 31.1308 43.0289 25.1109 50.209C19.5035 47.6309 15.3656 42.3844 14.3215 36.1066ZM26.6062 50.8277C32.5617 43.5574 36.3 34.5211 37.2797 31.9945C37.6793 32.1105 38.1176 32.175 38.5559 32.175C39.0328 32.175 39.484 32.0977 39.9223 31.9688C40.9406 33.232 46.0582 40.077 44.7949 47.8113C41.5594 50.3895 37.4601 51.9363 33 51.9363C30.757 51.9363 28.6043 51.5367 26.6062 50.8277Z" fill="#6A43D7"/>
</svg>
