<svg width="84" height="84" viewBox="0 0 84 84" fill="none" xmlns="http://www.w3.org/2000/svg">
<g clip-path="url(#clip0_1_35)">
<path d="M40.9988 32.7082L41.9692 30.0996C42.0718 29.8263 42.3801 29.6888 42.6552 29.7846C42.9285 29.8872 43.066 30.1954 42.9703 30.4706L41.9999 33.0791C41.901 33.3387 41.6287 33.4785 41.3618 33.407C41.3481 33.4033 41.3275 33.3978 41.3139 33.3942C41.0355 33.2829 40.8962 32.9815 40.9988 32.7082ZM43.8873 33.893C43.8942 33.8948 43.8942 33.8948 43.8873 33.893C44.1748 33.97 44.4631 33.7978 44.5401 33.5103L45.2207 30.8608C45.2959 30.5802 45.1237 30.2919 44.843 30.2167L44.8362 30.2149C44.5555 30.1397 44.2605 30.3101 44.1903 30.5994L43.5097 33.2489C43.4413 33.5314 43.6067 33.8178 43.8873 33.893ZM29.4861 41.7504C30.1963 41.4272 31.0466 41.567 32.4504 41.8038L32.4641 41.8074C37.4419 42.6423 42.4798 43.5814 47.4218 44.6048C48.3879 44.805 49.4859 45.0332 50.4727 45.5397C51.6264 46.1349 52.4297 47.0251 52.7475 48.0567C53.1481 49.3819 52.6913 50.7854 52.3491 51.8162L50.1513 58.5124C49.8833 59.321 49.5209 60.427 48.6332 61.0842C47.5349 61.8977 46.1432 61.7522 44.7537 61.3799C44.5689 61.3304 44.3859 61.274 44.2011 61.2245L29.2792 56.7053C28.0513 56.3323 26.8006 55.8798 26.135 54.7771C25.5095 53.7437 25.6233 52.4977 25.8393 51.3084C26.1784 49.4404 26.6531 47.5868 27.256 45.7748C27.2578 45.768 27.2596 45.7611 27.2615 45.7543C27.4264 45.2483 27.605 44.7459 27.7905 44.2454C28.3276 42.8706 28.7325 42.0988 29.4861 41.7504ZM51.1029 52.2233C44.6593 50.6435 38.2089 49.0618 31.7653 47.482L31.3628 49.6411C31.2985 49.9907 31.1758 50.6401 30.6322 50.9713C30.1233 51.2825 29.5173 51.1348 29.1956 51.0486C29.1682 51.0412 29.1408 51.0339 29.1135 51.0265C28.8123 50.9458 28.2807 50.7667 28.1024 50.2274C27.9796 49.8644 28.1023 49.5158 28.1779 49.3159L29.0587 46.8228C28.7488 46.7471 28.439 46.6714 28.1291 46.5957C27.6155 48.2115 27.2027 49.8616 26.898 51.5187C26.7331 52.4356 26.5935 53.4766 27.0568 54.2391C27.5302 55.0188 28.5281 55.3743 29.6004 55.6983L44.5223 60.2175C46.7217 60.8802 47.4944 60.625 48.0079 60.2417C48.5772 59.8147 48.8598 59.0614 49.1461 58.1844L51.1029 52.2233ZM29.1121 49.8817C29.1427 49.9046 29.2243 49.9558 29.452 50.0095C29.6231 50.0553 29.9467 50.1347 30.0787 50.0527C30.2194 49.9656 30.2856 49.6092 30.3159 49.4413L30.7262 47.2256C30.5122 47.1755 30.3068 47.1205 30.0928 47.0705L29.1776 49.6645C29.1579 49.7106 29.1181 49.8319 29.1121 49.8817ZM28.4608 45.5768C36.1165 47.452 43.7721 49.3273 51.4327 51.2112C51.7631 50.1699 51.987 49.2248 51.7296 48.3782C51.5032 47.6352 50.8718 46.9525 49.9891 46.4959C49.5306 46.263 49.0264 46.0912 48.5198 45.9555C48.0749 45.8363 47.6295 45.7463 47.2065 45.6549C42.2782 44.6352 37.2558 43.6929 32.2917 42.8617L32.278 42.858C31.0694 42.6589 30.3392 42.5366 29.9305 42.7205C29.5633 42.8863 29.2746 43.3885 28.8016 44.6337C28.6812 44.9462 28.5676 45.2606 28.4608 45.5768ZM16.6754 52.1323C17.3441 41.5049 20.465 31.2265 23.6075 21.6068C24.1041 20.0818 24.5978 18.7322 25.5569 17.6172C26.1529 16.9259 26.9045 16.3937 27.732 16.0432C29.0454 15.2213 30.7424 14.9937 32.6621 14.8111C33.7916 14.7029 35.125 14.6273 36.4047 14.8895C37.2184 15.0562 39.2208 15.5781 40.1902 16.8062C40.6547 17.4002 40.9507 17.9931 41.2392 18.7233C41.3172 18.3774 41.4021 18.0333 41.5075 17.6948C42.0693 15.8718 42.9896 14.7098 44.314 14.1476C45.1174 13.8053 46.15 13.7299 47.2349 13.9252C48.0814 14.0787 48.9773 14.2673 49.8391 14.6377C50.7744 15.035 51.738 15.4913 52.3856 16.3324C53.1745 17.3581 53.3845 18.8744 52.9689 20.5898C52.9377 20.7061 52.9066 20.8225 52.8754 20.9389C53.3437 20.5875 53.8685 20.3539 54.5291 20.2155C55.8797 19.9391 57.0208 20.0615 58.4236 20.3566C60.397 20.768 61.8483 21.7585 63.5463 23.0058C65.2424 24.2599 66.1921 26.3558 67.0864 28.5763C67.1128 28.6421 67.1287 28.7197 67.1259 28.785C67.2971 29.1316 67.4254 29.4742 67.4953 29.8157C67.8352 31.4768 67.4562 33.1653 67.1148 34.6585C65.1309 43.4588 63.08 52.564 58.3103 60.5078C56.945 62.7831 55.353 64.9463 53.5849 66.9449L53.1273 68.2969C53.1144 68.3448 53.0929 68.3978 53.0746 68.4662C52.8839 69.0681 52.4986 70.3147 51.5607 71.2959C50.0995 72.8339 48.2153 72.7472 46.86 72.384C46.8257 72.3748 46.7915 72.3657 46.7641 72.3583C43.1491 71.3384 40.5928 70.6387 37.6307 69.8377C34.7253 69.0445 31.4347 68.1555 26.4954 66.766C26.1824 66.6747 25.7543 66.5747 25.2597 66.4495C21.3292 65.4844 17.4235 64.3718 16.649 62.3889C16.1183 61.0289 16.4431 58.9956 16.9617 56.9777C16.6732 55.125 16.5586 53.9645 16.6754 52.1323ZM52.2046 67.25C40.9408 63.645 29.4094 60.4084 17.9013 57.633C17.493 59.321 17.2537 60.9809 17.651 61.9897C17.8357 62.4501 18.5146 63.1749 20.7266 64.0097C22.3253 64.6142 24.1777 65.0665 25.5266 65.3986C25.9528 65.5054 26.3243 65.5976 26.6255 65.6783C26.6802 65.693 26.7418 65.7095 26.7897 65.7223C31.7308 67.105 35.0196 68.0009 37.9182 68.7922C40.8852 69.6019 43.4434 70.2947 47.0584 71.3147C47.0858 71.3221 47.12 71.3312 47.1474 71.3386C50.3782 72.2043 51.503 69.9232 52.0643 68.1295C52.0845 68.0542 52.1097 67.9876 52.1244 67.9328L52.2925 67.4423C52.3355 67.3364 52.41 67.305 52.2046 67.25ZM62.8121 26.1838C63.1005 28.5574 63.0976 30.9776 62.7907 33.3824C62.4465 36.0634 61.7409 38.6695 60.6803 41.1218C60.6474 41.8466 60.5781 42.5984 60.4772 43.3857C59.7562 48.8415 57.9642 54.1058 56.2317 59.2026L54.5642 64.1114C55.5957 62.7811 56.5559 61.3877 57.419 59.9462C62.0967 52.1538 64.1325 43.1326 66.0944 34.4144C66.4064 33.0307 66.7612 31.4604 66.4657 30.0167C66.2016 28.7574 64.6347 27.0757 62.8121 26.1838ZM61.6796 25.7557C61.4674 25.6988 61.2516 25.6556 61.0339 25.6193C58.7975 25.3135 57.3408 25.7669 56.4838 27.0486C56.9828 27.7325 57.4193 28.4584 57.7881 29.2175C59.3072 32.3097 60.3356 35.0429 60.6171 38.2363C61.9032 34.2304 62.2717 29.898 61.6796 25.7557ZM52.3387 23.106C52.3642 23.1202 52.3829 23.1326 52.4085 23.1467C53.6988 23.9987 54.8402 25.0235 55.8143 26.1795C56.3501 25.4941 57.0509 25.0143 57.9012 24.7432C58.8154 24.4526 59.8873 24.395 61.1821 24.5732C61.5422 24.6257 61.9274 24.7216 62.317 24.8553C62.3307 24.859 62.3376 24.8608 62.3513 24.8645C63.1835 25.1535 64.0608 25.6307 64.8552 26.2251C64.3264 25.269 63.7112 24.4439 62.9199 23.865C61.278 22.6548 59.9813 21.7718 58.2101 21.3999C56.9118 21.1254 55.9287 21.016 54.7488 21.2574C53.7813 21.4457 53.1929 21.8896 52.3387 23.106ZM49.7757 15.7505C49.8957 16.1788 49.9217 16.5746 49.932 16.7828C49.9623 17.3265 49.9667 17.8852 49.9387 18.4279L49.9368 18.4348C49.8863 19.4997 49.7207 20.5558 49.4455 21.5825C50.0738 21.8389 50.6842 22.1345 51.2718 22.4607C51.3336 22.2571 51.4042 22.0486 51.4711 21.8538C51.6484 21.3291 51.8096 20.8367 51.9317 20.3265C52.1275 19.5133 52.3421 18.0008 51.5413 16.9645C51.1293 16.4213 50.4838 16.0649 49.7757 15.7505ZM45.8623 16.9395C46.8568 17.0886 47.9319 17.3473 48.8961 17.6643C48.8955 17.3927 48.888 17.1193 48.8719 16.8509C48.8204 16.0301 48.6311 15.5318 48.2908 15.3233C48.0135 15.1536 47.604 15.1759 47.2345 15.3777C46.8129 15.6095 46.481 16.0268 46.2432 16.3666C46.1079 16.5431 45.9826 16.7369 45.8623 16.9395ZM45.3384 17.9363C44.9956 18.6954 44.7605 19.4908 44.623 20.305C44.6591 20.3073 44.7001 20.3183 44.7362 20.3206C46.0105 20.4933 47.2586 20.7911 48.4463 21.2047C48.6522 20.4089 48.7915 19.5878 48.85 18.7671C47.7563 18.386 46.4721 18.086 45.3384 17.9363ZM42.0418 20.1636C42.5508 20.1532 43.0593 20.1721 43.5641 20.2047C43.7334 19.1349 44.0601 18.1073 44.5424 17.1287C44.5442 17.1219 44.5442 17.1219 44.546 17.115L44.5479 17.1082C44.7863 16.6292 45.0621 16.1748 45.3684 15.7434C45.5605 15.4647 45.8064 15.1491 46.1153 14.8724C45.5945 14.8722 45.1188 14.9502 44.7223 15.1154C43.7043 15.5469 42.982 16.4905 42.5132 17.9936C42.3088 18.7018 42.1764 19.4147 42.0418 20.1636ZM36.1405 22.4193C36.0971 22.4443 36.0555 22.4625 36.009 22.4721C33.6236 23.4616 31.4571 25.0307 29.6634 27.1251C25.8168 31.5967 24.2344 35.2298 22.5013 40.7666C22.1327 42.1424 21.738 43.5333 21.3561 44.8763C20.6488 47.3792 19.9108 49.9693 19.3225 52.5481C19.1853 53.1423 18.9667 53.8761 18.7118 54.7175C18.5317 55.3075 18.3457 55.9473 18.1609 56.6094C29.7443 59.405 41.3578 62.6636 52.6951 66.2957L55.2215 58.8658C56.9393 53.8238 58.7116 48.6057 59.4187 43.2561C60.1475 37.7437 59.0771 34.2362 56.8399 29.6897C56.446 28.8872 55.9809 28.1316 55.4444 27.423C55.4276 27.4038 55.4107 27.3846 55.4007 27.3673C54.4235 26.0857 53.2321 24.9741 51.8158 24.0444C49.7213 22.6615 47.2255 21.736 44.5893 21.3891C43.5346 21.2458 42.497 21.2026 41.4699 21.2575C41.4544 21.2607 41.3959 21.2597 41.3804 21.2629C39.5672 21.3493 37.8038 21.7425 36.1405 22.4193ZM32.3842 15.9031C32.4508 15.9283 32.5106 15.9517 32.5772 15.9768C32.8076 16.0753 33.0393 16.196 33.2637 16.3442L33.2706 16.3461C33.2706 16.3461 33.2706 16.3461 33.2774 16.3479C34.7585 17.3096 35.9498 19.2429 36.3172 21.2121C37.7165 20.6993 39.1831 20.3733 40.6791 20.2386C40.226 18.9727 39.9485 18.2014 39.3646 17.4507C38.8446 16.7905 37.663 16.2171 36.2017 15.9209C35.0608 15.6886 33.877 15.7529 32.7768 15.8616C32.6339 15.8747 32.5047 15.8914 32.3842 15.9031ZM29.0704 25.9978C29.0379 26.0918 29.0104 26.1945 28.9778 26.2885C30.7445 24.2675 32.9184 22.671 35.296 21.6281C35.0478 20.0356 34.1505 18.4013 33.0159 17.4883C31.1371 19.3252 30.1285 22.5691 29.0704 25.9978ZM17.7348 52.2034C17.6873 52.983 17.6747 53.6326 17.7213 54.3347C17.9472 53.5736 18.1622 52.8535 18.2866 52.3072C18.8822 49.701 19.6239 47.0972 20.3349 44.5806C20.7167 43.2377 21.1096 41.8536 21.4783 40.4778C21.4801 40.4709 21.4819 40.4641 21.4838 40.4573C22.9771 35.6779 24.363 32.2856 27.1259 28.5728C27.4516 27.6036 27.7568 26.6289 28.0478 25.6798C29.1164 22.2392 30.1237 18.973 32.0662 16.9257C30.1453 16.1542 27.7066 16.7406 26.3549 18.3079C25.522 19.2806 25.0713 20.5244 24.6127 21.9348C21.5004 31.4966 18.3997 41.6997 17.7348 52.2034ZM37.4321 30.9601C37.3087 30.7363 37.3597 30.4639 37.5516 30.2952C39.5243 28.6008 41.7407 27.2286 44.1353 26.2048C44.376 26.1006 44.6598 26.1913 44.7969 26.4188C45.237 27.131 45.7013 27.835 46.1488 28.5198C47.0824 29.9364 48.0498 31.3914 48.817 32.991C48.94 33.244 48.8437 33.5483 48.5939 33.6868C47.5163 34.2858 46.4126 35.0098 45.3454 35.7069C44.2609 36.4141 43.1467 37.15 42.0276 37.7672C41.9061 37.8373 41.7632 37.8504 41.6331 37.8155C41.5304 37.788 41.4301 37.7245 41.3576 37.639C40.2309 36.2586 39.3765 34.6285 38.4719 32.9115C38.144 32.2734 37.7993 31.6161 37.4321 30.9601ZM38.5739 30.8332C38.8641 31.3658 39.1455 31.9035 39.4188 32.4169C40.2199 33.9447 40.9846 35.3895 41.9093 36.6204C42.864 36.0692 43.8252 35.439 44.7604 34.8239C45.6955 34.2088 46.6654 33.5736 47.6306 33.0105C46.9297 31.6562 46.11 30.4168 45.2502 29.108C44.8797 28.5465 44.4924 27.9659 44.1225 27.3752C42.1289 28.2716 40.2632 29.4298 38.5739 30.8332Z" fill="#6A43D7"/>
</g>
<defs>
<clipPath id="clip0_1_35">
<rect width="68.0298" height="68.0298" fill="white" transform="translate(17.6074) rotate(15)"/>
</clipPath>
</defs>
</svg>
