<svg width="220" height="220" viewBox="0 0 220 220" fill="none" xmlns="http://www.w3.org/2000/svg">
<g clip-path="url(#clip0_1_497)">
<mask id="mask0_1_497" style="mask-type:luminance" maskUnits="userSpaceOnUse" x="0" y="-150" width="370" height="370">
<path d="M370 -150H0V220H370V-150Z" fill="white"/>
</mask>
<g mask="url(#mask0_1_497)">
<path fill-rule="evenodd" clip-rule="evenodd" d="M270.786 -86.0107C273.114 -91.6208 274.303 -97.6365 274.29 -103.71C274.294 -112.846 271.591 -121.779 266.522 -129.381C261.453 -136.983 254.247 -142.912 245.811 -146.421C237.375 -149.93 228.088 -150.86 219.123 -149.096C210.16 -147.331 201.918 -142.95 195.441 -136.505L185.007 -126.788L174.644 -136.473C165.965 -145.142 154.198 -150.007 141.932 -150C129.665 -149.993 117.904 -145.113 109.236 -136.434C100.568 -127.755 95.702 -115.988 95.7094 -103.721C95.717 -91.4551 100.597 -79.6941 109.276 -71.0257L180.463 1.21419C181.057 1.81673 181.764 2.29515 182.544 2.62186C183.324 2.94838 184.161 3.11673 185.007 3.11673C185.853 3.11673 186.691 2.94838 187.47 2.62186C188.25 2.29515 188.957 1.81673 189.551 1.21419L260.739 -71.0257C265.046 -75.3074 268.461 -80.4006 270.786 -86.0107ZM99.2129 156.01C96.8867 161.621 95.6961 167.636 95.7096 173.709C95.7055 182.846 98.4085 191.78 103.477 199.382C108.546 206.983 115.753 212.913 124.189 216.42C132.625 219.93 141.911 220.86 150.876 219.095C159.841 217.33 168.081 212.95 174.558 206.506L184.993 196.788L195.356 206.473C204.035 215.142 215.803 220.007 228.068 220C240.335 219.993 252.096 215.112 260.765 206.434C269.432 197.756 274.298 185.988 274.29 173.722C274.283 161.455 269.403 149.694 260.724 141.025L189.536 68.7866C188.944 68.1835 188.236 67.7043 187.455 67.3787C186.676 67.0513 185.838 66.8829 184.993 66.8829C184.147 66.8829 183.31 67.0513 182.53 67.3787C181.75 67.7043 181.042 68.1835 180.449 68.7866L109.262 141.025C104.954 145.308 101.539 150.401 99.2129 156.01ZM323.709 124.292C317.636 124.305 311.621 123.114 306.01 120.788C300.401 118.463 295.308 115.046 291.025 110.739L218.787 39.5529C218.183 38.959 217.704 38.2504 217.379 37.4716C217.051 36.6909 216.883 35.8547 216.883 35.0074C216.883 34.1625 217.051 33.3252 217.379 32.5452C217.704 31.7651 218.183 31.0577 218.787 30.4644L291.025 -40.7231C299.694 -49.402 311.455 -54.2821 323.722 -54.2895C335.988 -54.2969 347.756 -49.4314 356.434 -40.763C365.112 -32.0947 369.993 -20.3337 370 -8.06726C370.007 4.19916 365.142 15.9661 356.473 24.645L346.788 35.0074L356.506 45.4433C362.95 51.9201 367.33 60.16 369.095 69.1251C370.86 78.0902 369.93 87.3754 366.42 95.8114C362.913 104.247 356.983 111.455 349.382 116.524C341.78 121.593 332.846 124.296 323.709 124.292ZM63.9893 -50.7882C58.3792 -53.1144 52.3635 -54.3051 46.2903 -54.2915C37.1537 -54.2956 28.2206 -51.5926 20.6192 -46.5239C13.0175 -41.4551 7.08798 -34.2479 3.5792 -25.8119C0.070397 -17.3759 -0.860391 -8.08965 0.904337 0.874908C2.66907 9.83945 7.05018 18.0803 13.4946 24.5568L23.2121 34.9919L13.5265 45.3544C4.85816 54.0347 -0.00746658 65.8006 8.60051e-06 78.068C0.00748379 90.3335 4.88744 102.094 13.5664 110.763C22.2453 119.432 34.0122 124.298 46.2787 124.29C58.5449 124.283 70.3059 119.403 78.9743 110.722L151.214 39.5362C151.817 38.9424 152.295 38.2357 152.622 37.455C152.948 36.6743 153.117 35.838 153.117 34.9917C153.117 34.146 152.948 33.3087 152.622 32.5288C152.295 31.7486 151.817 31.0414 151.214 30.4479L78.9743 -40.7396C74.6926 -45.0467 69.5994 -48.4622 63.9893 -50.7882Z" fill="white" fill-opacity="0.3"/>
</g>
</g>
<defs>
<clipPath id="clip0_1_497">
<rect width="370" height="370" fill="white" transform="translate(0 -150)"/>
</clipPath>
</defs>
</svg>
