<svg width="97" height="97" viewBox="0 0 97 97" fill="none" xmlns="http://www.w3.org/2000/svg">
<g clip-path="url(#clip0_1_256)">
<path d="M42.9237 32.9613C43.1546 33.1168 43.3962 33.2327 43.6426 33.2987C44.0877 33.418 44.5474 33.3878 44.9637 33.2012C45.6033 32.9125 46.0372 32.2791 46.124 31.51C46.2108 30.7409 45.9333 30.0276 45.3757 29.5971C45.3481 29.5727 45.2316 29.4988 45.2041 29.4744C44.6055 29.1011 43.8411 29.0922 43.1505 29.4439C42.4599 29.7955 42.0182 30.4269 41.9744 31.1308C41.9306 31.8347 42.2844 32.5173 42.9237 32.9613ZM43.7148 30.5492C43.902 30.4546 44.1566 30.395 44.3791 30.4546C44.5063 30.4887 44.591 30.554 44.6186 30.5784C44.8743 30.8003 44.919 31.1105 44.8928 31.3675C44.8665 31.6246 44.7293 31.9456 44.4477 32.0747C44.1661 32.2037 43.8307 32.0882 43.6236 31.939C43.4085 31.7877 43.1894 31.5245 43.2046 31.2134C43.2278 30.9043 43.4873 30.6672 43.7148 30.5492ZM70.3586 76.6394C70.0885 76.4392 69.7988 76.2168 69.5054 75.9763C69.7272 75.3712 69.8774 74.7469 69.9518 74.1194C70.1173 72.7069 69.7291 71.5805 68.8922 71.0155C67.8519 70.3193 66.5177 70.7201 65.8035 70.9376C65.4323 71.0511 65.0531 71.1625 64.6819 71.2761L64.6358 71.2893C64.0212 70.5623 63.5238 69.8752 63.2382 69.2876C62.995 68.7964 62.6923 67.923 62.374 66.7898L64.7413 64.6638C65.6168 63.8761 66.5792 62.7964 66.2356 61.5031C66.052 60.7894 65.4027 59.8742 63.3782 59.5447C62.4804 59.3979 61.5634 59.3226 60.6453 59.3151C60.3107 57.6068 59.999 55.8449 59.7382 54.1478C60.9355 53.3355 62.125 52.5212 63.3223 51.7089L63.4598 51.6094C64.0757 51.1866 65.2205 50.4114 65.3016 49.1552C65.3519 48.2997 64.8573 47.443 64.0119 46.9098C63.3265 46.4791 62.5506 46.3223 61.8622 46.1889C60.9173 45.9954 59.9644 45.7997 59.0174 45.6141C59.0207 45.5383 59.034 45.4567 59.0431 45.391L59.1094 44.889C59.2357 43.9091 59.3705 42.8973 59.4714 41.8849C61.2348 41.1221 62.8237 40.057 64.2093 38.7329C65.4124 37.5814 65.849 36.429 65.4712 35.3906C65.1315 34.4647 64.2332 33.8747 62.7387 33.602C61.463 33.3709 60.1591 33.2771 58.8688 33.3233C58.6612 32.731 58.4053 32.1597 58.0853 31.6054C57.5754 30.7106 57.0595 29.9334 56.5302 29.2378C56.9654 27.9316 57.2893 26.5957 57.4897 25.2437C57.5639 24.7439 57.7932 23.2207 56.769 22.401C56.1366 21.8993 55.2435 21.8304 54.1135 22.2006C52.6483 22.677 51.2733 23.4843 50.1196 24.5468C49.5029 24.3048 48.8263 24.0639 48.0818 23.8218C46.8032 23.4111 45.543 23.0904 44.3193 22.8563L44.1293 22.1664C43.9488 21.5046 43.7662 20.8508 43.5857 20.1891C43.4184 19.5734 43.2226 18.8735 42.8337 18.2581C42.3554 17.4995 41.643 17.0104 40.884 16.9178C39.7127 16.7744 38.6204 17.5125 37.6336 19.0968C36.8725 20.3157 36.1962 21.5998 35.6131 22.9174C35.068 23.044 34.5404 23.2008 34.0244 23.3778C31.7313 24.1776 29.5912 25.6147 28.0158 27.4247C26.3161 29.3802 25.3258 31.6452 25.1507 33.9837C24.822 38.4536 28.6027 42.3717 32.7363 44.1779C30.4088 47.141 27.1433 53.0645 26.1934 57.9131C25.8516 57.8215 25.4939 57.7257 25.1225 57.6176C25.4556 55.6111 24.5971 54.0776 22.7008 53.365C21.3857 52.8678 19.3652 53.1273 17.8159 54.8079C16.6774 56.0364 16.1675 57.7485 15.713 59.2539L15.6939 59.3254C15.2686 60.7535 14.6741 64.5302 14.9542 66.1558C15.3543 68.478 16.8438 69.4054 18.4176 69.8271C19.2602 70.0528 20.1331 70.1334 20.8725 70.2037C21.4306 70.251 21.9548 70.2978 22.3364 70.4C24.5886 70.9609 27.933 71.7378 31.8143 72.6414C43.0406 75.2576 58.4147 78.8318 67.8064 81.8084C69.3054 82.2867 71.9351 82.838 72.7422 81.2567C73.3559 80.0154 72.4029 78.1669 70.3586 76.6394ZM66.1429 72.1191C66.8651 71.9036 67.6791 71.6958 68.1923 72.0378C68.3581 72.1503 68.8733 72.6121 68.7148 73.9668C68.6703 74.3553 68.5861 74.7332 68.4759 75.1126C67.4884 74.2516 66.441 73.2639 65.5331 72.2964C65.7356 72.24 65.9403 72.1755 66.1429 72.1191ZM63.18 60.761C63.8012 60.8593 64.8626 61.1267 65.0367 61.8123C65.1212 62.1331 65.0961 62.6716 63.9064 63.7415L62.0093 65.4483C61.6421 64.0208 61.2592 62.3336 60.8861 60.5468C61.6563 60.5657 62.4216 60.6345 63.18 60.761ZM61.6063 47.3983C62.2211 47.5204 62.8517 47.6468 63.3475 47.9586C63.7188 48.1944 64.0888 48.6258 64.0613 49.0784C64.0213 49.6726 63.3682 50.1706 62.7623 50.5876L62.6249 50.6871C61.593 51.3904 60.5713 52.0878 59.5394 52.7911C59.2109 50.488 59.0045 48.3965 58.9804 46.8651C59.8458 47.0373 60.725 47.2218 61.6063 47.3983ZM62.5008 34.8077C63.5157 34.9944 64.1249 35.328 64.2945 35.808C64.5539 36.525 63.8049 37.3807 63.3342 37.8339C62.2346 38.8853 60.9459 39.7839 59.5632 40.4612C59.6928 38.4513 59.6629 36.4327 59.2055 34.5466C60.3198 34.5215 61.4202 34.6118 62.5008 34.8077ZM54.481 23.3726C54.9668 23.213 55.6237 23.0824 55.9822 23.3659C56.2973 23.6207 56.3878 24.1731 56.2511 25.0651C56.094 26.0965 55.8712 27.1188 55.5689 28.1197C55.0533 27.5641 54.5025 27.0758 53.9152 26.6287C53.1584 26.0511 52.3284 25.5561 51.3541 25.0905C52.2911 24.3278 53.3531 23.7348 54.481 23.3726ZM38.6606 19.7469C39.3766 18.6012 40.0663 18.0618 40.7198 18.1347C41.1004 18.1771 41.4987 18.4712 41.7727 18.911C42.0664 19.373 42.2263 19.9526 42.3767 20.5041C42.5572 21.1658 42.7398 21.8197 42.9203 22.4814L42.9636 22.6378C40.8982 22.3656 38.9241 22.3563 37.0791 22.6287C37.5489 21.6385 38.0801 20.6733 38.6606 19.7469ZM71.6281 80.677C71.4628 81.0076 70.5406 81.3653 68.1619 80.6087C58.7146 77.6172 43.3166 74.0366 32.0745 71.4162C28.2011 70.5147 24.8646 69.7399 22.6204 69.1812C22.1493 69.0635 21.5753 69.0119 20.9673 68.9597C18.4979 68.7325 16.5757 68.3708 16.1556 65.9325C15.9303 64.6112 16.4307 61.0904 16.8639 59.6645L16.8831 59.593C17.3126 58.149 17.7628 56.6594 18.7023 55.6333C19.5176 54.7527 20.973 54.0266 22.2483 54.5132C23.7181 55.0689 24.2341 56.1954 23.7826 57.8806C23.6974 58.1985 23.8794 58.5369 24.2031 58.6322C25.6768 59.0782 26.9332 59.3808 28.15 59.6727C29.3111 59.9497 30.5098 60.2454 31.8822 60.6557C31.8902 60.6578 31.8902 60.6578 31.8981 60.66C32.2161 60.7452 32.5545 60.5632 32.6497 60.2395C32.745 59.9157 32.5652 59.5693 32.2335 59.4719C30.8293 59.0531 29.6125 58.7611 28.4377 58.4719C28.0858 58.3861 27.726 58.2982 27.3661 58.2103C28.3679 53.0092 32.215 46.5685 34.1891 44.3201C34.5993 43.9018 34.5632 43.5599 33.9342 43.3317C31.9266 42.5893 29.9764 41.283 28.5831 39.7425C27.4661 38.506 26.1681 36.514 26.3571 34.0599C26.5117 31.9885 27.3941 29.9673 28.9186 28.2204C30.3577 26.5698 32.3121 25.2533 34.4063 24.528C38.163 23.2258 42.7555 23.3829 47.6871 24.9769C48.5487 25.2589 49.3026 25.5291 49.9845 25.8141C49.9925 25.8162 50.0004 25.8183 50.0084 25.8204C51.2789 26.3568 52.2854 26.9247 53.1703 27.5963C53.9489 28.1883 54.652 28.8708 55.3226 29.7065C55.3306 29.7086 55.3284 29.7166 55.3364 29.7187C55.9054 30.425 56.4525 31.2446 56.9974 32.1999C59.0355 35.7534 58.4165 40.5118 57.8729 44.7026L57.8066 45.2045C57.7724 45.4594 57.7556 45.7446 57.7462 46.0658C57.7441 46.0737 57.742 46.0817 57.7478 46.0918C57.6089 50.5528 59.5343 61.045 61.067 66.6441C61.0701 66.696 61.0912 66.7443 61.1102 66.8005C61.4844 68.1702 61.8399 69.2281 62.1355 69.81C62.5121 70.5669 63.162 71.4481 63.9512 72.3497C63.965 72.3619 63.9766 72.382 63.9904 72.3942C65.7061 74.3534 68.0545 76.431 69.6317 77.6033C71.3778 78.9401 71.8592 80.2278 71.6281 80.677ZM46.0542 53.4545C44.9213 54.4714 43.5412 55.584 41.8325 56.1741C40.5375 56.6194 39.1932 56.6766 38.0247 56.3635C37.516 56.2272 37.0423 56.0236 36.6218 55.7491C34.9273 54.6646 34.182 52.4543 34.9542 50.8125C35.5877 49.4658 36.9789 48.7566 38.1245 48.2968C38.3053 48.226 38.4883 48.1472 38.6771 48.0785C39.6296 47.7033 40.5317 47.3572 41.185 46.7314C41.4344 46.5 41.8256 46.5026 42.0569 46.752C42.2883 47.0015 42.2857 47.3927 42.0363 47.624C41.2004 48.4224 40.1435 48.8378 39.1167 49.2357C38.9359 49.3065 38.755 49.3773 38.5821 49.4503C37.6535 49.8319 36.5264 50.3818 36.071 51.3503C35.5597 52.4316 36.1166 53.978 37.2819 54.7162C38.3799 55.4193 39.9271 55.5272 41.429 55.0095C42.9308 54.4918 44.1936 53.4671 45.2273 52.5343C45.4847 52.3051 45.8717 52.3236 46.1009 52.581C46.3301 52.8383 46.3015 53.2311 46.0542 53.4545Z" fill="#6A43D7"/>
</g>
<defs>
<clipPath id="clip0_1_256">
<rect width="79" height="79" fill="white" transform="translate(20.4467) rotate(15)"/>
</clipPath>
</defs>
</svg>
