<svg width="220" height="220" viewBox="0 0 220 220" fill="none" xmlns="http://www.w3.org/2000/svg">
<path fill-rule="evenodd" clip-rule="evenodd" d="M185 35C185 35 208.125 -26.926 208.125 -70.7144C208.125 -114.503 197.772 -150 185 -150C172.228 -150 161.875 -114.503 161.875 -70.7144C161.875 -26.926 185 35 185 35ZM185 35C185 35 212.437 95.1398 243.399 126.103C274.362 157.067 306.784 174.845 315.815 165.815C324.845 156.784 307.067 124.362 276.103 93.399C245.14 62.4374 185 35 185 35ZM185 35C185 35 246.927 11.875 290.715 11.875C334.502 11.875 370 22.2283 370 35C370 47.7724 334.502 58.125 290.715 58.125C246.927 58.125 185 35 185 35ZM185 35C185 35 124.86 62.4374 93.8968 93.399C62.9339 124.362 45.1542 156.784 54.1852 165.815C63.2162 174.845 95.6376 157.067 126.601 126.103C157.564 95.1398 185 35 185 35ZM185 35C185.052 35.1369 208.125 96.975 208.125 140.715C208.125 184.502 197.772 220 185 220C172.228 220 161.875 184.502 161.875 140.715C161.875 96.9269 185 35 185 35ZM185 35C185 35 123.074 11.875 79.2856 11.875C35.4974 11.875 0 22.2283 0 35C0 47.7724 35.4974 58.125 79.2856 58.125C123.074 58.125 185 35 185 35ZM185 35C185 35 245.14 7.5634 276.103 -23.3995C307.067 -54.3626 324.845 -86.784 315.815 -95.8148C306.784 -104.846 274.362 -87.0661 243.399 -56.1032C212.437 -25.1402 185 35 185 35ZM126.601 -56.1032C157.564 -25.1402 185 35 185 35C185 35 124.86 7.56358 93.8969 -23.3995C62.9339 -54.3624 45.1544 -86.7838 54.1852 -95.8148C63.2162 -104.846 95.6376 -87.0661 126.601 -56.1032Z" fill="white" fill-opacity="0.2"/>
</svg>
