<svg width="42" height="41" viewBox="0 0 42 41" fill="none" xmlns="http://www.w3.org/2000/svg">
<g clip-path="url(#clip0_1_445)">
<path fill-rule="evenodd" clip-rule="evenodd" d="M33.6846 10.6526C30.6477 23.5292 19.7829 31.3446 6.85543 28.0174C6.42505 27.9066 5.98633 28.1655 5.87428 28.5913C5.76399 29.0237 6.02307 29.463 6.45344 29.5738C20.3116 33.1463 31.9947 24.8219 35.2512 11.0243C35.3536 10.5941 35.0847 10.1573 34.6521 10.0541C34.2213 9.95753 33.787 10.2224 33.6846 10.6526Z" fill="#6A43D7"/>
<path d="M15.0121 20.6583C16.2624 20.3233 17.0044 19.0382 16.6694 17.7879C16.3344 16.5376 15.0493 15.7957 13.799 16.1307C12.5487 16.4657 11.8067 17.7508 12.1417 19.0011C12.4768 20.2514 13.7619 20.9933 15.0121 20.6583Z" fill="#6A43D7"/>
<path d="M23.7388 15.739C24.9647 15.4105 25.6921 14.1505 25.3637 12.9247C25.0352 11.6988 23.7752 10.9714 22.5493 11.2999C21.3235 11.6283 20.596 12.8883 20.9245 14.1142C21.253 15.34 22.513 16.0675 23.7388 15.739Z" fill="#6A43D7"/>
</g>
<defs>
<clipPath id="clip0_1_445">
<rect width="33.3863" height="33.3863" fill="white" transform="translate(0.432678 8.68518) rotate(-15)"/>
</clipPath>
</defs>
</svg>
