<svg width="27" height="26" viewBox="0 0 27 26" fill="none" xmlns="http://www.w3.org/2000/svg">
<path opacity="0.5" d="M4.87157 12.5377C5.37184 10.0364 5.62197 8.78578 6.52052 8.04914C7.41908 7.3125 8.6945 7.3125 11.2453 7.3125H15.7546C18.3054 7.3125 19.5808 7.3125 20.4794 8.04914C21.3779 8.78578 21.6281 10.0364 22.1283 12.5377L22.7783 15.7877C23.4978 19.3849 23.8575 21.1834 22.8823 22.373C21.9071 23.5625 20.0729 23.5625 16.4046 23.5625H10.5953C6.92699 23.5625 5.09281 23.5625 4.11762 22.373C3.14244 21.1834 3.50215 19.3849 4.22157 15.7877L4.87157 12.5377Z" fill="#130240"/>
<circle cx="16.75" cy="10.5626" r="1.08333" fill="#130240"/>
<circle cx="10.25" cy="10.5626" r="1.08333" fill="#130240"/>
<path d="M11.0625 6.22925C11.0625 4.88305 12.1538 3.79175 13.5 3.79175C14.8462 3.79175 15.9375 4.88305 15.9375 6.22925V7.31258H16.4046C16.8128 7.31258 17.1983 7.31258 17.5625 7.31422L17.5625 6.22925C17.5625 3.98559 15.7437 2.16675 13.5 2.16675C11.2563 2.16675 9.4375 3.98559 9.4375 6.22925L9.4375 7.31422C9.80164 7.31258 10.1871 7.31258 10.5954 7.31258H11.0625V6.22925Z" fill="#130240"/>
</svg>
