<svg width="44" height="44" viewBox="0 0 44 44" fill="none" xmlns="http://www.w3.org/2000/svg">
<path d="M24.6633 15.3953C27.8324 12.7017 30.323 9.50866 31.3955 6.32171L31.4147 6.26465C34.0102 7.81448 36.2578 10.029 37.8766 12.8329C39.495 15.636 40.2891 18.689 40.3339 21.7109C36.6752 20.9201 32.6591 21.5256 28.8648 22.9558C28.2767 21.3725 27.6092 19.8633 26.8583 18.5626C26.2419 17.4951 25.4901 16.4303 24.6633 15.3953Z" fill="#130240"/>
<path fill-rule="evenodd" clip-rule="evenodd" d="M6.12236 31.1662C7.74145 33.9705 9.98955 36.1853 12.5856 37.7352L12.5863 37.7328C14.0862 33.2081 18.4529 28.6652 23.5712 25.5508C24.4623 25.0086 25.3871 24.503 26.3355 24.044C25.7816 22.536 25.1618 21.1243 24.4767 19.9376C23.9302 18.991 23.2519 18.0317 22.4943 17.0857C21.8601 17.5388 21.2082 17.9711 20.5433 18.3794C15.4875 21.4834 9.33675 23.4085 3.93018 22.3437L3.66516 22.2915C3.71052 25.3124 4.50454 28.3641 6.12236 31.1662Z" fill="#130240"/>
<g opacity="0.5">
<path d="M29.7474 25.5612C33.2079 24.2433 36.7352 23.7368 39.7883 24.4065L40.1636 24.4889C39.9403 26.11 39.5015 27.6963 38.8595 29.2023C37.5315 32.3175 35.3337 35.0893 32.374 37.116L32.3512 36.9709C32.2957 36.6204 32.2126 36.1149 32.1015 35.4892C31.8794 34.2387 31.5442 32.504 31.0919 30.5653C30.7271 29.0018 30.2805 27.2806 29.7474 25.5612Z" fill="#130240"/>
<path d="M15.2507 6.33242C14.7887 5.967 14.4124 5.67865 14.1503 5.48065L14.1093 5.44973C17.3405 3.90502 20.8345 3.3897 24.1915 3.79661C25.8183 3.9938 27.4129 4.40756 28.9298 5.0257L28.7889 5.44451C27.914 8.04408 25.7636 10.854 22.8702 13.3108C21.5311 11.8532 20.1188 10.5028 18.8322 9.34876C17.444 8.10366 16.1742 7.06269 15.2507 6.33242Z" fill="#130240"/>
<path d="M19.1041 16.0358C14.362 18.9473 8.92842 20.5253 4.46128 19.6455L3.83319 19.5218C4.51021 14.5839 7.18561 9.96866 11.5159 6.95787L12.1171 7.39495L12.1209 7.39769L12.138 7.41022L12.2096 7.46299C12.2734 7.51028 12.369 7.58149 12.4927 7.67497C12.7403 7.86197 13.1004 8.13785 13.5449 8.48942C14.4347 9.19312 15.6594 10.1971 16.996 11.3959C18.2056 12.4809 19.4851 13.7063 20.6846 14.9977C20.1727 15.3568 19.6451 15.7036 19.1041 16.0358Z" fill="#130240"/>
<path d="M29.7087 37.8815L29.7121 37.9051L29.713 37.9116L29.8093 38.5872C25.0336 40.8422 19.6923 40.8565 15.0716 38.9745L15.1964 38.598C16.4129 34.9281 20.182 30.8319 25.0004 27.9C25.7243 27.4596 26.4637 27.0503 27.2128 26.6762C27.6751 28.1976 28.0756 29.7408 28.4138 31.1901C28.8525 33.0703 29.1781 34.7555 29.3939 35.9702C29.5017 36.5772 29.5819 37.0656 29.635 37.4008C29.6615 37.5684 29.6812 37.6977 29.6942 37.7842L29.7087 37.8815Z" fill="#130240"/>
</g>
</svg>
