<svg width="32" height="32" viewBox="0 0 32 32" fill="none" xmlns="http://www.w3.org/2000/svg">
<path opacity="0.5" fill-rule="evenodd" clip-rule="evenodd" d="M11.3275 26.7157C7.95782 24.2022 4 21.25 4 16.1323C4 10.4827 10.6002 6.47606 16 11.9075C21.3998 6.47606 28 10.4827 28 16.1323C28 21.25 24.0422 24.2022 20.6725 26.7157C20.3222 26.977 19.9783 27.2335 19.6459 27.4872C18.4 28.4381 17.2 29.3334 16 29.3334C14.8 29.3334 13.6 28.4381 12.3541 27.4872C12.0217 27.2335 11.6778 26.977 11.3275 26.7157Z" fill="#130240"/>
<path d="M16 15C16.5523 15 17 15.4477 17 16V19.3333C17 19.8856 16.5523 20.3333 16 20.3333C15.4477 20.3333 15 19.8856 15 19.3333V16C15 15.4477 15.4477 15 16 15Z" fill="#130240"/>
<path d="M10.3333 9.33329C10.3333 7.32703 10.9297 5.9479 11.8518 5.06561C12.7813 4.17614 14.1725 3.66663 16 3.66663C17.8275 3.66663 19.2186 4.17614 20.1482 5.06561C21.0702 5.9479 21.6666 7.32703 21.6666 9.33329V9.33508C22.3648 9.35181 23.0374 9.48567 23.6666 9.71889V9.33329C23.6666 6.92128 22.938 4.96708 21.5309 3.6206C20.1313 2.28131 18.1891 1.66663 16 1.66663C13.8109 1.66663 11.8687 2.28131 10.4691 3.6206C9.06191 4.96708 8.33331 6.92128 8.33331 9.33329V9.71889C8.96257 9.48567 9.63516 9.35181 10.3333 9.33508V9.33329Z" fill="#130240"/>
</svg>
