<svg width="44" height="44" viewBox="0 0 44 44" fill="none" xmlns="http://www.w3.org/2000/svg">
<path d="M18.8413 30.2775C18.8499 30.0762 19.1835 29.9962 19.2824 30.1718C19.7468 30.9962 20.5391 32.2087 21.4381 32.76C22.3371 33.3113 23.777 33.4677 24.7224 33.5079C24.9238 33.5164 25.0038 33.85 24.8281 33.949C24.0037 34.4134 22.7912 35.2057 22.2399 36.1047C21.6886 37.0036 21.5322 38.4435 21.4921 39.389C21.4835 39.5903 21.1499 39.6703 21.051 39.4947C20.5865 38.6703 19.7943 37.4578 18.8953 36.9065C17.9963 36.3552 16.5564 36.1988 15.611 36.1586C15.4096 36.1501 15.3296 35.8165 15.5052 35.7175C16.3297 35.2531 17.5422 34.4608 18.0935 33.5618C18.6448 32.6629 18.8012 31.223 18.8413 30.2775Z" fill="white"/>
<path opacity="0.5" d="M33.9023 28.4443C33.8868 28.2433 33.5351 28.159 33.4301 28.3311C33.1143 28.849 32.6587 29.4741 32.1524 29.7846C31.6461 30.0951 30.8824 30.2177 30.2775 30.2644C30.0766 30.2799 29.9922 30.6317 30.1643 30.7366C30.6823 31.0525 31.3074 31.508 31.6179 32.0144C31.9284 32.5207 32.051 33.2844 32.0977 33.8892C32.1132 34.0902 32.4649 34.1745 32.5699 34.0024C32.8858 33.4845 33.3413 32.8594 33.8476 32.5489C34.3539 32.2384 35.1176 32.1158 35.7225 32.0691C35.9235 32.0536 36.0078 31.7018 35.8357 31.5969C35.3177 31.281 34.6927 30.8255 34.3822 30.3192C34.0716 29.8128 33.949 29.0491 33.9023 28.4443Z" fill="white"/>
<path d="M26.9568 7.33673L26.5125 6.7756C24.7954 4.60663 23.9368 3.52214 22.9379 3.68224C21.939 3.84233 21.4614 5.14098 20.5061 7.73827L20.259 8.41022C19.9875 9.14829 19.8518 9.51733 19.5915 9.78819C19.3312 10.059 18.9758 10.2011 18.2649 10.4851L17.6178 10.7437L17.1634 10.9255C14.9643 11.8078 13.8561 12.3078 13.7147 13.2794C13.5637 14.3157 14.6126 15.2022 16.7103 16.9752L17.253 17.4339C17.8491 17.9377 18.1472 18.1896 18.318 18.533C18.4889 18.8764 18.5132 19.2723 18.5618 20.0642L18.6061 20.7852C18.7773 23.5719 18.8629 24.9653 19.7685 25.4457C20.6741 25.9261 21.8 25.1753 24.0517 23.6738L24.0517 23.6738L24.6342 23.2853C25.2741 22.8587 25.594 22.6453 25.9599 22.5867C26.3258 22.528 26.6963 22.6307 27.4372 22.8361L28.1117 23.0231C30.719 23.7458 32.0227 24.1072 32.7333 23.3678C33.4439 22.6283 33.0908 21.2778 32.3848 18.5768L32.2021 17.8781C32.0014 17.1105 31.9011 16.7267 31.9564 16.3471C32.0117 15.9675 32.2163 15.635 32.6256 14.9701L32.6256 14.9701L32.9982 14.3647C34.4384 12.0246 35.1585 10.8546 34.692 9.91721C34.2256 8.97986 32.8816 8.89596 30.1935 8.72815L29.498 8.68473C28.7342 8.63705 28.3522 8.61321 28.0205 8.43724C27.6888 8.26127 27.4448 7.95309 26.9568 7.33674L26.9568 7.33673Z" fill="white"/>
<path opacity="0.5" d="M16.1975 24.4314C12.2791 26.3457 9.01872 29.3777 7.78878 33.0007C6.40911 24.3701 8.32287 18.7969 11.3906 15.333C11.655 15.8733 11.9985 16.3207 12.3071 16.6703C12.9486 17.397 13.8695 18.175 14.8046 18.965L15.4774 19.5337C15.605 19.6415 15.7043 19.7254 15.7886 19.7982C15.7972 19.9162 15.8057 20.0539 15.8166 20.2324L15.8713 21.1225C15.9448 22.3232 16.0165 23.4955 16.1975 24.4314Z" fill="white"/>
</svg>
