<svg width="32" height="32" viewBox="0 0 32 32" fill="none" xmlns="http://www.w3.org/2000/svg">
<path d="M9.33337 6.43911C9.33337 8.50282 11.6346 10.6768 13.533 12.1191C14.5985 12.9285 15.1313 13.3333 16 13.3333C16.8688 13.3333 17.4016 12.9286 18.4671 12.1191C20.3655 10.6768 22.6667 8.50285 22.6667 6.43909C22.6667 2.71887 18.9999 1.32991 16 4.20376C13.0001 1.32991 9.33337 2.71887 9.33337 6.43911Z" fill="#130240"/>
<path opacity="0.5" d="M8.34662 28.5178H8.00004C6.74296 28.5178 6.11442 28.5178 5.7239 28.1273C5.33337 27.7368 5.33337 27.1083 5.33337 25.8512V24.3686C5.33337 23.6772 5.33337 23.3316 5.51095 23.0229C5.68852 22.7142 5.9564 22.5584 6.49218 22.2468C10.0195 20.1953 15.0288 19.0404 18.3721 21.0345C18.5968 21.1685 18.7988 21.3302 18.9714 21.5242C19.7156 22.36 19.6613 23.6215 18.8037 24.37C18.6226 24.5281 18.4296 24.6479 18.2352 24.6896C18.3949 24.6711 18.548 24.6499 18.6941 24.6265C19.9093 24.4327 20.9294 23.7833 21.8633 23.0779L24.2729 21.2577C25.1223 20.616 26.3831 20.6159 27.2327 21.2574C27.9976 21.8349 28.2315 22.7859 27.7479 23.561C27.184 24.4649 26.3895 25.6213 25.6266 26.3279C24.8626 27.0355 23.7252 27.6672 22.7967 28.1154C21.7681 28.6118 20.6318 28.8979 19.476 29.085C17.1318 29.4645 14.6888 29.4065 12.3685 28.9285C11.0567 28.6583 9.69443 28.5178 8.34662 28.5178Z" fill="#130240"/>
</svg>
