<svg width="96" height="26" viewBox="0 0 96 26" fill="none" xmlns="http://www.w3.org/2000/svg">
<path fill-rule="evenodd" clip-rule="evenodd" d="M4.42023 9.82717V2.67546C4.42023 1.81794 4.22606 1.16051 3.83772 0.703166C3.44938 0.234389 2.89542 0 2.17585 0C1.49054 0 0.953718 0.245822 0.565378 0.737467C0.188459 1.21768 0 1.93228 0 2.88127V23.3245C0 24.2049 0.19417 24.8738 0.582511 25.3311C0.982273 25.777 1.51339 26 2.17585 26C2.82689 26 3.36371 25.777 3.78632 25.3311C4.20893 24.8738 4.42023 24.2049 4.42023 23.3245V22.8615C4.93421 23.456 5.34539 23.9019 5.65378 24.1992C5.97359 24.4965 6.35622 24.788 6.80167 25.0739C7.24712 25.3483 7.78394 25.5712 8.41214 25.7427C9.05176 25.9142 9.73135 26 10.4509 26C11.6274 26 12.701 25.7656 13.6719 25.2968C14.6541 24.8166 15.4879 24.142 16.1732 23.2731C16.8585 22.4041 17.3782 21.3808 17.7323 20.2032C18.0978 19.0141 18.2806 17.7106 18.2806 16.2929C18.2806 14.372 17.955 12.7142 17.304 11.3193C16.6644 9.91292 15.7563 8.84388 14.5799 8.11213C13.4149 7.36895 12.0557 6.99736 10.5023 6.99736C9.15456 6.99736 8.0238 7.24318 7.11006 7.73483C6.19631 8.21504 5.29971 8.91249 4.42023 9.82717ZM5.91077 20.8892C5.06556 19.883 4.64295 18.4481 4.64295 16.5844C4.64295 15.3153 4.84283 14.2234 5.2426 13.3087C5.64236 12.3826 6.1906 11.6794 6.88733 11.1992C7.58406 10.7076 8.37787 10.4617 9.26877 10.4617C10.1368 10.4617 10.8964 10.7076 11.5474 11.1992C12.1985 11.6794 12.701 12.3654 13.0551 13.2573C13.4092 14.1491 13.5862 15.2124 13.5862 16.4472C13.5862 18.3566 13.1579 19.8258 12.3013 20.8549C11.456 21.8725 10.4452 22.3813 9.26877 22.3813C7.88674 22.3813 6.7674 21.8839 5.91077 20.8892ZM43.9308 9.82717V2.67546C43.9308 1.81794 43.7367 1.16051 43.3483 0.703166C42.96 0.234389 42.406 0 41.6865 0C41.0012 0 40.4643 0.245822 40.076 0.737467C39.6991 1.21768 39.5106 1.93228 39.5106 2.88127V23.3245C39.5106 24.2049 39.7048 24.8738 40.0931 25.3311C40.4929 25.777 41.024 26 41.6865 26C42.3375 26 42.8743 25.777 43.2969 25.3311C43.7195 24.8738 43.9308 24.2049 43.9308 23.3245V22.8615C44.4448 23.456 44.856 23.9019 45.1644 24.1992C45.4842 24.4965 45.8668 24.788 46.3123 25.0739C46.7577 25.3483 47.2946 25.5712 47.9228 25.7427C48.5624 25.9142 49.242 26 49.9616 26C51.138 26 52.2116 25.7656 53.1825 25.2968C54.1648 24.8166 54.9986 24.142 55.6839 23.2731C56.3692 22.4041 56.8889 21.3808 57.2429 20.2032C57.6084 19.0141 57.7912 17.7106 57.7912 16.2929C57.7912 14.372 57.4657 12.7142 56.8146 11.3193C56.175 9.91292 55.267 8.84388 54.0905 8.11213C52.9255 7.36895 51.5663 6.99736 50.0129 6.99736C48.6652 6.99736 47.5344 7.24318 46.6207 7.73483C45.7069 8.21504 44.8103 8.91249 43.9308 9.82717ZM45.4214 20.8892C44.5762 19.883 44.1536 18.4481 44.1536 16.5844C44.1536 15.3153 44.3535 14.2234 44.7532 13.3087C45.153 12.3826 45.7012 11.6794 46.398 11.1992C47.0947 10.7076 47.8885 10.4617 48.7794 10.4617C49.6475 10.4617 50.407 10.7076 51.058 11.1992C51.7091 11.6794 52.2116 12.3654 52.5657 13.2573C52.9198 14.1491 53.0968 15.2124 53.0968 16.4472C53.0968 18.3566 52.6685 19.8258 51.8119 20.8549C50.9667 21.8725 49.9558 22.3813 48.7794 22.3813C47.3974 22.3813 46.278 21.8839 45.4214 20.8892ZM71.8073 23.3588V22.7586C71.2477 23.4675 70.6594 24.062 70.0426 24.5422C69.4259 25.0224 68.752 25.3769 68.021 25.6055C67.29 25.8456 66.4562 25.9657 65.5196 25.9657C64.3889 25.9657 63.3723 25.7313 62.47 25.2625C61.5791 24.7937 60.8881 24.1478 60.397 23.3245C59.8144 22.3298 59.5232 20.9006 59.5232 19.0369V9.75857C59.5232 8.82102 59.7345 8.12357 60.1571 7.66623C60.5797 7.19745 61.1394 6.96306 61.8361 6.96306C62.5443 6.96306 63.1153 7.19745 63.5494 7.66623C63.9834 8.135 64.2004 8.83245 64.2004 9.75857V17.2533C64.2004 18.3395 64.2918 19.2542 64.4745 19.9974C64.6573 20.7291 64.9828 21.3065 65.4511 21.7295C65.9308 22.1412 66.5761 22.347 67.3871 22.347C68.1752 22.347 68.9176 22.1126 69.6143 21.6438C70.3111 21.175 70.8193 20.5633 71.1391 19.8087C71.4018 19.1456 71.5332 17.6935 71.5332 15.4525V9.75857C71.5332 8.83245 71.7502 8.135 72.1842 7.66623C72.6183 7.19745 73.1836 6.96306 73.8804 6.96306C74.5771 6.96306 75.1368 7.19745 75.5594 7.66623C75.982 8.12357 76.1933 8.82102 76.1933 9.75857V23.3245C76.1933 24.2164 75.9877 24.8852 75.5765 25.3311C75.1767 25.777 74.6571 26 74.0174 26C73.3778 26 72.8467 25.7713 72.4241 25.314C72.0129 24.8452 71.8073 24.1935 71.8073 23.3588ZM91.614 23.3588V22.7586C91.0544 23.4675 90.4661 24.062 89.8494 24.5422C89.2326 25.0224 88.5587 25.3769 87.8277 25.6055C87.0967 25.8456 86.2629 25.9657 85.3263 25.9657C84.1956 25.9657 83.179 25.7313 82.2767 25.2625C81.3858 24.7937 80.6948 24.1478 80.2037 23.3245C79.6212 22.3298 79.3299 20.9006 79.3299 19.0369V9.75857C79.3299 8.82102 79.5412 8.12357 79.9638 7.66623C80.3864 7.19745 80.9461 6.96306 81.6428 6.96306C82.351 6.96306 82.9221 7.19745 83.3561 7.66623C83.7901 8.135 84.0071 8.83245 84.0071 9.75857V17.2533C84.0071 18.3395 84.0985 19.2542 84.2812 19.9974C84.464 20.7291 84.7895 21.3065 85.2578 21.7295C85.7375 22.1412 86.3829 22.347 87.1938 22.347C87.9819 22.347 88.7243 22.1126 89.4211 21.6438C90.1178 21.175 90.6261 20.5633 90.9459 19.8087C91.2086 19.1456 91.3399 17.6935 91.3399 15.4525V9.75857C91.3399 8.83245 91.5569 8.135 91.991 7.66623C92.425 7.19745 92.9904 6.96306 93.6871 6.96306C94.3838 6.96306 94.9435 7.19745 95.3661 7.66623C95.7887 8.12357 96 8.82102 96 9.75857V23.3245C96 24.2164 95.7944 24.8852 95.3832 25.3311C94.9835 25.777 94.4638 26 93.8242 26C93.1845 26 92.6534 25.7713 92.2308 25.314C91.8196 24.8452 91.614 24.1935 91.614 23.3588ZM32.4507 23.3588C31.32 24.2392 30.2235 24.9024 29.1612 25.3483C28.1104 25.7828 26.9283 26 25.6148 26C24.4155 26 23.359 25.7656 22.4452 25.2968C21.5429 24.8166 20.8462 24.1706 20.355 23.3588C19.8639 22.5471 19.6183 21.6667 19.6183 20.7177C19.6183 19.4371 20.0238 18.3452 20.8348 17.442C21.6457 16.5387 22.7593 15.9327 24.1756 15.624C24.4726 15.5554 25.2093 15.4011 26.3857 15.161C27.5622 14.9208 28.5673 14.7036 29.4011 14.5092C30.2463 14.3034 31.16 14.0576 32.1423 13.7718C32.0852 12.5369 31.8339 11.6337 31.3885 11.062C30.9545 10.4789 30.0464 10.1873 28.6644 10.1873C27.4765 10.1873 26.5799 10.3531 25.9746 10.6847C25.3806 11.0163 24.8666 11.5136 24.4326 12.1768C24.01 12.8399 23.7073 13.2801 23.5246 13.4974C23.3533 13.7032 22.9763 13.8061 22.3938 13.8061C21.8684 13.8061 21.4116 13.6403 21.0232 13.3087C20.6463 12.9657 20.4578 12.5312 20.4578 12.0053C20.4578 11.1821 20.7491 10.3817 21.3316 9.60423C21.9141 8.82674 22.8221 8.18646 24.0557 7.68338C25.2893 7.1803 26.8255 6.92876 28.6644 6.92876C30.7203 6.92876 32.3365 7.17459 33.5129 7.66623C34.6894 8.14644 35.5175 8.91249 35.9972 9.96438C36.4883 11.0163 36.7339 12.4112 36.7339 14.1491C36.7339 15.2467 36.7282 16.1785 36.7167 16.9446C36.7167 17.7106 36.711 18.5624 36.6996 19.5C36.6996 20.3804 36.8424 21.3008 37.1279 22.2612C37.4249 23.2102 37.5734 23.8219 37.5734 24.0963C37.5734 24.5765 37.3449 25.0167 36.8881 25.4169C36.4426 25.8056 35.9343 26 35.3633 26C34.8835 26 34.4095 25.777 33.9413 25.3311C33.473 24.8738 32.9761 24.2164 32.4507 23.3588ZM32.1423 16.5844C31.457 16.836 30.4576 17.1047 29.1441 17.3905C27.842 17.6649 26.9397 17.8707 26.4371 18.0079C25.9346 18.1337 25.4549 18.3909 24.998 18.7797C24.5411 19.157 24.3127 19.6887 24.3127 20.3747C24.3127 21.0836 24.5811 21.6895 25.1179 22.1926C25.6547 22.6843 26.3572 22.9301 27.2252 22.9301C28.1504 22.9301 29.0013 22.73 29.778 22.3298C30.5661 21.9182 31.1429 21.3923 31.5084 20.752C31.931 20.0431 32.1423 18.8769 32.1423 17.2533V16.5844Z" fill="#FBCE3E"/>
</svg>
