<svg width="66" height="66" viewBox="0 0 66 66" fill="none" xmlns="http://www.w3.org/2000/svg">
<path d="M53.483 33C53.483 31.8527 53.3799 30.7184 53.1994 29.6227C53.1994 29.5969 53.1865 29.5711 53.1865 29.5453C52.0264 22.7133 47.4631 17.0285 41.3014 14.2828C41.2498 14.257 41.1982 14.2313 41.1467 14.2184C38.6459 13.1356 35.9002 12.5297 32.9998 12.5297C28.5396 12.5297 24.4018 13.9606 21.0373 16.3969C20.9729 16.4356 20.9084 16.4742 20.8568 16.5258C15.8037 20.2641 12.5166 26.2582 12.5166 33.0129C12.5166 33.9797 12.5811 34.9336 12.7229 35.8617C12.7229 35.8746 12.7229 35.9004 12.7357 35.9133C13.7541 43.0805 18.4979 49.0617 24.9432 51.8332C24.9947 51.859 25.0463 51.8848 25.0979 51.8977C27.5342 52.916 30.2025 53.4832 32.9998 53.4832C37.8854 53.4832 42.3713 51.7688 45.8904 48.907C45.9549 48.8684 46.0193 48.8168 46.0838 48.7523C50.5955 44.9883 53.483 39.3293 53.483 33ZM46.5092 46.2516C46.6768 42.9516 45.9162 39.4453 44.2404 35.9906C43.1447 33.709 41.9459 32.0461 41.3272 31.2469C42.165 30.6152 42.7709 29.6871 42.9771 28.643C43.6861 28.5398 47.4373 28.166 51.7299 30.2414C51.8588 31.1438 51.9361 32.0719 51.9361 33.0129C51.9361 38.1563 49.8607 42.8355 46.5092 46.2516ZM35.5908 27.818C35.5908 26.2711 36.9186 25.0207 38.5557 25.0207C40.1928 25.0207 41.5205 26.2711 41.5205 27.818C41.5205 29.3648 40.1928 30.6152 38.5557 30.6152C36.9186 30.6152 35.5908 29.3648 35.5908 27.818ZM51.3561 28.3723C47.4502 26.7738 44.1244 26.9543 42.99 27.0832C42.7451 25.7168 41.8428 24.5695 40.6053 23.9637C41.1854 22.6875 42.2682 19.7356 41.9201 16.3195C46.5607 18.7945 50.0412 23.1516 51.3561 28.3723ZM40.2443 15.5074C40.9404 19.1426 39.6127 22.4426 39.11 23.5125C38.9295 23.4867 38.749 23.4738 38.5557 23.4738C37.5373 23.4738 36.5963 23.7961 35.8486 24.3504C30.9889 18.3691 27.0186 16.5516 24.4275 16.1262C27.0057 14.8113 29.9189 14.0637 33.0127 14.0637C35.565 14.0637 38.0143 14.5793 40.2443 15.5074ZM21.8107 17.7375C22.133 17.6344 23.3189 17.3121 25.2525 17.9051C27.3279 18.5367 30.6537 20.3672 34.7787 25.4719C34.3533 26.1035 34.0955 26.8512 34.0697 27.6633C31.2209 28.0242 20.8053 29.6098 14.1279 34.3406C14.1021 33.9023 14.0764 33.4512 14.0764 33C14.0635 26.7481 17.1186 21.1922 21.8107 17.7375ZM14.3213 36.1066C20.5732 31.234 31.5174 29.5453 34.276 29.1973C34.5725 30.0481 35.1396 30.7957 35.8744 31.3113C34.985 33.6059 31.1307 43.0289 25.1107 50.209C19.5033 47.6309 15.3654 42.3844 14.3213 36.1066ZM26.6061 50.8277C32.5615 43.5574 36.2998 34.5211 37.2795 31.9945C37.6791 32.1105 38.1174 32.175 38.5557 32.175C39.0326 32.175 39.4838 32.0977 39.9221 31.9688C40.9404 33.232 46.058 40.077 44.7947 47.8113C41.5592 50.3895 37.46 51.9363 32.9998 51.9363C30.7568 51.9363 28.6041 51.5367 26.6061 50.8277Z" fill="white"/>
</svg>
