<svg width="34" height="34" viewBox="0 0 34 34" fill="none" xmlns="http://www.w3.org/2000/svg">
<path opacity="0.5" d="M30.9376 15.7624L30.6129 19.2124C30.0779 24.8969 29.8104 27.7392 28.135 29.453C26.4597 31.1668 23.9487 31.1668 18.9267 31.1668H15.0736C10.0516 31.1668 7.54067 31.1668 5.8653 29.453C4.18992 27.7392 3.92242 24.8969 3.38742 19.2124L3.06272 15.7624C2.80771 13.0529 2.68021 11.6981 3.14373 11.1381C3.39447 10.8352 3.73543 10.6495 4.09998 10.6175C4.77388 10.5583 5.62019 11.5218 7.31281 13.4487C8.18817 14.4452 8.62584 14.9435 9.11411 15.0206C9.38465 15.0634 9.6603 15.0194 9.91011 14.8937C10.361 14.6668 10.6616 14.0508 11.2628 12.8189L14.4317 6.32538C15.5677 3.99746 16.1357 2.8335 17.0002 2.8335C17.8646 2.8335 18.4326 3.99746 19.5687 6.32537L22.7376 12.8189C23.3388 14.0508 23.6394 14.6668 24.0902 14.8937C24.34 15.0194 24.6157 15.0634 24.8862 15.0206C25.3745 14.9435 25.8122 14.4452 26.6875 13.4487C28.3801 11.5218 29.2264 10.5583 29.9003 10.6175C30.2649 10.6495 30.6059 10.8352 30.8566 11.1381C31.3201 11.6981 31.1926 13.0529 30.9376 15.7624Z" fill="#130240"/>
<path d="M18.3492 17.9899L18.2099 17.7401C17.6716 16.7744 17.4024 16.2915 17 16.2915C16.5976 16.2915 16.3284 16.7744 15.7901 17.7401L15.6508 17.9899C15.4978 18.2643 15.4214 18.4015 15.3021 18.4921C15.1828 18.5826 15.0343 18.6162 14.7373 18.6834L14.4668 18.7446C13.4214 18.9811 12.8988 19.0994 12.7744 19.4993C12.6501 19.8992 13.0064 20.3159 13.719 21.1492L13.9034 21.3648C14.1059 21.6016 14.2072 21.72 14.2527 21.8665C14.2983 22.013 14.283 22.171 14.2524 22.487L14.2245 22.7746C14.1167 23.8865 14.0629 24.4425 14.3884 24.6896C14.714 24.9367 15.2034 24.7114 16.1821 24.2608L16.1822 24.2607L16.4354 24.1442L16.4354 24.1442C16.7135 24.0161 16.8526 23.9521 17 23.9521C17.1474 23.9521 17.2865 24.0161 17.5646 24.1442L17.5646 24.1442L17.8178 24.2608C18.7966 24.7114 19.286 24.9367 19.6116 24.6896C19.9371 24.4425 19.8833 23.8865 19.7755 22.7746L19.7476 22.487C19.717 22.171 19.7017 22.013 19.7473 21.8665C19.7928 21.72 19.8941 21.6016 20.0966 21.3648L20.281 21.1492L20.281 21.1492C20.9936 20.3159 21.3499 19.8992 21.2256 19.4993C21.1012 19.0994 20.5786 18.9811 19.5332 18.7446L19.2627 18.6834C18.9657 18.6162 18.8172 18.5826 18.6979 18.4921C18.5786 18.4015 18.5022 18.2643 18.3492 17.9899Z" fill="#130240"/>
</svg>
