<svg width="34" height="34" viewBox="0 0 34 34" fill="none" xmlns="http://www.w3.org/2000/svg">
<path d="M23.6779 3.0128C22.4945 2.40372 20.9552 3.38651 17.8766 5.35209L17.0801 5.86061C16.2053 6.41917 15.7679 6.69845 15.277 6.7786C14.786 6.85875 14.2972 6.7307 13.3195 6.4746L12.4295 6.24144C8.989 5.3402 7.26878 4.88959 6.28381 5.85269C5.29883 6.81579 5.70143 8.55478 6.50662 12.0328L6.71493 12.9326C6.94374 13.9209 7.05814 14.4151 6.96525 14.9057C6.87236 15.3964 6.58268 15.8281 6.00334 16.6915L5.47588 17.4775C3.43713 20.5156 2.41775 22.0347 2.99241 23.239C3.56708 24.4433 5.35519 24.5353 8.93142 24.7192L9.85666 24.7668C10.8729 24.819 11.381 24.8452 11.8145 25.0683C12.2481 25.2914 12.5579 25.6862 13.1775 26.4759L13.7416 27.1949C15.922 29.9738 17.0122 31.3632 18.3523 31.1444C19.6925 30.9256 20.395 29.2435 21.8001 25.8792L22.1636 25.0088C22.5628 24.0528 22.7625 23.5747 23.1233 23.2219C23.4841 22.8691 23.9652 22.6815 24.9275 22.3062L25.8036 21.9645C29.19 20.6438 30.8831 19.9835 31.1367 18.644C31.3903 17.3044 30.0364 16.1728 27.3285 13.9097L26.6279 13.3241C25.8584 12.681 25.4737 12.3594 25.2632 11.9183C25.0527 11.4771 25.0402 10.9663 25.0153 9.9447L24.9927 9.01458C24.9051 5.41944 24.8613 3.62187 23.6779 3.0128Z" fill="#130240"/>
<path opacity="0.5" d="M27.6678 26.1652C27.2529 25.7503 26.5801 25.7503 26.1652 26.1652C25.7503 26.5801 25.7503 27.2529 26.1652 27.6678L28.9985 30.5011C29.4135 30.9161 30.0862 30.9161 30.5011 30.5011C30.9161 30.0862 30.9161 29.4135 30.5011 28.9985L27.6678 26.1652Z" fill="#130240"/>
</svg>
