<svg width="32" height="32" viewBox="0 0 32 32" fill="none" xmlns="http://www.w3.org/2000/svg">
<g opacity="0.3">
<path d="M12.3686 2.72778C14.9822 3.04459 17.4201 4.54391 18.8378 6.99946C19.5586 8.24793 19.9335 9.6012 19.9922 10.9483C18.6765 11.1714 17.3623 11.5479 16.1678 12.1492C15.5557 11.4603 14.9217 10.617 14.3345 9.59982C12.1678 5.84703 12.3686 2.72778 12.3686 2.72778Z" fill="#130240"/>
<path d="M4.28892 16.384L4.25157 16.3314C4.10142 16.1182 3.95954 15.8964 3.82663 15.6662C2.36101 13.1276 2.32557 10.1558 3.47032 7.68383C4.35121 8.30943 6.6202 10.1051 8.33 13.0665C8.46541 13.3011 8.59158 13.5331 8.70913 13.7621C8.81863 13.9754 8.92065 14.1861 9.01569 14.3935C9.1054 14.5894 9.1889 14.7824 9.26661 14.9722C9.34285 15.1583 9.41351 15.3414 9.47901 15.521C10.4027 18.0532 10.2988 19.89 10.2959 19.9382C8.68888 19.7434 7.14831 19.1013 5.87046 18.065C5.7952 18.004 5.72084 17.9415 5.64744 17.8778C5.37355 17.6399 5.11293 17.383 4.86762 17.1078C4.66373 16.8791 4.47043 16.6377 4.28892 16.384Z" fill="#130240"/>
</g>
<path opacity="0.5" d="M21.359 10.7683C18.6678 11.0272 15.8078 11.8343 13.8209 13.8211C11.834 15.808 11.027 18.668 10.7681 21.3593L18.6389 29.2301C21.3301 28.9712 24.1901 28.1641 26.177 26.1773C28.1639 24.1904 28.9709 21.3304 29.2298 18.6391L21.359 10.7683Z" fill="#130240"/>
<path fill-rule="evenodd" clip-rule="evenodd" d="M6.99875 3.82663C8.68842 2.8511 10.57 2.50919 12.3685 2.72718C12.3685 2.72718 12.1677 5.84643 14.3344 9.59922C14.9218 10.6167 15.5559 11.4601 16.1682 12.1491C15.3094 12.5814 14.5125 13.1298 13.8212 13.8211C12.1685 15.4737 11.3322 17.7305 10.9486 19.9918C10.7301 19.982 10.5123 19.9638 10.2958 19.9376C10.2982 19.8979 10.4048 18.0587 9.4789 15.5204C9.4134 15.3408 9.34274 15.1577 9.2665 14.9716C9.18879 14.7818 9.1053 14.5888 9.01558 14.3929C8.92054 14.1855 8.81852 13.9748 8.70902 13.7615C8.59148 13.5325 8.46531 13.3005 8.32989 13.0659C6.6201 10.1045 4.3511 8.30883 3.47021 7.68323C4.19475 6.11864 5.39206 4.75425 6.99875 3.82663Z" fill="#130240"/>
<path d="M25.6638 10.7482C24.4208 10.6531 22.9187 10.6192 21.3599 10.7692L29.2307 18.64C29.3807 17.0813 29.3468 15.5791 29.2517 14.3361C29.1033 12.395 27.6049 10.8966 25.6638 10.7482Z" fill="#130240"/>
<path d="M14.3358 29.252C15.5789 29.347 17.081 29.3809 18.6398 29.231L10.7689 21.3602C10.619 22.9189 10.6529 24.421 10.7479 25.6641C10.8964 27.6052 12.3947 29.1036 14.3358 29.252Z" fill="#130240"/>
<path fill-rule="evenodd" clip-rule="evenodd" d="M19.9463 16.4162C20.2197 16.1428 20.6629 16.1428 20.9362 16.4162L21.7651 17.2451L22.594 16.4162C22.8674 16.1428 23.3106 16.1428 23.584 16.4162C23.8573 16.6896 23.8573 17.1328 23.584 17.4062L22.7551 18.2351L23.584 19.0639C23.8573 19.3373 23.8573 19.7805 23.584 20.0539C23.3106 20.3273 22.8674 20.3273 22.594 20.0539L21.7651 19.225L20.9899 20.0002L21.8188 20.8291C22.0922 21.1025 22.0922 21.5457 21.8188 21.8191C21.5455 22.0924 21.1022 22.0924 20.8289 21.8191L20 20.9902L19.2248 21.7654L20.0537 22.5943C20.327 22.8676 20.327 23.3109 20.0537 23.5842C19.7803 23.8576 19.3371 23.8576 19.0637 23.5842L18.2348 22.7553L17.4059 23.5842C17.1325 23.8576 16.6893 23.8576 16.416 23.5842C16.1426 23.3109 16.1426 22.8676 16.416 22.5943L17.2449 21.7654L16.416 20.9365C16.1426 20.6631 16.1426 20.2199 16.416 19.9465C16.6893 19.6732 17.1325 19.6732 17.4059 19.9465L18.2348 20.7754L19.01 20.0002L18.1811 19.1713C17.9078 18.898 17.9078 18.4547 18.1811 18.1814C18.4545 17.908 18.8977 17.908 19.1711 18.1814L20 19.0103L20.7752 18.2351L19.9463 17.4062C19.6729 17.1328 19.6729 16.6896 19.9463 16.4162Z" fill="#130240"/>
</svg>
