<svg width="84" height="84" viewBox="0 0 84 84" fill="none" xmlns="http://www.w3.org/2000/svg">
<g clip-path="url(#clip0_16_4085)">
<path d="M40.9987 32.7082L41.9691 30.0996C42.0716 29.8263 42.3799 29.6888 42.6551 29.7846C42.9284 29.8872 43.0659 30.1954 42.9701 30.4706L41.9997 33.0791C41.9008 33.3387 41.6286 33.4785 41.3616 33.407C41.348 33.4033 41.3274 33.3978 41.3137 33.3942C41.0354 33.2829 40.8961 32.9815 40.9987 32.7082ZM43.8872 33.893C43.8941 33.8948 43.8941 33.8948 43.8872 33.893C44.1747 33.97 44.4629 33.7978 44.54 33.5103L45.2206 30.8608C45.2958 30.5802 45.1236 30.2919 44.8429 30.2167L44.8361 30.2149C44.5554 30.1397 44.2603 30.3101 44.1902 30.5994L43.5096 33.2489C43.4412 33.5314 43.6066 33.8178 43.8872 33.893ZM29.486 41.7504C30.1962 41.4272 31.0464 41.567 32.4503 41.8038L32.464 41.8074C37.4418 42.6423 42.4797 43.5814 47.4217 44.6048C48.3878 44.805 49.4858 45.0332 50.4726 45.5397C51.6263 46.1349 52.4295 47.0251 52.7474 48.0567C53.148 49.3819 52.6912 50.7854 52.3489 51.8162L50.1512 58.5124C49.8832 59.321 49.5208 60.427 48.6331 61.0842C47.5347 61.8977 46.1431 61.7522 44.7536 61.3799C44.5688 61.3304 44.3858 61.274 44.201 61.2245L29.2791 56.7053C28.0512 56.3323 26.8005 55.8798 26.1349 54.7771C25.5094 53.7437 25.6232 52.4977 25.8391 51.3084C26.1783 49.4404 26.6529 47.5868 27.2558 45.7748C27.2577 45.768 27.2595 45.7611 27.2613 45.7543C27.4263 45.2483 27.6049 44.7459 27.7904 44.2454C28.3275 42.8706 28.7324 42.0988 29.486 41.7504ZM51.1027 52.2233C44.6592 50.6435 38.2087 49.0618 31.7652 47.482L31.3627 49.6411C31.2984 49.9907 31.1757 50.6401 30.6321 50.9713C30.1232 51.2825 29.5172 51.1348 29.1955 51.0486C29.1681 51.0412 29.1407 51.0339 29.1133 51.0265C28.8122 50.9458 28.2806 50.7667 28.1023 50.2274C27.9795 49.8644 28.1022 49.5158 28.1778 49.3159L29.0586 46.8228C28.7487 46.7471 28.4389 46.6714 28.129 46.5957C27.6154 48.2115 27.2025 49.8616 26.8979 51.5187C26.7329 52.4356 26.5934 53.4766 27.0567 54.2391C27.5301 55.0188 28.528 55.3743 29.6003 55.6983L44.5222 60.2175C46.7216 60.8802 47.4943 60.625 48.0078 60.2417C48.5771 59.8147 48.8596 59.0614 49.146 58.1844L51.1027 52.2233ZM29.112 49.8817C29.1425 49.9046 29.2242 49.9558 29.4519 50.0095C29.623 50.0553 29.9466 50.1347 30.0786 50.0527C30.2193 49.9656 30.2854 49.6092 30.3158 49.4413L30.7261 47.2256C30.512 47.1755 30.3067 47.1205 30.0927 47.0705L29.1775 49.6645C29.1578 49.7106 29.118 49.8319 29.112 49.8817ZM28.4607 45.5768C36.1163 47.452 43.772 49.3273 51.4326 51.2112C51.763 50.1699 51.9869 49.2248 51.7295 48.3782C51.5031 47.6352 50.8717 46.9525 49.9889 46.4959C49.5305 46.263 49.0262 46.0912 48.5197 45.9555C48.0748 45.8363 47.6294 45.7463 47.2063 45.6549C42.2781 44.6352 37.2556 43.6929 32.2915 42.8617L32.2778 42.858C31.0693 42.6589 30.3391 42.5366 29.9303 42.7205C29.5631 42.8863 29.2745 43.3885 28.8015 44.6337C28.681 44.9462 28.5674 45.2606 28.4607 45.5768ZM16.6753 52.1323C17.344 41.5049 20.4649 31.2265 23.6074 21.6068C24.104 20.0818 24.5977 18.7322 25.5567 17.6172C26.1528 16.9259 26.9044 16.3937 27.7319 16.0432C29.0453 15.2213 30.7423 14.9937 32.662 14.8111C33.7914 14.7029 35.1249 14.6273 36.4046 14.8895C37.2183 15.0562 39.2207 15.5781 40.1901 16.8062C40.6546 17.4002 40.9506 17.9931 41.2391 18.7233C41.3171 18.3774 41.402 18.0333 41.5074 17.6948C42.0692 15.8718 42.9895 14.7098 44.3139 14.1476C45.1173 13.8053 46.1499 13.7299 47.2347 13.9252C48.0813 14.0787 48.9772 14.2673 49.839 14.6377C50.7743 15.035 51.7378 15.4913 52.3855 16.3324C53.1744 17.3581 53.3844 18.8744 52.9688 20.5898C52.9376 20.7061 52.9064 20.8225 52.8752 20.9389C53.3436 20.5875 53.8683 20.3539 54.529 20.2155C55.8796 19.9391 57.0207 20.0615 58.4235 20.3566C60.3968 20.768 61.8482 21.7585 63.5461 23.0058C65.2423 24.2599 66.192 26.3558 67.0863 28.5763C67.1127 28.6421 67.1286 28.7197 67.1258 28.785C67.297 29.1316 67.4253 29.4742 67.4952 29.8157C67.8351 31.4768 67.456 33.1653 67.1146 34.6585C65.1307 43.4588 63.0798 52.564 58.3102 60.5078C56.9449 62.7831 55.3528 64.9463 53.5848 66.9449L53.1271 68.2969C53.1143 68.3448 53.0928 68.3978 53.0744 68.4662C52.8838 69.0681 52.4984 70.3147 51.5606 71.2959C50.0994 72.8339 48.2151 72.7472 46.8598 72.384C46.8256 72.3748 46.7914 72.3657 46.764 72.3583C43.149 71.3384 40.5927 70.6387 37.6306 69.8377C34.7252 69.0445 31.4346 68.1555 26.4953 66.766C26.1823 66.6747 25.7542 66.5747 25.2596 66.4495C21.3291 65.4844 17.4234 64.3718 16.6488 62.3889C16.1182 61.0289 16.4429 58.9956 16.9616 56.9777C16.6731 55.125 16.5585 53.9645 16.6753 52.1323ZM52.2045 67.25C40.9406 63.645 29.4093 60.4084 17.9012 57.633C17.4929 59.321 17.2535 60.9809 17.6508 61.9897C17.8356 62.4501 18.5144 63.1749 20.7265 64.0097C22.3252 64.6142 24.1775 65.0665 25.5265 65.3986C25.9527 65.5054 26.3242 65.5976 26.6253 65.6783C26.6801 65.693 26.7417 65.7095 26.7896 65.7223C31.7307 67.105 35.0195 68.0009 37.9181 68.7922C40.8851 69.6019 43.4433 70.2947 47.0583 71.3147C47.0857 71.3221 47.1199 71.3312 47.1473 71.3386C50.3781 72.2043 51.5029 69.9232 52.0642 68.1295C52.0844 68.0542 52.1096 67.9876 52.1242 67.9328L52.2924 67.4423C52.3354 67.3364 52.4098 67.305 52.2045 67.25ZM62.812 26.1838C63.1004 28.5574 63.0975 30.9776 62.7906 33.3824C62.4464 36.0634 61.7407 38.6695 60.6801 41.1218C60.6473 41.8466 60.578 42.5984 60.477 43.3857C59.7561 48.8415 57.9641 54.1058 56.2316 59.2026L54.5641 64.1114C55.5955 62.7811 56.5558 61.3877 57.4189 59.9462C62.0966 52.1538 64.1324 43.1326 66.0942 34.4144C66.4063 33.0307 66.761 31.4604 66.4656 30.0167C66.2014 28.7574 64.6345 27.0757 62.812 26.1838ZM61.6795 25.7557C61.4673 25.6988 61.2514 25.6556 61.0338 25.6193C58.7974 25.3135 57.3407 25.7669 56.4837 27.0486C56.9827 27.7325 57.4192 28.4584 57.788 29.2175C59.3071 32.3097 60.3355 35.0429 60.617 38.2363C61.9031 34.2304 62.2716 29.898 61.6795 25.7557ZM52.3386 23.106C52.3641 23.1202 52.3828 23.1326 52.4084 23.1467C53.6987 23.9987 54.8401 25.0235 55.8142 26.1795C56.35 25.4941 57.0508 25.0143 57.9011 24.7432C58.8153 24.4526 59.8872 24.395 61.182 24.5732C61.5421 24.6257 61.9272 24.7216 62.3169 24.8553C62.3306 24.859 62.3375 24.8608 62.3511 24.8645C63.1834 25.1535 64.0606 25.6307 64.8551 26.2251C64.3263 25.269 63.711 24.4439 62.9197 23.865C61.2779 22.6548 59.9812 21.7718 58.21 21.3999C56.9117 21.1254 55.9285 21.016 54.7487 21.2574C53.7812 21.4457 53.1927 21.8896 52.3386 23.106ZM49.7756 15.7505C49.8956 16.1788 49.9216 16.5746 49.9318 16.7828C49.9622 17.3265 49.9666 17.8852 49.9385 18.4279L49.9367 18.4348C49.8861 19.4997 49.7205 20.5558 49.4454 21.5825C50.0737 21.8389 50.6841 22.1345 51.2716 22.4607C51.3335 22.2571 51.4041 22.0486 51.4709 21.8538C51.6482 21.3291 51.8095 20.8367 51.9315 20.3265C52.1274 19.5133 52.3419 18.0008 51.5412 16.9645C51.1292 16.4213 50.4837 16.0649 49.7756 15.7505ZM45.8621 16.9395C46.8566 17.0886 47.9318 17.3473 48.8959 17.6643C48.8954 17.3927 48.8879 17.1193 48.8718 16.8509C48.8203 16.0301 48.631 15.5318 48.2907 15.3233C48.0134 15.1536 47.6039 15.1759 47.2344 15.3777C46.8128 15.6095 46.4809 16.0268 46.2431 16.3666C46.1077 16.5431 45.9824 16.7369 45.8621 16.9395ZM45.3383 17.9363C44.9955 18.6954 44.7603 19.4908 44.6229 20.305C44.6589 20.3073 44.7 20.3183 44.7361 20.3206C46.0104 20.4933 47.2585 20.7911 48.4462 21.2047C48.6521 20.4089 48.7914 19.5878 48.8499 18.7671C47.7562 18.386 46.472 18.086 45.3383 17.9363ZM42.0417 20.1636C42.5507 20.1532 43.0592 20.1721 43.564 20.2047C43.7332 19.1349 44.0599 18.1073 44.5422 17.1287C44.5441 17.1219 44.5441 17.1219 44.5459 17.115L44.5477 17.1082C44.7861 16.6292 45.0619 16.1748 45.3683 15.7434C45.5604 15.4647 45.8063 15.1491 46.1152 14.8724C45.5944 14.8722 45.1186 14.9502 44.7222 15.1154C43.7042 15.5469 42.9819 16.4905 42.5131 17.9936C42.3086 18.7018 42.1763 19.4147 42.0417 20.1636ZM36.1404 22.4193C36.097 22.4443 36.0554 22.4625 36.0088 22.4721C33.6235 23.4616 31.457 25.0307 29.6632 27.1251C25.8166 31.5967 24.2342 35.2298 22.5012 40.7666C22.1326 42.1424 21.7379 43.5333 21.356 44.8763C20.6487 47.3792 19.9106 49.9693 19.3224 52.5481C19.1852 53.1423 18.9665 53.8761 18.7117 54.7175C18.5316 55.3075 18.3455 55.9473 18.1608 56.6094C29.7442 59.405 41.3577 62.6636 52.695 66.2957L55.2213 58.8658C56.9392 53.8238 58.7115 48.6057 59.4186 43.2561C60.1474 37.7437 59.077 34.2362 56.8398 29.6897C56.4459 28.8872 55.9807 28.1316 55.4443 27.423C55.4274 27.4038 55.4106 27.3846 55.4005 27.3673C54.4234 26.0857 53.2319 24.9741 51.8157 24.0444C49.7212 22.6615 47.2254 21.736 44.5892 21.3891C43.5344 21.2458 42.4969 21.2026 41.4698 21.2575C41.4542 21.2607 41.3958 21.2597 41.3803 21.2629C39.5671 21.3493 37.8037 21.7425 36.1404 22.4193ZM32.3841 15.9031C32.4507 15.9283 32.5104 15.9517 32.5771 15.9768C32.8075 16.0753 33.0392 16.196 33.2636 16.3442L33.2705 16.3461C33.2705 16.3461 33.2705 16.3461 33.2773 16.3479C34.7583 17.3096 35.9497 19.2429 36.3171 21.2121C37.7164 20.6993 39.183 20.3733 40.679 20.2386C40.2259 18.9727 39.9483 18.2014 39.3645 17.4507C38.8444 16.7905 37.6628 16.2171 36.2016 15.9209C35.0606 15.6886 33.8769 15.7529 32.7767 15.8616C32.6338 15.8747 32.5046 15.8914 32.3841 15.9031ZM29.0703 25.9978C29.0377 26.0918 29.0102 26.1945 28.9777 26.2885C30.7444 24.2675 32.9182 22.671 35.2959 21.6281C35.0477 20.0356 34.1504 18.4013 33.0157 17.4883C31.137 19.3252 30.1284 22.5691 29.0703 25.9978ZM17.7347 52.2034C17.6872 52.983 17.6745 53.6326 17.7212 54.3347C17.9471 53.5736 18.1621 52.8535 18.2864 52.3072C18.8821 49.701 19.6238 47.0972 20.3348 44.5806C20.7166 43.2377 21.1095 41.8536 21.4781 40.4778C21.48 40.4709 21.4818 40.4641 21.4836 40.4573C22.977 35.6779 24.3628 32.2856 27.1258 28.5728C27.4515 27.6036 27.7567 26.6289 28.0477 25.6798C29.1163 22.2392 30.1235 18.973 32.066 16.9257C30.1452 16.1542 27.7064 16.7406 26.3548 18.3079C25.5219 19.2806 25.0712 20.5244 24.6126 21.9348C21.5003 31.4966 18.3996 41.6997 17.7347 52.2034ZM37.432 30.9601C37.3086 30.7363 37.3596 30.4639 37.5515 30.2952C39.5241 28.6008 41.7406 27.2286 44.1352 26.2048C44.3758 26.1006 44.6597 26.1913 44.7968 26.4188C45.2369 27.131 45.7012 27.835 46.1486 28.5198C47.0823 29.9364 48.0496 31.3914 48.8169 32.991C48.9398 33.244 48.8436 33.5483 48.5937 33.6868C47.5162 34.2858 46.4125 35.0098 45.3453 35.7069C44.2608 36.4141 43.1466 37.15 42.0275 37.7672C41.9059 37.8373 41.7631 37.8504 41.633 37.8155C41.5303 37.788 41.43 37.7245 41.3575 37.639C40.2307 36.2586 39.3763 34.6285 38.4718 32.9115C38.1439 32.2734 37.7992 31.6161 37.432 30.9601ZM38.5738 30.8332C38.864 31.3658 39.1454 31.9035 39.4187 32.4169C40.2198 33.9447 40.9845 35.3895 41.9092 36.6204C42.8639 36.0692 43.8251 35.439 44.7603 34.8239C45.6954 34.2088 46.6653 33.5736 47.6305 33.0105C46.9296 31.6562 46.1099 30.4168 45.2501 29.108C44.8796 28.5465 44.4923 27.9659 44.1223 27.3752C42.1287 28.2716 40.2631 29.4298 38.5738 30.8332Z" fill="white"/>
</g>
<defs>
<clipPath id="clip0_16_4085">
<rect width="68.0298" height="68.0298" fill="white" transform="translate(17.6074) rotate(15)"/>
</clipPath>
</defs>
</svg>
