<svg width="121" height="121" viewBox="0 0 121 121" fill="none" xmlns="http://www.w3.org/2000/svg">
<g clip-path="url(#clip0_16_3950)">
<path d="M53.318 40.943C53.6049 41.1362 53.9049 41.2801 54.211 41.3621C54.7639 41.5103 55.3349 41.4728 55.852 41.241C56.6465 40.8824 57.1854 40.0956 57.2932 39.1403C57.4011 38.185 57.0564 37.299 56.3637 36.7641C56.3295 36.7338 56.1848 36.6421 56.1506 36.6118C55.4071 36.148 54.4576 36.137 53.5998 36.5738C52.742 37.0107 52.1932 37.7949 52.1388 38.6692C52.0844 39.5436 52.5239 40.3915 53.318 40.943ZM54.3007 37.9469C54.5333 37.8293 54.8494 37.7553 55.1259 37.8293C55.2839 37.8717 55.3891 37.9528 55.4233 37.9831C55.741 38.2587 55.7965 38.644 55.7639 38.9633C55.7312 39.2826 55.5609 39.6814 55.211 39.8417C54.8612 40.0019 54.4446 39.8585 54.1874 39.6732C53.9202 39.4852 53.648 39.1583 53.6669 38.7718C53.6957 38.388 54.0181 38.0934 54.3007 37.9469ZM87.3964 95.1979C87.0609 94.9493 86.701 94.673 86.3366 94.3743C86.6121 93.6227 86.7987 92.8472 86.8911 92.0677C87.0967 90.3132 86.6144 88.9141 85.5749 88.2122C84.2827 87.3475 82.6255 87.8452 81.7382 88.1155C81.2771 88.2565 80.8062 88.3948 80.3451 88.5359L80.2878 88.5523C79.5244 87.6493 78.9065 86.7958 78.5518 86.0658C78.2496 85.4558 77.8736 84.3708 77.4783 82.9633L80.4188 80.3224C81.5064 79.344 82.7018 78.0028 82.2751 76.3963C82.047 75.5098 81.2404 74.373 78.7256 73.9637C77.6104 73.7813 76.4714 73.6878 75.331 73.6785C74.9154 71.5565 74.5282 69.368 74.2042 67.2599C75.6915 66.251 77.169 65.2394 78.6563 64.2304L78.827 64.1068C79.5921 63.5817 81.0141 62.6187 81.1148 61.0583C81.1773 59.9957 80.5629 58.9315 79.5128 58.2692C78.6614 57.7342 77.6977 57.5394 76.8426 57.3738C75.6688 57.1334 74.4852 56.8903 73.3088 56.6597C73.3129 56.5656 73.3295 56.4642 73.3408 56.3826L73.4232 55.7591C73.58 54.5418 73.7475 53.285 73.8728 52.0276C76.0632 51.08 78.0369 49.7569 79.7581 48.1122C81.2525 46.6819 81.7948 45.2504 81.3255 43.9606C80.9035 42.8104 79.7877 42.0775 77.9313 41.7389C76.3467 41.4518 74.7271 41.3353 73.1243 41.3927C72.8664 40.6569 72.5486 39.9474 72.151 39.2588C71.5176 38.1472 70.8768 37.1818 70.2194 36.3178C70.7599 34.6954 71.1623 33.0359 71.4112 31.3565C71.5035 30.7357 71.7882 28.8436 70.516 27.8255C69.7305 27.2023 68.6211 27.1167 67.2174 27.5766C65.3974 28.1683 63.6895 29.1711 62.2565 30.4909C61.4904 30.1904 60.6499 29.8911 59.7251 29.5904C58.1369 29.0802 56.5716 28.6819 55.0516 28.391L54.8156 27.5341C54.5914 26.7121 54.3645 25.8999 54.1403 25.0779C53.9325 24.3132 53.6892 23.4438 53.2062 22.6794C52.6121 21.7371 51.7272 21.1296 50.7844 21.0145C49.3295 20.8363 47.9726 21.7533 46.7469 23.7212C45.8015 25.2352 44.9614 26.8303 44.2371 28.467C43.56 28.6242 42.9046 28.8189 42.2637 29.0388C39.4154 30.0322 36.757 31.8174 34.8001 34.0657C32.6888 36.4948 31.4587 39.3082 31.2413 42.213C30.833 47.7652 35.5291 52.6322 40.6637 54.8758C37.7726 58.5563 33.7163 65.9143 32.5364 71.937C32.1118 71.8233 31.6675 71.7042 31.2061 71.57C31.62 69.0776 30.5536 67.1727 28.1981 66.2876C26.5645 65.67 24.0548 65.9923 22.1303 68.0799C20.7161 69.6058 20.0827 71.7325 19.5182 73.6025L19.4943 73.6913C18.9661 75.4652 18.2277 80.1565 18.5755 82.1757C19.0725 85.0603 20.9227 86.2122 22.8777 86.736C23.9243 87.0164 25.0086 87.1165 25.927 87.2039C26.6203 87.2626 27.2715 87.3207 27.7454 87.4477C30.543 88.1444 34.6973 89.1094 39.5184 90.2319C53.4632 93.4816 72.5602 97.9213 84.2261 101.619C86.0882 102.213 89.3546 102.898 90.3571 100.933C91.1195 99.3915 89.9357 97.0953 87.3964 95.1979ZM82.1598 89.583C83.057 89.3154 84.068 89.0572 84.7055 89.482C84.9115 89.6218 85.5515 90.1955 85.3545 91.8782C85.2993 92.3608 85.1947 92.8302 85.0578 93.3014C83.8311 92.232 82.5302 91.005 81.4024 89.8033C81.654 89.7332 81.9082 89.6531 82.1598 89.583ZM78.4795 75.4746C79.2511 75.5967 80.5696 75.9288 80.7858 76.7804C80.8907 77.1789 80.8596 77.8479 79.3818 79.1768L77.0253 81.2968C76.5691 79.5237 76.0936 77.428 75.6301 75.2084C76.5868 75.232 77.5375 75.3174 78.4795 75.4746ZM76.5247 58.876C77.2883 59.0277 78.0717 59.1847 78.6875 59.5719C79.1488 59.8648 79.6084 60.4007 79.5741 60.963C79.5245 61.701 78.7132 62.3197 77.9606 62.8376L77.79 62.9612C76.5082 63.8348 75.239 64.7011 73.9573 65.5746C73.5492 62.7138 73.2929 60.1159 73.2629 58.2136C74.3379 58.4276 75.43 58.6567 76.5247 58.876ZM77.6358 43.2365C78.8964 43.4684 79.6532 43.8829 79.8638 44.479C80.186 45.3696 79.2557 46.4326 78.671 46.9955C77.3051 48.3015 75.7044 49.4177 73.9868 50.2591C74.1478 47.7624 74.1107 45.255 73.5426 42.9122C74.9267 42.881 76.2935 42.9932 77.6358 43.2365ZM67.674 29.0323C68.2773 28.8342 69.0934 28.6719 69.5387 29.024C69.9301 29.3405 70.0425 30.0268 69.8727 31.1347C69.6775 32.4158 69.4008 33.6857 69.0253 34.929C68.3848 34.2389 67.7007 33.6323 66.9712 33.077C66.0311 32.3595 65.0001 31.7446 63.7899 31.1663C64.9538 30.2189 66.2729 29.4823 67.674 29.0323ZM48.0226 24.5287C48.9119 23.1055 49.7687 22.4356 50.5805 22.5261C51.0532 22.5787 51.5479 22.9441 51.8883 23.4903C52.2531 24.0643 52.4517 24.7842 52.6386 25.4692C52.8628 26.2912 53.0896 27.1034 53.3138 27.9254L53.3676 28.1197C50.802 27.7815 48.35 27.77 46.0581 28.1083C46.6417 26.8784 47.3016 25.6795 48.0226 24.5287ZM88.9733 100.213C88.768 100.624 87.6224 101.068 84.6678 100.128C72.9327 96.4126 53.8061 91.9649 39.8416 88.7099C35.0303 87.5901 30.8859 86.6277 28.0982 85.9337C27.513 85.7875 26.7999 85.7234 26.0448 85.6586C22.9774 85.3764 20.5897 84.9271 20.0679 81.8983C19.7881 80.2571 20.4096 75.8838 20.9477 74.1125L20.9715 74.0237C21.505 72.23 22.0643 70.3798 23.2313 69.1051C24.244 68.0113 26.0518 67.1094 27.636 67.7138C29.4617 68.4041 30.1027 69.8034 29.5418 71.8966C29.436 72.2915 29.662 72.7119 30.0642 72.8302C31.8947 73.3842 33.4554 73.7601 34.9668 74.1227C36.409 74.4668 37.898 74.8341 39.6028 75.3438C39.6126 75.3464 39.6126 75.3464 39.6225 75.349C40.0175 75.4549 40.4378 75.2289 40.5562 74.8267C40.6745 74.4245 40.4512 73.9943 40.0391 73.8733C38.2948 73.353 36.7835 72.9904 35.3241 72.6311C34.887 72.5246 34.4401 72.4154 33.9931 72.3062C35.2374 65.8456 40.0162 57.8453 42.4683 55.0524C42.9779 54.5329 42.933 54.1081 42.1517 53.8247C39.6579 52.9025 37.2355 51.2798 35.5047 49.3663C34.1172 47.8304 32.505 45.356 32.7398 42.3077C32.9318 39.7347 34.0279 37.224 35.9215 35.054C37.709 33.0038 40.1367 31.3684 42.738 30.4675C47.4044 28.85 53.109 29.0452 59.2349 31.0252C60.3051 31.3755 61.2417 31.7111 62.0887 32.065C62.0985 32.0677 62.1084 32.0703 62.1183 32.073C63.6964 32.7392 64.9467 33.4446 66.0459 34.2789C67.013 35.0142 67.8864 35.862 68.7194 36.9001C68.7293 36.9027 68.7266 36.9126 68.7365 36.9152C69.4433 37.7925 70.1229 38.8106 70.7997 39.9973C73.3314 44.4113 72.5625 50.3219 71.8873 55.5275L71.8049 56.1509C71.7624 56.4676 71.7415 56.8218 71.7299 57.2208C71.7272 57.2307 71.7246 57.2406 71.7318 57.2531C71.5592 62.7944 73.9509 75.8274 75.8548 82.7822C75.8586 82.8467 75.8849 82.9067 75.9085 82.9765C76.3733 84.6779 76.8149 85.992 77.1821 86.7147C77.6498 87.6549 78.4571 88.7496 79.4375 89.8695C79.4546 89.8846 79.469 89.9097 79.4861 89.9248C81.6172 92.3584 84.5344 94.939 86.4935 96.3953C88.6624 98.0558 89.2604 99.6553 88.9733 100.213ZM57.2066 66.3987C55.7993 67.6619 54.085 69.0439 51.9626 69.7769C50.354 70.33 48.6841 70.4011 47.2327 70.0122C46.6008 69.8429 46.0124 69.59 45.49 69.2489C43.3853 67.9019 42.4595 65.1563 43.4186 63.1169C44.2055 61.4441 45.9337 60.5632 47.3566 59.992C47.5813 59.9041 47.8085 59.8062 48.0431 59.7209C49.2262 59.2548 50.3467 58.8249 51.1582 58.0476C51.468 57.7602 51.954 57.7634 52.2413 58.0732C52.5287 58.3831 52.5255 58.869 52.2157 59.1564C51.1774 60.1481 49.8645 60.664 48.5892 61.1583C48.3645 61.2463 48.1399 61.3342 47.9251 61.4249C46.7716 61.8989 45.3716 62.582 44.8059 63.785C44.1708 65.1281 44.8625 67.049 46.31 67.9659C47.6739 68.8394 49.5958 68.9734 51.4613 68.3303C53.3268 67.6873 54.8954 66.4144 56.1795 65.2557C56.4992 64.971 56.9798 64.994 57.2646 65.3137C57.5493 65.6333 57.5138 66.1212 57.2066 66.3987Z" fill="white"/>
</g>
<defs>
<clipPath id="clip0_16_3950">
<rect width="98.1302" height="98.1302" fill="white" transform="translate(25.3979) rotate(15)"/>
</clipPath>
</defs>
</svg>
