<svg width="26" height="26" viewBox="0 0 26 26" fill="none" xmlns="http://www.w3.org/2000/svg">
<path opacity="0.5" d="M4.37151 12.5377C4.87178 10.0364 5.12191 8.78578 6.02046 8.04914C6.91901 7.3125 8.19444 7.3125 10.7453 7.3125H15.2545C17.8054 7.3125 19.0808 7.3125 19.9793 8.04914C20.8779 8.78578 21.128 10.0364 21.6283 12.5377L22.2783 15.7877C22.9977 19.3849 23.3574 21.1834 22.3822 22.373C21.407 23.5625 19.5729 23.5625 15.9045 23.5625H10.0953C6.42693 23.5625 4.59275 23.5625 3.61756 22.373C2.64238 21.1834 3.00209 19.3849 3.72151 15.7877L4.37151 12.5377Z" fill="white"/>
<circle cx="16.2498" cy="10.5625" r="1.08333" fill="white"/>
<circle cx="9.74984" cy="10.5625" r="1.08333" fill="white"/>
<path d="M10.5625 6.22917C10.5625 4.88298 11.6538 3.79167 13 3.79167C14.3462 3.79167 15.4375 4.88298 15.4375 6.22917V7.31251H15.9046C16.3128 7.31251 16.6983 7.31251 17.0625 7.31415L17.0625 6.22917C17.0625 3.98551 15.2437 2.16667 13 2.16667C10.7563 2.16667 8.9375 3.98551 8.9375 6.22917L8.9375 7.31414C9.30164 7.31251 9.68715 7.31251 10.0954 7.31251H10.5625V6.22917Z" fill="white"/>
</svg>
