<svg width="107" height="108" viewBox="0 0 107 108" fill="none" xmlns="http://www.w3.org/2000/svg">
<path d="M63.2688 87.5288C63.3063 87.5281 63.3414 87.5187 63.3766 87.5093C63.5348 87.4669 63.6788 87.3718 63.7648 87.2357C63.8789 87.0638 63.9086 86.8581 63.8568 86.6647C61.5669 78.8571 60.3795 73.4764 59.1096 67.7881C58.4243 64.7031 57.7195 61.5103 56.8085 57.8641C57.7804 57.5189 58.7294 57.1233 59.642 56.6622C62.2005 55.3832 64.4017 53.7195 66.1974 51.703C68.6756 48.9289 70.3342 45.4514 71.0072 41.6351C71.6842 37.7988 71.2887 33.9674 69.8739 30.5504C66.9637 23.5213 59.6855 18.5763 52.1716 18.5173C50.2644 18.5008 48.3711 18.7821 46.5508 19.3358C46.5244 19.3429 46.498 19.3499 46.4717 19.357C36.6635 21.9851 30.2863 27.4334 28.5062 34.7114C27.5334 38.674 27.8205 43.0149 29.3144 46.9382C30.8454 50.9646 33.5678 54.3044 36.9766 56.3394C41.1743 58.8223 46.428 59.7978 51.79 59.0675C52.0982 59.0226 52.3976 58.9801 52.7035 58.9263C54.022 64.093 55.0145 68.2543 55.9718 72.2837C57.1069 77.0473 58.169 81.5385 59.7335 87.5529C59.8206 87.8781 60.1244 88.0981 60.4638 88.0637C60.922 88.0163 61.4453 87.8949 61.9533 87.787C62.4126 87.6734 62.8919 87.5638 63.2688 87.5288ZM53.03 57.473C52.5548 57.5627 52.086 57.6412 51.6061 57.7133C46.5547 58.4074 41.6111 57.4996 37.6961 55.1575C34.5459 53.2793 32.0284 50.1766 30.6038 46.442C29.2157 42.7729 28.94 38.721 29.8423 35.0222C30.947 30.4968 34.013 26.7175 38.7096 23.9613C36.43 26.2111 34.7749 29.1037 33.909 32.3406C33.0057 35.7194 33.0614 39.1614 34.061 42.2941C36.4112 49.624 41.6456 53.5153 49.2098 53.5513C52.5119 53.5708 55.8378 52.3782 58.5687 50.1959C61.3325 47.9953 63.2003 45.0174 63.8283 41.8066C64.4474 38.5981 63.7498 35.0455 61.9229 32.0592C60.0484 29.0008 57.2537 26.8672 54.0708 26.0622C50.817 25.2385 47.191 25.9087 44.1322 27.8869C41.187 29.797 39.1743 32.6912 38.6201 35.8258C37.9267 39.7417 39.3647 43.8778 42.2688 46.3495C45.2223 48.8644 49.7241 49.3537 53.2115 47.5338C54.9312 46.6397 56.3478 45.1768 57.212 43.4099C58.1018 41.5984 58.335 39.586 57.8692 37.7421C56.9164 33.9752 53.1163 31.6401 49.0179 32.3049C47.1229 32.6149 45.483 33.6666 44.6338 35.1375C43.6366 36.8648 43.8525 39.077 45.1371 40.3907C45.8489 41.1137 46.9061 41.5086 47.9797 41.4376C48.9631 41.3813 49.8429 40.9383 50.3872 40.2273C50.6183 39.9299 50.5604 39.5027 50.2629 39.2716C49.9655 39.0404 49.5383 39.0984 49.3072 39.3958C49.0005 39.7982 48.4991 40.0362 47.8972 40.075C47.2115 40.1174 46.5431 39.8727 46.1141 39.4318C45.2586 38.559 45.1242 37.0031 45.8127 35.8107C46.456 34.6963 47.7292 33.8936 49.2282 33.6521C52.6222 33.1006 55.7683 34.9988 56.5462 38.0778C57.3336 41.1919 55.6276 44.7387 52.5777 46.3283C49.5694 47.8974 45.6912 47.4859 43.152 45.3216C40.6128 43.1572 39.3577 39.5278 39.9684 36.0768C40.4516 33.3098 42.2425 30.7482 44.8756 29.0442C47.6199 27.2632 50.8521 26.6703 53.7401 27.3942C59.5806 28.8718 63.6713 35.4904 62.4999 41.5597C61.9372 44.4516 60.2477 47.1461 57.7387 49.1372C55.2472 51.1235 52.2219 52.2073 49.231 52.1892C45.9489 52.1738 43.137 51.3824 40.8728 49.8226C38.3587 48.1036 36.5105 45.4245 35.3716 41.877C34.4491 38.9969 34.4002 35.8261 35.2369 32.6913C36.0549 29.6273 37.709 26.8009 39.9009 24.7159C41.8908 22.8263 44.315 21.4326 46.9368 20.6359C46.9807 20.6241 47.0247 20.6123 47.0598 20.6029C47.095 20.5935 47.1214 20.5864 47.1542 20.5682C48.7882 20.0927 50.4859 19.8545 52.1856 19.87C59.1631 19.9314 65.9345 24.5318 68.6355 31.0612C69.9492 34.2415 70.3116 37.8087 69.6788 41.3882C69.0524 44.9565 67.5026 48.2071 65.1976 50.784C63.5166 52.6662 61.4483 54.2283 59.0474 55.4274C58.0012 55.9526 56.9227 56.3923 55.8055 56.7576C55.7967 56.7599 55.7791 56.7647 55.7703 56.767C54.9032 57.0464 54.0132 57.2755 53.1115 57.4606C53.0739 57.4612 53.0564 57.466 53.03 57.473ZM57.2907 71.968C56.3382 67.9561 55.348 63.8036 54.0342 58.6546C54.3442 58.5809 54.6629 58.5049 54.9705 58.4225C55.1551 58.3731 55.3309 58.326 55.5131 58.2677C56.4012 61.8635 57.103 65.0101 57.7813 68.0687C59.0087 73.5988 60.1673 78.8365 62.3342 86.2909C62.1098 86.3322 61.8701 86.3869 61.6481 86.437C61.3996 86.4942 61.1424 86.5537 60.8916 86.602C59.4143 80.9128 58.3811 76.5646 57.2907 71.968Z" fill="white"/>
</svg>
