<svg width="34" height="34" viewBox="0 0 34 34" fill="none" xmlns="http://www.w3.org/2000/svg">
<path d="M20.5417 28.3073C22.7698 28.2507 24.3342 28.0716 25.5 27.5049V29.7501C25.5 30.5325 24.8657 31.1668 24.0833 31.1668H21.9583C21.1759 31.1668 20.5417 30.5325 20.5417 29.7501V28.3073Z" fill="#130240"/>
<path d="M8.5 27.5049C9.66576 28.0715 11.2302 28.2507 13.4583 28.3073V29.7501C13.4583 30.5325 12.8241 31.1668 12.0417 31.1668H9.91667C9.13426 31.1668 8.5 30.5325 8.5 29.7501V27.5049Z" fill="#130240"/>
<path opacity="0.5" fill-rule="evenodd" clip-rule="evenodd" d="M7.32623 4.49322C8.98596 2.8335 11.6573 2.8335 16.9998 2.8335C22.3424 2.8335 25.0137 2.8335 26.6734 4.49322C28.1795 5.99927 28.3189 8.33823 28.3319 12.7502L28.3332 18.4168C28.3203 22.8288 28.1795 25.1677 26.6734 26.6738C26.3303 27.0169 25.944 27.289 25.4998 27.5049C24.3341 28.0715 22.7696 28.2506 20.5415 28.3072C19.5115 28.3334 18.3397 28.3335 16.9998 28.3335C15.66 28.3335 14.4882 28.3335 13.4582 28.3073C11.23 28.2507 9.66559 28.0714 8.49984 27.5048C8.05564 27.2889 7.66932 27.0169 7.32623 26.6738C5.82018 25.1677 5.67942 22.8288 5.6665 18.4168L5.66782 12.7502C5.68073 8.33823 5.82018 5.99927 7.32623 4.49322Z" fill="#130240"/>
<path d="M25.1457 22.6665C25.1457 22.0797 24.67 21.604 24.0832 21.604H21.9582C21.3714 21.604 20.8957 22.0797 20.8957 22.6665C20.8957 23.2533 21.3714 23.729 21.9582 23.729H24.0832C24.67 23.729 25.1457 23.2533 25.1457 22.6665Z" fill="#130240"/>
<path d="M8.854 22.6665C8.854 22.0797 9.3297 21.604 9.9165 21.604H12.0415C12.6283 21.604 13.104 22.0797 13.104 22.6665C13.104 23.2533 12.6283 23.729 12.0415 23.729H9.9165C9.3297 23.729 8.854 23.2533 8.854 22.6665Z" fill="#130240"/>
<path d="M7.7915 13.4582C7.7915 15.4616 7.7915 16.4634 8.4139 17.0858C9.0363 17.7082 10.038 17.7082 12.0415 17.7082H21.9582C23.9616 17.7082 24.9634 17.7082 25.5858 17.0858C26.2082 16.4634 26.2082 15.4616 26.2082 13.4582V9.91648C26.2082 7.91303 26.2082 6.9113 25.5858 6.2889C24.9634 5.6665 23.9616 5.6665 21.9582 5.6665H12.0415C10.038 5.6665 9.0363 5.6665 8.4139 6.2889C7.7915 6.9113 7.7915 7.91303 7.7915 9.9165V13.4582Z" fill="#130240"/>
<path d="M3.40016 16.7167L5.66683 18.4167L5.66815 12.75H4.25016C3.46776 12.75 2.8335 13.3843 2.8335 14.1667V15.5833C2.8335 16.0292 3.04344 16.4491 3.40016 16.7167Z" fill="#130240"/>
<path d="M29.7501 12.75H28.3321L28.3334 18.4167L30.6001 16.7167C30.9568 16.4491 31.1668 16.0292 31.1668 15.5833V14.1667C31.1668 13.3843 30.5325 12.75 29.7501 12.75Z" fill="#130240"/>
</svg>
