<svg width="190" height="230" viewBox="0 0 190 230" fill="none" xmlns="http://www.w3.org/2000/svg">
<path fill-rule="evenodd" clip-rule="evenodd" d="M247.249 -83.7349C250.84 -92.1328 252.832 -101.4 252.832 -111.139C252.832 -149.17 222.462 -180 184.999 -180C147.536 -180 117.166 -149.17 117.166 -111.139C117.166 -101.4 119.158 -92.1328 122.75 -83.7349C110.421 -100.964 90.4158 -112.167 67.8331 -112.167C30.3698 -112.167 0 -81.3367 0 -43.3058C0 -9.34001 24.2248 18.8823 56.092 24.5273C24.2248 30.1722 0 58.3949 0 92.3608C0 130.391 30.3698 161.221 67.8331 161.221C90.4158 161.221 110.421 150.019 122.75 132.79C119.158 141.188 117.166 150.455 117.166 160.194C117.166 198.224 147.536 229.055 184.999 229.055C222.462 229.055 252.832 198.224 252.832 160.194C252.832 150.455 250.84 141.188 247.249 132.79C259.578 150.019 279.583 161.221 302.166 161.221C339.63 161.221 370 130.391 370 92.3608C370 58.3949 345.774 30.1722 313.906 24.5273C345.774 18.8823 370 -9.34001 370 -43.3058C370 -81.3367 339.63 -112.167 302.166 -112.167C279.583 -112.167 259.578 -100.964 247.249 -83.7349ZM239.917 119.765C236.325 111.367 234.333 102.1 234.333 92.3608C234.333 58.3949 258.557 30.1722 290.425 24.5273C258.557 18.8823 234.333 -9.34001 234.333 -43.3058C234.333 -53.0452 236.325 -62.3122 239.917 -70.71C227.588 -53.4807 207.583 -42.2781 184.999 -42.2781C162.417 -42.2781 142.412 -53.4807 130.082 -70.71C133.675 -62.3122 135.666 -53.0452 135.666 -43.3058C135.666 -9.34001 111.442 18.8823 79.5744 24.5273C111.442 30.1722 135.666 58.3949 135.666 92.3608C135.666 102.1 133.675 111.367 130.082 119.765C142.412 102.536 162.417 91.332 184.999 91.332C207.583 91.332 227.588 102.536 239.917 119.765Z" fill="#77EC85"/>
</svg>
