<svg width="567" height="358" viewBox="0 0 567 358" fill="none" xmlns="http://www.w3.org/2000/svg">
<g clip-path="url(#clip0_276_866)">
<mask id="mask0_276_866" style="mask-type:luminance" maskUnits="userSpaceOnUse" x="0" y="0" width="528" height="358">
<path d="M527.857 0H0.00146484V357.579H527.857V0Z" fill="white"/>
</mask>
<g mask="url(#mask0_276_866)">
<path fill-rule="evenodd" clip-rule="evenodd" d="M181.499 273.467C177.945 275.012 175.912 279.88 177.186 283.785C179.036 289.449 188.608 290.539 192.144 285.489C193.482 283.578 193.377 278.905 191.941 276.553C190.675 274.475 187.267 272.545 184.935 272.583C184.13 272.597 182.584 272.994 181.499 273.467ZM229.951 275.059C217.059 278.437 207.811 287.184 203.315 300.251C200.881 307.326 200.469 319.472 202.389 327.538C205.63 341.156 213.842 350.387 226.347 354.466C232.772 356.563 242.914 356.837 248.756 355.071C264.159 350.413 272.639 338.434 272.013 322.219C271.642 312.601 270.256 311.839 253.057 311.788C238.424 311.745 238.214 311.835 238.214 318.166C238.214 324.519 238.692 324.818 248.885 324.818H257.186L257.181 327.151C257.173 330.136 254.82 335.109 252.13 337.821C248.922 341.056 245.818 342.208 240.26 342.224C231.592 342.249 225.11 338.495 221.285 331.239C218.931 326.773 217.997 322.489 217.997 316.162C217.997 305.982 220.288 299.396 225.717 293.973C230.229 289.469 233.553 288.113 240.08 288.113C247.144 288.113 249.842 289.345 254.907 294.891C256.381 296.506 257.13 296.822 259.478 296.822C261.843 296.822 262.622 296.488 264.402 294.706C266.201 292.908 266.517 292.159 266.517 289.699C266.517 286.059 265.389 283.864 262.046 281.003C254.56 274.593 241.183 272.116 229.951 275.059ZM27.9597 275.288C26.9328 275.735 25.7327 276.536 25.2917 277.067C24.8512 277.598 22.9901 282.469 21.1563 287.894C19.3226 293.318 13.7327 309.775 8.73391 324.467C3.47196 339.934 -0.201266 351.66 0.00960969 352.323C0.761673 354.695 3.02345 355.444 8.72022 355.21C15.3812 354.937 15.5119 354.8 18.3247 345.105L20.4204 337.882L24.1901 337.869C26.2633 337.863 32.9319 337.793 39.0092 337.713C48.3762 337.594 50.1005 337.713 50.3369 338.505C50.4899 339.017 51.4659 342.518 52.5059 346.281C54.8703 354.837 55.3513 355.305 61.7751 355.293C67.3332 355.281 69.5577 354.397 69.8276 352.089C69.9321 351.193 68.7658 346.58 67.2349 341.839C65.7046 337.097 62.3443 326.358 59.7685 317.975C53.6537 298.074 46.7793 278.464 45.3741 276.911C44.7601 276.232 43.2497 275.397 42.0181 275.055C38.855 274.176 30.1805 274.32 27.9597 275.288ZM141.558 281.113C140.254 282.199 139.868 285.121 139.669 295.423L139.619 298.066H135.886C133.019 298.066 131.874 298.347 130.944 299.275C128.393 301.828 128.842 308.448 131.671 309.961C132.377 310.34 134.435 310.526 136.243 310.375L139.533 310.103L139.736 327.57C139.911 342.747 140.084 345.364 141.054 347.525C143.942 353.965 148.916 356.273 158.862 355.79C166.053 355.44 168.435 354.418 169.487 351.228C170.325 348.689 169.869 345.204 168.556 344.113C167.943 343.605 166.403 343.512 163.589 343.813C158.775 344.329 156.327 343.545 155.142 341.106C154.155 339.077 153.6 324.072 154.211 315.905L154.638 310.198L159.958 310.401C166.528 310.653 167.824 310.345 168.748 308.318C169.953 305.672 169.673 300.75 168.233 299.311C167.146 298.225 166.16 298.066 160.457 298.066H153.925V289.792C153.925 284.186 153.685 281.277 153.179 280.771C151.947 279.538 143.138 279.798 141.558 281.113ZM35.147 294.979C34.0663 294.979 29.4022 309.715 27.3725 316.108C26.2316 319.7 25.1083 323.271 24.8762 324.041C24.4594 325.424 24.5179 325.44 30.2507 325.379C33.4381 325.344 36.4009 325.379 41.3773 325.379C46.3537 325.379 46.0427 324.788 46.0427 324.788C46.0427 324.788 46.3537 324.912 45.4206 322.3C43.7124 317.518 41.5572 309.887 41.5572 309.887C36.0801 293.424 37.0131 294.979 35.147 294.979ZM297.309 298.369C292.364 299.463 290.607 300.183 287.24 302.501C283.554 305.037 281.591 309.098 282.726 311.836C283.515 313.744 286.11 315.486 288.16 315.486C288.808 315.486 291.022 314.355 293.079 312.974C297.439 310.046 301.925 309.037 306.409 309.977C310.541 310.843 312.096 312.749 312.429 317.361L312.698 321.085L307.492 321.107C292.002 321.171 280.661 326.79 278.285 335.576C277.26 339.358 277.896 345.342 279.66 348.532C284.108 356.574 295.615 358.853 306.054 353.761C308.47 352.582 310.98 351.027 311.636 350.303L312.827 348.987L313.777 351.989L314.726 354.991L319.833 355.171C327.833 355.454 327.356 356.891 327.031 333.46C326.735 312.091 326.384 309.51 323.167 305.067C318.697 298.894 307.747 296.06 297.309 298.369ZM361.595 298.312C357.946 299.615 353.816 302.267 352.18 304.356L350.666 306.292L350.351 303.007C349.943 298.771 348.972 298.066 343.533 298.066C336.256 298.066 336.727 296.021 336.939 326.765L337.12 352.924L338.589 354.112C339.719 355.028 341.051 355.302 344.37 355.302C348.121 355.302 348.883 355.103 350.212 353.774L351.738 352.248V335.05C351.738 315.621 351.905 314.762 356.228 311.901C359.339 309.842 364.383 309.316 367.177 310.762C371.11 312.796 371.3 313.794 371.645 334.361L371.955 352.927L373.423 354.114C375.513 355.804 382.705 355.804 384.794 354.114L386.262 352.927L386.573 334.672C386.881 316.636 386.903 316.394 388.377 314.325C391.491 309.96 399.084 308.454 402.687 311.488C403.762 312.391 404.838 314.083 405.162 315.376C405.477 316.634 405.914 325.502 406.132 335.083C406.608 356.007 406.21 354.991 413.939 354.991C421.586 354.991 421.133 356.355 420.911 333.971C420.713 314.142 420.293 310.107 417.945 305.457C414.903 299.434 410.113 297.153 401.371 297.566C394.484 297.891 390.779 299.486 386.747 303.86L384.17 306.656L382.597 304.278C380.748 301.483 377.775 299.143 374.817 298.152C371.997 297.208 364.428 297.299 361.595 298.312ZM447.691 298.406C442.705 299.747 439.53 301.616 435.709 305.454C430.092 311.098 427.649 317.528 427.636 326.709C427.616 341.779 435.098 352.105 448.588 355.618C457.998 358.069 470.394 355.144 475.57 349.248C476.572 348.106 477.394 346.503 477.394 345.685C477.394 343.652 474.687 340.601 472.139 339.76C469.8 338.987 467.662 339.697 463.818 342.522C457.576 347.11 447.457 343.962 443.862 336.315C441.258 330.774 440.241 331.119 459.72 330.911L476.88 330.728L478.452 328.899C479.92 327.193 480.006 326.734 479.734 322.055C479.049 310.268 473.053 301.807 463.177 298.692C458.551 297.233 452.464 297.12 447.691 298.406ZM498.782 298.322C492.085 299.948 487.445 303.976 485.739 309.647C483.935 315.64 484.883 320.217 488.838 324.615C491.905 328.027 496.03 330.156 504.279 332.582C507.263 333.46 510.459 334.828 511.381 335.621C513.646 337.569 513.651 340.476 511.391 342.736C509.953 344.173 509.234 344.395 506.155 344.35C502.486 344.295 498.348 342.696 496.68 340.687C493.484 336.834 487.605 337.161 484.291 341.376C480.128 346.668 486.713 353.78 497.786 355.95C503.858 357.141 511.807 356.462 516.503 354.354C529.447 348.545 531.944 331.071 520.76 324.563C519.318 323.725 514.812 322.066 510.746 320.877C502.011 318.323 500.174 317.174 499.91 314.095C499.635 310.897 501.888 309.264 506.575 309.264C510.207 309.264 511.292 309.748 515.204 313.109C518.492 315.933 522.502 315.344 524.352 311.766C525.847 308.873 525.533 306.471 523.326 303.959C518.548 298.516 507.981 296.09 498.782 298.322ZM74.304 299.76C72.992 301.43 72.9746 301.777 73.1879 322.002C73.3939 341.487 73.4766 342.726 74.783 345.996C76.2473 349.659 79.4346 353.176 83.0114 355.079C84.709 355.98 86.4905 356.229 91.0981 356.206C98.0676 356.171 101.554 354.828 105.872 350.512L108.516 347.87V350.058C108.516 351.553 109 352.732 110.043 353.774C111.365 355.098 112.137 355.302 115.814 355.302C118.648 355.302 120.517 354.98 121.44 354.333L122.823 353.365V326.745C122.823 295.611 123.42 298.066 115.845 298.066C112.14 298.066 110.83 298.318 109.673 299.256L108.205 300.446L108.152 318.386C108.095 338.545 107.998 339.05 103.62 341.947C98.2206 345.52 91.6313 344.395 89.2593 339.495C88.0693 337.036 87.9879 335.725 87.9879 318.994V301.121L86.4608 299.594C85.1121 298.244 84.3917 298.066 80.2856 298.066C75.9661 298.066 75.543 298.186 74.304 299.76ZM180.674 298.507C180.161 298.697 179.251 299.278 178.653 299.799C177.648 300.675 177.563 302.763 177.563 326.78C177.563 357.752 176.988 355.573 185.073 355.206C192.766 354.856 192.181 357.107 192.19 327.831C192.194 312.681 191.95 302.133 191.567 300.957C191.043 299.344 190.519 298.944 188.449 298.579C185.512 298.058 181.982 298.027 180.674 298.507ZM449.711 309.818C448.344 310.45 446.607 311.637 445.854 312.458C444.262 314.188 442.558 317.996 442.558 319.821C442.558 321.046 442.912 321.085 454.067 321.085C466.911 321.085 466.248 321.36 464.924 316.594C463.087 309.977 456.105 306.867 449.711 309.818ZM303.219 329.584C298.727 330.278 296.241 331.339 294.531 333.286C292.191 335.953 291.632 338.855 292.881 341.848C295.332 347.714 304.971 346.79 310.294 340.181C311.924 338.157 312.236 337.185 312.446 333.493L312.69 329.173L308.731 329.257C306.555 329.304 304.074 329.451 303.219 329.584Z" fill="url(#paint0_linear_276_866)"/>
<path d="M364.109 1.24425C366.534 0.870976 369.334 0.435488 370.329 0.311062C371.325 0.24885 374.87 0.0622126 378.105 0C381.34 0 386.938 0.24885 390.546 0.559912C394.154 0.933188 400 1.86638 403.608 2.67514C407.216 3.48391 413.064 5.28807 416.672 6.71895C420.28 8.14984 425.692 10.825 428.802 12.6291C431.912 14.4333 436.64 17.7306 439.315 19.908C442.052 22.0855 445.971 25.7559 448.024 28.0578C450.139 30.3597 452.813 33.8436 453.995 35.7722C455.986 39.1317 456.603 39.8056 456.603 44.482C456.603 47.9037 455.862 50.081 455.115 51.5741C454.493 52.7562 453.062 54.8714 451.942 56.2401C450.76 57.6088 448.334 59.5996 446.469 60.595C443.42 62.2747 442.918 62.5236 437.32 62.8346C432.032 62.5236 430.918 62.2747 428.18 60.8439C426.501 59.9107 422.831 57.2356 420.093 54.8714C417.356 52.5074 413.313 49.3345 411.074 47.8414C408.834 46.3483 404.667 44.0465 401.743 42.8022C398.819 41.5579 394.527 40.1271 392.101 39.5672C389.675 39.0694 385.942 38.4474 383.703 38.1985C381.464 37.9496 377.171 38.1363 374.061 38.5095C370.952 38.8828 365.787 40.0649 362.553 41.1847C359.07 42.3045 354.032 44.6686 350.424 46.9082C347.002 48.9612 341.652 52.5696 338.604 54.9337C335.494 57.3599 329.211 63.0835 324.546 67.6873C319.881 72.3532 309.741 83.3026 301.903 92.0124C294.128 100.722 285.833 109.805 277.746 117.582C269.659 125.358 250.889 138.276 247.887 140.6C244.887 142.925 242.912 144.022 242.912 144.022C240.298 145.951 234.887 148.937 231.092 151.176C227.333 153.395 220.047 156.896 215.255 159.199L215.121 159.264C210.332 161.566 202.618 164.738 198.014 166.232C193.412 167.788 186.694 169.778 183.085 170.65C179.477 171.519 172.993 172.515 168.887 173.262C164.781 173.946 156.757 174.506 151.469 174.506C142.761 174.195 142.761 173.885 138.717 172.951C136.167 172.142 133.057 170.587 131.252 169.218C129.387 167.663 128.018 166.232 126.898 164.242C125.343 161.476 125.032 159.264 125.032 157.086C125.032 154.91 125.654 152.421 127.52 149.932C129.387 147.755 130.879 146.511 132.496 145.267C134.363 144.022 136.477 143.151 138.717 142.467C140.956 141.782 147.924 139.791 154.579 138.734C161.236 137.738 169.213 135.312 173.132 134.317C177.052 133.383 183.085 131.517 186.507 130.273C189.927 128.967 196.211 126.167 200.502 123.99C204.794 121.874 211.264 118.079 214.934 115.715C219.6 112.667 221.435 111.298 221.761 111.049C221.761 111.049 230.354 105.473 237.935 99.54C244.43 94.4574 250.017 88.9446 250.686 88.3418C252.139 87.0353 254.851 84.5468 255.663 83.6759C256.476 82.8049 266.072 72.9131 272.293 65.883C278.576 58.853 288.217 48.5258 293.692 42.9889C299.228 37.3897 306.569 30.5463 309.99 27.7468C313.411 25.0094 319.321 20.7168 323.053 18.2283C326.785 15.7398 332.383 12.5047 335.494 10.9494C338.604 9.3941 343.208 7.27887 345.758 6.28346C348.308 5.28807 352.538 3.85718 355.089 3.17284C357.639 2.4885 361.683 1.61753 364.109 1.24425Z" fill="url(#paint1_linear_276_866)"/>
<path d="M208.938 33.8853C212.609 38.3024 221.767 49.1895 228.485 58.086C228.485 58.086 242.224 75.5742 251.23 86.4547C261.716 99.1219 278.601 118.183 278.601 118.183L285.443 125.649C289.735 130.625 296.661 138.651 301.202 143.628C305.744 148.606 313.062 155.946 317.168 159.865C321.212 163.785 326.52 168.638 329.194 170.691C331.932 172.744 336.099 175.605 338.525 177.036C340.951 178.529 345.679 180.831 349.101 182.138C352.521 183.507 358.182 185.187 361.728 185.871C365.274 186.617 370.437 187.177 373.547 187.177C376.534 187.177 380.763 186.865 383.003 186.492C385.242 186.181 389.534 184.999 392.645 184.005C395.755 182.946 400.482 180.893 403.219 179.338C405.957 177.845 410.311 174.796 412.861 172.682C415.411 170.566 419.455 166.398 421.756 163.536C424.432 160.239 427.293 155.635 429.408 151.405C431.398 147.299 433.203 142.446 433.949 139.274C434.633 136.349 435.318 132.616 435.939 127.764L410.87 128.013C389.161 128.199 385.469 127.142 382.795 126.271C381.053 125.711 377.507 124.093 376.885 123.471C374.397 121.605 372.78 119.614 371.909 117.872C370.727 115.508 370.312 113.704 370.312 110.656C370.25 107.358 370.623 105.865 372.241 102.568C373.422 100.079 375.267 98.1509 376.885 96.7199C378.441 95.4135 381.24 93.7649 384.971 92.9872C392.437 91.4319 456.077 92.2407 456.82 92.3651C457.562 92.4894 463.533 92.3651 465.528 93.6094C467.394 94.817 469.157 95.9112 470.215 97.5287C471.209 98.9595 472.391 101.697 472.889 103.688C473.512 106.052 473.823 110.22 473.823 116.255C473.823 121.232 473.512 127.64 473.2 130.563C472.827 133.487 471.956 138.651 471.272 142.073C470.588 145.494 468.908 151.654 467.539 155.76C466.171 159.866 463.683 166.024 462.003 169.447C460.323 172.868 457.338 178.094 455.348 181.08C453.357 184.066 449.687 188.856 447.199 191.78C444.772 194.705 440.791 198.438 438.117 200.677C435.504 202.978 430.652 206.587 427.417 208.765C424.182 210.88 418.025 214.364 413.732 216.417C409.44 218.47 403.468 220.896 400.359 221.768C397.247 222.638 392.272 223.821 389.161 224.38C385.677 225.003 380.141 225.437 374.543 225.437C368.633 225.437 363.284 225.064 358.991 224.317C355.383 223.696 348.976 222.016 344.684 220.647C340.391 219.279 333.798 216.542 330.065 214.612C326.333 212.746 320.859 209.636 317.935 207.708C315.012 205.84 309.725 201.921 306.117 199.059C302.509 196.198 292.742 187.799 284.718 179.774L248.742 140.268L221.061 107.317L212.663 97.0515C207.065 89.6067 199.289 79.6114 194.935 74.3233C190.891 68.7241 184.982 62.5781 182.183 59.1019C179.694 56.0119 174.905 51.8853 172.23 49.459C169.617 47.0326 165.884 44.1708 163.521 42.9266C161.219 41.6823 157.682 39.9821 155.629 39.4845C153.576 38.9246 149.345 38.489 146.298 38.489C143.249 38.489 139.02 38.9246 136.967 39.4845C134.914 39.9821 131.556 41.2263 129.502 42.2218C127.449 43.1549 123.655 45.5813 121.105 47.6343C118.243 49.8739 114.822 53.42 112.209 56.8417C109.845 59.9524 106.424 65.4893 104.62 69.2843C102.754 73.0792 100.515 78.3673 99.6437 81.1047C98.7728 83.8419 97.4665 88.3213 96.8444 91.0586C96.2224 93.796 95.1649 99.2707 94.5429 103.19C93.672 108.789 91.803 122.289 91.803 135.23C91.803 146.117 91.0593 157.626 91.9303 168.886C92.6767 178.281 93.1715 194.891 93.1715 200.552C93.1715 206.214 92.8605 212.498 92.4873 214.551C92.1763 216.603 91.2432 219.402 90.4968 220.772C89.7502 222.078 88.1329 223.882 86.9511 224.63C85.7691 225.438 83.5297 226.246 81.9747 226.433C80.3573 226.681 78.1179 226.495 76.6871 226.06C75.1942 225.562 72.9548 224.007 71.0886 222.078C69.347 220.336 66.9209 216.977 65.6768 214.551C64.4327 212.125 63.0651 207.769 62.132 204.348C61.1989 200.925 59.2084 190.723 58.3997 186.617C57.7776 182.573 57.0287 175.979 56.5311 172.309C55.9713 168.576 55.5373 161.297 55.0397 155.946C54.5421 150.534 54.2261 141.575 54.0396 135.914C54.0392 130.066 55.2913 113.331 55.7267 107.856C56.1622 102.755 56.9087 95.6001 57.4063 91.9918C57.9039 88.3835 59.0236 82.5355 59.8945 78.9272C60.7031 75.3188 62.2584 69.7198 63.378 66.4846C64.4356 63.2497 66.6126 57.7749 68.1679 54.3532C69.7851 50.9315 72.5221 45.7678 74.2639 42.8439C76.0679 39.9199 79.3026 35.3162 81.4798 32.5788C83.6569 29.8416 87.7003 25.5488 90.3751 23.0603C93.05 20.5097 97.8398 16.7768 100.888 14.7239C103.936 12.6708 108.85 9.74685 111.774 8.31596C114.697 6.88508 119.798 4.76985 123.095 3.71224C126.454 2.65462 131.804 1.34816 134.914 0.78825C139.268 0.0416999 142.938 -0.144938 149.718 0.103912C155.877 0.352762 160.108 0.850462 163.093 1.65923C165.519 2.34356 168.568 3.33896 169.936 3.83666C171.305 4.33436 174.663 5.82746 177.401 7.25835C180.138 8.62703 184.678 11.3644 187.477 13.3552C190.277 15.4083 194.755 19.0166 197.431 21.4428C200.105 23.8691 205.268 29.4682 208.938 33.8853Z" fill="url(#paint2_linear_276_866)"/>
</g>
<path d="M561.113 313.369C561.113 312.075 560.857 310.794 560.362 309.597C559.868 308.402 559.142 307.315 558.227 306.399C557.311 305.484 556.224 304.758 555.029 304.263C553.833 303.768 552.552 303.512 551.258 303.512C549.964 303.512 548.683 303.768 547.486 304.263C546.291 304.758 545.205 305.484 544.289 306.399C543.373 307.315 542.648 308.402 542.153 309.597C541.658 310.794 541.402 312.075 541.402 313.369C541.402 314.663 541.658 315.945 542.153 317.141C542.648 318.337 543.374 319.423 544.289 320.339C545.205 321.254 546.291 321.981 547.486 322.475C548.683 322.971 549.964 323.225 551.258 323.225C552.552 323.225 553.833 322.971 555.029 322.475C556.225 321.981 557.311 321.254 558.227 320.339C559.142 319.423 559.868 318.337 560.362 317.141C560.857 315.945 561.113 314.663 561.113 313.369ZM564.806 313.369C564.806 315.148 564.455 316.91 563.774 318.553C563.094 320.198 562.096 321.692 560.838 322.95C559.58 324.208 558.086 325.207 556.441 325.887C554.798 326.568 553.037 326.918 551.258 326.918C549.478 326.918 547.717 326.568 546.074 325.887C544.43 325.207 542.937 324.208 541.679 322.95C540.421 321.692 539.422 320.198 538.741 318.553C538.061 316.91 537.711 315.148 537.711 313.369C537.711 311.589 538.061 309.828 538.741 308.185C539.422 306.541 540.421 305.047 541.679 303.789C542.937 302.531 544.43 301.532 546.074 300.851C547.717 300.171 549.478 299.821 551.258 299.821C553.037 299.821 554.798 300.171 556.441 300.851C558.086 301.532 559.58 302.53 560.838 303.789C562.096 305.047 563.094 306.541 563.774 308.185C564.454 309.828 564.806 311.589 564.806 313.369Z" fill="#4B9A79"/>
<path d="M552.012 312.069C552.012 311.87 551.932 311.677 551.79 311.535C551.648 311.394 551.456 311.314 551.258 311.314H550.503V312.823H551.258C551.456 312.823 551.648 312.743 551.79 312.602C551.932 312.46 552.012 312.268 552.012 312.069ZM555.704 312.069C555.704 313.248 555.235 314.379 554.401 315.212C553.568 316.046 552.437 316.515 551.258 316.515H550.503V317.27C550.503 318.289 549.677 319.115 548.657 319.115C547.638 319.115 546.812 318.289 546.812 317.27V309.468C546.812 308.448 547.638 307.622 548.657 307.622H551.258C552.437 307.622 553.568 308.092 554.401 308.925C555.235 309.758 555.704 310.889 555.704 312.069Z" fill="#4B9A79"/>
<path d="M549.951 313.364C550.672 312.644 551.841 312.643 552.562 313.364L555.163 315.965C555.884 316.686 555.883 317.855 555.162 318.576C554.441 319.297 553.272 319.297 552.551 318.576L549.951 315.976C549.23 315.255 549.23 314.085 549.951 313.364Z" fill="#4B9A79"/>
</g>
<defs>
<linearGradient id="paint0_linear_276_866" x1="0.000976523" y1="314.558" x2="527.856" y2="314.558" gradientUnits="userSpaceOnUse">
<stop stop-color="#0061A6"/>
<stop offset="0.278846" stop-color="#FFBF2D"/>
<stop offset="0.605769" stop-color="#F34D33"/>
<stop offset="1" stop-color="#489C7B"/>
</linearGradient>
<linearGradient id="paint1_linear_276_866" x1="456.586" y1="31.4174" x2="125.023" y2="157.684" gradientUnits="userSpaceOnUse">
<stop stop-color="#F55634"/>
<stop offset="0.533628" stop-color="#FFC02D"/>
<stop offset="0.875203" stop-color="#FEBF2C"/>
</linearGradient>
<linearGradient id="paint2_linear_276_866" x1="452.464" y1="183.507" x2="59.0096" y2="75.5908" gradientUnits="userSpaceOnUse">
<stop offset="0.110577" stop-color="#F34D33"/>
<stop offset="0.254808" stop-color="#F44E34"/>
<stop offset="0.596154" stop-color="#449E7C"/>
<stop offset="0.811763" stop-color="#0061A6"/>
</linearGradient>
<clipPath id="clip0_276_866">
<rect width="566.859" height="357.579" fill="white"/>
</clipPath>
</defs>
</svg>
