<svg width="232" height="154" viewBox="0 0 232 154" fill="none" xmlns="http://www.w3.org/2000/svg">
<g clip-path="url(#clip0_42_624)">
<path fill-rule="evenodd" clip-rule="evenodd" d="M79.7301 118.099C78.1695 118.767 77.2759 120.87 77.8361 122.557C78.6485 125.003 82.8532 125.475 84.4067 123.293C84.9945 122.468 84.9481 120.449 84.3179 119.433C83.7613 118.535 82.2646 117.701 81.2396 117.718C80.8866 117.723 80.2072 117.895 79.7301 118.099ZM101.015 118.787C95.3514 120.246 91.2888 124.025 89.3143 129.67C88.2447 132.727 88.0638 137.973 88.9074 141.459C90.3313 147.341 93.9387 151.329 99.4315 153.091C102.255 153.997 106.71 154.115 109.276 153.352C116.042 151.34 119.768 146.165 119.493 139.16C119.329 135.005 118.721 134.676 111.165 134.654C104.737 134.636 104.645 134.674 104.645 137.409C104.645 140.154 104.855 140.283 109.333 140.283H112.979L112.977 141.291C112.973 142.581 111.94 144.729 110.758 145.9C109.349 147.298 107.985 147.796 105.543 147.802C101.736 147.813 98.8886 146.192 97.2083 143.057C96.1742 141.128 95.7638 139.277 95.7638 136.544C95.7638 132.146 96.7705 129.301 99.1555 126.958C101.137 125.012 102.598 124.426 105.465 124.426C108.568 124.426 109.753 124.959 111.978 127.355C112.625 128.052 112.955 128.189 113.986 128.189C115.025 128.189 115.367 128.044 116.149 127.275C116.939 126.498 117.078 126.174 117.078 125.111C117.078 123.539 116.583 122.591 115.114 121.355C111.825 118.586 105.949 117.516 101.015 118.787ZM12.282 118.886C11.8309 119.079 11.3038 119.425 11.11 119.654C10.9165 119.884 10.0989 121.988 9.29336 124.332C8.48778 126.675 6.03225 133.785 3.83631 140.131C1.52477 146.813 -0.0888437 151.879 0.00379248 152.166C0.334167 153.19 1.32775 153.514 3.8303 153.413C6.75639 153.295 6.81378 153.235 8.04947 149.047L8.97009 145.927L10.6261 145.921C11.5368 145.918 14.4662 145.888 17.136 145.854C21.2508 145.802 22.0083 145.854 22.1121 146.196C22.1793 146.417 22.6081 147.929 23.065 149.555C24.1037 153.252 24.3149 153.454 27.1369 153.448C29.5785 153.444 30.5557 153.061 30.6743 152.064C30.7202 151.677 30.2078 149.685 29.5353 147.636C28.8631 145.588 27.3869 140.948 26.2553 137.327C23.5691 128.73 20.5493 120.258 19.932 119.587C19.6623 119.294 18.9988 118.933 18.4578 118.785C17.0682 118.406 13.2576 118.468 12.282 118.886ZM62.185 121.403C61.612 121.872 61.4426 123.133 61.3551 127.584L61.3327 128.726H59.6931C58.4337 128.726 57.9303 128.847 57.5223 129.249C56.4014 130.351 56.599 133.211 57.8415 133.865C58.1514 134.028 59.0556 134.109 59.8503 134.044L61.2953 133.926L61.3841 141.472C61.4611 148.028 61.5371 149.159 61.9631 150.093C63.2319 152.875 65.4172 153.872 69.7861 153.663C72.945 153.512 73.9913 153.071 74.4537 151.692C74.8218 150.595 74.6215 149.09 74.0446 148.619C73.7755 148.399 73.0989 148.359 71.8632 148.489C69.7481 148.712 68.6728 148.373 68.152 147.32C67.7186 146.443 67.4751 139.961 67.7432 136.432L67.9304 133.967L70.2676 134.055C73.1538 134.164 73.7233 134.031 74.1293 133.155C74.6586 132.012 74.5351 129.886 73.9028 129.264C73.4257 128.795 72.992 128.726 70.487 128.726H67.6178V125.152C67.6178 122.73 67.512 121.473 67.2898 121.255C66.7485 120.722 62.8791 120.834 62.185 121.403ZM15.4393 127.393C14.9646 127.393 12.9157 133.759 12.0241 136.52C11.5229 138.072 11.0294 139.615 10.9275 139.947C10.7444 140.545 10.7701 140.551 13.2885 140.525C14.6887 140.51 15.9901 140.525 18.1762 140.525C20.3623 140.525 20.2257 140.27 20.2257 140.27C20.2257 140.27 20.3623 140.324 19.9524 139.195C19.2021 137.13 18.2553 133.833 18.2553 133.833C15.8492 126.721 16.2591 127.393 15.4393 127.393ZM130.605 128.857C128.432 129.33 127.661 129.641 126.181 130.642C124.562 131.738 123.7 133.492 124.198 134.675C124.545 135.499 125.685 136.252 126.586 136.252C126.871 136.252 127.843 135.763 128.747 135.166C130.662 133.901 132.632 133.466 134.602 133.871C136.418 134.246 137.101 135.069 137.247 137.062L137.365 138.67L135.078 138.68C128.274 138.708 123.291 141.135 122.247 144.93C121.798 146.564 122.077 149.15 122.852 150.528C124.806 154.002 129.861 154.987 134.447 152.787C135.508 152.278 136.611 151.605 136.899 151.293L137.422 150.724L137.839 152.021L138.256 153.318L140.5 153.396C144.014 153.518 143.804 154.139 143.662 144.017C143.532 134.785 143.377 133.67 141.964 131.751C140 129.084 135.19 127.859 130.605 128.857ZM158.845 128.832C157.242 129.395 155.428 130.541 154.71 131.443L154.044 132.28L153.906 130.861C153.727 129.031 153.3 128.726 150.911 128.726C147.714 128.726 147.921 127.843 148.014 141.124L148.094 152.425L148.739 152.939C149.235 153.334 149.821 153.452 151.279 153.452C152.927 153.452 153.261 153.366 153.844 152.792L154.515 152.133V144.703C154.515 136.31 154.589 135.939 156.487 134.703C157.854 133.813 160.07 133.587 161.298 134.211C163.025 135.089 163.108 135.521 163.26 144.406L163.396 152.426L164.041 152.939C164.959 153.669 168.119 153.669 169.036 152.939L169.681 152.426L169.818 144.54C169.953 136.749 169.963 136.644 170.611 135.75C171.978 133.864 175.314 133.214 176.897 134.524C177.369 134.915 177.842 135.646 177.984 136.204C178.122 136.747 178.314 140.579 178.41 144.718C178.619 153.757 178.444 153.318 181.839 153.318C185.199 153.318 185 153.907 184.902 144.237C184.815 135.671 184.631 133.928 183.599 131.919C182.263 129.317 180.159 128.332 176.319 128.51C173.293 128.65 171.666 129.339 169.894 131.23L168.762 132.437L168.071 131.41C167.259 130.203 165.953 129.191 164.654 128.763C163.415 128.356 160.09 128.395 158.845 128.832ZM196.666 128.873C194.476 129.453 193.081 130.26 191.403 131.918C188.935 134.356 187.862 137.134 187.857 141.1C187.847 147.61 191.134 152.071 197.06 153.589C201.195 154.648 206.64 153.384 208.913 150.837C209.354 150.344 209.714 149.651 209.714 149.298C209.714 148.419 208.526 147.101 207.406 146.738C206.379 146.404 205.439 146.711 203.751 147.931C201.008 149.913 196.563 148.554 194.984 145.25C193.84 142.856 193.393 143.006 201.95 142.916L209.489 142.836L210.18 142.046C210.824 141.309 210.862 141.111 210.743 139.09C210.442 133.997 207.808 130.342 203.469 128.996C201.437 128.366 198.763 128.317 196.666 128.873ZM219.11 128.837C216.168 129.539 214.13 131.28 213.38 133.729C212.588 136.318 213.004 138.295 214.742 140.196C216.089 141.67 217.902 142.589 221.525 143.637C222.836 144.017 224.24 144.607 224.645 144.95C225.64 145.792 225.642 147.047 224.649 148.024C224.017 148.645 223.702 148.741 222.349 148.721C220.737 148.698 218.92 148.006 218.187 147.138C216.783 145.474 214.2 145.615 212.744 147.436C210.916 149.723 213.808 152.795 218.673 153.732C221.34 154.246 224.832 153.954 226.895 153.043C232.581 150.533 233.678 142.984 228.765 140.173C228.131 139.811 226.152 139.094 224.366 138.581C220.529 137.477 219.721 136.981 219.605 135.651C219.485 134.269 220.475 133.564 222.534 133.564C224.129 133.564 224.606 133.773 226.325 135.225C227.769 136.445 229.53 136.191 230.343 134.644C231 133.395 230.861 132.357 229.892 131.272C227.793 128.921 223.151 127.872 219.11 128.837ZM32.6407 129.458C32.0644 130.179 32.0567 130.329 32.1504 139.067C32.2409 147.484 32.2772 148.02 32.8511 149.432C33.4944 151.014 34.8946 152.534 36.4658 153.356C37.2115 153.745 37.9942 153.853 40.0182 153.843C43.0799 153.828 44.6115 153.247 46.5082 151.383L47.6696 150.241V151.187C47.6696 151.833 47.8822 152.342 48.3404 152.792C48.9214 153.364 49.2602 153.452 50.8755 153.452C52.1208 153.452 52.9416 153.313 53.3472 153.034L53.9546 152.616V141.116C53.9546 127.666 54.217 128.726 50.8892 128.726C49.2619 128.726 48.6861 128.835 48.1781 129.24L47.5329 129.754L47.51 137.505C47.4846 146.213 47.442 146.431 45.519 147.683C43.1471 149.227 40.2524 148.74 39.2105 146.623C38.6877 145.561 38.6519 144.995 38.6519 137.767V130.046L37.981 129.386C37.3886 128.803 37.0722 128.726 35.2684 128.726C33.3708 128.726 33.185 128.778 32.6407 129.458ZM79.368 128.917C79.1426 128.999 78.7428 129.25 78.4799 129.475C78.0389 129.853 78.0017 130.755 78.0017 141.131C78.0017 154.511 77.749 153.569 81.3006 153.411C84.68 153.26 84.4229 154.232 84.4267 141.585C84.4286 135.04 84.3215 130.483 84.1534 129.975C83.9233 129.278 83.693 129.105 82.7838 128.947C81.4932 128.723 79.943 128.709 79.368 128.917ZM197.554 133.803C196.953 134.076 196.19 134.589 195.859 134.943C195.16 135.691 194.412 137.336 194.412 138.124C194.412 138.653 194.567 138.67 199.467 138.67C205.11 138.67 204.818 138.789 204.237 136.73C203.43 133.871 200.363 132.528 197.554 133.803ZM133.201 142.342C131.228 142.642 130.136 143.1 129.385 143.941C128.356 145.094 128.111 146.347 128.66 147.64C129.736 150.174 133.971 149.775 136.309 146.92C137.025 146.045 137.163 145.626 137.254 144.031L137.361 142.164L135.623 142.201C134.666 142.221 133.577 142.284 133.201 142.342Z" fill="url(#paint0_linear_42_624)"/>
<path d="M159.95 0.537522C161.016 0.376265 162.245 0.188133 162.683 0.13438C163.12 0.107504 164.677 0.0268761 166.098 0C167.519 0 169.979 0.107504 171.564 0.241885C173.149 0.403141 175.717 0.806283 177.302 1.15567C178.887 1.50506 181.456 2.28447 183.041 2.90262C184.626 3.52077 187.003 4.67644 188.369 5.45585C189.736 6.23525 191.812 7.65969 192.987 8.60035C194.19 9.54101 195.911 11.1267 196.813 12.1211C197.742 13.1155 198.917 14.6206 199.436 15.4538C200.311 16.9051 200.582 17.1962 200.582 19.2164C200.582 20.6946 200.256 21.6353 199.928 22.2803C199.655 22.7909 199.026 23.7047 198.535 24.296C198.015 24.8873 196.95 25.7473 196.13 26.1773C194.791 26.903 194.57 27.0105 192.111 27.1448C189.788 27.0105 189.298 26.903 188.096 26.2848C187.358 25.8817 185.746 24.726 184.544 23.7047C183.341 22.6834 181.565 21.3127 180.581 20.6677C179.598 20.0227 177.767 19.0283 176.482 18.4907C175.198 17.9532 173.312 17.3351 172.247 17.0932C171.181 16.8782 169.541 16.6094 168.558 16.5019C167.574 16.3944 165.688 16.475 164.322 16.6363C162.956 16.7976 160.688 17.3082 159.267 17.792C157.736 18.2757 155.523 19.297 153.938 20.2646C152.435 21.1515 150.085 22.7103 148.746 23.7316C147.38 24.7798 144.62 27.2524 142.57 29.2412C140.521 31.2569 136.067 35.9871 132.624 39.7497C129.208 43.5124 125.564 47.4363 122.012 50.7958C118.459 54.1553 110.214 59.7359 108.895 60.74C107.577 61.7441 106.709 62.2181 106.709 62.2181C105.561 63.0513 103.184 64.3414 101.517 65.3089C99.8657 66.2676 96.6653 67.7799 94.5598 68.7748L94.5011 68.8028C92.3969 69.7972 89.0085 71.1679 86.9863 71.8129C84.9642 72.4848 82.0129 73.3448 80.428 73.7211C78.8431 74.0974 75.9943 74.5274 74.1908 74.8499C72.3873 75.1455 68.8622 75.3874 66.5394 75.3874C62.7138 75.2531 62.7138 75.1187 60.9376 74.7155C59.8172 74.3661 58.4509 73.6942 57.6584 73.103C56.8386 72.4311 56.2374 71.8129 55.7456 70.9529C55.0624 69.7585 54.9258 68.8028 54.9258 67.8621C54.9258 66.9215 55.199 65.8464 56.0188 64.7714C56.8386 63.8307 57.4945 63.2932 58.2049 62.7557C59.0247 62.2181 59.9538 61.8419 60.9376 61.5462C61.9213 61.2506 64.9818 60.3906 67.9058 59.9337C70.8297 59.5037 74.3343 58.4555 76.0558 58.0255C77.7774 57.6223 80.428 56.8161 81.931 56.2785C83.4339 55.7141 86.1939 54.5047 88.0794 53.564C89.9649 52.6503 92.8068 51.0108 94.4191 49.9895C96.4685 48.6726 97.2747 48.0813 97.4181 47.9738C97.4181 47.9738 101.192 45.5649 104.523 43.0017C107.376 40.806 109.831 38.4245 110.125 38.164C110.763 37.5996 111.954 36.5246 112.311 36.1483C112.668 35.7721 116.884 31.4988 119.616 28.4618C122.376 25.4248 126.612 20.9633 129.017 18.5714C131.449 16.1525 134.673 13.1962 136.176 11.9867C137.679 10.8042 140.275 8.94974 141.915 7.87469C143.554 6.79965 146.014 5.40209 147.38 4.73019C148.746 4.05829 150.768 3.1445 151.889 2.71449C153.009 2.28447 154.867 1.66632 155.988 1.37068C157.108 1.07504 158.884 0.698778 159.95 0.537522Z" fill="url(#paint1_linear_42_624)"/>
<path d="M91.8195 14.6386C93.4318 16.5468 97.4548 21.2501 100.406 25.0934C100.406 25.0934 106.442 32.6483 110.398 37.3489C115.004 42.8211 122.422 51.0557 122.422 51.0557L125.428 54.2808C127.313 56.4309 130.356 59.8979 132.35 62.048C134.345 64.1981 137.56 67.3695 139.364 69.0627C141.14 70.7559 143.472 72.8522 144.647 73.7391C145.85 74.626 147.68 75.8623 148.746 76.4805C149.812 77.1255 151.889 78.1199 153.392 78.6843C154.895 79.2756 157.381 80.0013 158.939 80.2969C160.496 80.6194 162.765 80.8613 164.131 80.8613C165.443 80.8613 167.301 80.7269 168.284 80.5657C169.268 80.4313 171.154 79.9206 172.52 79.4906C173.886 79.0337 175.963 78.1468 177.165 77.4749C178.368 76.8299 180.281 75.5129 181.401 74.5992C182.521 73.6854 184.298 71.8847 185.309 70.6484C186.484 69.2239 187.741 67.2351 188.67 65.4075C189.544 63.6337 190.337 61.5374 190.665 60.1667C190.965 58.9035 191.266 57.291 191.539 55.1946L180.527 55.3021C170.99 55.3828 169.368 54.9259 168.193 54.5496C167.428 54.3077 165.87 53.6089 165.597 53.3402C164.504 52.5339 163.794 51.6739 163.411 50.9213C162.892 49.9 162.71 49.1206 162.71 47.8037C162.683 46.3793 162.847 45.7342 163.557 44.3098C164.076 43.2348 164.887 42.4016 165.597 41.7835C166.28 41.2191 167.51 40.5068 169.15 40.1709C172.429 39.499 200.385 39.8484 200.711 39.9021C201.037 39.9559 203.661 39.9021 204.537 40.4396C205.357 40.9613 206.131 41.4341 206.596 42.1328C207.033 42.751 207.552 43.9335 207.771 44.7936C208.044 45.8149 208.181 47.6156 208.181 50.2225C208.181 52.3726 208.044 55.1409 207.908 56.404C207.744 57.6672 207.361 59.8979 207.06 61.3761C206.76 62.8543 206.022 65.515 205.421 67.2889C204.82 69.0627 203.727 71.7234 202.989 73.2016C202.251 74.6798 200.939 76.9374 200.065 78.2274C199.19 79.5175 197.578 81.5869 196.485 82.8501C195.419 84.1133 193.671 85.7259 192.496 86.6934C191.348 87.6878 189.216 89.2466 187.795 90.1873C186.374 91.1011 183.669 92.6061 181.784 93.4931C179.898 94.38 177.275 95.4281 175.908 95.8044C174.542 96.1807 172.356 96.6913 170.99 96.9332C169.459 97.202 167.027 97.3901 164.568 97.3901C161.972 97.3901 159.622 97.2288 157.737 96.9063C156.152 96.6376 153.337 95.9119 151.451 95.3206C149.566 94.7294 146.669 93.5468 145.03 92.7137C143.39 91.9074 140.986 90.5636 139.701 89.7304C138.417 88.9241 136.094 87.2309 134.509 85.9946C132.924 84.7583 128.634 81.1301 125.109 77.663L109.305 60.5967L97.1449 46.3613L93.4558 41.9267C90.9965 38.7104 87.5807 34.3925 85.6679 32.1081C83.8916 29.6892 81.2957 27.0341 80.066 25.5323C78.9729 24.1974 76.8688 22.4147 75.6938 21.3665C74.5461 20.3183 72.9065 19.082 71.8681 18.5445C70.857 18.007 69.3027 17.2725 68.4009 17.0574C67.4992 16.8156 65.641 16.6274 64.302 16.6274C62.963 16.6274 61.1048 16.8156 60.2031 17.0574C59.3013 17.2725 57.8257 17.81 56.9239 18.24C56.0221 18.6431 54.3552 19.6913 53.2349 20.5782C51.9778 21.5458 50.4749 23.0777 49.3272 24.5559C48.2888 25.8997 46.7859 28.2917 45.9934 29.9311C45.1736 31.5705 44.1899 33.855 43.8073 35.0376C43.4247 36.2201 42.8509 38.1552 42.5776 39.3377C42.3043 40.5203 41.8398 42.8854 41.5665 44.5786C41.184 46.9974 40.3631 52.8295 40.3631 58.4198C40.3631 63.1231 40.0363 68.0952 40.4188 72.9597C40.7468 77.018 40.9643 84.1939 40.9643 86.6397C40.9643 89.0854 40.8276 91.7999 40.6637 92.6868C40.5271 93.5737 40.1172 94.7831 39.7892 95.3744C39.4613 95.9388 38.7508 96.7182 38.2316 97.0407C37.7124 97.3901 36.7287 97.7395 36.0455 97.8201C35.3351 97.9276 34.3513 97.847 33.7228 97.6589C33.067 97.4438 32.0832 96.7719 31.2634 95.9388C30.4983 95.1862 29.4326 93.7349 28.8861 92.6868C28.3395 91.6386 27.7386 89.7573 27.3287 88.2791C26.9189 86.8009 26.0445 82.3932 25.6892 80.6194C25.416 78.8725 25.087 76.0236 24.8684 74.4379C24.6224 72.8253 24.4318 69.6808 24.2132 67.3695C23.9946 65.0313 23.8558 61.1611 23.7739 58.7154C23.7737 56.189 24.3238 48.9594 24.515 46.5943C24.7063 44.3904 25.0342 41.2997 25.2528 39.7409C25.4715 38.1821 25.9633 35.6557 26.3459 34.0969C26.7011 32.5381 27.3842 30.1192 27.8761 28.7217C28.3406 27.3241 29.297 24.959 29.9802 23.4808C30.6907 22.0026 31.893 19.7719 32.6582 18.5088C33.4506 17.2456 34.8716 15.2568 35.828 14.0742C36.7844 12.8917 38.5607 11.0372 39.7357 9.96216C40.9107 8.86024 43.0148 7.24768 44.3538 6.36076C45.6928 5.47385 47.8516 4.21068 49.1359 3.59253C50.4203 2.97438 52.661 2.0606 54.1093 1.6037C55.5849 1.14681 57.935 0.582413 59.3013 0.340528C61.2141 0.0180146 62.8264 -0.0626137 65.8049 0.0448906C68.5102 0.152395 70.3684 0.367404 71.6801 0.716793C72.7458 1.01243 74.0848 1.44245 74.686 1.65746C75.2872 1.87247 76.7628 2.51749 77.9651 3.13563C79.1675 3.72691 81.1623 4.90946 82.392 5.76949C83.6217 6.6564 85.5892 8.21521 86.7642 9.26338C87.9392 10.3116 90.2073 12.7304 91.8195 14.6386Z" fill="url(#paint2_linear_42_624)"/>
</g>
<defs>
<linearGradient id="paint0_linear_42_624" x1="0" y1="135.851" x2="231.882" y2="135.851" gradientUnits="userSpaceOnUse">
<stop stop-color="#0067B1"/>
<stop offset="0.230769" stop-color="#3D9881"/>
<stop offset="0.519231" stop-color="#FEBF2C"/>
<stop offset="0.75" stop-color="#F66533"/>
<stop offset="1" stop-color="#F34D33"/>
</linearGradient>
<linearGradient id="paint1_linear_42_624" x1="200.575" y1="13.5724" x2="55.5464" y2="69.7336" gradientUnits="userSpaceOnUse">
<stop stop-color="#F55634"/>
<stop offset="0.533628" stop-color="#FFC02D"/>
<stop offset="0.875203" stop-color="#FEBF2C"/>
</linearGradient>
<linearGradient id="paint2_linear_42_624" x1="198.799" y1="79.2756" x2="26.3676" y2="31.1841" gradientUnits="userSpaceOnUse">
<stop offset="0.110577" stop-color="#F34D33"/>
<stop offset="0.254808" stop-color="#F44E34"/>
<stop offset="0.596154" stop-color="#449E7C"/>
<stop offset="0.811763" stop-color="#0067B0"/>
</linearGradient>
<clipPath id="clip0_42_624">
<rect width="232" height="154" fill="white"/>
</clipPath>
</defs>
</svg>
