<svg width="20" height="20" viewBox="0 0 20 20" fill="none" xmlns="http://www.w3.org/2000/svg">
<path d="M10 0C4.47708 0 0 4.47708 0 10C0 15.5229 4.47708 20 10 20C15.5229 20 20 15.5229 20 10C20 4.47708 15.5229 0 10 0Z" fill="white"/>
<path d="M8.00212 14H6.05118V7.72168H8.00212V14ZM7.01461 6.95094C6.39842 6.95094 6 6.51438 6 5.97446C6 5.42351 6.41046 5 7.0397 5C7.66893 5 8.0543 5.42351 8.06635 5.97446C8.06635 6.51438 7.66893 6.95094 7.01461 6.95094ZM15.1275 14H13.1765V10.5206C13.1765 9.71075 12.8935 9.16079 12.188 9.16079C11.6491 9.16079 11.3289 9.53312 11.1874 9.89139C11.1353 10.0188 11.1222 10.1995 11.1222 10.3791V13.999H9.17027V9.7238C9.17027 8.94001 9.14518 8.28468 9.11909 7.72067H10.8141L10.9034 8.59277H10.9426C11.1995 8.18332 11.8287 7.57917 12.8815 7.57917C14.165 7.57917 15.1275 8.43923 15.1275 10.2878V14Z" fill="#2D4073"/>
</svg>
