<svg width="24" height="24" viewBox="0 0 24 24" fill="none" xmlns="http://www.w3.org/2000/svg">
<path d="M12.0144 2C6.48343 2 2 6.47264 2 11.9903C2 16.2223 4.64019 19.8356 8.36614 21.2906C8.2778 20.4993 8.19949 19.2887 8.39872 18.4261C8.58167 17.6449 9.57346 13.4616 9.57346 13.4616C9.57346 13.4616 9.27335 12.8591 9.27335 11.9772C9.27335 10.5903 10.0828 9.55211 11.0846 9.55211C11.9399 9.55211 12.354 10.1903 12.354 10.9584C12.354 11.8147 11.8089 13.0972 11.5251 14.2854C11.287 15.2785 12.0244 16.0886 13.0068 16.0886C14.7855 16.0886 16.1558 14.2166 16.1558 11.5147C16.1558 9.13147 14.4328 7.4583 11.9724 7.4583C9.12361 7.4583 7.45267 9.59399 7.45267 11.7909C7.45267 12.6503 7.78222 13.5747 8.19698 14.0729C8.27843 14.1735 8.28845 14.2616 8.26527 14.3629C8.19009 14.6754 8.0203 15.3623 7.98772 15.4992C7.94198 15.6848 7.84424 15.7236 7.6519 15.6361C6.40511 15.0598 5.61882 13.2366 5.61882 11.7653C5.61882 8.61771 7.9163 5.72012 12.2368 5.72012C15.709 5.72012 18.4106 8.19394 18.4106 11.4884C18.4106 14.936 16.2341 17.7092 13.2061 17.7092C12.1911 17.7092 11.2381 17.1848 10.9023 16.5598L10.2758 18.933C10.0509 19.8024 9.43688 20.8925 9.02274 21.5537C9.96253 21.84 10.9512 22 11.9887 22C17.5103 22 22 17.5305 22 12.0097C22 6.49201 17.5097 2.0225 11.9887 2.0225L12.0144 2Z" fill="white"/>
</svg>
