<svg width="95" height="96" viewBox="0 0 95 96" fill="none" xmlns="http://www.w3.org/2000/svg">
<path d="M16.8547 28.3506C14.2289 22.9997 11.0402 14.8458 14.259 11.8351C16.3648 9.85393 20.3356 10.4249 26.7432 13.613C28.1527 14.318 29.4721 15.0448 30.555 15.6677C30.9289 9.74146 32.2139 1.10306 36.4727 0.0995044C37.4396 -0.125431 38.4796 0.0302933 39.5497 0.566679C42.9361 2.2537 46.6964 8.04579 48.7849 11.6318C52.0553 6.72213 57.4744 -0.0735232 61.643 1.20255C61.8493 1.26311 62.0426 1.34098 62.236 1.43614C65.9533 3.29186 66.6409 11.6534 66.6624 17.3503C71.1189 15.1918 78.3945 12.2504 81.8884 13.9936C82.3353 14.2099 82.7178 14.4954 83.0401 14.8415C86.0397 18.0857 82.3224 26.1012 79.3787 31.2791C82.8768 31.5689 88.4249 32.2653 91.6909 33.8918C93.5088 34.7959 94.5917 35.9681 94.9054 37.3696C95.881 41.6737 88.73 46.6785 83.6031 49.6503C88.5323 52.994 95.3567 58.5093 94.0674 62.7485C92.7696 66.9703 84.0844 67.6711 78.1453 67.6408C80.7753 72.9874 83.9598 81.1499 80.7624 84.1606C78.6481 86.1418 74.6729 85.5794 68.2396 82.3741C66.8386 81.6733 65.5279 80.951 64.4406 80.3237C64.0667 86.2542 62.7861 94.8926 58.5316 95.8962C57.5647 96.1298 56.5247 95.9741 55.4503 95.4377C52.0596 93.755 48.2993 87.9542 46.2107 84.3639C42.9318 89.2692 37.5212 96.0606 33.357 94.7932C33.1464 94.7326 32.9487 94.6504 32.7596 94.5552C29.038 92.7038 28.3547 84.338 28.3332 78.6454C23.8854 80.7995 16.614 83.741 13.1245 82.0021C12.6775 81.7815 12.2951 81.496 11.9728 81.1543C8.96452 77.91 12.6861 69.8902 15.6299 64.7166C12.1275 64.4268 6.58372 63.7304 3.32193 62.1039C1.5041 61.1999 0.421136 60.0319 0.0988248 58.6261C-0.876702 54.3307 6.2743 49.3215 11.3969 46.3541C6.45909 43.0017 -0.3696 37.4821 0.928238 33.2473C2.22178 29.0211 10.9156 28.3246 16.8547 28.3506Z" fill="#FFDA00"/>
<path fill-rule="evenodd" clip-rule="evenodd" d="M22.3211 24.5656C9.85407 39.2383 11.5559 61.3123 26.1372 73.8655C40.7185 86.4186 62.6443 84.697 75.1112 70.0242C87.5868 55.3515 85.8764 33.2775 71.3037 20.7244C56.718 8.17123 34.7923 9.88853 22.3211 24.5656Z" fill="#F2BD0B"/>
<path fill-rule="evenodd" clip-rule="evenodd" d="M22.9442 25.0847C11.0144 39.1259 12.6389 60.2482 26.5885 72.2563C40.5424 84.2731 61.527 82.6207 73.4611 68.5838C85.3994 54.5426 83.7621 33.4246 69.8125 21.4078C55.8586 9.3954 34.8783 11.0348 22.9442 25.0847Z" fill="#FFE000"/>
<path fill-rule="evenodd" clip-rule="evenodd" d="M75.266 30.8681C70.1477 21.2045 62.4982 27.2519 65.4721 32.248C68.4459 37.2442 79.224 45.5192 74.6558 61.5243C81.5317 53.206 79.7268 39.2989 75.266 30.8681Z" fill="#FFF682"/>
<path d="M38.2432 40.3933C37.7361 42.4437 34.397 43.3175 31.5005 41.8424C28.5997 40.3673 27.5382 37.5037 28.2945 35.103C28.9778 32.9142 32.1881 31.7506 34.6978 34.7137C37.0485 37.4864 38.7675 38.2694 38.2432 40.3933Z" fill="#F3766E"/>
<path d="M64.5094 60.0665C62.4766 62.091 59.116 61.706 56.2539 59.3009C53.4863 56.9823 52.6397 52.5009 54.9088 50.9696C57.0747 49.5162 57.917 51.5103 61.9996 53.2103C65.9576 54.8627 66.5378 58.0378 64.5094 60.0665Z" fill="#F3766E"/>
<path d="M37.7232 42.8676C37.7232 42.8676 30.6668 54.6767 37.9854 59.5518C46.3955 65.1579 52.4421 52.1592 52.4421 52.1592C52.4421 52.1592 44.4445 50.3467 37.7232 42.8676Z" fill="#54311E"/>
<path d="M46.056 59.7983C45.3899 58.094 44.1823 56.5497 42.1496 55.4207C39.2402 53.7986 36.8723 54.1922 34.9986 55.4467C35.4412 57.0212 36.3523 58.4617 37.9896 59.5518C41.0537 61.5935 43.7955 61.1609 46.056 59.7983Z" fill="#F1645C"/>
<path d="M49.5971 43.3131C49.5713 41.2152 48.7419 40.4495 48.0586 40.177C47.9942 40.1511 47.934 40.1294 47.8824 40.1121C46.8639 39.8266 45.6091 40.4019 44.943 41.4531C44.2253 42.5907 44.3757 43.936 45.3469 45.0607C45.3813 45.0996 45.42 45.1256 45.463 45.1429C45.493 45.1602 45.5231 45.1645 45.5532 45.1645C45.6434 45.1732 45.7251 45.1429 45.7939 45.0823C45.9228 44.9699 45.9443 44.7666 45.8282 44.6325C44.7109 43.3434 45.2137 42.2187 45.4801 41.7905C46.0044 40.9686 46.9542 40.5144 47.7062 40.7264C48.4927 40.9556 48.9396 41.8813 48.9611 43.3131C48.9611 43.4948 49.1244 43.6419 49.2834 43.6376C49.3694 43.6332 49.4467 43.5986 49.5112 43.5381C49.5627 43.4775 49.5971 43.3996 49.5971 43.3131Z" fill="#6C3E27"/>
<path d="M63.0482 41.8121C63.0138 41.7991 62.9838 41.7862 62.9494 41.7732C61.3507 41.1416 59.159 41.5396 57.8182 44.5719C57.7666 44.6887 57.7623 44.8185 57.8053 44.9353C57.8483 45.0564 57.9385 45.1515 58.046 45.2035C58.2737 45.3246 58.5703 45.2035 58.6777 44.9655C59.5931 42.9108 61.0456 42.0414 62.5669 42.647C62.6013 42.6599 62.6357 42.6773 62.6743 42.6902C64.7028 43.5813 66.0135 46.6266 64.7156 49.7584C64.6125 50.0006 64.7328 50.2775 64.9735 50.3813L64.9778 50.3856C65.2184 50.4808 65.4892 50.3683 65.5923 50.1261C67.1093 46.4752 65.4935 42.8806 63.0482 41.8121Z" fill="#6C3E27"/>
<path d="M41.187 27.745C41.1483 27.7277 41.0967 27.7061 41.0538 27.6931C39.541 27.0875 37.4697 27.4811 36.1847 30.3793C36.0816 30.6172 36.189 30.9027 36.4168 31.0022C36.6574 31.1277 36.9368 31.0152 37.0485 30.7686C37.9209 28.8004 39.266 28.0045 40.7357 28.5885L40.8131 28.6188C42.7341 29.458 43.9674 32.3389 42.7384 35.2976C42.6395 35.5442 42.7556 35.821 42.9962 35.9249L43.0048 35.9292C43.2455 36.0243 43.5162 35.9032 43.6151 35.6696C45.059 32.1918 43.5248 28.7658 41.187 27.745Z" fill="#6C3E27"/>
</svg>
