<svg width="82" height="82" viewBox="0 0 82 82" fill="none" xmlns="http://www.w3.org/2000/svg">
<g clip-path="url(#clip0_1368_4549)">
<path fill-rule="evenodd" clip-rule="evenodd" d="M57.7387 71.1398C56.9657 53.2781 55.3005 35.6413 52.7246 17.7346C52.2564 14.5263 49.8166 11.414 47.318 10.9627C33.7553 8.5586 20.1816 9.69363 7.24964 14.3032L8.40965 11.5189C4.91152 12.8148 2.74172 17.7545 2.39803 18.5852C2.38457 18.6171 2.37192 18.6489 2.35895 18.6806C2.3527 18.697 2.34838 18.7071 2.34838 18.7071C1.87271 19.9007 1.61646 21.2322 1.67108 22.5209C2.47186 40.6973 4.12819 58.4349 6.71344 76.2302C7.18029 79.4008 9.60122 82.0066 12.0713 81.9999C26.0134 81.899 39.8416 80.6023 53.5606 78.11C53.6841 78.0864 53.8055 78.0557 53.9261 78.0201C53.9261 78.0201 59.5275 76.8625 60.8712 69.3438L57.7387 71.1398Z" fill="#074784"/>
<path d="M67.4764 67.9298C67.3429 69.2339 66.5517 70.1928 65.7101 70.0712C63.7035 69.782 61.697 69.4927 59.6904 69.2035C55.421 68.588 51.1516 67.9725 46.882 67.3572C41.863 66.6338 36.8438 65.9102 31.8249 65.1868C31.806 65.1841 31.7869 65.1813 31.768 65.1786C30.9261 65.0572 30.3521 63.9017 30.4866 62.5972L36.6983 2.15264C36.8323 0.847848 37.6235 -0.111168 38.4646 0.0103907L72.4075 4.90316C73.2486 5.02456 73.8226 6.18025 73.6881 7.48456L67.4764 67.9298Z" fill="#F9D555"/>
<path d="M35.7855 58.5684L37.6594 58.542C38.2821 58.5433 38.9452 58.5542 39.6225 58.5651C40.2863 58.5819 40.9821 58.6054 41.6813 58.6373C43.2274 58.7095 44.6451 58.8045 46.0114 58.9238C47.3122 59.0305 48.7349 59.1759 50.4971 59.3809C52.0458 59.5691 53.397 59.7489 54.6205 59.9301L55.1474 60.0077C56.3809 60.191 57.6961 60.4061 59.2868 60.6876C61.2767 61.0414 63.3043 61.4439 65.2363 61.8683L63.2843 61.6599L59.2432 61.1977L50.4695 60.1557C49.7267 60.0625 48.9746 59.9725 48.2275 59.8876L46.0175 59.6304L41.7058 59.149L39.642 58.9334L37.6673 58.7406L35.7467 58.57L35.7855 58.5684Z" fill="#F0844F"/>
<path d="M35.3791 52.8506L37.2938 52.8242C37.9274 52.8255 38.5995 52.8359 39.2861 52.8478C39.9735 52.8638 40.6853 52.8889 41.4088 52.92C42.9857 52.9922 44.4348 53.0864 45.8373 53.2073C47.1608 53.3132 48.6162 53.4576 50.4247 53.6636C52.1936 53.8745 53.6481 54.0661 54.9947 54.2653C55.18 54.2917 55.3599 54.3174 55.538 54.3439C56.7044 54.5166 57.9371 54.7158 59.4173 54.9721C61.4513 55.3259 63.5251 55.7283 65.505 56.1536L63.5101 55.9452L59.3761 55.483L50.4006 54.4392C49.6393 54.346 48.8713 54.256 48.1061 54.1716L45.8456 53.9123L41.4348 53.4317L39.3231 53.2156L37.3026 53.0223L35.3392 52.8518L35.3791 52.8506Z" fill="#F0844F"/>
<path d="M35.8611 47.2001L37.7215 47.1738C38.3408 47.1748 38.9988 47.1865 39.6719 47.1969C40.3265 47.2132 41.018 47.2382 41.7168 47.2691C43.2508 47.3414 44.6584 47.4357 46.0171 47.5558C47.2995 47.6618 48.7137 47.8064 50.4733 48.0124C51.9741 48.1972 53.2783 48.3705 54.4538 48.5448L54.9854 48.6245C56.2455 48.8106 57.5857 49.0316 59.2025 49.3193C61.1788 49.6734 63.1918 50.0757 65.1108 50.4995L63.1721 50.2911L59.158 49.8294L50.4448 48.7872C49.7062 48.6942 48.96 48.6039 48.217 48.5206L46.0231 48.2619L41.7408 47.7813L39.6908 47.5653L37.729 47.3731L35.8198 47.2019L35.8611 47.2001Z" fill="#F0844F"/>
<path d="M37.2065 40.6683L39.0115 40.6416C39.6106 40.6429 40.2501 40.6538 40.9029 40.6651C41.5507 40.6815 42.2213 40.7063 42.8861 40.7371L42.9558 40.7411C43.6036 40.7732 44.2742 40.807 44.9377 40.857L45.2483 40.8791C45.8399 40.9208 46.4499 40.9638 47.0473 41.0226C48.301 41.1293 49.6721 41.2737 51.3803 41.4797C52.6319 41.6379 53.7329 41.7872 54.7361 41.936C55.0524 41.9829 55.3679 42.0308 55.6815 42.0796C56.9269 42.2685 58.2478 42.4927 59.8436 42.7853C61.7578 43.138 63.71 43.5404 65.5703 43.9639L63.688 43.7558L59.7957 43.2949L51.3472 42.2547C50.6318 42.161 49.9077 42.0708 49.1876 41.9871L47.06 41.7302L42.9089 41.2489L40.9207 41.0335L39.0182 40.8407L37.1636 40.6706L37.2065 40.6683Z" fill="#F0844F"/>
<path d="M38.182 34.139L39.9215 34.1123C40.4971 34.1133 41.113 34.124 41.7424 34.1354C42.3778 34.1523 43.0239 34.1767 43.6509 34.2081L43.7257 34.2119C44.3484 34.244 44.9907 34.2773 45.6274 34.3276L45.9038 34.3479C46.4811 34.3899 47.0769 34.4331 47.6596 34.4928C48.875 34.6005 50.1574 34.7406 51.8329 34.9499C52.7867 35.0752 53.6397 35.1932 54.4337 35.3103C54.9488 35.3865 55.463 35.4664 55.9727 35.5495C57.1705 35.7377 58.4419 35.9608 59.978 36.2536C61.82 36.6059 63.6971 37.0079 65.4871 37.4315L63.6707 37.2225L59.9247 36.7629L51.7934 35.7235C51.1052 35.6304 50.4082 35.5407 49.7144 35.457L47.6674 35.1996L43.673 34.7198L41.7591 34.5047L39.9276 34.3117L38.1399 34.1418L38.182 34.139Z" fill="#F0844F"/>
<path d="M37.653 27.6021L39.3963 27.5752C39.9732 27.5768 40.5907 27.5874 41.2206 27.5989C41.8462 27.6162 42.4937 27.6399 43.134 27.671L43.207 27.6743C43.8305 27.7072 44.476 27.7405 45.1137 27.7908L45.3767 27.8097C45.9582 27.8519 46.561 27.8955 47.1498 27.9564C48.3628 28.063 49.6468 28.2036 51.3321 28.4133C52.2977 28.5398 53.1635 28.6591 53.9715 28.7791C54.4766 28.8534 54.9803 28.9309 55.4808 29.0123C56.685 29.2009 57.9581 29.4247 59.4941 29.7168C61.3412 30.0698 63.2226 30.471 65.015 30.8944L63.1949 30.6858L59.4411 30.2256L51.2935 29.1867C50.6027 29.0935 49.9045 29.0035 49.2091 28.9202L47.1591 28.6622L43.155 28.183L41.2374 27.9679L39.4022 27.7749L37.6123 27.6037L37.653 27.6021Z" fill="#F0844F"/>
<path d="M38.0828 21.4174L39.7734 21.3906C40.3322 21.3921 40.9305 21.4022 41.5414 21.414C42.1473 21.4303 42.7759 21.4545 43.3986 21.4861L43.4775 21.4902C44.0795 21.522 44.7019 21.5556 45.3169 21.606L45.564 21.6246C46.1321 21.6669 46.7191 21.7105 47.2934 21.7715C48.4673 21.8775 49.7118 22.0183 51.3495 22.2278C52.0226 22.3186 52.7041 22.414 53.3814 22.5144C54.0923 22.6195 54.7427 22.7212 55.3709 22.8259C56.5495 23.0168 57.7835 23.2403 59.2611 23.5303C61.0497 23.8828 62.8728 24.2832 64.6096 24.7059L62.8441 24.4981L59.2039 24.0385L51.305 23.0002C50.637 22.9078 49.9597 22.8179 49.2857 22.7343L47.2984 22.4776L43.4178 21.9978L41.5582 21.7828L39.7792 21.5905L38.0405 21.4198L38.0828 21.4174Z" fill="#F0844F"/>
<path d="M38.6292 15.5849L40.2652 15.5586C40.8038 15.5599 41.382 15.5701 41.9736 15.5815C42.5727 15.5986 43.1794 15.6231 43.7669 15.6542L43.8631 15.659C44.4392 15.6914 45.0358 15.7232 45.6223 15.7735L45.8617 15.7923C46.4114 15.8345 46.9789 15.8784 47.5326 15.9386C48.6603 16.0443 49.8632 16.1842 51.4548 16.3949C51.8909 16.4563 52.3355 16.5199 52.7792 16.5849C53.7124 16.7231 54.5502 16.8565 55.3404 16.9925C56.4807 17.184 57.6731 17.407 59.0975 17.696C60.8277 18.0479 62.5881 18.4489 64.2646 18.8708L62.5529 18.6626L59.0362 18.2041L51.4052 17.167C50.759 17.0746 50.1044 16.9843 49.4522 16.9012L47.5347 16.6446L43.7843 16.1656L41.989 15.9508L40.2697 15.7586L38.5848 15.5874L38.6292 15.5849Z" fill="#F0844F"/>
<path d="M39.4295 8.84086L41.0866 8.81348C41.6324 8.8154 42.2189 8.82533 42.818 8.83638C43.4327 8.85416 44.0474 8.87898 44.6339 8.90973L44.7069 8.91309C45.2985 8.94529 45.9103 8.97812 46.5136 9.02921L46.7536 9.04698C47.3103 9.08943 47.8867 9.13363 48.4488 9.19433C49.5891 9.29955 50.8084 9.43985 52.4218 9.65045C52.947 9.72332 53.4806 9.79876 54.0125 9.87804C54.8611 10.0028 55.6285 10.1245 56.3586 10.2488C57.5098 10.4394 58.7174 10.6626 60.166 10.9522C61.9163 11.3044 63.7003 11.7045 65.3994 12.1277L63.6685 11.9189L60.1056 11.4599L52.3734 10.4227C51.7192 10.3305 51.0563 10.2406 50.3966 10.1572L48.4514 9.9003L44.6523 9.42063L42.8331 9.20586L41.0916 9.01367L39.3873 8.84246L39.4295 8.84086Z" fill="#F0844F"/>
<path fill-rule="evenodd" clip-rule="evenodd" d="M65.8185 71.3352C69.2436 57.6532 72.6612 44.0044 76.0867 30.3184C76.5291 30.4601 76.9737 30.6026 77.424 30.7479C74.0047 44.4067 70.5873 58.0608 67.1697 71.7159C66.7293 71.5914 66.2781 71.4646 65.8185 71.3352Z" fill="#29ADFC"/>
<path fill-rule="evenodd" clip-rule="evenodd" d="M64.9411 71.0233C64.594 70.9204 64.2562 70.8204 63.9185 70.72C67.3339 57.0774 70.7518 43.4291 74.1833 29.7168C74.4929 29.8385 74.84 29.9729 75.1854 30.1065C71.7788 43.7138 68.3602 57.3681 64.9411 71.0233Z" fill="#29ADFC"/>
<path fill-rule="evenodd" clip-rule="evenodd" d="M78.35 31.0293C78.666 31.1067 79.0105 31.1917 79.3281 31.2691C75.8975 44.9688 72.4787 58.6194 69.0528 72.3006C68.7575 72.2056 68.4125 72.0943 68.0927 71.9905C71.5089 58.3471 74.9291 44.6911 78.35 31.0293Z" fill="#29ADFC"/>
<path fill-rule="evenodd" clip-rule="evenodd" d="M68.8696 73.2762C68.8008 73.5661 68.726 73.8821 68.6561 74.1779C66.9154 73.6401 65.1881 73.1052 63.4597 72.5704C63.5353 72.3243 63.6328 72.007 63.7265 71.6973C65.3866 72.2083 67.1268 72.741 68.8696 73.2762Z" fill="#29ADFC"/>
<path fill-rule="evenodd" clip-rule="evenodd" d="M68.3082 75.0342C68.399 75.056 68.4562 75.067 68.5104 75.0829C69.1822 75.3055 69.2738 75.2501 69.4402 74.5839C69.8175 73.0569 70.204 71.5356 70.5855 70.0096C71.5165 66.2879 72.4443 62.5649 73.377 58.8431C74.0686 56.0776 74.7611 53.3113 75.4542 50.5454C76.2198 47.4965 76.9877 44.4476 77.7525 41.3976C78.4176 38.7452 79.0898 36.0975 79.7314 33.4384C79.9873 32.3832 80.4103 31.3652 80.3246 30.226C80.3019 29.9309 80.3052 29.6325 80.3049 29.336C80.3023 27.091 80.3003 24.8477 80.3003 22.6032C80.299 21.1554 80.3086 19.7086 80.2839 18.2606C80.2818 18.0953 80.1087 17.8293 79.9663 17.7816C79.8214 17.7329 79.5273 17.8391 79.4521 17.9731C78.8255 19.0689 78.239 20.1876 77.6349 21.2975C76.5476 23.2905 75.4544 25.2812 74.3737 27.2793C74.0224 27.9291 73.5779 28.5572 73.3879 29.2632C72.5745 32.289 71.841 35.3388 71.0788 38.3797C70.225 41.7853 69.3721 45.1899 68.5196 48.5959C67.7538 51.6564 66.9916 54.7202 66.2264 57.7827C65.3562 61.2683 64.4802 64.7522 63.6134 68.2404C63.4638 68.837 63.3458 69.4446 63.2125 70.0484L62.7923 71.7773C62.725 71.9453 62.6502 72.0933 62.6075 72.2491C62.3512 73.173 62.3583 73.1806 63.3697 73.5416C63.1057 74.5041 62.6059 75.479 62.499 76.4772C62.3528 77.8629 63.8301 78.0935 64.7494 78.3365C65.8183 78.6184 67.2787 79.0756 67.6812 77.5978C67.7264 77.4329 68.3023 75.0325 68.3082 75.0342ZM79.3281 31.2691C75.8976 44.9689 72.4787 58.6195 69.0528 72.3007C68.7575 72.2057 68.4125 72.0944 68.0927 71.9906C71.509 58.3472 74.9291 44.6913 78.35 31.0294C78.666 31.1067 79.0105 31.1918 79.3281 31.2691ZM77.424 30.7478C74.0047 44.4066 70.5873 58.0607 67.1697 71.7158C66.7294 71.5915 66.2781 71.4645 65.8184 71.3351C69.2435 57.6531 72.6611 44.0043 76.0867 30.3183C76.5291 30.46 76.9735 30.6025 77.424 30.7478ZM63.9185 70.7199C67.334 57.0773 70.7519 43.429 74.1834 29.7167C74.493 29.8384 74.84 29.9728 75.1855 30.1064C71.7788 43.7139 68.3604 57.3682 64.9413 71.0233C64.594 70.9204 64.2563 70.8203 63.9185 70.7199ZM63.4597 72.5704C63.5353 72.3242 63.6328 72.0069 63.7265 71.6972C65.3865 72.2081 67.1268 72.7408 68.8696 73.2762C68.8007 73.5661 68.7259 73.882 68.6561 74.1779C66.9154 73.6401 65.1882 73.1053 63.4597 72.5704Z" fill="#7BEFE5"/>
<path d="M61.5185 65.9317C61.6497 69.1342 59.7555 72.1434 57.3261 72.5966C43.6079 75.0887 29.7797 76.3853 15.8372 76.486C13.3666 76.4928 10.9465 73.887 10.4793 70.7169C7.89422 52.9211 6.2374 35.1838 5.43662 17.0074C5.30048 13.7677 7.1181 10.256 9.48937 9.34918C22.8773 4.2735 36.9861 2.95077 51.0842 5.44937C53.5825 5.90053 56.0223 9.01317 56.4899 12.2213C59.0811 30.2302 60.7512 47.9657 61.5185 65.9317Z" fill="#F18545"/>
<path fill-rule="evenodd" clip-rule="evenodd" d="M53.3507 26.1926C53.4818 27.666 52.4868 28.9574 51.1298 29.0783L14.3432 32.3442C12.986 32.4648 11.7794 31.3684 11.6484 29.8946L10.4089 15.9437C10.2787 14.4708 11.2736 13.1793 12.6308 13.0587L49.4172 9.79227C50.7752 9.67167 51.9818 10.7681 52.113 12.2407L53.3507 26.1926Z" fill="#F9D455"/>
<path fill-rule="evenodd" clip-rule="evenodd" d="M51.9054 25.3663C52.018 26.636 51.0803 27.7563 49.8109 27.8687L15.4179 30.9226C14.1482 31.0351 13.0281 30.0976 12.9155 28.8285L11.8474 16.8051C11.7348 15.536 12.6725 14.4165 13.9424 14.3033L48.3349 11.2494C49.6046 11.1365 50.7247 12.0749 50.8381 13.343L51.9054 25.3663Z" fill="#074784"/>
<path fill-rule="evenodd" clip-rule="evenodd" d="M26.2286 42.2418C26.3228 43.372 25.4996 44.3619 24.3892 44.4551L19.5878 44.8542C18.4777 44.9473 17.5021 44.1066 17.408 42.9761L16.9971 38.0466C16.9029 36.9172 17.7269 35.9257 18.8365 35.8333L23.6389 35.4339C24.749 35.3403 25.7246 36.1818 25.8186 37.313L26.2286 42.2418Z" fill="#F9D455"/>
<path fill-rule="evenodd" clip-rule="evenodd" d="M38.0519 41.4165C38.1461 42.5466 37.3229 43.5376 36.2128 43.6299L31.4109 44.0293C30.3008 44.1223 29.3248 43.2812 29.2303 42.1507L28.8203 37.2214C28.7262 36.0918 29.5497 35.1003 30.6597 35.0078L35.4617 34.6086C36.5722 34.5157 37.5477 35.357 37.6419 36.4874L38.0519 41.4165Z" fill="#FFA4AC"/>
<path fill-rule="evenodd" clip-rule="evenodd" d="M49.8751 40.5919C49.9691 41.7219 49.1458 42.713 48.0357 42.8057L43.2341 43.2053C42.124 43.2977 41.1476 42.4567 41.0536 41.3264L40.6431 36.3977C40.5489 35.2675 41.3729 34.2761 42.4825 34.1836L47.2844 33.7843C48.3945 33.6919 49.3705 34.5335 49.4646 35.6631L49.8751 40.5919Z" fill="#7BEFE5"/>
<path fill-rule="evenodd" clip-rule="evenodd" d="M27.2041 53.8657C27.2973 54.9947 26.4738 55.9862 25.3639 56.0788L20.5623 56.4787C19.4522 56.5708 18.4762 55.7287 18.3816 54.5997L17.9716 49.6701C17.8774 48.5401 18.7009 47.5492 19.811 47.4569L24.6126 47.0567C25.7235 46.9646 26.6991 47.8056 26.7931 48.9355L27.2041 53.8657Z" fill="#FFA4AC"/>
<path fill-rule="evenodd" clip-rule="evenodd" d="M39.156 53.0309C39.2502 54.1607 38.4267 55.1519 37.3166 55.2443L32.5146 55.6444C31.4051 55.736 30.4286 54.8956 30.3352 53.7654L29.9244 48.836C29.8295 47.7059 30.6538 46.715 31.7638 46.6228L36.5653 46.2227C37.6762 46.1308 38.651 46.9716 38.745 48.1018L39.156 53.0309Z" fill="#F9D455"/>
<path fill-rule="evenodd" clip-rule="evenodd" d="M40.0425 64.6587C40.1362 65.7894 39.3132 66.781 38.2031 66.8731L33.4007 67.2735C32.2911 67.3651 31.3142 66.523 31.221 65.3937L30.811 60.4644C30.7165 59.335 31.5403 58.3435 32.6504 58.2506L37.452 57.8518C38.5621 57.7586 39.5377 58.6 39.6325 59.7299L40.0425 64.6587Z" fill="#FFA4AC"/>
<path fill-rule="evenodd" clip-rule="evenodd" d="M28.165 65.488C28.2592 66.6183 27.436 67.6098 26.3256 67.7011L21.5237 68.1015C20.4136 68.1939 19.438 67.3523 19.3439 66.2225L18.933 61.2927C18.8388 60.163 19.6633 59.1723 20.7724 59.0789L25.5743 58.6798C26.6844 58.5874 27.6604 59.4285 27.7546 60.5587L28.165 65.488Z" fill="#7BEFE5"/>
<path fill-rule="evenodd" clip-rule="evenodd" d="M51.6313 62.4742C51.7592 64.0674 50.4439 65.4724 48.6944 65.6135L46.192 65.8144C44.4424 65.9539 42.9206 64.7766 42.7925 63.1833L41.6568 49.0294C41.5287 47.4356 42.8434 46.0303 44.5928 45.8901L47.0952 45.6891C48.8453 45.5484 50.3674 46.7265 50.4952 48.3197L51.6313 62.4742Z" fill="#F9D455"/>
<path d="M18.6104 41.7924C18.6104 41.7924 18.5591 41.6761 18.4826 41.4775C18.4062 41.2786 18.3027 40.9935 18.201 40.6434C18.1019 40.2927 18.0064 39.8762 17.9611 39.4092C17.9371 39.1754 17.9287 38.9281 17.9435 38.6701C17.9675 38.2497 18.0714 37.8186 18.3134 37.4681C18.5833 37.0774 19.0074 36.8639 19.4632 36.766C19.9611 36.6576 20.3977 36.6803 20.7648 36.7106C21.132 36.7476 21.4294 36.8061 21.6388 36.8496C21.8479 36.8935 21.9693 36.9252 21.9693 36.9252C21.9693 36.9252 21.8547 36.9773 21.6487 37.041C21.4432 37.1078 21.1471 37.1831 20.8034 37.2687C20.6328 37.3113 20.4488 37.3539 20.2622 37.4065C20.0212 37.4744 19.7753 37.5647 19.5494 37.6731C19.3581 37.7649 19.1765 37.8916 19.0641 38.0713C18.9609 38.2359 18.9233 38.4323 18.8942 38.6243C18.7957 39.2729 18.7974 39.9281 18.7548 40.5814C18.7321 40.9392 18.7049 41.243 18.6725 41.457C18.6432 41.6713 18.6104 41.7924 18.6104 41.7924Z" fill="white"/>
<path d="M30.3101 40.8537C30.3101 40.8537 30.2596 40.7376 30.1827 40.539C30.1059 40.3401 30.0029 40.0554 29.9017 39.7049C29.802 39.3544 29.7067 38.9375 29.6613 38.4704C29.6369 38.2373 29.6286 37.9897 29.6436 37.731C29.6991 36.7814 30.209 36.0329 31.1638 35.8274C31.6613 35.7188 32.0974 35.7422 32.4651 35.772C32.8324 35.8091 33.1302 35.8669 33.3396 35.9113C33.5479 35.9546 33.6698 35.9867 33.6698 35.9867C33.6698 35.9867 33.5551 36.0391 33.3489 36.1024C33.1439 36.1692 32.8476 36.2444 32.5044 36.3301C32.3328 36.3724 32.149 36.4153 31.9627 36.4683C31.7758 36.5183 31.5849 36.5768 31.4068 36.6479C31.1848 36.7312 30.9254 36.8578 30.7936 37.064C30.7641 37.1102 30.7415 37.1605 30.7212 37.2115C30.6433 37.4062 30.5999 37.613 30.5732 37.8205C30.5471 38.0279 30.5271 38.2409 30.5144 38.4527C30.4926 38.8885 30.4715 39.2949 30.4547 39.643C30.4324 40.0007 30.405 40.3046 30.3724 40.5185C30.3427 40.733 30.3101 40.8537 30.3101 40.8537Z" fill="white"/>
<path d="M42.0903 39.9078C42.0903 39.9078 42.0391 39.7924 41.9625 39.593C41.8861 39.3948 41.7827 39.1094 41.6815 38.7593C41.5818 38.409 41.4869 37.9921 41.4411 37.5246C41.4172 37.2914 41.4087 37.044 41.423 36.786C41.4758 35.8307 41.9837 35.0899 42.944 34.8819C43.4411 34.7733 43.8772 34.797 44.2452 34.8268C44.612 34.8638 44.9099 34.9213 45.1187 34.9655C45.3279 35.0099 45.4498 35.0411 45.4498 35.0411C45.4498 35.0411 45.3346 35.0931 45.1288 35.1566C44.9238 35.2233 44.6272 35.2993 44.2838 35.3845C44.1128 35.4267 43.9284 35.4698 43.7423 35.5225C43.555 35.5717 43.3642 35.6309 43.1861 35.7024C42.9771 35.7818 42.7452 35.8955 42.6046 36.0757C42.513 36.1931 42.4619 36.3359 42.427 36.4791C42.3456 36.8132 42.3109 37.1641 42.2941 37.507C42.2726 37.9425 42.2516 38.349 42.2345 38.6983C42.2122 39.0551 42.1845 39.3587 42.1525 39.5737C42.1232 39.787 42.0903 39.9078 42.0903 39.9078Z" fill="white"/>
<path d="M43.4761 52.1587C43.4761 52.1587 43.4261 52.0432 43.3492 51.8432C43.2728 51.6449 43.1694 51.3595 43.0677 51.0096C42.9685 50.6592 42.8736 50.2426 42.8282 49.7751C42.8034 49.5419 42.7951 49.2942 42.8097 49.0361C42.864 48.084 43.3742 47.3374 44.3302 47.132C44.8281 47.0235 45.2642 47.0468 45.6318 47.0768C45.9985 47.114 46.2961 47.1716 46.5053 47.2155C46.7146 47.2595 46.8363 47.2916 46.8363 47.2916C46.8363 47.2916 46.7212 47.3436 46.5154 47.4072C46.3104 47.4738 46.0138 47.5494 45.6704 47.6349C45.499 47.6774 45.3153 47.7208 45.1287 47.773C44.9413 47.8225 44.7511 47.8811 44.5723 47.953C44.2307 48.0815 43.9646 48.2756 43.8419 48.6321C43.7222 48.9791 43.6992 49.3928 43.6804 49.7576C43.6582 50.1933 43.638 50.5996 43.6207 50.9479C43.5984 51.3059 43.5707 51.6092 43.5389 51.824C43.5097 52.0373 43.4761 52.1587 43.4761 52.1587Z" fill="white"/>
<path d="M31.6385 52.3825C31.6385 52.3825 31.5878 52.2666 31.5109 52.0673C31.4348 51.8691 31.3318 51.5833 31.2301 51.2337C31.1305 50.8833 31.0352 50.4663 30.9898 49.9991C30.9654 49.7657 30.9571 49.5178 30.9721 49.2601C31.028 48.3049 31.5317 47.5625 32.4919 47.3555C32.9898 47.2471 33.4259 47.2705 33.7939 47.3004C34.1612 47.3376 34.4586 47.3953 34.6671 47.4391C34.8763 47.4835 34.9981 47.5152 34.9981 47.5152C34.9981 47.5152 34.883 47.5676 34.6772 47.6312C34.4722 47.6975 34.1759 47.7734 33.8332 47.8584C33.6613 47.9013 33.4773 47.9443 33.2907 47.9966C33.1041 48.046 32.9134 48.1047 32.7353 48.176C32.5436 48.2482 32.3373 48.3491 32.1946 48.5003C32.1541 48.5433 32.1203 48.5923 32.0921 48.644C31.9816 48.8476 31.9464 49.0844 31.9082 49.3098C31.906 49.3227 31.9033 49.3359 31.9017 49.349C31.8756 49.5569 31.8554 49.7694 31.8429 49.9807C31.8211 50.4166 31.8005 50.8236 31.7832 51.1722C31.7604 51.5298 31.7335 51.8327 31.7013 52.0475C31.6709 52.2616 31.6385 52.3825 31.6385 52.3825Z" fill="white"/>
<path d="M32.1798 63.9579C32.1798 63.9579 32.1285 63.842 32.0525 63.6432C31.9756 63.4449 31.8726 63.1595 31.7709 62.8091C31.6713 62.4587 31.576 62.042 31.531 61.5748C31.5067 61.3413 31.4983 61.0943 31.5126 60.8358C31.5651 59.8859 32.0832 59.1364 33.0331 58.9319C33.531 58.8235 33.9671 58.8465 34.3352 58.8765C34.7016 58.9135 34.999 58.9715 35.2082 59.0152C35.4174 59.0592 35.5392 59.0908 35.5392 59.0908C35.5392 59.0908 35.4241 59.1433 35.2183 59.2067C35.0133 59.2732 34.7165 59.3491 34.3733 59.4345C34.2022 59.4764 34.0182 59.5197 33.8316 59.5722C33.6451 59.6217 33.454 59.6814 33.2757 59.7521C33.1668 59.7932 33.061 59.843 32.9614 59.9032C32.8805 59.9523 32.8022 60.0078 32.7367 60.0762C32.6985 60.1161 32.6647 60.1603 32.6378 60.2085C32.61 60.2586 32.5888 60.3132 32.569 60.3671C32.5432 60.4372 32.5219 60.5091 32.5056 60.5821C32.4801 60.6954 32.4621 60.8102 32.4426 60.9246C32.4165 61.1316 32.396 61.3451 32.3838 61.5561C32.3616 61.9922 32.3409 62.399 32.3241 62.7476C32.3014 63.1048 32.2736 63.4086 32.2423 63.6232C32.2121 63.8368 32.1798 63.9579 32.1798 63.9579Z" fill="white"/>
<path d="M20.4199 64.6777C20.4199 64.6777 20.369 64.5617 20.2931 64.3635C20.2162 64.1642 20.1129 63.8785 20.0112 63.529C19.9121 63.1786 19.8166 62.7627 19.7713 62.2946C19.7474 62.0614 19.7386 61.8139 19.7532 61.5561C19.8072 60.6068 20.3217 59.8567 21.2737 59.6518C21.7712 59.5426 22.2077 59.5666 22.575 59.5964C22.9422 59.6337 23.2396 59.6914 23.4489 59.7354C23.6581 59.7791 23.7795 59.811 23.7795 59.811C23.7795 59.811 23.6648 59.8631 23.4589 59.9266C23.2534 59.9934 22.9573 60.0687 22.6144 60.1544C22.443 60.1963 22.259 60.2396 22.0724 60.2921C21.8855 60.3426 21.6946 60.4005 21.5165 60.472C21.3354 60.54 21.1723 60.6299 21.053 60.7279C21.0396 60.7393 21.0173 60.7527 21.0101 60.7619C21.0034 60.7711 20.9966 60.78 20.9891 60.7875C20.9808 60.7947 20.9723 60.8017 20.9622 60.8072L20.9118 60.8778L20.86 60.9497L20.8538 60.9585L20.8504 60.9635C20.8643 60.9417 20.8177 61.0144 20.8807 60.9172L20.874 60.9315L20.8626 60.9592C20.8479 60.9987 20.8269 61.0288 20.8152 61.0738C20.7487 61.2356 20.7176 61.4424 20.6832 61.6448C20.6571 61.8524 20.6361 62.0651 20.6244 62.2768C20.6027 62.7121 20.5815 63.1187 20.5649 63.4675C20.5421 63.8255 20.5144 64.1285 20.4825 64.3431C20.4531 64.5568 20.4199 64.6777 20.4199 64.6777Z" fill="white"/>
<path d="M19.538 53.3529C19.538 53.3529 19.4872 53.2373 19.4103 53.0377C19.3338 52.8399 19.2309 52.5541 19.1288 52.2041C19.0299 51.8534 18.9347 51.437 18.8892 50.9698C18.8301 50.3614 18.8184 49.6794 19.1582 49.1453C19.4431 48.6972 19.8821 48.4369 20.3913 48.3267C20.8892 48.2177 21.3253 48.2411 21.6929 48.2715C22.0601 48.3085 22.3575 48.3663 22.5664 48.4102C22.7755 48.4541 22.8974 48.4856 22.8974 48.4856C22.8974 48.4856 22.7822 48.5381 22.5764 48.6017C22.3714 48.6685 22.0752 48.7438 21.7319 48.829C21.5604 48.8714 21.3766 48.9148 21.19 48.967C21.0031 49.0169 20.8123 49.0755 20.6345 49.1475C20.4492 49.2167 20.2567 49.3122 20.1134 49.4515C20.075 49.489 20.0417 49.5314 20.0133 49.5771C19.9006 49.7584 19.8594 49.9791 19.8235 50.1865C19.8158 50.2307 19.8065 50.2752 19.8009 50.3197C19.7748 50.5278 19.7539 50.7401 19.7422 50.9519C19.7194 51.3872 19.6992 51.7943 19.6824 52.1426C19.6597 52.5006 19.6325 52.8039 19.6001 53.0187C19.57 53.2315 19.538 53.3529 19.538 53.3529Z" fill="white"/>
<path d="M49.7929 59.7461C49.7929 59.7461 49.8467 59.8608 49.9282 60.0574C50.0097 60.2544 50.1207 60.5365 50.2315 60.8835C50.3408 61.2322 50.4466 61.6457 50.5046 62.1113C50.5349 62.3448 50.5494 62.5909 50.5416 62.8498C50.5123 63.8054 50.0236 64.5618 49.0718 64.7936C48.5777 64.915 48.1407 64.9036 47.7726 64.8831C47.4046 64.8557 47.1054 64.8054 46.8953 64.7675C46.6852 64.7289 46.5625 64.7002 46.5625 64.7002C46.5625 64.7002 46.6759 64.6448 46.8801 64.5758C47.0835 64.5035 47.378 64.4203 47.7187 64.3262C47.8889 64.2792 48.0717 64.2313 48.2565 64.1741C48.4423 64.1187 48.6312 64.0556 48.8073 63.9792C48.9926 63.9042 49.1931 63.8009 49.3294 63.6515C49.5318 63.4294 49.5814 63.0745 49.6093 62.786C49.6295 62.5767 49.645 62.3642 49.6513 62.1524C49.6622 61.7163 49.6719 61.3092 49.6798 60.9601C49.6924 60.6021 49.7121 60.298 49.7387 60.0827C49.7634 59.8675 49.7929 59.7461 49.7929 59.7461Z" fill="#074784"/>
<path d="M38.1217 60.9941C38.1217 60.9941 38.1755 61.1088 38.257 61.306C38.3394 61.5026 38.4494 61.784 38.5604 62.1321C38.6693 62.4799 38.7755 62.8938 38.8331 63.3598C38.8634 63.5917 38.8784 63.8396 38.8704 64.0984C38.8411 65.0451 38.3413 65.812 37.4007 66.0413C36.9066 66.1632 36.4697 66.1513 36.1015 66.1312C35.7335 66.1034 35.4343 66.0538 35.2242 66.0152C35.014 65.9774 34.8914 65.9484 34.8914 65.9484C34.8914 65.9484 35.0047 65.893 35.2089 65.8245C35.4123 65.7522 35.7064 65.6689 36.0475 65.5741C36.2173 65.5278 36.4005 65.48 36.5853 65.422C36.771 65.3669 36.9601 65.3035 37.1361 65.2279C37.3092 65.1572 37.4816 65.0644 37.6199 64.937C37.6456 64.9135 37.6696 64.8882 37.6915 64.861C37.8086 64.7154 37.8578 64.5201 37.8911 64.3396C37.9097 64.2387 37.9282 64.1358 37.9383 64.0337C37.959 63.8254 37.9737 63.6119 37.9803 63.4002C37.9912 62.9641 38.0008 62.5569 38.0088 62.2086C38.0215 61.8507 38.0407 61.546 38.0676 61.3309C38.0918 61.116 38.1217 60.9941 38.1217 60.9941Z" fill="#074784"/>
<path d="M26.3697 62.25C26.3697 62.25 26.4243 62.3644 26.5059 62.5613C26.5882 62.7575 26.6982 63.0399 26.8092 63.3877C26.9176 63.7348 27.0243 64.1491 27.0819 64.6155C27.1127 64.8474 27.127 65.0953 27.1197 65.3532C27.0932 66.3124 26.6044 67.064 25.6497 67.297C25.1556 67.4192 24.7187 67.4062 24.3502 67.3868C23.9826 67.3591 23.6834 67.3095 23.4728 67.2709C23.2632 67.2313 23.1405 67.2036 23.1405 67.2036C23.1405 67.2036 23.2539 67.149 23.4581 67.08C23.6615 67.0073 23.9555 66.9237 24.2967 66.8297C24.4664 66.7834 24.6497 66.7347 24.8345 66.6775C25.0201 66.6229 25.2092 66.559 25.3853 66.4834C25.4998 66.4363 25.6109 66.3798 25.7142 66.3112C25.8007 66.2539 25.8851 66.1879 25.949 66.1053C26.023 66.0097 26.0645 65.8939 26.0978 65.779C26.1149 65.7199 26.1281 65.6599 26.1394 65.5995C26.1586 65.4967 26.1726 65.3929 26.1872 65.2893C26.2078 65.0809 26.2226 64.8674 26.2291 64.6557C26.2397 64.2196 26.2493 63.8125 26.2576 63.4633C26.2703 63.1054 26.2895 62.8016 26.3164 62.5857C26.3412 62.3719 26.3697 62.25 26.3697 62.25Z" fill="#074784"/>
<path d="M24.6613 50.041C24.6613 50.041 24.7144 50.1554 24.7967 50.3528C24.8782 50.5492 24.9892 50.8317 25.1 51.1784C25.2084 51.5263 25.3148 51.9406 25.3723 52.407C25.403 52.6389 25.4181 52.8868 25.4101 53.1448C25.3974 53.5558 25.3254 53.9796 25.095 54.3278C24.8253 54.7357 24.4081 54.9751 23.9403 55.0885C23.4458 55.2104 23.0092 55.1985 22.6408 55.1775C22.2728 55.1506 21.9741 55.1007 21.7635 55.0624C21.553 55.0236 21.4312 54.9951 21.4312 54.9951C21.4312 54.9951 21.5445 54.94 21.7484 54.8707C21.9523 54.7993 22.2463 54.7157 22.5875 54.6212C22.7572 54.5741 22.94 54.5257 23.1253 54.469C23.3111 54.4144 23.5001 54.3505 23.6757 54.2741C23.8575 54.2008 24.0414 54.1019 24.1818 53.9629C24.2225 53.9227 24.2578 53.8772 24.2864 53.8279C24.3958 53.6399 24.4301 53.4123 24.461 53.2004C24.4668 53.1607 24.4743 53.1208 24.4781 53.0809C24.4983 52.8726 24.5134 52.6586 24.5201 52.4466C24.531 52.0105 24.5403 51.6041 24.5486 51.2558C24.5612 50.897 24.5805 50.5931 24.6074 50.3777C24.6312 50.1632 24.6613 50.041 24.6613 50.041Z" fill="#074784"/>
<path d="M36.4895 49.5049C36.4895 49.5049 36.5428 49.6189 36.6251 49.8167C36.7066 50.0123 36.8171 50.2951 36.9284 50.6425C37.0364 50.9902 37.1431 51.4045 37.2007 51.8699C37.231 52.1026 37.246 52.3501 37.238 52.6076C37.2086 53.5612 36.7185 54.3205 35.7688 54.5522C35.2739 54.6736 34.8368 54.6619 34.4688 54.6413C34.1007 54.6143 33.802 54.5644 33.5919 54.5258C33.3815 54.4875 33.2588 54.4585 33.2588 54.4585C33.2588 54.4585 33.3727 54.4034 33.5764 54.3342C33.7801 54.2623 34.0738 54.1792 34.415 54.0847C34.5855 54.0376 34.7679 53.9902 34.9531 53.9322C35.1384 53.8781 35.3275 53.8147 35.5035 53.7381C35.7233 53.6488 35.9617 53.521 36.0966 53.3185C36.1664 53.2138 36.2052 53.09 36.2343 52.9687C36.2667 52.8347 36.2841 52.6974 36.3034 52.5608C36.3042 52.5552 36.305 52.5496 36.3058 52.544C36.3267 52.3356 36.342 52.1226 36.3487 51.9112C36.3588 51.4746 36.3689 51.0675 36.3769 50.7189C36.3898 50.3608 36.4092 50.0563 36.4356 49.8409C36.46 49.6268 36.4895 49.5049 36.4895 49.5049Z" fill="#074784"/>
<path d="M35.6427 37.9473C35.6427 37.9473 35.6965 38.0618 35.778 38.2586C35.86 38.4548 35.9709 38.7373 36.0814 39.0849C36.1901 39.4322 36.2965 39.8466 36.3544 40.3128C36.4206 40.8443 36.4217 41.4114 36.2239 41.9172C35.9954 42.5019 35.5219 42.8485 34.922 42.9938C34.4274 43.1158 33.9905 43.1043 33.6225 43.0841C33.2545 43.0566 32.9558 43.0066 32.7452 42.9682C32.535 42.9292 32.4124 42.9009 32.4124 42.9009C32.4124 42.9009 32.5257 42.8461 32.7299 42.7769C32.9333 42.7049 33.2279 42.6211 33.5685 42.5273C33.7383 42.4807 33.9218 42.4324 34.1063 42.3748C34.2919 42.3203 34.4811 42.2558 34.6576 42.1802C34.857 42.099 35.0514 41.9866 35.1936 41.8221C35.3519 41.639 35.3959 41.4108 35.4316 41.1784C35.4414 41.1145 35.4502 41.0505 35.4592 40.9866C35.4801 40.7782 35.4949 40.5649 35.5021 40.3531C35.5122 39.917 35.5218 39.5101 35.5298 39.1611C35.5424 38.803 35.5625 38.4987 35.5886 38.2836C35.6134 38.0691 35.6427 37.9473 35.6427 37.9473Z" fill="#074784"/>
<path d="M47.3794 36.917C47.3794 36.917 47.4332 37.0315 47.5147 37.2283C47.5962 37.4245 47.7072 37.7075 47.818 38.0541C47.9265 38.4018 48.0331 38.8158 48.0908 39.2822C48.121 39.5146 48.1361 39.7617 48.1281 40.0199C48.0985 40.9763 47.6159 41.7324 46.6583 41.9635C46.1643 42.0856 45.7272 42.0734 45.3588 42.0527C44.9911 42.0253 44.6921 41.9754 44.482 41.9376C44.271 41.8987 44.1492 41.8706 44.1492 41.8706C44.1492 41.8706 44.2626 41.8154 44.4668 41.7465C44.6702 41.6743 44.9642 41.591 45.3053 41.497C45.4751 41.4499 45.6583 41.4018 45.8431 41.3445C46.0284 41.2894 46.2179 41.226 46.3936 41.1498C46.6812 41.0338 46.9767 40.8536 47.077 40.5428C47.1378 40.3538 47.176 40.1537 47.1957 39.9558C47.2163 39.7471 47.2314 39.5339 47.2381 39.3225C47.249 38.8864 47.2583 38.4792 47.2666 38.1299C47.2793 37.7717 47.2985 37.4679 47.3254 37.2525C47.3491 37.0389 47.3794 36.917 47.3794 36.917Z" fill="#074784"/>
<path d="M24.38 38.3799C24.38 38.3799 24.4338 38.4942 24.5153 38.6919C24.5977 38.8874 24.7078 39.1701 24.8195 39.5178C24.9271 39.8655 25.0338 40.2795 25.0917 40.7451C25.122 40.9778 25.1371 41.2255 25.1287 41.4837C25.1172 41.8396 25.057 42.2028 24.8972 42.5239C24.7247 42.8702 24.4338 43.1266 24.0829 43.2848C23.9468 43.3462 23.8042 43.3918 23.6593 43.427C23.1647 43.5491 22.7278 43.5371 22.3598 43.5167C21.9918 43.4893 21.6926 43.4392 21.4825 43.4009C21.2723 43.3625 21.1497 43.3343 21.1497 43.3343C21.1497 43.3343 21.2631 43.2783 21.4677 43.2092C21.6711 43.1372 21.9649 43.0542 22.306 42.9597C22.4761 42.9131 22.659 42.8647 22.8438 42.8077C23.0296 42.7531 23.2186 42.6892 23.395 42.6125C23.6135 42.5175 23.8369 42.4051 23.9772 42.2047C24.0839 42.0523 24.1223 41.8695 24.1556 41.6894C24.2107 41.3921 24.2312 41.0872 24.2388 40.7853C24.2496 40.3493 24.2597 39.9422 24.2673 39.5935C24.2799 39.2358 24.3001 38.9318 24.3262 38.7159C24.3505 38.5018 24.38 38.3799 24.38 38.3799Z" fill="#074784"/>
<path d="M8.40965 21.6784C8.40965 21.6784 8.3954 21.6251 8.36849 21.5253C8.34415 21.4244 8.30202 21.278 8.26215 21.0899C8.2197 20.9017 8.16685 20.6728 8.11977 20.4098C8.06932 20.1451 8.0155 19.8472 7.96842 19.5206C7.87473 18.8661 7.80202 18.094 7.80042 17.256C7.80378 16.8372 7.81563 16.4021 7.86848 15.9592C8.04049 14.5204 8.40965 13.1078 9.43673 12.0293C10.3669 11.0524 11.5476 10.578 12.8658 10.4648C13.0599 10.4529 13.2147 10.4668 13.3172 10.4657C13.4213 10.4696 13.4764 10.4718 13.4764 10.4718C13.4764 10.4718 13.4243 10.4904 13.3255 10.5239C13.2284 10.5567 13.0861 10.6047 12.9046 10.665C11.5963 11.0995 10.4949 11.924 9.80573 13.1333C9.19393 14.2068 8.9159 15.4399 8.77336 16.6671C8.60328 18.1305 8.57525 19.6092 8.46474 21.0745C8.43656 21.4581 8.40965 21.6784 8.40965 21.6784Z" fill="white"/>
<path d="M58.1287 56.5762C58.1287 56.5762 58.1505 56.637 58.1926 56.7519C58.2304 56.8678 58.2943 57.0358 58.3595 57.2519C58.427 57.4682 58.5111 57.7309 58.5934 58.035C58.6767 58.3397 58.7699 58.6838 58.8564 59.0628C59.0304 59.8208 59.1908 60.7191 59.2744 61.7005C59.3114 62.1921 59.3396 62.7031 59.321 63.2275C59.3068 63.7518 59.2648 64.2871 59.1723 64.8212C59.0739 65.3539 58.9463 65.8872 58.7483 66.3947C58.5529 66.903 58.2983 67.3837 58.0004 67.814C57.6974 68.2442 57.3404 68.609 56.9765 68.9181C56.5989 69.2088 56.2244 69.4567 55.8497 69.6223C55.6682 69.7136 55.4875 69.7841 55.3126 69.8434C55.1413 69.9089 54.9741 69.9551 54.816 69.9947C54.5064 70.0889 54.2244 70.1166 53.9992 70.1549C53.7723 70.188 53.59 70.1867 53.4689 70.1973C53.3471 70.2032 53.2823 70.2066 53.2823 70.2066C53.2823 70.2066 53.3421 70.1797 53.4537 70.13C53.5647 70.0829 53.7276 70.0133 53.934 69.9242C54.1353 69.8243 54.3815 69.7172 54.6462 69.5655C54.7808 69.4949 54.9211 69.4159 55.0601 69.3188C55.1307 69.2738 55.2034 69.2277 55.2782 69.1806C55.3512 69.1327 55.4211 69.0748 55.4941 69.021C55.5655 68.9647 55.6429 68.9143 55.7151 68.8554C55.7866 68.794 55.858 68.7314 55.931 68.6672C56.0827 68.5471 56.2118 68.3941 56.357 68.2546C56.6254 67.95 56.8814 67.6138 57.1006 67.2352C57.3152 66.8537 57.4956 66.4386 57.6477 65.9994C57.7922 65.5579 57.9024 65.0923 57.9839 64.6171C58.0734 64.1428 58.1151 63.6554 58.1537 63.1735C58.1907 62.6903 58.199 62.2089 58.2083 61.7403C58.2155 60.8041 58.1889 59.9172 58.1663 59.1521C58.1445 58.3866 58.126 57.7429 58.1234 57.2905C58.1194 56.8371 58.1287 56.5762 58.1287 56.5762Z" fill="white"/>
<path d="M25.9781 29.9843L30.7058 29.565L43.3823 11.6895L39.4098 12.0421L25.9781 29.9843Z" fill="#29ADFC"/>
<path d="M18.3844 30.6591L23.1531 30.2358L36.0671 12.3389L31.8159 12.7162L18.3844 30.6591Z" fill="#29ADFC"/>
<path fill-rule="evenodd" clip-rule="evenodd" d="M13.6029 56.7757C13.6029 57.1479 13.3013 57.4488 12.9297 57.4488C12.5588 57.4488 12.2576 57.1481 12.2576 56.7757C12.2576 56.4048 12.5588 56.1035 12.9297 56.1035C13.3013 56.1035 13.6029 56.4048 13.6029 56.7757Z" fill="white"/>
<path fill-rule="evenodd" clip-rule="evenodd" d="M44.8248 70.8267C44.8248 71.3023 44.4392 71.688 43.964 71.688C43.4888 71.688 43.1031 71.3023 43.1031 70.8267C43.1031 70.3515 43.4888 69.9658 43.964 69.9658C44.439 69.9658 44.8248 70.3515 44.8248 70.8267Z" fill="#074784"/>
<path fill-rule="evenodd" clip-rule="evenodd" d="M14.4407 48.4681C14.4407 48.9439 14.0551 49.3294 13.5794 49.3294C13.1047 49.3294 12.7189 48.9439 12.7189 48.4681C12.7189 47.9928 13.1045 47.6074 13.5794 47.6074C14.0551 47.6074 14.4407 47.9928 14.4407 48.4681Z" fill="#074784"/>
<path fill-rule="evenodd" clip-rule="evenodd" d="M22.7795 9.78255C22.7795 10.2582 22.3941 10.6437 21.9186 10.6437C21.4434 10.6437 21.0581 10.2582 21.0581 9.78255C21.0581 9.30721 21.4434 8.92188 21.9186 8.92188C22.3941 8.92188 22.7795 9.30721 22.7795 9.78255Z" fill="#074784"/>
<path fill-rule="evenodd" clip-rule="evenodd" d="M55.4501 53.353C55.4501 53.8287 55.0648 54.2139 54.5893 54.2139C54.1141 54.2139 53.7288 53.8285 53.7288 53.353C53.7288 52.8774 54.1141 52.4922 54.5893 52.4922C55.0649 52.4922 55.4501 52.8774 55.4501 53.353Z" fill="white"/>
<path fill-rule="evenodd" clip-rule="evenodd" d="M39.2527 7.80892C39.2527 8.28459 38.867 8.67024 38.3918 8.67024C37.9167 8.67024 37.531 8.28459 37.531 7.80892C37.531 7.33358 37.9167 6.94824 38.3918 6.94824C38.867 6.94824 39.2527 7.33342 39.2527 7.80892Z" fill="white"/>
<path fill-rule="evenodd" clip-rule="evenodd" d="M55.9506 35.4533C55.9506 35.8896 55.5976 36.2432 55.1615 36.2432C54.7254 36.2432 54.3719 35.8896 54.3719 35.4533C54.3719 35.0174 54.7253 34.6641 55.1615 34.6641C55.5976 34.6641 55.9506 35.0174 55.9506 35.4533Z" fill="white"/>
<path fill-rule="evenodd" clip-rule="evenodd" d="M30.7185 71.6878C30.7185 72.2861 30.2345 72.7706 29.6362 72.7706C29.0388 72.7706 28.5538 72.2861 28.5538 71.6878C28.5538 71.0904 29.0388 70.6055 29.6362 70.6055C30.2345 70.6056 30.7185 71.0904 30.7185 71.6878Z" fill="#F9D455"/>
<path fill-rule="evenodd" clip-rule="evenodd" d="M30.4509 7.13784C30.4509 7.71392 29.9845 8.18062 29.4084 8.18062C28.8328 8.18062 28.3665 7.71392 28.3665 7.13784C28.3665 6.5624 28.8328 6.0957 29.4084 6.0957C29.9845 6.0957 30.4509 6.56256 30.4509 7.13784Z" fill="#F9D455"/>
<path fill-rule="evenodd" clip-rule="evenodd" d="M54.6435 40.8271C54.9699 43.3945 55.9909 44.3957 57.6455 44.4292C55.9948 44.7641 55.1922 46.0357 55.3452 48.6088C54.9906 46.1141 54.0961 44.8938 52.3583 44.9521C53.9733 44.5655 54.7926 43.3704 54.6435 40.8271Z" fill="#074784"/>
<path fill-rule="evenodd" clip-rule="evenodd" d="M12.7575 34.2637C12.8088 36.3012 13.5285 37.1668 14.8221 37.3252C13.5019 37.4561 12.7718 38.388 12.6864 40.4161C12.6078 38.4333 12.0045 37.4058 10.6382 37.313C11.9343 37.1388 12.6714 36.2679 12.7575 34.2637Z" fill="white"/>
<path fill-rule="evenodd" clip-rule="evenodd" d="M15.397 65.6338C15.818 68.2286 16.8895 69.2102 18.5713 69.1867C16.9061 69.5855 16.1348 70.9044 16.3797 73.5135C15.933 70.9913 14.9827 69.782 13.2189 69.9018C14.8462 69.453 15.6364 68.2107 15.397 65.6338Z" fill="white"/>
<path d="M16.7466 29.0611C16.7466 29.0611 16.8688 28.8396 17.0962 28.4629C17.3235 28.0862 17.6534 27.552 18.0684 26.9258C18.2742 26.6119 18.4982 26.2715 18.7449 25.9197C18.9886 25.5656 19.2441 25.1905 19.5179 24.8101C20.0625 24.0473 20.6566 23.2439 21.2641 22.4502C21.5703 22.0551 21.8749 21.659 22.1821 21.2748C22.4867 20.8885 22.7926 20.5131 23.0901 20.1511C23.3867 19.7879 23.6825 19.4441 23.9615 19.1169C24.2379 18.7879 24.5076 18.483 24.7581 18.203C25.2555 17.6396 25.6862 17.183 25.9916 16.866C26.2967 16.5491 26.479 16.374 26.479 16.374C26.479 16.374 26.3571 16.5958 26.1301 16.9725C25.9032 17.3494 25.5734 17.884 25.1588 18.51C24.952 18.8243 24.7281 19.1638 24.482 19.5163C24.2382 19.8704 23.9824 20.2453 23.7089 20.6255C23.4361 21.0069 23.153 21.3997 22.8589 21.7937C22.5673 22.1901 22.2636 22.587 21.9614 22.985C21.3522 23.7771 20.7303 24.5598 20.1345 25.2834C19.8379 25.6464 19.5416 25.9898 19.2631 26.3173C18.987 26.6464 18.716 26.9506 18.4665 27.2313C17.9694 27.7948 17.5389 28.2515 17.2338 28.5686C16.9288 28.8862 16.7466 29.0611 16.7466 29.0611Z" fill="#7BEFE5"/>
<path d="M33.8289 28.4107C33.8289 28.4107 33.9469 28.1871 34.1674 27.8067C34.388 27.426 34.7086 26.8861 35.1131 26.253C35.314 25.9356 35.5316 25.5914 35.772 25.2352C36.0107 24.8773 36.2586 24.498 36.5257 24.1132C37.0576 23.3407 37.6383 22.5273 38.2316 21.7233C38.5307 21.3229 38.8286 20.9216 39.1291 20.5321C39.4274 20.1407 39.7266 19.7603 40.0181 19.3931C40.308 19.0252 40.5979 18.6762 40.8709 18.3442C41.1414 18.0106 41.4062 17.7012 41.652 17.4164C42.1394 16.8446 42.5625 16.381 42.862 16.0589C43.1615 15.7365 43.3413 15.5586 43.3413 15.5586C43.3413 15.5586 43.2233 15.7823 43.0028 16.163C42.7818 16.5436 42.4621 17.0838 42.0574 17.717C41.8573 18.0348 41.6389 18.3783 41.3986 18.7348C41.1608 19.0929 40.9121 19.472 40.6448 19.8573C40.3784 20.243 40.102 20.6405 39.8145 21.0396C39.5296 21.4411 39.233 21.8431 38.938 22.2461C38.3422 23.0486 37.7338 23.8419 37.1507 24.5754C36.8608 24.9436 36.5699 25.2919 36.2978 25.6246C36.0273 25.9585 35.7616 26.267 35.5163 26.5522C35.0289 27.1238 34.6063 27.5879 34.3071 27.9102C34.0079 28.2326 33.8289 28.4107 33.8289 28.4107Z" fill="#7BEFE5"/>
<path d="M16.7751 24.0703C16.7751 24.0703 16.8251 23.9497 16.9263 23.7497C17.0264 23.5493 17.1776 23.2697 17.3722 22.9444C17.7609 22.294 18.3389 21.4756 18.9727 20.7032C19.6067 19.9311 20.297 19.2049 20.8599 18.6976C21.141 18.444 21.386 18.2413 21.5641 18.1043C21.7406 17.9666 21.8494 17.8945 21.8494 17.8945C21.8494 17.8945 21.7999 18.0153 21.6985 18.2153C21.5994 18.4162 21.4477 18.6958 21.2531 19.0212C20.8644 19.6716 20.2867 20.4897 19.6514 21.2615C19.017 22.0331 18.3263 22.7588 17.7641 23.2665C17.4826 23.5202 17.238 23.7233 17.0607 23.8604C16.8836 23.9978 16.7751 24.0703 16.7751 24.0703Z" fill="#7BEFE5"/>
<path d="M39.0107 25.4807C39.0107 25.4807 39.0561 25.358 39.1485 25.1539C39.2396 24.9493 39.3796 24.6639 39.5602 24.3306C39.9216 23.6647 40.4643 22.8226 41.0652 22.0243C41.6661 21.2258 42.3253 20.4716 42.866 19.941C43.1367 19.6756 43.3728 19.4626 43.5451 19.3185C43.7157 19.1734 43.8215 19.0967 43.8215 19.0967C43.8215 19.0967 43.7765 19.2195 43.6846 19.4236C43.593 19.6286 43.4535 19.9143 43.2733 20.2477C42.9125 20.9138 42.3687 21.7554 41.767 22.5532C41.1653 23.3509 40.5056 24.1046 39.9654 24.6357C39.6949 24.9012 39.4587 25.1142 39.2873 25.2589C39.1166 25.4041 39.0107 25.4807 39.0107 25.4807Z" fill="#7BEFE5"/>
</g>
<defs>
<clipPath id="clip0_1368_4549">
<rect width="82" height="82" fill="white"/>
</clipPath>
</defs>
</svg>
