<svg width="63" height="62" viewBox="0 0 63 62" fill="none" xmlns="http://www.w3.org/2000/svg">
<g clip-path="url(#clip0_19_1284)">
<path d="M46.7245 60.7438L46.8616 60.7347V60.6801C46.8159 60.6983 46.7702 60.7256 46.7245 60.7438Z" fill="#FC4648"/>
<path d="M0 54.1624V54.2898C0 58.195 2.90601 61.4265 6.67102 61.9363C7.05483 61.9909 7.44778 62.0182 7.84987 62.0091L43.7363 61.4083C44.7781 61.3901 45.7924 61.1625 46.7337 60.7438C46.7794 60.7256 46.8251 60.7074 46.8708 60.6801L47.4099 15.7936L47.4191 15.4112L1.30679 14.6375C1.30679 14.6375 1.30679 14.6466 1.29765 14.6466C0.877284 15.5751 0.630548 16.5855 0.593995 17.6233C0.584856 17.6688 0.584856 17.7052 0.584856 17.7598L0 54.1624Z" fill="#E6592C"/>
<path d="M47.4008 15.7845L46.8708 60.6801C47.5653 60.3615 48.2141 59.9245 48.7898 59.4148L49.1188 59.1144L50.188 58.1404L54.4556 54.2898L55.5248 53.3158L59.2624 49.9295L60.3316 48.9737L60.4595 48.8554C62.0862 47.3807 63 45.3144 63 43.1297V9.51256C63 7.41889 62.1684 5.52548 60.8068 4.13273C60.6606 3.96888 60.4961 3.82323 60.3225 3.68669C60.1305 3.51373 59.9386 3.35898 59.7285 3.21334C59.6005 3.11321 59.4543 3.02218 59.3081 2.94935C59.2898 2.93115 59.2807 2.91294 59.2533 2.91294C59.1527 2.85832 59.0431 2.7855 58.9243 2.73088C58.8695 2.68537 58.8146 2.66716 58.7598 2.64896C58.6501 2.59434 58.5496 2.53972 58.4399 2.4851C58.0744 2.31215 57.6906 2.18471 57.2976 2.07547C57.2337 2.05727 57.1697 2.03906 57.0966 2.02085C56.9504 1.97534 56.7859 1.94803 56.6305 1.92072C56.5117 1.90252 56.3929 1.87521 56.265 1.86611C56.064 1.8479 55.8538 1.82059 55.6527 1.81149L18.8799 0.00910909C16.8146 -0.100126 14.8225 0.619005 13.3146 1.98444L2.85117 12.4255C2.21149 13.0718 1.6906 13.8273 1.31593 14.6375L47.4099 15.4204L47.4008 15.7845Z" fill="#E6592C"/>
<path d="M5.71478 57.0721L43.1273 57.0721L43.1273 20.4692L5.71478 20.4692L5.71478 57.0721Z" fill="#FFFEF8"/>
<path d="M1.30679 14.6466L47.4008 15.7845L47.8029 15.7936L59.2624 5.52548L60.3316 4.56967L60.8159 4.14184C60.6697 3.97798 60.5052 3.83234 60.3316 3.69579C60.1397 3.52284 59.9478 3.36809 59.7376 3.22244C59.6097 3.12231 59.4634 3.03128 59.3172 2.95846C59.299 2.94025 59.2898 2.92204 59.2624 2.92204C59.1527 2.85832 59.0431 2.7855 58.9243 2.73088C58.8695 2.68537 58.8146 2.66716 58.7598 2.64896C58.6501 2.59434 58.5496 2.53972 58.4399 2.4851C58.0744 2.31215 57.6906 2.18471 57.2976 2.07547C57.2337 2.05727 57.1697 2.03906 57.0966 2.02085C56.9504 1.97534 56.7859 1.94803 56.6305 1.92072C56.5117 1.90252 56.3929 1.87521 56.265 1.86611C56.064 1.8479 55.8538 1.82059 55.6527 1.81149L18.8799 0.00910909C16.8146 -0.100126 14.8225 0.619005 13.3146 1.98444L2.85118 12.4255C2.21149 13.0718 1.6906 13.8273 1.31593 14.6375L1.30679 14.6466Z" fill="#F9851F"/>
<path d="M36.8369 37.0673C36.4415 36.6646 35.9159 36.4366 35.3574 36.4259L34.7951 36.4151L34.6483 35.8615C33.7803 32.5886 31.4371 30.0215 28.47 28.8231C28.8256 29.4662 29.0289 30.208 29.0289 30.9974C29.0289 33.4461 27.0751 35.4383 24.6736 35.4383C22.5214 35.4383 20.7288 33.8382 20.3799 31.7434C20.3119 31.3353 20.6538 30.9974 21.0675 30.9974C21.4813 30.9974 21.807 31.3382 21.9104 31.7388C22.2328 32.9872 23.3495 33.9106 24.6736 33.9106C26.2489 33.9106 27.5306 32.6037 27.5306 30.9974C27.5306 29.3911 26.2489 28.0842 24.6736 28.0842C24.528 28.0842 24.3829 28.0874 24.2384 28.0935H24.1031C22.9492 28.0902 21.9727 27.3031 21.66 26.2278C21.5445 25.8305 21.2198 25.4884 20.8061 25.4884C20.3923 25.4884 20.0499 25.8264 20.123 26.2337C20.248 26.9298 20.5448 27.5655 20.9665 28.0935H20.2411C19.084 28.0935 18.1041 27.3052 17.7908 26.2276C17.6753 25.8303 17.3506 25.4882 16.9369 25.4882C16.5231 25.4882 16.1807 25.8263 16.2538 26.2335C16.5512 27.8917 17.8224 29.2073 19.4385 29.5396C17.1644 30.9038 15.4211 33.1385 14.699 35.8615L14.5522 36.4151L13.9899 36.4259C13.4313 36.4366 12.9057 36.6646 12.5098 37.0678C12.1038 37.4823 11.8799 38.0337 11.8799 38.62C11.8799 39.8074 12.8265 40.7917 13.99 40.8141L14.5523 40.8249L14.699 41.3785C15.9135 45.9576 20.0151 49.1558 24.6736 49.1558C29.3321 49.1558 33.4338 45.9576 34.6482 41.3785L34.795 40.8249L35.3573 40.8141C36.5208 40.7917 37.4674 39.8074 37.4674 38.62C37.4674 38.0337 37.2435 37.4823 36.8369 37.0673ZM19.8369 37.7549C19.4403 37.7549 19.0885 37.9546 18.8732 38.2605C18.635 38.5988 18.3159 38.9638 17.9022 38.9638C17.4884 38.9638 17.1428 38.6223 17.2528 38.2234C17.5703 37.073 18.6085 36.2271 19.8369 36.2271C21.0653 36.2271 22.1035 37.073 22.421 38.2235C22.531 38.6223 22.1853 38.9638 21.7716 38.9638C21.3579 38.9638 21.0388 38.5988 20.8006 38.2604C20.5853 37.9545 20.2335 37.7549 19.8369 37.7549ZM24.6737 45.617C23.2923 45.617 21.9843 44.976 21.1142 43.9063C20.855 43.5876 20.9766 43.1278 21.3286 42.916C21.6892 42.699 22.1525 42.8283 22.4445 43.1314C23.0255 43.7345 23.8294 44.0892 24.6737 44.0892C25.518 44.0892 26.3218 43.7345 26.9029 43.1314C27.1948 42.8283 27.6582 42.699 28.0188 42.916C28.3708 43.1278 28.4924 43.5876 28.2332 43.9063C27.3631 44.976 26.0551 45.617 24.6737 45.617ZM31.4451 38.9638C31.0314 38.9638 30.7123 38.5988 30.4741 38.2605C30.2588 37.9546 29.907 37.7549 29.5104 37.7549C29.1138 37.7549 28.762 37.9546 28.5467 38.2605C28.3085 38.5988 27.9895 38.9638 27.5757 38.9638C27.162 38.9638 26.8163 38.6223 26.9264 38.2234C27.2438 37.073 28.2821 36.2271 29.5104 36.2271C30.7388 36.2271 31.7771 37.0729 32.0945 38.2234C32.2045 38.6223 31.8589 38.9638 31.4451 38.9638Z" fill="#E6592C"/>
</g>
<defs>
<clipPath id="clip0_19_1284">
<rect width="63" height="62" fill="white"/>
</clipPath>
</defs>
</svg>
