<svg width="71" height="71" viewBox="0 0 71 71" fill="none" xmlns="http://www.w3.org/2000/svg">
<path d="M22.4714 32.3804C27.4398 31.8035 31.9523 27.811 32.3853 22.4598C32.7196 18.3079 35.5 0 35.5 0C35.5 0 37.8778 18.361 38.6223 22.4598C39.7086 28.5548 43.3323 31.6517 48.5362 32.3804C52.6536 32.9421 71 35.5 71 35.5C71 35.5 52.6764 38.0731 48.5362 38.6196C41.9269 39.4925 39.2604 43.7127 38.6223 48.5402C38.0677 52.6693 35.5 71 35.5 71C35.5 71 32.8031 52.6845 32.3701 48.5402C31.8079 42.9765 27.7436 39.2041 22.4714 38.612C18.3236 38.1566 0 35.4924 0 35.5C0 35.5 18.3236 32.8586 22.4714 32.3804Z" fill="#FFCD05"/>
</svg>
