<svg width="90" height="90" viewBox="0 0 90 90" fill="none" xmlns="http://www.w3.org/2000/svg">
<g clip-path="url(#clip0_32_631)">
<path d="M4.29612 62.9792C4.24515 63.1902 4.19347 63.3895 4.14249 63.5695C3.91152 64.3862 4.36995 65.238 5.18452 65.4778L5.18945 65.4792C5.9998 65.7176 6.86324 65.2616 7.09667 64.4502C7.19968 64.0916 7.28617 63.7284 7.36035 63.3625C8.35738 64.0459 9.37093 65.3846 8.81089 67.9366C8.81089 67.9366 8.56163 69.2613 8.73284 70.1487C8.768 70.3318 8.57253 70.4714 8.408 70.3832L7.73371 70.021C7.58078 69.9391 7.3948 70.0544 7.40464 70.2274C7.44788 70.9794 7.39304 72.6261 6.27718 73.8383C5.53151 74.6483 5.37542 75.2906 5.4053 75.7304C5.41866 75.9273 5.17819 76.0349 5.02913 75.9055C3.97022 74.9879 1.94979 72.9288 2.13647 70.714C2.14878 70.5688 2.0289 70.4482 1.88546 70.4725L1.35214 70.5625C1.23436 70.5821 1.12186 70.5073 1.0969 70.3905C0.865574 69.3084 0.0446768 64.2997 4.29612 62.9792Z" fill="#52565B"/>
<path d="M62.8618 12.311C63.6173 12.3377 64.3686 12.1563 65.0289 11.7882C71.4702 8.19421 84.9284 16.8082 82.2944 26.9114C81.8494 28.6182 81.0731 29.9637 80.1179 31.0299C80.1144 31.0201 80.1126 31.0103 80.1091 31.0004C79.116 28.2508 76.2623 26.5391 73.3676 26.949C71.5676 27.2039 70.0885 28.1774 69.1358 29.5165C68.7136 30.1099 67.9384 30.2969 67.2919 29.9615C65.8336 29.2043 64.0733 29.0127 62.3552 29.6065C59.5923 30.5617 57.8334 33.3868 58.2033 36.2865C58.2047 36.2967 58.2075 36.3065 58.2089 36.3167C56.8726 35.8031 55.5683 34.9601 54.3937 33.6438C47.4419 25.8539 55.4906 12.0501 62.8618 12.311Z" fill="#E3E4E5"/>
<path d="M12.6665 62.8885C12.7849 62.1383 12.6879 61.368 12.3856 60.6712C7.23763 48.8035 8.72017 40.6983 9.84306 37.279C10.3233 35.8168 11.1438 34.4745 12.3149 33.4761C16.7383 29.7042 24.1583 31.4926 38.77 33.0149C44.6913 33.6315 49.2114 32.4981 52.5815 30.7786C53.0072 31.7918 53.6024 32.7572 54.3938 33.6442C55.5683 34.9604 56.8726 35.8034 58.2089 36.3171C58.7057 40.0693 62.3081 42.4708 65.8885 41.607C66.1479 41.5445 66.3965 41.4611 66.6397 41.369C67.8997 43.2052 69.7968 44.2167 71.6066 43.78C71.6383 43.7723 71.6685 43.7611 71.7001 43.7526C71.4579 46.9968 71.3598 50.4727 70.6026 54.4106C69.1689 61.8658 62.5356 64.1218 60.248 64.6847C59.7523 64.8067 59.3701 65.1958 59.2566 65.6936C58.0374 71.0258 58.5401 78.4747 58.7201 80.6073C58.75 80.9602 58.9658 81.2679 59.2815 81.4282C61.2464 82.4263 61.9119 84.1334 62.1373 85.1758C62.2368 85.6364 61.8768 86.0691 61.4053 86.0691H52.7052C52.3751 86.0691 52.0777 85.8529 51.9887 85.5351C51.4508 83.6159 52.0647 82.2712 52.3653 81.7667C52.464 81.6008 52.534 81.4187 52.5607 81.2274C52.7407 79.9484 53.2663 75.1022 51.4681 71.8056C50.0182 69.1477 49.7433 66.8253 49.7106 65.6546C49.699 65.2377 49.314 64.9406 48.9052 65.0222C38.2479 67.1428 28.9445 63.6707 25.4531 62.0891C24.7075 61.7512 23.8328 62.0993 23.5245 62.8576C22.3893 65.649 20.0623 67.4356 18.8473 68.2179C18.3646 68.5286 18.1178 69.101 18.2064 69.6681C18.8526 73.8052 20.4033 77.6229 21.143 79.2826C21.3673 79.7857 21.7603 80.2012 22.2669 80.4171C24.7497 81.4756 25.6124 83.56 25.9119 84.8802C26.0501 85.4891 25.5952 86.0695 24.9711 86.0695H15.949C15.5166 86.0695 15.1239 85.8055 14.9681 85.4022C14.4345 84.0227 14.7224 82.8179 14.9938 82.1369C15.1703 81.694 15.1977 81.2081 15.0764 80.7468L12.0224 69.1421C11.8807 68.6042 11.8526 68.0431 11.9394 67.4936L12.6665 62.8885Z" fill="#E3E4E5"/>
<path d="M62.1176 85.5457C62.1352 85.4898 62.1468 85.4321 62.1503 85.3724C62.151 85.3636 62.1538 85.3552 62.1538 85.3464C62.1552 85.2905 62.1499 85.2332 62.1373 85.1759C61.9119 84.1335 61.2461 82.4263 59.2815 81.4282C58.9655 81.2679 58.7496 80.9603 58.7201 80.6073C58.5401 78.4747 58.0373 71.0255 59.2566 65.6937C59.3705 65.1962 59.7526 64.8067 60.248 64.6847C61.2668 64.434 63.148 63.8459 65.0475 62.6133C64.8777 64.7016 62.9793 69.2497 63.9383 80.6073C63.9682 80.9603 64.1841 81.2679 64.4998 81.4282C66.4646 82.4263 67.1302 84.1335 67.3555 85.1759C67.455 85.6364 67.095 86.0692 66.6236 86.0692H61.4053C61.7449 86.0688 62.0237 85.8431 62.1176 85.5457Z" fill="#E3E4E5"/>
<path d="M18.8472 68.2176C19.1014 68.0541 19.4059 67.8439 19.7363 67.5922L19.736 67.5925C20.5671 69.2878 21.9948 70.6342 23.7435 71.3683C24.4877 74.8235 25.7245 77.8532 26.3615 79.2823C26.5858 79.7854 26.9789 80.201 27.4855 80.4168C29.9682 81.4754 30.8309 83.5598 31.1305 84.8799C31.2686 85.4888 30.8137 86.0692 30.1897 86.0692H24.9711C25.5955 86.0692 26.0501 85.4888 25.9119 84.8799C25.6124 83.5594 24.7496 81.4754 22.2669 80.4168C21.7603 80.201 21.3669 79.7854 21.1429 79.2823C20.4033 77.6226 18.8525 73.805 18.2063 69.6678C18.1178 69.1007 18.3645 68.528 18.8472 68.2176Z" fill="#E3E4E5"/>
<path d="M14.9682 85.402C14.4345 84.0224 14.7224 82.8176 14.9938 82.1366C15.0564 81.9795 15.0933 81.8164 15.1186 81.6518C18.0229 81.8424 20.7559 80.459 21.6169 79.9724C21.8032 80.1587 22.0212 80.312 22.2673 80.4171C24.75 81.4757 25.6127 83.5601 25.9123 84.8802C26.0504 85.4891 25.5955 86.0696 24.9715 86.0696H15.9494C15.5169 86.0689 15.1239 85.8048 14.9682 85.402Z" fill="#52565B"/>
<path d="M51.9887 85.5348C51.4508 83.6157 52.0646 82.2709 52.3652 81.7665C52.3969 81.7134 52.4197 81.6564 52.4447 81.6005C55.0645 82.1099 57.7051 81.3035 58.7953 80.8988C58.8881 81.1242 59.0576 81.314 59.2815 81.4276C61.2464 82.4256 61.9119 84.1328 62.1372 85.1752C62.2367 85.6357 61.8767 86.0685 61.4053 86.0685H52.7052C52.3751 86.0689 52.078 85.8527 51.9887 85.5348Z" fill="#52565B"/>
<path d="M25.9119 84.8799C25.6792 83.8547 25.1033 82.3711 23.697 81.2623C25.1617 80.8583 26.326 80.2593 26.8347 79.972C27.0211 80.1584 27.239 80.3117 27.4851 80.4168C29.9678 81.4753 30.8306 83.5597 31.1301 84.8799C31.2683 85.4888 30.8134 86.0692 30.1893 86.0692H24.9708C25.5955 86.0688 26.05 85.4884 25.9119 84.8799Z" fill="#52565B"/>
<path d="M62.1373 85.1755C61.9348 84.2393 61.3737 82.7677 59.8377 81.7542C61.6419 81.6867 63.2296 81.1902 64.0135 80.8988C64.1064 81.1242 64.2758 81.314 64.4998 81.4276C66.4646 82.4256 67.1302 84.1328 67.3555 85.1752C67.455 85.6357 67.095 86.0685 66.6236 86.0685H61.4053C61.8768 86.0689 62.2371 85.6361 62.1373 85.1755Z" fill="#52565B"/>
<path d="M58.6831 38.0123C59.8714 40.7535 62.8847 42.3313 65.8884 41.6067C66.1479 41.5441 66.3964 41.4608 66.6397 41.3687C67.8997 43.2049 69.7967 44.2163 71.6066 43.7797C71.6386 43.772 71.6692 43.7607 71.7008 43.7523C71.4582 46.9969 71.3598 50.4724 70.6025 54.4106C70.5399 54.7354 70.4644 55.0469 70.3831 55.3521C70.0063 55.4175 69.6206 55.4533 69.2283 55.454C65.2517 55.4632 62.2399 52.2907 62.0824 48.6344C62.0146 47.057 61.1437 45.6324 59.793 44.8147C57.5923 43.4819 56.3136 41.0069 57.3627 39.1897C57.678 38.643 58.1396 38.2612 58.6831 38.0123Z" fill="#52565B"/>
<path d="M38.7921 42.5654C38.1505 44.107 36.63 45.1909 34.856 45.1909C32.3919 45.1909 30.5908 43.1662 30.5908 40.925C30.5908 40.0166 29.9995 39.2357 29.1431 38.9334C26.7455 38.0865 25.0576 35.7405 25.2116 33.0187C25.2408 32.504 25.3406 32.0055 25.4971 31.5312C29.108 31.8751 33.4624 32.4618 38.77 33.0148C41.4207 33.2908 43.7899 33.2156 45.9017 32.8946C45.9823 33.2518 46.0417 33.6167 46.0635 33.9918C46.2726 37.5827 43.7446 40.6589 40.3326 41.2579C39.6253 41.3817 39.0684 41.902 38.7921 42.5654Z" fill="#52565B"/>
<path d="M9.1308 40.1681C10.9667 39.998 12.5923 40.9683 13.3829 42.4536C13.6487 42.9528 14.169 43.2619 14.7319 43.3181C18.0078 43.6454 20.5052 46.4136 20.5052 49.7141C20.5052 52.5818 18.6283 55.0072 16.0362 55.838C15.4357 56.0303 14.9952 56.5608 14.8992 57.1837C14.6795 58.6125 13.531 59.7477 12.079 59.9439C8.36439 51.0223 8.40869 44.293 9.1308 40.1681Z" fill="#52565B"/>
<path d="M38.3129 51.3362C39.5536 51.1478 40.5935 50.3388 41.252 49.2704C41.9284 48.1736 43.1427 47.4525 44.5099 47.4525C47.1906 47.4525 48.9332 50.0885 48.1507 52.4602C47.9819 52.9717 47.9682 53.5314 48.2132 54.0109C48.5142 54.6008 48.6847 55.2681 48.6847 55.9762C48.6847 58.5028 46.5454 60.4677 44.0884 60.3162C43.5431 60.2824 43.0066 60.4414 42.5893 60.794C41.5399 61.6803 40.1488 62.1739 38.6398 62.0438C35.9841 61.8146 33.8593 59.6057 33.7317 56.9433C33.5925 54.039 35.7047 51.7321 38.3129 51.3362Z" fill="#52565B"/>
<path d="M68.8971 25.6707C67.7928 21.0948 70.1793 16.5931 74.2275 15.6164C76.0282 15.1819 77.8539 15.5197 79.4239 16.4296C81.9084 19.2779 83.3189 22.9816 82.2944 26.9114C81.8494 28.6182 81.0731 29.9637 80.1179 31.03C80.1144 31.0201 80.1126 31.0103 80.1091 31.0004C79.116 28.2509 76.2623 26.5391 73.3676 26.949C72.0777 27.1318 70.9566 27.6877 70.072 28.4787C69.5496 27.6427 69.1453 26.6991 68.8971 25.6707Z" fill="#52565B"/>
<path d="M40.6132 19.8819C43.3663 17.6347 46.5655 17.6252 48.8904 19.0462C50.2134 19.8548 51.8892 20.084 53.1833 20.1199C52.353 21.9343 51.8298 23.9126 51.7479 25.8824C45.6118 28.3735 41.65 23.2646 40.3784 21.2551C40.0936 20.8047 40.2005 20.2187 40.6132 19.8819Z" fill="#F98080"/>
<path d="M81.0907 18.765C81.0756 18.7386 81.0608 18.7119 81.0457 18.6855C80.9381 18.4995 80.8263 18.316 80.7096 18.135C80.6983 18.1174 80.6864 18.0998 80.6748 18.0822C80.5619 17.9086 80.4449 17.737 80.3239 17.5679C80.313 17.5524 80.3025 17.537 80.2912 17.5215C80.1633 17.3443 80.0311 17.1699 79.8954 16.998C79.8789 16.9773 79.862 16.9565 79.8455 16.9358C79.0727 15.9693 78.1766 15.0911 77.2035 14.323C78.3387 13.7011 79.7259 12.7325 80.5345 11.4096C81.9555 9.08469 84.8071 7.63414 88.2819 8.3784C88.8029 8.48984 89.165 8.96269 89.1169 9.4932C88.9017 11.8613 87.7057 18.2148 81.109 18.7962C81.103 18.7864 81.097 18.7755 81.0907 18.765Z" fill="#F98080"/>
<path d="M53.1833 20.1196C51.8892 20.0837 50.2133 19.8545 48.8904 19.0459C48.4544 18.7794 47.9879 18.5632 47.4993 18.4029C47.4469 18.3857 47.3931 18.3733 47.3403 18.3575C46.0353 16.9031 45.7186 14.8602 45.8082 12.9382C45.8648 11.7299 47.3998 11.2999 48.0871 12.2955C49.9036 14.9277 53.4315 15.8664 55.6667 16.2014C54.6912 17.3461 53.8418 18.6813 53.1833 20.1196Z" fill="#F4DBCE"/>
<path d="M80.5345 11.4103C79.7259 12.7332 78.339 13.7014 77.2034 14.3237C75.9631 13.3449 74.5998 12.5444 73.2111 11.9706C75.0477 10.654 77.7638 8.20788 78.1808 5.03397C78.3383 3.83444 79.9006 3.51698 80.5018 4.56674C81.4567 6.23385 82.106 8.19311 81.612 10.0796C81.1961 10.4772 80.8323 10.923 80.5345 11.4103Z" fill="#F4DBCE"/>
<path d="M4.50175 54.7583C3.67874 49.821 -1.59188 35.8094 11.3495 34.4763C10.6812 35.3028 10.1774 36.2601 9.84304 37.279C9.74109 37.5898 9.63597 37.9406 9.53331 38.328C7.73683 38.9461 6.06761 40.4262 6.06761 43.7994C6.06761 50.5828 8.91703 58.1161 7.09663 64.4498C6.8632 65.2616 5.99976 65.7172 5.18941 65.4789L5.18448 65.4774C4.36991 65.238 3.91148 64.3862 4.14245 63.5692C4.62163 61.875 5.17288 58.7837 4.50175 54.7583Z" fill="#E3E4E5"/>
<path d="M40.6132 19.8819C43.3663 17.6347 46.5655 17.6252 48.8904 19.0462C50.2134 19.8548 51.8892 20.084 53.1833 20.1199C52.7675 21.0287 52.4271 21.9783 52.1821 22.9479C50.9805 22.9623 49.602 22.6529 48.1089 21.7399C44.8647 19.7571 41.9172 20.2264 40.2286 20.8118C40.1928 20.4676 40.3274 20.115 40.6132 19.8819Z" fill="#E3E4E5"/>
<path d="M77.2035 14.3233C78.3387 13.7014 79.726 12.7329 80.5346 11.4099C81.9556 9.08505 84.8071 7.63451 88.2819 8.37876C88.6426 8.45611 88.9235 8.70818 89.0483 9.03091C87.2786 9.28017 84.4415 10.2065 82.4583 13.4508C81.5456 14.9442 80.46 15.8481 79.3842 16.3835C78.724 15.6326 77.9882 14.9424 77.2035 14.3233Z" fill="#E3E4E5"/>
<path d="M69.4346 39.1687C69.853 38.5791 70.6257 38.3928 71.267 38.7264C72.3642 39.298 73.633 39.5448 74.926 39.3817C74.6388 41.5846 73.4129 43.3438 71.6066 43.7798C69.7936 44.2171 67.8927 43.2014 66.6327 41.3593C67.7875 40.9043 68.7494 40.1341 69.4346 39.1687Z" fill="#E3E4E5"/>
<path d="M69.4512 39.1644C69.8695 38.5748 70.6423 38.3885 71.2835 38.7221C71.8636 39.0241 72.4925 39.2326 73.1468 39.3405C72.6532 40.4131 71.9395 41.137 71.0392 41.3543C70.1205 41.5761 69.1351 41.2386 68.1894 40.4778C68.6749 40.102 69.1 39.6594 69.4512 39.1644Z" fill="#FD605B"/>
<path d="M19.736 67.5925C20.9851 66.6415 22.6269 65.0651 23.5248 62.8573C23.8331 62.0989 24.7078 61.7509 25.4535 62.0887C27.2078 62.8836 30.4306 64.1552 34.5544 64.9554C34.1518 68.901 30.8194 71.9793 26.7676 71.9793C23.6792 71.9789 21.0094 70.1902 19.736 67.5925Z" fill="#FD605B"/>
<path d="M58.2033 36.2865C57.8334 33.3864 59.5923 30.5616 62.3552 29.6064C64.0733 29.0123 65.8336 29.2042 67.2918 29.9615C67.9384 30.2972 68.7136 30.1102 69.1358 29.5164C70.0882 28.1773 71.5672 27.2038 73.3675 26.949C76.2623 26.539 79.1159 28.2508 80.1091 31.0004C81.4004 34.5747 79.2861 38.3737 75.6959 39.2399C74.1684 39.6084 72.6391 39.3795 71.3475 38.707C70.7062 38.373 69.9335 38.5597 69.5151 39.1492C68.6724 40.3372 67.4156 41.2382 65.8884 41.6067C62.2983 42.4729 58.6842 40.0563 58.2033 36.2865Z" fill="#F98080"/>
<path d="M15.949 86.9478H24.9711C25.5347 86.9478 26.0592 86.6953 26.4108 86.2555C26.7645 85.8126 26.8952 85.2402 26.7694 84.6851C26.4593 83.3186 25.5066 80.8422 22.6118 79.6082C22.3242 79.4855 22.0876 79.2426 21.9456 78.9244C21.2959 77.4665 19.7149 73.6327 19.0744 69.5321C19.0385 69.3025 19.1359 69.0768 19.3229 68.9565C20.6736 68.0871 23.1219 66.1813 24.3387 63.1885C24.3967 63.0454 24.5071 62.9357 24.6498 62.8787C24.7929 62.8218 24.9493 62.8256 25.0903 62.8896C28.646 64.5005 38.0426 68.0017 48.8419 65.9299C48.9083 67.2297 49.2529 69.5799 50.6964 72.2264C52.3941 75.3385 51.8221 80.1686 51.6902 81.1051C51.6807 81.1723 51.6537 81.2437 51.6101 81.3164C51.2589 81.906 50.5111 83.5197 51.1422 85.7725C51.3362 86.4647 51.9785 86.9485 52.7049 86.9485H61.4057C61.901 86.9485 62.3633 86.7273 62.6745 86.3413C62.9821 85.9595 63.0995 85.467 62.9965 84.9899C62.755 83.874 62.0033 81.8251 59.6798 80.6446C59.6317 80.6203 59.5997 80.5778 59.5962 80.5338C59.4172 78.4125 58.925 71.0877 60.1133 65.8895C60.1531 65.7151 60.2852 65.5805 60.4582 65.538C62.6495 64.999 69.9198 62.6158 71.466 54.5769C72.0809 51.3795 72.2644 48.5452 72.4419 45.8037C72.4855 45.1312 72.5284 44.4702 72.5769 43.8184C72.598 43.5344 72.4806 43.2577 72.2612 43.0763C72.0418 42.8945 71.7486 42.8302 71.4734 42.904L71.3978 42.9262C70.0119 43.2608 68.4647 42.474 67.365 40.8716C67.1358 40.5376 66.7076 40.4037 66.3286 40.5471C66.0829 40.6403 65.8779 40.7057 65.6831 40.7524C64.2027 41.1093 62.6323 40.8199 61.3754 39.9579C60.1007 39.0836 59.2857 37.7494 59.0811 36.2015C59.039 35.8822 58.8256 35.6119 58.525 35.4966C57.2126 34.9921 56.0433 34.1719 55.0501 33.0588C54.3523 32.277 53.7947 31.3953 53.3925 30.438C53.2979 30.2126 53.1137 30.0368 52.8841 29.9528C52.6539 29.8691 52.4004 29.8846 52.1828 29.9953C48.3673 31.9419 43.8856 32.6633 38.8617 32.1406C36.2974 31.8734 33.9117 31.5928 31.8069 31.3453C21.4105 30.1233 15.6825 29.4497 11.7454 32.8071C10.511 33.8597 9.56498 35.3113 9.0088 37.0048C7.74635 40.8498 6.40127 49.0827 11.5798 61.0211C11.816 61.5656 11.8916 62.1637 11.7992 62.7515L11.0721 67.3562C10.9656 68.0298 10.9997 68.7059 11.1734 69.3654L14.2274 80.9701C14.3019 81.2531 14.285 81.5439 14.1782 81.8114C13.8864 82.5437 13.4944 84.0256 14.1493 85.719C14.4327 86.4542 15.1566 86.9478 15.949 86.9478ZM24.8583 61.0794C24.5679 61.0794 24.2775 61.135 23.9987 61.2461C23.4081 61.4816 22.9504 61.9365 22.7106 62.5265C21.6759 65.0714 19.5479 66.7217 18.3716 67.4786C17.6006 67.975 17.1949 68.8876 17.338 69.8035C17.987 73.9575 19.4977 77.7498 20.3407 79.6402C20.6638 80.3651 21.2256 80.9279 21.9227 81.2254C23.9899 82.1064 24.7672 83.8048 25.0555 85.0743C25.0629 85.1063 25.0566 85.1347 25.0376 85.159C25.0126 85.1903 24.9827 85.1903 24.9715 85.1903H15.9494C15.8783 85.1903 15.8119 85.1467 15.788 85.0848C15.3717 84.0083 15.5704 83.0644 15.8105 82.4622C16.0573 81.8424 16.0974 81.1719 15.9265 80.5226L12.8725 68.9182C12.7614 68.4953 12.7396 68.0622 12.8074 67.6304L13.5345 63.026C13.6797 62.1081 13.5608 61.1729 13.1917 60.3218C8.24451 48.9171 9.49326 41.1613 10.678 37.5532C11.1333 36.1663 11.8965 34.9879 12.8848 34.1448C16.2383 31.2852 21.6949 31.9265 31.6009 33.0912C33.711 33.3394 36.1027 33.6203 38.6789 33.8889C43.695 34.4117 48.2274 33.7613 52.1649 31.9563C52.5909 32.7727 53.1179 33.5345 53.7381 34.2292C54.8005 35.4199 56.0387 36.3312 57.4242 36.9433C57.7979 38.7549 58.8561 40.3619 60.3805 41.4074C62.0476 42.551 64.1303 42.9353 66.0948 42.461C66.1679 42.4435 66.2414 42.4241 66.3163 42.403C67.545 43.9158 69.146 44.7596 70.7484 44.7606C70.7277 45.0682 70.7077 45.3776 70.6876 45.6901C70.5136 48.3771 70.3336 51.1555 69.7395 54.2447C68.4278 61.0657 62.518 63.2211 60.0381 63.8311C59.2161 64.0336 58.5886 64.672 58.3998 65.4979C57.1546 70.9436 57.6601 78.4965 57.8443 80.6815C57.8995 81.3375 58.288 81.9099 58.8839 82.2122C60.3851 82.9747 60.9943 84.22 61.2387 85.1906H52.8068C52.4106 83.6519 52.8912 82.6021 53.1208 82.2168C53.2846 81.9422 53.389 81.6508 53.4315 81.3505C53.6358 79.8993 54.1536 74.8927 52.2401 71.3848C50.8739 68.8803 50.6197 66.7044 50.5895 65.6304C50.5768 65.1755 50.3659 64.7522 50.0108 64.4688C49.6522 64.1827 49.1875 64.0698 48.7343 64.1602C38.3365 66.2298 29.2437 62.8415 25.8167 61.2886C25.509 61.149 25.1838 61.0794 24.8583 61.0794Z" fill="#0C1A40"/>
<path d="M26.7673 72.8578C31.2504 72.8578 34.9741 69.4986 35.4287 65.0443C35.4748 64.5919 35.1682 64.1788 34.7217 64.0923C30.5895 63.2907 27.3681 61.991 25.8159 61.2879C25.2355 61.0249 24.59 61.0098 23.9987 61.2457C23.4081 61.4812 22.9504 61.9362 22.7106 62.5261C21.8844 64.5581 20.3474 66.0224 19.2038 66.8928C18.8698 67.147 18.7622 67.6023 18.9471 67.9792C20.4219 70.9886 23.4186 72.8578 26.7673 72.8578ZM33.5556 65.6483C32.8693 68.8057 30.0779 71.1 26.7673 71.1C24.3285 71.1 22.1238 69.8576 20.8617 67.8154C22.0809 66.7846 23.503 65.2433 24.3387 63.1884C24.3967 63.0453 24.5071 62.9357 24.6498 62.8787C24.7929 62.8218 24.9493 62.8256 25.0903 62.8896C26.936 63.7256 29.8568 64.8559 33.5556 65.6483Z" fill="#0C1A40"/>
<path d="M22.07 72.8582C22.3924 72.8582 22.7028 72.6803 22.8568 72.3723L23.3786 71.3289C23.5958 70.8947 23.4197 70.3667 22.9855 70.1497C22.5513 69.9321 22.0233 70.1086 21.8064 70.5428L21.2846 71.5862C21.0674 72.0204 21.2435 72.5485 21.6777 72.7654C21.8039 72.8283 21.9378 72.8582 22.07 72.8582Z" fill="#0C1A40"/>
<path d="M26.7434 74.0246C27.2204 74.0246 27.6117 73.6432 27.6219 73.164L27.6462 71.9972C27.6564 71.512 27.271 71.1105 26.7855 71.1003C26.3021 71.0933 25.8989 71.4754 25.8887 71.9609L25.8645 73.1278C25.8543 73.6129 26.2396 74.0144 26.7251 74.0246C26.7311 74.0246 26.7374 74.0246 26.7434 74.0246Z" fill="#0C1A40"/>
<path d="M31.5144 72.8318C31.6603 72.8318 31.8076 72.7952 31.944 72.719C32.3673 72.4813 32.5178 71.9455 32.2801 71.5222L31.6417 70.3853C31.404 69.962 30.8682 69.8119 30.445 70.0492C30.0217 70.2868 29.8712 70.8226 30.1089 71.2459L30.7473 72.3829C30.9083 72.6704 31.2072 72.8318 31.5144 72.8318Z" fill="#0C1A40"/>
<path d="M34.7762 69.1893C35.1035 69.1893 35.4175 69.0058 35.569 68.6912C35.7796 68.2538 35.5954 67.7286 35.158 67.5183L34.0794 66.9994C33.6417 66.7896 33.1168 66.9731 32.9066 67.4104C32.696 67.8478 32.8802 68.373 33.3176 68.5832L34.3962 69.1021C34.5189 69.1612 34.6486 69.1893 34.7762 69.1893Z" fill="#0C1A40"/>
<path d="M15.949 86.9477H24.9711C25.5347 86.9477 26.0592 86.6953 26.4108 86.2555C26.7644 85.8125 26.8952 85.2402 26.7694 84.6851C26.4593 83.3185 25.5065 80.8421 22.6118 79.6081C22.4778 79.5508 22.352 79.4644 22.2384 79.3508C21.9593 79.0717 21.5283 79.0126 21.1841 79.2067C20.4542 79.619 17.8657 80.9497 15.1755 80.7743C14.7199 80.7483 14.3177 81.0682 14.2492 81.5192C14.2305 81.6412 14.2077 81.734 14.1767 81.8114C13.8849 82.5437 13.4929 84.0252 14.1479 85.7187C14.4327 86.4541 15.1565 86.9477 15.949 86.9477ZM14.9681 85.4015H14.9646H14.9681ZM21.5258 81.0179C21.6527 81.0974 21.7849 81.1666 21.922 81.225C23.9892 82.1063 24.7669 83.8047 25.0551 85.0742C25.0625 85.1062 25.0562 85.1347 25.0372 85.159C25.0122 85.1903 24.9824 85.1903 24.9711 85.1903H15.949C15.8779 85.1903 15.8115 85.1467 15.7876 85.0848C15.3907 84.0586 15.5531 83.1522 15.777 82.5483C18.1705 82.5237 20.3305 81.6272 21.5258 81.0179Z" fill="#0C1A40"/>
<path d="M52.7052 86.9478H61.4056C61.901 86.9478 62.3633 86.7267 62.6744 86.3406C62.982 85.9588 63.0995 85.4663 62.9965 84.9892C62.7549 83.8734 62.0033 81.8245 59.6798 80.6439C59.6369 80.6221 59.6165 80.5849 59.6081 80.5645C59.4281 80.1261 58.9335 79.9102 58.4894 80.0747C57.53 80.4309 55.0367 81.2096 52.6124 80.7378C52.2102 80.6597 51.8094 80.8686 51.6424 81.2412L51.6048 81.3263C51.2592 81.9057 50.5114 83.519 51.1428 85.7722C51.3365 86.4644 51.9792 86.9478 52.7052 86.9478ZM61.2383 85.19H52.8064C52.4978 83.9915 52.721 83.0901 52.9432 82.5677C55.1383 82.8324 57.2519 82.3286 58.4806 81.9366C58.6019 82.0445 58.7373 82.1374 58.8839 82.2115C60.3847 82.9741 60.9943 84.2197 61.2383 85.19Z" fill="#0C1A40"/>
<path d="M61.4057 86.9478H66.6239C67.1193 86.9478 67.5816 86.7266 67.8927 86.3406C68.2003 85.9588 68.3177 85.4663 68.2147 84.9892C67.9732 83.873 67.2209 81.8241 64.8981 80.6439C64.8499 80.6197 64.8179 80.5771 64.8141 80.5325C64.0775 71.8099 65.063 67.1077 65.5921 64.5817C65.7538 63.8097 65.8818 63.1997 65.9236 62.684C65.9507 62.35 65.7858 62.0297 65.4982 61.8582C65.2103 61.6866 64.8503 61.6933 64.5694 61.8754C62.7532 63.0535 60.9507 63.6058 60.0377 63.8304C59.2158 64.0329 58.5882 64.6714 58.3995 65.4972C57.1542 70.9429 57.6598 78.4959 57.844 80.6808C57.8992 81.3368 58.2877 81.9092 58.8836 82.2115C60.3925 82.9783 61.0003 84.2327 61.2418 85.2054C60.8344 85.2821 60.5264 85.6396 60.5264 86.0692C60.5271 86.5544 60.9205 86.9478 61.4057 86.9478ZM66.4566 85.19H63.0267C63.0207 85.1228 63.0105 85.0553 62.9961 84.9882C62.755 83.8734 62.003 81.8241 59.6795 80.6439C59.6313 80.6197 59.5993 80.5771 59.5958 80.5332C59.4169 78.4118 58.9247 71.087 60.113 65.8888C60.1527 65.7145 60.2849 65.5798 60.4578 65.5373C61.1944 65.3562 62.4502 64.9836 63.8564 64.2941C63.3052 66.9256 62.3113 71.7842 63.0626 80.6808C63.1181 81.3372 63.5069 81.9095 64.1025 82.2115C65.603 82.9737 66.2126 84.2196 66.4566 85.19Z" fill="#0C1A40"/>
<path d="M24.9711 86.9477H30.1897C30.7533 86.9477 31.2778 86.6957 31.629 86.2559C31.9827 85.8129 32.1135 85.2406 31.9879 84.6854C31.6779 83.3189 30.7251 80.8422 27.8304 79.6082C27.6964 79.5509 27.5706 79.464 27.4567 79.3505C27.1779 79.0713 26.7465 79.0123 26.4027 79.2067C25.9896 79.4401 24.8765 80.0255 23.464 80.415C23.1444 80.5033 22.9015 80.7634 22.8361 81.0886C22.7703 81.4134 22.8934 81.7478 23.1535 81.9527C24.3548 82.8995 24.8509 84.1729 25.0555 85.0743C25.0629 85.1063 25.0565 85.1347 25.0376 85.159C25.0126 85.1903 24.9827 85.1903 24.9715 85.1903C24.486 85.1903 24.0926 85.5837 24.0926 86.0692C24.0926 86.5547 24.4856 86.9477 24.9711 86.9477ZM26.743 81.0169C26.8703 81.097 27.0031 81.1663 27.1406 81.225C29.2078 82.1064 29.9854 83.8048 30.2737 85.0743C30.2811 85.1063 30.2748 85.1347 30.2558 85.159C30.2308 85.1903 30.2013 85.1903 30.1901 85.1903H26.8144C26.8221 85.0229 26.8077 84.8535 26.7697 84.6854C26.5732 83.8195 26.1671 82.6875 25.3279 81.6462C25.8971 81.4254 26.3805 81.2001 26.743 81.0169ZM25.9122 84.8799H25.9087H25.9122Z" fill="#0C1A40"/>
<path d="M61.4057 86.9477H66.6239C67.1193 86.9477 67.5816 86.7266 67.8927 86.3406C68.2003 85.9588 68.3177 85.4662 68.2147 84.9892C67.9732 83.8729 67.2209 81.824 64.8981 80.6438C64.8552 80.622 64.8344 80.5844 64.826 80.5637C64.6457 80.126 64.1514 79.9094 63.7073 80.0747C62.975 80.3468 61.4939 80.8126 59.8046 80.8755C59.4228 80.8899 59.0941 81.149 58.9911 81.5168C58.8885 81.8845 59.0347 82.2769 59.3536 82.4874C60.5348 83.2669 61.033 84.3669 61.2418 85.2047C60.8344 85.2813 60.5264 85.6392 60.5264 86.0688C60.5268 86.5543 60.9202 86.9477 61.4057 86.9477ZM61.278 85.3608V85.3615C61.2784 85.3611 61.278 85.3611 61.278 85.3608ZM66.4566 85.1899H63.0267C63.0207 85.1231 63.0105 85.0563 62.9961 84.9895C62.8594 84.357 62.5423 83.3635 61.8152 82.4115C62.5486 82.2754 63.1934 82.0983 63.6993 81.9362C63.8205 82.0441 63.9555 82.1366 64.1021 82.2111C65.603 82.9737 66.2126 84.2196 66.4566 85.1899ZM62.1373 85.1755H62.1337H62.1373Z" fill="#0C1A40"/>
<path d="M24.9711 86.9477H30.1897C30.7533 86.9477 31.2778 86.6957 31.629 86.2559C31.9827 85.8129 32.1135 85.2406 31.9879 84.6854C31.6779 83.3189 30.7251 80.8422 27.8304 79.6082C27.5428 79.4855 27.3062 79.2426 27.1642 78.9244C26.518 77.4742 25.3258 74.5401 24.6027 71.183C24.5422 70.9024 24.3485 70.669 24.0838 70.5576C22.5288 69.9051 21.2649 68.7143 20.5252 67.2051C20.4096 66.9692 20.1941 66.7972 19.9385 66.7364C19.6822 66.6763 19.4129 66.7333 19.2041 66.8925C18.9267 67.1035 18.6395 67.306 18.3719 67.4779C17.601 67.9743 17.1952 68.8869 17.3383 69.8028C17.9873 73.9568 19.498 77.7491 20.341 79.6395C20.6641 80.3644 21.2259 80.9272 21.9231 81.2247C23.9902 82.1057 24.7676 83.8041 25.0558 85.0739C25.0632 85.1059 25.0569 85.1344 25.0379 85.1583C25.0129 85.1896 24.9831 85.1896 24.9718 85.1896C24.4863 85.1896 24.0929 85.583 24.0929 86.0685C24.0929 86.554 24.4856 86.9477 24.9711 86.9477ZM22.9809 71.9881C23.7431 75.317 24.9127 78.1903 25.5586 79.6398C25.8817 80.3647 26.4438 80.9276 27.1406 81.225C29.2078 82.106 29.9851 83.8044 30.2734 85.0743C30.2808 85.1063 30.2744 85.1347 30.2554 85.1586C30.2305 85.1899 30.201 85.1899 30.1897 85.1899H26.814C26.8217 85.0226 26.8073 84.8531 26.7694 84.6851C26.4593 83.3186 25.5065 80.8422 22.6118 79.6082C22.3242 79.4855 22.0876 79.2426 21.9456 78.9244C21.2959 77.4665 19.7149 73.6327 19.0744 69.532C19.0385 69.3028 19.1359 69.0768 19.3226 68.9565C19.3654 68.9288 19.4087 68.9006 19.4519 68.8722C20.3171 70.2102 21.5367 71.2899 22.9809 71.9881Z" fill="#0C1A40"/>
<path d="M69.2114 56.3329C69.2178 56.3329 69.2237 56.3329 69.2301 56.3329C69.6604 56.3319 70.0988 56.2932 70.533 56.218C70.8708 56.1593 71.144 55.9096 71.2322 55.5781C71.3321 55.2041 71.4062 54.8855 71.4656 54.5762C72.0809 51.378 72.2644 48.543 72.4423 45.8015C72.4859 45.1297 72.5288 44.4687 72.5773 43.8173C72.5987 43.5329 72.4803 43.2555 72.2602 43.0741C72.0401 42.8923 71.7451 42.8294 71.4702 42.9039L71.3971 42.9257C70.0105 43.2601 68.464 42.4736 67.3647 40.8712C67.1351 40.5372 66.7069 40.4033 66.3283 40.5467C66.0825 40.6399 65.8776 40.7053 65.6828 40.752C63.1378 41.3659 60.5328 40.0672 59.4904 37.6625C59.3962 37.4456 59.2193 37.2758 58.9985 37.1914C58.7781 37.107 58.5327 37.1144 58.3179 37.2132C57.5701 37.5556 56.9929 38.0724 56.6016 38.7502C55.3637 40.8937 56.5657 43.8876 59.3378 45.5663C60.4519 46.2406 61.1498 47.4018 61.2046 48.6717C61.3892 52.9713 64.9048 56.3326 69.2114 56.3329ZM69.6744 54.5565C69.519 54.5688 69.3637 54.5783 69.2114 54.5751C65.8494 54.5751 63.1051 51.9517 62.9606 48.5964C62.8805 46.7374 61.8666 45.0425 60.2483 44.0627C58.3344 42.9039 57.3814 40.9148 58.1239 39.6291C58.1938 39.5082 58.2743 39.3975 58.3664 39.2969C59.9689 41.8795 63.063 43.1926 66.0948 42.461C66.168 42.4434 66.2414 42.4241 66.3163 42.403C67.5454 43.9157 69.1464 44.7595 70.7492 44.7605C70.7284 45.0675 70.7084 45.3765 70.6883 45.6883C70.514 48.376 70.334 51.1548 69.7398 54.2446C69.7198 54.3459 69.6983 54.4489 69.6744 54.5565Z" fill="#0C1A40"/>
<path d="M34.856 46.0698C36.9397 46.0698 38.8034 44.8267 39.6035 42.9033C39.7793 42.4811 40.1087 42.1896 40.4849 42.1236C44.3971 41.4363 47.1727 37.9185 46.941 33.9406C46.9181 33.5461 46.8584 33.1411 46.7589 32.701C46.6573 32.251 46.2252 31.9571 45.7696 32.0256C43.6075 32.354 41.2829 32.3927 38.8607 32.1406C36.2988 31.8738 33.9163 31.5939 31.8146 31.3468C29.4746 31.0718 27.4535 30.8345 25.58 30.6563C25.1726 30.6176 24.7904 30.8665 24.6621 31.2561C24.4772 31.8175 24.3668 32.3937 24.3341 32.9689C24.1643 35.9691 26.0212 38.7623 28.8503 39.7621C29.3737 39.947 29.712 40.4037 29.712 40.9254C29.712 43.7622 32.0196 46.0698 34.856 46.0698ZM45.1737 33.8791C45.1789 33.9343 45.1828 33.9888 45.1863 34.0429C45.366 37.1296 43.2141 39.8591 40.1808 40.3921C39.2108 40.5626 38.3882 41.2489 37.9807 42.228C37.4537 43.4939 36.2275 44.312 34.856 44.312C32.9889 44.312 31.4698 42.7926 31.4698 40.9251C31.4698 39.6675 30.652 38.5341 29.4356 38.1045C27.3059 37.3518 25.9611 35.3282 26.0891 33.0684C26.1003 32.8722 26.1239 32.6753 26.1598 32.4795C27.8068 32.6461 29.5889 32.8553 31.6097 33.0926C33.7169 33.3401 36.1055 33.6207 38.6789 33.8889C40.9331 34.1238 43.1135 34.1199 45.1737 33.8791Z" fill="#0C1A40"/>
<path d="M12.0786 60.8225C12.1177 60.8225 12.1574 60.82 12.1968 60.8147C14.0207 60.5683 15.4891 59.1301 15.7679 57.3171C15.814 57.0165 16.0246 56.764 16.3041 56.6744C19.3423 55.7009 21.3838 52.9035 21.3838 49.7138C21.3838 45.9426 18.5614 42.8172 14.8191 42.4435C14.5287 42.4143 14.2755 42.26 14.1585 42.0406C13.1657 40.1759 11.1604 39.0987 9.04957 39.2931C8.65477 39.3297 8.33344 39.6261 8.26524 40.0167C7.53082 44.2083 7.45594 51.1271 11.2679 60.2814C11.4057 60.6122 11.7281 60.8225 12.0786 60.8225ZM9.88172 41.045C11.0271 41.1571 12.0544 41.8283 12.6074 42.8668C13.0025 43.6089 13.7644 44.1046 14.6443 44.1929C17.4846 44.4766 19.626 46.85 19.626 49.7142C19.626 52.1368 18.0752 54.2616 15.7676 55.001C14.8588 55.2924 14.1768 56.0968 14.0302 57.0506C13.9032 57.8771 13.3474 58.569 12.6 58.8945C9.44825 50.9949 9.3252 44.9431 9.88172 41.045Z" fill="#0C1A40"/>
<path d="M39.1187 62.9431C40.6002 62.9431 42.0163 62.4284 43.1567 61.4651C43.3888 61.2693 43.7013 61.1751 44.0346 61.1933C45.4553 61.2826 46.8717 60.7672 47.9176 59.7839C48.9793 58.7858 49.564 57.4334 49.564 55.9761C49.564 55.1454 49.3731 54.3502 48.9965 53.6115C48.838 53.3011 48.9217 52.9295 48.9856 52.7354C49.4529 51.3197 49.2015 49.7408 48.3135 48.5125C47.4226 47.2802 46.0364 46.5736 44.5103 46.5736C42.8646 46.5736 41.3673 47.4093 40.5042 48.8092C39.9399 49.7243 39.093 50.3286 38.1814 50.4672C34.9892 50.952 32.6992 53.7543 32.8546 56.9851C33.004 60.1 35.4593 62.6513 38.565 62.9192C38.7499 62.935 38.9348 62.9431 39.1187 62.9431ZM43.9449 59.4327C43.2295 59.4327 42.5531 59.6739 42.0226 60.1221C41.1005 60.9008 39.9269 61.2724 38.7158 61.168C36.4827 60.9754 34.7175 59.1406 34.6099 56.9008C34.4981 54.5727 36.1469 52.554 38.4451 52.2053C39.8686 51.9891 41.1644 51.0877 42.0005 49.732C42.5412 48.8553 43.4795 48.3318 44.5103 48.3318C45.4654 48.3318 46.3324 48.7733 46.8889 49.5429C47.4476 50.3156 47.6072 51.3032 47.3164 52.1853C47.0577 52.9692 47.0981 53.7599 47.4307 54.411C47.6796 54.8993 47.8062 55.4263 47.8062 55.9765C47.8062 56.9437 47.418 57.8412 46.7135 58.5035C46.0195 59.156 45.0833 59.4964 44.1429 59.4394C44.0764 59.4348 44.0103 59.4327 43.9449 59.4327Z" fill="#0C1A40"/>
<path d="M5.17991 76.8403C5.34866 76.8403 5.51918 76.8016 5.67738 76.7228C6.075 76.5246 6.3123 76.1115 6.28241 75.6699C6.26941 75.4822 6.33586 75.0719 6.92402 74.4328C7.84195 73.4354 8.16784 72.2288 8.26136 71.2596C8.57179 71.3341 8.9005 71.2701 9.16734 71.0739C9.51222 70.8205 9.6764 70.4021 9.59589 69.9823C9.48234 69.3931 9.61417 68.4221 9.675 68.0976C10.3739 64.9135 8.83652 63.3079 7.85742 62.6368C7.61414 62.4702 7.30406 62.4364 7.03054 62.5471C6.75738 62.6575 6.55769 62.8976 6.49898 63.1866C6.42374 63.5558 6.34288 63.8898 6.25148 64.2069C6.20577 64.3658 6.09855 64.4983 5.95019 64.5802C5.79234 64.6667 5.61093 64.6871 5.43761 64.6358C5.08183 64.5314 4.88671 64.1685 4.98867 63.8085C5.04246 63.618 5.09695 63.4078 5.15074 63.1852C5.22492 62.8776 5.12824 62.5542 4.89761 62.3376C4.66699 62.1214 4.33828 62.0451 4.03558 62.1393C1.49695 62.9279 -0.833912 65.5576 0.237651 70.5733C0.344525 71.0739 0.774841 71.423 1.26773 71.4431C1.48605 73.6681 3.30539 75.5732 4.45429 76.5689C4.66031 76.7478 4.91835 76.8403 5.17991 76.8403ZM7.62749 69.115C7.42078 69.115 7.21406 69.173 7.03371 69.288C6.69832 69.5017 6.5046 69.8811 6.5271 70.2773C6.55945 70.8408 6.5366 72.258 5.63062 73.2427C5.2555 73.6502 4.97496 74.0576 4.79003 74.463C3.91535 73.5437 2.89687 72.1599 3.01253 70.7867C3.04171 70.4418 2.91304 70.1107 2.65992 69.8779C2.43667 69.6726 2.14383 69.5707 1.84676 69.5925C1.65058 68.2449 1.58097 65.8167 3.25652 64.4888C3.43441 65.3361 4.05738 66.0624 4.93664 66.3208C5.56664 66.5057 6.22546 66.4344 6.79675 66.1208C7.22425 65.8859 7.5614 65.5365 7.77621 65.1132C8.12531 65.8072 8.18507 66.6882 7.95269 67.7478C7.93124 67.8607 7.82437 68.4509 7.79941 69.1284C7.7421 69.1193 7.6848 69.115 7.62749 69.115ZM1.20726 69.6948H1.20621C1.20656 69.6951 1.20691 69.6948 1.20726 69.6948Z" fill="#0C1A40"/>
<path d="M5.63132 66.4217C6.03527 66.4217 6.43358 66.3201 6.79675 66.1208C7.3589 65.8121 7.7653 65.3048 7.94108 64.6927C9.12515 60.5724 8.428 56.0063 7.75405 51.5904C7.35714 48.9902 6.94652 46.3018 6.94652 43.7994C6.94652 41.3419 7.88624 39.8243 9.81878 39.1595C10.0962 39.0642 10.3075 38.8371 10.3827 38.5534C10.4744 38.2071 10.5739 37.8703 10.678 37.5528C10.9895 36.605 11.4451 35.7556 12.0329 35.0289C12.2562 34.7526 12.2913 34.3698 12.1222 34.0572C11.9531 33.745 11.6121 33.5661 11.2595 33.602C7.7769 33.9609 5.22386 35.2434 3.67136 37.4143C0.626823 41.6714 2.13433 48.2139 3.13206 52.5434C3.34546 53.4698 3.52968 54.2696 3.6355 54.9024C4.29503 58.8621 3.70687 61.8823 3.29729 63.3301C2.93624 64.607 3.67171 65.9489 4.93698 66.3208C5.16585 66.3883 5.39964 66.4217 5.63132 66.4217ZM8.80417 37.6664C7.06148 38.4029 5.18835 40.0637 5.18835 43.7994C5.18835 46.435 5.60917 49.1906 6.01593 51.8558C6.6614 56.0844 7.32902 60.4571 6.25113 64.2072C6.20542 64.3661 6.09819 64.4987 5.94983 64.5802C5.79198 64.6667 5.61058 64.6871 5.43726 64.6358C5.08148 64.5314 4.88636 64.1686 4.98831 63.8086C5.53745 61.8672 6.04933 58.6958 5.36905 54.6134C5.2548 53.9275 5.06495 53.1031 4.84488 52.1486C3.91816 48.1271 2.51753 42.0489 5.10116 38.437C6.08097 37.067 7.54698 36.1522 9.55405 35.6663C9.34347 36.0924 9.16101 36.5393 9.00843 37.0047C8.93776 37.2188 8.86956 37.44 8.80417 37.6664Z" fill="#0C1A40"/>
<path d="M64.4232 42.6596C64.9818 42.6596 65.5429 42.5938 66.0945 42.461C67.7662 42.0577 69.2357 41.0621 70.232 39.6576C70.3969 39.4249 70.6887 39.3549 70.9415 39.4864C72.4687 40.282 74.23 40.4978 75.902 40.0942C77.8732 39.6186 79.5551 38.321 80.5163 36.5343C81.4767 34.7491 81.6297 32.6232 80.9353 30.7015C79.798 27.5526 76.5615 25.6078 73.2442 26.0789C71.2783 26.3569 69.5651 27.3969 68.4197 29.0067C68.2513 29.2433 67.9542 29.3153 67.6969 29.181C65.9433 28.2708 63.944 28.1271 62.068 28.7757C58.8998 29.8712 56.9078 33.0763 57.3314 36.3976C57.5898 38.4243 58.6955 40.2468 60.3647 41.3975C61.5674 42.2265 62.987 42.6596 64.4232 42.6596ZM70.6757 37.6607C69.9508 37.6607 69.2487 38.0056 68.7987 38.6409C68.0481 39.6987 66.9414 40.4486 65.6824 40.7524C64.1967 41.1113 62.6221 40.8185 61.3624 39.9504C60.0856 39.0701 59.2735 37.7296 59.0752 36.1754C58.7563 33.6754 60.2564 31.2619 62.6425 30.4372C64.0579 29.9474 65.5657 30.0554 66.8869 30.7413C67.9265 31.2809 69.1735 30.98 69.8523 30.0255C70.7151 28.8126 72.0071 28.0293 73.4907 27.8191C75.9927 27.4661 78.4262 28.9283 79.2826 31.2988C79.8149 32.7722 79.7035 34.336 78.9687 35.7015C78.2438 37.0487 76.9757 38.0271 75.4896 38.3856C74.2307 38.6894 72.9039 38.5266 71.7536 37.9272C71.4076 37.7472 71.0385 37.6607 70.6757 37.6607Z" fill="#0C1A40"/>
<path d="M70.7498 44.7603C71.1056 44.7603 71.461 44.7188 71.8129 44.634C73.9241 44.1246 75.4509 42.1555 75.7976 39.4953C75.8327 39.2253 75.741 38.9542 75.5486 38.7615C75.3567 38.5689 75.0856 38.4761 74.816 38.5098C73.7304 38.6473 72.6426 38.4522 71.673 37.9473C70.6366 37.407 69.3942 37.7076 68.7178 38.6603C68.1166 39.5079 67.2841 40.1583 66.3106 40.5415C66.0617 40.6396 65.8712 40.8456 65.7924 41.1012C65.7137 41.3571 65.7559 41.6345 65.907 41.8553C67.1769 43.7115 68.9621 44.7603 70.7498 44.7603ZM73.8313 40.3035C73.4041 41.6834 72.5235 42.6544 71.4006 42.9255C70.2619 43.2 69.0201 42.723 68.0038 41.6619C68.8475 41.1581 69.5784 40.4853 70.1515 39.677C70.3163 39.4446 70.6078 39.374 70.8609 39.5062C71.7897 39.9899 72.7994 40.2592 73.8313 40.3035Z" fill="#0C1A40"/>
<path d="M70.7498 44.7603C71.1056 44.7603 71.461 44.7188 71.8129 44.634C73.9241 44.1246 75.4509 42.1555 75.7976 39.4953C75.8327 39.2253 75.741 38.9542 75.5486 38.7615C75.3567 38.5689 75.0856 38.4761 74.816 38.5098C73.7304 38.6473 72.6426 38.4522 71.673 37.9473C70.6366 37.407 69.3942 37.7076 68.7178 38.6603C68.1166 39.5079 67.2841 40.1583 66.3106 40.5415C66.0617 40.6396 65.8712 40.8456 65.7924 41.1012C65.7137 41.3571 65.7559 41.6345 65.907 41.8553C67.1769 43.7115 68.9621 44.7603 70.7498 44.7603ZM73.8313 40.3035C73.4041 41.6834 72.5235 42.6544 71.4006 42.9255C70.2619 43.2 69.0201 42.723 68.0038 41.6619C68.8475 41.1581 69.5784 40.4853 70.1515 39.677C70.3163 39.4446 70.6078 39.374 70.8609 39.5062C71.7897 39.9899 72.7994 40.2592 73.8313 40.3035Z" fill="#0C1A40"/>
<path d="M75.2341 34.1466C75.5041 34.1466 75.7705 34.0225 75.9428 33.7883C76.3555 33.2265 76.4986 32.516 76.3351 31.8389C76.1875 31.2268 75.8103 30.7086 75.2731 30.3803C74.7359 30.0519 74.102 29.9528 73.4907 30.1001C72.8786 30.2477 72.3607 30.625 72.0324 31.1621C71.7037 31.6997 71.6042 32.3325 71.7522 32.9446C71.8661 33.4164 72.3403 33.7078 72.8128 33.5928C73.2846 33.4789 73.575 33.0043 73.4611 32.5322C73.4235 32.3764 73.4488 32.2158 73.5325 32.079C73.6162 31.9423 73.748 31.8463 73.9037 31.8087C74.0595 31.7714 74.2201 31.7964 74.3573 31.88C74.494 31.9637 74.59 32.0955 74.6276 32.2513C74.6691 32.4235 74.6329 32.6043 74.5278 32.7473C74.2402 33.1383 74.3242 33.6885 74.7151 33.976C74.8709 34.091 75.053 34.1466 75.2341 34.1466Z" fill="#0C1A40"/>
<path d="M63.5745 36.9601C63.8968 36.9601 64.2069 36.7822 64.3613 36.4742C64.5785 36.0404 64.4027 35.5124 63.9686 35.2951C63.8097 35.2157 63.6944 35.0712 63.6529 34.8989C63.6156 34.7435 63.6406 34.5821 63.7242 34.4454C63.8079 34.3086 63.9394 34.2126 64.0951 34.175C64.2512 34.1374 64.4122 34.1631 64.5486 34.2464C64.6854 34.3301 64.7814 34.4616 64.819 34.6173C64.9329 35.0891 65.4068 35.3802 65.8797 35.2656C66.3515 35.1517 66.6418 34.6771 66.5279 34.2049C66.3803 33.5928 66.0031 33.075 65.4659 32.7466C64.9287 32.4183 64.2948 32.3188 63.6835 32.4664C63.0714 32.6141 62.5535 32.9913 62.2252 33.5285C61.8968 34.0657 61.7973 34.6989 61.945 35.3109C62.1081 35.988 62.5595 36.5551 63.1828 36.8669C63.3083 36.9302 63.4423 36.9601 63.5745 36.9601Z" fill="#0C1A40"/>
<path d="M58.2085 37.1957C58.4033 37.1957 58.5956 37.131 58.7531 37.0066C58.9967 36.8143 59.1208 36.508 59.0797 36.2004C59.0779 36.1878 59.0751 36.1702 59.0723 36.1537C58.7693 33.6544 60.2666 31.2585 62.6421 30.4369C64.0585 29.9472 65.566 30.0555 66.8868 30.741C67.9261 31.2807 69.1731 30.9797 69.8519 30.0256C70.715 28.8127 72.007 28.0291 73.4906 27.8192C75.9867 27.4662 78.4125 28.9203 79.2752 31.2789C79.2798 31.294 79.285 31.3098 79.2889 31.3207C79.3916 31.6139 79.6419 31.8312 79.9467 31.892C80.2515 31.9528 80.5658 31.8477 80.7729 31.616C81.8993 30.3582 82.6973 28.8496 83.1449 27.1333C84.4119 22.2729 82.3433 17.1858 77.6116 13.525C73.2255 10.1321 67.9974 9.12518 64.601 11.0205C64.08 11.3112 63.4886 11.4539 62.8934 11.4325C59.0143 11.2905 54.8128 14.5751 52.4566 19.5951C49.9152 25.0109 50.394 30.4816 53.7384 34.2292C54.9197 35.5528 56.3178 36.5312 57.8939 37.137C57.9955 37.1764 58.1027 37.1957 58.2085 37.1957ZM64.4241 28.3753C63.6349 28.3753 62.8411 28.5082 62.068 28.7754C59.3771 29.7057 57.5349 32.1578 57.3004 34.9105C56.476 34.4324 55.7223 33.8126 55.0494 33.0585C52.1891 29.8533 51.8146 25.0995 54.0474 20.3414C56.0763 16.019 59.6935 13.076 62.8305 13.1889C63.7456 13.2202 64.6555 13.0022 65.457 12.555C68.2034 11.0229 72.7593 11.9932 76.5355 14.9147C80.6924 18.1305 82.5272 22.5324 81.4436 26.6889C81.1888 27.6666 80.8006 28.5617 80.2856 29.3629C78.8231 27.0218 76.0647 25.6789 73.2441 26.0782C71.2782 26.3563 69.565 27.3962 68.4197 29.006C68.2513 29.2423 67.9542 29.314 67.6968 29.1804C66.6661 28.6457 65.5502 28.3753 64.4241 28.3753Z" fill="#0C1A40"/>
<path d="M80.1179 31.9088C80.3654 31.9088 80.6042 31.8044 80.7726 31.616C81.899 30.3581 82.697 28.8495 83.1445 27.1332C84.1511 23.273 83.0647 19.2666 80.086 15.8519C80.0227 15.7791 79.9478 15.7176 79.8645 15.6691C78.0441 14.6141 75.9688 14.2917 74.0211 14.7617C69.5085 15.8509 66.8264 20.8367 68.0428 25.8767C68.3072 26.9718 68.7389 28.0037 69.3267 28.9441C69.4642 29.1638 69.6917 29.3118 69.9483 29.3484C70.2046 29.3846 70.4647 29.3066 70.6581 29.1336C71.4523 28.4234 72.4317 27.9692 73.491 27.8191C75.9853 27.4679 78.4129 28.9205 79.2753 31.2788C79.2798 31.2939 79.2851 31.3098 79.289 31.3207C79.3916 31.6139 79.6419 31.8311 79.9467 31.892C80.0033 31.9032 80.061 31.9088 80.1179 31.9088ZM78.8583 17.1193C81.3702 20.057 82.2885 23.4506 81.444 26.6895C81.1892 27.6672 80.801 28.5623 80.286 29.3635C78.8235 27.0225 76.0651 25.6795 73.2445 26.0789C72.2036 26.2262 71.2199 26.596 70.3512 27.1613C70.0949 26.6227 69.8942 26.055 69.7518 25.4647C68.7632 21.3672 70.8634 17.3327 74.4339 16.4707C75.896 16.1173 77.4619 16.348 78.8583 17.1193ZM68.8971 25.6707H68.8936H68.8971Z" fill="#0C1A40"/>
<path d="M48.5111 27.4325C49.6121 27.4325 50.8022 27.2145 52.0787 26.6963C52.3979 26.5666 52.612 26.2628 52.6264 25.9187C52.7003 24.1422 53.1693 22.2635 53.9828 20.4853C54.1055 20.217 54.0854 19.9052 53.9297 19.6549C53.7739 19.4046 53.5029 19.2492 53.2079 19.2411C52.103 19.2105 50.5364 19.0217 49.3492 18.2961C46.4632 16.5319 42.9029 16.8793 40.0577 19.201C39.2991 19.8205 39.118 20.9054 39.6362 21.7249C40.5991 23.2475 43.6918 27.4325 48.5111 27.4325ZM50.9066 25.2574C45.7471 26.9994 42.3615 22.7451 41.1212 20.7848C41.0769 20.7148 41.097 20.6213 41.1687 20.5626C43.418 18.7267 46.2009 18.4325 48.4319 19.7958C49.5144 20.4575 50.7864 20.7683 51.905 20.9054C51.3661 22.3433 51.0265 23.8212 50.9066 25.2574Z" fill="#0C1A40"/>
<path d="M52.1033 23.8271C52.1332 23.8271 52.1627 23.8271 52.1926 23.8267C52.5909 23.8218 52.9365 23.5497 53.0342 23.1633C53.2613 22.2655 53.5802 21.3644 53.9824 20.4855C54.1051 20.2173 54.0851 19.9058 53.9293 19.6551C53.7736 19.4048 53.5025 19.2494 53.2076 19.2413C52.1026 19.2107 50.536 19.0219 49.3488 18.2963C46.4628 16.5322 42.9026 16.8795 40.0574 19.2012H40.057C39.549 19.6164 39.2864 20.2528 39.3542 20.9035C39.3824 21.1703 39.5304 21.4098 39.7568 21.5539C39.9832 21.6977 40.263 21.7304 40.5162 21.6425C42.1892 21.0628 44.7848 20.7386 47.6501 22.4901C49.1027 23.3775 50.6007 23.8267 52.1033 23.8271ZM51.9047 20.9053C51.763 21.2814 51.635 21.6601 51.5215 22.0394C50.5371 21.9396 49.546 21.588 48.5673 20.9896C46.5553 19.7602 44.6337 19.4122 43.0414 19.4333C44.8488 18.6869 46.7898 18.792 48.4319 19.7957C49.5144 20.4574 50.786 20.7682 51.9047 20.9053Z" fill="#0C1A40"/>
<path d="M81.1086 19.6759C81.1343 19.6759 81.1599 19.6749 81.186 19.6724C88.5649 19.022 89.7919 11.7781 89.9922 9.57345C90.0801 8.60771 89.4238 7.72493 88.4661 7.51997C84.876 6.75005 81.5488 8.06595 79.7843 10.9519C79.0587 12.1392 77.7505 13.0216 76.7812 13.5528C76.5225 13.6945 76.3523 13.9564 76.3277 14.2503C76.3031 14.5442 76.4276 14.8307 76.6592 15.0135C77.6014 15.7571 78.4424 16.5885 79.1592 17.485C79.1599 17.4861 79.1806 17.5117 79.1813 17.5128L79.207 17.5444C79.3339 17.7051 79.4584 17.8689 79.5786 18.0356L80.3243 17.568L79.6092 18.0792C79.7224 18.2377 79.8321 18.3984 79.9383 18.5615C79.9397 18.564 79.9565 18.5893 79.9583 18.5917C80.0803 18.7805 80.1847 18.9517 80.2849 19.1254L80.3169 19.1817C80.319 19.1855 80.3285 19.2027 80.331 19.2066L80.344 19.2291C80.5004 19.5065 80.7936 19.6759 81.1086 19.6759ZM81.0907 18.7651L81.1054 18.7566L81.0907 18.7651L81.1054 18.757L81.0907 18.7651ZM86.4893 9.06439C87.0124 9.06439 87.5506 9.12169 88.098 9.23876C88.1887 9.25845 88.2492 9.33228 88.2418 9.41454C88.0319 11.725 86.9593 17.0536 81.5741 17.8577C81.5329 17.7912 81.4911 17.7251 81.4486 17.659L81.4222 17.619C81.2921 17.4189 81.1677 17.2368 81.0394 17.0572L81.0042 17.0072C80.8692 16.8202 80.7293 16.6353 80.5855 16.4532L80.5493 16.4082C79.9882 15.7065 79.3708 15.0497 78.7001 14.4398C79.6331 13.8073 80.6231 12.9509 81.2847 11.8684C82.3848 10.0681 84.2987 9.06439 86.4893 9.06439Z" fill="#0C1A40"/>
<path d="M79.3846 17.2627C79.5171 17.2627 79.6511 17.2328 79.7759 17.1706C81.1484 16.4879 82.3033 15.3906 83.2085 13.9095C84.9597 11.0446 87.4174 10.1488 89.171 9.9017C89.4368 9.86443 89.6706 9.70764 89.8067 9.47631C89.9424 9.24498 89.9652 8.96408 89.8682 8.71412C89.6319 8.10381 89.1077 7.65733 88.4661 7.52022C84.877 6.75029 81.5488 8.06619 79.7847 10.9522C79.059 12.1394 77.7509 13.0218 76.7816 13.553C76.5229 13.6947 76.3527 13.9566 76.3281 14.2505C76.3035 14.5444 76.4279 14.831 76.6593 15.0138C77.4183 15.6128 78.113 16.2688 78.7247 16.9642C78.8956 17.1587 79.1378 17.2627 79.3846 17.2627ZM85.917 9.08748C84.4854 9.79061 82.9382 10.981 81.7084 12.9926C81.1104 13.9714 80.389 14.7364 79.5583 15.2743C79.284 14.9885 78.9975 14.71 78.7001 14.4393C79.6331 13.8072 80.6231 12.9504 81.2844 11.8683C82.2878 10.2265 83.9679 9.24744 85.917 9.08748Z" fill="#0C1A40"/>
<path d="M53.1837 20.9985C53.5268 20.9985 53.8393 20.7985 53.9828 20.4852C54.5987 19.1387 55.4122 17.8548 56.3354 16.7717C56.5425 16.5287 56.6016 16.1927 56.4894 15.8935C56.3773 15.5943 56.1122 15.3798 55.7965 15.3324C53.903 15.0487 50.4773 14.2119 48.8099 11.7964C48.2773 11.0247 47.3562 10.6914 46.4632 10.947C45.5751 11.2012 44.9733 11.9665 44.93 12.8971C44.8094 15.4769 45.4001 17.5117 46.6857 18.9443C46.794 19.0649 46.9332 19.1532 47.0886 19.1996L47.2247 19.2379C47.6469 19.3768 48.053 19.5641 48.4323 19.7958C49.95 20.7236 51.8407 20.9616 53.1594 20.9978C53.1671 20.9985 53.1756 20.9985 53.1837 20.9985ZM54.0875 16.7984C53.5486 17.5553 53.0652 18.3621 52.6426 19.2126C51.609 19.1359 50.3455 18.9053 49.3488 18.296C48.8746 18.0064 48.368 17.7691 47.8417 17.5908C46.9817 16.5175 46.5929 14.9675 46.6857 12.979C46.697 12.7431 46.8541 12.6633 46.9469 12.6366C47.0436 12.6092 47.2247 12.5934 47.3635 12.7944C48.9691 15.1207 51.6913 16.2517 54.0875 16.7984Z" fill="#0C1A40"/>
<path d="M77.2038 15.2023C77.3483 15.2023 77.4935 15.1664 77.626 15.094C78.783 14.4605 80.357 13.3865 81.2848 11.8684C81.5382 11.4539 81.8529 11.0654 82.2203 10.7139C82.3377 10.6014 82.4217 10.4586 82.4628 10.3015C82.9498 8.44243 82.5465 6.36576 81.2651 4.12912C80.8017 3.32052 79.9172 2.91376 79.0108 3.09271C78.0996 3.27236 77.4316 3.98919 77.3096 4.91872C76.9275 7.83072 74.257 10.1391 72.6996 11.2556C72.4401 11.4416 72.302 11.7538 72.3385 12.0709C72.3751 12.388 72.5808 12.6605 72.8761 12.7821C74.1899 13.3249 75.498 14.0963 76.6596 15.0128C76.8175 15.1386 77.0101 15.2023 77.2038 15.2023ZM80.814 9.63282C80.4178 10.0389 80.0722 10.4815 79.7846 10.9515C79.1757 11.9482 78.1566 12.7297 77.2713 13.269C76.5088 12.7062 75.7118 12.2091 74.8888 11.7819C76.7742 10.202 78.6839 7.95236 79.052 5.14794C79.084 4.90572 79.2527 4.83716 79.3508 4.81783C79.4464 4.79919 79.6219 4.79849 79.7389 5.00345C80.7282 6.72997 81.0893 8.28599 80.814 9.63282Z" fill="#0C1A40"/>
<path d="M57.5789 27.8761C57.6461 27.8761 57.7146 27.8683 57.7832 27.8521C58.2553 27.7396 58.5471 27.2661 58.435 26.7936C58.3734 26.5352 58.4163 26.2684 58.5555 26.0423C58.6948 25.8159 58.9138 25.6577 59.1718 25.5962C59.4302 25.5346 59.6974 25.5775 59.9235 25.7168C60.1495 25.856 60.3081 26.075 60.3696 26.3334C60.4821 26.8055 60.9553 27.0977 61.4282 26.9852C61.9003 26.8727 62.1921 26.3991 62.08 25.9266C61.7284 24.4504 60.2427 23.5343 58.7658 23.8862C58.0507 24.056 57.4446 24.4947 57.0593 25.1209C56.674 25.7466 56.5555 26.4853 56.7257 27.2007C56.8209 27.6043 57.1813 27.8761 57.5789 27.8761Z" fill="#0C1A40"/>
<path d="M72.6972 24.2339C72.7654 24.2339 72.835 24.2261 72.9039 24.2093C73.3757 24.0954 73.6661 23.6204 73.5522 23.1486C73.4899 22.8906 73.5318 22.6234 73.6703 22.397C73.8088 22.1706 74.0275 22.0113 74.2855 21.9491C74.5436 21.8868 74.8104 21.9287 75.0372 22.0672C75.2639 22.2057 75.4228 22.4244 75.4851 22.6824C75.599 23.1542 76.0753 23.4443 76.5457 23.3307C77.0175 23.2168 77.3076 22.7422 77.194 22.27C77.0214 21.5553 76.5812 20.9506 75.954 20.5674C75.3269 20.1839 74.5875 20.0679 73.8735 20.2405C73.1588 20.4131 72.5541 20.8532 72.1709 21.4804C71.7877 22.1076 71.6713 22.8466 71.8439 23.561C71.9406 23.9635 72.3006 24.2339 72.6972 24.2339Z" fill="#0C1A40"/>
<path d="M70.4697 42.3011C70.7316 42.3011 70.9903 42.2705 71.2456 42.209C72.3857 41.934 73.3191 41.0692 73.9456 39.7083C74.0602 39.4594 74.0521 39.1708 73.9234 38.9289C73.7951 38.6867 73.5606 38.5183 73.2902 38.4736C72.7256 38.3804 72.187 38.2018 71.6896 37.9427C70.6528 37.4031 69.4104 37.703 68.7343 38.6557C68.4331 39.0804 68.0685 39.4601 67.6512 39.7835C67.4388 39.9481 67.313 40.2012 67.3105 40.4701C67.3081 40.7391 67.429 40.9947 67.6385 41.1631C68.5744 41.9158 69.5394 42.3011 70.4697 42.3011ZM71.7718 39.8911C71.5219 40.1759 71.2111 40.409 70.8328 40.5004C70.4218 40.5995 70.0045 40.513 69.6249 40.3464C69.8196 40.1333 70.0007 39.9083 70.1677 39.6731C70.3325 39.4408 70.6243 39.3704 70.8771 39.5019C71.1665 39.6524 71.4649 39.7821 71.7718 39.8911Z" fill="#0C1A40"/>
</g>
<defs>
<clipPath id="clip0_32_631">
<rect width="90" height="90" fill="white" transform="matrix(-1 0 0 1 90 0)"/>
</clipPath>
</defs>
</svg>
