<svg width="1920" height="1416" viewBox="0 0 1920 1416" fill="none" xmlns="http://www.w3.org/2000/svg">
<path d="M982.045 97.1195C531.106 111.063 274.071 -107.93 0 70.053V1416H1921V136.489C1628.89 -59.5385 1229.56 89.4662 982.045 97.1195Z" fill="#FFF1F1"/>
<path fill-rule="evenodd" clip-rule="evenodd" d="M1589.65 290.387C1589.35 289.756 1589.03 289.132 1588.73 288.496C1587.82 286.604 1586.87 284.73 1585.95 282.839C1585.69 282.314 1585.38 281.986 1584.66 282.324C1584.15 282.561 1584.24 283.062 1584.46 283.495C1585.35 285.304 1586.29 287.092 1587.12 288.931C1587.51 289.775 1587.93 290.599 1588.34 291.432C1588.85 291.37 1589.35 291.238 1589.84 291.075C1589.92 290.807 1589.75 290.601 1589.65 290.387Z" fill="#7BEFE5"/>
<path fill-rule="evenodd" clip-rule="evenodd" d="M1633.22 280.525C1631.43 281.45 1602.4 288.803 1580.22 294.35V294.344L1570.38 296.803C1561.33 299.059 1555 300.621 1555 300.621L1555.53 302.592C1573.27 370.465 1578.69 373.889 1578.69 373.889C1599.58 368.416 1656.32 353.641 1656.32 353.641C1647.35 337.113 1633.22 280.525 1633.22 280.525Z" fill="#FFA3AB"/>
<path fill-rule="evenodd" clip-rule="evenodd" d="M1600.5 289.164C1581.07 296.882 1559.29 305.378 1557.97 305.897C1558.21 306.834 1558.65 307.685 1558.88 308.598C1574.87 349.447 1583 365.492 1586.8 371.765C1596.97 369.055 1610.9 365.543 1623.71 362.137C1635.27 357.451 1646.85 352.589 1654.32 349.562C1646.88 332.594 1637.05 294.467 1634.25 283.332C1633.82 282.233 1633.43 281.242 1633.1 280.375C1630.38 281.368 1616.03 285.157 1600.5 289.164Z" fill="#FC6084"/>
<path fill-rule="evenodd" clip-rule="evenodd" d="M1557.97 303.076C1557.97 303.076 1630.36 275.383 1633.07 273.527C1633.07 273.527 1654.07 327.944 1665 343.241C1665 343.241 1610.52 364.893 1590.45 372.899C1590.45 372.899 1583.93 368.245 1557.97 303.076Z" fill="#A089E4"/>
<path d="M1614.97 324.963L1613.09 328.143H1577.88L1573.86 324.963L1574.77 328.143L1604.65 356.675L1615.88 328.143L1614.97 324.963Z" fill="#074784"/>
<path fill-rule="evenodd" clip-rule="evenodd" d="M1641.67 317.925L1640.91 319.317L1625.41 315.528L1618.29 344.681L1616.28 345.169L1617.7 347.091L1635.37 351.409L1643.08 319.846L1641.67 317.925Z" fill="#074784"/>
<path fill-rule="evenodd" clip-rule="evenodd" d="M1596.6 309.35C1596.66 307.7 1595.88 306.152 1595.09 304.75C1594.29 303.323 1593.53 301.915 1592.83 300.437C1591.39 297.425 1589.9 294.442 1588.47 291.432C1587.92 291.644 1587.38 291.853 1586.84 292.062C1587.79 293.976 1588.74 295.895 1589.71 297.806C1590.73 299.833 1591.72 301.871 1592.75 303.896C1593.69 305.759 1595.94 308.696 1594.1 310.711C1593.04 311.876 1590.86 311.874 1589.56 311.067C1588.86 310.63 1588.02 309.825 1587.65 309.075C1586.95 307.659 1586.24 306.257 1585.52 304.845C1583.79 301.419 1581.97 297.945 1580.22 294.526C1579.75 294.707 1579.23 294.912 1578.77 295.09C1580.9 299.085 1583.19 303.119 1585.11 307.205C1586 309.104 1586.74 311.231 1588.45 312.571C1590.06 313.832 1592.27 313.71 1594.08 312.921C1595.46 312.318 1596.55 310.857 1596.6 309.35Z" fill="#074784"/>
<path d="M1620.33 307.18C1620.33 313.246 1615.41 318.165 1609.35 318.165C1603.28 318.165 1598.36 313.246 1598.36 307.18C1598.36 301.113 1603.28 296.195 1609.35 296.195C1615.41 296.195 1620.33 301.113 1620.33 307.18Z" fill="#074784"/>
<path fill-rule="evenodd" clip-rule="evenodd" d="M1593.35 304.601C1592.57 303.21 1591.82 301.836 1591.14 300.395C1589.44 296.829 1587.66 293.31 1585.99 289.728C1585.53 288.726 1585.04 287.734 1584.53 286.756C1583.7 285.171 1583.09 283.454 1581.7 282.246C1580.56 281.252 1579.08 280.468 1577.54 280.536C1576.43 280.586 1575.15 281.005 1574.2 281.559C1571.71 283.009 1570.58 285.727 1571.18 288.527C1571.65 290.757 1573.19 292.793 1574.22 294.795C1574.26 294.866 1574.85 296.054 1575.15 296.48L1576.6 295.92C1575.92 294.679 1575.26 293.422 1574.57 292.186C1573.64 290.535 1572.67 288.878 1572.72 286.919C1572.76 285.244 1573.52 283.76 1575.1 283.038C1578.08 281.676 1580.84 283.518 1582.24 286.084C1583.16 287.744 1583.93 289.51 1584.79 291.204C1585.9 293.408 1586.98 295.624 1588.09 297.828C1589.09 299.805 1590.06 301.793 1591.06 303.769C1591.98 305.586 1594.18 308.452 1592.39 310.418C1591.35 311.554 1589.22 311.552 1587.95 310.765C1587.27 310.339 1586.45 309.554 1586.09 308.822C1585.41 307.44 1584.71 306.072 1584.01 304.694C1582.23 301.172 1580.39 297.68 1578.6 294.163C1578.17 293.321 1577.74 292.481 1577.31 291.641C1577.31 291.641 1576.22 291.083 1575.96 292.29C1578.5 297.181 1581.27 302.011 1583.61 306.998C1584.48 308.85 1585.2 310.925 1586.87 312.232C1588.44 313.462 1590.59 313.343 1592.36 312.574C1593.71 311.985 1594.77 310.56 1594.82 309.089C1594.88 307.481 1594.11 305.97 1593.35 304.601Z" fill="#7BEFE5"/>
<path fill-rule="evenodd" clip-rule="evenodd" d="M1638.14 310.911C1638.14 311.769 1637.45 312.465 1636.59 312.465C1635.73 312.465 1635.03 311.769 1635.03 310.911C1635.03 310.051 1635.73 309.356 1636.59 309.356C1637.45 309.356 1638.14 310.051 1638.14 310.911Z" fill="#7BEFE5"/>
<path fill-rule="evenodd" clip-rule="evenodd" d="M1566.82 307.451C1566.82 308.31 1566.13 309.007 1565.27 309.007C1564.41 309.007 1563.72 308.31 1563.72 307.451C1563.72 306.593 1564.41 305.898 1565.27 305.898C1566.13 305.898 1566.82 306.593 1566.82 307.451Z" fill="#7BEFE5"/>
<path fill-rule="evenodd" clip-rule="evenodd" d="M1614.59 353.495C1614.59 354.354 1613.9 355.049 1613.04 355.049C1612.18 355.049 1611.48 354.353 1611.48 353.495C1611.48 352.636 1612.18 351.94 1613.04 351.94C1613.9 351.94 1614.59 352.636 1614.59 353.495Z" fill="white"/>
<path fill-rule="evenodd" clip-rule="evenodd" d="M1582.63 341.098C1582.63 341.672 1582.16 342.138 1581.59 342.138C1581.01 342.138 1580.55 341.672 1580.55 341.098C1580.55 340.523 1581.01 340.058 1581.59 340.058C1582.16 340.058 1582.63 340.523 1582.63 341.098Z" fill="#7BEEE4"/>
<path fill-rule="evenodd" clip-rule="evenodd" d="M1617.16 320.858C1617.16 321.344 1616.77 321.738 1616.28 321.738C1615.8 321.738 1615.4 321.344 1615.4 320.858C1615.4 320.372 1615.8 319.978 1616.28 319.978C1616.77 319.978 1617.16 320.372 1617.16 320.858Z" fill="white"/>
<path fill-rule="evenodd" clip-rule="evenodd" d="M1598.36 295.367C1598.36 295.853 1597.97 296.247 1597.48 296.247C1597 296.247 1596.6 295.853 1596.6 295.367C1596.6 294.881 1597 294.487 1597.48 294.487C1597.97 294.488 1598.36 294.881 1598.36 295.367Z" fill="#074784"/>
<path fill-rule="evenodd" clip-rule="evenodd" d="M1653.03 339.724C1653.03 340.21 1652.64 340.604 1652.15 340.604C1651.67 340.604 1651.27 340.21 1651.27 339.724C1651.27 339.238 1651.67 338.844 1652.15 338.844C1652.64 338.844 1653.03 339.238 1653.03 339.724Z" fill="white"/>
<path fill-rule="evenodd" clip-rule="evenodd" d="M1617.43 287.674C1617.43 288.532 1616.73 289.228 1615.88 289.228C1615.02 289.228 1614.32 288.532 1614.32 287.674C1614.32 286.815 1615.02 286.119 1615.88 286.119C1616.73 286.119 1617.43 286.815 1617.43 287.674Z" fill="white"/>
<path fill-rule="evenodd" clip-rule="evenodd" d="M1586.74 318.03C1586.74 318.889 1586.04 319.585 1585.18 319.585C1584.33 319.585 1583.63 318.889 1583.63 318.03C1583.63 317.172 1584.33 316.476 1585.18 316.476C1586.04 316.476 1586.74 317.172 1586.74 318.03Z" fill="#074784"/>
<path fill-rule="evenodd" clip-rule="evenodd" d="M1593.87 356.142C1593.87 357.001 1593.17 357.697 1592.31 357.697C1591.45 357.697 1590.76 357.001 1590.76 356.142C1590.76 355.283 1591.45 354.588 1592.31 354.588C1593.17 354.588 1593.87 355.284 1593.87 356.142Z" fill="#074784"/>
<path fill-rule="evenodd" clip-rule="evenodd" d="M1625.1 281.822C1626.56 286.115 1628.67 287.475 1631.52 286.948C1628.81 288.106 1627.88 290.574 1629.05 294.939C1627.56 290.779 1625.59 288.999 1622.63 289.712C1625.26 288.478 1626.25 286.136 1625.1 281.822Z" fill="#074784"/>
<path fill-rule="evenodd" clip-rule="evenodd" d="M1573.32 306.052C1574.75 310.509 1576.85 311.963 1579.73 311.497C1576.98 312.617 1576.01 315.13 1577.14 319.652C1575.69 315.333 1573.73 313.449 1570.74 314.104C1573.41 312.905 1574.43 310.522 1573.32 306.052Z" fill="white"/>
<path fill-rule="evenodd" clip-rule="evenodd" d="M1647.04 328.761C1647.14 332.569 1648.48 334.188 1650.9 334.484C1648.43 334.728 1647.07 336.47 1646.91 340.26C1646.76 336.555 1645.64 334.634 1643.08 334.46C1645.5 334.136 1646.88 332.507 1647.04 328.761Z" fill="white"/>
<path d="M1620.67 304.926C1620.67 310.993 1615.75 315.91 1609.68 315.91C1603.62 315.91 1598.7 310.993 1598.7 304.926C1598.7 298.859 1603.62 293.94 1609.68 293.94C1615.75 293.94 1620.67 298.859 1620.67 304.926Z" fill="#7BEFE5"/>
<path d="M1606.6 314.085C1606.6 314.085 1606.95 314.07 1607.56 314.045C1607.87 314.026 1608.23 314.004 1608.65 313.959C1608.85 313.943 1609.07 313.913 1609.3 313.876C1609.42 313.86 1609.54 313.843 1609.66 313.826C1609.77 313.804 1609.9 313.781 1610.02 313.758C1610.52 313.67 1611.04 313.521 1611.58 313.358C1612.11 313.174 1612.66 312.956 1613.19 312.677C1613.71 312.391 1614.22 312.054 1614.7 311.664C1615.17 311.276 1615.6 310.822 1615.97 310.332C1616.34 309.844 1616.67 309.318 1616.93 308.768C1617.18 308.217 1617.4 307.655 1617.56 307.092C1617.7 306.528 1617.83 305.971 1617.9 305.432C1617.98 304.895 1618.02 304.379 1618.05 303.898C1618.06 303.418 1618.08 302.974 1618.06 302.578C1618.06 302.182 1618.04 301.837 1618.03 301.549C1617.99 300.977 1617.97 300.644 1617.97 300.644C1617.97 300.644 1618 300.722 1618.06 300.865C1618.12 301.012 1618.21 301.224 1618.3 301.501C1618.39 301.78 1618.51 302.117 1618.6 302.515C1618.7 302.911 1618.79 303.365 1618.85 303.867C1618.92 304.368 1618.97 304.917 1618.95 305.503C1618.96 306.089 1618.89 306.708 1618.77 307.346C1618.65 307.982 1618.45 308.633 1618.18 309.272C1617.91 309.913 1617.54 310.531 1617.11 311.107C1616.66 311.676 1616.16 312.208 1615.58 312.642C1615 313.082 1614.38 313.44 1613.75 313.719C1613.11 313.995 1612.47 314.178 1611.86 314.313C1611.24 314.429 1610.65 314.498 1610.11 314.509C1609.84 314.519 1609.59 314.526 1609.34 314.51C1609.1 314.502 1608.87 314.489 1608.65 314.463C1608.22 314.432 1607.84 314.358 1607.54 314.306C1607.24 314.255 1607.01 314.183 1606.85 314.147C1606.69 314.106 1606.6 314.085 1606.6 314.085Z" fill="#29ADFC"/>
<path d="M1573.86 324.963L1603.75 353.495L1614.97 324.963H1573.86Z" fill="#F18545"/>
<path d="M1624 313.611L1616.28 345.172L1633.96 349.492L1641.67 317.931L1624 313.611Z" fill="#F9D555"/>
<path d="M1634.17 339.724C1634.17 339.724 1634.19 339.391 1634.26 338.816C1634.32 338.24 1634.44 337.421 1634.6 336.446C1634.68 335.958 1634.78 335.432 1634.88 334.878C1634.98 334.323 1635.09 333.739 1635.22 333.137C1635.34 332.535 1635.47 331.916 1635.62 331.289C1635.76 330.662 1635.92 330.026 1636.05 329.386C1636.2 328.75 1636.35 328.112 1636.51 327.488C1636.66 326.863 1636.83 326.25 1636.99 325.658C1637.15 325.064 1637.3 324.491 1637.45 323.947C1637.6 323.403 1637.75 322.891 1637.9 322.419C1638.19 321.475 1638.45 320.693 1638.65 320.148C1638.84 319.602 1638.97 319.292 1638.97 319.292C1638.97 319.292 1638.97 319.626 1638.93 320.205C1638.9 320.784 1638.83 321.608 1638.72 322.591C1638.67 323.083 1638.6 323.615 1638.53 324.176C1638.44 324.736 1638.37 325.329 1638.25 325.935C1638.14 326.542 1638.02 327.168 1637.89 327.803C1637.76 328.437 1637.62 329.079 1637.47 329.722C1637.4 330.042 1637.32 330.362 1637.24 330.681C1637.16 330.998 1637.08 331.313 1636.99 331.626C1636.82 332.252 1636.64 332.865 1636.47 333.456C1636.29 334.048 1636.11 334.618 1635.94 335.156C1635.76 335.692 1635.58 336.195 1635.41 336.66C1635.07 337.588 1634.76 338.354 1634.54 338.889C1634.31 339.423 1634.17 339.724 1634.17 339.724Z" fill="#F18545"/>
<path d="M1582.42 329.041C1582.42 329.041 1582.68 329.189 1583.11 329.472C1583.33 329.616 1583.59 329.786 1583.88 329.995C1584.17 330.2 1584.5 330.434 1584.85 330.709C1585.54 331.25 1586.33 331.907 1587.13 332.641C1587.94 333.375 1588.77 334.177 1589.58 335.001C1589.98 335.413 1590.39 335.821 1590.78 336.236C1591.17 336.649 1591.55 337.056 1591.92 337.45C1592.28 337.85 1592.63 338.237 1592.96 338.604C1593.3 338.969 1593.61 339.32 1593.89 339.65C1594.17 339.985 1594.43 340.286 1594.67 340.551C1594.9 340.817 1595.1 341.061 1595.26 341.26C1595.59 341.659 1595.76 341.904 1595.76 341.904C1595.76 341.904 1595.49 341.778 1595.04 341.526C1594.82 341.399 1594.54 341.247 1594.23 341.06C1594.08 340.966 1593.92 340.865 1593.74 340.76C1593.58 340.646 1593.4 340.526 1593.22 340.401C1592.86 340.147 1592.48 339.866 1592.07 339.562C1591.67 339.258 1591.27 338.913 1590.85 338.558C1590.43 338.201 1590 337.83 1589.59 337.431C1589.17 337.04 1588.76 336.629 1588.35 336.219C1587.94 335.801 1587.54 335.385 1587.15 334.963C1586.76 334.544 1586.39 334.126 1586.03 333.715C1585.32 332.891 1584.68 332.114 1584.14 331.423C1583.62 330.728 1583.17 330.145 1582.88 329.719C1582.58 329.297 1582.42 329.041 1582.42 329.041Z" fill="#FFA3AB"/>
<path d="M1586.36 358.185C1586.36 358.185 1586.48 358.315 1586.66 358.553C1586.84 358.789 1587.08 359.133 1587.36 359.555C1587.49 359.767 1587.64 359.998 1587.78 360.245C1587.92 360.496 1588.09 360.742 1588.25 361.009C1588.57 361.537 1588.89 362.11 1589.18 362.692C1589.34 362.979 1589.51 363.263 1589.66 363.55C1589.81 363.834 1589.95 364.119 1590.09 364.396C1590.23 364.672 1590.34 364.952 1590.47 365.201C1590.6 365.454 1590.72 365.696 1590.83 365.923C1591.03 366.376 1591.19 366.766 1591.3 367.047C1591.4 367.325 1591.45 367.494 1591.45 367.494C1591.45 367.494 1591.32 367.384 1591.11 367.177C1590.89 366.971 1590.6 366.667 1590.26 366.288C1590.09 366.098 1589.91 365.888 1589.73 365.663C1589.54 365.44 1589.38 365.183 1589.2 364.924C1588.85 364.399 1588.49 363.829 1588.16 363.245C1587.86 362.644 1587.57 362.033 1587.32 361.453C1587.2 361.162 1587.08 360.881 1586.99 360.609C1586.9 360.336 1586.82 360.076 1586.75 359.835C1586.61 359.351 1586.51 358.94 1586.45 358.648C1586.39 358.357 1586.36 358.185 1586.36 358.185Z" fill="white"/>
<path d="M1641.5 302.525C1641.5 302.525 1641.69 302.763 1642 303.198C1642.31 303.632 1642.73 304.263 1643.2 305.037C1643.43 305.424 1643.67 305.848 1643.92 306.301C1644.16 306.761 1644.45 307.212 1644.72 307.7C1645.26 308.669 1645.8 309.719 1646.31 310.786C1646.58 311.313 1646.87 311.833 1647.12 312.357C1647.38 312.879 1647.63 313.401 1647.86 313.909C1648.1 314.413 1648.29 314.927 1648.51 315.385C1648.74 315.846 1648.94 316.291 1649.12 316.705C1649.47 317.537 1649.74 318.252 1649.92 318.765C1650.1 319.277 1650.19 319.585 1650.19 319.585C1650.19 319.585 1649.96 319.384 1649.6 319.004C1649.23 318.627 1648.73 318.07 1648.15 317.375C1647.86 317.026 1647.56 316.642 1647.24 316.229C1646.93 315.819 1646.65 315.351 1646.34 314.874C1645.75 313.914 1645.14 312.868 1644.57 311.798C1644.05 310.697 1643.56 309.577 1643.14 308.513C1642.93 307.981 1642.72 307.466 1642.57 306.966C1642.41 306.467 1642.28 305.991 1642.16 305.548C1641.92 304.661 1641.75 303.909 1641.64 303.373C1641.54 302.84 1641.5 302.525 1641.5 302.525Z" fill="white"/>
<path fill-rule="evenodd" clip-rule="evenodd" d="M1627.85 299.693C1628.37 300.149 1628.88 300.605 1629.4 301.061C1629.52 301.177 1629.64 301.295 1629.76 301.413C1630.13 301.739 1630.5 302.066 1630.87 302.392C1630.88 302.443 1630.88 302.493 1630.89 302.545C1629.6 303.957 1628.32 305.377 1627.03 306.78C1626.8 307.029 1626.5 307.21 1626.23 307.423C1625.84 307.103 1625.46 306.784 1625.08 306.465C1626 304.208 1626.93 301.95 1627.85 299.693Z" fill="#E16B56"/>
<path fill-rule="evenodd" clip-rule="evenodd" d="M1626.23 307.423C1626.5 307.21 1626.8 307.029 1627.03 306.78C1628.32 305.377 1629.6 303.957 1630.89 302.545C1631.12 302.705 1631.35 302.864 1631.58 303.025C1631.72 303.134 1631.85 303.244 1631.98 303.353C1632.5 303.81 1633.01 304.266 1633.53 304.723C1631.38 305.908 1629.23 307.093 1627.07 308.279C1626.8 308.042 1626.53 307.805 1626.25 307.568C1626.24 307.52 1626.23 307.472 1626.23 307.423Z" fill="#B25746"/>
<path fill-rule="evenodd" clip-rule="evenodd" d="M1651.82 275.63C1652.01 275.83 1652.2 276.031 1652.39 276.233C1645.21 284.303 1638.04 292.375 1630.86 300.438C1630.54 300.801 1630.13 301.09 1629.76 301.413C1629.64 301.295 1629.52 301.178 1629.4 301.061C1629.72 300.648 1630.02 300.217 1630.37 299.825C1637.41 291.896 1644.46 283.971 1651.5 276.044C1651.62 275.912 1651.72 275.768 1651.82 275.63Z" fill="#074784"/>
<path fill-rule="evenodd" clip-rule="evenodd" d="M1653.92 277.617C1654.14 277.78 1654.36 277.942 1654.59 278.105C1650.61 282.563 1646.63 287.019 1642.66 291.48C1639.37 295.173 1636.09 298.873 1632.8 302.565C1632.55 302.847 1632.26 303.092 1631.98 303.353C1631.85 303.244 1631.72 303.134 1631.58 303.026C1631.86 302.622 1632.11 302.19 1632.43 301.826C1639.59 293.752 1646.76 285.685 1653.92 277.617Z" fill="#074784"/>
<path fill-rule="evenodd" clip-rule="evenodd" d="M1632.8 302.565C1632.55 302.847 1632.26 303.092 1631.98 303.353C1632.5 303.81 1633.01 304.266 1633.53 304.723C1633.58 304.691 1633.64 304.669 1633.67 304.626C1641.14 296.226 1648.61 287.823 1656.07 279.419C1656.09 279.399 1656.1 279.366 1656.11 279.34C1655.6 278.928 1655.09 278.516 1654.59 278.104C1650.61 282.563 1646.63 287.019 1642.66 291.48C1639.37 295.173 1636.09 298.873 1632.8 302.565Z" fill="#F9D455"/>
<path fill-rule="evenodd" clip-rule="evenodd" d="M1629.76 301.413C1630.13 301.739 1630.5 302.066 1630.87 302.392C1630.88 302.443 1630.88 302.493 1630.89 302.545C1631.12 302.705 1631.35 302.864 1631.58 303.026C1631.86 302.622 1632.11 302.19 1632.43 301.826C1639.59 293.752 1646.76 285.685 1653.92 277.618C1653.77 277.457 1653.63 277.296 1653.48 277.136C1653.44 277.033 1653.4 276.931 1653.37 276.83C1653.04 276.631 1652.72 276.431 1652.39 276.233C1645.21 284.303 1638.04 292.374 1630.86 300.438C1630.54 300.801 1630.13 301.09 1629.76 301.413Z" fill="#F9D455"/>
<path fill-rule="evenodd" clip-rule="evenodd" d="M1650.03 274.658C1642.76 282.839 1635.49 291.022 1628.22 299.204C1628.08 299.357 1627.97 299.53 1627.85 299.693C1628.36 300.149 1628.88 300.605 1629.4 301.061C1629.72 300.648 1630.02 300.216 1630.37 299.825C1637.41 291.896 1644.46 283.971 1651.5 276.043C1651.62 275.912 1651.72 275.768 1651.82 275.63C1651.35 275.181 1650.88 274.734 1650.41 274.286C1650.28 274.41 1650.15 274.527 1650.03 274.658Z" fill="#F9D455"/>
<path fill-rule="evenodd" clip-rule="evenodd" d="M1651.97 272.559C1651.33 273.013 1650.84 273.702 1650.35 274.29C1650.35 274.3 1650.18 274.495 1650.19 274.5C1650.19 274.501 1655.91 279.598 1655.91 279.598C1656.26 279.214 1656.6 278.827 1656.95 278.447C1657.33 278.036 1657.72 277.61 1657.88 277.06C1658.01 276.585 1657.98 276.053 1657.78 275.602C1657.66 275.354 1657.5 275.091 1657.31 274.896C1656.51 274.085 1655.64 273.344 1654.75 272.631C1654.12 272.115 1653.16 271.942 1652.41 272.299C1652.25 272.372 1652.11 272.459 1651.97 272.559Z" fill="#FC6084"/>
<path fill-rule="evenodd" clip-rule="evenodd" d="M1626.23 307.423L1625.08 306.465C1624.57 307.669 1624.06 308.875 1623.55 310.08C1623.55 310.08 1623.52 310.287 1623.76 310.205C1624.15 309.964 1624.54 309.725 1624.93 309.483C1625.65 309.082 1626.36 308.68 1627.07 308.279C1626.8 308.042 1626.5 307.66 1626.23 307.423Z" fill="#074784"/>
<path fill-rule="evenodd" clip-rule="evenodd" d="M1627.07 308.279L1625.08 306.465C1625.08 306.465 1626.53 302.485 1627.85 299.693L1633.53 304.723C1633.53 304.723 1630.35 306.614 1627.07 308.279Z" fill="#FFA4AC"/>
<g clip-path="url(#clip0_1559_5610)">
<path fill-rule="evenodd" clip-rule="evenodd" d="M150.613 654.581C149.805 654.433 148.998 654.313 148.194 654.216C167.256 658.968 179.65 677.339 176.149 696.363C173.038 713.272 157.445 726.232 140.68 727.403C138.582 727.549 138.056 728.143 135.886 727.882C156.291 731.637 177.313 717.057 180.958 697.248C184.604 677.439 171.017 658.336 150.613 654.581Z" fill="#F9D555"/>
<path fill-rule="evenodd" clip-rule="evenodd" d="M144.288 657.764C145.158 654.8 148.636 649.037 151.824 651.672C153.564 652.989 153.274 658.588 152.839 660.728" fill="#F9D555"/>
<path fill-rule="evenodd" clip-rule="evenodd" d="M145.423 655.122C144.906 656.061 144.511 657.004 144.288 657.765L152.839 660.729C152.999 659.939 153.14 658.678 153.166 657.336C150.719 656.315 148.125 655.565 145.423 655.122Z" fill="#F18545"/>
<path fill-rule="evenodd" clip-rule="evenodd" d="M149.544 732.897C149.252 732.791 148.971 732.689 148.703 732.591C146.58 731.814 144.177 730.774 142.581 729.131C140.637 727.131 142.117 722.827 140.421 722.834H137.058C135.361 722.827 136.842 727.131 134.898 729.131C132.623 731.378 129.415 732.238 126.542 733.485C122.315 735.319 114.431 738.596 115.616 744.441C116.371 748.165 128.775 745.073 131.037 745.073C133.552 745.073 136.173 745.303 138.74 745.451C141.307 745.303 143.927 745.073 146.442 745.073C148.705 745.073 161.108 748.166 161.864 744.441C163.182 737.938 154.683 734.763 149.544 732.897Z" fill="#F9D555"/>
<path fill-rule="evenodd" clip-rule="evenodd" d="M138.994 728.153C139.962 728.153 140.918 728.104 141.864 728.014C141.399 725.594 141.899 722.828 140.554 722.834H136.916C135.58 722.828 136.064 725.555 135.616 727.962C136.726 728.087 137.852 728.153 138.994 728.153Z" fill="#F18545"/>
<path d="M128.683 737.651C126.074 738.955 122.948 738.662 120.391 737.388C118.492 736.443 116.885 734.995 115.59 733.327C115.392 733.071 115.219 732.827 115.072 732.594C114.8 732.173 114.652 731.874 114.652 731.874C118.413 734.221 121.946 737.152 126.605 737.287C127.191 737.304 127.778 737.311 128.362 737.268C128.657 737.247 129.415 737.221 129.415 737.221C129.415 737.221 129.126 737.431 128.683 737.651Z" fill="#F18545"/>
<path fill-rule="evenodd" clip-rule="evenodd" d="M172.417 696.997C171.407 701.687 169.376 706.013 166.561 709.745C164.735 712.166 149.686 722.271 143.409 723.059C141.961 723.241 140.484 723.335 138.984 723.335C135.307 723.335 131.766 722.771 128.447 721.727C122.871 719.973 106.733 702.813 105.477 696.636C105.052 694.547 104.829 692.387 104.829 690.176C104.829 671.864 120.121 657.018 138.985 657.018C146.555 657.018 153.551 659.41 159.214 663.456C167.66 669.493 172.891 694.796 172.417 696.997Z" fill="#29AEFD"/>
<path fill-rule="evenodd" clip-rule="evenodd" d="M146.736 657.877C144.246 657.316 141.651 657.019 138.984 657.019C125.754 657.019 114.283 664.322 108.609 675.001C111.809 678.688 115 682.399 119.614 682.399C127.303 682.074 127.303 675.562 129.669 669.376C132.331 662.864 135.88 663.516 140.906 661.562C143.456 660.669 145.232 659.374 146.736 657.877Z" fill="#074785"/>
<path fill-rule="evenodd" clip-rule="evenodd" d="M159.208 663.456C155.17 665.963 153.275 669.585 149.512 673.584C146.85 676.541 132.064 681.272 136.205 686.595C140.344 692.214 150.4 683.638 155.723 685.708C160.924 687.909 166.397 694.846 172.415 696.997C172.889 694.796 173.14 692.515 173.14 690.176C173.14 679.213 167.657 669.493 159.208 663.456Z" fill="#FFA4AC"/>
<path fill-rule="evenodd" clip-rule="evenodd" d="M158.384 698.49C154.243 696.293 150.104 698.49 148.033 703.617C145.336 709.782 146.277 717.568 143.405 723.059C152.908 721.867 161.186 716.882 166.577 709.719C165.109 704.884 162.943 700.699 158.384 698.49Z" fill="#7BEFE5"/>
<path fill-rule="evenodd" clip-rule="evenodd" d="M127.038 701.973C125.264 702.564 123.193 704.338 121.123 704.635C115.504 705.521 112.843 700.79 108.703 698.128C107.575 697.43 106.498 696.9 105.457 696.528C107.839 708.444 116.789 718.08 128.504 721.742C131.491 717.729 134.842 714.07 135.318 709.07C136.205 702.268 133.543 699.311 127.038 701.973Z" fill="#F9D555"/>
<path d="M142.119 717.821C142.119 717.821 142.15 717.425 142.229 716.738C142.27 716.396 142.316 715.978 142.383 715.503C142.447 715.027 142.512 714.49 142.602 713.908C142.645 713.617 142.69 713.314 142.736 713.001C143.143 710.233 143.157 707.416 144.051 704.722C144.959 701.987 146.648 699.809 148.971 698.139C149.228 697.977 149.475 697.824 149.712 697.684C149.949 697.544 150.191 697.439 150.407 697.328C150.517 697.273 150.622 697.222 150.724 697.171C150.831 697.129 150.933 697.088 151.031 697.049C151.227 696.972 151.407 696.902 151.57 696.839C151.899 696.723 152.167 696.659 152.343 696.604C152.522 696.555 152.617 696.529 152.617 696.529C152.617 696.529 152.277 696.726 151.68 697.071C151.537 697.165 151.378 697.268 151.205 697.38C151.119 697.435 151.029 697.492 150.936 697.551C150.847 697.616 150.754 697.684 150.658 697.753C150.47 697.896 150.26 698.031 150.059 698.202C149.857 698.369 149.644 698.544 149.422 698.727C147.44 700.367 145.975 702.788 145.206 705.22C144.582 707.191 144.388 709.258 144.016 711.282C143.672 713.156 143.087 714.99 142.479 716.794C142.259 717.449 142.119 717.821 142.119 717.821Z" fill="#7BEFE5"/>
<path d="M143.442 675.404C143.442 675.404 143.598 675.231 143.886 674.95C144.033 674.813 144.195 674.632 144.394 674.443C144.592 674.254 144.805 674.026 145.046 673.792C147.201 671.698 149.422 669.434 150.947 666.828C150.992 666.753 151.037 666.678 151.081 666.605C151.119 666.53 151.156 666.455 151.192 666.383C151.335 666.09 151.49 665.824 151.576 665.572C151.668 665.322 151.786 665.105 151.827 664.915C151.938 664.54 152.018 664.315 152.018 664.315C152.018 664.315 152.052 664.539 152.081 664.951C152.109 665.158 152.08 665.403 152.056 665.691C152.046 665.983 151.973 666.297 151.893 666.645C151.874 666.732 151.854 666.822 151.829 666.911C151.799 666.998 151.77 667.087 151.739 667.177C151.675 667.358 151.609 667.545 151.54 667.737C150.535 670.575 148.025 672.856 145.505 674.379C145.209 674.558 144.935 674.715 144.681 674.842C144.433 674.974 144.213 675.084 144.029 675.162C143.661 675.324 143.442 675.404 143.442 675.404Z" fill="#7BEFE5"/>
<path d="M113.606 698.351C113.606 698.351 113.899 698.556 114.399 698.923C114.528 699.004 114.671 699.093 114.827 699.191C116.697 700.368 118.72 700.631 120.866 700.272C121.182 700.199 121.501 700.13 121.822 700.038C122.464 699.859 123.116 699.648 123.771 699.411C124.428 699.183 125.085 698.936 125.749 698.712C126.413 698.486 127.076 698.275 127.74 698.114C128.4 697.949 129.056 697.827 129.691 697.779C130.753 697.669 131.946 697.759 132.944 698.167C133.151 698.252 133.346 698.325 133.52 698.404C133.687 698.496 133.841 698.581 133.98 698.657C134.049 698.696 134.115 698.73 134.174 698.767C134.232 698.807 134.285 698.845 134.336 698.881C134.435 698.951 134.519 699.012 134.587 699.061C134.721 699.16 134.793 699.213 134.793 699.213C134.793 699.213 134.709 699.182 134.551 699.126C134.473 699.097 134.378 699.061 134.265 699.02C134.154 698.977 134.026 698.93 133.877 698.893C131.879 698.393 129.993 698.587 128.054 699.216C127.443 699.409 126.818 699.651 126.174 699.891C125.533 700.137 124.872 700.389 124.199 700.628C123.526 700.865 122.834 701.085 122.131 701.25C119.693 701.823 117.037 701.583 115.055 699.894C114.969 699.824 114.884 699.76 114.807 699.691C114.733 699.618 114.661 699.548 114.593 699.48C114.458 699.345 114.335 699.221 114.224 699.109C114.018 698.877 113.872 698.68 113.765 698.552C113.661 698.421 113.606 698.351 113.606 698.351Z" fill="#7BEFE5"/>
<path d="M117.517 683.993C117.517 683.993 117.615 684.068 117.799 684.21C117.985 684.352 118.27 684.524 118.653 684.698C119.039 684.862 119.534 684.983 120.104 685.008C120.675 685.034 121.319 684.93 121.994 684.728C122.669 684.524 123.369 684.195 124.075 683.787C124.781 683.378 125.476 682.859 126.155 682.285C126.828 681.702 127.482 681.048 128.04 680.325C128.321 679.96 128.561 679.594 128.767 679.19C128.991 678.754 129.231 678.312 129.41 677.885C129.812 677.037 130.155 676.11 130.501 675.216C130.957 674.039 131.416 672.86 131.972 671.725C132.527 670.592 133.18 669.494 134.018 668.546C134.915 667.531 136.005 666.764 137.249 666.233C137.613 666.078 137.987 665.96 138.363 665.841C138.585 665.772 138.703 665.734 138.703 665.734C138.625 665.759 138.546 665.822 138.475 665.861C138.251 665.985 138.027 666.109 137.803 666.233C136.536 666.935 135.426 667.913 134.576 669.086C133.79 670.17 133.225 671.392 132.747 672.637C132.365 673.629 132.034 674.641 131.679 675.643C131.351 676.57 131.013 677.501 130.575 678.442C130.366 678.923 130.13 679.348 129.901 679.784C129.659 680.257 129.342 680.703 129.021 681.1C128.372 681.904 127.635 682.58 126.876 683.171C126.115 683.759 125.323 684.25 124.527 684.634C124.133 684.831 123.733 684.995 123.339 685.133C122.942 685.262 122.554 685.375 122.17 685.444C121.408 685.596 120.678 685.611 120.052 685.497C119.424 685.391 118.911 685.163 118.534 684.924C118.159 684.681 117.904 684.433 117.749 684.263C117.598 684.087 117.517 683.993 117.517 683.993Z" fill="#7BEFE5"/>
<path d="M146.325 720.473C147.357 720.269 148.394 719.608 149.325 719.141C151.133 718.232 152.897 717.242 154.583 716.123C157.169 714.407 159.534 712.425 161.751 710.258C162.104 709.913 162.454 709.567 162.801 709.216C163.102 708.914 163.369 708.653 163.579 708.43C164.009 707.989 164.267 707.744 164.267 707.744C164.267 707.744 164.096 708.053 163.775 708.582C162.237 711.115 160.262 713.432 157.938 715.274C155.724 717.029 153.211 718.381 150.577 719.388C150.311 719.49 150.044 719.588 149.776 719.682C148.664 720.075 147.482 720.244 146.325 720.473Z" fill="#074785"/>
<path d="M170.437 689.577C170.437 689.577 170.355 689.233 170.235 688.627C170.206 688.475 170.174 688.308 170.138 688.125C170.098 687.945 170.055 687.75 170.009 687.542C169.915 687.127 169.822 686.661 169.693 686.154C169.632 685.902 169.568 685.638 169.501 685.365C168.246 680.19 165.87 675.51 163.021 671.047C162.792 670.687 162.595 670.37 162.423 670.116C162.086 669.601 161.904 669.296 161.904 669.296C161.904 669.296 162.168 669.529 162.615 669.959C162.726 670.066 162.849 670.185 162.983 670.315C167.256 674.448 169.91 680.389 170.427 686.277C170.462 686.682 170.469 687.086 170.48 687.492C170.485 687.708 170.497 687.91 170.495 688.096C170.49 688.282 170.485 688.453 170.481 688.607C170.462 689.224 170.437 689.577 170.437 689.577Z" fill="#074785"/>
<path d="M129.965 660.6C129.965 660.6 129.647 660.756 129.082 661.005C128.941 661.067 128.785 661.136 128.615 661.21C124.42 663.051 120.564 665.587 117.088 668.562C115.571 669.86 114.109 671.242 112.742 672.697C112.314 673.139 112.056 673.383 112.056 673.383C112.056 673.383 112.226 673.074 112.546 672.544C112.857 672.03 113.2 671.534 113.537 671.037C115.886 667.573 119.344 664.563 123.143 662.78C125.014 661.902 126.976 661.17 129.008 660.77C129.614 660.653 129.965 660.6 129.965 660.6Z" fill="#7BEFE5"/>
<path d="M147.759 683.908C147.755 683.909 147.751 683.91 147.748 683.911C149.464 682.831 151.52 682.301 153.544 682.415C156.357 682.575 158.743 684.055 160.869 685.79C161.33 686.174 161.765 686.557 162.165 686.928C162.568 687.299 162.934 687.662 163.272 687.997C163.948 688.665 164.488 689.245 164.869 689.65C165.248 690.055 165.46 690.296 165.46 690.296C165.46 690.296 165.391 690.256 165.262 690.18C165.135 690.102 164.943 689.993 164.711 689.84C164.24 689.542 163.579 689.099 162.81 688.544C160.477 686.86 158.14 685.007 155.42 683.988C153.597 683.304 151.769 683.158 149.852 683.419C149.151 683.565 148.456 683.742 147.759 683.908Z" fill="#FC6084"/>
<path d="M127.153 718.791C127.153 718.791 127.324 718.617 127.636 718.333C127.711 718.26 127.809 718.19 127.888 718.093C129.077 716.616 130.038 715.148 130.73 713.367C131.444 711.531 131.955 709.594 132.367 707.669C132.441 707.322 132.522 707.005 132.577 706.721C132.632 706.437 132.699 706.189 132.737 705.983C132.822 705.572 132.884 705.334 132.884 705.334C132.884 705.334 132.93 705.573 132.984 705.994C133.015 706.205 133.036 706.461 133.053 706.756C133.179 708.98 132.849 711.324 132.049 713.407C131.283 715.402 129.964 717.316 128.087 718.391C127.977 718.46 127.865 718.494 127.77 718.54C127.382 718.707 127.153 718.791 127.153 718.791Z" fill="#F18545"/>
<path fill-rule="evenodd" clip-rule="evenodd" d="M163.72 743.807C163.981 745.366 162.553 746.945 160.525 747.269C146.087 749.577 131.41 749.577 116.972 747.269C114.943 746.945 113.516 745.366 113.776 743.807C113.82 743.53 113.865 743.254 113.91 742.977C114.171 741.416 115.942 740.45 117.873 740.758C131.713 742.972 145.783 742.972 159.622 740.758C161.554 740.45 163.325 741.416 163.586 742.977C163.631 743.254 163.676 743.53 163.72 743.807Z" fill="#FC6084"/>
<path d="M117.195 744.025C117.195 744.025 117.892 744.021 119.106 744.044C120.321 744.065 122.052 744.109 124.123 744.183C133.579 744.517 143.003 745.06 152.465 744.64C154.711 744.54 156.962 744.44 159.201 744.243C160.388 744.138 161.083 744.096 161.09 744.095C160.527 744.13 159.899 744.396 159.35 744.523C158.307 744.766 157.25 744.953 156.193 745.126C153.909 745.5 151.609 745.767 149.302 745.942C144.675 746.295 140.025 746.281 135.392 746.036C130.647 745.785 125.92 745.299 121.213 744.659C120.381 744.546 119.657 744.431 119.062 744.338C117.872 744.15 117.195 744.025 117.195 744.025Z" fill="#FFA4AC"/>
<path d="M156.721 740.264C156.707 740.24 156.617 740.217 156.594 740.206C156.48 740.153 156.366 740.099 156.253 740.048C156.11 739.983 155.974 739.894 155.836 739.819C155.697 739.743 155.557 739.669 155.417 739.595C154.858 739.301 154.29 739.028 153.722 738.755C153.16 738.484 152.602 738.207 152.045 737.925C151.488 737.643 150.934 737.357 150.38 737.069C149.826 736.781 149.273 736.492 148.719 736.204C148.166 735.916 147.612 735.629 147.055 735.346C146.499 735.064 145.941 734.785 145.38 734.514C144.819 734.242 144.255 733.977 143.686 733.722C143.612 733.689 143.537 733.658 143.464 733.623C143.072 733.45 142.845 733.334 142.845 733.334C142.845 733.334 143.09 733.342 143.524 733.383C143.96 733.425 144.394 733.484 144.826 733.559C147.058 733.947 149.223 734.787 151.202 735.886C152.196 736.438 153.148 737.066 154.048 737.761C154.915 738.433 155.866 739.178 156.564 740.028C156.628 740.106 156.721 740.264 156.721 740.264Z" fill="white"/>
<path fill-rule="evenodd" clip-rule="evenodd" d="M168.504 700.54C168.504 701.332 167.862 701.974 167.071 701.974C166.279 701.974 165.638 701.332 165.638 700.54C165.638 699.748 166.279 699.107 167.071 699.107C167.862 699.107 168.504 699.748 168.504 700.54Z" fill="white"/>
<path fill-rule="evenodd" clip-rule="evenodd" d="M133.191 691.299C133.191 691.75 132.826 692.116 132.375 692.116C131.924 692.116 131.558 691.75 131.558 691.299C131.558 690.848 131.924 690.483 132.375 690.483C132.826 690.483 133.191 690.848 133.191 691.299Z" fill="white"/>
<path fill-rule="evenodd" clip-rule="evenodd" d="M142.935 670.112C142.935 670.563 142.57 670.928 142.119 670.928C141.668 670.928 141.303 670.563 141.303 670.112C141.303 669.661 141.668 669.296 142.119 669.296C142.57 669.296 142.935 669.661 142.935 670.112Z" fill="white"/>
<path d="M120.47 694.17C121.262 694.17 121.903 693.528 121.903 692.737C121.903 691.945 121.262 691.304 120.47 691.304C119.679 691.304 119.037 691.945 119.037 692.737C119.037 693.528 119.679 694.17 120.47 694.17Z" fill="white"/>
<path fill-rule="evenodd" clip-rule="evenodd" d="M157.425 690.769C157.425 691.397 156.916 691.906 156.288 691.906C155.661 691.906 155.152 691.397 155.152 690.769C155.152 690.142 155.661 689.633 156.288 689.633C156.916 689.633 157.425 690.142 157.425 690.769Z" fill="#7BEEE4"/>
<path fill-rule="evenodd" clip-rule="evenodd" d="M137.023 675.653C137.023 676.281 136.514 676.79 135.886 676.79C135.259 676.79 134.75 676.281 134.75 675.653C134.75 675.025 135.259 674.517 135.886 674.517C136.514 674.517 137.023 675.025 137.023 675.653Z" fill="#7BEEE4"/>
<path d="M135.886 718.989C136.678 718.989 137.319 718.347 137.319 717.556C137.319 716.764 136.678 716.122 135.886 716.122C135.095 716.122 134.453 716.764 134.453 717.556C134.453 718.347 135.095 718.989 135.886 718.989Z" fill="#074785"/>
<path fill-rule="evenodd" clip-rule="evenodd" d="M139.916 707.174C139.916 707.52 139.636 707.799 139.291 707.799C138.946 707.799 138.666 707.52 138.666 707.174C138.666 706.829 138.946 706.55 139.291 706.55C139.636 706.55 139.916 706.829 139.916 707.174Z" fill="#074785"/>
<path fill-rule="evenodd" clip-rule="evenodd" d="M162.529 696.257C162.529 696.602 162.249 696.882 161.904 696.882C161.559 696.882 161.279 696.602 161.279 696.257C161.279 695.912 161.559 695.632 161.904 695.632C162.249 695.632 162.529 695.912 162.529 696.257Z" fill="#074785"/>
<path fill-rule="evenodd" clip-rule="evenodd" d="M146.38 664.327C146.38 665.118 145.739 665.76 144.947 665.76C144.156 665.76 143.514 665.118 143.514 664.327C143.514 663.535 144.156 662.893 144.947 662.893C145.739 662.893 146.38 663.535 146.38 664.327Z" fill="#074785"/>
<path fill-rule="evenodd" clip-rule="evenodd" d="M109.339 684.26C110.523 687.969 112.274 689.18 114.672 688.792C112.382 689.724 111.576 691.815 112.511 695.579C111.307 691.984 109.677 690.417 107.185 690.962C109.409 689.963 110.26 687.98 109.339 684.26Z" fill="white"/>
<path fill-rule="evenodd" clip-rule="evenodd" d="M142.157 692.783C142.226 695.538 143.199 696.708 144.947 696.923C143.163 697.099 142.176 698.36 142.06 701.102C141.954 698.421 141.138 697.032 139.291 696.906C141.044 696.671 142.04 695.493 142.157 692.783Z" fill="#074785"/>
<path fill-rule="evenodd" clip-rule="evenodd" d="M105.39 707.331C102.647 704.666 95.9966 700.086 92.7261 704.952C91.8412 708.494 93.0794 714.532 96.5226 718.793C98.523 721.268 101.785 724.364 104.732 725.762C107.465 726.948 111.556 725.742 111.929 722.456C112.604 716.516 109.493 711.315 105.39 707.331Z" fill="#7BEFE5"/>
<path fill-rule="evenodd" clip-rule="evenodd" d="M106.055 734.709C103.665 732.365 101.636 729.961 100.476 726.928C99.9486 725.547 99.6825 724.124 99.7848 722.643C99.8039 722.362 99.8965 722.087 99.9813 721.684C100.383 721.977 100.694 722.2 101 722.428C102.707 723.694 104.411 724.963 106.118 726.226C107.157 726.995 107.114 726.968 106.532 728.087C105.711 729.668 105.354 731.347 105.789 733.123C105.881 733.498 106.044 733.856 106.15 734.229C106.178 734.327 106.11 734.451 106.055 734.709Z" fill="#074785"/>
<path fill-rule="evenodd" clip-rule="evenodd" d="M119.117 726.019C118.314 725.339 117.651 724.772 116.981 724.212C115.763 723.191 114.368 722.676 112.769 722.823C112.311 722.865 112.172 722.681 112.055 722.259C111.484 720.215 110.871 718.183 110.264 716.149C110.143 715.746 110.326 715.606 110.664 715.705C111.303 715.891 111.964 716.064 112.548 716.37C114.167 717.218 115.675 718.257 116.705 719.794C117.367 720.781 117.869 721.884 118.361 722.972C118.667 723.646 118.833 724.386 119.033 725.103C119.102 725.352 119.083 725.624 119.117 726.019Z" fill="#074785"/>
<path fill-rule="evenodd" clip-rule="evenodd" d="M95.0289 701.593C95.7189 701.895 97.0224 702.47 98.3293 703.038C98.7603 703.225 98.7268 703.519 98.5498 703.86C97.6799 705.545 96.2935 706.614 94.5163 707.194C94.064 707.342 93.5853 707.421 93.1125 707.49C92.7856 707.538 92.5536 707.431 92.5534 707.013C92.5534 705.39 92.478 703.765 92.5375 702.145C92.5672 701.321 92.88 700.728 95.0289 701.593Z" fill="#074785"/>
<path fill-rule="evenodd" clip-rule="evenodd" d="M113.145 730.62C113.033 730.51 112.905 730.413 112.81 730.291C111.541 728.662 110.261 727.042 109.015 725.397C107.955 723.997 107.197 722.445 106.731 720.759C106.781 720.709 106.83 720.657 106.879 720.606C107.054 720.732 107.272 720.825 107.398 720.988C108.247 722.093 109.078 723.211 109.912 724.327C111.058 725.86 112.083 727.468 112.858 729.225C113.042 729.645 113.2 730.077 113.371 730.502C113.296 730.541 113.22 730.581 113.145 730.62Z" fill="#074785"/>
<path fill-rule="evenodd" clip-rule="evenodd" d="M108.753 713.503C110.96 714.621 99.5888 722.438 99.3346 720.293C99.2969 719.975 99.784 719.966 99.9907 719.895C102.289 719.099 104.378 717.938 106.154 716.273C106.893 715.579 107.516 714.763 108.201 714.011C108.369 713.826 108.53 713.391 108.753 713.503Z" fill="#074785"/>
<path fill-rule="evenodd" clip-rule="evenodd" d="M100.795 709.409C102.393 709.937 103.26 711.66 102.734 713.257C102.206 714.855 100.483 715.724 98.8858 715.196C97.2876 714.669 96.4195 712.946 96.9467 711.348C97.4742 709.75 99.1972 708.882 100.795 709.409Z" fill="white"/>
</g>
<path fill-rule="evenodd" clip-rule="evenodd" d="M1684.87 1230.45C1683.62 1227.71 1682.52 1225.32 1678.56 1225.22C1675.89 1225.15 1674.71 1222.88 1673.96 1219.46C1673.96 1219.46 1673.36 1218.7 1669.72 1220.08C1666.07 1221.45 1666.22 1222.57 1666.22 1222.57C1668.05 1225.56 1668.77 1228.01 1666.89 1229.91C1664.1 1232.72 1664.96 1235.21 1665.95 1238.05L1683.1 1287.83L1706.92 1278.26L1684.87 1230.45Z" fill="#FFA4AC"/>
<path fill-rule="evenodd" clip-rule="evenodd" d="M1666.22 1222.57C1667.5 1224.66 1668.23 1226.5 1667.91 1228.06C1671.09 1227.99 1673.41 1226.68 1676.71 1224.7C1675.29 1223.84 1674.51 1221.96 1673.96 1219.46C1673.96 1219.46 1673.36 1218.7 1669.72 1220.08C1666.07 1221.45 1666.22 1222.57 1666.22 1222.57Z" fill="#074784"/>
<path fill-rule="evenodd" clip-rule="evenodd" d="M1688.73 1246.96C1691.82 1248.21 1692.76 1250.31 1691.55 1253.31C1689.78 1257.69 1682.55 1260.79 1678.11 1259.01C1675.01 1257.76 1674.14 1255.38 1675.17 1252.54C1676.75 1248.18 1684.2 1245.23 1688.73 1246.96Z" fill="#074784"/>
<path fill-rule="evenodd" clip-rule="evenodd" d="M1682.54 1288.28C1682.46 1287.4 1683.01 1286.43 1683.78 1286.13L1705.53 1277.57C1706.29 1277.27 1707.35 1277.6 1707.89 1278.32L1709.21 1280.08C1709.75 1280.8 1709.56 1281.62 1708.8 1281.92L1684.28 1291.56C1683.51 1291.86 1682.82 1291.38 1682.74 1290.5L1682.54 1288.28Z" fill="#FC6084"/>
<path d="M1668.24 1222.64C1668.24 1222.64 1668.31 1222.68 1668.4 1222.76C1668.45 1222.81 1668.51 1222.86 1668.57 1222.92C1668.63 1222.97 1668.7 1223.04 1668.76 1223.13C1668.89 1223.3 1669.04 1223.5 1669.16 1223.73C1669.29 1223.96 1669.4 1224.21 1669.5 1224.47C1669.68 1224.99 1669.8 1225.52 1669.85 1225.93C1669.87 1226.13 1669.88 1226.3 1669.88 1226.43C1669.89 1226.55 1669.88 1226.63 1669.88 1226.63C1669.88 1226.63 1669.83 1226.58 1669.75 1226.48C1669.66 1226.39 1669.55 1226.25 1669.44 1226.07C1668.83 1225.1 1668.48 1223.96 1668.27 1222.84C1668.25 1222.72 1668.24 1222.64 1668.24 1222.64Z" fill="#9F88E3"/>
<path d="M1670.31 1221.71C1670.31 1221.71 1670.36 1221.78 1670.43 1221.9C1670.46 1221.96 1670.52 1222.02 1670.57 1222.09C1671.25 1223.12 1671.88 1224.09 1672.25 1225.28C1672.28 1225.39 1672.31 1225.49 1672.35 1225.57C1672.38 1225.66 1672.4 1225.74 1672.42 1225.81C1672.46 1225.94 1672.48 1226.02 1672.48 1226.02C1672.48 1226.02 1672.41 1225.98 1672.3 1225.89C1672.25 1225.85 1672.18 1225.8 1672.11 1225.73C1672.03 1225.66 1671.95 1225.59 1671.88 1225.5C1671.45 1224.97 1671.1 1224.38 1670.83 1223.76C1670.59 1223.22 1670.25 1222.53 1670.29 1221.93C1670.3 1221.79 1670.31 1221.71 1670.31 1221.71Z" fill="#9F88E3"/>
<path d="M1672.23 1220.84C1672.23 1220.84 1672.3 1220.88 1672.39 1220.96C1672.49 1221.05 1672.61 1221.17 1672.76 1221.32C1673.04 1221.63 1673.37 1222.08 1673.64 1222.55C1673.92 1223.01 1674.16 1223.5 1674.29 1223.89C1674.36 1224.09 1674.41 1224.26 1674.44 1224.38C1674.46 1224.51 1674.47 1224.58 1674.47 1224.58C1674.47 1224.58 1674.41 1224.54 1674.31 1224.46C1674.21 1224.39 1674.08 1224.27 1673.93 1224.12C1673.63 1223.82 1673.28 1223.39 1672.99 1222.92C1672.72 1222.44 1672.5 1221.94 1672.38 1221.54C1672.32 1221.34 1672.28 1221.16 1672.26 1221.04C1672.24 1220.91 1672.23 1220.84 1672.23 1220.84Z" fill="#9F88E3"/>
<path fill-rule="evenodd" clip-rule="evenodd" d="M1764.88 1255.88C1764.9 1252.98 1764.11 1253.47 1763.46 1254.38C1763.41 1254.06 1763.37 1253.75 1763.31 1253.43C1763.03 1251.74 1762.62 1250.08 1762.08 1248.49C1754.27 1225.09 1730.67 1222.05 1711.46 1222.05C1703.5 1222.05 1691.74 1225.43 1685.87 1232.6C1685.82 1231.02 1685.56 1229.28 1684.42 1231.41C1682.63 1234.79 1682.24 1241.43 1682.24 1241.43C1682.07 1243.99 1682.55 1246.79 1683.8 1249.89C1685.97 1255.29 1689.68 1258.11 1694.64 1259.59C1698.14 1260.64 1702.94 1259.99 1705.65 1263.21C1709.66 1267.96 1704.46 1272.3 1706.19 1277.48C1709.88 1288.5 1729.53 1288.27 1737.57 1287.05C1749.21 1285.29 1759.78 1277.88 1762.88 1266.17L1762.88 1266.17C1762.88 1266.17 1764.86 1260.84 1764.88 1255.88ZM1736.83 1270.5C1736.34 1273.98 1732.03 1276.1 1727.21 1275.23C1722.4 1274.37 1718.89 1270.85 1719.38 1267.37C1719.87 1263.89 1724.18 1261.78 1728.99 1262.64C1733.81 1263.51 1737.32 1267.03 1736.83 1270.5Z" fill="#F18545"/>
<path d="M1764.52 1247.73C1764.24 1246.04 1763.83 1244.39 1763.29 1242.79C1755.48 1219.39 1731.88 1216.35 1712.67 1216.35C1699.89 1216.35 1677.32 1225.07 1685.01 1244.19C1687.18 1249.59 1690.89 1252.41 1695.85 1253.9C1699.35 1254.95 1704.15 1254.3 1706.86 1257.51C1710.87 1262.26 1705.67 1266.6 1707.4 1271.78C1711.09 1282.8 1730.74 1282.58 1738.78 1281.36C1754.21 1279.01 1767.74 1266.77 1764.52 1247.73ZM1738.04 1264.8C1737.54 1268.28 1733.24 1270.4 1728.42 1269.53C1723.61 1268.67 1720.1 1265.15 1720.59 1261.67C1721.08 1258.2 1725.39 1256.08 1730.2 1256.94C1735.02 1257.81 1738.53 1261.33 1738.04 1264.8Z" fill="#F9D555"/>
<path fill-rule="evenodd" clip-rule="evenodd" d="M1704.03 1229.55C1705.54 1232.04 1703 1236.35 1698.36 1239.16C1693.72 1241.97 1688.73 1242.23 1687.22 1239.73C1685.71 1237.24 1688.25 1232.94 1692.89 1230.12C1697.53 1227.31 1702.52 1227.06 1704.03 1229.55Z" fill="#7BEFE5"/>
<path fill-rule="evenodd" clip-rule="evenodd" d="M1727.5 1226.17C1727.77 1229.27 1723.3 1232.19 1717.53 1232.68C1711.75 1233.17 1706.86 1231.06 1706.59 1227.95C1706.33 1224.85 1710.79 1221.94 1716.57 1221.44C1722.34 1220.95 1727.24 1223.06 1727.5 1226.17Z" fill="#FC6084"/>
<path fill-rule="evenodd" clip-rule="evenodd" d="M1750.54 1232.83C1749.65 1235.8 1744.44 1236.87 1738.91 1235.21C1733.38 1233.55 1729.62 1229.8 1730.51 1226.83C1731.4 1223.86 1736.6 1222.79 1742.13 1224.45C1747.66 1226.1 1751.42 1229.86 1750.54 1232.83Z" fill="#A089E4"/>
<path fill-rule="evenodd" clip-rule="evenodd" d="M1756.48 1257.01C1753.48 1257.9 1749.69 1254.09 1748.02 1248.5C1746.35 1242.9 1747.44 1237.63 1750.44 1236.74C1753.45 1235.84 1757.24 1239.65 1758.91 1245.25C1760.58 1250.85 1759.49 1256.11 1756.48 1257.01Z" fill="#074785"/>
<path fill-rule="evenodd" clip-rule="evenodd" d="M1741.4 1275.78C1738.9 1273.9 1740.03 1269.01 1743.93 1264.85C1747.82 1260.69 1753 1258.83 1755.5 1260.7C1758 1262.58 1756.87 1267.47 1752.98 1271.63C1749.08 1275.79 1743.9 1277.65 1741.4 1275.78Z" fill="#F18545"/>
<path fill-rule="evenodd" clip-rule="evenodd" d="M1704.77 1254.11C1704.36 1254.31 1704 1254.55 1703.61 1254.78C1699.52 1257.17 1695.49 1259.71 1691.75 1262.62C1686.38 1266.81 1681.47 1271.47 1677.23 1276.8C1676.96 1277.13 1676.75 1277.59 1676.72 1278C1676.63 1279.06 1677.74 1279.78 1678.78 1279.32C1680.71 1278.47 1682.64 1277.59 1684.53 1276.63C1688.03 1274.86 1691.41 1272.86 1694.56 1270.53C1697.59 1268.3 1700.53 1265.93 1703.43 1263.54C1705.07 1262.19 1706.57 1260.66 1708.12 1259.2C1708.23 1259.1 1708.31 1258.97 1708.4 1258.86C1707.19 1257.27 1705.98 1255.69 1704.77 1254.11Z" fill="#074785"/>
<path fill-rule="evenodd" clip-rule="evenodd" d="M1730.22 1235C1730.14 1234.79 1730.07 1234.41 1729.85 1234.3C1729.59 1234.16 1729.24 1234.49 1729.09 1234.69C1727.24 1237.02 1725.6 1239.67 1723.13 1241.37C1720.15 1243.41 1716.56 1244.19 1713.35 1245.77C1711.45 1246.7 1709.77 1247.97 1709.21 1250.22C1708.06 1254.86 1712.53 1258.5 1716.76 1257.87C1724.18 1256.77 1728.89 1250.75 1730.03 1243.45C1730.44 1240.83 1731.1 1237.6 1730.22 1235Z" fill="#074785"/>
<path d="M1692.36 1225.74C1692.36 1225.74 1692.47 1225.67 1692.67 1225.55C1692.88 1225.44 1693.18 1225.26 1693.57 1225.05C1697.57 1222.87 1701.57 1220.92 1706 1219.76C1710.43 1218.61 1715.04 1218.15 1719.61 1218.43C1719.88 1218.44 1720.15 1218.44 1720.43 1218.45C1721.04 1218.48 1721.58 1218.52 1722.02 1218.56C1722.46 1218.6 1722.81 1218.64 1723.04 1218.66C1723.28 1218.69 1723.4 1218.7 1723.4 1218.7C1723.4 1218.7 1723.28 1218.72 1723.04 1218.75C1722.81 1218.78 1722.46 1218.83 1722.02 1218.87C1717.4 1219.33 1712.77 1219.81 1708.22 1220.81C1705.83 1221.33 1703.47 1221.97 1701.13 1222.72C1698.84 1223.46 1696.61 1224.36 1694.33 1225.12C1694.11 1225.19 1693.9 1225.26 1693.69 1225.33C1693.27 1225.47 1692.93 1225.56 1692.71 1225.63C1692.48 1225.7 1692.36 1225.74 1692.36 1225.74Z" fill="white"/>
<path d="M1711.88 1273.95C1711.88 1273.95 1711.98 1273.99 1712.17 1274.06C1712.36 1274.14 1712.65 1274.25 1713 1274.4C1717.87 1276.52 1723.53 1277.38 1728.8 1277.62C1731.71 1277.75 1734.83 1277.8 1737.71 1277.28C1738.08 1277.22 1738.39 1277.19 1738.59 1277.16C1738.79 1277.13 1738.9 1277.12 1738.9 1277.12C1738.9 1277.12 1738.8 1277.16 1738.61 1277.24C1737.1 1277.89 1735.49 1278.33 1733.87 1278.62C1732.23 1278.91 1730.56 1279.1 1728.89 1279.12C1727.23 1279.14 1725.57 1279.01 1723.93 1278.76C1722.29 1278.5 1720.68 1278.12 1719.1 1277.62C1718.53 1277.44 1717.95 1277.24 1717.39 1277.02C1716.22 1276.57 1715.1 1276.05 1714.02 1275.42C1713.55 1275.15 1713.15 1274.9 1712.85 1274.67C1712.53 1274.45 1712.3 1274.26 1712.13 1274.14C1711.97 1274.02 1711.88 1273.95 1711.88 1273.95Z" fill="white"/>
<path d="M1696.37 1238C1696.81 1237.65 1697.25 1237.31 1697.69 1236.96C1697.88 1236.82 1698.09 1236.65 1698.31 1236.48C1700.05 1235.11 1701.78 1233.36 1702.35 1231.16C1702.38 1231.07 1702.4 1230.98 1702.43 1230.89C1702.44 1230.81 1702.45 1230.73 1702.47 1230.66C1702.52 1230.37 1702.56 1230.2 1702.56 1230.2C1702.56 1230.2 1702.61 1230.36 1702.68 1230.65C1702.7 1230.73 1702.71 1230.81 1702.73 1230.9C1702.75 1230.99 1702.75 1231.09 1702.76 1231.2C1702.77 1231.3 1702.77 1231.42 1702.78 1231.54C1702.89 1233.18 1701.74 1234.89 1700.56 1235.93C1699.37 1236.97 1697.89 1237.63 1696.37 1238Z" fill="white"/>
<path d="M1694.89 1231.51C1694.89 1231.51 1694.76 1231.63 1694.53 1231.8C1694.41 1231.89 1694.27 1232 1694.11 1232.13C1693.94 1232.25 1693.77 1232.39 1693.57 1232.54C1692.47 1233.4 1691.36 1234.29 1690.47 1235.38C1689.48 1236.57 1689.05 1237.82 1688.7 1239.3C1688.7 1239.3 1688.65 1239.14 1688.58 1238.85C1688.56 1238.77 1688.54 1238.69 1688.52 1238.6C1688.19 1237.16 1688.98 1235.49 1689.89 1234.42C1690.83 1233.3 1692.21 1232.35 1693.61 1231.87C1693.72 1231.83 1693.82 1231.8 1693.92 1231.77C1694.12 1231.7 1694.29 1231.65 1694.44 1231.62C1694.72 1231.54 1694.89 1231.51 1694.89 1231.51Z" fill="white"/>
<path d="M1716.9 1223.63C1716.9 1223.63 1716.74 1223.67 1716.44 1223.73C1716.3 1223.76 1716.12 1223.79 1715.92 1223.83C1714.49 1224.11 1713.04 1224.39 1711.67 1224.92C1710.47 1225.39 1709.35 1226.08 1708.49 1227.06C1708.43 1227.14 1708.37 1227.21 1708.31 1227.27C1708.26 1227.34 1708.21 1227.41 1708.17 1227.47C1707.99 1227.7 1707.88 1227.84 1707.88 1227.84C1707.88 1227.84 1707.91 1227.67 1707.98 1227.37C1708.33 1225.89 1709.57 1224.72 1710.91 1224.09C1712.3 1223.44 1714.07 1223.16 1715.59 1223.38C1715.71 1223.39 1715.82 1223.41 1715.92 1223.42C1716.13 1223.45 1716.3 1223.48 1716.45 1223.52C1716.74 1223.58 1716.9 1223.63 1716.9 1223.63Z" fill="#FFA4AC"/>
<path d="M1741.5 1226.54C1741.5 1226.54 1741.33 1226.53 1741.03 1226.5C1739.39 1226.32 1737.72 1226.11 1736.06 1226.26C1734.36 1226.41 1733.04 1227 1731.64 1227.95C1732.24 1226.67 1733.48 1225.78 1734.83 1225.4C1736.5 1224.94 1738.38 1225.15 1739.97 1225.78C1740.09 1225.83 1740.21 1225.87 1740.32 1225.92C1740.42 1225.96 1740.52 1226.01 1740.62 1226.06C1740.81 1226.14 1740.97 1226.23 1741.1 1226.3C1741.35 1226.44 1741.5 1226.54 1741.5 1226.54Z" fill="#7BEEE4"/>
<path d="M1755.29 1262.07C1755.29 1262.07 1755.13 1262.1 1754.83 1262.14C1754.68 1262.16 1754.51 1262.18 1754.3 1262.2C1752.79 1262.39 1751.27 1262.57 1749.82 1263.04C1748.23 1263.56 1747.14 1264.45 1746 1265.63C1746 1265.63 1746.03 1265.46 1746.13 1265.17C1746.15 1265.1 1746.17 1265.02 1746.2 1264.93C1746.64 1263.56 1748.14 1262.52 1749.43 1262.05C1750.83 1261.55 1752.54 1261.42 1754 1261.73C1754.12 1261.75 1754.23 1261.77 1754.33 1261.8C1754.53 1261.84 1754.71 1261.88 1754.85 1261.93C1755.13 1262.01 1755.29 1262.07 1755.29 1262.07Z" fill="#F8D455"/>
<path d="M1756.83 1245.52C1756.83 1245.52 1756.74 1245.37 1756.61 1245.11C1756.54 1244.98 1756.46 1244.82 1756.36 1244.64C1755.69 1243.37 1755.01 1242.08 1754.13 1240.94C1753.23 1239.77 1752.17 1239 1750.87 1238.34C1750.78 1238.31 1750.71 1238.28 1750.64 1238.26C1750.37 1238.16 1750.21 1238.09 1750.21 1238.09C1750.21 1238.09 1750.37 1238.07 1750.68 1238.05C1750.75 1238.05 1750.83 1238.04 1750.93 1238.04C1751.02 1238.04 1751.12 1238.05 1751.22 1238.06C1753.85 1238.31 1755.67 1240.68 1756.4 1243.03C1756.49 1243.31 1756.57 1243.58 1756.62 1243.83C1756.65 1243.96 1756.68 1244.07 1756.7 1244.19C1756.72 1244.3 1756.73 1244.41 1756.75 1244.52C1756.78 1244.72 1756.8 1244.9 1756.81 1245.05C1756.83 1245.35 1756.83 1245.52 1756.83 1245.52Z" fill="#9F88E3"/>
<path d="M1738.87 1232.82C1738.87 1232.82 1739.05 1232.84 1739.37 1232.88C1739.53 1232.9 1739.72 1232.92 1739.94 1232.94C1741.39 1233.1 1742.86 1233.25 1744.33 1233.2C1745.68 1233.16 1747.35 1233.06 1748.42 1232.16C1748.56 1232.03 1748.68 1231.91 1748.77 1231.79C1748.86 1231.68 1748.92 1231.59 1748.96 1231.52C1749.01 1231.45 1749.03 1231.42 1749.03 1231.42C1749.03 1231.42 1749.03 1231.46 1749.04 1231.54C1749.03 1231.61 1749.05 1231.74 1749.02 1231.88C1749 1232.03 1748.95 1232.21 1748.85 1232.41C1748.76 1232.61 1748.62 1232.83 1748.42 1233.04C1748.23 1233.25 1747.97 1233.44 1747.69 1233.62C1747.4 1233.78 1747.07 1233.93 1746.72 1234.04C1746.38 1234.14 1746.01 1234.23 1745.63 1234.28C1745.26 1234.34 1744.88 1234.36 1744.5 1234.37C1742.98 1234.4 1741.51 1234.07 1740.48 1233.68C1739.96 1233.48 1739.55 1233.27 1739.28 1233.1C1739.14 1233.02 1739.04 1232.95 1738.97 1232.9C1738.91 1232.84 1738.87 1232.82 1738.87 1232.82Z" fill="#7BEEE4"/>
<path d="M1717.58 1230.34C1717.58 1230.34 1717.73 1230.3 1717.99 1230.23C1718.12 1230.19 1718.27 1230.15 1718.45 1230.1C1719.83 1229.7 1721.21 1229.22 1722.5 1228.58C1723.1 1228.29 1723.68 1227.96 1724.14 1227.49C1724.61 1227.02 1724.95 1226.41 1724.98 1225.75C1725.24 1226.25 1725.25 1226.83 1725.09 1227.37C1725.02 1227.62 1724.88 1227.86 1724.73 1228.11C1723.61 1229.86 1721.1 1230.57 1719.14 1230.56C1718.66 1230.56 1718.27 1230.51 1718 1230.45C1717.86 1230.43 1717.76 1230.4 1717.68 1230.38C1717.61 1230.36 1717.58 1230.34 1717.58 1230.34Z" fill="#FFA4AC"/>
<path d="M1750.34 1247.53C1750.34 1247.53 1750.47 1247.64 1750.65 1247.87C1750.84 1248.1 1751.09 1248.43 1751.36 1248.84C1752.25 1250.16 1752.94 1251.61 1753.93 1252.85C1754.41 1253.45 1754.99 1253.99 1755.78 1254.09C1755.86 1254.09 1755.95 1254.1 1756.03 1254.11C1756.11 1254.1 1756.18 1254.1 1756.25 1254.1C1756.39 1254.1 1756.5 1254.07 1756.57 1254.07C1756.65 1254.06 1756.7 1254.06 1756.7 1254.06C1756.7 1254.06 1756.67 1254.09 1756.61 1254.15C1756.55 1254.21 1756.47 1254.31 1756.34 1254.4C1756.28 1254.45 1756.2 1254.5 1756.13 1254.56C1756.04 1254.61 1755.95 1254.65 1755.85 1254.7C1755.74 1254.75 1755.63 1254.78 1755.5 1254.82C1755.38 1254.85 1755.24 1254.87 1755.1 1254.89C1754.82 1254.9 1754.5 1254.87 1754.2 1254.76C1753.9 1254.65 1753.59 1254.5 1753.32 1254.3C1752.76 1253.9 1752.31 1253.35 1751.93 1252.76C1751.19 1251.59 1750.78 1250.27 1750.57 1249.26C1750.47 1248.75 1750.41 1248.32 1750.38 1248.02C1750.35 1247.71 1750.34 1247.53 1750.34 1247.53Z" fill="#9F88E3"/>
<path d="M1742.82 1274.01C1742.82 1274.01 1743.05 1273.98 1743.46 1273.96C1743.56 1273.96 1743.67 1273.95 1743.8 1273.95C1745.58 1273.87 1747.35 1273.2 1748.86 1272.25C1750.33 1271.32 1751.6 1270.1 1752.79 1268.84C1753.24 1268.37 1753.61 1267.98 1753.87 1267.7C1754.14 1267.43 1754.3 1267.28 1754.3 1267.28C1754.3 1267.28 1754.23 1267.47 1754.08 1267.82C1754 1267.99 1753.91 1268.19 1753.78 1268.42C1753.67 1268.65 1753.53 1268.91 1753.36 1269.19C1753.27 1269.32 1753.18 1269.47 1753.09 1269.62C1752.99 1269.76 1752.89 1269.91 1752.78 1270.06C1752.57 1270.37 1752.31 1270.68 1752.05 1271C1751.06 1272.21 1749.66 1273.21 1748.21 1273.78C1746.71 1274.38 1745.02 1274.55 1743.44 1274.17C1743.04 1274.07 1742.82 1274.01 1742.82 1274.01Z" fill="#F8D455"/>
<path d="M1682.58 1273.08C1682.58 1273.08 1682.79 1272.77 1683.18 1272.26C1683.37 1272 1683.61 1271.69 1683.89 1271.34C1684.02 1271.16 1684.17 1270.98 1684.33 1270.78C1684.49 1270.59 1684.68 1270.4 1684.86 1270.19C1685.24 1269.78 1685.65 1269.34 1686.1 1268.89C1686.32 1268.65 1686.55 1268.43 1686.8 1268.2C1687.04 1267.97 1687.3 1267.75 1687.55 1267.52C1688.07 1267.06 1688.59 1266.56 1689.17 1266.12C1689.73 1265.66 1690.31 1265.21 1690.89 1264.75C1691.48 1264.32 1692.08 1263.88 1692.67 1263.47C1693.25 1263.04 1693.86 1262.66 1694.43 1262.27C1695 1261.89 1695.56 1261.53 1696.09 1261.19C1696.62 1260.85 1697.13 1260.55 1697.6 1260.26C1698.54 1259.69 1699.34 1259.23 1699.9 1258.91C1700.46 1258.6 1700.79 1258.43 1700.79 1258.43C1700.79 1258.43 1700.52 1258.68 1700.03 1259.1C1699.55 1259.53 1698.85 1260.13 1697.99 1260.81C1697.56 1261.16 1697.09 1261.53 1696.59 1261.91C1696.09 1262.3 1695.58 1262.71 1695.02 1263.11C1694.48 1263.53 1693.91 1263.95 1693.34 1264.39C1692.77 1264.82 1692.18 1265.25 1691.6 1265.69C1691.02 1266.13 1690.44 1266.57 1689.87 1267.01C1689.3 1267.43 1688.75 1267.87 1688.22 1268.3C1687.95 1268.51 1687.69 1268.73 1687.43 1268.93C1687.17 1269.12 1686.92 1269.32 1686.69 1269.53C1686.22 1269.94 1685.77 1270.31 1685.34 1270.66C1685.13 1270.83 1684.93 1271 1684.74 1271.16C1684.56 1271.33 1684.38 1271.49 1684.21 1271.64C1683.89 1271.95 1683.59 1272.2 1683.35 1272.42C1682.87 1272.84 1682.58 1273.08 1682.58 1273.08Z" fill="#9F88E3"/>
<path d="M1722.37 1258.58C1722.37 1258.58 1722.61 1258.42 1723.02 1258.16C1723.13 1258.09 1723.24 1258.02 1723.37 1257.94C1723.49 1257.87 1723.64 1257.81 1723.8 1257.73C1726.1 1256.58 1728.74 1256.23 1731.24 1256.92C1733.63 1257.58 1735.6 1259.11 1737.02 1261.12C1737.12 1261.27 1737.22 1261.41 1737.3 1261.54C1737.51 1261.91 1737.68 1262.29 1737.86 1262.68C1736.21 1260.63 1733.94 1259.1 1731.42 1258.32C1728.67 1257.47 1725.85 1257.65 1723.11 1258.4C1722.64 1258.52 1722.37 1258.58 1722.37 1258.58Z" fill="#074785"/>
<path fill-rule="evenodd" clip-rule="evenodd" d="M1681.32 1263.46C1681.32 1264.29 1680.65 1264.96 1679.82 1264.96C1678.99 1264.96 1678.32 1264.29 1678.32 1263.46C1678.32 1262.63 1678.99 1261.95 1679.82 1261.95C1680.65 1261.95 1681.32 1262.63 1681.32 1263.46Z" fill="white"/>
<path fill-rule="evenodd" clip-rule="evenodd" d="M1686.82 1278.65C1686.82 1279.12 1686.43 1279.5 1685.96 1279.5C1685.49 1279.5 1685.11 1279.12 1685.11 1278.65C1685.11 1278.18 1685.49 1277.79 1685.96 1277.79C1686.43 1277.79 1686.82 1278.18 1686.82 1278.65Z" fill="white"/>
<path fill-rule="evenodd" clip-rule="evenodd" d="M1688.52 1261.95C1688.52 1262.43 1688.14 1262.81 1687.67 1262.81C1687.2 1262.81 1686.82 1262.43 1686.82 1261.95C1686.82 1261.48 1687.2 1261.1 1687.67 1261.1C1688.14 1261.1 1688.52 1261.48 1688.52 1261.95Z" fill="white"/>
<path d="M1696.36 1231.36C1696.71 1231.36 1697 1231.08 1697 1230.72C1697 1230.37 1696.71 1230.09 1696.36 1230.09C1696.01 1230.09 1695.73 1230.37 1695.73 1230.72C1695.73 1231.08 1696.01 1231.36 1696.36 1231.36Z" fill="white"/>
<path fill-rule="evenodd" clip-rule="evenodd" d="M1719.2 1223.67C1719.2 1224.02 1718.92 1224.3 1718.57 1224.3C1718.22 1224.3 1717.93 1224.02 1717.93 1223.67C1717.93 1223.32 1718.22 1223.03 1718.57 1223.03C1718.92 1223.03 1719.2 1223.32 1719.2 1223.67Z" fill="#FFA4AC"/>
<path fill-rule="evenodd" clip-rule="evenodd" d="M1743.62 1226.84C1743.62 1227.19 1743.34 1227.48 1742.98 1227.48C1742.63 1227.48 1742.35 1227.19 1742.35 1226.84C1742.35 1226.49 1742.63 1226.21 1742.98 1226.21C1743.34 1226.21 1743.62 1226.49 1743.62 1226.84Z" fill="#7BEEE4"/>
<path fill-rule="evenodd" clip-rule="evenodd" d="M1757.69 1247.13C1757.69 1247.48 1757.41 1247.76 1757.06 1247.76C1756.7 1247.76 1756.42 1247.48 1756.42 1247.13C1756.42 1246.78 1756.7 1246.49 1757.06 1246.49C1757.41 1246.49 1757.69 1246.78 1757.69 1247.13Z" fill="#9F88E3"/>
<path fill-rule="evenodd" clip-rule="evenodd" d="M1745.86 1267.01C1745.86 1267.36 1745.58 1267.65 1745.22 1267.65C1744.87 1267.65 1744.59 1267.36 1744.59 1267.01C1744.59 1266.66 1744.87 1266.38 1745.22 1266.38C1745.58 1266.38 1745.86 1266.66 1745.86 1267.01Z" fill="#F8D455"/>
<path fill-rule="evenodd" clip-rule="evenodd" d="M1673.94 1249.14C1673.94 1249.61 1673.56 1249.99 1673.09 1249.99C1672.62 1249.99 1672.23 1249.61 1672.23 1249.14C1672.23 1248.67 1672.62 1248.28 1673.09 1248.28C1673.56 1248.28 1673.94 1248.67 1673.94 1249.14Z" fill="#074785"/>
<path fill-rule="evenodd" clip-rule="evenodd" d="M1679.67 1245.19C1679.67 1245.61 1679.33 1245.94 1678.92 1245.94C1678.51 1245.94 1678.17 1245.61 1678.17 1245.19C1678.17 1244.78 1678.51 1244.45 1678.92 1244.45C1679.33 1244.45 1679.67 1244.78 1679.67 1245.19Z" fill="#FC6084"/>
<path fill-rule="evenodd" clip-rule="evenodd" d="M1677.32 1230.2C1677.32 1230.61 1676.99 1230.95 1676.58 1230.95C1676.16 1230.95 1675.83 1230.61 1675.83 1230.2C1675.83 1229.79 1676.16 1229.45 1676.58 1229.45C1676.99 1229.45 1677.32 1229.79 1677.32 1230.2Z" fill="#FC6084"/>
<path fill-rule="evenodd" clip-rule="evenodd" d="M1682.52 1231.51C1682.52 1232.17 1681.98 1232.71 1681.32 1232.71C1680.66 1232.71 1680.13 1232.17 1680.13 1231.51C1680.13 1230.85 1680.66 1230.32 1681.32 1230.32C1681.98 1230.32 1682.52 1230.85 1682.52 1231.51Z" fill="#074785"/>
<path fill-rule="evenodd" clip-rule="evenodd" d="M1692.96 1278.65C1692.96 1279.31 1692.42 1279.84 1691.76 1279.84C1691.1 1279.84 1690.57 1279.31 1690.57 1278.65C1690.57 1277.99 1691.1 1277.45 1691.76 1277.45C1692.42 1277.45 1692.96 1277.99 1692.96 1278.65Z" fill="#074785"/>
<path fill-rule="evenodd" clip-rule="evenodd" d="M1673.91 1232.42C1675.29 1235.47 1676.91 1236.33 1678.92 1235.76C1677.06 1236.79 1676.58 1238.65 1677.75 1241.78C1676.36 1238.83 1674.81 1237.65 1672.74 1238.36C1674.54 1237.29 1675.07 1235.51 1673.91 1232.42Z" fill="white"/>
<path fill-rule="evenodd" clip-rule="evenodd" d="M1699.63 1268.32C1699.32 1271.71 1700.43 1273.31 1702.72 1273.85C1700.33 1273.78 1698.83 1275.17 1698.28 1278.52C1698.53 1275.21 1697.66 1273.37 1695.23 1272.92C1697.58 1272.91 1699.08 1271.63 1699.63 1268.32Z" fill="#074785"/>
<path d="M1669.08 1229.66L1669.11 1229.87C1669.12 1229.94 1669.11 1230.02 1669.11 1230.09C1669.11 1230.24 1669.09 1230.39 1669.06 1230.54C1668.99 1230.83 1668.89 1231.11 1668.77 1231.38C1668.49 1232.04 1668.19 1232.63 1668.06 1233.34C1667.93 1234.06 1667.93 1234.8 1668.01 1235.52C1668.15 1236.87 1668.55 1238.24 1668.93 1239.53C1669.05 1239.91 1669.16 1240.3 1669.26 1240.69C1669.38 1241.08 1669.5 1241.47 1669.61 1241.86C1669.73 1242.25 1669.86 1242.63 1669.97 1243.03L1670.35 1244.19C1670.41 1244.39 1670.48 1244.58 1670.55 1244.78C1670.62 1244.98 1670.68 1245.17 1670.74 1245.37C1670.61 1245.21 1670.49 1245.04 1670.37 1244.87C1670.25 1244.7 1670.12 1244.54 1670.01 1244.36C1669.8 1244 1669.57 1243.65 1669.37 1243.29C1668.44 1241.52 1667.72 1239.67 1667.25 1237.74C1666.82 1236.01 1666.69 1234.29 1667.37 1232.61C1667.64 1232.03 1668.01 1231.58 1668.35 1231.13C1668.51 1230.91 1668.67 1230.68 1668.8 1230.44C1668.87 1230.32 1668.92 1230.2 1668.97 1230.07C1668.99 1230 1669.02 1229.94 1669.04 1229.87L1669.08 1229.66Z" fill="#FC6084"/>
<path d="M1677.71 1251.48C1677.71 1251.48 1677.68 1251.53 1677.62 1251.62C1677.56 1251.72 1677.46 1251.86 1677.37 1252.04C1677.01 1252.74 1676.74 1253.43 1676.71 1254.23C1676.69 1254.6 1676.73 1254.98 1676.89 1255.32C1677.23 1256.05 1678.06 1256.39 1678.82 1256.67C1680.69 1257.36 1682.89 1257.32 1684.83 1257.15C1685.12 1257.12 1685.37 1257.11 1685.57 1257.07C1685.98 1257.02 1686.22 1257 1686.22 1257C1686.22 1257 1686.02 1257.11 1685.64 1257.3C1683.29 1258.45 1680.13 1258.61 1677.75 1257.49C1677.05 1257.16 1676.38 1256.68 1676.05 1255.99C1675.52 1254.88 1675.91 1253.37 1676.66 1252.46C1676.76 1252.34 1676.85 1252.23 1676.93 1252.14C1677.03 1252.05 1677.11 1251.96 1677.19 1251.89C1677.23 1251.85 1677.27 1251.82 1677.3 1251.78C1677.34 1251.76 1677.37 1251.73 1677.4 1251.7C1677.47 1251.66 1677.52 1251.61 1677.57 1251.58C1677.66 1251.51 1677.71 1251.48 1677.71 1251.48Z" fill="#9F88E3"/>
<path fill-rule="evenodd" clip-rule="evenodd" d="M1713.92 1253.15C1712.97 1252.57 1712.47 1251.63 1711.98 1250.69C1711.92 1250.57 1711.87 1250.45 1711.82 1250.34C1709.75 1251.42 1707.73 1252.52 1705.67 1253.61C1705.38 1253.76 1705.05 1253.93 1704.77 1254.11C1705.98 1255.69 1707.19 1257.27 1708.4 1258.86C1709.16 1258.11 1709.93 1257.39 1710.66 1256.62C1711.76 1255.48 1712.83 1254.31 1713.92 1253.15Z" fill="#9F88E3"/>
<path fill-rule="evenodd" clip-rule="evenodd" d="M1729.55 1232.55C1729.48 1232.33 1729.4 1231.94 1729.19 1231.82C1728.92 1231.68 1728.58 1232.02 1728.42 1232.23C1726.59 1234.62 1724.95 1237.35 1722.49 1239.09C1719.51 1241.2 1715.92 1241.99 1712.72 1243.6C1710.82 1244.56 1709.14 1245.86 1708.59 1248.19C1707.45 1252.97 1711.94 1256.74 1716.16 1256.1C1723.58 1254.99 1728.27 1248.79 1729.39 1241.26C1729.8 1238.56 1730.44 1235.23 1729.55 1232.55Z" fill="#FFA4AC"/>
<path fill-rule="evenodd" clip-rule="evenodd" d="M1729.55 1232.55C1729.5 1232.38 1729.44 1232.11 1729.31 1231.94C1729.53 1234.29 1729.06 1236.87 1728.73 1239.07C1727.55 1246.98 1722.62 1253.5 1714.81 1254.68C1713.03 1254.94 1711.21 1254.47 1709.74 1253.48C1711.22 1255.38 1713.73 1256.47 1716.16 1256.1C1723.58 1254.99 1728.27 1248.79 1729.39 1241.26C1729.8 1238.56 1730.44 1235.23 1729.55 1232.55Z" fill="#FC6084"/>
<path d="M1710.39 1249.79C1710.39 1249.79 1710.39 1249.73 1710.38 1249.61C1710.38 1249.55 1710.38 1249.47 1710.38 1249.39C1710.38 1249.3 1710.41 1249.2 1710.43 1249.08C1710.6 1248.03 1711.46 1247.13 1712.29 1246.52C1712.65 1246.25 1713.04 1245.98 1713.46 1245.74C1713.88 1245.49 1714.33 1245.26 1714.78 1245.05C1715.23 1244.83 1715.68 1244.63 1716.14 1244.41C1716.6 1244.21 1717.05 1244 1717.51 1243.8C1717.96 1243.6 1718.39 1243.4 1718.82 1243.21C1719.25 1243.02 1719.66 1242.84 1720.06 1242.67C1720.45 1242.49 1720.83 1242.33 1721.18 1242.19C1721.88 1241.9 1722.46 1241.66 1722.88 1241.5C1723.29 1241.35 1723.54 1241.27 1723.54 1241.27C1723.54 1241.27 1723.35 1241.44 1722.99 1241.71C1722.82 1241.84 1722.6 1242.01 1722.35 1242.19C1722.1 1242.37 1721.82 1242.58 1721.5 1242.79C1720.02 1243.75 1718.49 1244.63 1716.89 1245.38C1716.54 1245.54 1716.19 1245.7 1715.83 1245.85C1714.9 1246.25 1713.95 1246.62 1713.06 1247.1C1712.16 1247.58 1711.14 1248.23 1710.65 1249.15C1710.61 1249.24 1710.55 1249.32 1710.52 1249.41C1710.49 1249.49 1710.47 1249.56 1710.45 1249.62C1710.41 1249.73 1710.39 1249.79 1710.39 1249.79Z" fill="white"/>
<defs>
<clipPath id="clip0_1559_5610">
<rect width="98" height="98" fill="white" transform="translate(88 651)"/>
</clipPath>
</defs>
</svg>
