<?xml version="1.0" encoding="utf-8"?>
<!-- Generator: Adobe Illustrator 16.0.0, SVG Export Plug-In . SVG Version: 6.00 Build 0)  -->
<!DOCTYPE svg PUBLIC "-//W3C//DTD SVG 1.1//EN" "http://www.w3.org/Graphics/SVG/1.1/DTD/svg11.dtd">
<svg version="1.1" id="圖層_1" xmlns="http://www.w3.org/2000/svg" xmlns:xlink="http://www.w3.org/1999/xlink" x="0px" y="0px"
	 width="113.779px" height="92.82px" viewBox="0 0 113.779 92.82" enable-background="new 0 0 113.779 92.82" xml:space="preserve">
<path fill="#45B3DF" d="M54.172,83.969c-3.111-0.215-6.26-0.214-9.321-0.728c-1.824-0.306-3.249,0.029-4.829,0.776
	c-6.283,2.969-12.646,5.751-19.361,7.636c-3.116,0.874-6.305,1.116-9.509,1.166c-1.962,0.03-3.788-0.614-5.371-1.767
	c-3.941-2.868-5.993-6.68-5.763-11.65c0.15-3.252,0.957-6.314,2.251-9.279c3.091-7.082,7.403-13.391,12.298-19.314
	c0.908-1.1,2.139-1.947,3.282-2.83c0.393-0.303,0.497-0.602,0.522-1.033c0.444-7.688,3.008-14.713,6.782-21.332
	c2.878-5.047,6.849-9.157,11.705-12.271c4.688-3.004,9.944-4.658,15.521-4.998c4.999-0.306,10.012-0.176,14.863,1.23
	c2.467,0.716,4.842,1.762,7.233,2.721c0.703,0.281,1.135,0.242,1.752-0.277c5.457-4.597,11.531-8.18,18.197-10.717
	c3.67-1.396,7.451-1.859,11.226-0.43c4.836,1.832,7.617,5.271,8.064,10.538c0.415,4.872-1.246,9.177-3.474,13.323
	c-4.009,7.463-9.113,14.113-15.164,20.036c-0.674,0.659-0.923,1.348-0.965,2.292c-0.446,9.928-4.19,18.367-11.421,25.25
	c-4.289,4.083-9.311,6.973-14.699,9.283C63.585,83.484,58.922,83.938,54.172,83.969z M81.949,16.674
	c0.504,0.377,1.192,0.365,1.695-0.014c1.402-1.055,2.89-1.854,4.563-2.292c4.583-1.2,8.21,2.222,7.308,6.88
	c-0.452,2.336-1.507,4.394-2.878,6.309c-2.95,4.122-6.468,7.725-10.267,11.051c-8.146,7.133-16.747,13.707-25.286,20.356
	C49.807,64.631,41.58,68.672,33.38,72.74c-2.837,1.406-5.898,2.24-9.095,2.513c-6.152,0.524-10.247-4.065-8.911-10.081
	c0.569-2.567,1.82-4.833,3.482-6.834c0.646-0.777,0.757-1.426,0.499-2.352c-0.27-0.971-0.463-1.961-0.658-2.956
	c-0.119-0.609-0.909-0.804-1.283-0.308c-0.002,0.003-0.004,0.006-0.007,0.009c-3.722,5.021-7.297,10.138-10.101,15.745
	c-1.396,2.795-2.668,5.635-3.252,8.742c-0.748,3.98-0.205,7.53,3.047,10.332c1.256,1.084,2.657,1.795,4.305,1.663
	c2.439-0.195,4.904-0.378,7.292-0.88c5.74-1.21,10.953-3.922,16.277-6.229c10.082-4.369,19.268-10.371,28.242-16.638
	c10.343-7.22,20.567-14.62,29.369-23.761c3.842-3.99,7.709-7.957,11.024-12.412c0.387-0.52,0.729-1.07,1.03-1.645
	c0.742-1.414,1.451-2.846,2.172-4.271c1.51-2.985,2.826-6.051,3.137-9.417c0.335-3.619-0.527-6.797-3.832-8.874
	c-1.408-0.885-3.035-1.375-4.697-1.446c-2.521-0.107-4.879,0.563-7.154,1.551c-3.868,1.678-7.521,3.752-10.964,6.184
	c-0.923,0.652-1.82,1.34-2.734,2.043c-0.733,0.563-0.728,1.672,0.013,2.227C81.041,15.992,81.492,16.33,81.949,16.674z
	 M29.939,68.775c0.594,0.566,1.475,0.709,2.216,0.357c0.58-0.274,1.177-0.551,1.789-0.789c0.94-0.367,1.371-0.987,1.645-1.967
	c1.874-6.699,5.682-11.939,11.737-15.52c5.145-3.043,10.633-3.307,16.304-2.244c0.747,0.141,1.384,0.033,1.866-0.35
	c1.228-0.971,2.416-1.99,3.596-3.006c0.692-0.596,0.604-1.687-0.17-2.172c-4.507-2.823-7.587-5.98-8.839-10.936
	c-1.087-4.305-1.522-8.684-1.518-13.111c0.002-1.682,0.045-3.365,0.085-5.09c0.022-0.945-0.738-1.725-1.684-1.725h-3.014
	c-0.996,0-1.775,0.859-1.677,1.85c0.155,1.559,0.308,3.074,0.422,4.594c0.378,5.014-0.096,9.976-1.006,14.906
	c-1.2,6.5-4.728,11.555-9.807,15.598c-0.994,0.792-2.172,1.424-3.358,1.892c-4.11,1.62-8.338,2.851-12.744,3.377
	c-0.439,0.053-0.881,0.095-1.344,0.134c-0.86,0.075-1.438,0.924-1.188,1.75C24.658,60.966,26.337,65.34,29.939,68.775z
	 M47.187,13.059c-2.912,0.833-5.741,1.732-8.292,3.354c-0.336,0.213-0.452,0.65-0.262,1l0.002,0.005
	c2.729,5.009,1.932,10.728-2.211,14.637c-2.916,2.753-6.419,4.057-10.369,4.331c-1.077,0.074-1.991,0.824-2.304,1.857
	c-1.069,3.537-1.721,7.188-1.614,11.027c0.03,1.092,0.974,1.925,2.06,1.813c0.45-0.047,0.894-0.1,1.333-0.173
	c3.703-0.616,7.297-1.669,10.818-2.947c1.162-0.422,2.35-0.938,3.327-1.675c3.859-2.906,6.712-6.611,7.922-11.342
	c1.753-6.854,1.864-13.803,1.01-20.939C48.524,13.32,47.851,12.868,47.187,13.059z M74.874,40.289
	c1.289-1.135,2.565-2.258,3.824-3.365c0.558-0.492,0.577-1.349,0.052-1.875c-4.739-4.752-5.174-10.244-3.241-16.285
	c0.271-0.85-0.132-1.768-0.941-2.14c-3.288-1.509-6.572-3.011-10.156-3.743c-0.311-0.064-0.625-0.111-0.948-0.154
	c-0.746-0.098-1.417,0.495-1.391,1.246c0,0.005,0.001,0.009,0.001,0.013c0.128,3.325,0.132,6.662,0.454,9.968
	c0.266,2.719,0.808,5.425,1.428,8.09c0.565,2.435,1.858,4.484,3.813,6.146c1.354,1.151,2.913,1.848,4.573,2.526
	C73.197,41.066,74.18,40.9,74.874,40.289z M71.548,64.527c-7.083,4.676-14.051,9.275-21.13,13.947
	c-0.615,0.406-0.331,1.364,0.406,1.369c2.243,0.012,4.411,0.029,6.577-0.023c3.961-0.097,7.783-0.934,11.239-2.904
	c1.296-0.739,2.676-1.759,3.388-3.009c1.571-2.757,1.589-5.733,1.023-8.748C72.923,64.473,72.131,64.144,71.548,64.527z
	 M89.743,51.74c0.063-0.658-0.691-1.074-1.21-0.662c-2.636,2.095-8.906,7.129-12.387,9.934c-0.427,0.346-0.499,0.646-0.349,1.17
	c0.355,1.232,0.677,2.48,0.907,3.741c0.276,1.521,0.25,3.044,0.071,4.581c-0.078,0.672,0.687,1.109,1.231,0.709
	C83.376,67.275,89.18,57.604,89.743,51.74z M57.668,51.857c-8.11,0.072-14.978,6.11-17.287,11.76
	c-0.222,0.543,0.356,1.067,0.879,0.802c6.029-3.067,11.6-6.817,16.9-11.179C58.724,52.776,58.396,51.851,57.668,51.857z
	 M86.35,27.498c-1.837-2.686-3.846-5.082-6.198-7.196c-0.631-0.567-1.647-0.29-1.873,0.528c-1.145,4.145,0.005,8.898,2.813,11.709
	c0.625,0.627,1.641,0.623,2.253-0.016c0.936-0.979,1.879-1.966,2.834-2.965C86.714,28.998,86.787,28.139,86.35,27.498z
	 M26.218,31.761c-0.258,0.584,0.272,1.213,0.893,1.058c2.069-0.517,3.923-1.189,5.573-2.341c0.871-0.608,1.654-1.411,2.298-2.262
	c1.468-1.942,2.249-4.9,1.115-7.717c-0.28-0.696-1.167-0.917-1.726-0.416C30.797,23.291,28.228,27.211,26.218,31.761z
	 M25.762,71.254c0.646-0.137,0.936-0.896,0.538-1.426c-0.894-1.191-1.765-2.332-2.536-3.537c-0.644-1.006-1.218-2.057-1.817-3.166
	c-0.426-0.787-1.57-0.74-1.931,0.08c-0.318,0.722-0.615,1.437-0.851,2.171c-0.27,0.843-0.301,1.806-0.243,2.702
	c0.102,1.582,1.06,2.592,2.528,3.08C22.895,71.639,24.317,71.563,25.762,71.254z M88.636,24.432
	c0.404,0.553,1.234,0.523,1.608-0.051c0.896-1.379,1.581-2.807,1.624-4.502c0.036-1.435-0.813-2.184-2.218-1.965
	c-1.275,0.2-2.429,0.695-3.491,1.378c-0.471,0.302-0.588,0.94-0.258,1.394C86.815,21.938,87.715,23.17,88.636,24.432z"/>
</svg>
