<?xml version="1.0" encoding="utf-8"?>
<!-- Generator: Adobe Illustrator 16.0.0, SVG Export Plug-In . SVG Version: 6.00 Build 0)  -->
<!DOCTYPE svg PUBLIC "-//W3C//DTD SVG 1.1//EN" "http://www.w3.org/Graphics/SVG/1.1/DTD/svg11.dtd">
<svg version="1.1" id="圖層_1" xmlns="http://www.w3.org/2000/svg" xmlns:xlink="http://www.w3.org/1999/xlink" x="0px" y="0px"
	 width="172.037px" height="62.3px" viewBox="0 0 172.037 62.3" enable-background="new 0 0 172.037 62.3" xml:space="preserve">
<path fill="#FA9DB7" d="M93.763,38.944c-0.345-0.429-0.977-0.492-1.403-0.146c-2.718,2.202-5.308,4.364-7.989,6.407
	c-5.918,4.507-12.194,8.408-19.215,11.008c-2.635,0.975-5.327,1.789-8.134,1.76c-6.605-0.07-12.436-2.059-16.785-7.352
	c-0.002-0.002-0.002-0.004-0.004-0.004c-0.213-0.26-0.603-0.283-0.855-0.063c-0.192,0.168-0.381,0.335-0.564,0.508
	c-3.631,3.41-7.61,6.346-12.01,8.686c-3.094,1.645-6.382,2.709-9.925,2.531c-5.042-0.252-9.235-2.243-12.326-6.354
	c-2.851-3.789-4.133-8.1-4.438-12.778c-0.662-10.123,1.627-19.67,5.57-28.898c0.276-0.646,0.625-1.276,1.035-1.845
	c0.596-0.826,1.435-1.021,2.186-0.614c0.694,0.376,0.962,1.106,0.638,2.065c-0.721,2.127-1.52,4.229-2.233,6.357
	C5.974,24.2,4.793,28.23,4.297,32.424c-0.565,4.771-0.773,9.546,0.137,14.3c0.585,3.061,1.936,5.803,4.087,8.02
	c3.387,3.489,7.602,4.539,12.262,3.308c1.906-0.503,3.765-1.351,5.5-2.304c4.07-2.238,7.684-5.119,11.005-8.367
	c0.427-0.417,0.625-0.766,0.392-1.404c-1.79-4.903-1.872-9.938-1.012-15.021c0.91-5.383,2.652-10.475,5.446-15.187
	c1.368-2.307,2.975-4.424,5.007-6.188c1.789-1.554,3.811-2.667,6.157-3.142c3.744-0.756,6.601,1.418,6.898,5.256
	c0.141,1.811-0.21,3.548-0.647,5.297c-2.452,9.813-7.502,18.27-13.59,26.189c-0.855,1.113-1.747,2.198-2.669,3.332
	c-0.471,0.58-0.496,1.412-0.042,2.005c0.585,0.765,1.267,1.45,2.042,2.056c2.385,1.863,5.145,2.871,8.076,3.445
	c3.053,0.598,6.05,0.296,8.979-0.708c3.475-1.19,6.803-2.709,9.98-4.55c6.697-3.881,12.742-8.638,18.482-13.801
	c0.4-0.359,0.754-0.653,0.596-1.357c-0.777-3.465-0.352-6.882,0.695-10.219c2.362-7.527,6.218-14.161,12.084-19.512
	c1.248-1.139,2.695-2.092,4.156-2.951c0.833-0.49,1.86-0.768,2.831-0.881c2.587-0.301,4.304,1.1,4.765,3.663
	c0.355,1.979,0.062,3.897-0.456,5.797c-0.816,3.001-2.249,5.724-3.858,8.36c-3.438,5.633-7.852,10.432-12.695,14.864
	c-0.561,0.512-1.477,1.399-2.124,2.046c-0.481,0.482-0.558,1.244-0.164,1.801c0.724,1.023,1.724,1.79,2.871,2.398
	c2.055,1.088,4.288,1.56,6.575,1.821c5.64,0.646,11.108-0.393,16.554-1.679c10.613-2.506,20.574-6.619,29.973-12.13
	c2.226-1.306,4.502-2.524,6.727-3.832c3.214-1.89,5.969-4.378,8.763-6.813c0.467-0.406,0.978-0.781,1.519-1.076
	c0.689-0.377,1.381-0.254,1.956,0.289c0.546,0.517,0.646,1.326,0.218,2.072c-0.224,0.391-0.525,0.754-0.854,1.065
	c-3.548,3.358-7.314,6.417-11.622,8.79c-5.904,3.254-11.71,6.687-17.918,9.361c-8.023,3.457-16.324,5.986-24.942,7.405
	c-3.952,0.651-7.94,0.853-11.933,0.169C100.306,43.694,96.48,42.317,93.763,38.944z M40.413,42.381
	c0.113,0.555,0.825,0.722,1.173,0.274c0.888-1.137,1.782-2.27,2.635-3.432c5.279-7.193,9.674-14.836,11.727-23.623
	c0.298-1.275,0.404-2.625,0.374-3.936c-0.029-1.275-0.71-1.729-1.996-1.627c-1.323,0.104-2.479,0.678-3.564,1.388
	c-1.769,1.155-3.177,2.696-4.323,4.442c-4.729,7.205-6.99,15.104-6.467,23.738C40.026,40.536,40.225,41.458,40.413,42.381z
	 M94.668,30.497c0.006,0.35,0.432,0.533,0.68,0.288c0.002-0.001,0.003-0.003,0.005-0.004c2.531-2.525,5.164-4.958,7.559-7.607
	c3.332-3.686,6.142-7.761,8.098-12.364c0.784-1.844,1.346-3.759,1.293-5.797c-0.036-1.406-0.342-1.614-1.684-1.143
	c-1.566,0.551-2.82,1.588-4.013,2.691c-5.126,4.744-8.525,10.587-10.771,17.137C95.1,25.843,94.626,28.05,94.668,30.497z"/>
</svg>
