<?xml version="1.0" encoding="utf-8"?>
<!-- Generator: Adobe Illustrator 16.0.0, SVG Export Plug-In . SVG Version: 6.00 Build 0)  -->
<!DOCTYPE svg PUBLIC "-//W3C//DTD SVG 1.1//EN" "http://www.w3.org/Graphics/SVG/1.1/DTD/svg11.dtd">
<svg version="1.1" id="圖層_1" xmlns="http://www.w3.org/2000/svg" xmlns:xlink="http://www.w3.org/1999/xlink" x="0px" y="0px"
	 width="83.489px" height="82.094px" viewBox="0 0 83.489 82.094" enable-background="new 0 0 83.489 82.094" xml:space="preserve">
<g>
	<path fill="#FDC563" d="M21.189,40.381c-0.117-11.431,9.411-22.175,22.533-22.059c12.433,0.108,22.267,10.261,22.011,22.862
		c-0.239,11.841-9.912,21.96-22.8,21.705C30.352,62.642,21.036,52.191,21.189,40.381z M61.76,40.543
		c0.013-10.034-8.143-18.216-18.086-18.341c-10.05-0.125-18.723,8.008-18.64,18.813c0.073,9.741,8.282,17.891,18.233,17.926
		C53.603,58.977,61.747,50.875,61.76,40.543z"/>
	<path fill="#FDC563" d="M12.751,35.701c0.654,0.019,1.325,0.145,1.951,0.342c0.829,0.26,1.239,0.894,1.243,1.68
		c0.003,0.713-0.498,1.412-1.31,1.639c-0.594,0.166-1.227,0.258-1.844,0.266c-3.035,0.035-6.071,0.054-9.107,0.027
		c-0.738-0.008-1.49-0.152-2.21-0.336c-0.9-0.231-1.488-1.016-1.475-1.795c0.017-0.891,0.606-1.542,1.665-1.715
		c0.524-0.086,1.072-0.032,1.609-0.033C4.771,35.773,11.089,35.654,12.751,35.701z"/>
	<path fill="#FDC563" d="M60.949,65.759c-0.512-0.889-0.448-1.747,0.147-2.333c0.612-0.603,1.48-0.722,2.294-0.205
		c0.52,0.329,0.985,0.763,1.42,1.203c2.156,2.188,4.299,4.392,6.435,6.602c0.344,0.356,0.682,0.737,0.933,1.159
		c0.433,0.729,0.357,1.602-0.139,2.088c-0.566,0.555-1.258,0.629-1.965,0.346c-0.379-0.15-0.74-0.381-1.063-0.635
		c-2.955-2.323-5.459-5.095-7.875-7.953C61.057,65.937,60.995,65.826,60.949,65.759z"/>
	<path fill="#FDC563" d="M15.735,6.14c0.608-0.355,1.371-0.292,1.973,0.076c0.241,0.148,0.49,0.332,0.665,0.569
		c2.073,2.815,4.078,5.682,6.102,8.534c0.099,0.14,0.239,0.383,0.307,0.541c0.438,1.027,0.299,1.949-0.371,2.468
		c-0.707,0.546-1.773,0.424-2.614-0.333c-0.307-0.276-0.593-0.588-0.831-0.924c-1.823-2.571-3.643-5.146-5.437-7.738
		c-0.277-0.4-0.509-0.873-0.613-1.346C14.749,7.236,15.076,6.525,15.735,6.14z"/>
	<path fill="#FDC563" d="M79.862,17.462c-0.011,0.785-0.45,1.334-1.051,1.741c-0.893,0.604-1.814,1.167-2.737,1.726
		c-1.987,1.203-3.987,2.386-5.975,3.589c-1.057,0.64-2.044,0.567-2.687-0.229c-0.64-0.791-0.573-1.844,0.269-2.699
		c0.489-0.498,1.054-0.952,1.655-1.305c2.361-1.386,4.745-2.734,7.138-4.067c0.426-0.237,0.921-0.413,1.402-0.474
		C78.998,15.603,79.865,16.392,79.862,17.462z"/>
	<path fill="#FDC563" d="M81.153,43.149c0.555,0.098,1.114,0.356,1.589,0.667c0.594,0.389,0.832,1.027,0.721,1.744
		c-0.116,0.74-0.599,1.279-1.298,1.333c-1.062,0.082-2.149,0.051-3.205-0.087c-1.974-0.258-3.935-0.613-5.896-0.957
		c-0.486-0.086-0.976-0.229-1.425-0.434c-0.751-0.343-1.165-1.102-1.069-1.805c0.105-0.785,0.721-1.424,1.578-1.539
		C72.638,42.006,78.661,42.711,81.153,43.149z"/>
	<path fill="#FDC563" d="M39.953,71.565c0.028-0.245,0.083-0.493,0.162-0.727c0.39-1.159,1.205-1.709,2.235-1.522
		c0.949,0.173,1.507,0.936,1.442,2.145c-0.149,2.773-0.339,5.545-0.527,8.314c-0.021,0.326-0.099,0.66-0.218,0.965
		c-0.379,0.967-1.127,1.451-2.007,1.338c-0.779-0.1-1.46-0.76-1.544-1.719C39.407,79.332,39.736,73.457,39.953,71.565z"/>
	<path fill="#FDC563" d="M20.671,59.676c0.253,0.558,0.185,1.208-0.119,1.741c-0.115,0.201-0.255,0.414-0.428,0.594
		c-0.544,0.563-1.179,1.052-1.825,1.499c-1.708,1.181-3.441,2.323-5.169,3.477c-0.206,0.138-0.425,0.265-0.653,0.36
		c-0.903,0.378-1.731,0.199-2.254-0.471c-0.508-0.65-0.521-1.574,0.057-2.312c0.327-0.419,0.732-0.803,1.17-1.106
		c1.979-1.373,3.964-2.736,5.985-4.044c0.502-0.325,1.138-0.54,1.732-0.604C19.845,58.739,20.391,59.06,20.671,59.676z"/>
	<path fill="#FDC563" d="M48.535,2.956c-0.177,1.978-0.34,4.083-0.569,6.184c-0.062,0.564-0.247,1.146-0.511,1.649
		c-0.345,0.66-0.94,1.064-1.736,0.961c-0.763-0.1-1.358-0.521-1.511-1.281c-0.151-0.762-0.24-1.567-0.17-2.336
		c0.185-2.02,0.471-4.031,0.72-6.045c0.021-0.162,0.06-0.326,0.109-0.483c0.35-1.11,1.156-1.723,2.075-1.585
		c0.975,0.146,1.55,0.889,1.591,2.061C48.542,2.328,48.535,2.578,48.535,2.956z"/>
	<path fill="#FDC563" d="M42.54,49.154c-3.896-0.041-7.454-3.313-7.824-7.014c-0.112-1.122,0.343-1.965,1.196-2.214
		c0.921-0.27,1.771,0.199,2.271,1.284c0.261,0.566,0.45,1.166,0.721,1.727c1.325,2.746,5.216,3.072,6.714,0.761
		c0.179-0.276,0.416-0.522,0.657-0.749c0.825-0.781,1.866-0.914,2.603-0.351c0.729,0.556,0.92,1.478,0.395,2.485
		c-1.079,2.07-2.739,3.43-5.068,3.873C43.592,49.074,42.965,49.105,42.54,49.154z"/>
	<path fill="#FDC563" d="M33.694,35.089c-0.012-1.443,0.825-2.471,2.031-2.496c1.081-0.021,1.932,0.829,1.97,1.973
		c0.045,1.326-1.027,2.539-2.224,2.514C34.439,37.059,33.704,36.235,33.694,35.089z"/>
	<path fill="#FDC563" d="M50.77,39.578c-0.012-1.444,0.824-2.473,2.031-2.497c1.081-0.022,1.932,0.829,1.97,1.972
		c0.044,1.327-1.027,2.539-2.225,2.515C51.515,41.546,50.778,40.722,50.77,39.578z"/>
</g>
</svg>
