<?xml version="1.0" encoding="utf-8"?>
<!-- Generator: Adobe Illustrator 16.0.0, SVG Export Plug-In . SVG Version: 6.00 Build 0)  -->
<!DOCTYPE svg PUBLIC "-//W3C//DTD SVG 1.1//EN" "http://www.w3.org/Graphics/SVG/1.1/DTD/svg11.dtd">
<svg version="1.1" id="圖層_1" xmlns="http://www.w3.org/2000/svg" xmlns:xlink="http://www.w3.org/1999/xlink" x="0px" y="0px"
	 width="143.559px" height="154.265px" viewBox="0 0 143.559 154.265" enable-background="new 0 0 143.559 154.265"
	 xml:space="preserve">
<g>
	<path fill="#FDC563" d="M133.587,120.292c-0.616-0.715-1.278-1.419-1.983-2.035c0.059-0.065,0.116-0.131,0.174-0.197
		c0.586-0.667,0.404-1.813-0.541-2.051c-0.728-0.115-1.396-0.347-2.02-0.67c-0.087-0.159-0.189-0.316-0.324-0.468
		c-7.738-8.701-7.951-20.843-9.482-31.783c-1.346-9.613-3.611-19.281-8.059-27.97C103,38.805,86.996,29.218,68.514,31.09
		c-17.055,1.728-31.43,12.997-35.748,29.812c-4.298,16.735,1.4,34.956,15.504,45.193c9.728,7.062,21.566,10.147,32.689,14.248
		c11.717,4.32,20.709,10.293,28.938,19.652c0.21,0.238,0.464,0.338,0.719,0.347c0.083,0.055,0.178,0.09,0.277,0.114
		c5.246,7.786,16.838,18.318,24.837,11.739c0.206-0.082,0.403-0.175,0.598-0.271c1.376,0.514,3.021,0.38,4.237-0.497
		c1.156-0.832,1.738-2.271,1.746-3.672c0.003-0.692-0.161-1.53-0.521-2.209C146.174,137.047,142.027,125.528,133.587,120.292z
		 M129.242,120.933c1.451,0.946,2.838,2.106,4.099,3.415c-3.578,1.657-6.889,4.236-10.14,6.373
		c-1.826,1.202-3.789,2.371-5.664,3.647c1.455-1.696,2.864-3.432,4.304-5.051C124.318,126.531,126.779,123.731,129.242,120.933z
		 M46.684,97.238c-6.013-6.216-9.234-14.824-9.602-23.396c-0.563-13.145,5.448-25.003,15.771-31.706
		c-5.188,4.321-9.6,9.773-12.435,15.172c-6.483,12.345-2.374,29.024,6.817,40.472C47.053,97.598,46.863,97.424,46.684,97.238z
		 M109.51,133.205c-7.044-12.329-24.572-17.49-36.912-21.826c-5.093-1.789-10.313-3.713-15.143-6.277
		C42.563,94.993,32.883,72.426,42.661,56.458c4.421-7.219,11.563-14.637,19.565-18.576c0.896-0.257,1.806-0.488,2.738-0.682
		c18.771-3.868,36.02,6.119,43.811,23.26c4.548,10.007,5.865,20.799,7.25,31.579c1.111,8.648,2.818,17.064,8.041,24.048
		c-1.471,1.449-2.85,3.36-4.137,5.006c-5.318-7.687-11.632-14.795-17.391-22.162c-5.924-7.58-11.428-17.311-18.979-23.355
		c-0.922-0.738-2.197,0.157-1.65,1.274c4.038,8.26,11.687,15.148,17.489,22.198c6.343,7.705,12.28,15.958,19.056,23.278
		c0.09,0.097,0.189,0.163,0.295,0.209c-0.003,0.002-0.005,0.005-0.007,0.007c-1.244,1.421-2.78,2.919-4.296,4.49
		c-0.047-0.208-0.146-0.413-0.368-0.59c-3.86-3.076-7.872-5.789-11.287-9.399c-3.209-3.393-5.975-7.175-8.897-10.809
		c-5.879-7.307-11.93-15.655-19.764-20.984c-0.972-0.662-2.41,0.691-1.67,1.67c5.963,7.885,13.83,14.344,20.08,22.052
		c5.79,7.141,11.695,15.082,20.059,19.389c0.16,0.082,0.324,0.115,0.488,0.121C111.714,129.988,110.434,131.559,109.51,133.205z
		 M110.787,135.852c-0.066-0.161-0.127-0.326-0.197-0.485c3.161-2.068,5.629-5.801,8.058-8.505l4.7-5.233
		c0.696-0.775,1.393-1.551,2.089-2.326c0.241-0.269,0.483-0.538,0.726-0.808c0.278,0.183,0.569,0.268,0.859,0.293
		c-0.088,0.287-0.067,0.598,0.127,0.845c-2.544,2.896-5.086,5.793-7.615,8.703c-2.427,2.793-5.18,5.517-7.423,8.52
		C111.674,136.511,111.232,136.179,110.787,135.852z M114.729,139.01c3.518-1.437,6.785-3.771,9.967-5.732
		c3.43-2.115,7.336-4.09,10.405-6.77c0.47,0.715,0.925,1.447,1.384,2.176c-3.623,2.36-7.176,4.836-10.754,7.263
		c-2.68,1.818-5.516,3.554-8.021,5.64C116.721,140.735,115.73,139.868,114.729,139.01z M133.652,148.451
		c-0.694,0.464-0.959,1.135-0.93,1.786c-0.043,0.026-0.086,0.045-0.129,0.07c-1.846,0.189-3.89-0.313-5.611-1.317
		c-0.521-0.305-1.027-0.642-1.528-0.99c1.696-0.735,3.346-1.61,4.999-2.394c2.837-1.345,5.896-2.548,8.617-4.165
		C138.307,144.056,136.599,146.482,133.652,148.451z M139.542,138.512c-3.38,1.087-6.53,2.99-9.694,4.588
		c-2.143,1.082-4.389,2.081-6.453,3.337c-1.252-1.02-2.463-2.101-3.669-3.135c2.604-1.411,5.063-3.128,7.543-4.725
		c1.993-1.283,3.985-2.566,5.979-3.85c0.996-0.642,1.993-1.283,2.989-1.925c1.055-0.26,1.584-0.757,1.604-1.481
		c0.065,0.035,0.115,0.085,0.192,0.106c0.025,0.007,0.051,0.014,0.076,0.021C139.102,133.755,139.635,136.166,139.542,138.512z"/>
	<path fill="#FDC563" d="M124.083,55.153c2.664-0.43,5.079-1.758,7.405-3.068c2.155-1.213,4.596-1.93,4.932-4.613
		c0.104-0.827-0.635-1.428-1.295-1.701c-2.243-0.926-4.574,1.287-6.41,2.403c-2.164,1.314-4.355,2.719-5.951,4.712
		C121.893,53.972,122.705,55.375,124.083,55.153z"/>
	<path fill="#FDC563" d="M105.181,33.067c2.171-0.866,3.69-2.695,5.388-4.246c1.879-1.718,4.134-2.942,3.669-5.827
		c-0.116-0.721-0.882-1.424-1.575-1.575c-2.793-0.608-4.268,1.769-5.849,3.647c-1.44,1.711-3.316,3.57-3.823,5.811
		C102.722,32.065,103.835,33.604,105.181,33.067z"/>
	<path fill="#FDC563" d="M77.852,12.646c0.281-3.025,0.209-6.184,0.332-9.229c0.155-3.83-6.297-4.854-6.828-0.925
		c-0.474,3.5-0.557,7.57,0.611,10.951C73.1,16.72,77.537,16.013,77.852,12.646z"/>
	<path fill="#FDC563" d="M40.885,26.154c1.278,0.271,2.161-0.55,2.318-1.766c0.292-2.268-1.285-4.545-2.411-6.396
		c-1.217-2.003-2.379-4.676-4.2-6.168c-2.342-1.918-6.885-0.213-5.641,3.283c0.883,2.483,2.918,4.437,4.547,6.482
		C36.908,23.36,38.549,25.658,40.885,26.154z"/>
	<path fill="#FDC563" d="M25.43,44.323c0.554-0.123,1.111-0.781,1.047-1.373c-0.238-2.193-1.807-3.77-3.371-5.242
		c-1.543-1.454-3.498-3.392-5.6-3.938c-2.354-0.613-5.167,0.861-5.252,3.5c-0.055,1.717,0.939,3.141,2.541,3.698
		c0.596,0.208,1.146,0.124,1.619-0.114c1.213,0.612,2.367,1.554,3.531,2.123C21.716,43.842,23.431,44.772,25.43,44.323z"/>
	<path fill="#FDC563" d="M8.268,71.759c-2.576-0.224-5.325-0.345-7.322,1.499c-1.521,1.402-1.141,4.154,0.661,5.133
		c0.377,0.205,0.774,0.366,1.19,0.463c0.818,0.188,1.774-0.05,2.471-0.579c1.271-0.374,3.123-0.212,4.307-0.204
		c1.893,0.012,3.475-0.035,5.209-0.915c1.102-0.56,1.049-1.976,0.359-2.797C13.402,72.279,10.832,71.98,8.268,71.759z"/>
	<path fill="#FDC563" d="M18.613,103.125c-1.261,1.986,0.861,5.045,3.206,4.171c2.067-0.771,3.906-2.333,5.864-3.395
		c1.111-0.603,3.485-2.153,2.576-3.771C28.021,96.147,20.246,100.552,18.613,103.125z"/>
	<path fill="#FDC563" d="M50.051,123.483c-1.828,0.251-2.502,1.051-3.578,2.475c-0.854,1.129-1.652,2.3-2.4,3.502
		c-1.813,2.912,3.068,5.694,4.556,2.663c0.669-1.363,1.267-2.758,1.82-4.17c0.646-1.643,0.837-2.643,0.101-4.267
		C50.461,123.493,50.232,123.459,50.051,123.483z"/>
	<path fill="#FDC563" d="M73.857,127.606c-0.09-0.508-0.744-0.697-1.146-0.467c-3.926,2.257-4.889,8.813-4.297,12.886
		c0.443,3.05,5.311,2.251,5.293-0.716c-0.014-2.124-0.271-4.172-0.075-6.307C73.801,131.17,74.178,129.435,73.857,127.606z"/>
	<path fill="#FDC563" d="M125.43,77.283c-0.473,0.664-0.139,1.771,0.56,2.135c1.313,0.683,2.722,0.446,4.161,0.525
		c1.53,0.085,3.012,0.461,4.473,0.902c3.602,1.088,5.146-4.903,1.533-5.56C133.019,74.716,127.525,74.337,125.43,77.283z"/>
</g>
</svg>
