<?xml version="1.0" encoding="utf-8"?>
<!-- Generator: Adobe Illustrator 16.0.0, SVG Export Plug-In . SVG Version: 6.00 Build 0)  -->
<!DOCTYPE svg PUBLIC "-//W3C//DTD SVG 1.1//EN" "http://www.w3.org/Graphics/SVG/1.1/DTD/svg11.dtd">
<svg version="1.1" id="圖層_1" xmlns="http://www.w3.org/2000/svg" xmlns:xlink="http://www.w3.org/1999/xlink" x="0px" y="0px"
	 width="112.213px" height="100.504px" viewBox="0 0 112.213 100.504" enable-background="new 0 0 112.213 100.504"
	 xml:space="preserve">
<g>
	<path fill="#09B1AB" d="M97.667,53.765c-0.054,0.708-0.09,1.363-0.156,2.015c-0.263,2.52-0.539,5.036-0.799,7.554
		c-0.061,0.592-0.396,1.028-0.775,1.425c-1.293,1.352-2.554,2.745-3.943,3.996c-0.681,0.615-0.996,1.236-1.025,2.119
		c-0.212,6.336-2.218,12.211-4.645,17.978c-0.064,0.152-0.131,0.303-0.209,0.45c-0.536,1.014-0.605,1.987-0.242,3.146
		c0.508,1.62,0.738,3.33,1.026,5.014c0.19,1.104,0.131,1.268-0.148,2.229c-1.102-0.362-1.102-0.362-2.496-4.01
		c-0.544,0.431-0.494,1.074-0.696,1.598c-0.218,0.565-0.383,1.154-0.646,1.694c-0.258,0.526-0.386,1.161-1.045,1.533
		c-0.752-1.362-0.003-2.795-0.253-4.322C80.76,97.23,80.254,98.421,79,98.688c-0.451-0.263-0.435-0.619-0.338-0.922
		c0.282-0.886,0.613-1.756,0.961-2.729c-0.224,0.049-0.463,0.063-0.669,0.152c-0.807,0.349-1.595,0.742-2.411,1.067
		c-0.279,0.112-0.617,0.072-1.054,0.112c0.122-0.892,0.708-1.327,1.17-1.825c0.444-0.481,0.936-0.92,1.53-1.499
		c-0.353-0.104-0.575-0.191-0.805-0.233c-0.431-0.081-0.875-0.107-1.299-0.218c-0.167-0.044-0.296-0.251-0.498-0.435
		c0.773-0.78,1.672-1.187,2.585-1.529c1.239-0.465,2.489-0.901,3.76-1.261c0.71-0.199,1.135-0.586,1.42-1.24
		c1.271-2.932,2.521-5.869,3.48-8.922c0.649-2.061,0.982-4.181,1.211-6.32c0.021-0.209-0.01-0.421-0.024-0.789
		c-0.389,0.187-0.68,0.291-0.931,0.454c-9.493,6.163-19.844,7.862-30.877,5.898c-5.91-1.053-11.44-3.196-16.682-6.101
		C33.7,69.121,28.549,65.01,23.891,60.27c-1.157-1.177-2.199-2.468-3.298-3.701c-0.506-0.563-0.915-1.214-1.775-1.381
		c-0.518-0.1-0.784-0.612-0.814-1.138c-0.043-0.713-0.075-1.435-0.011-2.144c0.182-2.03,0.416-4.054,0.631-6.084
		c0.057-0.544,0.122-1.09,0.189-1.699c-0.364-0.269-0.696-0.552-1.06-0.784c-4.19-2.644-8.384-5.287-12.586-7.912
		c-0.554-0.345-1.162-0.608-1.769-0.856c-0.482-0.2-0.858-0.488-1.088-0.954c-0.169-0.347-0.375-0.685-0.475-1.052
		c-0.581-2.124-1.157-4.249-1.683-6.388c-0.143-0.578-0.16-1.201-0.15-1.799c0.016-0.848,0.433-1.423,1.257-1.751
		c1.278-0.511,2.52-1.11,3.786-1.65C19.438,14.847,33.83,8.713,48.23,2.599c1.925-0.818,3.902-1.511,5.838-2.307
		c1.055-0.432,2.021-0.406,2.982,0.218c1.43,0.931,2.886,1.818,4.307,2.76c4.13,2.74,8.25,5.497,12.371,8.251
		c3.985,2.661,7.962,5.333,11.947,7.995c3.982,2.661,7.973,5.314,11.957,7.978c3.388,2.264,6.764,4.547,10.165,6.795
		c1.141,0.753,2.182,1.671,3.54,2.085c0.662,0.203,0.98,0.866,0.847,1.617c-0.093,0.531-0.289,1.061-0.518,1.554
		c-1.255,2.698-2.551,5.375-3.791,8.077c-0.416,0.908-1.06,1.483-1.948,1.909c-2.185,1.047-4.342,2.152-6.503,3.249
		C98.837,53.074,98.279,53.419,97.667,53.765z M107.02,37.24C89.495,25.558,72.141,13.988,54.751,2.393
		C38.259,9.887,21.535,16.854,4.938,24.114c-0.072,0.032-0.094,0.181-0.139,0.274c0.056,0.092,0.086,0.217,0.166,0.271
		c20.286,13.646,40.576,27.289,60.867,40.926c0.176,0.117,0.391,0.177,0.681,0.305c5.839-4.109,11.688-8.224,17.532-12.346
		c0.128-0.091,0.204-0.254,0.336-0.424c-0.087-0.188-0.155-0.394-0.27-0.57c-2.115-3.279-4.78-6.059-7.907-8.36
		c-3.593-2.647-7.398-4.979-11.275-7.19c-1.191-0.68-2.399-1.331-3.541-1.959c-0.259,0.083-0.417,0.127-0.57,0.182
		c-1.452,0.526-2.728,0.067-3.873-0.789c-0.772-0.577-1.229-1.412-1.293-2.401c-0.086-1.332,0.903-2.538,2.108-2.442
		c0.716,0.057,1.407,0.02,2.117-0.01c1.803-0.071,2.887,0.922,3.064,2.721c0.027,0.263,0.057,0.526,0.085,0.781
		c0.341,0.207,0.608,0.402,0.903,0.547c3.815,1.863,7.453,4.04,11.01,6.345c4.339,2.814,8.195,6.14,11.024,10.54
		c0.226,0.35,0.548,0.64,0.896,1.038c6.543-4.538,12.957-9.099,19.412-13.591C106.49,37.808,106.661,37.591,107.02,37.24z
		 M87.79,60.913c-0.372,0.135-0.541,0.161-0.669,0.249c-2.48,1.637-4.976,3.257-7.43,4.935c-3.46,2.367-7.041,4.524-10.841,6.299
		c-0.25,0.117-0.497,0.239-0.733,0.383c-0.863,0.517-1.654,0.515-2.379-0.268c-0.22-0.238-0.498-0.435-0.779-0.602
		c-2.074-1.251-4.155-2.491-6.238-3.726c-3.883-2.299-7.794-4.554-11.653-6.896c-8.093-4.914-16.158-9.873-24.24-14.806
		c-0.208-0.127-0.475-0.157-0.82-0.263c-0.194,1.204-0.364,2.288-0.542,3.372c-0.178,1.077-0.362,2.155-0.546,3.249
		c1.116,1.18,2.188,2.286,3.235,3.414c4.45,4.798,9.48,8.885,15.086,12.253c5.525,3.316,11.421,5.71,17.8,6.781
		c11.203,1.877,21.463-0.32,30.621-7.181c0.3-0.226,0.553-0.513,0.828-0.771C88.369,65.195,88.208,63.118,87.79,60.913z
		 M3.856,27.104c-0.085,0.07-0.172,0.142-0.257,0.213c0.581,1.828,1.152,3.659,1.751,5.482c0.061,0.186,0.252,0.356,0.424,0.475
		c0.313,0.224,0.654,0.408,0.987,0.604c4.42,2.584,8.855,5.146,13.258,7.757c6.537,3.877,13.063,7.767,19.566,11.696
		c5.749,3.475,11.46,7.016,17.189,10.521c2.489,1.522,4.984,3.037,7.48,4.546c0.189,0.115,0.44,0.321,0.672-0.078
		c-0.182-0.14-0.348-0.275-0.523-0.396c-3.428-2.305-6.859-4.603-10.285-6.909c-3.565-2.397-7.126-4.8-10.687-7.203
		c-3.468-2.343-6.932-4.692-10.401-7.035c-3.059-2.064-6.118-4.128-9.184-6.182c-0.5-0.334-1.059-0.576-1.551-0.921
		c-0.627-0.438-1.146-1.126-1.831-1.361c-0.779-0.271-1.221-0.886-1.843-1.297c-4.223-2.797-8.4-5.664-12.597-8.504
		C5.313,28.028,4.581,27.573,3.856,27.104z M88.941,55.788c1.217-0.832,2.243-1.473,3.202-2.199c2.635-2,5.409-3.759,8.425-5.141
		c1.147-0.524,2.251-1.148,3.356-1.763c0.326-0.179,0.701-0.413,0.855-0.72c0.664-1.317,1.252-2.673,1.981-4.267
		c-0.578,0.304-0.923,0.446-1.226,0.649c-3.502,2.363-6.824,4.986-10.431,7.199c-0.139,0.086-0.264,0.196-0.398,0.293
		c-1.201,0.87-2.399,1.745-3.602,2.613c-0.887,0.639-1.782,1.269-2.746,1.957C88.537,54.829,88.697,55.206,88.941,55.788z
		 M68.697,69.041c6.056-3.199,11.424-7.241,16.999-10.963c0.35-0.233,0.63-0.571,0.98-0.897c-0.216-0.391-0.392-0.705-0.604-1.091
		c-0.5,0.303-0.931,0.535-1.33,0.813c-4.2,2.93-8.395,5.867-12.592,8.801c-1.039,0.727-2.077,1.45-3.119,2.168
		C68.691,68.108,68.432,68.366,68.697,69.041z M94.365,61.749c-0.037-0.9-0.06-1.776-0.116-2.647
		c-0.055-0.844,0.104-1.713-0.178-2.651c-1.457,0.883-2.769,1.741-4.003,2.704c0.315,1.986,0.611,3.861,0.936,5.901
		C92.416,64.08,93.258,62.795,94.365,61.749z"/>
	<path fill="#09B1AB" d="M99.875,37.234c-0.393-0.528-0.689-0.854-0.903-1.227c-0.334-0.58-0.232-1.292,0.183-1.67
		c0.423-0.388,1.137-0.46,1.682-0.08c0.865,0.603,1.597,1.349,2.034,2.327c0.315,0.701,0.216,1.313-0.381,1.779
		c-1.878,1.469-3.948,2.58-6.29,3.104c-0.718,0.161-1.204-0.019-1.301-0.379c-0.138-0.514,0.183-0.849,0.534-1.106
		c0.661-0.485,1.347-0.939,2.045-1.369C98.218,38.156,98.983,37.745,99.875,37.234z"/>
	<path fill="#09B1AB" d="M47.473,9.403c1.487-2.262,3.61-3.315,6.012-3.938c0.21-0.054,0.438-0.063,0.657-0.055
		c0.346,0.017,0.648,0.144,0.782,0.494c0.141,0.363-0.016,0.677-0.302,0.859c-0.462,0.294-0.947,0.562-1.451,0.765
		c-1.735,0.702-3.48,1.37-5.225,2.041C47.871,9.599,47.754,9.506,47.473,9.403z"/>
	<path fill="#09B1AB" d="M36.569,63.456c-0.565-0.586-1.193-0.98-1.384-1.732c-0.084-0.335,0.196-0.716,0.529-0.622
		c0.467,0.133,0.942,0.29,1.366,0.524c1.247,0.695,2.475,1.424,3.697,2.16c4.104,2.475,8.411,4.516,12.921,6.133
		c0.359,0.129,0.725,0.265,1.053,0.455c0.4,0.231,0.59,0.738,0.49,1.129c-0.123,0.477-0.594,0.83-1.111,0.807
		c-0.216-0.012-0.435-0.06-0.64-0.125c-3.035-0.969-6.084-1.916-8.854-3.533c-2.274-1.328-4.498-2.741-6.729-4.142
		C37.4,64.19,36.958,63.765,36.569,63.456z"/>
</g>
</svg>
