<?xml version="1.0" encoding="utf-8"?>
<!-- Generator: Adobe Illustrator 16.0.0, SVG Export Plug-In . SVG Version: 6.00 Build 0)  -->
<!DOCTYPE svg PUBLIC "-//W3C//DTD SVG 1.1//EN" "http://www.w3.org/Graphics/SVG/1.1/DTD/svg11.dtd">
<svg version="1.1" id="圖層_1" xmlns="http://www.w3.org/2000/svg" xmlns:xlink="http://www.w3.org/1999/xlink" x="0px" y="0px"
	 width="183.007px" height="158.858px" viewBox="0 0 183.007 158.858" enable-background="new 0 0 183.007 158.858"
	 xml:space="preserve">
<g>
	<path fill="#FA9DB7" d="M182.379,86.979c-2.12-1.721-4.051-3.619-6.313-5.016c0.161-0.055,0.313-0.121,0.477-0.175
		c0.531-0.175,0.734-0.61,0.7-1.03c0.156-0.19,0.265-0.413,0.315-0.654c0.92-0.25,1.648-1.221,0.986-2.253
		c-0.4-0.625-0.79-1.256-1.188-1.882c0.044,0,0.09-0.006,0.133-0.004c0.574,0.022,0.746-0.771,0.284-1.053
		c-0.415-0.252-0.882-0.391-1.374-0.461c-0.9-1.438-1.768-2.893-2.648-4.341c-0.9-2.38-2.426-4.55-3.806-6.767
		c-2.661-4.273-5.599-8.369-8.519-12.467c-5.958-8.363-11.93-16.715-17.908-25.063c-5.297-7.396-10.144-16.188-16.496-22.715
		c-3.146-3.231-8.369-4.547-11.328-0.924c-7.127,1.801-13.824,4.791-19.53,10.016c-2.229,2.04-4.726,4.412-7.224,7.022
		C81.494,26.299,75.093,35.1,71.999,44.678c-9.186-5.238-21.61-4.742-31.51-2.53c-13.65,3.052-25.904,10.345-37.801,17.408
		c-1.315,0.78-1.393,2.438-0.454,3.526c1.856,2.154,3.689,4.328,5.526,6.5c-2.988,1.274-4.994,3.275-7.29,5.863
		c-0.419,0.471-0.681,1.344-0.247,1.912c9.771,12.764,20.07,25.15,30.152,37.669c10.051,12.48,19.518,26.088,30.475,37.803
		c0.039,0.089,0.089,0.177,0.158,0.254c2.251,2.522,6.023,6.605,9.68,5.627c2.251-0.603,4.357-3.126,6.188-4.485
		c3.029-2.248,6.113-4.431,9.267-6.5c8.306-5.449,17.189-9.949,26.682-12.215c0.257,0.008,0.514,0,0.771,0.012
		c3.989,0.191,7.79,1.626,11.716,1.857c2.954,0.174,5.044-1.136,5.328-4.066c6.105-8.09,11.371-16.421,18.839-23.506
		c4.069-3.862,8.451-7.393,13.1-10.535c0.065-0.045,0.134-0.084,0.199-0.129c5.899-3.55,12.161-6.49,18.7-8.748
		C182.786,89.943,183.664,88.021,182.379,86.979z M73.18,48.863c0.002,0.002,0.004,0,0.007,0.002
		c3.619,6.123,8.864,11.785,13.003,17.412c4.953,6.732,9.82,13.527,14.602,20.383c4.78,6.855,9.474,13.771,14.079,20.746
		c2.093,3.17,4.169,6.353,6.226,9.547c1.233,1.916,2.461,3.838,3.682,5.762c0.406,0.643,0.813,1.285,1.219,1.927
		c0.033,0.153,0.08,0.288,0.126,0.424c-9.142-13.316-18.928-26.245-28.354-39.351c-9.004-12.52-17.717-25.36-27.155-37.572
		C71.463,48.373,72.317,48.611,73.18,48.863z M7.25,62.07C17.27,56.129,27.51,50.26,38.815,47.188
		c10.58-2.877,19.894-2.079,29.926,0.461c8.98,13.572,18.922,26.582,28.418,39.785c9.447,13.134,18.605,26.555,28.371,39.461
		c-19.291-8.976-44.061-2.854-59.761,10.629C47.499,111.434,27.973,86.258,7.25,62.07z M64.187,151.369
		c-9.753-14.24-21.96-27.287-32.813-40.703c-5.514-6.814-11.034-13.625-16.566-20.425c-2.883-3.544-6.855-7.135-9.051-11.126
		l-1.509-1.854c0.261-1.813,1.11-3.242,2.552-4.287c0.563-0.783,1.251-1.531,1.901-2.287c19.34,22.924,37.608,46.715,54.741,71.34
		c0.84,1.205,2.426,1.516,3.545,0.456c7.631-7.22,16.969-12.098,27.281-14.183c6.023-1.217,11.727-1.206,17.405-0.454
		c-0.709,0.13-1.422,0.276-2.139,0.436c-6.999,1.556-14.024,3.823-20.704,6.413c-5.814,2.254-11.469,4.981-16.488,8.717
		C70.131,145.057,65.141,148.179,64.187,151.369z M93.67,138.246c-5.451,2.874-10.653,6.244-15.623,9.885
		c-1.977,1.447-4.699,4.347-6.93,5.315c-1.473,0.64-2.823,0.537-4.131,0.136c0.023-0.027,0.048-0.045,0.072-0.076
		c0.501-0.621,0.521-1.323,0-1.949c-0.021-0.023-0.041-0.049-0.061-0.072c0.922-0.246,1.664-0.828,2.226-1.748
		c0.853-0.86,1.74-1.684,2.663-2.469c2.218-1.891,4.627-3.533,7.137-5.008c4.431-2.603,9.178-4.611,14.006-6.346
		c8.6-3.092,18.508-7.203,27.859-6.279c0.164,0.041,0.332,0.09,0.496,0.131C111.659,130.521,102.383,133.652,93.67,138.246z
		 M118.815,134.411c2.416-0.317,4.866-0.494,7.358-0.485c0.246,0.315,0.651,0.52,1.041,0.512
		C125.218,135.321,121.756,134.873,118.815,134.411z M120.696,111.911c-5.197-7.95-10.51-15.825-15.935-23.624
		c-5.208-7.486-10.519-14.9-15.931-22.239c-4.268-5.786-8.599-12.845-13.78-18.165c3.463-10.688,10.341-18.963,17.798-27.156
		c1.57-1.726,3.193-3.5,4.885-5.23c4.537-3.396,9.443-6.271,14.653-8.518c1.972-0.852,4.254-1.807,6.66-2.641
		c0.784-0.168,1.579-0.309,2.372-0.452c-0.053-0.081-0.104-0.163-0.155-0.245c5.508,2.289,10.988,13.008,13.405,16.416
		c4.566,6.441,9.13,12.885,13.706,19.318c4.245,5.969,8.532,11.911,12.726,17.918c0.06,0.086,0.117,0.173,0.178,0.26
		c3.244,6.084,6.617,12.1,10.146,18.027c-3.197,1.493-6.48,4.002-8.315,5.164c-6.545,4.143-12.555,9.141-17.839,14.803
		c-5.066,5.427-9.525,11.471-13.061,18.003c-1.398,2.585-3.492,5.906-4.498,9.233C125.456,119.111,123.053,115.517,120.696,111.911z
		 M128.436,123.943c1.293-4.894,5.207-10.412,7.285-13.676c3.267-5.133,7.027-9.94,11.254-14.318
		c4.006-4.149,8.408-7.92,13.137-11.222c3.068-2.142,7.795-5.764,12.239-7.606c0.634,1.056,1.267,2.109,1.909,3.16
		c-0.379,0.107-0.758,0.215-1.133,0.331c-0.351-0.034-0.676,0.077-0.935,0.296c-9.882,3.297-18.476,10.246-25.497,17.745
		c-6.495,6.937-14.578,16.551-17.684,26.203C128.838,124.569,128.641,124.264,128.436,123.943z M130.065,132.297
		c-0.209-0.064-0.445-0.064-0.666,0c0.568-0.709,1.121-1.42,1.676-2.131C130.718,130.871,130.379,131.581,130.065,132.297z
		 M148.487,104.483c-4.355,3.661-8.957,7.976-12.968,12.737c0.378-0.688,0.767-1.367,1.177-2.029
		c3.156-5.084,6.784-9.867,10.838-14.27c7.143-7.756,15.15-13.65,24.705-17.546c1.242,1.748,2.862,3.111,4.561,4.417
		C166.516,91.803,156.968,97.353,148.487,104.483z"/>
	<path fill="#FA9DB7" d="M103.932,32.959c5.814-4.84,12.118-7.166,18.988-9.994c1.938-0.797,1.213-3.414-0.86-3.12
		c-14.124,2.009-27.927,14.901-32.343,28.144c-0.25,0.754,0.836,1.146,1.238,0.522C94.653,42.774,98.655,37.35,103.932,32.959z"/>
	<path fill="#FA9DB7" d="M127.26,28.151c-12.865,0.705-28.754,14.806-32.496,26.813c-0.316,1.014,1.028,1.389,1.581,0.667
		c4.286-5.592,7.8-11.226,13.37-15.719c5.614-4.528,11.976-6.265,18.115-9.658C128.786,29.727,128.388,28.09,127.26,28.151z"/>
	<path fill="#FA9DB7" d="M128.359,71.77c5.046-4.621,10.841-7.039,16.409-10.727c1.264-0.836,0.475-2.777-1.028-2.441
		c-11.249,2.512-25.185,15.186-28.703,26.175c-0.286,0.892,0.972,1.655,1.604,0.934C120.67,81.105,123.786,75.958,128.359,71.77z"/>
	<path fill="#FA9DB7" d="M149.815,67.632c-6.643,3.342-12.788,8.112-18.138,13.255c-4.112,3.953-10.46,9.289-10.249,15.514
		c0.025,0.763,1.223,1.25,1.576,0.428c5.186-12.051,17.563-20.002,28.234-26.76C152.781,69.092,151.434,66.816,149.815,67.632z"/>
	<path fill="#FA9DB7" d="M80.819,80.52c0.824-0.197,0.971-1.203,0.469-1.777c-4.026-4.604-8.106-9.158-12.264-13.645
		c-2.131-2.301-4.424-5.787-7.623-6.655c-4.428-1.202-10.81,1.106-15.095,2.081c-6.696,1.522-13.223,3.563-19.64,5.994
		c-0.951,0.359-1.035,1.43-0.266,2.024c1.656,1.279,3.272,2.578,5.016,3.718c6.289,5.77,12.006,11.959,17.127,18.846
		c0.313,0.833,0.602,1.686,0.842,2.582c0.223,0.828,1.423,0.473,1.27-0.351c-0.035-0.191-0.092-0.38-0.133-0.569
		c0.08-0.021,0.16-0.035,0.238-0.082C60.215,87.125,70.149,83.061,80.819,80.52z M39.372,78.672
		c-2.084-1.992-4.227-3.881-6.43-5.701c0.601-0.119,1.011-0.925,0.475-1.459c-1.317-1.312-2.758-2.453-4.219-3.584
		c0.398-0.149,0.806-0.302,1.212-0.453c4.577,6.072,10.308,10.758,14.468,16.742C43.096,82.314,41.256,80.474,39.372,78.672z
		 M49.536,89.33c-3.234-8.755-11.246-16.571-18.5-22.09c8.402-3.131,18.127-6.547,26.707-6.581c5.577-0.022,8.4,4.495,11.947,8.347
		c3.006,3.264,5.965,6.568,8.9,9.893c-4.754,1.214-9.412,2.688-13.957,4.563c-1.979,0.814-3.932,1.689-5.855,2.626
		c-1.655,0.807-5.487,3.894-7.223,3.892C50.813,89.977,50.147,89.726,49.536,89.33z"/>
	<path fill="#FA9DB7" d="M90.704,90.939c0.914-0.172,0.844-1.563,0-1.778c-11.33-2.901-29.431,4.747-35.617,14.55
		c-0.229,0.362,0.229,0.822,0.592,0.592c5.706-3.629,10.49-7.885,16.968-10.258C78.63,91.852,84.602,92.086,90.704,90.939z"/>
	<path fill="#FA9DB7" d="M79.249,103.416c5.135-1.651,10.396-1.877,15.602-3.049c1.354-0.305,0.898-2.128-0.305-2.254
		c-6.629-0.699-14.02,1.732-20.037,4.308c-3.908,1.673-12.653,4.761-13.478,9.613c-0.075,0.438,0.061,0.774,0.419,1.03
		c0.212,0.152,0.423,0.303,0.635,0.455c0.459,0.33,1.093-0.217,0.939-0.723C62.026,109.516,77.463,103.989,79.249,103.416z"/>
	<path fill="#FA9DB7" d="M68.965,122.248c-0.258,0.32,0.131,0.715,0.452,0.451c5.36-4.375,10.85-8.279,17.418-10.615
		c5.523-1.963,11.103-2.07,16.778-3.117c1.074-0.197,1.115-2.052,0-2.213C91.341,104.989,76.46,112.893,68.965,122.248z"/>
</g>
</svg>
