<?xml version="1.0" encoding="utf-8"?>
<!-- Generator: Adobe Illustrator 16.0.0, SVG Export Plug-In . SVG Version: 6.00 Build 0)  -->
<!DOCTYPE svg PUBLIC "-//W3C//DTD SVG 1.1//EN" "http://www.w3.org/Graphics/SVG/1.1/DTD/svg11.dtd">
<svg version="1.1" id="圖層_1" xmlns="http://www.w3.org/2000/svg" xmlns:xlink="http://www.w3.org/1999/xlink" x="0px" y="0px"
	 width="189.603px" height="111.893px" viewBox="0 0 189.603 111.893" enable-background="new 0 0 189.603 111.893"
	 xml:space="preserve">
<g>
	<g>
		<path fill="#09B1AB" d="M56.769,16.113c-0.779-0.047-1.559-0.099-2.338-0.137c-0.633-0.031-1.151-0.544-1.136-1.189
			c0.015-0.622,0.556-1.167,1.189-1.136c0.779,0.037,1.559,0.09,2.338,0.137c0.633,0.038,1.151,0.538,1.136,1.189
			c-0.014,0.596-0.522,1.138-1.128,1.138C56.81,16.115,56.789,16.114,56.769,16.113z"/>
		<path fill="#09B1AB" d="M52.255,24.393c-0.106-0.281-0.1-0.6,0.021-0.875c0.128-0.297,0.364-0.497,0.654-0.625
			c0.687-0.304,1.375-0.626,2.081-0.883c0.595-0.216,1.274,0.076,1.5,0.675c0.223,0.586-0.079,1.284-0.675,1.501
			c-0.706,0.256-1.395,0.579-2.08,0.882c-0.13,0.058-0.266,0.083-0.4,0.083C52.885,25.152,52.422,24.834,52.255,24.393z"/>
		<path fill="#09B1AB" d="M76.248,35.148c-0.542-0.018-1.082-0.043-1.623-0.072c-0.283-0.016-0.564-0.038-0.847-0.064
			c-0.563-0.054-1.063-0.267-1.516-0.599c-0.323-0.238-0.592-0.563-0.831-0.883c-0.177-0.236-0.342-0.481-0.494-0.733
			c-0.286-0.472-0.511-0.964-0.664-1.494c-0.085-0.166-0.132-0.354-0.132-0.551c0-0.004,0-0.007,0-0.011
			c-0.002-0.006-0.003-0.012-0.004-0.018c-0.001-0.002-0.002-0.005-0.003-0.007c-0.017-0.03-0.033-0.06-0.051-0.09
			c-0.093-0.136-0.191-0.266-0.294-0.395c-0.797-0.884-1.664-1.7-2.467-2.578c-0.295-0.323-0.587-0.646-0.869-0.98
			c-0.54-0.638-1.013-1.322-1.449-2.034c-0.918-1.501-1.577-3.172-2.003-4.875c-0.409-1.64-0.545-3.358-0.459-5.042
			c0.084-1.647,0.395-3.303,0.97-4.851c0.287-0.774,0.637-1.517,1.038-2.237c0.438-0.791,0.976-1.52,1.54-2.225
			c0.52-0.649,1.094-1.262,1.681-1.851c0.592-0.595,1.269-1.099,1.986-1.531C70.47,1.595,71.224,1.232,72,0.939
			c0.824-0.311,1.692-0.502,2.559-0.646c0.705-0.116,1.41-0.204,2.123-0.255c1.41-0.104,2.813-0.003,4.18,0.374
			c0.776,0.214,1.511,0.554,2.23,0.909c0.371,0.184,0.729,0.39,1.076,0.615c0.39,0.25,0.738,0.551,1.084,0.856
			c0.79,0.695,1.488,1.468,2.118,2.311c0.223,0.298,0.437,0.605,0.641,0.917c0.392,0.6,0.704,1.251,0.956,1.922
			c0.17,0.451,0.333,0.899,0.47,1.362c0.184,0.623,0.276,1.286,0.328,1.932c0.052,0.626,0.096,1.26,0.067,1.888
			c-0.015,0.341-0.029,0.682-0.045,1.022c-0.019,0.388-0.069,0.778-0.103,1.164c-0.052,0.587-0.154,1.172-0.256,1.752
			c-0.104,0.593-0.217,1.189-0.368,1.773c-0.167,0.647-0.347,1.286-0.536,1.926c-0.366,1.238-0.84,2.447-1.329,3.64
			c-0.227,0.553-0.485,1.095-0.77,1.621c-0.3,0.552-0.646,1.08-0.999,1.6c-0.523,0.774-1.098,1.512-1.646,2.27
			c-0.313,0.458-0.608,0.921-0.87,1.411c-0.229,0.472-0.445,0.951-0.654,1.432c-0.114,0.265-0.236,0.523-0.373,0.777
			c-0.289,0.54-0.795,0.969-1.353,1.209c-0.797,0.343-1.663,0.43-2.521,0.448c-0.156,0.003-0.313,0.005-0.468,0.005
			C77.11,35.174,76.679,35.163,76.248,35.148z M78.103,32.842c0.294-0.016,0.584-0.036,0.875-0.076
			c0.127-0.025,0.253-0.054,0.378-0.087c0.091-0.03,0.179-0.063,0.267-0.099c0.023-0.012,0.048-0.024,0.071-0.037
			c0.015-0.011,0.03-0.021,0.045-0.032c0.01-0.009,0.02-0.019,0.029-0.028c0.021-0.026,0.041-0.051,0.062-0.077
			c0.036-0.059,0.071-0.118,0.104-0.178c0.214-0.455,0.401-0.92,0.614-1.375c0.253-0.541,0.527-1.063,0.842-1.57
			c0.597-0.963,1.321-1.848,1.981-2.768c0.414-0.613,0.808-1.234,1.164-1.884c0.544-1.156,1.005-2.34,1.437-3.542
			c0.162-0.494,0.322-0.988,0.47-1.487c0.149-0.502,0.279-1.007,0.41-1.513c0.139-0.657,0.266-1.313,0.383-1.974
			c0.126-0.716,0.176-1.447,0.24-2.171c-0.005,0.049-0.01,0.099-0.014,0.148c0.016-0.361,0.032-0.722,0.049-1.083
			c0.013-0.304-0.004-0.612-0.009-0.918c-0.038-0.473-0.075-0.944-0.145-1.414c-0.059-0.321-0.13-0.637-0.219-0.951
			c-0.174-0.53-0.372-1.055-0.598-1.564c-0.133-0.277-0.276-0.547-0.436-0.809c-0.347-0.528-0.72-1.042-1.119-1.533
			c-0.385-0.443-0.8-0.843-1.225-1.245c-0.265-0.232-0.531-0.456-0.816-0.662c-0.269-0.172-0.542-0.331-0.823-0.479
			c-0.454-0.223-0.91-0.437-1.383-0.617C80.397,2.7,80.053,2.6,79.702,2.518c-0.366-0.072-0.732-0.126-1.104-0.163
			c-0.434-0.03-0.866-0.039-1.301-0.03c-0.34,0.023-0.687,0.031-1.024,0.075c-0.458,0.061-0.917,0.118-1.374,0.191
			c-0.568,0.1-1.129,0.226-1.683,0.389c-0.372,0.123-0.734,0.263-1.092,0.42c-0.479,0.229-0.945,0.48-1.399,0.753
			c-0.282,0.185-0.552,0.383-0.813,0.595c-0.467,0.406-0.893,0.85-1.312,1.305c-0.516,0.574-1.001,1.172-1.449,1.801
			c-0.313,0.465-0.598,0.946-0.859,1.443c-0.237,0.481-0.449,0.971-0.636,1.475c-0.184,0.534-0.337,1.075-0.465,1.625
			c-0.139,0.665-0.234,1.336-0.298,2.012c-0.046,0.623-0.059,1.244-0.039,1.868c0.034,0.646,0.1,1.286,0.2,1.925
			c0.11,0.619,0.254,1.229,0.431,1.833c0.202,0.63,0.437,1.246,0.703,1.852c0.283,0.613,0.599,1.206,0.949,1.784
			c0.329,0.516,0.686,1.011,1.074,1.484c0.72,0.844,1.496,1.635,2.275,2.423c0.341,0.345,0.672,0.696,0.995,1.056
			c0.338,0.376,0.628,0.791,0.829,1.256c0.089,0.205,0.131,0.428,0.146,0.651c0.028,0.06,0.051,0.123,0.069,0.188
			c0.004,0.013,0.007,0.025,0.011,0.037c0.041,0.122,0.087,0.24,0.137,0.358c0.088,0.181,0.185,0.355,0.287,0.527
			c0.159,0.243,0.325,0.478,0.507,0.704c0.061,0.064,0.122,0.127,0.185,0.188c0.025,0.021,0.051,0.042,0.077,0.062
			c0.012,0.007,0.023,0.015,0.035,0.022c0.018,0.008,0.034,0.017,0.052,0.025c0.017,0.005,0.033,0.01,0.049,0.016
			c0.132,0.023,0.262,0.041,0.395,0.055C75.537,32.814,76.823,32.866,78.103,32.842z"/>
		<path fill="#09B1AB" d="M76.708,44.175c-0.658-0.075-1.3-0.223-1.928-0.431c-0.292-0.097-0.576-0.214-0.852-0.349
			c-0.53-0.257-1.035-0.536-1.495-0.907c-0.541-0.436-0.969-1.021-1.173-1.687c-0.187-0.605-0.13-1.347,0.192-1.901
			c0.309-0.532,0.8-0.898,1.349-1.16c-0.17-0.261-0.311-0.541-0.428-0.83c-0.162-0.399-0.206-0.826-0.219-1.251
			c-0.012-0.396,0.107-0.792,0.207-1.173c0.178-0.679,0.518-1.424,1.199-1.711c0.584-0.246,1.282,0.099,1.501,0.675
			c0.176,0.464,0.029,0.951-0.31,1.265c-0.037,0.082-0.072,0.164-0.104,0.249c-0.05,0.163-0.092,0.326-0.135,0.491
			c0.011-0.049,0.021-0.097,0.032-0.146c-0.027,0.108-0.048,0.217-0.063,0.327c-0.002,0.043-0.003,0.085-0.002,0.128
			c0.005,0.043,0.01,0.086,0.015,0.128c0.009,0.043,0.02,0.085,0.03,0.127c0.021,0.063,0.045,0.124,0.07,0.185
			c0.032,0.064,0.065,0.127,0.103,0.189c0.044,0.067,0.091,0.132,0.14,0.196c0.146,0.167,0.303,0.324,0.463,0.479
			c0.088,0.078,0.176,0.153,0.265,0.228c1.122-0.03,2.243,0.004,3.354,0.19c0.77,0.129,1.756,0.418,2.063,1.227
			c0.144,0.376,0.125,0.795-0.069,1.146c-0.221,0.4-0.596,0.688-1.035,0.813c-0.617,0.176-1.259,0.14-1.89,0.071
			c-0.578-0.063-1.141-0.19-1.688-0.389c-0.255-0.092-0.503-0.214-0.748-0.331c-0.238-0.113-0.467-0.237-0.688-0.373
			c-0.221,0.014-0.44,0.032-0.661,0.063c-0.075,0.015-0.149,0.033-0.223,0.054c-0.097,0.033-0.191,0.072-0.284,0.119
			c0.047-0.021,0.092-0.042,0.139-0.063c-0.069,0.035-0.138,0.072-0.205,0.112c-0.045,0.03-0.09,0.062-0.134,0.094
			c-0.002,0.007-0.004,0.015-0.006,0.022c-0.003,0.017-0.006,0.033-0.009,0.05c-0.001,0.002-0.001,0.004-0.001,0.006
			c0.001,0.008,0.002,0.015,0.002,0.022c0.009,0.022,0.017,0.044,0.025,0.066c0.025,0.047,0.05,0.093,0.075,0.14
			c0.029,0.042,0.06,0.084,0.091,0.125c0.042,0.048,0.086,0.094,0.132,0.139c0.097,0.083,0.195,0.162,0.297,0.239
			c0.173,0.114,0.351,0.217,0.534,0.316c0.254,0.123,0.507,0.237,0.768,0.347c0.33,0.106,0.66,0.198,0.998,0.276
			c0.199,0.036,0.396,0.065,0.596,0.09c0.302,0.011,0.602,0.012,0.903,0.003c0.269-0.02,0.534-0.043,0.801-0.078
			c0.389-0.074,0.772-0.165,1.154-0.27c0.611-0.168,1.259,0.263,1.4,0.862c0.15,0.633-0.251,1.233-0.863,1.401
			c-0.589,0.162-1.189,0.303-1.799,0.361c-0.382,0.037-0.772,0.065-1.161,0.065C77.189,44.213,76.947,44.202,76.708,44.175z"/>
		<path fill="#09B1AB" d="M80.4,33.54c-0.56-0.242-0.886-0.961-0.605-1.53c0.478-0.967,0.871-1.974,1.239-2.987
			c0.312-0.926,0.571-1.857,0.787-2.81c0.284-1.462,0.473-2.935,0.628-4.416c0.031-0.42,0.063-0.84,0.078-1.262
			c0.018-0.461,0.017-0.919,0.013-1.38c-0.021-0.361-0.042-0.722-0.08-1.081c-0.04-0.391-0.094-0.776-0.151-1.165
			c-0.042-0.211-0.085-0.422-0.127-0.634c-0.04-0.198-0.104-0.394-0.162-0.589c-0.121-0.358-0.24-0.716-0.386-1.066
			c-0.063-0.13-0.131-0.256-0.203-0.382c-0.076-0.114-0.155-0.223-0.239-0.331c-0.051-0.057-0.104-0.112-0.16-0.165
			c-0.031-0.027-0.064-0.054-0.098-0.08c-0.037-0.023-0.074-0.046-0.11-0.068c0.019,0.009,0.037,0.019,0.057,0.028
			c-0.004-0.002-0.008-0.005-0.011-0.008c-0.03-0.015-0.06-0.028-0.09-0.041c-0.013-0.003-0.024-0.006-0.037-0.01
			c-0.011-0.001-0.021-0.003-0.031-0.004c-0.002,0-0.004,0-0.006,0c-0.002,0-0.004,0-0.005,0c-0.006,0.001-0.012,0.002-0.019,0.004
			c-0.007,0.002-0.015,0.005-0.022,0.008c-0.005,0.003-0.011,0.006-0.016,0.009c-0.028,0.021-0.057,0.041-0.085,0.062
			c-0.02,0.019-0.039,0.038-0.059,0.057c-0.071,0.084-0.139,0.17-0.203,0.259c-0.107,0.168-0.207,0.339-0.302,0.513
			c-0.087,0.18-0.171,0.36-0.252,0.541c0.174,0.327,0.319,0.668,0.441,1.021c0.156,0.449,0.255,0.911,0.358,1.373
			c0.148,0.665,0.225,1.339,0.253,2.02c0.03,0.734,0,1.465-0.042,2.197c-0.035,0.613-0.151,1.221-0.263,1.823
			c-0.131,0.705-0.359,1.394-0.726,2.009c-0.356,0.599-0.981,1.124-1.687,1.22c-0.63,0.084-1.31-0.13-1.754-0.597
			c-0.234-0.245-0.421-0.51-0.574-0.813c-0.177-0.353-0.276-0.751-0.339-1.139c-0.125-0.782-0.086-1.582-0.018-2.368
			c0.058-0.667,0.171-1.335,0.332-1.985c0.088-0.353,0.177-0.705,0.265-1.058c0.084-0.336,0.196-0.667,0.294-0.999
			c0.16-0.543,0.342-1.081,0.53-1.616c0.098-0.277,0.197-0.553,0.301-0.827c-0.133-0.151-0.271-0.295-0.416-0.434
			c-0.133-0.114-0.267-0.224-0.405-0.331c-0.031-0.02-0.063-0.039-0.096-0.058c-0.011-0.005-0.021-0.01-0.032-0.015
			c-0.02,0.003-0.038,0.005-0.058,0.008c-0.013,0.003-0.026,0.007-0.039,0.01c-0.015,0.006-0.028,0.012-0.043,0.019
			c-0.018,0.01-0.036,0.021-0.054,0.031c-0.017,0.013-0.034,0.025-0.052,0.038c-0.021,0.02-0.042,0.04-0.063,0.06
			c-0.05,0.06-0.098,0.12-0.144,0.182c-0.054,0.087-0.104,0.175-0.151,0.265c-0.13,0.274-0.236,0.555-0.342,0.839
			c-0.237,0.715-0.452,1.433-0.652,2.159c-0.2,0.727-0.358,1.466-0.523,2.2c-0.084,0.458-0.168,0.915-0.252,1.372
			c-0.039,0.217-0.053,0.442-0.08,0.663c-0.028,0.239-0.058,0.479-0.086,0.719c-0.031,0.485-0.063,0.97-0.096,1.456
			c-0.017,0.25-0.002,0.506-0.003,0.756c-0.001,0.231-0.002,0.462-0.003,0.694c0.026,0.385,0.053,0.77,0.077,1.154
			c0.024,0.344,0.088,0.69,0.136,1.032c0.073,0.393,0.146,0.784,0.237,1.173c0.1,0.42,0.22,0.834,0.341,1.248
			c0.104,0.341,0.207,0.684,0.336,1.016c0.334,0.51,0.205,1.218-0.292,1.578c-0.515,0.374-1.252,0.251-1.624-0.261
			c-0.232-0.318-0.341-0.707-0.462-1.077c-0.095-0.292-0.185-0.587-0.27-0.883c-0.174-0.593-0.332-1.188-0.444-1.797
			c-0.057-0.299-0.115-0.597-0.155-0.899c-0.041-0.313-0.098-0.627-0.119-0.941c-0.025-0.378-0.052-0.756-0.078-1.134
			c-0.021-0.317-0.007-0.637-0.006-0.955c0.002-0.266-0.011-0.534,0.006-0.8c0.027-0.421,0.056-0.841,0.083-1.262
			c0.04-0.611,0.128-1.22,0.202-1.828c0.039-0.324,0.119-0.649,0.178-0.97c0.052-0.283,0.107-0.563,0.172-0.843
			c0.154-0.681,0.316-1.358,0.485-2.035c0.141-0.565,0.308-1.13,0.492-1.682c0.104-0.314,0.21-0.627,0.325-0.937
			c0.195-0.529,0.438-1.023,0.76-1.487c0.352-0.504,0.919-0.931,1.515-1.093c0.321-0.087,0.66-0.139,0.994-0.1
			c0.376,0.044,0.692,0.176,1.021,0.359c0.254,0.141,0.486,0.334,0.704,0.53c0.248-0.419,0.539-0.808,0.902-1.128
			c0.441-0.389,1.053-0.67,1.651-0.65c0.306,0.011,0.603,0.053,0.89,0.163c0.364,0.14,0.685,0.344,0.979,0.601
			c0.539,0.473,0.954,1.103,1.231,1.76c0.16,0.383,0.289,0.774,0.422,1.168c0.207,0.615,0.337,1.26,0.43,1.902
			c0.095,0.643,0.16,1.285,0.198,1.935c0.075,1.264-0.006,2.532-0.137,3.789c-0.259,2.493-0.659,4.975-1.516,7.339
			c-0.375,1.034-0.774,2.061-1.261,3.047c-0.141,0.284-0.354,0.512-0.655,0.626c-0.132,0.05-0.271,0.075-0.412,0.075
			C80.705,33.636,80.547,33.604,80.4,33.54z M77.816,24.185c0.051-0.085,0.098-0.172,0.141-0.262
			c-0.022,0.045-0.047,0.09-0.069,0.135c0.058-0.123,0.107-0.249,0.15-0.378c-0.018,0.047-0.034,0.094-0.051,0.142
			c0.082-0.255,0.151-0.511,0.213-0.772c0.043-0.233,0.087-0.466,0.13-0.7c0.048-0.259,0.068-0.528,0.099-0.791
			c0.037-0.655,0.066-1.308,0.05-1.965c-0.014-0.292-0.036-0.581-0.069-0.869c-0.065,0.21-0.129,0.421-0.182,0.634
			c-0.099,0.395-0.197,0.79-0.296,1.185c-0.109,0.549-0.192,1.1-0.244,1.657c-0.025,0.38-0.032,0.759-0.022,1.139
			c0.011,0.153,0.025,0.303,0.047,0.455c0.021,0.102,0.045,0.203,0.073,0.304c-0.016-0.048-0.03-0.096-0.045-0.144
			C77.762,24.032,77.787,24.109,77.816,24.185z"/>
		<path fill="#09B1AB" d="M59.278,6.906c-0.667-0.04-1.294-0.219-1.91-0.474c-0.583-0.24-1.159-0.494-1.728-0.766
			c-0.572-0.272-0.863-0.933-0.605-1.53c0.244-0.565,0.959-0.878,1.53-0.604c0.676,0.322,1.361,0.629,2.063,0.894
			c0.148,0.045,0.296,0.086,0.445,0.123c0.073,0.011,0.146,0.021,0.218,0.029c0.014,0.001,0.027,0.002,0.041,0.003
			c0.633,0.038,1.151,0.539,1.137,1.189c-0.014,0.596-0.521,1.138-1.129,1.138C59.319,6.908,59.3,6.907,59.278,6.906z"/>
		<path fill="#09B1AB" d="M91.183,5.368c-0.375-0.517-0.249-1.248,0.261-1.624c0.137-0.101,0.284-0.187,0.428-0.276
			c-0.032,0.02-0.063,0.04-0.096,0.06c0.242-0.151,0.488-0.297,0.738-0.436c0.554-0.308,1.279-0.078,1.576,0.474
			c0.304,0.563,0.08,1.269-0.475,1.576c-0.199,0.111-0.396,0.227-0.592,0.345C93.017,5.491,93.01,5.495,93.002,5.5
			c-0.065,0.042-0.133,0.083-0.195,0.129c-0.2,0.148-0.436,0.218-0.671,0.218C91.771,5.847,91.407,5.678,91.183,5.368z"/>
		<path fill="#09B1AB" d="M94.073,15.157c-0.189-0.008-0.381-0.034-0.57-0.034c-0.635,0-1.15-0.567-1.137-1.189
			c0.015-0.645,0.557-1.136,1.19-1.136c0.158,0,0.316,0.021,0.475,0.029c0.255,0.011,0.509,0.016,0.765,0.015
			c0.481-0.001,0.963-0.01,1.444-0.029c0.634-0.025,1.149,0.586,1.137,1.189c-0.008,0.307-0.139,0.603-0.36,0.814
			c-0.232,0.222-0.516,0.309-0.83,0.322c-0.481,0.019-0.963,0.028-1.444,0.03C94.519,15.168,94.296,15.167,94.073,15.157z"/>
		<path fill="#09B1AB" d="M94.827,26.79c-0.598-0.109-1.195-0.219-1.786-0.356c-0.259-0.061-0.517-0.127-0.774-0.195
			c-0.254-0.068-0.484-0.165-0.67-0.359c-0.175-0.183-0.301-0.432-0.318-0.685c-0.044-0.631,0.388-1.211,1.035-1.278
			c0.164-0.018,0.33,0.003,0.484,0.056c0.372,0.104,0.747,0.195,1.123,0.279c0.418,0.084,0.837,0.163,1.256,0.24
			c0.623,0.114,1.072,0.685,0.975,1.326c-0.083,0.551-0.584,0.991-1.137,0.991C94.952,26.807,94.89,26.802,94.827,26.79z"/>
		<path fill="#09B1AB" d="M92.123,37.894c-0.497-0.382-0.991-0.775-1.461-1.19c-0.269-0.238-0.525-0.483-0.772-0.743
			c-0.381-0.401-0.765-0.867-0.765-1.447c0-0.634,0.566-1.15,1.189-1.137c0.481,0.011,0.877,0.316,1.047,0.733
			c0.016,0.021,0.031,0.042,0.047,0.063c0.185,0.207,0.378,0.403,0.576,0.598c0.516,0.451,1.045,0.885,1.588,1.303
			c0.501,0.387,0.576,1.146,0.186,1.635c-0.229,0.287-0.566,0.433-0.907,0.433C92.595,38.141,92.338,38.059,92.123,37.894z"/>
	</g>
	<g>
		<path fill="#09B1AB" d="M21.756,53.151c-0.635-0.018-1.272-0.079-1.904-0.148c-0.613-0.066-1.232-0.133-1.839-0.249
			c-1.273-0.245-2.559-0.494-3.769-0.972c-0.614-0.243-1.222-0.5-1.799-0.823c-0.257-0.144-0.521-0.278-0.768-0.439
			c-0.366-0.24-0.735-0.477-1.093-0.731c-1.328-0.948-2.559-2.101-3.417-3.5c-0.878-1.426-1.537-3.009-1.856-4.654
			c-0.133-0.688-0.226-1.392-0.249-2.093C5.05,39.161,5.036,38.781,5.023,38.4c-0.018-0.519-0.006-1.035,0.021-1.555
			c0.038-0.746,0.101-1.512,0.246-2.245c0.128-0.65,0.241-1.301,0.416-1.94c0.094-0.344,0.188-0.688,0.281-1.033
			c0.092-0.337,0.215-0.668,0.334-0.997c0.175-0.48,0.366-0.951,0.578-1.415c0.326-0.718,0.723-1.403,1.17-2.052
			c0.484-0.703,1.044-1.346,1.623-1.97c0.244-0.264,0.506-0.511,0.761-0.763c0.192-0.189,0.378-0.383,0.58-0.56
			c0.51-0.445,1.013-0.898,1.544-1.316c0.316-0.248,0.632-0.496,0.947-0.745c0.208-0.163,0.432-0.305,0.649-0.455
			c0.287-0.199,0.574-0.398,0.861-0.597c0.333-0.231,0.701-0.418,1.051-0.623c0.221-0.129,0.437-0.264,0.666-0.379
			c0.383-0.192,0.765-0.384,1.148-0.576c0.608-0.306,1.249-0.56,1.885-0.803c0.606-0.232,1.22-0.408,1.861-0.516
			c0.306-0.051,0.618-0.068,0.929-0.085c0.078-0.015,0.159-0.021,0.241-0.019c1.23,0.038,2.462,0.117,3.688,0.229
			c1.269,0.115,2.516,0.313,3.76,0.584c0.594,0.13,1.178,0.317,1.759,0.494c0.588,0.179,1.17,0.395,1.74,0.625
			c0.614,0.249,1.204,0.535,1.793,0.837c0.236,0.122,0.458,0.275,0.684,0.415c0.272,0.167,0.542,0.353,0.801,0.541
			c0.479,0.35,0.971,0.694,1.411,1.093c0.242,0.22,0.501,0.43,0.729,0.665c0.218,0.223,0.451,0.436,0.651,0.673
			c0.416,0.49,0.844,0.978,1.188,1.522c0.35,0.554,0.704,1.105,1.002,1.688c0.314,0.613,0.595,1.235,0.85,1.875
			c0.238,0.598,0.416,1.213,0.595,1.831c0.078,0.271,0.123,0.555,0.185,0.83c0.036,0.167,0.054,0.34,0.08,0.509
			c0.024,0.163,0.062,0.327,0.075,0.491c0.026,0.328,0.062,0.655,0.074,0.984c0.032,0.9-0.036,1.784-0.188,2.671
			c-0.274,1.616-0.73,3.202-1.46,4.673c-0.278,0.561-0.594,1.104-0.955,1.615c-0.184,0.258-0.357,0.53-0.557,0.776
			c-0.423,0.523-0.845,1.057-1.321,1.534c-0.886,0.888-1.796,1.748-2.775,2.534c-0.98,0.786-1.995,1.528-3.054,2.207
			c-0.285,0.184-0.57,0.366-0.856,0.55c-0.33,0.212-0.678,0.4-1.017,0.598c-1.217,0.708-2.51,1.231-3.87,1.594
			c-0.348,0.093-0.702,0.165-1.054,0.244c-0.202,0.045-0.416,0.108-0.629,0.133c-0.108,0.021-0.219,0.035-0.326,0.053
			c-0.297,0.05-0.593,0.101-0.888,0.151c-0.031,0.007-0.063,0.012-0.095,0.016c-0.037,0.006-0.074,0.013-0.112,0.02
			c-0.029,0.005-0.059,0.008-0.089,0.011c-0.043,0.006-0.086,0.012-0.131,0.018c-0.695,0.087-1.392,0.123-2.09,0.123
			C22.195,53.161,21.976,53.158,21.756,53.151z M23.06,50.829c0.46-0.026,0.916-0.07,1.373-0.126
			c0.012-0.002,0.023-0.003,0.035-0.005c0.271-0.046,0.542-0.092,0.813-0.138c0.199-0.034,0.407-0.088,0.613-0.109
			c0.023-0.005,0.047-0.011,0.07-0.016c0.632-0.142,1.261-0.279,1.883-0.459c0.509-0.162,1.005-0.35,1.492-0.566
			c0.725-0.345,1.41-0.749,2.104-1.152c0.72-0.462,1.431-0.933,2.136-1.417c0.669-0.46,1.301-0.975,1.934-1.482
			c0.354-0.31,0.713-0.616,1.057-0.938c0.412-0.385,0.813-0.778,1.212-1.177c0.303-0.336,0.601-0.672,0.887-1.025
			c0.277-0.342,0.531-0.7,0.786-1.059c0.237-0.37,0.458-0.747,0.663-1.136c0.222-0.45,0.418-0.908,0.595-1.378
			c0.1-0.311,0.198-0.623,0.297-0.934c0.093-0.292,0.15-0.6,0.219-0.899c0.12-0.606,0.24-1.21,0.304-1.826
			c0.031-0.428,0.039-0.854,0.026-1.282c-0.021-0.267-0.043-0.534-0.065-0.802c-0.02-0.244-0.069-0.488-0.11-0.731
			c-0.059-0.263-0.116-0.524-0.175-0.787c-0.05-0.23-0.128-0.459-0.196-0.687c-0.114-0.325-0.225-0.649-0.353-0.969
			c-0.131-0.331-0.271-0.655-0.416-0.979c-0.244-0.475-0.497-0.939-0.761-1.404c-0.127-0.201-0.254-0.402-0.381-0.603
			c-0.153-0.243-0.339-0.47-0.509-0.704c-0.162-0.191-0.323-0.381-0.485-0.572c-0.186-0.221-0.407-0.418-0.609-0.625
			c-0.29-0.262-0.579-0.521-0.882-0.768c-0.319-0.26-0.648-0.5-0.981-0.743c-0.266-0.179-0.531-0.361-0.805-0.53
			c-0.311-0.19-0.625-0.36-0.946-0.527c-0.628-0.28-1.258-0.539-1.903-0.777c-0.922-0.306-1.849-0.576-2.795-0.788
			c-1.08-0.202-2.162-0.344-3.255-0.446c-1.012-0.081-2.024-0.145-3.038-0.179c-0.358,0.023-0.716,0.047-1.072,0.102
			c-0.199,0.04-0.395,0.09-0.59,0.146c-0.76,0.247-1.486,0.566-2.215,0.89c-0.212,0.107-0.425,0.213-0.637,0.32
			c-0.223,0.111-0.457,0.211-0.67,0.337c-0.454,0.267-0.909,0.533-1.363,0.8c-0.461,0.319-0.921,0.638-1.381,0.957
			c-0.202,0.141-0.392,0.307-0.585,0.459c-0.234,0.185-0.47,0.369-0.704,0.554c-0.384,0.335-0.768,0.669-1.15,1.005
			c-0.22,0.192-0.42,0.415-0.627,0.619c-0.235,0.232-0.468,0.463-0.693,0.704c-0.426,0.473-0.83,0.962-1.204,1.479
			c-0.285,0.42-0.544,0.854-0.781,1.303c-0.275,0.558-0.517,1.128-0.731,1.711c-0.25,0.725-0.445,1.462-0.646,2.203
			c-0.063,0.318-0.125,0.635-0.188,0.953c-0.111,0.567-0.188,1.139-0.244,1.716c-0.054,0.672-0.087,1.346-0.063,2.019
			c0.013,0.371,0.025,0.74,0.038,1.11c0.037,0.506,0.089,1.007,0.17,1.508c0.075,0.406,0.166,0.806,0.279,1.202
			c0.168,0.518,0.365,1.023,0.584,1.521c0.227,0.483,0.477,0.953,0.753,1.411c0.187,0.285,0.385,0.558,0.599,0.823
			c0.274,0.317,0.562,0.619,0.866,0.906c0.478,0.425,0.975,0.821,1.492,1.194c0.28,0.184,0.56,0.367,0.839,0.55
			c0.25,0.163,0.523,0.298,0.786,0.441c0.262,0.124,0.524,0.248,0.786,0.371c0.246,0.116,0.508,0.205,0.763,0.302
			c0.316,0.098,0.632,0.196,0.947,0.294c0.34,0.105,0.694,0.173,1.041,0.255c0.529,0.102,1.058,0.204,1.591,0.285
			c0.571,0.086,1.142,0.15,1.716,0.213C21.419,50.8,22.234,50.854,23.06,50.829z"/>
		<path fill="#09B1AB" d="M22.116,33.466c-0.277-0.167-0.444-0.425-0.534-0.729c-0.275-0.935-0.397-1.905-0.471-2.874
			c-0.076-1.027-0.136-2.054-0.136-3.084c0-0.634,0.567-1.15,1.19-1.136c0.645,0.015,1.137,0.556,1.137,1.189
			c0,0.312,0.005,0.623,0.011,0.935c0.049,1.105,0.114,2.211,0.272,3.307c0.069,0.38,0.151,0.753,0.26,1.125
			c0.18,0.608-0.271,1.26-0.862,1.401c-0.088,0.021-0.178,0.031-0.267,0.031C22.507,33.63,22.298,33.574,22.116,33.466z"/>
		<path fill="#09B1AB" d="M27.004,32.521c-0.195-1.048-0.377-2.1-0.558-3.15c-0.102-0.59-0.203-1.18-0.299-1.77
			c-0.042-0.261-0.075-0.522-0.109-0.785c-0.033-0.267-0.063-0.559-0.023-0.826c0.093-0.628,0.7-1.07,1.325-0.975
			c0.582,0.088,1.001,0.612,0.986,1.186c0.001-0.003,0.001-0.006,0.001-0.009c-0.001,0.023-0.001,0.046-0.001,0.069
			c0.044,0.522,0.126,1.036,0.209,1.554c0-0.004-0.001-0.008-0.002-0.012c0.24,1.394,0.476,2.789,0.734,4.18
			c0.056,0.302,0.026,0.599-0.133,0.867c-0.16,0.266-0.427,0.462-0.73,0.534c-0.083,0.02-0.168,0.029-0.253,0.029
			C27.629,33.414,27.104,33.059,27.004,32.521z"/>
		<path fill="#09B1AB" d="M24.591,45.721c-0.508-0.04-1.002-0.138-1.501-0.231c-0.801-0.15-1.599-0.38-2.363-0.655
			c-0.757-0.272-1.489-0.586-2.188-0.987c-0.764-0.439-1.448-1.005-2.074-1.622c-1.444-1.422-2.362-3.321-2.883-5.259
			c-0.118-0.44-0.229-0.88-0.334-1.323c-0.09-0.379-0.166-0.791-0.157-1.182c0.012-0.633,0.557-1.15,1.189-1.136
			c0.631,0.015,1.143,0.55,1.136,1.179c0.007,0.067,0.014,0.134,0.021,0.201c0.14,0.753,0.338,1.493,0.553,2.228
			c0.13,0.404,0.283,0.796,0.455,1.184c0.181,0.376,0.374,0.742,0.589,1.099c0.191,0.295,0.393,0.579,0.611,0.854
			c0.236,0.275,0.485,0.536,0.747,0.787c0.273,0.243,0.556,0.47,0.853,0.683c0.273,0.182,0.555,0.351,0.844,0.509
			c0.471,0.232,0.957,0.429,1.449,0.61c0.586,0.199,1.177,0.353,1.773,0.508c0.478,0.089,0.953,0.181,1.437,0.236
			c0.237,0.016,0.473,0.022,0.712,0.021c0.319-0.017,0.635-0.05,0.952-0.1c0.286-0.057,0.566-0.124,0.847-0.205
			c0.288-0.095,0.569-0.203,0.848-0.323c0.359-0.171,0.707-0.361,1.047-0.568c0.301-0.197,0.592-0.405,0.875-0.627
			c0.222-0.19,0.434-0.388,0.637-0.599c0.154-0.177,0.3-0.357,0.439-0.546c0.179-0.273,0.339-0.554,0.49-0.842
			c0.319-0.657,0.586-1.332,0.835-2.018c0.314-0.947,0.619-1.896,0.842-2.869c0.038-0.198,0.073-0.396,0.102-0.595
			c0.088-0.628,0.703-1.069,1.325-0.975c0.632,0.096,1.063,0.698,0.975,1.325c-0.174,1.234-0.567,2.431-0.958,3.609
			c-0.199,0.603-0.432,1.189-0.674,1.775c-0.267,0.646-0.599,1.276-0.986,1.855c-0.485,0.725-1.113,1.328-1.793,1.868
			c-0.604,0.479-1.282,0.879-1.974,1.22c-0.756,0.372-1.563,0.63-2.39,0.789c-0.531,0.102-1.072,0.152-1.612,0.152
			C25.053,45.748,24.821,45.739,24.591,45.721z"/>
		<path fill="#09B1AB" d="M21.893,84.927c-1.274-0.042-2.556-0.08-3.823-0.224c-0.495-0.057-0.983-0.115-1.473-0.217
			c-0.374-0.076-0.729-0.183-1.084-0.322c-0.343-0.136-0.639-0.379-0.886-0.647c-0.388-0.421-0.628-0.987-0.719-1.548
			c-0.053-0.336-0.075-0.678-0.093-1.016c-0.134-2.49-0.151-4.99-0.155-7.484c-0.002-2.479,0.032-4.957,0.084-7.436
			c0.054-2.592,0.115-5.184,0.223-7.773c0.053-1.27,0.124-2.541,0.231-3.807c0.062-0.734,0.128-1.467,0.198-2.2
			c0.032-0.335,0.041-0.712,0.146-1.032c0.114-0.35,0.363-0.654,0.717-0.782c0.597-0.214,1.273,0.075,1.5,0.675
			c0.094,0.247,0.095,0.515,0.019,0.758c-0.076,0.531-0.115,1.068-0.167,1.601c-0.207,2.492-0.338,4.984-0.416,7.483
			c-0.078,2.51-0.13,5.02-0.169,7.53c-0.06,3.806-0.064,7.615,0.063,11.419c0.024,0.565,0.036,1.139,0.115,1.698
			c0.006,0.024,0.012,0.048,0.018,0.071c0.021,0.062,0.043,0.121,0.067,0.182c0.01,0.018,0.02,0.035,0.029,0.053
			c0.011,0.016,0.021,0.031,0.033,0.046c0.014,0.015,0.027,0.03,0.041,0.046c0.003,0.002,0.005,0.004,0.008,0.006
			c0.015,0.008,0.03,0.016,0.045,0.023c0.038,0.016,0.077,0.03,0.115,0.045c0.15,0.048,0.301,0.088,0.453,0.125
			c0.557,0.109,1.117,0.169,1.68,0.232c1.183,0.082,2.363,0.139,3.548,0.177c1.117,0.036,2.233,0.016,3.349-0.019
			c1.064-0.059,2.124-0.137,3.185-0.246c1.058-0.109,2.108-0.277,3.157-0.445c-0.029,0.004-0.058,0.01-0.087,0.015
			c1.072-0.185,2.14-0.384,3.209-0.583c1.063-0.197,2.132-0.367,3.201-0.537c0.053-0.01,0.104-0.021,0.156-0.033l0,0
			c0.021-0.033,0.041-0.067,0.061-0.102c0.053-0.118,0.1-0.236,0.145-0.355c0.076-0.223,0.14-0.447,0.194-0.676
			c0.06-0.323,0.102-0.646,0.138-0.972c0.041-0.55,0.079-1.097,0.1-1.647c0.026-0.682,0.033-1.363,0.041-2.045
			c0.013-1.186-0.043-2.371-0.086-3.557c-0.132-2.518-0.293-5.031-0.526-7.541c-0.23-2.484-0.494-4.967-0.746-7.448
			c-0.183-1.809-0.364-3.616-0.548-5.423c-0.165-1.634-0.346-3.267-0.497-4.902c-0.058-0.63,0.399-1.212,1.035-1.278
			c0.624-0.065,1.221,0.403,1.278,1.035c0.208,2.256,0.461,4.507,0.684,6.761c0.233,2.37,0.489,4.738,0.728,7.108
			c0.257,2.541,0.512,5.081,0.684,7.629c0.086,1.274,0.156,2.551,0.224,3.827c0.034,0.639,0.062,1.283,0.071,1.922
			c0.009,0.617,0.032,1.236,0.026,1.854c-0.009,0.777-0.021,1.553-0.05,2.328c-0.013,0.313-0.03,0.623-0.054,0.935
			c-0.05,0.655-0.098,1.309-0.24,1.951c-0.167,0.751-0.42,1.524-0.908,2.13c-0.201,0.251-0.484,0.472-0.784,0.592
			c-0.258,0.103-0.514,0.162-0.787,0.207c-0.637,0.101-1.274,0.199-1.911,0.305c-1.174,0.207-2.345,0.436-3.518,0.646
			c-1.291,0.232-2.588,0.42-3.888,0.586c-0.587,0.075-1.178,0.124-1.769,0.17c-0.63,0.049-1.262,0.096-1.894,0.114
			c-0.715,0.022-1.429,0.036-2.142,0.036C22.945,84.951,22.419,84.943,21.893,84.927z"/>
		<path fill="#09B1AB" d="M44.174,49.406c-0.923-0.031-1.817-0.226-2.68-0.55c-0.791-0.297-1.572-0.686-2.271-1.162
			c-0.527-0.359-0.997-0.781-1.456-1.219c-0.032-0.026-0.064-0.052-0.098-0.077c0.004,0.003,0.009,0.006,0.014,0.008
			c-0.297-0.213-0.489-0.556-0.479-0.957c0.014-0.614,0.558-1.176,1.189-1.136c0.328,0.021,0.571,0.144,0.825,0.344
			c0.201,0.157,0.384,0.351,0.568,0.529c0.229,0.197,0.461,0.383,0.705,0.561c0.263,0.175,0.532,0.331,0.813,0.477
			c0.411,0.203,0.828,0.387,1.258,0.55c0.204,0.067,0.408,0.124,0.617,0.174c0.239,0.046,0.478,0.083,0.72,0.11
			c0.36,0.027,0.721,0.035,1.082,0.027c0.365-0.02,0.726-0.056,1.087-0.109c0.473-0.084,0.937-0.196,1.397-0.331
			c0.533-0.171,1.054-0.365,1.569-0.582c0.356-0.167,0.713-0.333,1.07-0.501c0.169-0.08,0.331-0.187,0.493-0.277
			c0.197-0.11,0.394-0.22,0.59-0.331c-0.017,0.011-0.034,0.022-0.052,0.033c0.325-0.205,0.65-0.409,0.977-0.612
			c-0.044,0.027-0.088,0.055-0.131,0.082c0.317-0.199,0.621-0.42,0.914-0.653c0.349-0.297,0.674-0.613,0.986-0.947
			c0.479-0.535,0.912-1.104,1.345-1.675c-0.004,0.006-0.009,0.013-0.013,0.02c0.289-0.417,0.581-0.832,0.837-1.27
			c0.272-0.469,0.535-0.94,0.786-1.421c0.256-0.529,0.495-1.063,0.7-1.615c0.013-0.038,0.025-0.075,0.039-0.113
			c0.104-0.3,0.282-0.551,0.567-0.703c0.265-0.144,0.582-0.176,0.872-0.094c0.585,0.167,1.003,0.84,0.797,1.439
			c-0.291,0.844-0.653,1.648-1.063,2.442c-0.374,0.727-0.787,1.443-1.253,2.116c-0.271,0.391-0.546,0.776-0.834,1.156
			c-0.258,0.34-0.534,0.665-0.808,0.993c-0.629,0.757-1.37,1.427-2.178,1.988c-0.446,0.31-0.916,0.588-1.376,0.877
			c0.044-0.028,0.087-0.056,0.131-0.083c-0.531,0.334-1.09,0.633-1.657,0.899c-0.425,0.199-0.848,0.4-1.28,0.577
			c-0.901,0.368-1.84,0.652-2.795,0.834c-0.688,0.13-1.387,0.188-2.086,0.188C44.468,49.414,44.321,49.411,44.174,49.406z"/>
		<path fill="#09B1AB" d="M59.017,35.987c0.585,0.167,1.004,0.839,0.797,1.439c0,0.001,0,0.001-0.001,0.002
			c-0.146,0.066-0.302,0.097-0.458,0.097c-0.209,0-0.419-0.057-0.609-0.163c-0.19-0.106-0.364-0.253-0.543-0.379
			c-0.161-0.116-0.321-0.231-0.481-0.347c-0.021-0.016-0.042-0.031-0.062-0.046c0.034-0.068,0.074-0.134,0.119-0.194
			c0.002-0.002,0.004-0.004,0.006-0.006c0.016-0.022,0.034-0.043,0.053-0.064c0.01-0.012,0.02-0.022,0.03-0.034
			c0.023-0.025,0.049-0.049,0.074-0.072c0.013-0.01,0.026-0.021,0.039-0.031c0.021-0.017,0.043-0.034,0.065-0.048
			c0.015-0.011,0.03-0.021,0.047-0.03c0.017-0.011,0.033-0.021,0.052-0.03c0.037-0.02,0.076-0.038,0.115-0.053
			C58.499,35.93,58.768,35.916,59.017,35.987z"/>
		<path fill="#09B1AB" d="M14.129,111.865c-0.678-0.066-1.325-0.328-1.906-0.672c-1.202-0.713-1.891-2.23-1.717-3.604
			c0.079-0.629,0.286-1.229,0.653-1.749c0.192-0.273,0.409-0.526,0.671-0.737c0.257-0.208,0.527-0.362,0.832-0.491
			c0.286-0.123,0.627-0.19,0.935-0.229c0.338-0.043,0.679-0.059,1.018-0.022c0.772,0.083,1.502,0.337,2.201,0.668
			c0.423,0.2,0.845,0.426,1.241,0.684c0.031-1.137,0.047-2.274,0.105-3.409c0.093-1.768,0.216-3.535,0.369-5.297
			c0,0.002,0,0.004,0,0.007c0.189-2.202,0.388-4.403,0.601-6.603c0.104-1.08,0.208-2.16,0.316-3.239
			c0.055-0.55,0.115-1.099,0.177-1.647c0.047-0.42,0.091-0.839,0.169-1.253c0.076-0.403,0.218-0.769,0.553-1.022
			c0.506-0.383,1.259-0.244,1.624,0.261c0.25,0.345,0.276,0.776,0.12,1.14c-0.003,0.012-0.006,0.024-0.009,0.037
			c-0.109,0.596-0.159,1.204-0.227,1.807c-0.043,0.383-0.082,0.768-0.12,1.15c-0.088,0.893-0.174,1.785-0.262,2.678
			c-0.182,1.879-0.356,3.76-0.521,5.642c0.002-0.023,0.004-0.046,0.006-0.069c-0.038,0.449-0.077,0.899-0.116,1.35
			c0-0.008,0.001-0.016,0.002-0.023c-0.002,0.014-0.003,0.028-0.004,0.043c-0.003,0.035-0.006,0.07-0.01,0.105
			c0.003-0.023,0.005-0.045,0.007-0.067c-0.175,2.118-0.331,4.241-0.405,6.366c-0.037,1.055-0.06,2.11-0.087,3.166
			c-0.011,0.389-0.045,0.762-0.136,1.141c-0.033,0.137-0.107,0.28-0.198,0.406c-0.002,0.252-0.084,0.504-0.247,0.715
			c-0.36,0.467-0.758,0.904-1.168,1.326c-0.435,0.447-0.951,0.813-1.528,1.051c-0.519,0.216-1.077,0.335-1.637,0.388
			c-0.235,0.022-0.47,0.034-0.704,0.034C14.528,111.893,14.329,111.884,14.129,111.865z M14.766,109.575
			c0.281-0.017,0.558-0.046,0.836-0.089c0.105-0.021,0.21-0.045,0.315-0.07c0.106-0.035,0.211-0.074,0.316-0.117
			c0.077-0.037,0.152-0.077,0.228-0.119c0.09-0.061,0.177-0.124,0.261-0.19c0.185-0.165,0.356-0.342,0.525-0.522
			c0.084-0.092,0.167-0.185,0.248-0.278c-0.165-0.132-0.332-0.261-0.503-0.386c-0.314-0.209-0.64-0.396-0.973-0.574
			c-0.267-0.133-0.536-0.253-0.815-0.359c-0.16-0.052-0.32-0.098-0.483-0.14c-0.129-0.024-0.256-0.046-0.386-0.062
			c-0.068-0.002-0.138-0.004-0.206-0.002c-0.078,0.005-0.156,0.013-0.234,0.023c-0.126,0.024-0.249,0.053-0.373,0.086
			c-0.021,0.008-0.043,0.016-0.063,0.023c-0.025,0.015-0.051,0.029-0.076,0.043c-0.027,0.02-0.056,0.039-0.082,0.061
			c-0.026,0.025-0.053,0.051-0.079,0.076c-0.064,0.076-0.126,0.152-0.185,0.233c-0.024,0.038-0.047,0.075-0.068,0.114
			c-0.025,0.053-0.048,0.105-0.068,0.16c-0.021,0.065-0.04,0.132-0.057,0.199c-0.014,0.07-0.024,0.141-0.033,0.212
			c-0.004,0.063-0.005,0.128-0.004,0.192c0.004,0.049,0.009,0.098,0.016,0.145c0.019,0.099,0.043,0.195,0.073,0.289
			c0.002,0.005,0.004,0.01,0.006,0.014c-0.009-0.027-0.017-0.055-0.025-0.082c0.021,0.055,0.043,0.109,0.065,0.164
			c0.026,0.054,0.056,0.105,0.086,0.158c0.049,0.074,0.102,0.146,0.157,0.217c0.029,0.032,0.059,0.064,0.09,0.096
			c0.026,0.021,0.053,0.041,0.079,0.062c0.104,0.067,0.209,0.129,0.317,0.188c0.063,0.03,0.128,0.059,0.193,0.085
			c0.113,0.036,0.227,0.068,0.342,0.097c0.115,0.021,0.23,0.037,0.346,0.05C14.623,109.574,14.694,109.576,14.766,109.575z"/>
		<path fill="#09B1AB" d="M38.174,110.756c-0.563-0.158-1.105-0.393-1.629-0.648c-0.588-0.287-1.144-0.635-1.654-1.043
			c-0.138-0.109-0.244-0.246-0.317-0.396c-0.148-0.094-0.283-0.213-0.372-0.346c-0.081-0.121-0.168-0.238-0.217-0.377
			c-0.048-0.131-0.087-0.26-0.121-0.395c-0.036-0.146-0.065-0.293-0.098-0.439c-0.126-0.578-0.223-1.158-0.306-1.744
			c-0.336-2.4-0.582-4.814-0.854-7.225c-0.271-2.393-0.542-4.783-0.813-7.176c-0.133-1.182-0.258-2.364-0.379-3.547
			c-0.053-0.507-0.105-1.018-0.135-1.525c-0.019-0.313-0.036-0.625-0.053-0.936c-0.019-0.317-0.03-0.648,0.017-0.963
			c0.024-0.153,0.074-0.327,0.162-0.455c0.18-0.263,0.413-0.459,0.729-0.535c0.294-0.068,0.609-0.02,0.867,0.135
			c0.418,0.25,0.655,0.795,0.544,1.271c-0.004,0.122-0.004,0.243-0.001,0.364c0.146,2.543,0.465,5.073,0.752,7.604
			c0.277,2.436,0.555,4.873,0.826,7.311c0.12,1.074,0.242,2.148,0.371,3.223c0.116,0.975,0.229,1.953,0.389,2.922
			c0.016,0.088,0.033,0.175,0.05,0.262c0.95-0.718,1.816-1.553,2.889-2.094c1.212-0.609,2.666-0.561,3.818,0.168
			c0.627,0.396,1.033,1.035,1.319,1.703c0.145,0.34,0.207,0.721,0.24,1.086c0.039,0.418,0.01,0.846-0.066,1.258
			c-0.264,1.433-1.455,2.512-2.854,2.813c-0.299,0.063-0.602,0.092-0.905,0.092C39.629,111.121,38.881,110.955,38.174,110.756z
			 M40.458,108.786c0.118-0.007,0.234-0.019,0.353-0.034c0.052-0.012,0.104-0.023,0.154-0.038c0.092-0.032,0.18-0.069,0.267-0.113
			c-0.047,0.021-0.093,0.042-0.139,0.063c0.104-0.055,0.205-0.113,0.304-0.176c-0.009,0.007-0.018,0.014-0.026,0.021
			c0.011-0.008,0.021-0.016,0.031-0.024c0.017-0.011,0.034-0.022,0.051-0.034c-0.015,0.01-0.029,0.019-0.044,0.027
			c0.017-0.013,0.031-0.025,0.047-0.039c-0.017,0.014-0.034,0.028-0.052,0.043c-0.027,0.017-0.055,0.034-0.082,0.051
			c0.053-0.038,0.104-0.075,0.156-0.113c0.035-0.031,0.068-0.063,0.102-0.096c0.031-0.041,0.063-0.08,0.095-0.12
			c0.02-0.031,0.038-0.063,0.057-0.095c0.024-0.057,0.049-0.112,0.072-0.168c-0.01,0.029-0.021,0.06-0.031,0.09
			c-0.012,0.021-0.022,0.043-0.033,0.064c0.011-0.02,0.021-0.039,0.03-0.059c-0.005,0.016-0.011,0.031-0.016,0.046
			c0.007-0.018,0.014-0.034,0.02-0.052c0.009-0.018,0.017-0.034,0.025-0.051c-0.008,0.014-0.016,0.029-0.023,0.043
			c0.029-0.079,0.054-0.16,0.074-0.242c0.011-0.059,0.021-0.119,0.027-0.18c0.007-0.144,0.008-0.285,0.005-0.43
			c-0.005-0.057-0.01-0.112-0.015-0.169c-0.014-0.066-0.029-0.133-0.047-0.198c-0.021-0.064-0.046-0.127-0.072-0.189
			c-0.033-0.067-0.068-0.133-0.106-0.198c-0.036-0.048-0.071-0.097-0.107-0.146c-0.026-0.029-0.054-0.058-0.082-0.086
			c-0.029-0.022-0.058-0.045-0.086-0.068c-0.027-0.018-0.056-0.034-0.083-0.052c0.017,0.009,0.033,0.017,0.05,0.025
			c-0.002-0.001-0.005-0.003-0.007-0.005c-0.058-0.029-0.117-0.057-0.178-0.08c-0.091-0.029-0.183-0.055-0.274-0.078
			c-0.059-0.01-0.118-0.02-0.177-0.025c-0.058-0.004-0.115-0.006-0.173-0.005c-0.061,0.005-0.121,0.011-0.182,0.021
			c-0.049,0.01-0.099,0.021-0.146,0.033c-0.106,0.037-0.209,0.078-0.313,0.121c-0.128,0.064-0.253,0.133-0.377,0.207
			c-0.542,0.355-1.044,0.768-1.546,1.176c-0.193,0.157-0.388,0.313-0.586,0.463c0.044,0.024,0.087,0.048,0.131,0.071
			c0.294,0.142,0.59,0.271,0.893,0.392c0.259,0.088,0.518,0.167,0.781,0.242c0.282,0.06,0.562,0.114,0.849,0.148
			C40.171,108.781,40.313,108.785,40.458,108.786z"/>
		<path fill="#09B1AB" d="M10.723,79.451c-0.381-0.525-0.239-1.237,0.261-1.625c0.153-0.118,0.303-0.238,0.453-0.359
			c0.406-0.348,0.792-0.712,1.162-1.098c0.077-0.087,0.152-0.174,0.226-0.264c-0.108-0.057-0.217-0.113-0.325-0.169
			c0.045,0.023,0.09,0.046,0.135,0.069c-2.2-1.115-4.449-2.134-6.616-3.313c-0.543-0.295-1.08-0.603-1.601-0.938
			c-0.394-0.253-0.781-0.51-1.16-0.785c-0.688-0.501-1.288-1.101-1.826-1.758c-0.484-0.592-0.841-1.271-1.125-1.978
			c-0.295-0.73-0.393-1.562-0.222-2.333c0.217-0.974,0.773-1.871,1.372-2.66c0.371-0.489,0.744-0.979,1.142-1.445
			c0.234-0.275,0.461-0.561,0.708-0.824c0.252-0.268,0.504-0.534,0.755-0.801c0.375-0.398,0.772-0.783,1.177-1.15
			c0.45-0.41,0.897-0.824,1.357-1.226c1.036-0.903,2.079-1.793,3.172-2.627c1.008-0.77,2.054-1.487,3.103-2.2
			c0.352-0.239,0.702-0.482,1.068-0.699c0.306-0.18,0.61-0.374,0.942-0.5c0.592-0.227,1.277,0.083,1.501,0.675
			c0.225,0.592-0.082,1.272-0.673,1.499c-0.219,0.107-0.427,0.233-0.637,0.358c-1.034,0.668-2.043,1.375-3.046,2.088
			c-0.965,0.686-1.878,1.432-2.789,2.186c-0.779,0.677-1.55,1.36-2.313,2.055c-0.674,0.613-1.301,1.27-1.925,1.933
			c-0.617,0.726-1.213,1.458-1.79,2.216C3,64.093,2.795,64.404,2.614,64.735c-0.066,0.135-0.127,0.27-0.184,0.407
			c-0.03,0.096-0.058,0.189-0.082,0.285c-0.008,0.05-0.015,0.1-0.021,0.149c-0.003,0.046-0.004,0.092-0.004,0.138
			c0.006,0.054,0.011,0.107,0.016,0.162c0.025,0.131,0.055,0.259,0.09,0.388c0.054,0.149,0.112,0.295,0.175,0.44
			c0.093,0.194,0.191,0.382,0.3,0.567c0.15,0.229,0.311,0.446,0.481,0.66c0.194,0.222,0.396,0.433,0.609,0.636
			c0.318,0.28,0.649,0.539,0.994,0.785c1.055,0.723,2.181,1.328,3.313,1.92c1.677,0.844,3.373,1.65,5.051,2.493
			c0.478,0.239,0.959,0.474,1.396,0.778c0.202,0.141,0.366,0.385,0.475,0.602c0.104,0.207,0.172,0.449,0.166,0.683
			c-0.006,0.249-0.034,0.5-0.133,0.731c-0.114,0.269-0.25,0.521-0.427,0.756c-0.691,0.921-1.576,1.692-2.482,2.395
			c-0.194,0.15-0.428,0.221-0.661,0.221C11.316,79.932,10.945,79.758,10.723,79.451z"/>
		<path fill="#09B1AB" d="M58.145,36.08c0.037-0.02,0.076-0.038,0.115-0.053c-0.124,0.162-0.291,0.289-0.481,0.369
			C57.875,36.269,57.994,36.16,58.145,36.08z"/>
		<path fill="#09B1AB" d="M58.375,37.891c-0.767-0.068-1.211-1.006-0.873-1.664c0.139-0.271,0.317-0.518,0.493-0.766
			c0.347-0.503,0.68-1.019,0.988-1.545c0.176-0.298,0.336-0.605,0.515-0.902c0.216-0.357,0.468-0.696,0.712-1.035
			c0.369-0.515,1.157-0.566,1.635-0.186c0.242,0.193,0.399,0.48,0.432,0.788c0.033,0.313-0.065,0.595-0.247,0.847
			c-0.078,0.109-0.155,0.219-0.233,0.33c-0.38,0.556-0.686,1.153-1.038,1.726c-0.316,0.511-0.652,1.01-0.995,1.502
			c-0.051,0.074-0.102,0.149-0.149,0.226c-0.083,0.187-0.215,0.351-0.382,0.473c-0.213,0.154-0.45,0.214-0.702,0.214
			C58.479,37.898,58.427,37.896,58.375,37.891z"/>
		<path fill="#09B1AB" d="M57.33,37.813c-0.277-0.276-0.374-0.681-0.431-1.055c-0.042-0.273-0.072-0.549-0.093-0.824
			c-0.039-0.529-0.062-1.059-0.079-1.588c-0.035-1.006-0.045-2.014-0.068-3.02c-0.016-0.634,0.578-1.15,1.189-1.136
			c0.307,0.007,0.603,0.137,0.814,0.359c0.219,0.23,0.314,0.518,0.321,0.831c0.026,1.141,0.044,2.282,0.082,3.423
			c0.027,0.555,0.058,1.111,0.139,1.661c0,0.003,0.001,0.006,0.002,0.009c0.229,0.444,0.137,1.026-0.232,1.379
			c-0.224,0.213-0.508,0.316-0.792,0.316C57.874,38.167,57.564,38.046,57.33,37.813z"/>
		<path fill="#09B1AB" d="M58.155,38.546c-0.424-0.444-0.439-1.228,0.038-1.645c0.495-0.433,1.076-0.772,1.619-1.14
			c0.631-0.425,1.259-0.853,1.885-1.285c1.175-0.808,2.348-1.616,3.523-2.42c0.523-0.358,1.245-0.263,1.625,0.261
			c0.364,0.502,0.263,1.267-0.261,1.624c-1.137,0.778-2.271,1.558-3.406,2.34c-0.619,0.426-1.241,0.853-1.865,1.273
			c-0.543,0.366-1.117,0.706-1.624,1.121c0.021-0.017,0.042-0.034,0.063-0.052c-0.228,0.181-0.502,0.275-0.774,0.275
			C58.68,38.898,58.384,38.785,58.155,38.546z"/>
		<path fill="#09B1AB" d="M64.21,40.646c-0.942-0.133-1.877-0.313-2.811-0.497c-0.506-0.1-1.014-0.204-1.515-0.331
			c-0.431-0.109-0.846-0.261-1.251-0.443c-0.385-0.172-0.68-0.441-0.79-0.861c-0.16-0.613,0.256-1.258,0.863-1.401
			c0.313-0.074,0.623-0.012,0.875,0.146c-0.003-0.003-0.005-0.006-0.007-0.009c-0.042-0.021-0.083-0.043-0.125-0.064
			c0.184,0.093,0.372,0.173,0.564,0.246c0.398,0.13,0.803,0.222,1.21,0.313c1.108,0.223,2.217,0.446,3.335,0.604
			c0.628,0.087,1.07,0.704,0.976,1.325c-0.087,0.578-0.598,0.986-1.163,0.986C64.318,40.658,64.265,40.654,64.21,40.646z"/>
		<path fill="#09B1AB" d="M57.082,38.664c-0.757-0.384-1.396-1-2.026-1.56c-0.651-0.578-1.303-1.157-1.939-1.75
			c-0.464-0.433-0.4-1.227,0.038-1.645c0.222-0.211,0.522-0.329,0.83-0.322c0.319,0.007,0.585,0.146,0.814,0.36
			c0.132,0.124,0.266,0.247,0.399,0.369c-0.038-0.036-0.077-0.071-0.116-0.107c0.471,0.429,0.946,0.853,1.422,1.275
			c0.47,0.417,0.94,0.824,1.445,1.197c0.06,0.039,0.119,0.076,0.181,0.111c-0.026-0.014-0.054-0.028-0.08-0.042
			c0.264,0.143,0.473,0.344,0.582,0.633c0.106,0.281,0.1,0.6-0.02,0.875c-0.18,0.417-0.633,0.71-1.086,0.71
			C57.375,38.768,57.224,38.735,57.082,38.664z"/>
	</g>
</g>
<g>
	<path fill="#09B1AB" d="M173.584,25.993c-0.157-0.482-0.326-0.952-0.521-1.417c-0.152-0.304-0.311-0.6-0.479-0.895
		c-0.604-0.925-1.269-1.8-1.968-2.656c-0.426-0.49-0.869-0.958-1.336-1.408c-0.443-0.388-0.9-0.747-1.38-1.088
		c-0.388-0.262-0.78-0.506-1.188-0.734c-0.508-0.252-1.024-0.472-1.557-0.671c-0.838-0.289-1.683-0.553-2.546-0.757
		c-0.753-0.157-1.511-0.265-2.275-0.342c-1.263-0.102-2.528-0.149-3.792-0.197c-0.079-0.003-0.155-0.014-0.231-0.031
		c-0.187,0.04-0.381,0.034-0.575-0.006c0.009,0.002,0.017,0.004,0.024,0.006c-0.071-0.013-0.141-0.022-0.213-0.031
		c-0.135-0.007-0.268-0.009-0.402-0.008c-0.418,0.025-0.825,0.083-1.235,0.149c-0.259,0.062-0.518,0.125-0.777,0.187
		c-0.262,0.078-0.527,0.149-0.779,0.249c-0.316,0.126-0.636,0.252-0.953,0.378c-0.318,0.154-0.636,0.307-0.953,0.462
		c-0.159,0.077-0.311,0.18-0.464,0.269c-0.163,0.095-0.328,0.191-0.492,0.286c-0.429,0.289-0.858,0.574-1.272,0.886
		c-0.425,0.32-0.838,0.651-1.249,0.989c-0.26,0.241-0.519,0.483-0.778,0.724c-0.224,0.208-0.426,0.448-0.633,0.677
		c-0.218,0.271-0.437,0.542-0.656,0.812c-0.183,0.227-0.347,0.472-0.516,0.71c-0.143,0.219-0.287,0.44-0.431,0.66
		c-0.146,0.224-0.271,0.466-0.402,0.698c-0.104,0.213-0.207,0.427-0.313,0.641c-0.116,0.237-0.204,0.492-0.303,0.739
		c-0.133,0.402-0.264,0.804-0.377,1.214c-0.107,0.394-0.203,0.79-0.299,1.188c-0.081,0.427-0.159,0.852-0.222,1.283
		c-0.063,0.441-0.11,0.884-0.154,1.328c-0.015,0.314-0.03,0.628-0.048,0.943c-0.016,0.31,0,0.626,0.004,0.938
		c0.029,0.487,0.061,0.97,0.119,1.457c0.06,0.49,0.138,0.977,0.218,1.464c0,0.002,0.001,0.004,0.001,0.006
		c-0.132-0.042-0.264-0.083-0.396-0.124c-0.769-0.236-1.53-0.491-2.292-0.748c-0.051-0.339-0.091-0.68-0.111-1.021
		c-0.042-0.698-0.093-1.402-0.058-2.102c0.036-0.706,0.067-1.415,0.169-2.115c0.194-1.361,0.463-2.706,0.896-4.014
		c0.11-0.335,0.225-0.664,0.357-0.99c0.145-0.353,0.302-0.69,0.469-1.033c0.302-0.615,0.671-1.185,1.044-1.757
		c0.396-0.607,0.863-1.168,1.319-1.731c0.222-0.275,0.483-0.525,0.725-0.784c0.238-0.256,0.501-0.487,0.757-0.726
		c0.5-0.465,1.042-0.886,1.586-1.295c0.234-0.176,0.467-0.351,0.71-0.514c0.304-0.205,0.603-0.424,0.92-0.609
		c0.322-0.187,0.645-0.374,0.966-0.561c0.32-0.185,0.674-0.327,1.007-0.488c0.609-0.295,1.258-0.511,1.903-0.714
		c0.299-0.095,0.598-0.172,0.903-0.246c0.337-0.082,0.677-0.134,1.019-0.191c0.728-0.122,1.493-0.141,2.217,0.008
		c0.102-0.024,0.206-0.035,0.312-0.03c1.26,0.048,2.523,0.092,3.779,0.196c1.277,0.107,2.535,0.312,3.771,0.66
		c1.269,0.356,2.52,0.784,3.693,1.385c0.613,0.313,1.181,0.696,1.742,1.091c0.537,0.377,1.046,0.791,1.522,1.243
		c0.939,0.893,1.781,1.889,2.55,2.931c0.4,0.543,0.814,1.09,1.149,1.678c0.345,0.606,0.648,1.225,0.89,1.881
		c0.239,0.651,0.43,1.319,0.612,1.987c0.179,0.65,0.322,1.317,0.408,1.985c0.181,1.403,0.166,2.808-0.037,4.207
		c-0.099,0.675-0.238,1.34-0.39,2.005c-0.073,0.319-0.168,0.63-0.26,0.945c-0.027,0.094-0.058,0.189-0.092,0.279
		c-0.002,0.008-0.005,0.015-0.008,0.022c-0.063,0.177-0.126,0.354-0.188,0.532c-0.014,0.048-0.032,0.097-0.053,0.145v0.001
		c-0.001,0.002-0.002,0.005-0.003,0.007c-0.228,0.624-0.511,1.221-0.797,1.818c-0.304,0.637-0.688,1.228-1.072,1.816
		c-0.378,0.578-0.823,1.112-1.258,1.649c-0.416,0.514-0.87,1-1.331,1.473c-0.963,0.988-2.043,1.868-3.225,2.584
		c-0.567,0.343-1.138,0.701-1.742,0.979c-0.354,0.162-0.706,0.347-1.069,0.489c-0.35,0.137-0.7,0.272-1.05,0.409
		c-0.33,0.129-0.674,0.224-1.014,0.323c-0.433,0.127-0.881,0.225-1.328,0.293c-0.322,0.05-0.647,0.116-0.973,0.15
		c-0.674,0.069-1.356,0.152-2.036,0.152c-0.012,0-0.023,0-0.035,0c-0.688-0.003-1.368-0.025-2.054-0.09
		c-0.68-0.066-1.358-0.146-2.033-0.246c-0.674-0.1-1.35-0.204-2.012-0.36c-0.671-0.159-1.351-0.307-2.004-0.531
		c-0.336-0.114-0.672-0.229-1.008-0.343c-0.378-0.129-0.746-0.292-1.118-0.44c-1.24-0.495-2.391-1.222-3.432-2.05
		c-0.166-0.132-0.329-0.267-0.489-0.405c0.235-0.141,0.47-0.283,0.703-0.427c0.505-0.333,1.004-0.673,1.493-1.028
		c0.17,0.134,0.343,0.263,0.52,0.388c0.451,0.307,0.917,0.585,1.401,0.838c0.564,0.275,1.141,0.505,1.724,0.737
		c0.498,0.169,0.993,0.336,1.498,0.481c0.475,0.137,0.951,0.249,1.431,0.362c0.692,0.127,1.385,0.243,2.081,0.347
		c0.58,0.086,1.163,0.14,1.745,0.196c0.256,0.017,0.513,0.032,0.77,0.048c0.191,0.012,0.387,0.009,0.58,0.006
		c0.085-0.001,0.17-0.003,0.253-0.003c0.435-0.022,0.865-0.047,1.297-0.091c0.445-0.046,0.886-0.112,1.327-0.181
		c0.424-0.081,0.84-0.177,1.254-0.295c0.546-0.175,1.075-0.386,1.608-0.594c0.422-0.192,0.841-0.385,1.25-0.603
		c0.441-0.236,0.867-0.489,1.295-0.748c0.258-0.174,0.515-0.35,0.771-0.524c0.255-0.173,0.492-0.376,0.734-0.566
		c0.25-0.223,0.499-0.447,0.748-0.67c0.266-0.238,0.506-0.514,0.753-0.773c0.293-0.334,0.59-0.667,0.87-1.012
		c0.328-0.405,0.64-0.816,0.951-1.232c0.158-0.242,0.316-0.485,0.476-0.728c0.166-0.254,0.3-0.532,0.445-0.799
		c0.128-0.267,0.255-0.533,0.382-0.801c0.133-0.277,0.237-0.571,0.355-0.854c-0.007,0.019-0.013,0.036-0.02,0.055
		c0.008-0.022,0.016-0.044,0.024-0.066c0.031-0.104,0.072-0.205,0.108-0.306c0.033-0.095,0.068-0.189,0.102-0.285
		c0.193-0.542,0.317-1.105,0.444-1.666c0.067-0.358,0.138-0.715,0.19-1.076c0.054-0.379,0.096-0.757,0.131-1.138
		c0.019-0.457,0.026-0.908,0.021-1.365c-0.032-0.445-0.076-0.883-0.133-1.327c-0.084-0.441-0.176-0.877-0.28-1.315
		C173.818,26.757,173.699,26.374,173.584,25.993z"/>
	<path fill="#09B1AB" d="M152.361,30.521c-0.146-1.372-0.189-2.758-0.223-4.137c-0.018-0.685-0.01-1.372-0.005-2.057
		c0.002-0.346,0.007-0.693,0.012-1.039c0.002-0.153,0.006-0.304,0.009-0.457c0.003-0.171,0.001-0.36,0.059-0.523
		c0.114-0.325,0.305-0.596,0.614-0.762c0.287-0.156,0.631-0.191,0.944-0.102c0.583,0.166,1.019,0.802,0.903,1.409
		c-0.057,1.587-0.04,3.183,0.02,4.769c0.039,0.88,0.08,1.76,0.173,2.636c0.073,0.682-0.438,1.313-1.121,1.385
		c-0.043,0.004-0.085,0.006-0.127,0.006C152.986,31.648,152.43,31.161,152.361,30.521z"/>
	<path fill="#09B1AB" d="M159.547,31.845c-0.675-0.016-1.26-0.604-1.23-1.29c0.063-1.395,0.134-2.789,0.206-4.183
		c0.033-0.644,0.065-1.288,0.106-1.931c0.023-0.375,0.049-0.75,0.078-1.126c0.026-0.323,0.044-0.664,0.134-0.978
		c0.19-0.66,0.899-1.052,1.559-0.863c0.645,0.185,1.034,0.866,0.877,1.512c-0.022,0.155-0.039,0.31-0.056,0.464
		c-0.091,1.187-0.147,2.375-0.209,3.562c-0.061,1.2-0.123,2.401-0.175,3.601c-0.03,0.677-0.577,1.232-1.261,1.232
		C159.566,31.846,159.557,31.845,159.547,31.845z"/>
	<path fill="#09B1AB" d="M154.419,43.409c-0.587-0.33-0.946-0.946-1.17-1.557c-0.232-0.633-0.368-1.304-0.508-1.963
		c-0.17-0.792-0.151-1.605-0.046-2.405c0.112-0.86,0.408-1.716,0.858-2.457c0.398-0.659,1.059-1.287,1.876-1.269
		c0.166,0.004,0.324,0.041,0.47,0.105c0.427-0.216,0.96-0.174,1.361,0.132c0.477,0.363,0.842,0.86,1.124,1.383
		c0.291,0.539,0.495,1.092,0.619,1.691c0.139,0.676,0.166,1.359,0.09,2.044c-0.074,0.666-0.207,1.337-0.438,1.967
		c-0.212,0.582-0.469,1.129-0.85,1.622c-0.406,0.525-1.06,0.88-1.698,1.023c-0.143,0.032-0.284,0.046-0.425,0.046
		C155.241,43.772,154.807,43.626,154.419,43.409z M155.709,41.212c0.018-0.009,0.034-0.019,0.052-0.029
		c0.022-0.017,0.046-0.034,0.068-0.051c0.008-0.007,0.016-0.015,0.023-0.022c0.022-0.03,0.045-0.059,0.068-0.089
		c0.033-0.052,0.064-0.104,0.095-0.158c0.11-0.226,0.204-0.455,0.293-0.69c0.061-0.208,0.116-0.416,0.167-0.626
		c0.051-0.265,0.094-0.53,0.125-0.798c0.013-0.193,0.019-0.384,0.017-0.578c-0.011-0.127-0.024-0.252-0.04-0.378
		c-0.038-0.201-0.081-0.401-0.133-0.599c-0.038-0.108-0.079-0.213-0.125-0.319c-0.084-0.17-0.172-0.337-0.268-0.5
		c-0.046-0.068-0.094-0.135-0.144-0.201c-0.002-0.002-0.004-0.003-0.005-0.005c-0.031,0.014-0.063,0.027-0.096,0.038
		c-0.041,0.051-0.081,0.104-0.12,0.157c-0.032,0.052-0.063,0.105-0.094,0.159c-0.067,0.146-0.129,0.291-0.187,0.439
		c-0.059,0.183-0.109,0.365-0.157,0.552c-0.044,0.229-0.079,0.458-0.104,0.69c-0.01,0.184-0.015,0.365-0.014,0.549
		c0.014,0.194,0.036,0.384,0.065,0.576c0.098,0.464,0.204,0.924,0.329,1.381c0.051,0.159,0.104,0.316,0.166,0.472
		C155.698,41.193,155.703,41.203,155.709,41.212z"/>
	<path fill="#09B1AB" d="M128.169,54.331c-0.337-0.141-0.637-0.384-0.908-0.622c-0.242-0.211-0.458-0.443-0.671-0.682
		c-0.947-1.062-1.469-2.389-1.949-3.708c-0.472-1.292-0.816-2.614-1.068-3.964c-0.242-1.294-0.478-2.6-0.598-3.913
		c-0.063-0.701-0.119-1.399-0.132-2.103c-0.013-0.681-0.041-1.369-0.015-2.051c0.055-1.416,0.144-2.833,0.354-4.236
		c0.136-0.905,0.328-1.792,0.572-2.673c0.11-0.399,0.233-0.802,0.381-1.19c0.206-0.541,0.387-1.219,0.894-1.554
		c0.319-0.211,0.691-0.296,1.064-0.196c0.181-0.144,0.389-0.221,0.617-0.274c0.471-0.106,0.97,0.037,1.425,0.15
		c1.035,0.255,2.024,0.701,3.011,1.095c0.944,0.378,1.896,0.742,2.832,1.138c0.935,0.393,1.872,0.768,2.823,1.114
		c1.075,0.369,2.155,0.72,3.229,1.091c1.087,0.375,2.187,0.709,3.283,1.054c1,0.316,1.983,0.68,2.976,1.016
		c0.576,0.195,1.162,0.358,1.74,0.549c0.651,0.215,1.057,0.88,0.863,1.559c-0.184,0.641-0.908,1.079-1.56,0.864
		c-0.716-0.237-1.44-0.444-2.152-0.691c-1.129-0.391-2.255-0.782-3.397-1.134c-1.271-0.391-2.523-0.831-3.786-1.25
		c-1.259-0.417-2.524-0.829-3.752-1.333c-1.682-0.69-3.363-1.38-5.055-2.045c0.1,0.27,0.192,0.543,0.28,0.818
		c0.401,1.249,0.746,2.51,1.017,3.794c0.566,2.687,1.013,5.391,1.372,8.113c0.089,0.667,0.155,1.337,0.224,2.007
		c0.07,0.676,0.126,1.361,0.146,2.041c0.021,0.653,0.032,1.304,0.002,1.957c-0.032,0.688-0.086,1.389-0.242,2.062
		c-0.277,1.208-0.69,2.651-1.901,3.232c-0.282,0.135-0.574,0.194-0.867,0.194C128.865,54.559,128.509,54.473,128.169,54.331z
		 M129.078,51.947c0.013-0.021,0.024-0.042,0.036-0.063c0.063-0.135,0.121-0.27,0.175-0.408c0.103-0.308,0.18-0.618,0.253-0.933
		c0.063-0.398,0.112-0.792,0.154-1.192c0.031-0.735,0.035-1.463,0.016-2.199c-0.18-2.788-0.567-5.551-1.029-8.305
		c0.009,0.053,0.018,0.106,0.026,0.159c-0.381-2.123-0.781-4.25-1.396-6.32c-0.223-0.713-0.449-1.426-0.744-2.114
		c-0.047-0.099-0.095-0.196-0.145-0.293c-0.158,0.499-0.305,0.998-0.444,1.503c-0.059,0.277-0.118,0.555-0.177,0.833
		c-0.058,0.27-0.09,0.544-0.13,0.816c-0.09,0.595-0.147,1.192-0.207,1.791c-0.052,0.715-0.093,1.427-0.12,2.144
		c-0.027,0.711,0.002,1.43,0.017,2.141c0.031,0.661,0.063,1.323,0.147,1.979c0.096,0.738,0.203,1.471,0.319,2.206
		c0.1,0.559,0.201,1.118,0.305,1.676c0.104,0.554,0.255,1.097,0.397,1.641c0.309,0.997,0.649,1.979,1.062,2.938
		c0.122,0.248,0.248,0.491,0.383,0.732c0.135,0.203,0.273,0.397,0.421,0.592c0.168,0.188,0.337,0.37,0.52,0.545
		C128.97,51.861,129.023,51.905,129.078,51.947z"/>
	<path fill="#09B1AB" d="M128.966,53.496c-0.241-0.637,0.086-1.388,0.73-1.625c0.425-0.157,0.849-0.31,1.28-0.445
		c0.674-0.212,1.363-0.396,2.013-0.676c0.458-0.217,0.895-0.473,1.336-0.721c0.461-0.261,0.928-0.516,1.39-0.778
		c0.464-0.263,0.93-0.511,1.413-0.737c0.54-0.252,1.07-0.513,1.584-0.817c1.088-0.644,2.143-1.34,3.231-1.98
		c1.123-0.661,2.258-1.3,3.365-1.985c0.803-0.531,1.59-1.075,2.346-1.671c0.175-0.149,0.346-0.3,0.511-0.458
		c-0.283-1.662-0.563-3.332-1.039-4.949c-0.037-0.119-0.074-0.237-0.116-0.354c-0.23-0.432-0.19-0.997,0.123-1.39
		c0.437-0.548,1.222-0.613,1.771-0.201c0.291,0.219,0.428,0.566,0.532,0.902c0.112,0.357,0.219,0.715,0.319,1.077
		c0.169,0.612,0.287,1.24,0.413,1.862c0.122,0.603,0.228,1.209,0.333,1.814c0.043,0.248,0.087,0.496,0.13,0.746
		c0.045,0.257,0.124,0.531,0.111,0.795c-0.013,0.271-0.07,0.524-0.205,0.761c-0.149,0.264-0.349,0.493-0.566,0.703
		c-0.256,0.245-0.52,0.483-0.799,0.703c-0.483,0.383-0.977,0.75-1.484,1.1c-1.134,0.781-2.318,1.47-3.51,2.159
		c-1.172,0.678-2.321,1.393-3.473,2.103c-0.511,0.315-1.02,0.639-1.557,0.907c-0.503,0.251-1.02,0.475-1.518,0.734
		c-0.979,0.513-1.926,1.086-2.896,1.618c-0.499,0.273-1.017,0.506-1.56,0.681c-0.472,0.154-0.948,0.3-1.423,0.45
		c-0.392,0.123-0.776,0.266-1.162,0.408c-0.144,0.053-0.291,0.078-0.438,0.078C129.644,54.305,129.156,53.999,128.966,53.496z"/>
	<path fill="#09B1AB" d="M138.388,56.035c-0.567-0.019-1.138-0.303-1.557-0.673c-0.462-0.409-0.884-0.906-1.043-1.516
		c-0.246-0.941-0.188-1.966,0.146-2.877c0.124-0.34,0.285-0.657,0.461-0.973c0.246-0.442,0.606-0.845,1.081-1.041
		c0.146-0.061,0.297-0.087,0.447-0.086c0.017-0.01,0.033-0.02,0.05-0.029c0.583-0.34,1.335-0.439,1.996-0.35
		c0.623,0.086,1.167,0.35,1.592,0.816c0.438,0.48,0.644,1.089,0.737,1.719c0.097,0.65,0.011,1.316-0.14,1.949
		c-0.116,0.491-0.364,0.959-0.649,1.374c-0.343,0.499-0.789,0.857-1.3,1.167c-0.524,0.318-1.117,0.521-1.731,0.521
		C138.447,56.036,138.418,56.036,138.388,56.035z"/>
	<path fill="#09B1AB" d="M138.013,65.316c-0.348-0.1-0.646-0.271-0.924-0.498c-0.3-0.246-0.513-0.599-0.674-0.945
		c-0.118-0.252-0.198-0.517-0.268-0.787c-0.074-0.283-0.147-0.57-0.182-0.863c-0.066-0.564-0.054-1.125-0.033-1.691
		c0.025-0.68,0.131-1.36,0.237-2.031c0.109-0.684,0.271-1.353,0.452-2.02c0.11-0.4,0.262-0.799,0.414-1.183
		c0.181-0.457,0.532-0.924,1.045-1.021c0.326-0.061,0.648-0.028,0.938,0.145c0.289,0.174,0.501,0.462,0.578,0.79
		c0.088,0.37-0.011,0.772-0.237,1.073c-0.046,0.107-0.089,0.214-0.13,0.324c-0.133,0.41-0.254,0.819-0.368,1.235
		c-0.072,0.344-0.145,0.688-0.201,1.036c-0.063,0.392-0.115,0.783-0.166,1.177c-0.04,0.506-0.07,1.009-0.063,1.518
		c0.007,0.115,0.018,0.229,0.033,0.343c0.047,0.241,0.105,0.479,0.166,0.718c0.021,0.062,0.042,0.122,0.066,0.182
		c0.015,0.029,0.029,0.057,0.045,0.084c0.02,0.004,0.039,0.006,0.059,0.009c0.099,0.004,0.197,0.005,0.295,0.004
		c0.07-0.005,0.14-0.013,0.209-0.024c0.003-0.001,0.006-0.002,0.01-0.004c-0.019,0.004-0.038,0.008-0.057,0.011
		c0.033-0.009,0.066-0.017,0.101-0.026c0.033-0.012,0.067-0.023,0.101-0.035c0.087-0.043,0.172-0.088,0.256-0.135
		c0.101-0.07,0.197-0.145,0.293-0.221c0.29-0.252,0.563-0.519,0.83-0.793c0.491-0.566,0.941-1.156,1.372-1.77
		c0.271-0.414,0.535-0.828,0.787-1.254c0.25-0.422,0.471-0.864,0.696-1.299c-0.002,0.005-0.005,0.01-0.008,0.016
		c0.969-1.899,1.896-3.816,2.731-5.778c0.4-0.94,0.839-1.864,1.229-2.809c0.292-0.708,0.573-1.422,0.833-2.142
		c0.016-0.042,0.03-0.085,0.045-0.128c0.112-0.325,0.306-0.595,0.614-0.762c0.288-0.154,0.631-0.191,0.944-0.101
		c0.633,0.181,1.089,0.91,0.864,1.559c-0.285,0.821-0.604,1.629-0.931,2.434c-0.474,1.168-1.012,2.31-1.507,3.47
		c-0.519,1.213-1.086,2.412-1.667,3.597c-0.597,1.216-1.207,2.435-1.897,3.602c-0.314,0.531-0.664,1.056-1.031,1.552
		c-0.41,0.554-0.824,1.114-1.306,1.608c-0.243,0.248-0.489,0.486-0.745,0.721c-0.497,0.457-1.046,0.822-1.683,1.051
		c-0.328,0.118-0.689,0.17-1.037,0.178c-0.051,0-0.101,0.001-0.15,0.001C138.663,65.431,138.332,65.408,138.013,65.316z"/>
	<path fill="#09B1AB" d="M116.035,31.701c-1.185-0.494-2.369-0.989-3.576-1.425c-0.753-0.264-1.506-0.529-2.271-0.755
		c-0.658-0.195-1.053-0.896-0.863-1.559c0.188-0.655,0.902-1.058,1.56-0.863c2.101,0.62,4.133,1.448,6.153,2.29
		c0.634,0.264,0.925,1.035,0.655,1.658c-0.206,0.475-0.677,0.754-1.166,0.754C116.362,31.8,116.195,31.768,116.035,31.701z"/>
	<path fill="#09B1AB" d="M108.248,42.506c-0.289-0.173-0.501-0.462-0.578-0.79c-0.151-0.639,0.258-1.398,0.935-1.518
		c1.196-0.211,2.397-0.405,3.602-0.563c1.25-0.167,2.496-0.35,3.745-0.523c0.68-0.093,1.315,0.456,1.385,1.121
		c0.073,0.7-0.44,1.292-1.121,1.385c-1.141,0.158-2.278,0.328-3.42,0.479c-1.094,0.145-2.184,0.313-3.271,0.494
		c-0.112,0.019-0.224,0.039-0.336,0.058c-0.101,0.018-0.2,0.027-0.298,0.027C108.667,42.678,108.451,42.628,108.248,42.506z"/>
	<path fill="#09B1AB" d="M111.477,53.36c-0.154-0.288-0.19-0.631-0.102-0.945c0.097-0.338,0.322-0.582,0.615-0.762
		c0.876-0.539,1.753-1.085,2.651-1.589c0.469-0.264,0.939-0.522,1.428-0.75c0.462-0.215,0.938-0.396,1.402-0.605
		c-0.051,0.022-0.101,0.045-0.151,0.068c0.012-0.005,0.022-0.01,0.034-0.015c0.303-0.14,0.615-0.195,0.943-0.102
		c0.325,0.092,0.603,0.318,0.763,0.614c0.311,0.576,0.11,1.42-0.514,1.707c-0.367,0.169-0.743,0.319-1.117,0.475
		c-1.472,0.7-2.858,1.564-4.246,2.417c-0.176,0.108-0.372,0.157-0.569,0.157C112.156,54.03,111.694,53.764,111.477,53.36z"/>
	<path fill="#09B1AB" d="M151.973,47.757c0,0.351-0.037,0.707-0.073,1.055c-0.05,0.479-0.103,0.956-0.16,1.433
		c-0.105,0.88-0.222,1.758-0.332,2.637c-0.217,1.733-0.394,3.473-0.558,5.21c-0.111,1.339-0.218,2.676-0.298,4.017
		c-0.08,1.336-0.121,2.675-0.154,4.014c-0.065,2.682-0.05,5.365,0.027,8.047c0.011,0.357,0.026,0.717,0.041,1.076
		c0-0.004,0-0.008,0-0.012c0.002,0.047,0.004,0.096,0.006,0.145c0.015,0.35,0.032,0.699,0.059,1.048
		c0.027,0.37-0.099,0.724-0.33,0.981c-0.22-0.064-0.438-0.13-0.655-0.195c-0.51-0.156-1.017-0.326-1.52-0.5
		c-0.001-0.008-0.001-0.015-0.002-0.022c-0.034-0.464-0.054-0.929-0.072-1.393c-0.104-2.591-0.146-5.189-0.102-7.781
		c0.046-2.694,0.134-5.39,0.361-8.075c0.158-1.861,0.328-3.721,0.544-5.576c0.212-1.813,0.466-3.622,0.654-5.438
		c0.021-0.242,0.044-0.486,0.044-0.729c0-0.687,0.615-1.246,1.289-1.23C151.44,46.484,151.973,47.071,151.973,47.757z"/>
	<path fill="#09B1AB" d="M169.499,45.28c0.025-0.047,0.049-0.093,0.073-0.141c0.003-0.012,0.005-0.025,0.008-0.037
		c-0.029,0.073-0.065,0.144-0.108,0.212C169.481,45.303,169.49,45.291,169.499,45.28z M174.856,71.51
		c0.196,1.139,0.398,2.277,0.595,3.416c0.039,0.219,0.077,0.438,0.114,0.657c-0.737,0.466-1.532,0.836-2.356,1.138
		c-0.432-2.525-0.88-5.051-1.293-7.58c-0.443-2.713-0.866-5.43-1.319-8.141c-0.03-0.186-0.061-0.371-0.093-0.556
		c-0.097-0.569-0.194-1.139-0.291-1.708c-0.371-2.085-0.781-4.161-1.192-6.238c-0.185-0.938-0.353-1.877-0.547-2.812
		c-0.108-0.521-0.226-1.037-0.347-1.553c-0.112-0.483-0.265-0.958-0.405-1.434c-0.124-0.404-0.249-0.806-0.376-1.208
		c-0.093-0.292-0.18-0.57-0.191-0.879c-0.011-0.333,0.166-0.661,0.395-0.89c0.485-0.486,1.314-0.447,1.781,0.041
		c0.188,0.198,0.298,0.44,0.332,0.69c0.017,0.062,0.035,0.124,0.054,0.186c0.349,1.106,0.701,2.215,0.965,3.346
		c0.275,1.177,0.491,2.367,0.719,3.554c0.438,2.291,0.919,4.571,1.309,6.871C173.45,62.771,174.127,67.144,174.856,71.51z"/>
	<path fill="#09B1AB" d="M175.451,74.926c0.039,0.219,0.077,0.438,0.114,0.657c-1.706,1.077-3.722,1.644-5.678,2.034
		c-1.338,0.266-2.683,0.516-4.036,0.689c-0.685,0.088-1.369,0.168-2.056,0.242c-0.642,0.07-1.291,0.09-1.935,0.123
		c-0.634,0.033-1.271,0.051-1.91,0.051c-0.688,0-1.377-0.022-2.06-0.074c-1.386-0.106-2.775-0.226-4.147-0.463
		c-0.353-0.061-0.706-0.122-1.06-0.184c-0.383-0.066-0.762-0.164-1.142-0.246c-0.675-0.146-1.339-0.343-1.998-0.543
		c-0.51-0.156-1.017-0.326-1.52-0.5c-0.001-0.008-0.001-0.015-0.002-0.022c-0.034-0.464-0.054-0.929-0.072-1.393
		c-0.018-0.437-0.033-0.873-0.047-1.312c0.109,0.045,0.22,0.088,0.329,0.133c0.562,0.198,1.123,0.402,1.693,0.575
		c0.693,0.212,1.388,0.405,2.09,0.589c0.349,0.076,0.697,0.152,1.047,0.229c0.414,0.09,0.84,0.145,1.257,0.217
		c0.841,0.145,1.696,0.224,2.544,0.317c0.821,0.062,1.64,0.111,2.462,0.146c0.782,0.034,1.569-0.004,2.351-0.03
		c0.967-0.051,1.931-0.109,2.89-0.231c1.005-0.129,2.005-0.272,3.004-0.437c1.371-0.252,2.732-0.524,4.074-0.902
		c0.464-0.151,0.92-0.32,1.371-0.513c0.409-0.192,0.811-0.396,1.197-0.63c0.276-0.178,0.547-0.363,0.802-0.57
		c0.022-0.018,0.046-0.036,0.07-0.052C175.207,73.527,175.33,74.226,175.451,74.926z"/>
	<path fill="#09B1AB" d="M167.896,46.408c-0.698-0.017-1.23-0.603-1.23-1.289c0-0.33,0.152-0.657,0.389-0.883
		c0.217-0.207,0.475-0.292,0.755-0.346c0.249-0.049,0.492-0.112,0.738-0.176c0.893-0.278,1.778-0.568,2.664-0.869
		c0.823-0.28,1.617-0.626,2.414-0.971c0.459-0.238,0.917-0.476,1.375-0.713c0.238-0.124,0.464-0.285,0.692-0.424
		c0.196-0.121,0.395-0.242,0.591-0.363c0.583-0.392,1.146-0.806,1.688-1.248c0.478-0.408,0.93-0.839,1.361-1.296
		c0.491-0.547,0.944-1.123,1.37-1.724c0.578-0.854,1.075-1.747,1.576-2.647c0.305-0.617,0.612-1.229,0.889-1.859
		c0.286-0.651,0.545-1.308,0.799-1.971c0.293-0.881,0.579-1.762,0.813-2.662c0.247-0.95,0.472-1.902,0.684-2.861
		c0.322-1.557,0.646-3.113,0.805-4.698c0.034-0.483,0.055-0.962,0.047-1.445c-0.463-0.055-0.905-0.212-1.322-0.435
		c-0.285-0.153-0.536-0.382-0.757-0.612c-0.244-0.255-0.451-0.603-0.533-0.947c-0.049-0.204-0.069-0.411-0.06-0.615
		c-0.145-0.296-0.234-0.64-0.235-0.966c0-0.381,0.046-0.791,0.222-1.138c0.277-0.551,0.679-1.021,1.217-1.339
		c0.255-0.15,0.521-0.245,0.803-0.331c0.292-0.087,0.623-0.158,0.93-0.146c0.666,0.024,1.27,0.25,1.774,0.691
		c0.482,0.422,0.831,1.01,1.051,1.607c0.218,0.588,0.26,1.251,0.107,1.86c-0.131,0.519-0.376,1.046-0.735,1.454
		c0.088,0.634,0.079,1.291,0.046,1.923c-0.035,0.676-0.109,1.35-0.208,2.019c-0.19,1.284-0.453,2.559-0.731,3.827
		c-0.303,1.376-0.641,2.741-1.033,4.094c-0.378,1.299-0.873,2.561-1.416,3.798c-0.581,1.326-1.264,2.625-2.024,3.858
		c-0.946,1.533-2.081,2.946-3.426,4.148c-0.652,0.584-1.355,1.11-2.077,1.604c-0.365,0.248-0.748,0.471-1.124,0.701
		c-0.226,0.139-0.448,0.288-0.684,0.41c-0.407,0.212-0.814,0.423-1.223,0.635c-0.257,0.133-0.527,0.24-0.793,0.355
		c-0.294,0.128-0.587,0.265-0.887,0.377c-0.669,0.249-1.337,0.488-2.011,0.718c-0.326,0.11-0.655,0.213-0.981,0.32
		c-0.349,0.114-0.7,0.235-1.055,0.327c-0.306,0.079-0.606,0.152-0.916,0.207c-0.005,0.001-0.01,0.002-0.015,0.003v0
		c-0.096,0.024-0.195,0.037-0.296,0.037C167.914,46.409,167.905,46.409,167.896,46.408z"/>
	<path fill="#09B1AB" d="M146.468,111.449c-0.641-0.087-1.38-0.273-1.834-0.771c-0.245-0.27-0.47-0.563-0.6-0.909
		c-0.147-0.393-0.237-0.788-0.273-1.204c-0.048-0.573,0.148-1.109,0.436-1.596c0.242-0.408,0.54-0.798,0.905-1.104
		c0.412-0.342,0.937-0.541,1.437-0.725c0.503-0.186,1.007-0.355,1.54-0.436c0.576-0.088,1.149-0.07,1.729-0.045
		c0.096,0.004,0.192,0.008,0.288,0.011c0.012-0.437,0.012-0.874,0.02-1.31c0.01-0.647,0.018-1.294,0.033-1.939
		c0.032-1.325,0.104-2.646,0.187-3.969c0.177-2.806,0.397-5.607,0.653-8.405c0.16-1.751,0.343-3.501,0.553-5.247
		c0.219-1.813,0.457-3.624,0.657-5.439c0.007-0.105,0.014-0.211,0.014-0.318c0-0.686,0.613-1.246,1.288-1.23
		c0.698,0.017,1.23,0.604,1.23,1.289c0,0.426-0.061,0.854-0.111,1.275c-0.064,0.533-0.129,1.065-0.195,1.598
		c-0.134,1.083-0.275,2.164-0.396,3.248c-0.246,2.216-0.479,4.432-0.681,6.651c-0.22,2.688-0.422,5.376-0.577,8.069
		c-0.075,1.286-0.104,2.572-0.126,3.86c-0.01,0.595-0.02,1.188-0.029,1.781c0.578,0.189,0.92,0.774,0.853,1.388
		c-0.035,0.314-0.097,0.629-0.191,0.932c-0.109,0.346-0.256,0.658-0.421,0.979c-0.298,0.575-0.727,1.103-1.17,1.571
		c-1.035,1.094-2.478,1.954-4.008,2.043c-0.115,0.007-0.232,0.01-0.351,0.01C147.039,111.508,146.748,111.488,146.468,111.449z
		 M147.491,108.986c0.084-0.006,0.167-0.014,0.25-0.025c0.09-0.019,0.179-0.04,0.269-0.063c0.19-0.063,0.376-0.134,0.561-0.214
		c0.136-0.073,0.269-0.148,0.4-0.228c0.198-0.136,0.39-0.276,0.576-0.426c0.126-0.12,0.248-0.241,0.367-0.366
		c0.132-0.151,0.259-0.305,0.382-0.463c-0.466-0.004-0.933-0.045-1.397-0.048c-0.158,0.009-0.314,0.024-0.472,0.046
		c-0.166,0.033-0.328,0.071-0.49,0.117c-0.389,0.128-0.773,0.277-1.147,0.443c-0.029,0.014-0.058,0.029-0.086,0.045
		c-0.016,0.016-0.031,0.031-0.047,0.048c-0.084,0.101-0.162,0.206-0.238,0.312c-0.047,0.078-0.093,0.157-0.138,0.236
		c-0.001,0.002-0.002,0.004-0.003,0.006c0,0.002-0.001,0.003-0.001,0.004c0.003,0.035,0.006,0.07,0.009,0.104
		c0.015,0.071,0.03,0.141,0.049,0.21c0.012,0.03,0.023,0.061,0.034,0.09c0.008,0.017,0.017,0.033,0.024,0.049
		c0.008,0.004,0.015,0.007,0.022,0.01c0.05,0.016,0.1,0.029,0.15,0.043c0.089,0.017,0.179,0.03,0.27,0.041
		C147.054,108.975,147.271,108.987,147.491,108.986z"/>
	<path fill="#09B1AB" d="M178.593,107.727c-0.362-0.16-0.616-0.476-0.714-0.836c-0.101-0.059-0.194-0.13-0.278-0.213
		c-0.283-0.279-0.387-0.648-0.487-1.02c-0.057-0.205-0.109-0.408-0.163-0.613c-0.121-0.452-0.241-0.904-0.364-1.357
		c-0.25-0.924-0.508-1.846-0.776-2.764c-0.802-2.584-1.665-5.149-2.506-7.721c-0.424-1.297-0.852-2.592-1.274-3.889
		c-0.392-1.203-0.749-2.418-1.144-3.619c-0.481-1.463-0.975-2.92-1.491-4.371c-0.22-0.615-0.449-1.229-0.675-1.842
		c-0.124-0.335-0.255-0.668-0.368-1.006c-0.069-0.211-0.146-0.421-0.207-0.635c-0.069-0.238-0.147-0.498-0.129-0.752
		c0.022-0.336,0.141-0.645,0.39-0.881c0.24-0.23,0.565-0.355,0.898-0.35c0.63,0.016,1.215,0.546,1.232,1.187
		c0.008,0.03,0.016,0.062,0.023,0.091c0.42,1.254,0.903,2.486,1.348,3.732c0.464,1.305,0.903,2.616,1.335,3.932
		c0.395,1.203,0.752,2.417,1.144,3.619c0.423,1.297,0.851,2.594,1.274,3.89c0.726,2.218,1.46,4.433,2.173,6.653
		c0.41,1.279,0.774,2.572,1.127,3.868c0.357-0.49,0.74-0.965,1.174-1.39c0.41-0.4,0.828-0.781,1.296-1.115
		c0.634-0.452,1.388-0.787,2.157-0.912c0.385-0.063,0.776-0.09,1.165-0.043c0.369,0.043,0.708,0.139,1.056,0.267
		c0.722,0.266,1.294,0.827,1.77,1.409c0.253,0.311,0.471,0.673,0.639,1.036c0.287,0.616,0.35,1.267,0.236,1.935
		c-0.235,1.406-1.337,2.545-2.542,3.215c-1.166,0.648-2.491,1.099-3.831,1.156c-0.108,0.005-0.217,0.008-0.324,0.008
		C180.668,108.396,179.588,108.168,178.593,107.727z M181.787,105.883c0.254-0.014,0.505-0.039,0.758-0.073
		c0.21-0.044,0.416-0.092,0.623-0.144c0.328-0.105,0.647-0.224,0.967-0.355c0.221-0.106,0.436-0.218,0.65-0.336
		c0.162-0.107,0.319-0.219,0.472-0.34c0.106-0.096,0.209-0.195,0.31-0.298c0.049-0.058,0.096-0.116,0.141-0.176
		c0.056-0.087,0.107-0.173,0.157-0.264c0.021-0.046,0.041-0.093,0.06-0.142c0.018-0.055,0.033-0.109,0.047-0.166
		c0.008-0.041,0.014-0.082,0.02-0.125c0.001-0.037,0.002-0.075,0.003-0.113c-0.001-0.014-0.003-0.028-0.004-0.043
		c-0.005-0.021-0.01-0.043-0.016-0.066c-0.006-0.018-0.014-0.037-0.021-0.056c-0.056-0.11-0.115-0.216-0.177-0.322
		c-0.089-0.13-0.179-0.257-0.275-0.38c-0.08-0.09-0.162-0.175-0.248-0.258c-0.046-0.039-0.093-0.076-0.141-0.111
		c-0.059-0.039-0.119-0.074-0.181-0.109c-0.053-0.023-0.104-0.047-0.158-0.068c-0.051-0.014-0.103-0.029-0.152-0.043
		c-0.048-0.01-0.097-0.017-0.146-0.022c-0.071-0.005-0.143-0.007-0.214-0.005c-0.138,0.009-0.275,0.027-0.411,0.053
		c0.053-0.008,0.106-0.018,0.159-0.026c-0.153,0.03-0.304,0.071-0.452,0.121c0.052-0.016,0.104-0.032,0.155-0.048
		c-0.089,0.03-0.177,0.063-0.263,0.1c-0.153,0.074-0.303,0.154-0.449,0.24c-0.169,0.114-0.331,0.234-0.491,0.361
		c-0.241,0.21-0.468,0.433-0.696,0.656c-0.188,0.209-0.375,0.419-0.553,0.64c-0.179,0.224-0.344,0.454-0.51,0.688
		c-0.185,0.295-0.364,0.591-0.537,0.894c-0.017,0.027-0.032,0.055-0.048,0.083c0.184,0.056,0.369,0.104,0.557,0.147
		c0.202,0.038,0.403,0.07,0.607,0.095C181.482,105.877,181.634,105.881,181.787,105.883z"/>
</g>
</svg>
