<?xml version="1.0" encoding="utf-8"?>
<!-- Generator: Adobe Illustrator 16.0.0, SVG Export Plug-In . SVG Version: 6.00 Build 0)  -->
<!DOCTYPE svg PUBLIC "-//W3C//DTD SVG 1.1//EN" "http://www.w3.org/Graphics/SVG/1.1/DTD/svg11.dtd">
<svg version="1.1" id="圖層_1" xmlns="http://www.w3.org/2000/svg" xmlns:xlink="http://www.w3.org/1999/xlink" x="0px" y="0px"
	 width="137.482px" height="82.809px" viewBox="0 0 137.482 82.809" enable-background="new 0 0 137.482 82.809"
	 xml:space="preserve">
<g>
	<path fill="#FDC563" d="M129.211,44.144c-2.93,0.096-5.638,0.974-8.312,2.049l-0.066,0.025c-0.604,0.243-1.272-0.158-1.344-0.806
		c-0.084-0.771-0.164-1.494-0.276-2.211c-0.427-2.711-1.268-5.256-3.063-7.406c-1.235-1.479-2.684-2.633-4.658-2.887
		c-0.72-0.093-0.946-0.453-1.083-1.111c-0.767-3.704-2.269-7.116-4.146-10.388c-2.377-4.139-5.176-7.962-8.512-11.369
		c-3.844-3.925-8.278-6.927-13.621-8.493c-7.829-2.295-15.499-2.145-23.049,1.177c-3.575,1.571-6.741,3.762-9.909,6
		c-6.446,4.555-11.604,10.207-15.161,17.282c-0.327,0.65-0.683,1.286-1.045,1.933c-0.35,0.623-1.146,0.834-1.757,0.465l-0.011-0.006
		c-3.921-2.371-8.233-2.149-11.622,0.688c-0.917,0.769-1.729,1.689-2.461,2.64c-1.771,2.299-2.968,4.903-3.863,7.653l-0.004,0.013
		c-0.245,0.752-0.973,1.248-1.761,1.181c-0.083-0.007-0.165-0.013-0.247-0.02c-4.879-0.311-8.836,1.445-11.669,5.242
		c-2.61,3.499-1.911,8.547,1.653,11.066c1.701,1.202,3.596,1.772,5.679,1.668c0.176-0.008,0.353-0.012,0.532-0.012
		c0.487,0,0.873,0.418,0.826,0.904L10.26,59.43c-0.257,2.621-0.353,5.236,0.42,7.803c2.039,6.783,8.866,9.434,14.907,5.776
		c2.011-1.217,3.775-2.729,5.238-4.58c0.057-0.071,0.115-0.145,0.174-0.217c0.256-0.308,0.741-0.262,0.931,0.092l0.003,0.007
		c2.774,5.201,6.849,8.68,12.882,9.284c4.969,0.497,9.51-2.676,10.477-7.485c0.385-1.904,0.45-3.823,0.037-5.703
		c-0.272-1.245-0.676-2.463-1.07-3.678c-0.25-0.774,0.026-1.622,0.687-2.099c1.131-0.813,2.28-1.633,3.377-2.518
		c2.225-1.793,4.056-3.931,5.396-6.48c3.126-5.944,0.006-12.283-4.905-14.615c-0.142-0.067-0.283-0.134-0.43-0.2
		c-0.607-0.278-0.801-1.051-0.395-1.583c1.229-1.607,2.404-3.16,3.614-4.686c3.201-4.037,7.449-5.375,12.359-4.35
		c5.137,1.072,9.175,4.054,12.377,8.121c2.116,2.688,3.81,5.662,5.163,8.813c0.325,0.759,0.615,1.529,0.929,2.358
		c0.21,0.558-0.206,1.153-0.803,1.148c-0.406-0.004-0.789-0.004-1.169,0.015c-5.646,0.254-10.843,4.502-12.146,9.896
		c-0.96,3.974,1.506,8.022,5.496,8.912c0.271,0.062,0.543,0.111,0.821,0.16c0.558,0.098,0.861,0.69,0.639,1.209
		c-0.001,0.004-0.003,0.008-0.004,0.011c-0.638,1.488-1.363,2.948-1.873,4.479c-1.698,5.108,1.042,9.729,3.894,11.926
		c1.366,1.053,2.891,1.621,4.634,1.553c3.074-0.116,5.954-0.944,8.39-2.815c1.771-1.359,3.312-3.019,4.944-4.556
		c0.022-0.021,0.045-0.042,0.067-0.063c0.51-0.498,1.312-0.535,1.857-0.075l0.01,0.008c1.305,1.101,2.554,2.276,3.934,3.272
		c3.168,2.285,6.693,3.49,10.654,3.178c2.574-0.203,4.677-1.249,6.368-3.25c4.431-5.242,2.909-11.412,0.145-14.965l-0.006-0.009
		c-0.354-0.455-0.178-1.122,0.355-1.345c0.242-0.101,0.477-0.197,0.711-0.292c2.683-1.087,5.01-2.67,6.643-5.089
		c0.614-0.909,1.191-1.97,1.366-3.03C138.23,48.472,134.363,43.974,129.211,44.144z M37.313,31.26
		c3.342-6.982,7.434-13.388,13.849-18.021c3.136-2.266,6.182-4.642,9.646-6.432c11.343-5.855,26.354-3.404,35.393,6.703
		c3.18,3.558,5.972,7.368,8.252,11.559c1.195,2.195,2.129,4.489,2.867,6.9c0.197,0.646-0.095,1.341-0.69,1.654
		c-0.462,0.243-0.923,0.487-1.392,0.734c-0.572,0.302-1.284,0.027-1.5-0.581c-0.001-0.004-0.003-0.008-0.004-0.012
		c-3.55-10.058-10.05-17.487-19.895-21.687c-6.896-2.942-13.93-2.898-20.843,0.217c-8.454,3.81-14.794,9.925-19.382,17.908
		c-1.055,1.834-1.884,3.797-2.889,5.66c-0.386,0.702-1.397,0.686-1.761-0.028c-0.62-1.228-1.206-2.38-1.751-3.552
		C37.091,32.012,37.171,31.557,37.313,31.26z M60.233,48.052c-0.951,1.693-2.127,3.202-3.632,4.406
		c-1.491,1.194-3.089,2.257-4.641,3.377c-0.506,0.364-1.049,0.688-1.51,1.103c-0.623,0.561-0.934,1.27-0.674,2.133
		c0.322,1.071,0.577,2.168,0.977,3.209c0.729,1.896,1.054,3.828,0.958,5.863c-0.198,4.309-3.673,6.349-7.193,5.639
		c-4.867-0.982-8.127-3.967-9.74-8.694c-0.134-0.394-0.211-0.808-0.363-1.191c-0.688-1.744-2.528-2.192-3.941-0.933
		c-0.491,0.439-0.897,0.982-1.305,1.508c-1.481,1.923-3.058,3.755-5.133,5.06c-0.804,0.506-1.664,0.964-2.559,1.271
		c-1.765,0.607-3.357,0.111-4.788-1.01c-2.112-1.654-2.842-3.965-2.894-6.502c-0.043-2.16,0.131-4.322,0.184-6.483
		c0.028-1.189-0.457-1.781-1.644-1.9c-0.823-0.084-4.689,0.018-5.7-0.293c-3.355-1.025-4.369-4.531-2.011-7.127
		c2.363-2.603,5.36-3.715,8.898-3.125c0.451,0.074,0.894,0.196,1.344,0.276c1.617,0.288,2.752-0.342,3.343-1.896
		c0.296-0.777,0.516-1.582,0.776-2.371c0.736-2.225,1.695-4.34,3.053-6.262c0.191-0.271,0.398-0.533,0.605-0.793
		c3.041-3.838,6.914-3.324,9.993-0.565c1.816,1.629,2.759,3.827,3.461,6.124c0.134,0.438,0.218,0.894,0.381,1.318
		c0.466,1.219,1.536,1.653,2.728,1.096c0.486-0.229,0.931-0.551,1.396-0.823c3.131-1.826,6.44-3.103,10.106-3.271
		c2.152-0.102,4.224,0.248,6.208,1.117C60.203,39.743,62.515,43.986,60.233,48.052z M89.433,30.16
		c-3.934-5.227-9.077-8.799-15.679-9.808c-5.822-0.892-10.77,0.981-14.731,5.309c-1.896,2.069-3.694,4.23-4.924,6.626
		c-0.3,0.582-0.884,0.964-1.533,1.026c-1.784,0.175-3.517,0.344-5.275,0.516c-0.703,0.068-1.195-0.677-0.857-1.297
		c0.515-0.944,1.037-1.893,1.649-2.777c3.772-5.446,8.41-9.977,14.307-13.119c8.302-4.425,16.432-3.813,24.283,1.063
		c7.314,4.541,12.017,11.133,14.493,19.338c0.134,0.443,0.234,1.064,0.03,1.418c-1.165,2.027-2.139,4.124-2.747,6.408
		c-0.202,0.756-1.194,0.963-1.651,0.326c-0.171-0.238-0.29-0.537-0.388-0.889C94.974,39.155,92.626,34.404,89.433,30.16z
		 M133.062,54.559c-0.931,1.355-2.169,2.425-3.678,3.107c-1.362,0.615-2.767,1.142-4.153,1.701c-0.539,0.219-1.106,0.38-1.623,0.643
		c-1.755,0.89-1.982,2.613-0.538,3.962c0.578,0.538,1.223,1.014,1.755,1.592c2.411,2.619,2.767,6.68,0.992,9.481
		c-1.452,2.295-3.526,3.06-6.085,2.771c-2.315-0.26-4.447-1.067-6.327-2.457c-1.036-0.769-2.027-1.596-3.028-2.408
		c-0.613-0.498-1.189-1.045-1.815-1.525c-2.038-1.563-3.438-1.477-5.268,0.363c-0.968,0.973-1.846,2.035-2.813,3.009
		c-2.008,2.021-4.346,3.448-7.192,4.005c-1.896,0.373-3.438-0.063-4.679-1.577c-1.664-2.033-2.354-4.281-1.586-6.861
		c0.645-2.166,1.521-4.236,2.913-6.035c0.468-0.604,1.082-1.117,1.694-1.585c0.619-0.474,1.002-1.015,0.847-1.798
		c-0.161-0.806-0.784-1.222-1.521-1.259c-1.075-0.055-2.157,0.068-3.236,0.091c-0.951,0.018-1.929,0.133-2.852-0.033
		c-2.365-0.426-3.457-2.346-2.77-4.662c1.06-3.572,4.539-6.337,8.293-6.572c0.539-0.032,1.082-0.005,1.691-0.005
		c2.021-0.182,3.947,0.534,5.897,1.112c0.518,0.154,1.03,0.326,1.542,0.498c0.664,0.225,1.157,0.034,1.407-0.625
		c0.277-0.732,0.588-1.465,0.752-2.226c0.599-2.768,1.705-5.307,3.362-7.586c1.159-1.594,2.647-2.718,4.694-3.009
		c1.34-0.189,2.345,0.256,3.207,1.229c1.504,1.692,2.112,3.753,2.397,5.924c0.172,1.315,0.141,2.658,0.313,3.974
		c0.14,1.059,0.313,2.149,0.719,3.124c0.488,1.176,1.376,1.255,2.437,0.559c3.225-2.121,6.774-3.364,10.633-3.524
		c2.76-0.113,4.574,1.819,4.384,4.556C133.78,53.212,133.465,53.969,133.062,54.559z"/>
	<path fill="#FDC563" d="M36.774,52.409c-0.299,0.223-0.564,0.491-0.863,0.717c-1.999,1.517-4.496,1.066-5.823-1.046
		c-0.177-0.281-0.324-0.581-0.513-0.854c-0.662-0.96-1.514-1.289-2.324-0.917c-0.819,0.378-1.121,1.251-0.813,2.359
		c0.826,2.978,3.683,5.672,6.824,5.33c1.308-0.143,2.588-0.597,3.771-1.137c0.872-0.398,1.65-1.116,2.307-1.84
		c0.841-0.929,0.78-2.007,0.053-2.689C38.719,51.699,37.694,51.723,36.774,52.409z"/>
	<path fill="#FDC563" d="M43.101,47.173c-1.047-0.041-2.019,0.937-2.058,2.069c-0.037,1.075,0.752,1.952,1.781,1.981
		c1.112,0.031,2-0.862,2.026-2.043C44.877,48.063,44.136,47.214,43.101,47.173z"/>
	<path fill="#FDC563" d="M29.469,44.819c0.024-1.116-0.717-1.966-1.75-2.008c-1.048-0.041-2.02,0.936-2.058,2.069
		c-0.037,1.074,0.752,1.951,1.78,1.98C28.555,46.895,29.442,46,29.469,44.819z"/>
</g>
</svg>
