<?xml version="1.0" encoding="utf-8"?>
<!-- Generator: Adobe Illustrator 16.0.0, SVG Export Plug-In . SVG Version: 6.00 Build 0)  -->
<!DOCTYPE svg PUBLIC "-//W3C//DTD SVG 1.1//EN" "http://www.w3.org/Graphics/SVG/1.1/DTD/svg11.dtd">
<svg version="1.1" id="圖層_1" xmlns="http://www.w3.org/2000/svg" xmlns:xlink="http://www.w3.org/1999/xlink" x="0px" y="0px"
	 width="68.541px" height="74.814px" viewBox="0 0 68.541 74.814" enable-background="new 0 0 68.541 74.814" xml:space="preserve">
<g>
	<path fill="#FF484C" d="M62.114,67.941c-1.627-20.488-4.119-40.05-5.746-60.537c-7.98,0.225-15.963,0.451-23.944,0.676
		c-1.873,0.053-3.745,0.106-5.618,0.159c-8.223,0.232-14.493,4.016-22.716,4.248c2.726,20.543,5.451,41.085,8.177,61.628
		C29.156,72.949,45.444,70.896,62.114,67.941z"/>
	<path fill="none" stroke="#23295B" stroke-width="1.4" stroke-linecap="round" stroke-linejoin="round" stroke-miterlimit="10" d="
		M2.643,15.287c-0.646-0.497-1.701,0.015-1.898,0.805c-0.198,0.791,0.287,1.629,0.97,2.074c0.683,0.444,1.521,0.572,2.333,0.639
		c1.795,0.147,4.008-0.218,4.652-1.901"/>
	<path fill="none" stroke="#23295B" stroke-width="1.4" stroke-linecap="round" stroke-linejoin="round" stroke-miterlimit="10" d="
		M1.522,21.204c-0.728,0.345-0.934,1.361-0.602,2.094c0.332,0.734,1.051,1.217,1.785,1.547c2.393,1.072,5.694,0.585,6.927-1.729"/>
	<path fill="none" stroke="#23295B" stroke-width="1.4" stroke-linecap="round" stroke-linejoin="round" stroke-miterlimit="10" d="
		M1.268,28.713c-0.685,0.398-0.717,1.453-0.248,2.092c0.468,0.639,1.261,0.945,2.025,1.151c1.363,0.368,2.814,0.522,4.188,0.191
		c1.373-0.332,2.658-1.197,3.273-2.468"/>
	<path fill="none" stroke="#23295B" stroke-width="1.4" stroke-linecap="round" stroke-linejoin="round" stroke-miterlimit="10" d="
		M2.193,35.893c-0.148,0.811,0.337,1.638,1.012,2.111s1.508,0.658,2.323,0.784c1.054,0.163,2.145,0.244,3.179-0.018
		c1.034-0.262,2.014-0.914,2.452-1.886"/>
	<path fill="none" stroke="#23295B" stroke-width="1.4" stroke-linecap="round" stroke-linejoin="round" stroke-miterlimit="10" d="
		M2.833,42.922c0.492,1.609,2.159,2.689,3.839,2.78c1.681,0.091,3.324-0.677,4.581-1.796"/>
	<path fill="none" stroke="#23295B" stroke-width="1.4" stroke-linecap="round" stroke-linejoin="round" stroke-miterlimit="10" d="
		M3.809,51.127c-0.194,1.146,0.542,2.313,1.559,2.881c1.016,0.566,2.247,0.625,3.398,0.457c1.532-0.226,3.007-0.832,4.254-1.752"/>
	<path fill="none" stroke="#23295B" stroke-width="1.4" stroke-linecap="round" stroke-linejoin="round" stroke-miterlimit="10" d="
		M5.089,58.647c0.146,1.571,1.512,2.827,3.024,3.276c1.514,0.447,3.142,0.233,4.68-0.119"/>
	<path fill="none" stroke="#23295B" stroke-width="1.4" stroke-linecap="round" stroke-linejoin="round" stroke-miterlimit="10" d="
		M6.624,66.167c0.163,1.452,1.775,2.292,3.229,2.444c2.002,0.211,4.079-0.414,5.632-1.695"/>
	<path fill="none" stroke="#23295B" stroke-width="1.4" stroke-linecap="round" stroke-linejoin="round" stroke-miterlimit="10" d="
		M5.177,8.391C20.651,5.385,36.466,4.146,52.22,4.704"/>
	<path fill="none" stroke="#23295B" stroke-width="1.4" stroke-linecap="round" stroke-linejoin="round" stroke-miterlimit="10" d="
		M4.972,4.336c4.132-0.429,8.236-1.127,12.278-2.087"/>
	<path fill="none" stroke="#23295B" stroke-width="1.4" stroke-linecap="round" stroke-linejoin="round" stroke-miterlimit="10" d="
		M30.727,0.7c7.319,0.497,22.264,1.248,29.586,0.794"/>
	<path fill="none" stroke="#23295B" stroke-width="1.4" stroke-linecap="round" stroke-linejoin="round" stroke-miterlimit="10" d="
		M56.368,7.404c1.766,20.058,3.336,40.545,5.746,60.537"/>
	<path fill="none" stroke="#23295B" stroke-width="1.4" stroke-linecap="round" stroke-linejoin="round" stroke-miterlimit="10" d="
		M60.813,1.661c3.293,18.705,5.645,43.08,7.025,62.023c0.1,1.368-3.711,4.504-5.721,4.729c-16.117,1.796-32.768,4.559-49.851,5.703"
		/>
	<path fill="none" stroke="#23295B" stroke-width="1.4" stroke-linecap="round" stroke-linejoin="round" stroke-miterlimit="10" d="
		M48.983,16.281c-11.359,0.27-22.75,1.912-34.018,3.379c-0.082,3.027,0.269,6.065,1.037,8.995c5.015-0.527,9.482-0.777,14.497-1.305
		"/>
	<path fill="none" stroke="#23295B" stroke-width="1.4" stroke-linecap="round" stroke-linejoin="round" stroke-miterlimit="10" d="
		M34.495,26.736c4.657-0.885,9.313-1.771,13.969-2.656"/>
</g>
</svg>
