<?xml version="1.0" encoding="utf-8"?>
<!-- Generator: Adobe Illustrator 16.0.0, SVG Export Plug-In . SVG Version: 6.00 Build 0)  -->
<!DOCTYPE svg PUBLIC "-//W3C//DTD SVG 1.1//EN" "http://www.w3.org/Graphics/SVG/1.1/DTD/svg11.dtd">
<svg version="1.1" id="圖層_1" xmlns="http://www.w3.org/2000/svg" xmlns:xlink="http://www.w3.org/1999/xlink" x="0px" y="0px"
	 width="73.171px" height="78.826px" viewBox="0 0 73.171 78.826" enable-background="new 0 0 73.171 78.826" xml:space="preserve">
<g>
	<path fill="#296CCE" d="M68.129,12.447C55.617-3.809,28.667-5.948,22.098,16.926c-2.712,9.439,0.795,20.355,8.498,26.449
		c3.256,2.576,7.111,4.303,11.061,5.58c2.579,0.834,5.252,1.492,7.961,1.445c5.531-0.095,10.615-3.11,14.796-6.731
		c2.841-2.462,5.442-5.3,7.033-8.706C74.821,27.733,72.996,18.769,68.129,12.447z M51.609,43.395
		c-1.588,0.404-3.247,0.461-4.882,0.354c-5.287-0.346-10.226-2.471-13.823-6.442c-4.563-5.038-7.436-14.103-4.625-20.541
		C32.852,6.289,44.896,4.092,54.323,8.127c1.729,0.739,3.448,1.576,4.866,2.813c3.465,3.017,5.829,8.235,6.044,12.757
		C65.623,31.897,60.27,41.184,51.609,43.395z"/>
	<path fill="#296CCE" d="M34.711,43.528c-2.016-2.011-2.883-2.84-4.9-4.851c-4.278,5.038-8.433,10.182-12.457,15.425
		c3.176,0.283,3.079,3.487,6.195,4.165C27.382,53.26,30.878,48.534,34.711,43.528z"/>
	<path fill="#23295B" d="M11.087,57.824c1.128-1.467,2.289-2.938,3.77-4.047c1.481-1.11,3.339-1.83,5.173-1.583
		c3.153,0.424,5.42,4.095,4.388,7.105c-0.302,0.879-0.824,1.662-1.35,2.428c-3.122,4.535-6.625,8.811-10.457,12.764
		c-1.368,1.41-2.81,2.804-4.575,3.666c-4.292,2.097-9.872-0.976-7.449-5.849C3.113,67.228,7.632,62.32,11.087,57.824z"/>
	<path fill="none" stroke="#23295B" stroke-width="1.4" stroke-linecap="round" stroke-linejoin="round" stroke-miterlimit="10" d="
		M26.739,20.437C28.83,8.253,44.821,2.755,55.249,7.472c7.688,3.479,12.624,12.57,10.652,20.774
		c-0.706,2.934-2.182,5.63-3.888,8.119c-1.274,1.857-2.707,3.642-4.517,4.981c-7.229,5.357-19.576,2.686-25.188-3.732
		C28.304,33.038,25.69,26.548,26.739,20.437z"/>
	<path fill="none" stroke="#23295B" stroke-width="1.4" stroke-linecap="round" stroke-linejoin="round" stroke-miterlimit="10" d="
		M42.37,23.46c0.853,2.981,2.214,5.817,4.008,8.347"/>
	<path fill="none" stroke="#23295B" stroke-width="1.4" stroke-linecap="round" stroke-linejoin="round" stroke-miterlimit="10" d="
		M45.598,17.206c1.71,5.164,3.94,10.158,6.643,14.879"/>
	<path fill="none" stroke="#23295B" stroke-width="1.4" stroke-linecap="round" stroke-linejoin="round" stroke-miterlimit="10" d="
		M24.807,36.67c3.094,5.396,8.226,9.592,14.128,11.555"/>
	<path fill="none" stroke="#23295B" stroke-width="1.4" stroke-linecap="round" stroke-linejoin="round" stroke-miterlimit="10" d="
		M52.844,47.342c4.441-1.537,8.413-4.402,11.274-8.13"/>
	<path fill="none" stroke="#23295B" stroke-width="1.4" stroke-linecap="round" stroke-linejoin="round" stroke-miterlimit="10" d="
		M32.672,7.818c2.1-1.096,4.2-2.189,6.301-3.284"/>
</g>
</svg>
