<?xml version="1.0" encoding="utf-8"?>
<!-- Generator: Adobe Illustrator 16.0.0, SVG Export Plug-In . SVG Version: 6.00 Build 0)  -->
<!DOCTYPE svg PUBLIC "-//W3C//DTD SVG 1.1//EN" "http://www.w3.org/Graphics/SVG/1.1/DTD/svg11.dtd">
<svg version="1.1" id="圖層_1" xmlns="http://www.w3.org/2000/svg" xmlns:xlink="http://www.w3.org/1999/xlink" x="0px" y="0px"
	 width="102.217px" height="103.223px" viewBox="0 0 102.217 103.223" enable-background="new 0 0 102.217 103.223"
	 xml:space="preserve">
<g>
	<path fill="#37C6ED" d="M58.329,0.854C33.542-3.236,9.063,14.389,1.901,37.911c-8.85,29.063,14.329,64.67,45.94,65.305
		c6.186,0.125,12.344-1.145,18.186-3.182c15.207-5.299,28.949-16.637,33.964-31.939c1.877-5.721,2.496-11.82,2.121-17.828
		C100.63,26.556,81.77,4.722,58.329,0.854z"/>
	<path fill="#16A568" d="M20.433,11.268c1.536,0.178,6.828,2.514,7.525,3.894c0.228,0.45,0.4,0.96,0.803,1.264
		c0.489,0.369,1.177,0.321,1.766,0.149c1.473-0.43,2.668-1.484,4.009-2.23c1.341-0.745,3.097-1.151,4.353-0.27
		c0.964,0.677,1.319,2.59,1.785,3.672c0.711,1.656,1.289,3.504,0.812,4.581c-1.012,2.286-4.4,2.807-5.412,5.093
		c-0.939,2.122-1.9,4.372-1.634,6.676c0.144,1.248,0.638,2.557,0.144,3.713c-0.643,1.506-2.544,1.895-4.149,2.217
		c-1.604,0.322-5.117,2.232-4.814,3.84c0.75,3.984,5.387,6.746,9.537,8.908c-0.292,1.031,1.011,1.871,2.078,1.766
		c1.067-0.104,2.024-0.729,3.086-0.875c1.161-0.16,2.359,0.26,3.503,0.006c0.89-0.199,1.638-0.781,2.463-1.168
		c0.826-0.389,2.732-0.752,3.426-0.16c3.93-0.131,9.046,0.314,12.911,1.039c0.177,4.27,2.189,8.742,0.279,12.563
		c-1.147,2.297-2.564,4.281-4.697,5.711c1.145,3.436,2.29,6.871,3.435,10.307c0.254,0.762,0.51,1.58,0.297,2.355
		c-0.35,1.277-2.393,2.445-2.114,3.74c0.687,3.186,1.442,6.908,2.13,10.094c-1.912,0.146-4.421,0.334-6.321,0.588
		c-0.716-1.719-1.432-3.438-2.148-5.156c-0.474-1.137-0.953-2.283-1.648-3.301c-0.726-1.061-1.933-2.584-3.035-3.246
		c-2.007-4.502-4.695-8.221-7.004-12.576c-4.615-1.516-8.869-3.855-12.344-7.25c-0.255-1.143-0.18-2.328-0.103-3.496
		c0.186-2.814,0.372-5.631,0.557-8.447c-1.223-0.76-2.843-2.516-3.728-3.65c-0.858-1.104-1.6-2.414-2.877-2.979
		c-1.107-0.49-2.573-0.404-3.281-1.387c-1.724-2.393-4.875-3.98-7.81-4.277c-1.785-0.18-3.698,0.363-5.322-0.398
		c-0.728-0.34-1.316-0.914-1.89-1.475c-0.563-0.551-2.535-2.639-3.097-3.189C5.517,26.672,10.354,17.392,20.433,11.268z"/>
	<path fill="none" stroke="#004963" stroke-width="2" stroke-linecap="round" stroke-linejoin="round" stroke-miterlimit="10" d="
		M79.607,88.653c7.254-4.436,12.865-11.492,15.55-19.559"/>
	<path fill="none" stroke="#004963" stroke-width="2" stroke-linecap="round" stroke-linejoin="round" stroke-miterlimit="10" d="
		M96.755,65.092c0.541-1.719,1.082-3.439,1.623-5.158"/>
	<path fill="none" stroke="#204C30" stroke-width="2" stroke-linecap="round" stroke-linejoin="round" stroke-miterlimit="10" d="
		M3.454,38.833c1.103,1.775,2.492,3.736,4.57,3.943c0.759,0.076,1.518-0.102,2.274-0.199c3.554-0.455,7.297,1.018,9.588,3.773
		c1.456,1.748,3.605,3.029,5.879,2.949c1.469,1.781,2.78,4.322,4.249,6.104"/>
	<path fill="none" stroke="#204C30" stroke-width="2" stroke-linecap="round" stroke-linejoin="round" stroke-miterlimit="10" d="
		M34.43,52.243c-1.102-0.744-2.204-1.488-3.306-2.232c-1.512-1.021-3.065-2.084-4.051-3.619s-1.262-3.68-0.164-5.135
		c2.377-0.447,4.76-1.52,7.056-2.281"/>
	<path fill="none" stroke="#204C30" stroke-width="2" stroke-linecap="round" stroke-linejoin="round" stroke-miterlimit="10" d="
		M34.665,36.028c0.484-1.34,0.524-2.836,0.11-4.199"/>
	<path fill="none" stroke="#204C30" stroke-width="2" stroke-linecap="round" stroke-linejoin="round" stroke-miterlimit="10" d="
		M35.529,28.702c0.148-1.357,0.841-2.606,1.717-3.654c1.251-1.497,2.902-2.657,4.735-3.326c-0.247-2.759-1.397-6.226-2.693-8.673
		c-2.335,0.889-6.032,2.008-8.368,2.896"/>
	<path fill="none" stroke="#204C30" stroke-width="2" stroke-linecap="round" stroke-linejoin="round" stroke-miterlimit="10" d="
		M26.914,14.523c-1.803-1.002-3.606-2.003-5.41-3.004"/>
	<path fill="none" stroke="#204C30" stroke-width="2" stroke-linecap="round" stroke-linejoin="round" stroke-miterlimit="10" d="
		M29.583,57.829c-0.37,3.09-0.657,6.189-0.859,9.297c4.016,2.918,8.916,5.768,13.521,7.625c1.992,3.773,4.169,7.68,6.161,11.451
		c0.907,1.719,2.545,3.578,3.639,5.184c1.453,2.135,2.874,4.803,3.437,7.322c1.692,0.102,3.733,0.025,5.343-0.5"/>
	<path fill="none" stroke="#204C30" stroke-width="2" stroke-linecap="round" stroke-linejoin="round" stroke-miterlimit="10" d="
		M34.897,52.325c0.623,0.996,1.838,1.492,3.011,1.547s2.326-0.266,3.456-0.584c0.241-0.068,0.481-0.137,0.722-0.203
		c1.146-0.324,2.362-0.648,3.512-0.338c0.784,0.211,1.92,0.537,2.162-0.236"/>
	<path fill="none" stroke="#204C30" stroke-width="2" stroke-linecap="round" stroke-linejoin="round" stroke-miterlimit="10" d="
		M52.451,52.551c3.191,0.436,6.411,0.66,9.633,0.672c0.723,3.432,1.633,7.635,1.34,11.131c-1.32,1.471-2.76,3.723-4.08,5.193
		c-0.327,0.363-0.659,0.734-0.863,1.18c-0.622,1.354,0.083,2.916,0.775,4.234c0.802,1.525,0.824,4.135,1.404,5.758
		c0.442,1.234,0.887,2.592,0.441,3.826c-0.341,0.941-1.174,1.711-1.235,2.709c-0.147,2.426,1.019,5.297,2.007,7.518"/>
	<path fill="#16A568" d="M102.164,51.02c-2.588-2.301-7.258-4.018-10.678-3.463c-0.754,0.123-1.541,0.316-2.264,0.068
		c-0.652-0.227-1.144-0.783-1.661-1.199c-0.868-0.697-1.716-1.426-2.417-2.291c-2.541-3.137-3.161-5.34-2.729-8.352
		c0.49-3.414,0.391-6.898-0.655-10.184c-0.417-1.31-0.993-2.692-2.126-3.494c-0.438-0.31-1.498,0.365-2.646,1.335
		c-2.475,2.091-6.186,1.824-8.268-0.658c-0.844-1.007-1.754-1.719-2.92-1.521c-1.777,0.301-3.534,0.844-5.338,0.813
		c-1.803-0.031-3.593-5.615-3.744-6.587c-0.116-0.744-0.016-1.499,0.251-2.203c0.399-1.052,0.725-2.08,0.971-3.103
		c0.736-3.065-3.373-5.981-0.167-9.431c12.24,1.95,18.746,5.92,25.76,12.402C94.562,23.348,101.302,35.975,102.164,51.02z"/>
	<path fill="none" stroke="#204C30" stroke-width="2" stroke-linecap="round" stroke-linejoin="round" stroke-miterlimit="10" d="
		M57.685,1c-0.895,0.843-1.202,2.167-1.091,3.392s0.586,2.383,1.056,3.519"/>
	<path fill="none" stroke="#204C30" stroke-width="2" stroke-linecap="round" stroke-linejoin="round" stroke-miterlimit="10" d="
		M57.743,10.313c-0.438,1.528-1.004,3.02-1.69,4.454"/>
	<path fill="none" stroke="#204C30" stroke-width="2" stroke-linecap="round" stroke-linejoin="round" stroke-miterlimit="10" d="
		M56.736,16.509c0.5,1.178,1,2.355,1.5,3.533c0.217,0.512,0.448,1.042,0.868,1.406c0.55,0.478,1.342,0.584,2.064,0.48
		c0.721-0.104,1.399-0.392,2.09-0.626c1.303-0.442,2.671-0.696,4.047-0.751"/>
	<path fill="none" stroke="#204C30" stroke-width="2" stroke-linecap="round" stroke-linejoin="round" stroke-miterlimit="10" d="
		M68.73,22.193c0.959,1.623,2.8,2.688,4.686,2.709"/>
	<path fill="none" stroke="#204C30" stroke-width="2" stroke-linecap="round" stroke-linejoin="round" stroke-miterlimit="10" d="
		M77.959,23.077c0.779-0.439,1.814-0.057,2.395,0.625c0.58,0.681,0.815,1.582,1.033,2.45c0.138,0.548,0.275,1.097,0.412,1.645"/>
	<path fill="none" stroke="#204C30" stroke-width="2" stroke-linecap="round" stroke-linejoin="round" stroke-miterlimit="10" d="
		M83.006,31.668c-0.408,2.314-0.653,4.658-0.735,7.008c-0.011,0.32,0.013,0.701,0.285,0.867"/>
	<path fill="none" stroke="#204C30" stroke-width="2" stroke-linecap="round" stroke-linejoin="round" stroke-miterlimit="10" d="
		M84.35,42.655c1.08,1.428,2.271,2.771,3.563,4.014"/>
	<path fill="none" stroke="#204C30" stroke-width="2" stroke-linecap="round" stroke-linejoin="round" stroke-miterlimit="10" d="
		M91.037,47.815c1.941-0.418,3.975-0.416,5.916,0.01"/>
	<path fill="none" stroke="#204C30" stroke-width="2" stroke-linecap="round" stroke-linejoin="round" stroke-miterlimit="10" d="
		M99.375,49.059c0.543,0.479,1.088,0.955,1.633,1.434"/>
	<path fill="none" stroke="#204C30" stroke-width="2" stroke-linecap="round" stroke-linejoin="round" stroke-miterlimit="10" d="
		M14.654,30.962c1.975,0.953,4.031,1.74,6.138,2.347"/>
	<path fill="none" stroke="#204C30" stroke-width="2" stroke-linecap="round" stroke-linejoin="round" stroke-miterlimit="10" d="
		M14.008,27.466c1.9,0.724,3.799,1.448,5.699,2.172"/>
	<path fill="none" stroke="#004963" stroke-width="2" stroke-linecap="round" stroke-linejoin="round" stroke-miterlimit="10" d="
		M7.382,70.081c-3.324-6.279-4.788-13.529-4.162-20.605"/>
	<path fill="none" stroke="#004963" stroke-width="2" stroke-linecap="round" stroke-linejoin="round" stroke-miterlimit="10" d="
		M8.954,73.965c0.53,1.389,1.244,2.705,2.118,3.904"/>
	<path fill="none" stroke="#004963" stroke-width="2" stroke-linecap="round" stroke-linejoin="round" stroke-miterlimit="10" d="
		M13.45,81.866c2.211,2.463,4.565,4.799,7.047,6.99"/>
	<path fill="none" stroke="#204C30" stroke-width="2" stroke-linecap="round" stroke-linejoin="round" stroke-miterlimit="10" d="
		M89.746,24.566c1.951,2.456,3.611,5.143,4.936,7.987"/>
	<path fill="none" stroke="#204C30" stroke-width="2" stroke-linecap="round" stroke-linejoin="round" stroke-miterlimit="10" d="
		M96.609,36.489c0.662,1.043,1.113,2.221,1.32,3.438"/>
	<path fill="none" stroke="#204C30" stroke-width="2" stroke-linecap="round" stroke-linejoin="round" stroke-miterlimit="10" d="
		M46.399,65.715c1.697,0.666,3.394,1.33,5.09,1.994"/>
</g>
</svg>
