<?xml version="1.0" encoding="utf-8"?>
<!-- Generator: Adobe Illustrator 16.0.0, SVG Export Plug-In . SVG Version: 6.00 Build 0)  -->
<!DOCTYPE svg PUBLIC "-//W3C//DTD SVG 1.1//EN" "http://www.w3.org/Graphics/SVG/1.1/DTD/svg11.dtd">
<svg version="1.1" id="圖層_1" xmlns="http://www.w3.org/2000/svg" xmlns:xlink="http://www.w3.org/1999/xlink" x="0px" y="0px"
	 width="48.856px" height="64.024px" viewBox="0 0 48.856 64.024" enable-background="new 0 0 48.856 64.024" xml:space="preserve">
<g>
	<path fill="#FFC329" d="M42.974,24.596c-0.469-2.27-1.604-4.347-2.881-6.281c-1.258-1.906-2.682-3.729-4.449-5.175
		c-4.675-3.827-11.686-4.52-17.019-1.679c-5.333,2.84-8.671,9.043-8.104,15.059C11.594,37.893,26.249,42.998,29.9,53.822
		c5.32-1.097,9.039-4.082,14.359-5.178C41.264,42.668,44.364,31.322,42.974,24.596z"/>
	<path fill="none" stroke="#23295B" stroke-width="1.4" stroke-linecap="round" stroke-linejoin="round" stroke-miterlimit="10" d="
		M29.656,53.382c0.71,1.587,1.42,3.175,2.13,4.763c0.774,1.732,1.647,3.576,3.294,4.518c1.408,0.806,3.156,0.795,4.729,0.4
		c2.147-0.538,4.195-1.844,5.165-3.834c1.484-3.045,0.146-6.648-1.195-9.758"/>
	<path fill="none" stroke="#23295B" stroke-width="1.4" stroke-linecap="round" stroke-linejoin="round" stroke-miterlimit="10" d="
		M33.523,60.666c3.976-1.505,7.951-3.01,11.926-4.516"/>
	<path fill="none" stroke="#23295B" stroke-width="1.4" stroke-linecap="round" stroke-linejoin="round" stroke-miterlimit="10" d="
		M30.729,56.517c4.676-1.28,9.276-2.837,13.771-4.656"/>
	<path fill="none" stroke="#23295B" stroke-width="1.4" stroke-linecap="round" stroke-linejoin="round" stroke-miterlimit="10" d="
		M29.529,53.542c4.453-1.398,8.835-3.022,13.125-4.862"/>
	<path fill="none" stroke="#23295B" stroke-width="1.4" stroke-linecap="round" stroke-linejoin="round" stroke-miterlimit="10" d="
		M32.438,50.883c-1.65-5.909-4.388-11.513-8.035-16.445c-0.775,0.209-1.108,1.171-0.988,1.966c0.186,1.233,1.156,2.259,2.311,2.733
		c1.154,0.474,2.462,0.455,3.681,0.19c0.936-0.203,1.869-0.566,2.538-1.251c1.057-1.082,1.246-2.732,1.214-4.244
		c-0.029-1.391-0.298-2.955-1.443-3.742c-1.211,0.631-1.146,2.373-0.805,3.696c1.387,5.396,4.386,10.212,7.343,14.934"/>
	<path fill="none" stroke="#23295B" stroke-width="1.4" stroke-linecap="round" stroke-linejoin="round" stroke-miterlimit="10" d="
		M24.854,13.314c4.76-0.779,9.877,1.96,11.867,6.354"/>
	<path fill="none" stroke="#23295B" stroke-width="1.4" stroke-linecap="round" stroke-linejoin="round" stroke-miterlimit="10" d="
		M18.291,8.041c-0.659-2.157-1.318-4.314-1.977-6.472"/>
	<path fill="none" stroke="#23295B" stroke-width="1.4" stroke-linecap="round" stroke-linejoin="round" stroke-miterlimit="10" d="
		M30.319,6.097C30.61,4.27,31.041,2.463,31.605,0.7"/>
	<path fill="none" stroke="#23295B" stroke-width="1.4" stroke-linecap="round" stroke-linejoin="round" stroke-miterlimit="10" d="
		M34.877,6.667c0.735-1.655,1.741-3.19,2.964-4.525"/>
	<path fill="none" stroke="#23295B" stroke-width="1.4" stroke-linecap="round" stroke-linejoin="round" stroke-miterlimit="10" d="
		M42.844,15.637c1.771-0.982,3.541-1.966,5.313-2.949"/>
	<path fill="none" stroke="#23295B" stroke-width="1.4" stroke-linecap="round" stroke-linejoin="round" stroke-miterlimit="10" d="
		M2.915,12.475c1.836,0.957,3.672,1.912,5.508,2.868"/>
	<path fill="none" stroke="#23295B" stroke-width="1.4" stroke-linecap="round" stroke-linejoin="round" stroke-miterlimit="10" d="
		M1.245,16.572c1.338,0.26,2.676,0.521,4.014,0.781"/>
	<path fill="none" stroke="#23295B" stroke-width="1.4" stroke-linecap="round" stroke-linejoin="round" stroke-miterlimit="10" d="
		M0.7,31.411c2.218-0.725,4.436-1.448,6.653-2.173"/>
	<path fill="none" stroke="#23295B" stroke-width="1.4" stroke-linecap="round" stroke-linejoin="round" stroke-miterlimit="10" d="
		M9.066,43.213c1.467-1.773,3.206-3.32,5.139-4.568"/>
</g>
</svg>
