<?xml version="1.0" encoding="utf-8"?>
<!-- Generator: Adobe Illustrator 16.0.0, SVG Export Plug-In . SVG Version: 6.00 Build 0)  -->
<!DOCTYPE svg PUBLIC "-//W3C//DTD SVG 1.1//EN" "http://www.w3.org/Graphics/SVG/1.1/DTD/svg11.dtd">
<svg version="1.1" id="圖層_1" xmlns="http://www.w3.org/2000/svg" xmlns:xlink="http://www.w3.org/1999/xlink" x="0px" y="0px"
	 width="46.63px" height="58.755px" viewBox="0 0 46.63 58.755" enable-background="new 0 0 46.63 58.755" xml:space="preserve">
<g>
	<path fill="none" stroke="#23295B" stroke-width="1.4" stroke-linecap="round" stroke-linejoin="round" stroke-miterlimit="10" d="
		M44.423,52.083c2.047-2.352,1.988-5.893-0.049-8.252c-7.193-8.332-16.987-15.566-19.29-26.085
		C23.775,11.772,23.555,6.746,22.629,0.7c-3.99,0.409-8.147,0.756-12.15,0.506c0.147,6.664,2.305,11.898,1.091,18.451
		c-2.03,10.965-5.559,21.648-10.446,31.67c-1.205,2.471,0.28,5.428,2.998,5.833c5.73,0.854,11.409,0.996,17.38,0.839
		c2.285-0.061,4.567-0.192,6.847-0.373c3.856-0.306,7.908-0.412,11.479-1.998C41.377,54.939,43.07,53.636,44.423,52.083z"/>
	<path fill="none" stroke="#23295B" stroke-width="1.4" stroke-linecap="round" stroke-linejoin="round" stroke-miterlimit="10" d="
		M9.865,1.644c1.971,2.461,5.247,3.813,8.381,3.455c0.48-0.055,0.962-0.147,1.406-0.341c0.714-0.312,1.295-0.863,1.811-1.448
		c0.608-0.689,1.147-1.441,1.606-2.238"/>
	<path fill="#008B86" d="M15.009,26.699c-0.404,4.373-1.614,8.672-3.549,12.615C9.739,42.82,7.427,46.11,6.57,49.92
		c-0.162,0.726-0.263,1.519,0.066,2.186c0.633,1.278,2.382,1.387,3.806,1.317c5.791-0.283,11.583-0.567,17.374-0.851
		c4.064-0.199,8.437-0.511,11.584-3.091c1.375-1.126,0.458-3.311-0.448-4.84s-2.304-2.689-3.591-3.916
		c-4.081-3.89-8.619-8.859-10.565-14.15c-0.381-1.035-0.827-0.281-1.875-0.625c-0.575-0.189-1.2-0.069-1.799,0.025
		C18.644,26.369,17.46,27.233,15.009,26.699z"/>
	<path fill="none" stroke="#23295B" stroke-width="1.4" stroke-linecap="round" stroke-linejoin="round" stroke-miterlimit="10" d="
		M32.668,47.417c-0.789,0.063-1.591-0.448-1.865-1.19s0.001-1.652,0.643-2.117c0.61-0.443,1.058-0.813,1.723-0.458
		c0.664,0.355,1.057,1.103,1.134,1.853c0.046,0.453-0.014,0.928-0.251,1.316C33.813,47.208,33.121,47.38,32.668,47.417z"/>
	<path fill="none" stroke="#23295B" stroke-width="1.4" stroke-linecap="round" stroke-linejoin="round" stroke-miterlimit="10" d="
		M26.042,41.388c-0.589,0.178-1.286,0.167-1.751-0.234c-0.466-0.402-0.512-1.27,0.021-1.577c-0.066-0.362,0.264-0.704,0.628-0.755
		s0.726,0.121,1.02,0.342c0.403,0.306,0.741,0.754,0.754,1.26C26.726,40.93,26.526,41.242,26.042,41.388z"/>
	<path fill="none" stroke="#23295B" stroke-width="1.4" stroke-linecap="round" stroke-linejoin="round" stroke-miterlimit="10" d="
		M16.685,47.998c-1.005,0.293-2.187-0.313-2.535-1.299c-0.35-0.986,0.188-2.2,1.154-2.604c0.387-0.162,0.44-0.587,0.857-0.547
		c1.018,0.1,1.896,1.003,1.966,2.023C18.198,46.591,17.666,47.71,16.685,47.998z"/>
	<path fill="none" stroke="#23295B" stroke-width="1.4" stroke-linecap="round" stroke-linejoin="round" stroke-miterlimit="10" d="
		M18.179,31.297c-0.363,0.515-0.188,1.337,0.372,1.624c0.561,0.286,1.357-0.094,1.45-0.717s-0.613-1.225-1.202-1.003"/>
</g>
</svg>
