<?xml version="1.0" encoding="utf-8"?>
<!-- Generator: Adobe Illustrator 16.0.0, SVG Export Plug-In . SVG Version: 6.00 Build 0)  -->
<!DOCTYPE svg PUBLIC "-//W3C//DTD SVG 1.1//EN" "http://www.w3.org/Graphics/SVG/1.1/DTD/svg11.dtd">
<svg version="1.1" id="圖層_1" xmlns="http://www.w3.org/2000/svg" xmlns:xlink="http://www.w3.org/1999/xlink" x="0px" y="0px"
	 width="82.449px" height="139.597px" viewBox="0 0 82.449 139.597" enable-background="new 0 0 82.449 139.597"
	 xml:space="preserve">
<g>
	<path fill="#2F2B2B" d="M4.234,65.569c0.023,0.358,0.104,0.718,0.249,1.076c1.025-2.193,2.824-4.001,4.996-4.909
		c-0.48-0.371-0.959-0.742-1.441-1.105C7.316,62.647,6.011,64.453,4.234,65.569z"/>
	<path fill="#2F2B2B" d="M8.682,59.797c0.057-0.026,0.115-0.047,0.175-0.063c-2.899,0.89-5.603,3.43-6.232,6.19
		c-0.031,0.139-0.058,0.287-0.079,0.438c0.603-0.195,1.166-0.465,1.689-0.794C4.07,63.093,6.574,60.755,8.682,59.797z"/>
	<path fill="#2F2B2B" d="M10.715,61.364c0.006-0.015,0.008-0.027,0.012-0.041c-0.427,0.103-0.843,0.244-1.247,0.413
		c0.2,0.154,0.399,0.307,0.601,0.46c-1.181,0.565-2.459,1.329-2.816,2.697c-0.207,0.783-0.307,1.409-0.752,2.092
		c-0.428,0.654-1.488,0.773-1.885,0c-0.06-0.112-0.099-0.225-0.144-0.34c-0.277,0.593-0.503,1.21-0.659,1.847
		c-0.448-0.448-0.9-0.9-1.353-1.352c-0.03,0.873,0.102,1.787,0.472,2.391C6.941,68.479,9.294,65.073,10.715,61.364z"/>
	<path fill="#2F2B2B" d="M1.881,66.548c0.196,0.196,0.394,0.395,0.591,0.592c0.01-0.267,0.035-0.529,0.073-0.777
		C2.328,66.433,2.107,66.499,1.881,66.548z"/>
	<path fill="#2F2B2B" d="M35.28,53.291c-0.196,0.693-0.351,1.493-0.233,2.141c2.116,0.001,4.045-0.654,5.697-1.761
		c1.69-1.699,3.287-3.582,4.375-5.722c0.32-0.63,0.818-2.1,0.664-3.058c-0.323-0.416-0.849-0.664-1.388-0.442
		c-0.984,0.4-2.338,0.968-3.626,1.704c-1.535,1.3-2.98,3.014-3.893,4.728c-0.001,0.105,0.003,0.212,0.013,0.32
		c0.037,0.368,0.291,0.704,0.638,0.775c0.711-0.251,1.381-0.6,1.999-1.028c0.431-0.402,0.829-0.862,1.31-1.323
		c0.229-0.219,0.476-0.419,0.73-0.612c0.84-1.059,1.486-2.297,1.877-3.621c0.665,0.515,1.33,1.031,1.993,1.536
		c-1.319,0.569-2.706,1.204-3.87,2.085c-0.59,0.745-1.273,1.402-2.04,1.936c-0.459,0.427-0.956,0.787-1.636,1.007
		c-0.128,0.041-0.251,0.045-0.363,0.021c-0.411,0.146-0.839,0.253-1.275,0.33c-0.19,0.555-0.316,1.098-0.345,1.611
		C35.7,53.709,35.489,53.499,35.28,53.291z"/>
	<path fill="#2F2B2B" d="M47.497,42.399c0.439-0.013,0.891-0.271,0.954-0.727c0.167-1.15-0.149-1.725-0.615-2.795
		c-0.754-1.705-1.408-3.451-2.043-5.205c-1.318-3.659-2.409-7.406-3.421-11.174c-1.034-3.823-1.683-7.69-2.292-11.562
		c1.77-1.166,3.44-2.488,4.593-4.094c0.347-0.496-0.297-0.922-0.734-0.734c-1.469,0.638-2.856,1.557-4.22,2.536
		c-0.433-2.745-0.88-5.488-1.471-8.216c-0.119-0.565-1.031-0.575-1.141,0c-0.642,3.222-0.519,6.686-0.044,10.149
		c-0.646,0.462-1.294,0.91-1.948,1.313c-3.193,1.963-6.544,3.658-9.885,5.334c-6.102,3.068-12.372,5.797-18.52,8.794
		c-0.794-1.85-1.684-3.649-2.7-5.363c5.58-1.081,11.12-4.687,15.846-7.476c3.133-1.845,6.187-3.827,9.19-5.871
		c2.519-1.714,5.553-3.45,7.318-5.998c0.178-0.257-0.121-0.634-0.417-0.535C33.33,1.696,31.1,3.66,28.85,5.227
		c-2.985,2.063-6.029,4.015-9.133,5.889c-2.845,1.725-5.77,3.312-8.705,4.877c-2.487,1.324-5.123,2.358-7.546,3.777
		c-0.076-0.121-0.148-0.246-0.226-0.366c-0.27-0.417-1.042-0.149-0.834,0.347c0.072,0.18,0.14,0.361,0.213,0.542
		c-0.138,0.088-0.276,0.169-0.411,0.26c-0.149,0.099-0.109,0.376,0.1,0.357c0.175-0.017,0.351-0.046,0.526-0.069
		c0.783,1.991,1.521,3.989,2.204,5.997c-0.067,0.034-0.136,0.066-0.203,0.1c-0.416,0.208-0.049,0.813,0.366,0.625
		c0.025-0.011,0.05-0.021,0.072-0.032c3.31,9.899,5.371,20.027,5.914,30.498c-4.055-0.281-7.969,2.511-10.069,5.822
		c-1.527,2.408-1.895,7.784,1.526,8.924c3.014,1.001,6.107-1.795,8.07-3.719c2.301-2.25,4.987-5.473,5.522-8.755
		c0.118-0.783-0.188-1.587-1.031-1.804c-0.37-0.097-0.739-0.166-1.107-0.224c-0.032-6.085-1.533-12.454-2.928-18.198
		c-1.088-4.438-2.362-9.008-4.145-13.323c6.313-2.781,12.761-5.254,19.036-8.103c3.422-1.547,6.723-3.312,9.935-5.235
		c0.446-0.267,0.91-0.539,1.379-0.816c0.585,3.387,1.433,6.728,2.161,9.789c0.912,3.808,2.063,7.565,3.341,11.274
		c0.657,1.907,1.424,5.379,2.861,7.404c-6.248-0.244-12.257,6.902-13.579,12.494c-0.624,2.618,0.258,4.967,2.786,6.008
		c2.924,1.21,5.751-1.547,7.595-3.44C44.737,53.871,51.051,45.504,47.497,42.399z M5.252,69.86
		c-1.158,0.643-1.888,0.357-2.309-0.329c-0.074,0.02-0.145,0.043-0.22,0.062c-1.189,0.287-2.222-0.752-1.943-1.943
		c1.192-5.062,5.464-8.901,10.417-9.442c0.021,0.399,0.038,0.799,0.055,1.198c-0.783-0.033-1.588,0.082-2.378,0.323
		c0.956-0.269,2.262,0.43,1.853,1.595c0.192-0.047,0.387-0.084,0.582-0.116c0.002,0.112,0.009,0.223,0.01,0.336
		c0.018,0.703,0.435,1.104,0.934,1.227C10.651,65.723,7.76,68.464,5.252,69.86z M13.989,61.241c0.017-0.208,0.03-0.416,0.044-0.623
		c0.133,0.236,0.265,0.469,0.4,0.705C14.284,61.287,14.137,61.265,13.989,61.241z M36.252,52.306c0.16-0.47,0.369-0.947,0.625-1.426
		c0.018-2.002,1.874-3.572,3.893-4.728c1.113-0.942,2.271-1.666,3.299-2.012c1.144-0.381,1.602,0.049,1.715,0.75
		c0.272,0.348,0.406,0.813,0.287,1.224c-0.869,3.062-2.766,5.841-5.326,7.556c-0.111,0.112-0.223,0.226-0.334,0.336
		c-0.992,0.972-2.975,3.202-4.562,2.509c-0.479-0.207-0.715-0.604-0.802-1.084c-0.211,0-0.421,0.007-0.637-0.007
		c-0.771-0.05-1.547-0.654-1.496-1.507c0.188-3.123,2.469-6.177,4.521-8.389c1.863-2.012,4.699-4.708,7.733-4.144
		c0.401,0.073,0.754,0.174,1.074,0.296c0.14,0.146,0.288,0.276,0.44,0.394c-0.04,0.395-0.316,0.753-0.84,0.747
		c-4.711-0.028-8.775,5.295-10.193,9.331c-0.024,0.073-0.055,0.155-0.084,0.241C35.798,52.374,36.025,52.346,36.252,52.306z"/>
	<path fill="#2F2B2B" d="M34.41,52.42c0.295,0.294,0.582,0.581,0.87,0.87c0.094-0.333,0.196-0.641,0.286-0.896
		C35.188,52.427,34.804,52.444,34.41,52.42z"/>
</g>
<g>
	<path fill="#2F2B2B" d="M53.675,94.616c-2.417,3.807,1.001,6.643,4.506,7.281c1.283,0.239,1.674-1.643,0.75-2.286
		c-1.082-0.753-2.63-1.748-1.743-3.104c0.856-1.316,2.551-2.148,4.125-2.706c0.142-1.473,0.277-2.947,0.404-4.421
		C58.545,90.224,55.367,91.965,53.675,94.616z"/>
	<path fill="#2F2B2B" d="M61.313,93.801c-0.618,6.383-1.397,12.745-2.54,19.065c-0.147,0.817-0.32,1.851-0.526,3.027
		c1.178-0.158,2.337-0.417,3.451-0.749c0.555-2.882,1-5.775,1.412-8.612c0.655-4.515,1.164-9.044,1.594-13.584
		c-0.693,0.092-1.392,0.233-2.084,0.435C62.21,93.502,61.765,93.641,61.313,93.801z"/>
	<path fill="#2F2B2B" d="M43.983,136.496c-1.493-0.5-2.073,1.613-0.739,2.256c5.879,2.813,10.421-1.896,12.999-6.774
		c2.089-3.957,3.507-8.262,4.562-12.669c-1.095,0.204-2.194,0.339-3.286,0.397C55.755,128.133,52.199,139.191,43.983,136.496z"/>
	<path fill="#2F2B2B" d="M49.398,114.721c-4.459-2.189-7.11-7.295-7.099-12.15c0.016-5.275,3.419-10.007,6.761-13.794
		c3.927-4.458,8.539-8.306,13.041-12.166c0.217-0.187,0.435-0.374,0.652-0.562c0.095-1.276,0.19-2.553,0.288-3.831
		c0.028-0.355,0.066-0.703,0.101-1.055c-4.164,3.672-8.461,7.198-12.473,11.044c-7.051,6.748-14.58,16.066-11.008,26.436
		c2.847,8.267,10.186,11.484,17.856,11.063c0.284-1.361,0.523-2.656,0.728-3.812C55.234,116.299,52.116,116.054,49.398,114.721z"/>
	<path fill="#2F2B2B" d="M79.649,104.02c1.069-3.714,0.019-7.362-2.264-10.372c-2.964-3.92-7.621-5.171-12.31-4.828
		c-0.118,1.376-0.243,2.753-0.373,4.129c4.113-0.545,8.101,0.845,10.41,4.645c4.803,7.899-6.649,15.363-12.789,17.358
		c-0.207,0.066-0.417,0.131-0.627,0.193c-0.268,1.393-0.563,2.783-0.893,4.163C69.229,117.739,77.341,112.028,79.649,104.02z"/>
	<path fill="#2F2B2B" d="M66.837,67.868c0.262-1.828,0.601-3.639,1.077-5.451c1.133-4.32,2.368-8.604,3.776-12.831
		c1.201-3.593,2.513-8.182,5.329-10.88c0.988-0.937,1.657-0.171,1.986,0.935c0.692,2.283-0.013,5.061-0.561,7.288
		c-1.058,4.297-2.702,8.619-4.683,12.578C72.155,62.71,69.528,65.404,66.837,67.868c-0.241,1.685-0.415,3.388-0.559,5.118
		c2.65-2.355,5.221-4.8,7.535-7.501c2.591-3.021,4.105-6.602,5.538-10.276c1.734-4.461,3.43-9.629,3.041-14.469
		c-0.226-2.776-2.146-6.472-5.512-5.384c-3.063,0.994-4.717,4.824-5.962,7.48c-2.014,4.302-3.4,8.88-4.703,13.438
		c-1.436,5.024-2.579,9.739-3.073,14.891c0.307-0.271,0.616-0.54,0.92-0.813C64.97,69.542,65.907,68.718,66.837,67.868z"/>
	<path fill="#2F2B2B" d="M61.717,89.38c0.985-0.263,1.97-0.44,2.91-0.528c0.148-0.016,0.299-0.023,0.449-0.032
		c0.304-3.592,0.568-7.186,0.826-10.78c0.122-1.722,0.238-3.401,0.376-5.054c-1.164,1.033-2.343,2.051-3.524,3.063
		C62.424,80.495,62.099,84.94,61.717,89.38z"/>
</g>
</svg>
