<?xml version="1.0" encoding="utf-8"?>
<!-- Generator: Adobe Illustrator 16.0.0, SVG Export Plug-In . SVG Version: 6.00 Build 0)  -->
<!DOCTYPE svg PUBLIC "-//W3C//DTD SVG 1.1//EN" "http://www.w3.org/Graphics/SVG/1.1/DTD/svg11.dtd">
<svg version="1.1" id="圖層_1" xmlns="http://www.w3.org/2000/svg" xmlns:xlink="http://www.w3.org/1999/xlink" x="0px" y="0px"
	 width="110.637px" height="108.723px" viewBox="1.863 -7.356 110.637 108.723"
	 enable-background="new 1.863 -7.356 110.637 108.723" xml:space="preserve">
<g>
	<path fill="#09B1AB" d="M95.327,46.515c-0.575-0.026-1.153-0.085-1.726-0.152c-0.302-0.036-0.613-0.055-0.913-0.11
		c-0.378-0.069-0.755-0.14-1.133-0.21c-0.294-0.055-0.585-0.136-0.877-0.207c-0.272-0.065-0.544-0.13-0.813-0.212
		c-0.346-0.104-0.689-0.208-1.035-0.313c-0.33-0.101-0.652-0.243-0.975-0.364c-0.618-0.233-1.225-0.505-1.815-0.801
		c-0.736-0.37-1.46-0.78-2.132-1.259c-0.484-0.345-0.932-0.729-1.368-1.132c-0.268-0.246-0.534-0.492-0.802-0.739
		c-0.603-0.556-1.153-1.16-1.668-1.795c-1.013-1.247-1.71-2.765-2.085-4.322c-0.408-1.698-0.221-3.446,0.2-5.121
		c0.2-0.798,0.483-1.586,0.841-2.327c0.351-0.729,0.802-1.405,1.283-2.055c1.05-1.419,2.381-2.559,3.783-3.616
		c0.671-0.506,1.387-0.951,2.126-1.35c0.821-0.445,1.698-0.75,2.586-1.031c1.579-0.499,3.223-0.853,4.882-0.909
		c1.658-0.058,3.364-0.036,4.984,0.357c0.325,0.08,0.646,0.178,0.965,0.284c0.304-0.161,0.677-0.187,1.016-0.049
		c1.082,0.437,2.178,0.864,3.226,1.378c0.608,0.298,1.208,0.607,1.8,0.937c0.531,0.295,1.027,0.659,1.51,1.028
		c0.512,0.391,0.969,0.855,1.413,1.318c0.408,0.427,0.784,0.9,1.135,1.374c0.415,0.56,0.786,1.14,1.147,1.735
		c0.14,0.23,0.255,0.477,0.38,0.715c0.145,0.276,0.275,0.572,0.388,0.863c0.231,0.605,0.454,1.223,0.567,1.863
		c0.06,0.335,0.119,0.667,0.163,1.004c0.044,0.338,0.07,0.674,0.094,1.015c0.04,0.582,0.032,1.186-0.017,1.767
		c-0.057,0.648-0.117,1.294-0.224,1.937c-0.081,0.492-0.168,0.98-0.275,1.469c-0.145,0.662-0.393,1.294-0.684,1.902
		c-0.252,0.525-0.513,1.043-0.821,1.538c-0.404,0.65-0.924,1.203-1.513,1.69c-0.849,0.702-1.799,1.253-2.777,1.752
		c-0.718,0.365-1.473,0.692-2.246,0.918c-0.35,0.104-0.699,0.206-1.049,0.31c-0.517,0.151-1.049,0.279-1.577,0.385
		c-0.359,0.072-0.718,0.144-1.078,0.217c-0.344,0.069-0.695,0.11-1.041,0.164c-0.245,0.038-0.484,0.073-0.73,0.096
		c-0.366,0.032-0.737,0.085-1.105,0.091c-0.344,0.005-0.687,0.009-1.031,0.015c-0.02,0-0.039,0-0.058,0
		C95.942,46.562,95.632,46.53,95.327,46.515z M95.725,44.206c0.247,0.012,0.495,0.032,0.743,0.028
		c0.282-0.004,0.563-0.009,0.846-0.013c0.392-0.033,0.792-0.047,1.18-0.107c0.402-0.063,0.805-0.125,1.206-0.188
		c0.6-0.12,1.197-0.239,1.791-0.383c0.604-0.147,1.196-0.319,1.793-0.494c0.439-0.151,0.872-0.315,1.299-0.501
		c0.641-0.3,1.275-0.633,1.88-1.003c0.36-0.235,0.706-0.483,1.039-0.754c0.181-0.156,0.354-0.316,0.519-0.489
		c0.126-0.147,0.245-0.298,0.359-0.455c0.186-0.286,0.354-0.578,0.514-0.879c0.214-0.426,0.42-0.856,0.593-1.3
		c0.103-0.308,0.188-0.616,0.26-0.932c0.141-0.708,0.242-1.421,0.337-2.137c-0.005,0.049-0.01,0.1-0.013,0.148
		c0.029-0.353,0.064-0.704,0.078-1.059c0.015-0.381,0.016-0.759,0.012-1.141c-0.031-0.421-0.071-0.836-0.125-1.255
		c-0.063-0.35-0.133-0.696-0.213-1.043c-0.086-0.274-0.175-0.545-0.278-0.813c-0.102-0.265-0.219-0.522-0.336-0.78
		c-0.111-0.212-0.223-0.423-0.333-0.635c-0.102-0.194-0.226-0.38-0.342-0.565c-0.202-0.301-0.403-0.599-0.619-0.89
		c-0.19-0.258-0.39-0.507-0.592-0.755c-0.17-0.195-0.337-0.393-0.517-0.581c-0.201-0.211-0.408-0.411-0.62-0.61
		c-0.264-0.225-0.529-0.439-0.806-0.651c-0.275-0.191-0.552-0.386-0.845-0.548c-0.354-0.197-0.709-0.389-1.066-0.575
		c-0.312-0.152-0.624-0.299-0.939-0.442c-0.173,0.095-0.371,0.147-0.58,0.147c-0.379,0-0.705-0.221-1.026-0.398
		c-0.297-0.146-0.595-0.28-0.897-0.412c-0.247-0.106-0.502-0.192-0.755-0.282c-0.469-0.148-0.933-0.298-1.409-0.417
		c-0.4-0.079-0.805-0.131-1.212-0.172c-0.968-0.078-1.938-0.09-2.908-0.06c-0.548,0.026-1.089,0.084-1.63,0.169
		c-0.815,0.146-1.617,0.338-2.412,0.574c0.014-0.005,0.027-0.009,0.041-0.014c-0.64,0.197-1.275,0.408-1.891,0.675
		c-0.494,0.236-0.97,0.502-1.437,0.788c-0.733,0.472-1.423,1.004-2.098,1.555c-0.502,0.425-0.979,0.873-1.429,1.355
		c-0.372,0.424-0.717,0.866-1.043,1.327c-0.234,0.348-0.45,0.704-0.649,1.073c-0.163,0.328-0.304,0.662-0.434,1.005
		c-0.181,0.521-0.332,1.048-0.454,1.586c-0.083,0.417-0.15,0.833-0.195,1.255c-0.022,0.319-0.034,0.637-0.029,0.957
		c0.019,0.301,0.051,0.598,0.098,0.896c0.056,0.288,0.123,0.571,0.203,0.854c0.129,0.396,0.278,0.781,0.444,1.162
		c0.167,0.355,0.35,0.701,0.555,1.038c0.208,0.313,0.431,0.612,0.667,0.905c0.69,0.814,1.474,1.532,2.258,2.254
		c-0.004-0.004-0.007-0.007-0.011-0.011c0.328,0.285,0.661,0.562,1.015,0.816c0.546,0.368,1.113,0.696,1.697,0.999
		c0.446,0.222,0.904,0.418,1.357,0.625c0.199,0.09,0.414,0.155,0.619,0.232c0.169,0.064,0.339,0.128,0.509,0.192
		c0.416,0.125,0.832,0.251,1.247,0.377c0.383,0.116,0.782,0.194,1.173,0.286c0.38,0.07,0.76,0.142,1.14,0.212
		c0.188,0.035,0.384,0.046,0.574,0.068c0.222,0.026,0.444,0.053,0.666,0.079C94.77,44.142,95.247,44.184,95.725,44.206z"/>
	<path fill="#09B1AB" d="M91.093,31.52c-0.56-0.241-0.887-0.962-0.604-1.53c0.563-1.14,1.209-2.234,1.837-3.34
		c0.318-0.561,0.636-1.123,0.94-1.69c0.16-0.299,0.318-0.598,0.475-0.897c0.137-0.263,0.268-0.528,0.438-0.772
		c0.362-0.521,1.164-0.562,1.636-0.185c0.241,0.192,0.399,0.479,0.431,0.787c0.034,0.316-0.068,0.591-0.246,0.847
		c-0.002,0.002-0.002,0.003-0.003,0.006c0.028-0.043,0.058-0.085,0.088-0.127c-0.303,0.493-0.547,1.026-0.82,1.536
		c-0.282,0.526-0.574,1.046-0.869,1.565c-0.548,0.966-1.109,1.925-1.626,2.908c-0.049,0.096-0.098,0.191-0.146,0.287
		c-0.141,0.285-0.353,0.511-0.654,0.626c-0.132,0.05-0.272,0.074-0.412,0.074C91.397,31.615,91.239,31.583,91.093,31.52z"/>
	<path fill="#09B1AB" d="M99.015,32.948c-0.635-0.096-1.06-0.697-0.975-1.324c0.169-1.25,0.419-2.482,0.708-3.709
		c0.127-0.539,0.276-1.075,0.438-1.604c0.046-0.153,0.094-0.305,0.14-0.457c0.048-0.157,0.074-0.338,0.146-0.484
		c0.193-0.394,0.515-0.642,0.95-0.702c0.628-0.085,1.214,0.419,1.279,1.035c0.018,0.17-0.003,0.333-0.053,0.483
		c-0.138,0.505-0.295,1.005-0.442,1.508c-0.142,0.49-0.25,0.99-0.367,1.487c0.01-0.048,0.021-0.097,0.03-0.146
		c-0.21,0.975-0.396,1.95-0.529,2.938c-0.078,0.572-0.599,0.987-1.158,0.987C99.127,32.961,99.071,32.957,99.015,32.948z
		 M101.052,26.863c0.015-0.004,0.029-0.009,0.044-0.013c0,0,0,0-0.001,0c0.044-0.027,0.087-0.055,0.131-0.082
		c0.007-0.009,0.013-0.017,0.02-0.025C101.185,26.788,101.12,26.828,101.052,26.863z"/>
	<path fill="#09B1AB" d="M96.475,39.384c-0.458-0.024-0.913-0.08-1.369-0.128c-0.493-0.053-0.981-0.122-1.469-0.213
		c-0.753-0.142-1.481-0.375-2.194-0.652c-1.471-0.571-2.83-1.471-3.949-2.579c-1.088-1.078-1.875-2.467-2.248-3.949
		c-0.166-0.663-0.273-1.373-0.213-2.057c0.021-0.235,0.063-0.462,0.185-0.667c0.163-0.271,0.427-0.456,0.73-0.535
		c0.614-0.158,1.257,0.256,1.401,0.863c0.043,0.183,0.04,0.363-0.001,0.533c-0.001,0.01-0.003,0.02-0.004,0.029
		c-0.003,0.061-0.005,0.12-0.004,0.181c0.013,0.206,0.036,0.409,0.065,0.613c0.051,0.276,0.113,0.549,0.188,0.82
		c0.064,0.199,0.138,0.393,0.219,0.586c0.135,0.284,0.283,0.559,0.445,0.827c0.165,0.249,0.341,0.489,0.528,0.722
		c0.206,0.236,0.422,0.46,0.648,0.677c0.294,0.259,0.6,0.499,0.919,0.726c0.379,0.255,0.769,0.485,1.173,0.697
		c0.373,0.183,0.753,0.346,1.142,0.491c0.396,0.136,0.794,0.253,1.201,0.349c0.765,0.153,1.535,0.232,2.31,0.315
		c0.388,0.028,0.771,0.05,1.16,0.043c0.34-0.019,0.676-0.051,1.013-0.102c0.367-0.067,0.729-0.151,1.088-0.254
		c0.348-0.112,0.688-0.242,1.021-0.389c0.285-0.14,0.563-0.288,0.835-0.451c0.396-0.257,0.77-0.541,1.139-0.835
		c0.405-0.346,0.798-0.699,1.164-1.085c0.084-0.098,0.165-0.195,0.245-0.297c0.393-0.497,1.14-0.58,1.635-0.186
		c0.497,0.396,0.578,1.138,0.185,1.635c-0.775,0.98-1.766,1.778-2.775,2.504c-0.578,0.417-1.229,0.735-1.884,1.013
		c-0.711,0.302-1.472,0.498-2.231,0.63c-0.561,0.096-1.124,0.141-1.689,0.141C96.881,39.401,96.677,39.396,96.475,39.384z"/>
	<path fill="#09B1AB" d="M81.413,76.566c-0.687-0.004-1.37-0.018-2.058-0.047c-0.644-0.027-1.283-0.09-1.926-0.145
		c-0.297-0.025-0.592-0.076-0.887-0.115c-0.406-0.053-0.821-0.133-1.216-0.242c-0.278-0.078-0.557-0.205-0.784-0.387
		c-0.239-0.191-0.376-0.428-0.491-0.707c-0.173-0.414-0.031-0.885,0.055-1.305c0.109-0.543,0.219-1.088,0.326-1.631
		c0.49-2.49,0.998-4.975,1.531-7.453c0.539-2.502,1.061-5.006,1.683-7.488c0.6-2.387,1.308-4.752,2.039-7.104
		c0.346-1.111,0.72-2.215,1.048-3.333c0.35-1.191,0.681-2.385,0.964-3.594c0.02-0.097,0.039-0.193,0.053-0.292
		c0.071-0.589,0.574-1.055,1.183-1.04c0.625,0.015,1.16,0.557,1.136,1.189c-0.011,0.264-0.074,0.524-0.133,0.78
		c-0.076,0.325-0.153,0.648-0.236,0.973c-0.145,0.569-0.293,1.139-0.458,1.703c-0.354,1.205-0.742,2.398-1.114,3.597
		c-0.366,1.178-0.734,2.355-1.076,3.541c-0.355,1.234-0.727,2.469-1.041,3.717c-0.29,1.154-0.568,2.311-0.836,3.471
		c-0.507,2.34-1.015,4.678-1.506,7.021c-0.249,1.189-0.486,2.383-0.722,3.576c-0.173,0.877-0.356,1.75-0.527,2.627
		c0.816,0.146,1.643,0.219,2.47,0.291c0.75,0.031,1.498,0.063,2.248,0.066c0.776,0.006,1.552-0.016,2.328-0.033
		c2.265-0.1,4.529-0.195,6.796-0.277c-0.032,0-0.064,0.002-0.098,0.004c2.087-0.086,4.172-0.191,6.255-0.33
		c0.965-0.064,1.929-0.148,2.891-0.246c0.915-0.092,1.832-0.184,2.74-0.328c0.004,0,0.007-0.002,0.011-0.002l0,0
		c0.021-0.064,0.04-0.127,0.057-0.191c0.033-0.184,0.059-0.363,0.08-0.549c0.049-0.646,0.054-1.305,0.027-1.951
		c0.002,0.033,0.003,0.066,0.005,0.1c-0.021-0.49-0.042-0.982-0.062-1.473c-0.063-1.209-0.114-2.418-0.211-3.625
		c-0.104-1.275-0.215-2.549-0.356-3.82c-0.148-1.328-0.302-2.654-0.467-3.979c-0.153-1.23-0.338-2.455-0.525-3.68
		c-0.223-1.447-0.435-2.893-0.563-4.352c-0.058-0.658-0.1-1.318-0.13-1.979c-0.021-0.443-0.033-0.888-0.073-1.331
		c-0.055-0.631,0.397-1.213,1.035-1.279c0.624-0.065,1.224,0.403,1.279,1.035c0.074,0.828,0.079,1.661,0.139,2.491
		c0.086,1.201,0.216,2.396,0.385,3.59c0.17,1.186,0.378,2.367,0.538,3.555c0.178,1.311,0.345,2.619,0.497,3.932
		c0.175,1.5,0.348,3.002,0.469,4.508c0.128,1.588,0.236,3.178,0.301,4.77c-0.001-0.012-0.002-0.025-0.002-0.039
		c0.002,0.043,0.003,0.084,0.005,0.127c0.001,0.008,0.001,0.016,0.001,0.021c0-0.004,0-0.008,0-0.012
		c0.026,0.602,0.06,1.203,0.064,1.805c0.004,0.438,0.011,0.875-0.008,1.313c-0.031,0.762-0.116,1.615-0.518,2.283
		c-0.303,0.508-0.789,0.873-1.373,0.982c-0.3,0.059-0.601,0.102-0.901,0.145c-0.604,0.082-1.209,0.145-1.814,0.209
		c-2.485,0.262-4.981,0.404-7.477,0.525c-1.851,0.09-3.702,0.148-5.552,0.221c-1.192,0.055-2.386,0.125-3.579,0.156
		c-0.593,0.014-1.186,0.033-1.779,0.033C81.506,76.566,81.46,76.566,81.413,76.566z"/>
	<path fill="#09B1AB" d="M56.901,56.994c-0.22-0.58,0.075-1.295,0.674-1.502c1.145-0.395,2.324-0.646,3.503-0.908
		c1.18-0.26,2.354-0.545,3.527-0.832c2.599-0.637,5.201-1.26,7.807-1.873c4.964-1.17,9.963-2.184,14.959-3.207
		c2.181-0.447,4.36-0.9,6.539-1.361c1.018-0.215,2.034-0.438,3.049-0.67c0.557-0.127,1.113-0.255,1.668-0.39
		c0.5-0.122,1.002-0.273,1.509-0.362c0.304-0.052,0.597-0.028,0.866,0.135c0.268,0.16,0.463,0.426,0.535,0.729
		c0.139,0.588-0.237,1.293-0.863,1.401c-0.26,0.045-0.515,0.115-0.771,0.18c-0.314,0.078-0.631,0.156-0.947,0.232
		c-0.64,0.156-1.282,0.299-1.924,0.445c-1.102,0.252-2.206,0.484-3.312,0.719c-2.579,0.545-5.16,1.072-7.742,1.602
		c-2.536,0.521-5.071,1.045-7.602,1.592c-2.547,0.553-5.087,1.141-7.624,1.738c-1.974,0.465-3.943,0.953-5.913,1.43
		c-1.066,0.26-2.132,0.512-3.201,0.754c-0.92,0.207-1.839,0.4-2.744,0.662c-0.165,0.053-0.329,0.105-0.493,0.162
		c-0.133,0.047-0.27,0.068-0.404,0.068C57.525,57.736,57.079,57.465,56.901,56.994z"/>
	<path fill="#09B1AB" d="M54.662,42.895c-0.065-0.625,0.404-1.22,1.035-1.278c1.408-0.133,2.819-0.233,4.23-0.332
		c1.202-0.084,2.408-0.176,3.612-0.211c0.744-0.021,1.489-0.042,2.233-0.063c0.422-0.012,0.846-0.011,1.27-0.009
		c0.191,0,0.382,0,0.574,0c1.285-0.003,2.571,0.013,3.857,0.025c1.667,0.016,3.335,0.058,5.002,0.08
		c0.931,0.013,1.86,0.024,2.791,0.025c0.912,0.002,1.82-0.01,2.732-0.03c0.221-0.01,0.443-0.021,0.665-0.03
		c0.247-0.011,0.498-0.044,0.744-0.031c0.633,0.033,1.151,0.542,1.137,1.189c-0.015,0.619-0.557,1.169-1.189,1.136
		c-0.023-0.001-0.046-0.001-0.069-0.001c-2.462,0.133-4.928,0.104-7.393,0.061c-2.519-0.043-5.041-0.107-7.56-0.1
		c-0.284,0.001-0.567-0.001-0.851-0.003c-0.556-0.003-1.11-0.006-1.664,0.01c-0.767,0.021-1.532,0.044-2.299,0.065
		c-2.528,0.136-5.059,0.294-7.581,0.531c-0.036,0.003-0.073,0.005-0.109,0.005C55.245,43.935,54.725,43.492,54.662,42.895z"/>
	<path fill="#09B1AB" d="M54.231,45.843c-0.261-0.037-0.521-0.154-0.752-0.278c-0.302-0.162-0.557-0.37-0.8-0.61
		c-0.512-0.505-0.821-1.192-0.986-1.882c-0.159-0.662-0.094-1.434,0.172-2.06c0.137-0.325,0.313-0.615,0.516-0.903
		c0.209-0.297,0.49-0.536,0.771-0.759c0.26-0.206,0.587-0.363,0.906-0.449c0.374-0.102,0.726-0.118,1.11-0.071
		c0.519,0.063,0.989,0.359,1.386,0.681c0.241,0.196,0.448,0.428,0.659,0.653c0.269,0.289,0.486,0.618,0.688,0.956
		c0.059,0.099,0.105,0.205,0.159,0.307c0.137,0.198,0.216,0.438,0.21,0.686c-0.015,0.645-0.557,1.136-1.189,1.136
		c-0.009,0-0.019,0-0.027-0.001c0.001,0.808-0.273,1.597-0.929,2.137C55.9,45.57,55.613,45.74,55.325,45.8
		c-0.198,0.041-0.374,0.069-0.576,0.082c-0.03,0.002-0.06,0.003-0.089,0.003C54.515,45.885,54.379,45.865,54.231,45.843z"/>
	<path fill="#09B1AB" d="M57.656,59.754c-0.633-0.135-1.178-0.455-1.632-0.912c-0.223-0.223-0.411-0.537-0.523-0.832
		c-0.128-0.334-0.201-0.67-0.234-1.027c-0.055-0.578-0.021-1.236,0.202-1.779c0.256-0.623,0.671-1.143,1.234-1.514
		c1.066-0.703,2.409-0.676,3.536-0.133c0.426,0.207,0.884,0.418,1.21,0.771c0.289,0.313,0.565,0.666,0.612,1.105
		c0.049,0.463-0.193,0.9-0.574,1.127c0.015,0.105,0.022,0.215,0.029,0.318c0.013,0.164,0.013,0.346-0.019,0.506
		c-0.034,0.172-0.063,0.33-0.123,0.494c-0.064,0.176-0.142,0.33-0.228,0.496c-0.136,0.26-0.359,0.482-0.57,0.68
		c-0.241,0.225-0.548,0.404-0.855,0.521c-0.436,0.166-0.883,0.256-1.336,0.256C58.144,59.832,57.901,59.806,57.656,59.754z"/>
	<path fill="#09B1AB" d="M70.584,101.111c-0.516-0.162-1.021-0.414-1.498-0.666c-1.177-0.619-2.03-1.793-2.114-3.133
		c-0.039-0.617,0.117-1.199,0.412-1.738c0.313-0.57,0.896-0.99,1.479-1.25c0.636-0.283,1.3-0.381,1.992-0.385
		c0.819-0.006,1.615,0.182,2.382,0.457c0.738,0.264,1.424,0.686,2.065,1.141c0.113-0.586,0.227-1.174,0.35-1.76
		c0.248-1.188,0.501-2.373,0.753-3.559c0.534-2.512,1.061-5.025,1.535-7.549c0.253-1.346,0.499-2.693,0.746-4.041
		c0.113-0.621,0.217-1.242,0.344-1.859c0.086-0.422,0.163-0.846,0.279-1.258c0.086-0.305,0.244-0.588,0.503-0.775
		c0.216-0.158,0.451-0.213,0.712-0.221c0.635-0.021,1.15,0.582,1.137,1.189c-0.005,0.18-0.051,0.355-0.134,0.514
		c-0.021,0.07-0.039,0.141-0.056,0.213c-0.51,2.492-0.934,5.006-1.404,7.506c-0.459,2.443-0.988,4.875-1.506,7.307
		c-0.336,1.576-0.678,3.15-0.981,4.734c-0.064,0.334-0.128,0.67-0.189,1.006c-0.032,0.17-0.059,0.342-0.101,0.512
		c0.115,0.279,0.125,0.604-0.009,0.893c-0.27,0.582-0.615,1.135-1.102,1.564c-0.468,0.41-1.006,0.693-1.579,0.934
		c-0.595,0.252-1.247,0.391-1.888,0.455c-0.163,0.018-0.327,0.025-0.491,0.025C71.666,101.367,71.111,101.275,70.584,101.111z
		 M72.352,99.035c0.175-0.012,0.347-0.035,0.521-0.059c0.167-0.037,0.333-0.078,0.499-0.121c0.192-0.064,0.38-0.135,0.567-0.213
		c0.133-0.064,0.263-0.131,0.393-0.205c0.084-0.055,0.165-0.113,0.245-0.174c0.062-0.057,0.12-0.113,0.178-0.172
		c0.012-0.014,0.022-0.027,0.033-0.041c-0.033-0.025-0.066-0.051-0.099-0.076c-0.297-0.225-0.597-0.441-0.9-0.656
		c-0.265-0.168-0.528-0.334-0.803-0.486c-0.254-0.125-0.51-0.236-0.774-0.336c-0.154-0.047-0.309-0.092-0.465-0.129
		c-0.19-0.037-0.381-0.063-0.573-0.086c-0.178-0.01-0.354-0.016-0.531-0.016c-0.126,0.008-0.249,0.021-0.373,0.039
		c-0.066,0.012-0.131,0.027-0.196,0.045c-0.103,0.035-0.202,0.072-0.302,0.113c-0.053,0.027-0.104,0.055-0.155,0.084
		c-0.038,0.025-0.076,0.053-0.112,0.082c-0.021,0.018-0.04,0.037-0.06,0.055c-0.018,0.023-0.034,0.045-0.052,0.066
		c-0.01,0.016-0.02,0.031-0.028,0.047c-0.011,0.025-0.022,0.051-0.033,0.076c-0.008,0.025-0.015,0.049-0.021,0.072
		c-0.006,0.033-0.011,0.064-0.016,0.096c-0.003,0.047-0.004,0.092-0.004,0.139c0.004,0.043,0.009,0.086,0.015,0.131
		c0.01,0.049,0.022,0.1,0.035,0.148c0.018,0.051,0.037,0.102,0.058,0.15c0.026,0.053,0.055,0.105,0.085,0.158
		c0.03,0.045,0.062,0.088,0.095,0.131c0.069,0.078,0.141,0.152,0.216,0.225c0.05,0.043,0.1,0.082,0.151,0.121
		c0.133,0.088,0.269,0.168,0.408,0.244c0.305,0.145,0.611,0.283,0.927,0.404c0.082,0.027,0.165,0.051,0.248,0.072
		c0.136,0.023,0.27,0.045,0.405,0.061C72.074,99.033,72.212,99.037,72.352,99.035z"/>
	<path fill="#09B1AB" d="M105.924,100.465c-0.313-0.002-0.625-0.039-0.936-0.066c-0.544-0.047-1.085-0.141-1.621-0.236
		c-0.577-0.104-1.152-0.217-1.726-0.348c-0.116-0.025-0.224-0.072-0.319-0.135c-0.436,0.139-0.929,0.012-1.247-0.328
		c-0.361-0.389-0.455-0.979-0.568-1.477c-0.265-1.168-0.492-2.342-0.722-3.516c-0.487-2.486-0.954-4.977-1.447-7.461
		c-0.319-1.609-0.641-3.219-0.948-4.832c-0.168-0.879-0.334-1.76-0.506-2.639c-0.188-0.957-0.364-1.918-0.594-2.867
		c-0.094-0.172-0.146-0.369-0.146-0.576c0-0.119,0.016-0.234,0.049-0.346c0.133-0.451,0.527-0.787,0.996-0.836
		c0.442-0.047,0.954,0.186,1.147,0.605c0.187,0.408,0.273,0.842,0.366,1.279c0.063,0.297,0.13,0.592,0.188,0.889
		c0.119,0.605,0.241,1.211,0.356,1.818c0.263,1.375,0.526,2.75,0.792,4.125c0.467,2.414,0.964,4.82,1.423,7.232
		c0.24,1.262,0.479,2.521,0.728,3.781c0.116,0.584,0.232,1.166,0.354,1.748c0.145-0.133,0.291-0.264,0.439-0.395
		c0.515-0.449,1.09-0.809,1.707-1.1c1.338-0.631,2.856-0.896,4.293-0.467c0.635,0.191,1.149,0.584,1.586,1.072
		c0.497,0.553,0.849,1.217,0.894,1.965c0.038,0.641-0.209,1.279-0.651,1.74c-0.466,0.488-1.062,0.809-1.69,1.037
		c-0.683,0.25-1.41,0.33-2.134,0.33C105.965,100.465,105.944,100.465,105.924,100.465z M106.325,98.135
		c0.169-0.012,0.335-0.031,0.503-0.057c0.131-0.027,0.259-0.059,0.388-0.094c0.137-0.045,0.27-0.096,0.401-0.152
		c0.097-0.049,0.189-0.1,0.282-0.152c0.043-0.031,0.086-0.061,0.128-0.09c-0.018,0.016-0.036,0.029-0.054,0.045
		c0.003-0.002,0.006-0.004,0.009-0.004c-0.004,0.002-0.007,0.004-0.011,0.006c-0.021,0.018-0.044,0.037-0.065,0.055
		c0.07-0.053,0.136-0.109,0.198-0.17c0.012-0.016,0.022-0.031,0.034-0.047c0,0,0,0,0.001,0c-0.001-0.01-0.002-0.02-0.002-0.029
		c-0.003-0.016-0.007-0.031-0.011-0.045c-0.014-0.037-0.027-0.072-0.042-0.107c-0.019-0.035-0.037-0.07-0.058-0.105
		c-0.034-0.047-0.068-0.094-0.102-0.141c-0.093-0.105-0.188-0.209-0.289-0.309c-0.034-0.029-0.069-0.057-0.105-0.084
		c-0.023-0.014-0.046-0.029-0.068-0.043c-0.043-0.02-0.086-0.039-0.129-0.055c-0.141-0.049-0.283-0.084-0.43-0.113
		c0.049,0.012,0.098,0.021,0.146,0.033c-0.079-0.016-0.158-0.027-0.238-0.035c-0.134-0.008-0.267-0.012-0.401-0.012
		c-0.143,0.01-0.284,0.025-0.426,0.043c-0.2,0.039-0.396,0.086-0.592,0.141c-0.231,0.078-0.457,0.164-0.683,0.26
		c-0.211,0.102-0.415,0.211-0.617,0.33c-0.17,0.113-0.335,0.232-0.496,0.359c-0.088,0.076-0.174,0.154-0.259,0.232
		c0.74,0.139,1.486,0.252,2.236,0.324C105.826,98.131,106.073,98.138,106.325,98.135z"/>
	<path fill="#09B1AB" d="M70.132,100.166c-0.845-2.961-1.691-5.924-2.533-8.887c0.014,0.049,0.027,0.098,0.041,0.145
		c-0.097-0.342-0.195-0.684-0.292-1.025c0.014,0.049,0.027,0.098,0.041,0.145c-0.553-1.939-1.107-3.881-1.659-5.822
		c-0.001,0-0.001-0.002-0.002-0.002c-0.016-0.047-0.029-0.094-0.039-0.141c-0.079-0.275-0.157-0.553-0.236-0.828
		c0.014,0.049,0.027,0.096,0.041,0.145c-0.679-2.375-1.355-4.752-2.03-7.129c0.013,0.049,0.027,0.098,0.04,0.145
		c-0.101-0.352-0.201-0.705-0.302-1.057c0.014,0.049,0.027,0.096,0.041,0.145c-0.112-0.396-0.225-0.789-0.337-1.186
		c0.014,0.049,0.027,0.096,0.041,0.146c-0.129-0.453-0.258-0.904-0.387-1.357c0.015,0.049,0.027,0.096,0.041,0.145
		c-0.136-0.479-0.272-0.955-0.407-1.434c0.014,0.049,0.027,0.098,0.04,0.145c-0.131-0.457-0.261-0.914-0.391-1.369
		c0.007,0.021,0.014,0.045,0.021,0.068c-0.141-0.492-0.281-0.982-0.42-1.473c0.014,0.047,0.027,0.096,0.041,0.145
		c-0.56-1.949-1.113-3.9-1.668-5.852c0.014,0.049,0.027,0.096,0.041,0.145c-0.125-0.439-0.25-0.879-0.375-1.316
		c0.014,0.047,0.027,0.096,0.041,0.145c-0.138-0.48-0.274-0.961-0.411-1.441c0.009,0.029,0.018,0.059,0.026,0.09
		c-0.166-0.582-0.333-1.166-0.499-1.748c0.014,0.047,0.027,0.096,0.041,0.145c-0.358-1.26-0.718-2.518-1.076-3.777
		c0.014,0.049,0.027,0.098,0.041,0.145c-0.164-0.578-0.33-1.156-0.494-1.734c0.007,0.023,0.013,0.045,0.02,0.068
		c-0.007-0.025-0.015-0.051-0.022-0.076c-0.006-0.023-0.013-0.045-0.019-0.068c0.003,0.012,0.007,0.023,0.01,0.035
		c-0.005-0.018-0.011-0.035-0.016-0.055c0.014,0.049,0.028,0.098,0.042,0.145c-0.175-0.611-0.35-1.223-0.523-1.836
		c0.014,0.049,0.027,0.098,0.041,0.145c-0.178-0.621-0.355-1.242-0.532-1.865c-0.003-0.01-0.005-0.02-0.008-0.029
		c-0.172-0.604-0.345-1.207-0.517-1.813c0.001,0.004,0.002,0.006,0.002,0.008c-0.003-0.01-0.006-0.021-0.009-0.031
		c0.01,0.035,0.02,0.068,0.029,0.104c-0.021-0.072-0.041-0.145-0.062-0.217c0.003,0.01,0.006,0.02,0.009,0.029
		c-0.177-0.617-0.354-1.236-0.529-1.855c0.014,0.049,0.027,0.096,0.041,0.145c-0.02-0.07-0.04-0.141-0.06-0.209
		c0.014,0.047,0.027,0.096,0.041,0.145c-0.182-0.639-0.365-1.278-0.546-1.917c0.014,0.049,0.027,0.097,0.041,0.145
		c-0.567-1.992-1.138-3.981-1.703-5.974c0.014,0.048,0.027,0.097,0.041,0.145c-0.181-0.634-0.361-1.268-0.541-1.901
		c-0.002-0.006-0.003-0.012-0.005-0.018c0.005,0.017,0.009,0.032,0.014,0.049c-0.012-0.042-0.024-0.083-0.035-0.125
		c-0.192-0.674-0.386-1.348-0.577-2.022c0.014,0.048,0.028,0.097,0.042,0.145c-0.797-2.794-1.596-5.587-2.39-8.381
		c0.014,0.048,0.027,0.096,0.041,0.145c-0.246-0.863-0.493-1.728-0.738-2.592c0.013,0.048,0.026,0.096,0.04,0.145
		c-0.233-0.819-0.467-1.639-0.7-2.458c0.009,0.029,0.018,0.059,0.026,0.089c-0.021-0.068-0.039-0.137-0.06-0.205
		c0.014,0.049,0.027,0.097,0.041,0.145c-0.24-0.846-0.482-1.69-0.722-2.537c0.013,0.049,0.027,0.097,0.04,0.145
		c-0.016-0.058-0.033-0.117-0.05-0.175c0.005,0.016,0.01,0.031,0.014,0.048c0.005,0.016,0.009,0.032,0.014,0.048
		c-0.239-0.842-0.48-1.685-0.72-2.527c0.014,0.048,0.027,0.096,0.041,0.144c-0.004-0.012-0.007-0.023-0.011-0.036
		c0.001,0.002,0.001,0.004,0.002,0.006c-0.001-0.003-0.002-0.006-0.003-0.009c-0.003-0.012-0.006-0.022-0.01-0.034
		c-0.218-0.765-0.436-1.528-0.652-2.293c0.014,0.049,0.026,0.097,0.04,0.145c-0.197-0.691-0.395-1.383-0.591-2.074v-0.001
		c-0.001-0.003-0.002-0.006-0.003-0.009c-0.01-0.036-0.021-0.073-0.031-0.11c0.012,0.039,0.022,0.079,0.033,0.118
		c-0.002-0.009-0.005-0.018-0.008-0.026c-0.069-0.247-0.141-0.494-0.211-0.74c-0.161-0.569-0.324-1.139-0.485-1.707
		c-0.016-0.043-0.028-0.087-0.038-0.132c-0.012-0.04-0.023-0.081-0.035-0.122c-0.273-0.957-0.546-1.913-0.817-2.871
		c0.014,0.048,0.027,0.097,0.041,0.145c-0.282-0.987-0.564-1.976-0.846-2.964c0.002,0.005,0.003,0.009,0.005,0.014
		c-0.268-0.935-0.535-1.868-0.799-2.801c0.014,0.048,0.027,0.096,0.041,0.145c-0.214-0.75-0.429-1.498-0.641-2.248
		c0.014,0.048,0.027,0.096,0.042,0.144c-0.202-0.704-0.404-1.409-0.604-2.114c0,0.002,0.001,0.005,0.002,0.008
		c-0.004-0.013-0.007-0.025-0.011-0.038c0.014,0.048,0.028,0.097,0.042,0.145c-0.212-0.739-0.423-1.479-0.633-2.217
		c0.014,0.048,0.027,0.097,0.041,0.145c-0.201-0.708-0.406-1.416-0.604-2.125c-0.171-0.61,0.3-1.256,0.891-1.383
		c0.294-0.064,0.608-0.009,0.863,0.15c0.258,0.162,0.413,0.4,0.503,0.681c-0.008-0.027-0.016-0.055-0.023-0.082
		c0.008,0.029,0.017,0.059,0.025,0.088c0.005,0.018,0.011,0.035,0.016,0.053c0,0.001,0,0.002,0,0.002
		c0.189,0.667,0.38,1.333,0.569,2c-0.014-0.048-0.027-0.096-0.041-0.145c0.211,0.739,0.422,1.478,0.632,2.217
		c-0.014-0.048-0.027-0.096-0.041-0.145c0.003,0.01,0.006,0.02,0.009,0.03c-0.002-0.004-0.003-0.009-0.004-0.014
		c0.003,0.013,0.007,0.025,0.011,0.038c0.004,0.014,0.008,0.029,0.012,0.043c0.195,0.68,0.39,1.36,0.582,2.042
		c-0.006-0.02-0.012-0.04-0.018-0.06c0.206,0.719,0.411,1.44,0.616,2.16c-0.014-0.048-0.027-0.096-0.041-0.145
		c0.263,0.922,0.525,1.843,0.788,2.764c0.008,0.029,0.017,0.06,0.025,0.09c-0.01-0.032-0.02-0.064-0.028-0.097
		c0.285,0.999,0.57,1.999,0.855,2.998c-0.014-0.048-0.027-0.096-0.041-0.145c0.281,0.989,0.563,1.977,0.845,2.965
		c0.001,0.002,0.001,0.005,0.002,0.007v0.001c0.001,0.002,0.001,0.004,0.002,0.006c-0.001-0.002-0.001-0.004-0.002-0.006
		c0.079,0.206,0.123,0.434,0.182,0.637c0.174,0.609,0.348,1.22,0.521,1.829c0.001,0.001,0.001,0.002,0.001,0.003l0,0
		c0,0,0,0,0,0.001c0.011,0.029,0.019,0.06,0.026,0.09c0.003,0.011,0.006,0.021,0.009,0.031c0.201,0.703,0.402,1.407,0.602,2.111
		c-0.014-0.048-0.026-0.097-0.04-0.145c0.214,0.752,0.431,1.506,0.643,2.259c0.229,0.798,0.456,1.596,0.683,2.395
		c0.007,0.022,0.013,0.044,0.02,0.066c-0.003-0.011-0.007-0.021-0.01-0.033c0.011,0.038,0.021,0.076,0.032,0.114
		c-0.01-0.034-0.02-0.068-0.029-0.102c0.232,0.812,0.464,1.625,0.695,2.438c0.002,0.008,0.005,0.017,0.007,0.024
		c-0.002-0.007-0.004-0.014-0.006-0.021c0.24,0.838,0.479,1.676,0.717,2.514c-0.014-0.048-0.028-0.097-0.042-0.145
		c0.249,0.872,0.499,1.745,0.747,2.619c-0.014-0.049-0.027-0.097-0.041-0.145c0.793,2.78,1.589,5.562,2.378,8.343
		c-0.014-0.048-0.027-0.097-0.041-0.145c0.197,0.693,0.396,1.386,0.592,2.079c0.001,0.001,0.001,0.001,0.001,0.002
		c-0.009-0.031-0.018-0.063-0.026-0.095c0.017,0.06,0.033,0.118,0.051,0.178c-0.006-0.019-0.011-0.036-0.017-0.055
		c0.184,0.641,0.366,1.282,0.549,1.924c-0.014-0.049-0.027-0.097-0.041-0.145c0.563,1.971,1.125,3.941,1.686,5.913
		c-0.008-0.027-0.016-0.056-0.024-0.083c0.183,0.639,0.365,1.276,0.546,1.916c-0.014-0.049-0.027-0.097-0.041-0.145
		c0.016,0.052,0.03,0.104,0.045,0.154c0.172,0.603,0.344,1.207,0.516,1.81c0.012,0.041,0.023,0.084,0.036,0.127
		c-0.014-0.049-0.027-0.098-0.041-0.145c0.19,0.666,0.381,1.334,0.569,2c-0.008-0.029-0.017-0.061-0.025-0.09
		c0.008,0.025,0.015,0.051,0.022,0.076c-0.009-0.029-0.018-0.059-0.025-0.09c0.179,0.629,0.358,1.258,0.537,1.887
		c-0.014-0.049-0.027-0.096-0.041-0.145c0.165,0.578,0.331,1.158,0.495,1.736c0.005,0.018,0.01,0.037,0.015,0.055
		c0.166,0.578,0.331,1.16,0.496,1.738c-0.014-0.047-0.027-0.096-0.041-0.145c0.352,1.23,0.703,2.463,1.053,3.695
		c-0.007-0.027-0.015-0.055-0.023-0.08c0.167,0.582,0.334,1.166,0.499,1.748c-0.014-0.049-0.027-0.098-0.041-0.145
		c0.145,0.506,0.289,1.014,0.433,1.521c-0.014-0.049-0.027-0.098-0.041-0.145c0.126,0.438,0.251,0.877,0.376,1.316
		c-0.014-0.049-0.027-0.098-0.041-0.145c0.557,1.941,1.111,3.883,1.661,5.828c-0.014-0.049-0.027-0.098-0.041-0.145
		c0.141,0.494,0.281,0.988,0.423,1.484c-0.014-0.049-0.027-0.096-0.041-0.145c0.137,0.48,0.274,0.963,0.411,1.445
		c-0.014-0.049-0.027-0.098-0.041-0.145c0.137,0.477,0.273,0.955,0.409,1.434c-0.014-0.049-0.028-0.096-0.042-0.145
		c0.129,0.453,0.26,0.906,0.389,1.359c-0.014-0.047-0.027-0.096-0.041-0.145c0.112,0.396,0.226,0.793,0.338,1.189
		c-0.014-0.049-0.027-0.098-0.041-0.145c0.1,0.346,0.198,0.693,0.297,1.041c-0.014-0.047-0.027-0.096-0.04-0.145
		c0.676,2.377,1.356,4.754,2.031,7.129c-0.014-0.047-0.028-0.096-0.042-0.145c0.064,0.227,0.129,0.453,0.194,0.678
		c0.022,0.082,0.046,0.162,0.068,0.242c0.002,0.006,0.003,0.01,0.005,0.016c0.065,0.232,0.132,0.463,0.197,0.693
		c0.489,1.723,0.982,3.441,1.472,5.164c-0.002-0.006-0.004-0.014-0.006-0.02c0.086,0.301,0.172,0.6,0.257,0.9
		c-0.014-0.049-0.027-0.096-0.041-0.145c0.83,2.908,1.658,5.818,2.487,8.727c0.085,0.297,0.093,0.588-0.038,0.875
		c-0.129,0.283-0.373,0.508-0.667,0.611c-0.12,0.043-0.247,0.064-0.376,0.064C70.761,100.935,70.268,100.648,70.132,100.166z"/>
	<path fill="#09B1AB" d="M13.869,57.904c-0.228-0.316-0.394-0.664-0.563-1.014c-0.132-0.27-0.262-0.541-0.392-0.813
		c-0.27-0.559-0.533-1.121-0.797-1.682c-0.601-1.277-1.155-2.576-1.692-3.881c-0.54-1.313-1.111-2.611-1.695-3.907
		c-0.527-1.139-1.06-2.274-1.62-3.396c-0.582-1.165-1.204-2.308-1.832-3.448c-0.567-1.028-1.169-2.038-1.757-3.055
		c-0.346-0.598-0.681-1.195-1.006-1.803c-0.309-0.575-0.538-1.19-0.634-1.834C1.79,32.45,2.064,31.825,2.427,31.34
		c0.208-0.279,0.533-0.461,0.824-0.638c0.158-0.098,0.319-0.192,0.48-0.287c0.375-0.223,0.752-0.441,1.13-0.658
		c0.71-0.409,1.424-0.812,2.144-1.205c1.488-0.814,2.983-1.618,4.438-2.498c0.966-0.612,1.919-1.244,2.874-1.875
		c1.044-0.688,2.101-1.357,3.16-2.022c-0.044,0.027-0.087,0.055-0.131,0.082c1.163-0.73,2.344-1.434,3.516-2.151
		c0.571-0.362,1.138-0.735,1.671-1.153c0.277-0.243,0.535-0.505,0.786-0.774c0.113-0.13,0.222-0.262,0.326-0.398
		c0.071-0.108,0.138-0.218,0.202-0.332c0.027-0.059,0.053-0.117,0.076-0.177c0.02-0.061,0.038-0.122,0.053-0.185
		c0.012-0.058,0.021-0.116,0.027-0.174c0.003-0.062,0.005-0.122,0.005-0.184c-0.008-0.099-0.019-0.196-0.033-0.295
		c-0.013-0.06-0.026-0.118-0.042-0.178c-0.047-0.144-0.1-0.283-0.156-0.423c-0.518-1.079-1.162-2.101-1.629-3.204
		c-0.164-0.388-0.323-0.769-0.448-1.172c-0.191-0.616-0.266-1.241-0.293-1.884c-0.025-0.59-0.035-1.177,0.02-1.766
		c0.084-0.904,0.296-1.774,0.634-2.618c0.521-1.294,1.464-2.307,2.479-3.231c0.442-0.405,0.895-0.801,1.355-1.185
		c0.278-0.232,0.558-0.465,0.837-0.698c0.266-0.222,0.555-0.422,0.831-0.632c0.484-0.369,0.995-0.702,1.498-1.045
		c0.193-0.132,0.402-0.248,0.603-0.37c0.282-0.171,0.563-0.343,0.845-0.514c0.462-0.279,0.952-0.518,1.426-0.776
		c0.485-0.264,0.991-0.495,1.485-0.743c0.487-0.245,0.985-0.469,1.478-0.704c0.956-0.455,1.923-0.892,2.891-1.319
		c0.558-0.247,1.114-0.493,1.673-0.737c0.245-0.107,0.491-0.212,0.738-0.318c0.302-0.13,0.609-0.255,0.943-0.255
		c0.635,0,1.15,0.568,1.137,1.19c-0.013,0.549-0.408,0.987-0.917,1.105c-0.003,0.001-0.005,0.002-0.008,0.003
		c0.006-0.001,0.011-0.002,0.017-0.003c-0.007,0.001-0.014,0.003-0.021,0.004c-0.671,0.254-1.325,0.561-1.981,0.852
		c-0.706,0.313-1.41,0.628-2.113,0.947c-1.131,0.523-2.261,1.048-3.376,1.606C33.24-1.332,32.613-1,31.985-0.659
		C31.446-0.365,30.926-0.04,30.4,0.28c-0.526,0.358-1.055,0.708-1.561,1.094c-0.273,0.208-0.554,0.408-0.817,0.628
		c-0.265,0.221-0.529,0.441-0.794,0.661c-0.69,0.604-1.396,1.198-2.023,1.867c-0.178,0.204-0.346,0.412-0.504,0.631
		c-0.125,0.192-0.24,0.387-0.348,0.589c-0.102,0.213-0.192,0.429-0.275,0.649c-0.08,0.245-0.148,0.49-0.209,0.74
		c-0.059,0.302-0.103,0.603-0.134,0.907c-0.024,0.379-0.029,0.754-0.021,1.134c-0.001-0.029-0.002-0.059-0.004-0.088
		c0.017,0.381,0.033,0.758,0.083,1.137c0.033,0.162,0.07,0.321,0.113,0.481c0.113,0.35,0.253,0.685,0.396,1.023
		c0.437,0.91,0.926,1.79,1.387,2.688c0.2,0.388,0.378,0.798,0.491,1.219c0.146,0.556,0.18,1.108,0.113,1.678
		c-0.136,1.159-0.926,2.073-1.706,2.875c-0.547,0.563-1.192,1.009-1.843,1.444c-0.446,0.3-0.905,0.578-1.365,0.856
		c-0.913,0.554-1.825,1.106-2.733,1.669c-0.216,0.136-0.432,0.271-0.647,0.407c0.032-0.021,0.064-0.041,0.097-0.062
		c-1.02,0.642-2.029,1.298-3.031,1.965c-1.01,0.672-2.021,1.353-3.07,1.963c-2.077,1.21-4.21,2.321-6.293,3.521
		c-0.489,0.281-0.977,0.567-1.459,0.861c-0.009,0.006-0.017,0.012-0.024,0.018c-0.003,0.004-0.006,0.009-0.009,0.014
		c-0.002,0.006-0.005,0.012-0.008,0.018c0.002,0.011,0.004,0.021,0.005,0.031c0.009,0.037,0.018,0.073,0.026,0.11
		c0.059,0.174,0.124,0.344,0.196,0.512c0.299,0.629,0.648,1.232,0.996,1.834c0.324,0.562,0.651,1.121,0.978,1.682
		c0.595,1.021,1.183,2.052,1.733,3.099c1.19,2.263,2.306,4.562,3.336,6.903c0.823,1.869,1.574,3.768,2.408,5.633
		c0.282,0.609,0.567,1.217,0.855,1.824c0.157,0.332,0.315,0.66,0.475,0.992c0.112,0.232,0.22,0.469,0.339,0.699
		c0.077-0.041,0.153-0.086,0.229-0.131c0.716-0.465,1.378-1.004,2.074-1.496c0.49-0.346,0.977-0.697,1.476-1.029
		c1.119-0.75,2.25-1.482,3.382-2.211c1-0.643,2-1.287,3.015-1.908c1.063-0.65,2.135-1.287,3.194-1.945
		c0.198-0.123,0.396-0.246,0.595-0.369c1.865-1.195,3.729-2.399,5.462-3.781c0.512-0.441,1.005-0.893,1.482-1.372
		c0.409-0.464,0.795-0.938,1.166-1.434c0.362-0.535,0.694-1.078,0.995-1.65c0.098-0.205,0.188-0.411,0.268-0.623
		c0.063-0.193,0.115-0.389,0.163-0.587c0.066-0.347,0.104-0.691,0.14-1.042c0.021-0.626,0.019-1.247-0.005-1.874
		c-0.024-0.646-0.05-1.29-0.019-1.936c0.038-0.798,0.176-1.6,0.447-2.353c0.237-0.654,0.556-1.27,0.931-1.856
		c0.35-0.549,0.699-1.105,1.113-1.61c0.812-0.989,1.685-1.913,2.643-2.762c0.823-0.731,1.677-1.43,2.574-2.067
		c0.332-0.237,0.676-0.465,1.03-0.667c0.551-0.313,1.281-0.074,1.576,0.474c0.305,0.568,0.076,1.263-0.475,1.576
		c-0.066,0.037-0.132,0.077-0.197,0.117c-0.736,0.471-1.429,1.009-2.104,1.563c-0.427,0.358-0.85,0.724-1.26,1.103
		c-0.429,0.396-0.832,0.814-1.229,1.241c-0.382,0.438-0.746,0.88-1.096,1.342c-0.359,0.532-0.715,1.069-1.018,1.636
		c-0.115,0.236-0.219,0.477-0.312,0.723c-0.059,0.184-0.111,0.368-0.158,0.555c-0.058,0.289-0.1,0.578-0.13,0.871
		c-0.042,0.668-0.022,1.335,0.003,2.004c0.025,0.662,0.032,1.318,0.01,1.981c-0.013,0.335-0.057,0.678-0.105,1.01
		c-0.111,0.746-0.346,1.464-0.673,2.143c-0.266,0.548-0.568,1.088-0.914,1.589c-0.366,0.533-0.736,1.075-1.167,1.56
		c-0.444,0.498-0.896,0.979-1.389,1.431c-0.896,0.823-1.869,1.572-2.874,2.258c-1.479,1.007-2.975,1.99-4.496,2.933
		c-1.417,0.879-2.849,1.732-4.265,2.615c-1.019,0.652-2.037,1.305-3.053,1.963c-1.115,0.723-2.214,1.465-3.3,2.23
		c-0.625,0.441-1.227,0.914-1.854,1.354c-0.559,0.393-1.205,0.803-1.901,0.877c-0.064,0.006-0.129,0.01-0.193,0.01
		C14.759,58.64,14.208,58.377,13.869,57.904z"/>
</g>
</svg>
