<?xml version="1.0" encoding="utf-8"?>
<!-- Generator: Adobe Illustrator 16.0.0, SVG Export Plug-In . SVG Version: 6.00 Build 0)  -->
<!DOCTYPE svg PUBLIC "-//W3C//DTD SVG 1.1//EN" "http://www.w3.org/Graphics/SVG/1.1/DTD/svg11.dtd">
<svg version="1.1" id="圖層_1" xmlns="http://www.w3.org/2000/svg" xmlns:xlink="http://www.w3.org/1999/xlink" x="0px" y="0px"
	 width="177.225px" height="156.476px" viewBox="0 0 177.225 156.476" enable-background="new 0 0 177.225 156.476"
	 xml:space="preserve">
<g>
	<path fill="#09B1AB" d="M176.917,138.803c-0.869-3.899-2.789-7.262-5.375-10.261c-0.562-0.649-1.139-1.283-1.737-1.926
		c-0.741-0.798-0.506-2.082,0.467-2.569c0.046-0.024,0.097-0.047,0.144-0.072c3.859-1.976,5.725-5.737,4.609-9.924
		c-0.5-1.876-1.299-3.811-2.457-5.345c-3.638-4.822-8.712-7.361-14.591-8.399l-0.021-0.004c-1.166-0.206-1.843-1.446-1.377-2.537
		c0.129-0.303,0.258-0.601,0.394-0.895c1.939-4.232,1.622-8.331-0.614-12.367c-1.272-2.301-3.011-4.184-5.024-5.813
		c-4.768-3.857-10.254-6.226-16.168-7.684c-0.006-0.001-0.011-0.002-0.019-0.004c-1.059-0.262-1.53-1.5-0.917-2.4
		c0.71-1.037,1.386-2.033,2.029-3.049c0.623-0.979,1.546-1.727,2.624-2.156c5.79-2.303,10.948-5.695,15.833-9.494
		c1.101-0.856,1.988-2.134,2.642-3.389c1.471-2.822,0.845-5.678-0.398-8.411c-2.3-5.067-6.104-8.816-10.893-11.449
		c-9.44-5.191-19.588-6-30.043-4.266c-1.357,0.226-2.672,0.742-3.986,1.185c-1.486,0.502-3.013,1.628-4.399,1.461
		c-1.411-0.17-2.674-1.58-4-2.449c-10.749-7.049-22.428-11.798-35.073-14.125c-4.494-0.827-9.008-1.485-13.608-0.749
		c-0.502,0.081-1.174-0.366-1.652-0.723c-1.258-0.944-2.338-2.178-3.69-2.933c-7.358-4.102-15.271-6.642-23.61-7.709
		c-6.26-0.802-12.419-0.308-18.238,2.455C2.839,5.143,0.042,8.979,0.001,14.48c-0.02,2.758,0.208,5.572,0.763,8.27
		c2.441,11.83,5.683,18.918,12.59,28.771c0.739,1.055,2.563,3.992,3.455,4.948c0.467,0.499,2.443,3.57,2.597,4.19
		c1.028,4.148,2.51,6.919,4.56,10.638C29.77,81.82,36.589,91.61,44.93,100.293c0.736,0.768,0.943,1.367,0.597,2.418
		c-1.012,3.073-1.071,6.266-0.564,9.427c2.553,15.915,11.307,27.185,25.806,34.03c3.719,1.755,5.459,1.311,8.346-1.572
		c0.42-0.42,0.794-0.886,1.183-1.338c3.438-3.992,6.196-8.464,8.185-13.293c1.603-3.894,4.252-6.96,6.902-10.33
		c0.784-0.995,2.358-0.734,2.772,0.463c0.177,0.514,0.351,1,0.538,1.484c2.346,6.099,5.375,11.791,10.056,16.46
		c3.476,3.466,7.541,4.554,12.164,2.688c1.7-0.687,3.266-1.709,4.886-2.593l0.012-0.007c0.698-0.381,1.564-0.03,1.803,0.727
		c1.076,3.405,2.537,6.507,4.466,9.389c2.059,3.076,4.62,5.604,8.021,7.186c5.84,2.715,10.514-0.028,11.21-6.447
		c0.057-0.525-0.087-1.056-0.087-1.584v-0.017c0-0.796,1.107-1.248,1.775-0.815c0.955,0.616,1.96,1.204,2.909,1.729
		c3.388,1.875,6.975,3.326,10.938,3.243C174.014,151.396,178.466,145.779,176.917,138.803z M115.232,32.237
		c0.008-0.001,0.016-0.003,0.025-0.004c9.203-1.594,18.177-0.984,26.732,3.026c3.997,1.873,7.122,4.755,9.203,8.691
		c1.564,2.958,1.376,4.349-1.412,6.209c-3.673,2.449-7.521,4.639-11.312,6.91l-0.015,0.01c-0.934,0.555-2.139,0.337-2.808-0.518
		c-6.239-7.969-13.391-14.958-21.112-21.813C113.631,33.947,114.043,32.446,115.232,32.237z M19.215,50.841l-0.006-0.008
		C12.695,40.976,7.768,30.448,5.78,18.706c-0.296-1.75-0.285-3.552-0.449-5.327c-0.177-1.93,0.741-3.296,2.209-4.374
		c2.684-1.969,5.774-2.895,9.015-3.338c5.744-0.786,11.342,0.104,16.853,1.667c4.392,1.247,8.642,2.862,12.869,4.908
		c1.519,0.736,2.135,2.579,1.343,4.068c-6.949,13.069-15.507,24.809-26.738,34.752C20.376,51.51,19.589,51.403,19.215,50.841z
		 M82.733,128.956c-0.304,0.53-0.613,1.053-0.938,1.566c-1.765,2.789-3.561,5.557-5.393,8.301c-0.435,0.651-1.08,1.157-1.591,1.76
		c-0.566,0.667-1.211,0.717-1.948,0.359c-1.068-0.52-2.193-0.948-3.195-1.576c-11.063-6.926-17.859-16.652-19.381-29.787
		c-0.047-0.419-0.072-0.842-0.083-1.266c-0.03-1.079,1.257-1.664,2.05-0.929c8.515,7.891,18.631,13.177,29.268,17.875
		C82.943,125.888,83.51,127.61,82.733,128.956z M88.653,118.584c-0.741,0.913-1.392,2.311-2.321,2.544
		c-0.934,0.234-2.183-0.662-3.261-1.137c-10.214-4.506-19.804-10.008-28.143-17.54c-10.063-9.085-18.125-19.729-24.805-31.477
		c-2.424-4.263-4.636-8.609-5.999-13.354c-0.354-1.24-0.183-1.99,0.839-2.899c7.189-6.398,13.542-13.549,19.073-21.439
		c3.421-4.884,6.565-9.921,8.999-15.375c0.383-0.859,1.027-1.175,1.875-1.175c2.573,0.001,5.176-0.227,7.71,0.096
		c12.639,1.608,24.332,5.944,35.246,12.485c8.176,4.9,15.353,11.028,21.936,17.853c4.031,4.181,7.826,8.59,11.717,12.905
		c0.005,0.004,0.008,0.01,0.012,0.015c0.847,0.944,0.871,2.37,0.082,3.364c-0.012,0.014-0.021,0.028-0.034,0.041
		c-2.631,3.316-5.314,6.594-7.89,9.954c-8.205,10.712-16.333,21.482-24.568,32.172C95.731,110.016,92.154,114.271,88.653,118.584z
		 M124.252,132.237c-1.536,1.662-3.461,2.851-5.639,3.58c-1.841,0.616-3.58,0.493-4.979-0.916c-1.529-1.539-3.083-3.094-4.352-4.841
		c-3.696-5.089-5.954-10.872-7.789-16.845c-0.333-1.086,0.164-1.799,0.702-2.532c2.495-3.418,4.986-6.842,7.548-10.212
		c5.925-7.791,11.922-15.53,17.81-23.348c0.938-1.246,1.832-1.555,3.334-1.269c6.397,1.22,12.401,3.293,17.386,7.654
		c1.082,0.944,2.055,2.067,2.861,3.254c1.719,2.529,2.121,5.266,0.639,8.063c-1.484,2.797-2.86,5.682-4.626,8.297
		c-3.774,5.586-7.77,11.023-12.021,17.008C131.764,123.887,128.061,128.111,124.252,132.237z M167.964,145.57
		c-1.66,0.118-3.433-0.189-5.034-0.689c-2.99-0.932-5.61-2.626-7.694-4.366c-2.74-2.141-4.938-4.178-6.277-7.036
		c-0.702-1.5-2.297-2.014-3.674-1.486c-1.393,0.534-2.139,1.932-1.843,3.557c0.095,0.514,0.267,1.032,0.504,1.497
		c1.744,3.41,1.888,7.104,1.956,10.813c0.006,0.262-0.035,0.528-0.076,0.788c-0.323,2.095-1.01,2.508-2.948,1.752
		c-2.235-0.873-3.889-2.481-5.264-4.371c-2.752-3.786-4.699-7.935-5.587-12.573c-0.165-0.865,0.104-1.37,0.587-1.937
		c1.501-1.761,3.082-3.463,4.463-5.312c5.025-6.718,9.99-13.481,14.954-20.244c0.444-0.605,0.739-1.198,1.688-1.012
		c4.71,0.926,9.348,2.058,12.859,5.633c1.037,1.057,1.941,2.358,2.541,3.709c1.069,2.407,0.306,4.005-2.211,4.693
		c-1.369,0.373-2.86,0.355-4.297,0.386c-0.708,0.015-1.421-0.271-2.135-0.408c-2.043-0.389-3.589,0.298-4.111,1.818
		c-0.517,1.507,0.189,2.854,1.841,3.953c1.972,1.313,3.957,2.637,5.765,4.162c2.38,2.007,4.491,4.321,5.89,7.136
		c0.753,1.52,1.372,3.169,1.681,4.829C172.017,143.407,170.554,145.385,167.964,145.57z"/>
	<path fill="#09B1AB" d="M122.313,57.679c-0.864-0.552-2.16-0.444-3.086,0.515c-1.052,1.089-1.908,2.364-2.892,3.52
		c-0.61,0.717-1.302,1.363-1.969,2.052c-1.197-2.547-2.13-4.879-3.352-7.052c-1.701-3.026-4.17-5.287-7.547-6.375
		c-2.401-0.773-4.758-0.728-6.717,1.055c-1.968,1.793-2.255,4.176-1.595,6.594c1.142,4.179,3.513,7.583,7.319,9.715
		c2.041,1.141,4.343,1.812,6.617,2.73c0.601,4.917-3.177,10.229-7.696,10.533c-0.105-0.577-0.215-1.16-0.316-1.744
		c-0.576-3.329-1.933-6.309-4.035-8.943c-1.375-1.724-2.975-3.193-5.026-4.092c-4.214-1.846-8.29,0.493-8.547,5.066
		c-0.09,1.604,0.185,3.332,0.726,4.849c1.735,4.864,5.134,8.229,9.905,10.208c0.527,0.218,1.046,0.452,1.701,0.736
		c-0.982,3.28-1.382,6.689-4.745,8.792c-0.316-0.868-0.563-1.536-0.804-2.205c-1.22-3.409-3.301-6.151-6.333-8.154
		c-2.385-1.576-4.966-2.111-7.756-1.356c-2.753,0.745-4.516,3.011-4.373,5.852c0.058,1.159,0.37,2.369,0.845,3.429
		c1.341,2.979,3.497,5.319,6.375,6.842c1.938,1.026,4.051,1.72,6.195,2.608c-1.775,2.435-4.075,3.703-7.14,3.168
		c-1.16-0.203-2.349-0.518-3.389-1.048c-1.819-0.927-3.536-2.053-5.287-3.109c-1.337-0.808-2.451-0.774-3.225,0.126
		c-0.706,0.82-0.632,1.885,0.223,3.088c0.151,0.214,0.323,0.42,0.511,0.602c2.76,2.684,5.954,4.615,9.747,5.417
		c6.289,1.331,12.066-1.924,14.139-7.999c0.354-1.04,0.871-1.658,1.871-2.087c3.072-1.316,5.198-3.619,6.363-6.723
		c0.901-2.403,1.607-4.878,2.447-7.457c0.083-0.035,0.318-0.183,0.57-0.225c7.858-1.329,12.853-9.289,12.63-15.912
		c-0.034-1.04,0.43-1.525,1.314-1.922c3.031-1.362,5.016-3.804,6.61-6.615c0.227-0.398,0.407-0.834,0.551-1.272
		C123.581,59.547,123.239,58.271,122.313,57.679z M100.247,55.595c3.157-0.564,7.066,3.688,8.077,8.941
		C103.658,63.363,100.063,59.32,100.247,55.595z M88.857,70.936c3.487,0.637,6.718,5.396,6.933,10.029
		C91.938,80.684,87.672,74.611,88.857,70.936z M77.31,91.103c-0.723-1.468-0.047-2.392,1.587-2.101
		c1.113,0.2,2.279,0.734,3.169,1.438c2.026,1.601,3.189,3.798,3.802,6.713C81.82,96.439,78.996,94.525,77.31,91.103z"/>
	<path fill="#09B1AB" d="M75.381,70.474c0.941-1.512,1.961-2.982,2.811-4.545c3.404-6.257,4.492-12.858,2.256-19.711
		c-2.287-7.019-7.07-11.612-14.424-12.924c-6.108-1.09-11.796,0.504-17.01,3.82c-2.543,1.618-3.994,4.166-5.652,6.552
		c-6.625,9.531-4.58,24.867,5.729,31.443C56.033,79.537,69.545,78.827,75.381,70.474z M71.604,66.462
		c-3.928,5.366-9.426,6.861-15.618,5.816c-3.795-0.642-6.754-3.056-8.616-6.463c-3.744-6.855-3.276-13.731,0.956-20.101
		c3.889-5.85,11.965-7.99,17.573-6.621c4.809,1.176,7.84,4.54,9.395,9.129c1.981,5.854,0.902,11.345-2.429,16.458
		C72.469,65.291,72.026,65.87,71.604,66.462z"/>
	<path fill="#09B1AB" d="M125.718,91.933c0.122,0.083,0.324,0.26,0.557,0.376c4.896,2.45,9.789,4.898,14.694,7.325
		c0.465,0.231,0.994,0.385,1.509,0.449c1.042,0.13,2.004-0.13,2.627-1.035c0.659-0.958,0.735-2.072,0.023-2.967
		c-0.678-0.854-1.513-1.706-2.467-2.193c-3.757-1.926-7.585-3.713-11.394-5.54c-1.011-0.484-2.015-1.002-3.069-1.369
		c-1.686-0.588-3.168-0.111-3.823,1.104C123.72,89.304,124.193,90.739,125.718,91.933z"/>
	<path fill="#09B1AB" d="M132.363,108.701c-2.059-1.758-9.36-8.092-11.024-9.401c-0.623-0.49-1.239-1-1.903-1.431
		c-1.393-0.903-2.713-0.801-3.586,0.215c-0.797,0.929-0.712,2.146,0.26,3.446c0.317,0.423,0.637,0.86,1.025,1.209
		c4.038,3.616,8.079,7.227,12.148,10.802c0.531,0.466,1.214,0.809,1.883,1.06c1.014,0.382,1.965,0.136,2.716-0.667
		c0.759-0.815,0.916-1.832,0.406-2.759C133.789,110.267,133.143,109.368,132.363,108.701z"/>
	<path fill="#09B1AB" d="M122.493,122.604c-3.337-4.323-6.685-8.638-10.059-12.935c-0.357-0.455-0.846-0.851-1.352-1.138
		c-1.612-0.92-3.523,0.211-3.451,2.063c0.025,0.629,0.246,1.317,0.574,1.86c3.038,5.041,6.611,9.667,10.872,13.737
		c0.362,0.286,0.697,0.614,1.088,0.85c1.004,0.605,2.045,0.634,2.928-0.173c0.846-0.776,0.762-1.776,0.305-2.737
		C123.144,123.599,122.854,123.069,122.493,122.604z"/>
	<path fill="#09B1AB" d="M66.209,45.584c-3.639-3.392-10.948-2.764-14.016,1.534c-2.932,4.11-3.139,10.356-0.143,14.943
		c2.807,4.296,7.507,5.358,11.903,2.69c4.877-2.958,6.915-8.563,5.298-14.516C68.731,48.323,67.779,46.709,66.209,45.584z
		 M60.992,60.251c-1.831,1.029-3.326,0.7-4.353-1.166c-1.679-3.053-1.81-6.18,0.004-9.25c1.055-1.786,1.876-2.034,3.765-1.216
		c0.541,0.233,1.028,0.586,1.222,0.699C65.217,52.142,64.695,58.17,60.992,60.251z"/>
</g>
</svg>
