<?xml version="1.0" encoding="utf-8"?>
<!-- Generator: Adobe Illustrator 16.0.0, SVG Export Plug-In . SVG Version: 6.00 Build 0)  -->
<!DOCTYPE svg PUBLIC "-//W3C//DTD SVG 1.1//EN" "http://www.w3.org/Graphics/SVG/1.1/DTD/svg11.dtd">
<svg version="1.1" id="圖層_1" xmlns="http://www.w3.org/2000/svg" xmlns:xlink="http://www.w3.org/1999/xlink" x="0px" y="0px"
	 width="80.668px" height="216.295px" viewBox="0 0 80.668 216.295" enable-background="new 0 0 80.668 216.295"
	 xml:space="preserve">
<g>
	<path fill="#FA9DB7" d="M41.465,115.478c-1.394,0.118-2.511,1.197-2.695,2.583c-0.518,3.896,0.212,7.561,1.555,11.201
		c1.253,3.404,2.446,6.837,3.492,10.31c1.197,3.979,0.861,7.948-0.499,11.862c-1.344,3.87-2.646,7.757-3.91,11.655
		c-1.693,5.224-1.275,10.899,1.189,15.805c1.876,3.733,3.438,7.585,4.225,11.721c1.396,7.358,0.71,14.638-0.761,21.89
		c-0.122,0.6-0.362,1.188-0.631,1.742c-0.737,1.529-1.891,2.211-3.306,2.017c-1.354-0.188-2.476-1.231-2.548-2.897
		c-0.097-2.232-0.019-4.491,0.224-6.713c0.568-5.251,1.144-10.521-0.327-15.68c-0.887-3.104-2.167-6.112-3.451-9.084
		c-1.925-4.457-3.569-9.009-2.883-13.914c0.5-3.576,1.484-7.102,2.447-10.597c0.653-2.379,1.6-4.682,2.495-6.991
		c1.523-3.929,1.417-7.868,0.19-11.828c-0.343-1.108-0.71-2.21-1.116-3.295c-3.386-9.043-3.637-9.935-3.07-18.205
		c0.063-0.899-0.51-1.733-1.378-1.976c-0.006-0.002-0.01-0.004-0.015-0.005c-4.9-1.377-7.057-4.653-6.33-9.765
		c0.293-2.065,0.659-4.128,1.146-6.155c0.294-1.229,0.668-2.439,1.063-3.7c0.421-1.339-0.192-2.788-1.449-3.415L25.1,92.033
		C12.306,85.656,4.304,75.429,1.071,61.582c-1.9-8.141-1.021-16.333,0.687-24.411c2.646-12.529,8.607-23.125,18.719-31.2
		c3.433-2.741,8.678-5.171,13.101-5.647c4.75-0.51,8.007-0.401,12.819,0.222c9.139,1.182,15.931,6.157,21.684,12.783
		c6.776,7.804,11.629,16.683,12.481,27.177c0.334,4.114-0.173,8.337-0.65,12.469c-0.97,8.398-3.429,16.325-8.104,23.481
		C65.896,85.5,58.364,92.396,47.57,95.07c-0.021,0.003-0.04,0.011-0.061,0.02c-0.368,0.152-0.543,0.581-0.43,0.964
		c0.152,0.532,0.317,1.095,0.444,1.666c0.743,3.313,1.773,6.599,2.122,9.955c0.51,4.911-1.553,7.087-6.533,7.643
		C42.564,115.38,42.013,115.431,41.465,115.478z M27.174,9.946C17.892,14.995,12.826,24.18,9.842,34.239
		c-2.207,7.438-2.97,15.068-2.316,22.748c0.735,8.654,4.623,16.101,10.685,22.144c4.87,4.855,10.958,8.088,17.625,9.952
		c1.891,0.526,4.007,0.707,5.956,0.483c5.896-0.681,11.246-2.924,15.762-6.796c4.813-4.127,8.646-9.06,11.179-14.936
		c3.618-8.4,5.327-17.282,4.599-26.287c-1.084-13.428-8.298-23.523-19.172-31.141c-2.264-1.587-4.847-2.457-7.569-2.744
		C36.291,6.579,29.584,8.635,27.174,9.946z M35.944,95.882c-1.415-0.23-2.773,0.632-3.188,2.005
		c-0.863,2.866-1.437,5.796-1.657,8.813c-0.091,1.218,0.631,1.749,1.651,1.769c2.425,0.046,4.85,0.035,7.367,0.027
		c1.36-0.005,2.41-1.229,2.17-2.566c-0.472-2.657-1.255-5.216-1.967-7.757c-0.281-1.006-1.126-1.756-2.157-1.925
		C37.417,96.124,36.683,96.004,35.944,95.882z"/>
	<path fill="#FA9DB7" d="M40.708,79.85c-3.889-0.009-7.545-2.49-8.814-5.688c-0.142-0.358-0.245-0.736-0.319-1.112
		c-0.309-1.589,0.239-2.92,1.458-3.591c1.233-0.679,2.581-0.414,3.796,0.749c3.343,3.193,3.343,3.193,5.889-0.369
		c1.527-2.136,3.487-2.899,5.09-1.982c1.558,0.894,2.024,3.101,0.82,5.386c-0.886,1.684-1.998,3.309-3.289,4.699
		C44.039,79.337,42.179,79.821,40.708,79.85z"/>
	<path fill="#FA9DB7" d="M59.394,63.265c0.02,2.419-1.362,4.139-3.382,4.207c-2.022,0.069-3.626-1.579-3.618-3.712
		c0.011-2.267,1.885-4.479,3.847-4.537C58.167,59.166,59.374,60.709,59.394,63.265z"/>
	<path fill="#FA9DB7" d="M27.413,65.528c-0.062,2.003-1.628,3.515-3.569,3.443c-1.919-0.069-3.396-1.702-3.336-3.69
		c0.06-1.987,1.664-3.549,3.564-3.473C25.953,61.883,27.474,63.578,27.413,65.528z"/>
</g>
</svg>
