<?xml version="1.0" encoding="utf-8"?>
<!-- Generator: Adobe Illustrator 16.0.0, SVG Export Plug-In . SVG Version: 6.00 Build 0)  -->
<!DOCTYPE svg PUBLIC "-//W3C//DTD SVG 1.1//EN" "http://www.w3.org/Graphics/SVG/1.1/DTD/svg11.dtd">
<svg version="1.1" id="圖層_1" xmlns="http://www.w3.org/2000/svg" xmlns:xlink="http://www.w3.org/1999/xlink" x="0px" y="0px"
	 width="75.214px" height="36.127px" viewBox="0 0 75.214 36.127" enable-background="new 0 0 75.214 36.127" xml:space="preserve">
<path fill="#45B3DF" d="M27.59,9.709c-0.45,0.386-0.891,0.781-1.294,1.211c-1.936,2.061-3.316,4.495-4.256,7.141
	c-0.946,2.664-1.71,5.391-2.57,8.085c-0.214,0.671-0.434,1.353-0.756,1.975c-0.412,0.797-1.104,1.243-2.042,1.15
	c-0.874-0.087-1.492-0.573-1.743-1.397c-0.277-0.912-0.495-1.848-0.655-2.787c-0.399-2.346-0.919-4.658-1.886-6.839
	c-0.039-0.087-0.081-0.172-0.125-0.257c-0.583-1.111-2.16-1.201-2.859-0.159c-0.011,0.017-0.022,0.033-0.033,0.051
	c-0.996,1.576-2.04,3.158-2.751,4.868c-1.52,3.656-2.615,7.457-3.183,11.392c-0.023,0.165-0.033,0.333-0.072,0.494
	c-0.232,0.955-0.815,1.497-1.591,1.49c-0.818-0.008-1.57-0.603-1.689-1.549c-0.106-0.855-0.124-1.757,0.021-2.603
	c0.762-4.446,1.922-8.788,3.946-12.84c0.682-1.366,1.584-2.638,2.508-3.861c0.541-0.717,1.263-1.334,2.003-1.855
	c1.947-1.372,3.941-1.15,5.639,0.539c1.118,1.113,1.772,2.501,2.313,3.953c0.075,0.202,0.148,0.404,0.224,0.62
	c0.157,0.441,0.782,0.441,0.937-0.001l0.004-0.011c1.161-3.321,2.605-6.506,4.898-9.208c1.015-1.196,2.196-2.27,3.396-3.285
	c0.583-0.494,1.354-0.83,2.094-1.06c1.778-0.552,3.369-0.056,4.357,1.521c0.671,1.072,1.2,2.3,1.494,3.529
	c0.353,1.477,0.549,2.99,0.774,4.573c0.064,0.449,0.66,0.562,0.884,0.168l0.006-0.012c2.049-3.615,4.535-6.886,7.736-9.556
	c1.014-0.845,2.126-1.623,3.307-2.202c2.913-1.427,5.564-0.43,6.887,2.556c0.326,0.736,0.542,1.521,0.772,2.357
	c0.143,0.518,0.823,0.638,1.133,0.2l0.007-0.011c2.414-3.409,5.45-6.038,9.397-7.538c3.534-1.342,6.476-0.214,8.058,3.229
	c0.551,1.198,0.904,2.502,1.22,3.79c0.416,1.696,0.756,3.416,1.026,5.142c0.12,0.76,0.143,1.605-0.067,2.332
	c-0.376,1.301-1.782,1.513-2.623,0.447c-0.298-0.378-0.502-0.868-0.629-1.339c-0.53-1.969-1-3.953-1.521-5.924
	c-0.233-0.883-0.491-1.766-0.819-2.617c-0.652-1.694-1.663-2.182-3.345-1.441c-1.283,0.564-2.522,1.284-3.668,2.093
	c-1.822,1.287-3.228,3.002-4.384,4.902c-0.886,1.457-1.695,2.96-2.536,4.445c-0.164,0.29-0.295,0.598-0.47,0.881
	c-0.627,1.023-1.425,1.449-2.355,1.274c-0.983-0.185-1.632-0.921-1.737-2.154c-0.165-1.947-0.202-3.905-0.406-5.847
	c-0.099-0.935-0.377-1.873-0.716-2.754c-0.285-0.738-0.823-0.913-1.523-0.558c-0.698,0.355-1.372,0.79-1.982,1.282
	c-2.989,2.411-5.301,5.39-7.189,8.713c-1.007,1.773-1.971,3.572-2.996,5.334c-0.331,0.569-0.724,1.138-1.211,1.571
	c-1.242,1.105-3.018,0.635-3.503-0.953c-0.276-0.904-0.367-1.875-0.452-2.824c-0.274-3.063-0.24-6.162-1.079-9.156l-0.006-0.018
	C29.62,9.39,28.386,9.026,27.59,9.709z"/>
</svg>
