<?xml version="1.0" encoding="utf-8"?>
<!-- Generator: Adobe Illustrator 16.0.0, SVG Export Plug-In . SVG Version: 6.00 Build 0)  -->
<!DOCTYPE svg PUBLIC "-//W3C//DTD SVG 1.1//EN" "http://www.w3.org/Graphics/SVG/1.1/DTD/svg11.dtd">
<svg version="1.1" id="圖層_1" xmlns="http://www.w3.org/2000/svg" xmlns:xlink="http://www.w3.org/1999/xlink" x="0px" y="0px"
	 width="51.42px" height="50.854px" viewBox="0 0 51.42 50.854" enable-background="new 0 0 51.42 50.854" xml:space="preserve">
<g>
	<path fill="#FA9DB7" d="M18.571,39.403c-0.226-0.605-0.966-0.833-1.493-0.458c-1.098,0.782-2.124,1.527-3.201,2.19
		c-1.887,1.164-3.912,2.042-6.121,2.413c-1.46,0.246-2.906,0.232-4.269-0.446c-1.695-0.844-2.633-2.247-2.926-4.094
		c-0.233-1.467-0.059-2.914,0.386-4.314c1.089-3.433,2.635-6.646,4.739-9.581l0.001,0c0.268-0.375,0.149-0.899-0.254-1.123
		c-0.744-0.413-1.47-0.803-2.139-1.275c-0.789-0.557-1.554-1.197-2.169-1.935c-1.45-1.738-1.48-4.255-0.191-6.116
		c1.168-1.687,2.742-2.836,4.704-3.455c3.182-1.003,6.381-1.052,9.598-0.187c0.083,0.022,0.167,0.045,0.25,0.068
		c0.889,0.249,1.829-0.163,2.25-0.983c0.465-0.905,0.926-1.796,1.44-2.657c1.599-2.673,3.876-4.655,6.582-6.149
		c1.631-0.901,3.379-1.389,5.267-1.288c2.964,0.16,5.179,1.912,6.008,4.772c0.51,1.759,0.451,3.542,0.17,5.322
		c-0.16,1.011-0.352,2.017-0.548,3.041c-0.148,0.768,0.486,1.463,1.264,1.385c0.542-0.054,1.073-0.094,1.603-0.076
		c1.697,0.058,3.396,0.205,5.083,0.406c1.577,0.189,2.903,1.003,4.103,1.992c3.218,2.652,3.617,7.041,0.971,10.373
		c-1.164,1.467-2.674,2.491-4.327,3.313c-1.005,0.5-2.031,0.967-3.077,1.372c-0.603,0.233-0.797,0.558-0.793,1.201
		c0.014,3.005-0.269,5.985-0.979,8.91c-0.86,3.541-2.729,6.333-6.151,7.859c-3.603,1.607-6.961,1.268-9.971-1.417
		c-2.777-2.478-4.52-5.618-5.802-9.053C18.573,39.411,18.572,39.407,18.571,39.403z M5.193,33.627
		c-0.458,1.282-0.72,2.604-0.875,3.913c-0.19,1.606,0.611,2.334,2.21,2.213c0.494-0.038,1.018-0.093,1.462-0.29
		c1.595-0.703,3.216-1.375,4.723-2.24c1.438-0.826,2.737-1.893,4.116-2.825c0.479-0.323,0.99-0.63,1.53-0.821
		c0.802-0.283,1.684-0.053,2.027,0.535c0.521,0.892,0.991,1.818,1.418,2.76c0.6,1.326,1.086,2.706,1.719,4.015
		c0.878,1.813,2.055,3.417,3.591,4.748c1.667,1.445,3.497,1.587,5.474,0.779c2.091-0.855,3.268-2.489,3.909-4.58
		c0.99-3.225,1.213-6.545,1.064-9.881c-0.071-1.592,0.539-2.493,1.958-3.061c1.506-0.602,3.022-1.213,4.44-1.991
		c1.001-0.549,1.992-1.257,2.732-2.115c1.535-1.78,1.073-4.147-0.936-5.343c-0.632-0.375-1.347-0.652-2.059-0.847
		c-2.04-0.56-4.12-0.396-6.201-0.272c-1.31,0.078-2.627,0.082-3.938,0.044c-0.749-0.021-1.231-0.532-1.387-1.238
		c-0.104-0.476-0.126-1.001-0.043-1.48c0.262-1.516,0.663-3.01,0.874-4.531c0.216-1.555,0.452-3.144,0.35-4.697
		c-0.121-1.834-1.402-2.745-3.217-2.462c-0.925,0.144-1.87,0.469-2.692,0.919c-1.997,1.095-3.713,2.567-4.872,4.55
		c-0.835,1.429-1.521,2.949-2.214,4.456c-0.597,1.298-1.25,1.68-2.655,1.381c-1.098-0.234-2.191-0.493-3.292-0.715
		c-2.486-0.502-4.98-0.568-7.394,0.278c-0.909,0.318-1.797,0.884-2.508,1.538c-1.034,0.953-0.964,1.754,0.141,2.601
		c0.853,0.652,1.825,1.15,2.746,1.714c0.708,0.434,1.462,0.807,2.119,1.307c0.727,0.554,0.923,1.32,0.586,1.989
		c-0.521,1.034-1.111,2.033-1.633,3.066C7.361,29.231,6.02,31.321,5.193,33.627z"/>
	<path fill="#FA9DB7" d="M21.689,30.985c-0.919-0.353-1.677-0.945-2.351-1.651c-0.374-0.391-0.574-1.006-0.703-1.556
		c-0.165-0.708,0.139-1.326,0.773-1.7c0.638-0.375,1.369-0.358,1.844,0.184c2.64,3.004,4.907,0.486,5.006,0.411
		c0.698-0.532,1.361-0.163,1.829,0.41c0.746,0.847-0.582,2.974-1.346,3.422C25.392,31.295,23.707,31.759,21.689,30.985z"/>
	<path fill="#FA9DB7" d="M32.301,24.755c-0.355,1.042-1.526,1.634-2.493,1.263c-0.935-0.359-1.407-1.477-1.053-2.491
		c0.381-1.091,1.471-1.69,2.448-1.346C32.173,22.523,32.667,23.683,32.301,24.755z"/>
	<path fill="#FA9DB7" d="M19.479,19.843c1.003,0.333,1.54,1.523,1.155,2.558c-0.365,0.981-1.492,1.521-2.447,1.171
		c-0.95-0.348-1.447-1.463-1.104-2.477C17.423,20.092,18.514,19.522,19.479,19.843z"/>
</g>
</svg>
