<?xml version="1.0" encoding="utf-8"?>
<!-- Generator: Adobe Illustrator 16.0.0, SVG Export Plug-In . SVG Version: 6.00 Build 0)  -->
<!DOCTYPE svg PUBLIC "-//W3C//DTD SVG 1.1//EN" "http://www.w3.org/Graphics/SVG/1.1/DTD/svg11.dtd">
<svg version="1.1" id="圖層_1" xmlns="http://www.w3.org/2000/svg" xmlns:xlink="http://www.w3.org/1999/xlink" x="0px" y="0px"
	 width="294.634px" height="363.95px" viewBox="0 0 294.634 363.95" enable-background="new 0 0 294.634 363.95"
	 xml:space="preserve">
<g>
	<path fill="#09B1AB" d="M105.655,136.79c-3.298-0.208-6.601-0.516-9.885-0.946c-1.52-0.199-3.034-0.421-4.542-0.674
		c-1.004-0.167-2.01-0.345-3.01-0.538c-0.004,0-0.005,0-0.009-0.004c-1.453-0.278-2.896-0.584-4.334-0.931
		c-4.181-1-8.286-2.292-12.257-3.964c-5.051-2.126-9.695-5.187-13.945-8.625c-4.155-3.364-7.797-7.417-10.598-11.981
		c-2.878-4.697-4.847-9.893-6.103-15.244c-1.282-5.47-1.416-11.087-1.076-16.671c0.351-5.764,1.396-11.479,3.091-16.996
		c1.657-5.398,4.177-10.518,7.116-15.328c2.914-4.763,6.459-9.105,10.364-13.091c2.346-2.397,4.873-4.569,7.447-6.708
		c1.811-1.509,3.589-3.069,5.461-4.507c2.145-1.652,4.313-3.273,6.552-4.793c2.416-1.637,4.949-3.099,7.536-4.455
		c2.403-1.258,4.886-2.392,7.402-3.411c2.835-1.15,5.756-2.086,8.677-2.995c9.024-2.815,18.369-4.519,27.823-4.888
		c4.35-0.172,8.764,0.217,12.977,1.336c1.924,0.509,3.776,1.221,5.532,2.166c0.436,0.236,0.86,0.516,1.269,0.815
		c2.127,0.523,4.246,1.1,6.336,1.753c2.119,0.663,4.212,1.362,6.29,2.126c1.923,0.705,3.782,1.531,5.645,2.377
		c1.859,0.846,3.634,1.889,5.39,2.928c1.74,1.028,3.373,2.249,4.969,3.485c3.222,2.496,6.153,5.4,8.736,8.547
		c0.624,0.763,1.299,1.499,1.882,2.297c0.705,0.969,1.406,1.936,2.111,2.904c0.571,0.785,1.054,1.651,1.574,2.468
		c0.534,0.846,1.039,1.702,1.528,2.572c0.445,0.785,0.921,1.557,1.314,2.369c0.549,1.123,1.102,2.251,1.655,3.375
		c2.271,4.656,3.606,9.791,4.108,14.934c0.137,1.394,0.186,2.791,0.241,4.19c0.037,0.938,0.107,1.88,0.093,2.821
		c-0.019,1.273-0.037,2.548-0.056,3.821c-0.016,0.997-0.148,1.995-0.234,2.987c-0.182,2.144-0.427,4.305-0.891,6.408
		c-0.241,1.089-0.479,2.178-0.724,3.268c-0.208,0.963-0.523,1.896-0.809,2.841c-1.273,4.21-2.992,8.225-5.423,11.902
		c-2.527,3.83-5.778,7.207-9.229,10.206c-1.589,1.378-3.158,2.776-4.803,4.084c-0.029,0.026-0.059,0.05-0.093,0.076
		c-0.434,0.347-0.876,0.692-1.31,1.039c-1.218,0.952-2.435,1.898-3.675,2.824c-0.475,0.356-0.957,0.711-1.439,1.063
		c-0.089,0.066-0.179,0.133-0.271,0.198c-2.729,1.997-5.497,3.93-8.392,5.675c-1.651,1.002-3.281,2.071-4.995,2.969
		c-2.268,1.193-4.535,2.385-6.803,3.572c-1.651,0.868-3.366,1.618-5.066,2.379c-2.769,1.241-5.6,2.312-8.48,3.258
		c-5.465,1.798-11.043,3.157-16.725,4.057c-3.856,0.608-7.753,0.863-11.657,0.863C109.845,136.994,107.748,136.921,105.655,136.79z
		 M130.938,7.542c-4.086,0.208-8.159,0.685-12.189,1.356c-4.359,0.775-8.64,1.85-12.875,3.138c-3.882,1.219-7.712,2.546-11.429,4.22
		c-2.971,1.388-5.864,2.928-8.655,4.65c-3.479,2.225-6.808,4.706-9.983,7.344c-1.854,1.541-3.708,3.084-5.562,4.625
		c-2.186,1.971-4.316,3.984-6.316,6.142c-1.938,2.156-3.774,4.39-5.448,6.752c-0.006,0.009-0.015,0.021-0.021,0.03
		c-1.641,2.396-3.128,4.882-4.487,7.45c-1.197,2.362-2.281,4.767-3.192,7.256c-0.796,2.331-1.458,4.691-2.006,7.09
		c-0.598,2.843-1.028,5.704-1.297,8.597c-0.219,2.837-0.308,5.684-0.213,8.529c0.087,1.688,0.258,3.357,0.521,5.029
		c0.345,1.883,0.781,3.739,1.317,5.576c0.614,1.958,1.329,3.873,2.158,5.75c0.705,1.5,1.479,2.954,2.342,4.375
		c0.978,1.507,2.036,2.95,3.175,4.342c1.145,1.327,2.349,2.585,3.628,3.78c1.87,1.672,3.841,3.212,5.895,4.656
		c1.783,1.206,3.622,2.314,5.526,3.322c1.881,0.942,3.811,1.759,5.788,2.488c3.04,1.065,6.124,1.959,9.265,2.67
		c5.598,1.201,11.256,1.93,16.958,2.437c3.769,0.303,7.54,0.419,11.323,0.299c2.995-0.146,5.962-0.488,8.92-0.978
		c4.14-0.738,8.202-1.753,12.225-2.973c0.011-0.001,0.026-0.007,0.039-0.011c3.713-1.165,7.322-2.557,10.869-4.164
		c3.366-1.569,6.621-3.334,9.909-5.06c0.876-0.457,1.707-0.983,2.553-1.494c1.262-0.763,2.531-1.525,3.793-2.29
		c2.261-1.551,4.528-3.077,6.725-4.713c2.376-1.772,4.702-3.585,7.022-5.424c2.783-2.412,5.552-4.804,8.075-7.499
		c1.05-1.175,2.037-2.39,2.958-3.672c0.82-1.225,1.573-2.481,2.26-3.784c0.721-1.468,1.352-2.963,1.912-4.494
		c0.493-1.423,0.901-2.88,1.336-4.322c0.159-0.525,0.241-1.083,0.363-1.62c0.134-0.618,0.271-1.236,0.404-1.85
		c0.208-1.295,0.408-2.59,0.616-3.884c0.085-1.048,0.179-2.097,0.264-3.142c0.085-0.942,0.07-1.885,0.085-2.832
		c0.016-0.928,0.053-1.854,0.012-2.782c-0.041-1.099-0.086-2.197-0.13-3.292c-0.111-1.596-0.268-3.175-0.513-4.752
		c-0.289-1.575-0.66-3.119-1.113-4.65c-0.534-1.64-1.165-3.227-1.855-4.806c-0.571-1.166-1.136-2.327-1.707-3.496
		c-0.587-1.197-1.321-2.336-1.975-3.5c-0.883-1.388-1.759-2.767-2.731-4.099c-1.017-1.394-2.086-2.724-3.177-4.056
		c-0.683-0.75-1.365-1.5-2.049-2.247c-0.646-0.716-1.365-1.375-2.052-2.054c-0.657-0.583-1.317-1.162-1.971-1.743
		c-0.787-0.696-1.678-1.303-2.513-1.946c-1.103-0.755-2.197-1.505-3.352-2.184c-1.239-0.735-2.501-1.407-3.778-2.071
		c-1.087-0.492-2.167-1.002-3.272-1.453c-1.24-0.503-2.479-0.973-3.73-1.438c-2.542-0.852-5.096-1.633-7.675-2.342
		c-0.775,0.31-1.641,0.356-2.44,0.128c-0.761-0.219-1.363-0.655-1.844-1.232c-0.846-0.204-1.694-0.401-2.547-0.588
		c-0.145-0.032-0.292-0.062-0.442-0.095c-0.999-0.213-1.859-0.665-2.472-1.507c-0.128-0.18-0.243-0.369-0.336-0.568
		c-0.339-0.089-0.679-0.171-1.022-0.25c-1.247-0.245-2.503-0.416-3.769-0.543c-1.401-0.111-2.8-0.162-4.201-0.162
		C132.203,7.512,131.57,7.521,130.938,7.542z"/>
	<path fill="#09B1AB" d="M144.448,280.41c-0.143-0.008-0.29-0.008-0.432-0.008c-4.112-0.06-8.206-0.282-12.309-0.575
		c-4.093-0.293-8.167-0.783-12.23-1.34c-4.995-0.683-9.963-1.566-14.904-2.557c-2.5-0.501-4.994-1.028-7.48-1.574
		c-0.685-0.148-1.37-0.3-2.052-0.452c-2.073-0.461-4.133-1.065-6.125-1.8c-2.303-0.847-4.587-1.908-6.229-3.786
		c-1.312-1.499-1.871-3.466-1.876-5.43c-0.007-1.283,0.126-2.571,0.219-3.852c0.302-4.146,0.633-8.291,0.84-12.444
		c0.396-7.823,0.69-15.654,1.078-23.481c0.807-16.273,1.952-32.528,2.88-48.795c0.378-6.615,0.735-13.23,1.078-19.848
		c0.146-2.862,0.288-5.719,0.431-8.581c0.067-1.379,0.163-2.756,0.249-4.134c0.006-0.106,0.013-0.213,0.019-0.319
		c0.137-2.27,0.229-4.559,0.605-6.807c0.041-0.239,0.085-0.479,0.132-0.72c0.141-0.709,0.44-1.358,0.885-1.883
		c0.386-0.462,0.887-0.828,1.49-1.056c1.215-0.46,2.654-0.252,3.667,0.573c1.013,0.822,1.535,2.021,1.535,3.309
		c0,0.345-0.054,0.678-0.147,0.993c-0.065,0.217-0.152,0.425-0.256,0.622c-0.067,0.486-0.123,0.974-0.165,1.466
		c-0.677,8.827-0.999,17.682-1.453,26.519c-0.41,7.964-0.926,15.925-1.421,23.884c-0.499,8.046-1.03,16.084-1.47,24.123
		c-0.451,8.238-0.852,16.474-1.215,24.709c-0.18,4.098-0.312,8.202-0.57,12.3c-0.141,2.204-0.304,4.408-0.466,6.62
		c-0.08,1.039-0.156,2.079-0.232,3.125c-0.091,1.247-0.217,2.494-0.219,3.749c0.009,0.111,0.017,0.229,0.031,0.341
		c0.006,0.022,0.009,0.045,0.015,0.067c0.005,0.021,0.015,0.037,0.021,0.059c0.009,0.016,0.015,0.03,0.024,0.045
		c0.022,0.029,0.05,0.052,0.072,0.082c0.115,0.097,0.229,0.188,0.349,0.274c0.17,0.111,0.343,0.215,0.518,0.312
		c0.774,0.375,1.555,0.709,2.358,1.01c3.203,1.083,6.489,1.788,9.783,2.52c4.971,1.002,9.948,1.948,14.949,2.78
		c4.708,0.786,9.438,1.306,14.185,1.796c2.527,0.178,5.055,0.379,7.587,0.482c2.949,0.119,5.892,0.179,8.846,0.216
		c5.174,0.059,10.365-0.127,15.531-0.331c2.101-0.104,4.205-0.215,6.31-0.338c1.062-0.059,2.127-0.122,3.191-0.186
		c1.069-0.059,2.146-0.089,3.214-0.204c0.041-0.07,0.082-0.137,0.123-0.207c0.208-0.442,0.396-0.895,0.567-1.348
		c0.35-1.076,0.627-2.164,0.88-3.266c0.738-3.563,1.206-7.182,1.633-10.793c0.379-3.217,0.679-6.435,0.969-9.66
		c0.134-2.045,0.274-4.086,0.416-6.131c0.141-2.167,0.192-4.346,0.289-6.51c0.178-3.975,0.274-7.96,0.423-11.938
		c0.293-7.897,0.802-15.811,0.721-23.715c-0.041-3.652-0.127-7.289-0.23-10.941c0,0.026,0,0.045,0.008,0.07
		c-0.008-0.04-0.008-0.077-0.008-0.114c-0.319-7.872-0.612-15.764-1.262-23.619c-0.342-4.136-0.709-8.267-1.203-12.388
		c-0.464-3.83-1.046-7.646-1.525-11.475c-0.553-4.454-1.102-8.911-1.588-13.374c-0.441-4.014-0.761-8.056-1.406-12.051
		c-0.008-0.035-0.012-0.07-0.016-0.107c-0.007-0.032-0.015-0.065-0.015-0.097c-0.063-0.39-0.081-0.773-0.052-1.148
		c0.045-0.536,0.2-1.054,0.497-1.549c0.513-0.857,1.373-1.49,2.35-1.722c0.854-0.2,1.789-0.063,2.587,0.334
		c0.965,0.48,1.736,1.345,1.922,2.449c0.609,3.531,0.946,7.089,1.321,10.649c0.371,3.489,0.779,6.976,1.202,10.457
		c0.045,0.38,0.09,0.763,0.134,1.143c0.476,3.938,0.987,7.872,1.529,11.8c0.561,4.103,1.002,8.209,1.381,12.334
		c0.716,7.813,1.113,15.652,1.433,23.489c0.334,8.233,0.594,16.469,0.301,24.711c-0.309,8.573-0.668,17.15-0.962,25.73
		c-0.282,8.061-0.823,16.114-1.759,24.131c-0.237,2.049-0.505,4.082-0.816,6.123c-0.55,3.682-1.158,7.378-2.542,10.855
		c-0.721,1.818-1.927,3.589-3.679,4.531c-1.373,0.742-2.887,0.816-4.408,0.909c-1.826,0.108-3.659,0.212-5.489,0.319
		c-5.815,0.33-11.635,0.568-17.454,0.635c-1.239,0.015-2.47,0.022-3.706,0.022C146.716,280.424,145.582,280.42,144.448,280.41z"/>
	<path fill="#09B1AB" d="M29.255,184.607c-1.058-0.097-2.112-0.215-3.158-0.363c-1.011-0.145-2.015-0.315-3.014-0.52
		c-0.941-0.193-1.869-0.431-2.785-0.703c-0.06-0.016-0.121-0.032-0.178-0.053c-0.57-0.167-1.138-0.353-1.7-0.541
		c-0.514-0.173-1.028-0.351-1.537-0.537c-1.455-0.523-2.266-2.052-2.24-3.541c0.002-0.229,0.026-0.453,0.071-0.676
		c0.046-0.247,0.119-0.486,0.219-0.714c0.117-0.271,0.264-0.521,0.441-0.753c0.277-0.371,0.624-0.69,1.019-0.937
		c0.206-0.128,0.423-0.237,0.651-0.325c0.909-0.345,1.814-0.274,2.713,0.032c0.551,0.193,1.108,0.38,1.665,0.557
		c0.79,0.249,1.586,0.477,2.396,0.679c0.193,0.046,0.386,0.095,0.579,0.137c2.148,0.431,4.316,0.687,6.498,0.891
		c1.321,0.108,2.624,0.178,3.945,0.156c1.193-0.068,2.373-0.191,3.559-0.364c1.028-0.187,2.05-0.39,3.063-0.653
		c1.089-0.36,2.138-0.835,3.186-1.293c1.5-0.688,2.999-1.382,4.437-2.193c1.373-0.774,2.72-1.588,4.058-2.421
		c1.631-1.075,3.166-2.242,4.682-3.47c1.099-0.941,2.232-1.863,3.268-2.867c1.119-1.083,2.193-2.184,3.26-3.318
		c1.089-1.276,2.14-2.563,3.177-3.884c1.083-1.39,2.087-2.843,3.104-4.283c3.067-4.442,6.203-8.838,9.297-13.262
		c0.974-1.412,1.932-2.835,2.919-4.244c0.326-0.469,0.657-0.972,1.022-1.447c0.516-0.67,1.1-1.284,1.844-1.663
		c1.134-0.577,2.442-0.553,3.505-0.009c0.647,0.325,1.201,0.844,1.573,1.535c0.27,0.504,0.408,1.054,0.429,1.61
		c0.045,1.18-0.453,2.37-1.396,3.11c-0.395,0.501-0.763,1.026-1.128,1.553c-0.366,0.535-0.731,1.067-1.101,1.602
		c-2.683,3.893-5.435,7.742-8.151,11.618c-2.255,3.266-4.487,6.543-6.929,9.669c-2.427,3.11-5.175,5.983-8.174,8.547
		c-1.616,1.386-3.229,2.783-4.96,4.024c-1.571,1.132-3.238,2.132-4.898,3.131c-1.743,1.048-3.531,1.978-5.371,2.846
		c-2.154,1.013-4.362,2.075-6.697,2.594c-2.104,0.468-4.22,0.816-6.372,0.965c-0.618,0.041-1.229,0.063-1.839,0.063
		C32.554,184.893,30.912,184.755,29.255,184.607z"/>
	<path fill="#09B1AB" d="M14.644,178.35c-0.113-0.076-0.223-0.158-0.33-0.243c-0.193-0.146-0.379-0.304-0.557-0.468
		c-0.551-0.505-1.044-1.062-1.499-1.651c-0.837-1.082-1.54-2.273-2.208-3.459c-1.722-3.054-3.293-6.196-4.726-9.397
		c-0.831-1.865,0.353-4.144,2.177-4.834c0.903-0.343,1.932-0.319,2.818,0.063c0.961,0.416,1.596,1.174,2.016,2.111
		c0.082,0.182,0.163,0.364,0.247,0.546c1.373,2.948,2.873,5.83,4.468,8.662c0.16,0.254,0.321,0.509,0.486,0.761
		c0.26,0.401,0.529,0.796,0.813,1.186c0.121,0.132,0.243,0.26,0.368,0.386c1.525,0.443,2.665,1.904,2.708,3.52
		c0.003,0.059,0.003,0.121,0.003,0.178c-0.005,0.196-0.024,0.388-0.059,0.575c-0.078,0.436-0.234,0.842-0.451,1.208
		c-0.104,0.18-0.225,0.347-0.354,0.504c-0.547,0.648-1.308,1.11-2.166,1.288c-0.07,0.019-0.141,0.03-0.215,0.039
		c-0.193,0.031-0.388,0.046-0.59,0.046C16.503,179.373,15.514,178.958,14.644,178.35z"/>
	<path fill="#09B1AB" d="M16.288,183.865c-0.642-0.111-1.286-0.178-1.93-0.237c-1.27-0.101-2.542-0.167-3.817-0.208
		c-2.292-0.082-4.591-0.07-6.88-0.022c-2.043,0.045-3.708-1.861-3.659-3.835c0.02-0.985,0.441-1.941,1.156-2.624
		c0.741-0.705,1.668-1.013,2.676-1.036c2.731-0.061,5.48-0.056,8.211,0.072c0.07,0.004,0.143,0.007,0.213,0.013
		c1.043,0.048,2.082,0.119,3.119,0.219c0.321,0.026,0.644,0.06,0.967,0.095c0.002,0,0.007,0,0.011,0.002
		c0.107,0.009,0.217,0.024,0.323,0.041c0.538,0.074,1.06,0.186,1.583,0.313c0.49,0.072,0.946,0.249,1.356,0.501
		c0.36,0.225,0.679,0.508,0.946,0.84c0.386,0.472,0.661,1.038,0.787,1.643c0.052,0.267,0.08,0.538,0.073,0.814
		c-0.013,0.629-0.184,1.212-0.468,1.718c-0.178,0.313-0.399,0.598-0.657,0.847c-0.225,0.221-0.477,0.41-0.748,0.569
		c-0.313,0.186-0.657,0.319-1.017,0.412c-0.304,0.07-0.618,0.115-0.942,0.115C17.126,184.118,16.718,183.984,16.288,183.865z"/>
	<path fill="#09B1AB" d="M4.773,199.051c-1.718-1.024-2.381-3.414-1.288-5.14c1.978-3.129,4.142-6.143,6.201-9.223
		c0.284-0.423,0.568-0.847,0.855-1.27c0.808-1.201,1.624-2.396,2.459-3.581c0.395-0.563,0.826-1.171,1.312-1.731
		c0.13-0.148,0.263-0.295,0.401-0.433c0.49-0.499,1.031-0.926,1.646-1.2c0.102-0.05,0.208-0.091,0.317-0.13
		c0.152-0.052,0.31-0.097,0.472-0.132c1.06-0.223,2.134,0.003,2.978,0.571c0.295,0.197,0.562,0.436,0.791,0.711
		c0.351,0.419,0.61,0.924,0.746,1.498c0.039,0.161,0.065,0.321,0.08,0.486c0.091,0.967-0.211,1.941-0.789,2.696
		c-0.234,0.308-0.516,0.577-0.835,0.794c-0.052,0.037-0.104,0.072-0.16,0.108c-0.141,0.165-0.278,0.339-0.41,0.514
		c-0.329,0.423-0.636,0.854-0.943,1.291c-0.041,0.053-0.083,0.111-0.12,0.164c-1.414,2.06-2.793,4.146-4.196,6.216
		c-1.464,2.164-2.977,4.294-4.372,6.506c-0.727,1.144-1.978,1.812-3.256,1.812C6.021,199.579,5.371,199.408,4.773,199.051z"/>
	<path fill="#09B1AB" d="M18.374,179.432c-0.065-0.033-0.13-0.068-0.191-0.105c-1.004-0.586-1.753-1.605-1.818-2.817
		c0-0.013,0-0.024-0.004-0.035c-0.002-0.06-0.005-0.115-0.005-0.171c-0.007-0.349,0.005-0.69,0.041-1.034
		c0.106-1.058,0.396-2.093,0.683-3.119c0.162-0.568,0.313-1.138,0.457-1.709c0.178-0.698,0.349-1.397,0.516-2.099
		c1.089-5.676,2.038-11.392,2.745-17.129c0.249-2.026,2.295-3.44,4.268-3.138c2.065,0.31,3.392,2.242,3.144,4.268
		c-0.472,3.854-1.067,7.699-1.722,11.527c-0.36,2.108-0.679,4.24-1.171,6.318c-0.221,0.926-0.417,1.859-0.674,2.776
		c-0.252,0.891-0.52,1.772-0.733,2.668c-0.024,0.152-0.05,0.304-0.072,0.457c0,0.003,0,0.009,0,0.011
		c-0.004,0.013-0.007,0.024-0.007,0.035c0-0.017,0.003-0.037,0.003-0.058c0-0.033-0.003-0.068-0.003-0.104
		c0,0.007-0.002,0.009-0.002,0.013c0,0.076,0,0.148-0.005,0.225c-0.004,0.137-0.015,0.276-0.034,0.41
		c-0.087,0.662-0.325,1.28-0.764,1.828c-0.347,0.436-0.787,0.785-1.279,1.028c-0.128,0.065-0.258,0.117-0.394,0.164
		c-0.278,0.102-0.568,0.17-0.866,0.202c-0.119,0.015-0.243,0.021-0.362,0.021C19.515,179.864,18.912,179.708,18.374,179.432z"/>
	<path fill="#09B1AB" d="M77.525,362.02c-1.056-0.056-2.104-0.186-3.156-0.305c-2.419-0.278-4.832-0.757-7.057-1.767
		c-1.884-0.846-3.841-2.249-4.858-4.09c-0.49-0.887-0.92-1.848-1.013-2.868c-0.117-1.277,0.006-2.45,0.37-3.679
		c0.588-2.011,2.139-3.606,3.708-4.902c1.761-1.458,4.101-2.282,6.335-2.616c6.402-0.973,12.652,1.484,18.543,3.704
		c0.549,0.204,1.098,0.408,1.647,0.616c0.035-0.383,0.071-0.761,0.106-1.14c0.156-1.6,0.304-3.203,0.457-4.81
		c0.29-3.084,0.581-6.165,0.85-9.249c0.612-7.923,1.049-15.857,1.546-23.793c0.516-8.246,1.03-16.496,1.667-24.738
		c0.161-2.071,0.39-4.172,0.39-6.258c-0.044-0.237-0.071-0.49-0.071-0.738c0-0.349,0.032-0.694,0.106-1.032
		c0.017-0.077,0.037-0.151,0.058-0.233c0.464-1.618,2.009-2.754,3.691-2.709c1.685,0.037,3.167,1.239,3.561,2.876
		c0.125,0.523,0.166,1.08,0.169,1.641c0.004,0.464-0.024,0.928-0.05,1.373c-0.058,0.991-0.108,1.985-0.184,2.973
		c-0.158,2.052-0.31,4.101-0.462,6.153c-0.334,4.49-0.625,8.988-0.915,13.486c-0.518,7.972-0.973,15.94-1.485,23.908
		c-0.406,6.368-1.013,12.711-1.61,19.061c-0.138,1.463-0.273,2.917-0.419,4.38c-0.067,0.672-0.134,1.343-0.215,2.019
		c-0.13,1.062-0.267,2.201-0.83,3.136c-0.295,0.498-0.72,0.954-1.221,1.311c0.647,1.692-0.011,3.853-1.713,4.673
		c-1.885,0.901-3.795,1.691-5.81,2.268c-1.965,0.56-3.977,0.92-5.999,1.172c-1.307,0.171-2.617,0.241-3.929,0.241
		C78.995,362.083,78.26,362.061,77.525,362.02z M74.313,349.06c-0.477,0.037-0.952,0.082-1.429,0.152
		c-0.404,0.085-0.8,0.182-1.195,0.293c-0.202,0.07-0.397,0.148-0.594,0.23c-0.167,0.081-0.332,0.17-0.492,0.264
		c-0.284,0.188-0.56,0.39-0.829,0.604c-0.117,0.107-0.234,0.223-0.345,0.334c-0.091,0.107-0.176,0.216-0.258,0.323
		c-0.065,0.1-0.128,0.204-0.191,0.301c-0.017,0.037-0.031,0.074-0.048,0.107c-0.013,0.041-0.024,0.078-0.033,0.115
		c-0.009,0.048-0.015,0.096-0.022,0.148c0,0.015,0,0.029,0,0.04c0,0.004,0.002,0.004,0.002,0.004c0.015,0.03,0.032,0.06,0.048,0.089
		c0.021,0.03,0.042,0.06,0.067,0.09c0.041,0.044,0.082,0.089,0.123,0.133c0.102,0.082,0.204,0.164,0.31,0.245
		c0.332,0.216,0.663,0.416,1.008,0.602c0.219,0.104,0.445,0.2,0.673,0.289c0.475,0.156,0.948,0.286,1.435,0.401
		c1.57,0.315,3.156,0.497,4.747,0.675c1.148,0.06,2.282,0.089,3.429,0.082c1.412-0.111,2.8-0.274,4.198-0.497
		c1.076-0.223,2.137-0.468,3.193-0.765c0.319-0.104,0.638-0.216,0.956-0.33c-1.136-0.427-2.27-0.851-3.407-1.277
		c-2.362-0.827-4.723-1.659-7.161-2.23c-0.814-0.163-1.625-0.297-2.451-0.386c-0.455-0.025-0.902-0.037-1.353-0.037
		C74.565,349.06,74.439,349.06,74.313,349.06z"/>
	<path fill="#09B1AB" d="M155.117,363.494c-2.016-0.29-3.434-2.253-3.144-4.25c-0.119-0.056-0.245-0.119-0.364-0.189
		c-0.942-0.567-1.657-1.436-2.045-2.46c-0.415-1.095-0.491-2.302-0.614-3.452c-0.102-0.942-0.19-1.885-0.281-2.827
		c-0.36-3.756-0.576-7.526-0.854-11.294c-0.293-3.997-0.562-8.005-0.82-12.006c-0.516-7.949-0.935-15.906-1.366-23.859
		c-0.204-3.812-0.417-7.615-0.649-11.424c-0.223-3.715-0.462-7.426-0.952-11.115c0.004,0,0.006,0,0.01,0
		c-0.01-0.074-0.017-0.141-0.021-0.215c-0.006-0.082-0.009-0.171-0.009-0.252c0-0.004,0-0.008,0-0.016
		c0-1.855,1.535-3.451,3.357-3.641c2.068-0.219,3.852,1.311,4.119,3.337c0.026,0.189,0.052,0.382,0.074,0.571
		c0.457,3.622,0.683,7.267,0.898,10.911c0.245,4.023,0.468,8.054,0.683,12.08c0.453,8.243,0.901,16.481,1.433,24.721
		c0.286,4.416,0.608,8.833,0.936,13.249c0.155,2.183,0.293,4.364,0.475,6.539c0.045,0.527,0.089,1.059,0.134,1.589
		c0.449-0.367,0.898-0.728,1.358-1.084c1.592-1.231,3.195-2.441,4.884-3.54c3.57-2.32,7.326-4.554,11.457-5.701
		c1.503-0.415,3.01-0.823,4.579-0.875c1.243-0.037,2.428,0.126,3.607,0.538c0.505,0.174,1.043,0.382,1.488,0.683
		c0.612,0.412,1.299,0.82,1.781,1.392c0.383,0.456,0.731,0.876,1.047,1.381c0.293,0.452,0.497,0.928,0.72,1.421
		c0.23,0.501,0.338,1.117,0.431,1.659c0.089,0.505,0.163,1.054,0.134,1.573c-0.067,1.154-0.223,2.264-0.639,3.355
		c-0.452,1.184-1.046,2.305-1.811,3.321c-4.354,5.749-11.527,8.577-18.423,9.85c-1.849,0.338-3.704,0.486-5.567,0.486
		C159.147,363.95,157.125,363.779,155.117,363.494z M178.909,345.764c-0.089,0-0.186,0.004-0.274,0.008
		c-0.237,0.022-0.471,0.052-0.705,0.089c-0.798,0.163-1.577,0.379-2.36,0.594c-1.136,0.412-2.234,0.854-3.34,1.325
		c-1.418,0.738-2.802,1.511-4.187,2.323c-1.54,0.998-3.095,1.996-4.554,3.121c-1.347,1.047-2.676,2.101-3.997,3.177
		c0.816,0.041,1.633,0.067,2.449,0.082c0.929-0.06,1.841-0.148,2.766-0.264c1.25-0.233,2.476-0.509,3.715-0.813
		c1.551-0.482,3.08-0.987,4.576-1.641c0.794-0.386,1.565-0.802,2.319-1.255c0.66-0.43,1.299-0.891,1.915-1.38
		c0.394-0.342,0.771-0.702,1.143-1.073c0.282-0.322,0.55-0.649,0.816-0.99c0.193-0.297,0.379-0.594,0.55-0.898
		c0.07-0.156,0.137-0.312,0.2-0.468c0.033-0.126,0.066-0.252,0.104-0.378c0.016-0.09,0.03-0.179,0.049-0.268
		c0.004-0.078,0.007-0.156,0.011-0.234c-0.004-0.063-0.007-0.122-0.007-0.178c-0.016-0.056-0.022-0.107-0.03-0.159
		c0.045,0.155,0.093,0.304,0.142,0.46c-0.053-0.223-0.123-0.438-0.208-0.649c-0.022-0.037-0.045-0.07-0.067-0.111
		c-0.015-0.019-0.029-0.037-0.048-0.056c-0.026-0.022-0.048-0.045-0.074-0.067c-0.048-0.029-0.093-0.059-0.138-0.096
		c-0.052-0.022-0.104-0.053-0.163-0.074c-0.066-0.026-0.134-0.049-0.208-0.074c0.16,0.033,0.315,0.066,0.476,0.104
		c-0.441-0.119-0.891-0.186-1.344-0.2C178.594,345.735,178.753,345.75,178.909,345.764z"/>
	<path fill="#09B1AB" d="M217.799,159.298c-1.381-0.26-2.754-0.527-4.123-0.852c-2.799-0.664-5.504-1.688-8.083-2.952
		c-4.836-2.368-9.107-5.73-12.756-9.671c-0.936-1.01-1.785-2.084-2.646-3.153c-0.564-0.703-1.151-1.388-1.678-2.123
		c-1.222-1.706-2.435-3.389-3.556-5.157c-0.356-0.566-0.713-1.134-1.072-1.7c-0.183-0.29-0.364-0.575-0.55-0.867
		c-0.664-1.05-1.235-2.164-1.837-3.247c-0.994-1.787-1.9-3.617-2.813-5.446c-0.801-1.6-1.565-3.238-2.268-4.884
		c-0.441-1.047-0.887-2.091-1.324-3.136c-0.293-0.683-0.523-1.388-0.765-2.087c-0.037-0.104-0.07-0.202-0.104-0.303
		c-0.074-0.211-0.148-0.425-0.215-0.647c-0.416-1.342-0.664-2.849-0.097-4.159c0.608-1.414,2.02-2.271,3.544-2.271
		c1.525,0,2.844,1.022,3.389,2.377c0.186,0.457,0.282,0.952,0.271,1.457c-0.004,0.041-0.004,0.083-0.004,0.125
		c0.033,0.145,0.066,0.284,0.111,0.425c0.282,0.809,0.542,1.631,0.876,2.422c0.434,1.024,0.868,2.05,1.306,3.078
		c0.936,2.023,1.875,4.038,2.873,6.035c1.068,2.136,2.234,4.205,3.399,6.291c1.099,1.748,2.189,3.498,3.392,5.183
		c0.665,0.928,1.292,1.891,2.012,2.778c0.791,0.976,1.581,1.95,2.368,2.93c1.024,1.152,2.078,2.266,3.195,3.323
		c1.229,1.104,2.505,2.132,3.841,3.097c1.255,0.85,2.539,1.625,3.875,2.34c1.25,0.623,2.527,1.184,3.837,1.685
		c1.492,0.514,2.995,0.922,4.528,1.282c1.699,0.325,3.381,0.659,5.099,0.857c0.728,0.044,1.448,0.056,2.179,0.037
		c0.88-0.062,1.752-0.154,2.624-0.29c1.144-0.213,2.271-0.494,3.392-0.807c0.906-0.299,1.805-0.598,2.706-0.896
		c0.872-0.289,1.726-0.685,2.575-1.037c0.783-0.38,1.574-0.765,2.36-1.147c0.865-0.423,1.688-0.97,2.521-1.457
		c1.365-0.883,2.672-1.832,3.926-2.859c0.902-0.783,1.768-1.59,2.609-2.44c0.813-0.893,1.629-1.787,2.383-2.735
		c0.746-0.937,1.429-1.891,2.111-2.867c0.779-1.273,1.525-2.549,2.246-3.859c2.163-4.337,4.053-8.785,5.748-13.324
		c0.097-0.265,0.197-0.529,0.293-0.796c0.212-0.603,0.42-1.203,0.613-1.815c0-0.013,0.007-0.028,0.011-0.039
		c-0.509-0.592-1.013-1.186-1.518-1.779c-0.969-1.138-1.931-2.277-2.888-3.42c-0.861-1.028-1.719-2.06-2.572-3.093
		c-2.534-3.021-5.162-5.992-7.541-9.133c-1.232-1.627-0.783-4.055,0.843-5.235c1.677-1.219,4.001-0.785,5.232,0.839
		c0.717,0.946,1.455,1.868,2.208,2.785c1.808,2.15,3.611,4.301,5.408,6.459c0.965,1.154,1.926,2.308,2.887,3.464
		c0.998,1.189,2.012,2.366,3.024,3.544c0.212,0.249,0.424,0.494,0.639,0.744c0,0.001,0.004,0.005,0.004,0.007
		c0.052,0.061,0.104,0.121,0.155,0.182c0.275,0.334,0.535,0.674,0.787,1.034c0.312,0.46,0.513,0.967,0.735,1.47
		c0.378,0.855,0.326,1.924,0.178,2.82c-0.037,0.238-0.089,0.472-0.152,0.709c-0.104,0.395-0.233,0.791-0.367,1.18
		c-0.122,0.345-0.249,0.688-0.364,1.028c-1.231,3.576-2.642,7.129-4.197,10.573c-1.695,3.754-3.529,7.426-5.882,10.811
		c-3.478,4.999-7.994,9.462-13.279,12.511c-1.788,1.034-3.592,2.082-5.515,2.858c-2.175,0.875-4.357,1.688-6.613,2.331
		c-2.319,0.659-4.721,1.078-7.13,1.165c-0.293,0.01-0.575,0.015-0.864,0.015C221.477,159.864,219.636,159.647,217.799,159.298z"/>
	<path fill="#09B1AB" d="M257.499,118.491c0.041,0.017,0.078,0.035,0.119,0.052c0.148,0.032,0.293,0.062,0.438,0.093
		c-1.604-0.345-3.299-0.423-4.936-0.573c-5.174-0.421-10.348-0.822-15.528-1.139c-2.033-0.123-3.704-1.733-3.659-3.832
		c0.049-1.984,1.796-3.784,3.838-3.661c3.789,0.232,7.578,0.52,11.363,0.805c1.915,0.143,3.838,0.293,5.753,0.477
		c0.278,0.028,0.557,0.054,0.835,0.083c0.761,0.076,1.525,0.158,2.29,0.25c0.17,0.021,0.341,0.044,0.504,0.067
		c0.898,0.13,1.756,0.337,2.502,0.905c0.846,0.648,1.313,1.622,1.388,2.633c0.015,0.213,0.015,0.427-0.008,0.638
		c-0.044,0.466-0.163,0.928-0.374,1.353c-0.115,0.225-0.249,0.441-0.412,0.644c-0.624,0.785-1.492,1.24-2.405,1.358
		c-0.17,0.024-0.338,0.035-0.508,0.035C258.292,118.68,257.884,118.616,257.499,118.491z"/>
	<path fill="#09B1AB" d="M21.218,197.849c-0.808-0.646-1.238-1.537-1.39-2.539c-0.403-2.627-0.728-5.263-0.981-7.904
		c-0.082-0.839-0.164-1.682-0.24-2.524c-0.026-0.297-0.05-0.586-0.074-0.879c-0.042-0.523-0.082-1.053-0.111-1.575
		c-0.05-0.852-0.078-1.708-0.078-2.558c0-0.148,0.009-0.295,0.028-0.438c0.007-0.048,0.013-0.098,0.024-0.145
		c0.143-0.837,0.594-1.581,1.221-2.128c0.158-0.137,0.328-0.264,0.51-0.375c0.38-0.237,0.8-0.41,1.241-0.497
		c0.264-0.056,0.533-0.083,0.807-0.076c0.583,0.013,1.13,0.16,1.611,0.412c1.234,0.642,2.051,1.954,2.051,3.42
		c0,0.298,0.011,0.596,0.024,0.887c0.069,1.104,0.145,2.212,0.236,3.314c0.278,3.437,0.662,6.865,1.186,10.28
		c0.308,2.019-1.375,3.915-3.334,4.119c-0.132,0.015-0.26,0.022-0.39,0.022C22.715,198.666,21.88,198.375,21.218,197.849z"/>
	<path fill="#09B1AB" d="M96.423,65.686c-0.434-4.018-0.688-8.05-0.961-12.082c-0.128-1.895-0.245-3.793-0.365-5.691
		c-0.067-1.069-0.136-2.138-0.202-3.207c-0.067-1.071-0.152-2.158-0.152-3.233c0-2.041,1.828-3.708,3.833-3.659
		c2.077,0.046,3.66,1.791,3.66,3.832c0,0.009,0,0.019,0,0.028c0.193,3.719,0.443,7.432,0.683,11.145
		c0.26,4.032,0.527,8.066,0.961,12.082c0.215,2.028-1.31,3.91-3.336,4.119c-0.128,0.015-0.258,0.021-0.384,0.021
		C98.277,69.041,96.625,67.587,96.423,65.686z"/>
	<path fill="#09B1AB" d="M120.759,61.128c-0.308-5.159-0.286-10.344-0.308-15.511c-0.02-4.908-0.005-9.814-0.005-14.723
		c0-2.045,1.832-3.708,3.837-3.661c2.075,0.048,3.659,1.792,3.659,3.833c0,9.323-0.154,18.668,0.203,27.988
		c0.02,0.427,0.044,0.857,0.07,1.288c0.058,0.993-0.165,1.939-0.794,2.726c-0.624,0.783-1.547,1.292-2.54,1.395
		c-0.121,0.011-0.243,0.017-0.364,0.017C122.674,64.481,120.875,63.043,120.759,61.128z"/>
	<path fill="#09B1AB" d="M112.214,100.26c-2.641-0.071-5.298-0.436-7.874-1.017c-2.657-0.598-5.24-1.419-7.693-2.605
		c-2.002-0.967-3.825-2.364-5.478-3.837c-1.711-1.527-3.266-3.223-4.589-5.099c-0.666-0.944-1.236-1.954-1.776-2.973
		c-0.467-0.887-0.883-1.878-0.963-2.886c-0.132-1.624,0.775-3.405,2.407-3.926c0.944-0.301,1.898-0.334,2.824,0.065
		c0.918,0.399,1.657,1.171,2.013,2.112c0.1,0.26,0.166,0.529,0.201,0.801c0.002,0.011,0.007,0.021,0.011,0.032
		c0.29,0.592,0.604,1.166,0.934,1.737c0.419,0.642,0.859,1.262,1.333,1.865c0.777,0.911,1.609,1.767,2.481,2.586
		c0.809,0.709,1.651,1.364,2.527,1.987c0.406,0.262,0.816,0.507,1.241,0.743c0.74,0.351,1.488,0.673,2.255,0.968
		c1.341,0.462,2.698,0.843,4.082,1.166c1.486,0.299,2.979,0.523,4.489,0.679c1.423,0.105,2.843,0.143,4.274,0.105
		c1.213-0.07,2.419-0.191,3.629-0.364c1.113-0.202,2.212-0.451,3.301-0.757c0.922-0.299,1.82-0.64,2.711-1.026
		c1.109-0.536,2.184-1.121,3.242-1.753c1.227-0.794,2.397-1.661,3.528-2.583c0.998-0.872,1.948-1.787,2.865-2.743
		c1.013-1.139,1.971-2.319,2.867-3.553c0.573-0.852,1.106-1.722,1.598-2.621c0.451-0.92,0.854-1.848,1.213-2.806
		c0.583-1.848,1.082-3.704,1.525-5.589c0.271-1.345,0.499-2.689,0.659-4.053c0.239-2.03,2.305-3.442,4.272-3.144
		c2.07,0.313,3.379,2.244,3.14,4.27c-0.232,1.974-0.612,3.906-1.06,5.841c-0.417,1.783-0.895,3.58-1.523,5.302
		c-1.611,4.399-4.24,8.33-7.463,11.718c-1.819,1.909-3.797,3.622-5.935,5.166c-2.075,1.501-4.351,2.706-6.688,3.745
		c-2.167,0.961-4.521,1.536-6.849,1.936c-2.149,0.373-4.322,0.527-6.5,0.527C113.035,100.276,112.625,100.271,112.214,100.26z"/>
	<path fill="#09B1AB" d="M262.048,116.643c-0.007,0-0.015,0-0.025,0c-0.68-0.021-1.34-0.243-1.911-0.609
		c-0.676-0.434-1.218-1.074-1.507-1.818c-0.171-0.44-0.253-0.915-0.216-1.407c0.037-0.564,0.082-1.13,0.126-1.696
		c0.208-2.57,0.49-5.133,0.783-7.695c0.06-0.498,0.119-0.991,0.175-1.486c0.208-1.739,0.456-3.479,0.728-5.212
		c0.159-1.043,0.237-2.203,0.656-3.171c0.62-1.433,2.023-2.31,3.57-2.31c2.045,0,3.708,1.826,3.659,3.832
		c-0.011,0.408-0.085,0.798-0.219,1.16c-0.72,4.261-1.232,8.56-1.651,12.865c-0.06,0.614-0.115,1.229-0.175,1.845
		c-0.007,0.061-0.015,0.121-0.015,0.182c-0.011,0.078-0.015,0.158-0.022,0.239c-0.044,0.538-0.085,1.08-0.122,1.622
		c-0.07,1.006-0.419,1.918-1.154,2.624c-0.097,0.091-0.196,0.176-0.297,0.252c-0.489,0.38-1.068,0.633-1.678,0.731
		c-0.204,0.035-0.408,0.054-0.616,0.054C262.108,116.643,262.079,116.643,262.048,116.643z"/>
	<path fill="#09B1AB" d="M265.125,116.593c-0.271-0.217-0.509-0.466-0.698-0.735c-0.856-1.189-0.924-2.794-0.192-4.088
		c0.004-0.002,0.004-0.002,0.004-0.002c0.081-0.154,0.178-0.299,0.289-0.443c0.23-0.299,0.453-0.6,0.679-0.898
		c0.338-0.444,0.672-0.887,1.006-1.333c1.645-2.184,3.273-4.381,4.892-6.584c1.058-1.434,2.101-2.878,3.154-4.316
		c1.255-1.709,2.517-3.461,4.053-4.923c1.484-1.405,3.89-1.358,5.3,0.124c1.41,1.472,1.362,3.895-0.118,5.3
		c-0.148,0.137-0.297,0.275-0.438,0.419c-1.206,1.368-2.278,2.857-3.354,4.327c-0.965,1.321-1.923,2.645-2.892,3.96
		c-0.211,0.29-0.427,0.575-0.638,0.867c-1.912,2.588-3.83,5.168-5.779,7.727c-0.687,0.906-1.755,1.377-2.839,1.397
		c-0.029,0.002-0.056,0.002-0.085,0.002C266.632,117.395,265.797,117.129,265.125,116.593z"/>
	<path fill="#09B1AB" d="M262.753,116.589c-0.118-0.234-0.208-0.486-0.267-0.746c-0.045-0.188-0.074-0.371-0.09-0.553
		c-0.018-0.217-0.018-0.429,0.008-0.638c0.104-1.195,0.802-2.258,1.834-2.882c0-0.002,0-0.002,0-0.002
		c0.312-0.191,0.66-0.341,1.027-0.439c0.193-0.054,0.386-0.106,0.583-0.158c0.06-0.015,0.118-0.034,0.178-0.05
		c3.389-0.917,6.77-1.872,10.146-2.852c0.468-0.135,0.936-0.273,1.403-0.41c2.212-0.692,4.416-1.403,6.621-2.132
		c0.949-0.319,1.899-0.677,2.843-1.024c1.254-0.464,2.575-1.062,3.93-1.062c2.045,0,3.708,1.828,3.663,3.833
		c-0.045,1.828-1.402,3.271-3.117,3.593c0.041-0.006,0.082-0.011,0.119-0.021c-0.078,0.019-0.148,0.039-0.223,0.056
		c-1.719,0.577-3.411,1.25-5.133,1.824c-2.246,0.748-4.491,1.497-6.759,2.164c-4.104,1.208-8.209,2.368-12.336,3.483
		c-0.06,0.017-0.126,0.032-0.186,0.05c-0.29,0.078-0.587,0.117-0.876,0.117C264.709,118.74,263.377,117.858,262.753,116.589z"/>
</g>
</svg>
