<?xml version="1.0" encoding="utf-8"?>
<!-- Generator: Adobe Illustrator 16.0.0, SVG Export Plug-In . SVG Version: 6.00 Build 0)  -->
<!DOCTYPE svg PUBLIC "-//W3C//DTD SVG 1.1//EN" "http://www.w3.org/Graphics/SVG/1.1/DTD/svg11.dtd">
<svg version="1.1" id="圖層_1" xmlns="http://www.w3.org/2000/svg" xmlns:xlink="http://www.w3.org/1999/xlink" x="0px" y="0px"
	 width="407.917px" height="61.055px" viewBox="0 0 407.917 61.055" enable-background="new 0 0 407.917 61.055"
	 xml:space="preserve">
<path fill="#2F2B2B" d="M106.929,59.913c-1.271,0.19-2.604,0.286-4,0.286c-2.986,0-5.065-0.524-6.239-1.572
	c-1.176-1.048-1.762-2.905-1.762-5.572V1.524c0.697-0.126,1.697-0.286,3-0.476c1.301-0.19,2.587-0.286,3.857-0.286
	c2.857,0,4.92,0.476,6.191,1.429c1.27,0.952,1.905,2.826,1.905,5.62v17.145l21.05-23.813c3.811,0,6.54,0.714,8.191,2.143
	c1.65,1.429,2.477,3.16,2.477,5.191c0,1.524-0.366,2.938-1.096,4.239c-0.73,1.302-1.921,2.779-3.571,4.429L123.408,30.67
	c4.381,4.763,8.334,9.018,11.858,12.764c3.524,3.748,6.43,6.763,8.716,9.049c-0.064,2.477-0.905,4.414-2.524,5.811
	c-1.619,1.396-3.51,2.096-5.668,2.096c-2.35,0-4.271-0.588-5.762-1.763c-1.493-1.174-2.938-2.556-4.334-4.144l-15.812-17.907v22.765
	C109.182,59.532,108.199,59.722,106.929,59.913z"/>
<path fill="#2F2B2B" d="M160.65,60.103c-2.986,0-5.065-0.509-6.239-1.524c-1.176-1.015-1.762-2.857-1.762-5.524V1.524
	c0.697-0.126,1.697-0.286,3-0.476c1.301-0.19,2.619-0.286,3.953-0.286c2.857,0,4.905,0.476,6.144,1.429
	c1.238,0.952,1.857,2.826,1.857,5.62v51.531c-0.7,0.19-1.684,0.364-2.953,0.523C163.379,60.023,162.045,60.103,160.65,60.103z"/>
<path fill="#2F2B2B" d="M233.801,30.385c0,5.081-0.762,9.525-2.286,13.335c-1.523,3.81-3.667,6.985-6.43,9.524
	c-2.762,2.541-6.096,4.446-10.001,5.716s-8.239,1.904-13.001,1.904c-1.081,0-2.303-0.032-3.668-0.095
	c-1.366-0.064-2.762-0.176-4.19-0.334c-1.429-0.159-2.874-0.381-4.334-0.666c-1.462-0.286-2.795-0.65-4.001-1.096
	c-3.302-1.205-4.952-3.365-4.952-6.477V6.858c0-1.27,0.333-2.253,1-2.953c0.666-0.698,1.634-1.27,2.904-1.714
	c2.604-0.825,5.366-1.365,8.287-1.619c2.92-0.253,5.587-0.381,8.001-0.381c4.889,0,9.335,0.604,13.335,1.81
	c4.001,1.207,7.43,3.064,10.287,5.572c2.857,2.509,5.079,5.653,6.668,9.43C233.006,20.781,233.801,25.241,233.801,30.385z
	 M218.371,30.575c0-6.158-1.509-10.747-4.524-13.764c-3.017-3.015-6.938-4.524-11.763-4.524c-1.144,0-2.224,0.033-3.239,0.095
	c-1.017,0.064-2.032,0.191-3.048,0.381v35.433c0.824,0.19,1.825,0.333,3.001,0.429c1.174,0.095,2.301,0.143,3.381,0.143
	c4.953,0,8.89-1.508,11.812-4.524C216.91,41.229,218.371,36.671,218.371,30.575z"/>
<path fill="#2F2B2B" d="M262.804,56.102c-3.208,3.112-7.764,4.668-13.669,4.668c-3.429,0-6.255-0.571-8.477-1.715
	c-2.224-1.143-3.334-3.144-3.334-6.001c0-1.205,0.174-2.253,0.523-3.143c0.349-0.889,0.746-1.587,1.19-2.096
	c1.144,0.254,2.206,0.461,3.191,0.619c0.983,0.159,2.015,0.238,3.096,0.238c4.889,0,7.334-2.539,7.334-7.621V1.524
	c0.698-0.126,1.698-0.286,3-0.476c1.301-0.19,2.587-0.286,3.858-0.286c2.857,0,4.92,0.476,6.191,1.429
	c1.269,0.952,1.904,2.826,1.904,5.62v35.052C267.614,48.578,266.009,52.992,262.804,56.102z"/>
<path fill="#2F2B2B" d="M352.259,30.48c0,4.953-0.938,9.334-2.812,13.145c-1.876,3.811-4.488,7.001-7.839,9.573
	c-3.351,2.571-7.3,4.524-11.846,5.857c-4.547,1.334-9.495,2-14.838,2c-5.347,0-10.291-0.666-14.839-2
	c-4.546-1.333-8.478-3.286-11.786-5.857c-3.311-2.572-5.904-5.763-7.778-9.573c-1.876-3.81-2.812-8.191-2.812-13.145
	s0.957-9.318,2.872-13.097c1.914-3.777,4.547-6.954,7.897-9.525c3.35-2.572,7.278-4.524,11.786-5.858c4.506-1.333,9.394-2,14.659-2
	c5.265,0,10.171,0.667,14.719,2c4.547,1.333,8.495,3.286,11.846,5.858c3.351,2.571,5.982,5.748,7.897,9.525
	C351.302,21.162,352.259,25.527,352.259,30.48z M339.907,30.48c0-6.096-1.616-10.683-4.847-13.764
	c-3.231-3.079-14.631-4.62-20.135-4.62c-5.426,0-17.168,1.541-20.438,4.62c-3.271,3.081-4.906,7.668-4.906,13.764
	c0,6.16,1.616,10.78,4.847,13.859c3.231,3.08,14.993,4.619,20.498,4.619c5.504,0,16.903-1.539,20.135-4.619
	C338.291,41.26,339.907,36.64,339.907,30.48z"/>
<path fill="#2F2B2B" d="M407.917,7.62c0,0.762-0.271,1.842-0.81,3.238c-0.54,1.397-1.476,3.334-2.81,5.811
	c-1.333,2.477-3.128,5.62-5.382,9.43c-2.255,3.81-5.096,8.477-8.524,14.001v19.241c-0.699,0.19-1.667,0.364-2.905,0.523
	c-1.238,0.158-2.524,0.238-3.857,0.238c-2.985,0-5.049-0.509-6.191-1.524c-1.143-1.015-1.715-2.793-1.715-5.334v-13.24
	c-1.651-2.412-3.429-5.127-5.334-8.144c-1.904-3.016-3.778-6.063-5.619-9.144c-1.843-3.08-3.558-6.111-5.144-9.097
	c-1.588-2.984-2.857-5.651-3.811-8.001c0.698-1.079,1.698-2.063,3.001-2.953c1.301-0.889,2.905-1.333,4.81-1.333
	c2.223,0,4.032,0.461,5.43,1.381c1.396,0.921,2.729,2.652,4,5.191c0.127,0.19,0.443,0.778,0.953,1.762
	c0.507,0.985,1.095,2.128,1.762,3.429c0.667,1.302,1.381,2.715,2.144,4.239c0.762,1.524,1.476,2.938,2.143,4.239
	c0.667,1.302,1.253,2.429,1.763,3.381c0.507,0.953,0.824,1.524,0.952,1.714h0.477c1.015-2.095,1.952-4.096,2.81-6
	c0.857-1.905,1.698-3.794,2.524-5.667c0.824-1.872,1.667-3.777,2.523-5.715c0.857-1.937,1.763-4.048,2.715-6.334
	c1.016-0.507,2.144-0.905,3.382-1.19s2.396-0.429,3.477-0.429c2.031,0,3.746,0.54,5.144,1.619
	C407.217,4.033,407.917,5.588,407.917,7.62z"/>
<g>
	<path fill="#FA9DB7" d="M25.718,60.146C40.346,48.58,76.37,35.857,85.259,32.82V14.121c-6.701-2.822-19.686-5.72-40.868-0.692
		C10.835,21.396,0,49.689,0,49.689c3.142-1.859,6.377-3.392,9.462-4.643c8.965-3.647,16.609-4.925,16.609-4.925l-0.171,9.74
		L25.718,60.146z"/>
	<path fill="#45B3DF" d="M85.259,14.121c-6.701-2.822-19.686-5.72-40.868-0.692C10.835,21.396,0,49.689,0,49.689
		c3.142-1.859,6.377-3.392,9.462-4.643c7.007-7.499,32.549-30.663,75.797-24.39V14.121z"/>
	<path fill="#FDC563" d="M85.259,28.492c-29.635,0.204-51.91,15.506-59.358,21.369l-0.183,10.285
		C40.346,48.58,76.37,35.857,85.259,32.82V28.492z"/>
</g>
<g>
	<path fill="#2F2B2B" d="M323.478,31.079c-1.161-0.547-2.531-0.068-3.422,1.226c-0.258,0.375-0.511,0.777-0.671,1.201
		c-1.36,3.557-6.72,4.24-9.302,0.907c-0.53-0.683-0.958-1.439-1.473-2.13c-0.989-1.322-2.273-1.712-3.442-1.082
		c-1.083,0.582-1.455,1.854-0.979,3.34c1.565,4.897,7.322,8.3,12.604,7.233c0.56-0.188,1.398-0.411,2.193-0.749
		c3.024-1.271,4.874-3.588,5.74-6.699C325.149,32.815,324.623,31.623,323.478,31.079z"/>
	<path fill="#2F2B2B" d="M306.036,23.437c-0.381-1.536-1.775-2.44-3.234-2.102c-1.622,0.381-2.458,2.014-2.027,3.961
		c0.347,1.548,1.575,2.451,2.978,2.183C305.378,27.167,306.48,25.217,306.036,23.437z"/>
	<path fill="#2F2B2B" d="M327.192,22.486c-1.625,0.381-2.458,2.013-2.027,3.965c0.341,1.545,1.575,2.445,2.978,2.18
		c1.625-0.314,2.725-2.262,2.284-4.044C330.044,23.053,328.651,22.146,327.192,22.486z"/>
</g>
</svg>
