<?xml version="1.0" encoding="utf-8"?>
<!-- Generator: Adobe Illustrator 16.0.0, SVG Export Plug-In . SVG Version: 6.00 Build 0)  -->
<!DOCTYPE svg PUBLIC "-//W3C//DTD SVG 1.1//EN" "http://www.w3.org/Graphics/SVG/1.1/DTD/svg11.dtd">
<svg version="1.1" id="圖層_1" xmlns="http://www.w3.org/2000/svg" xmlns:xlink="http://www.w3.org/1999/xlink" x="0px" y="0px"
	 width="142.649px" height="273.385px" viewBox="0 0 142.649 273.385" enable-background="new 0 0 142.649 273.385"
	 xml:space="preserve">
<g>
	<path fill="#FA9DB7" d="M55.457,107.917c-1.511-0.023-3.03,0.011-4.536-0.086c-0.959-0.061-1.919-0.123-2.878-0.185
		c-0.669-0.042-1.345-0.063-2.009-0.142c-0.879-0.102-1.758-0.2-2.636-0.304c-1.053-0.125-2.104-0.262-3.154-0.436
		c-0.781-0.13-1.563-0.275-2.34-0.438c-0.286-0.061-0.572-0.124-0.86-0.189c-2.566-0.579-5.094-1.352-7.525-2.359
		c-0.463-0.191-0.922-0.394-1.378-0.601c-1.762-0.811-3.419-1.824-5.038-2.886c-1.321-0.865-2.615-1.803-3.849-2.79
		c-1.384-1.106-2.797-2.186-4.146-3.336c-1.508-1.285-2.966-2.627-4.343-4.056c-1.375-1.432-2.55-3.004-3.64-4.661
		C4.919,82.095,3,78.527,1.751,74.701C0.497,70.855,0.011,66.811,0,62.777c-0.008-3.991,0.752-7.935,1.911-11.74
		c0.729-2.403,1.721-4.689,2.716-6.99c0.625-1.451,1.379-2.835,2.11-4.238c0.71-1.364,1.523-2.657,2.319-3.97
		c0.814-1.341,1.761-2.606,2.658-3.891c0.323-0.466,0.701-0.897,1.055-1.337c0.559-0.695,1.094-1.413,1.695-2.069
		c1.077-1.172,2.124-2.38,3.247-3.508c1.414-1.427,2.908-2.763,4.487-4.01c1.718-1.361,3.562-2.542,5.421-3.695
		c0.825-0.509,1.66-1.016,2.505-1.5c0.355-0.204,0.713-0.404,1.07-0.597c1.269-0.687,2.52-1.413,3.813-2.05
		c0.071-0.037,0.145-0.073,0.219-0.107c1.453-0.704,2.893-1.432,4.386-2.044c0.787-0.323,1.575-0.646,2.363-0.97
		c0.739-0.301,1.518-0.527,2.271-0.79c2.938-1.021,5.941-1.799,8.95-2.576c1.322-0.341,2.673-0.646,4.016-0.897
		c0.719-0.135,1.438-0.27,2.154-0.398c0.917-0.165,1.839-0.322,2.763-0.458c0.913-0.135,1.827-0.256,2.743-0.367
		c2.293-0.278,4.595-0.479,6.902-0.618c0.597-0.036,1.193-0.063,1.79-0.083c0.447-0.663,1.168-1.136,2.005-1.219
		c3.06-0.299,6.107-0.361,9.168-0.145c1.44,0.099,2.875,0.338,4.291,0.609c1.574,0.301,3.132,0.639,4.672,1.07
		c1.249,0.35,2.471,0.808,3.676,1.289c0.115,0.047,0.231,0.092,0.347,0.138c1.373,0.553,2.716,1.179,4.022,1.879
		c0.295,0.16,0.588,0.318,0.883,0.48c2.342,1.29,4.631,2.699,6.688,4.412c2.419,2.01,4.645,4.194,6.667,6.595
		c1.015,1.202,1.939,2.453,2.814,3.757c0.055,0.081,0.104,0.16,0.153,0.239c0.82,1.244,1.547,2.542,2.257,3.846
		c0.176,0.329,0.352,0.661,0.522,0.993c1.221,2.387,2.229,4.887,3.145,7.404c0.515,1.418,0.927,2.875,1.337,4.325
		c0.389,1.372,0.734,2.754,1.018,4.153c0.339,1.684,0.652,3.37,0.832,5.082c0.162,1.55,0.225,3.147,0.096,4.704
		c-0.065,0.824-0.107,1.655-0.221,2.473c-0.214,1.528-0.423,3.068-0.797,4.567c-0.182,0.733-0.319,1.494-0.551,2.212
		c-0.247,0.777-0.5,1.554-0.748,2.332c-0.256,0.799-0.617,1.574-0.925,2.354c-0.265,0.659-0.585,1.293-0.892,1.934
		c-0.285,0.594-0.566,1.185-0.886,1.759c-0.412,0.73-0.781,1.502-1.237,2.201c-0.468,0.717-0.941,1.436-1.409,2.151
		c-0.404,0.615-0.854,1.193-1.296,1.776c-0.388,0.508-0.763,1.036-1.178,1.52c-0.635,0.736-1.268,1.474-1.903,2.209
		c-0.377,0.436-0.779,0.849-1.175,1.266c-0.072,0.074-0.144,0.148-0.212,0.221c-0.498,0.529-0.979,1.08-1.5,1.583
		c-0.902,0.871-1.782,1.774-2.713,2.618c-0.153,0.141-0.315,0.282-0.478,0.421c-0.515,0.443-1.029,0.898-1.542,1.348
		c-0.654,0.571-1.314,1.131-2.008,1.65c-1.106,0.829-2.19,1.707-3.335,2.484c-0.085,0.058-0.17,0.117-0.258,0.173
		c-1.32,0.875-2.625,1.792-3.99,2.604c-1.29,0.771-2.566,1.583-3.885,2.304c-1.334,0.727-2.646,1.5-4.011,2.164
		c-1.4,0.684-2.784,1.435-4.231,2.016c-1.398,0.56-2.787,1.168-4.227,1.623c-1.469,0.464-2.933,0.983-4.43,1.355
		c-1.463,0.362-2.922,0.779-4.402,1.063c-1.529,0.296-3.055,0.625-4.598,0.857c-3.033,0.458-6.07,0.919-9.141,1.043
		c-1.362,0.053-2.73,0.148-4.094,0.148C55.745,107.919,55.601,107.919,55.457,107.917z M73.354,9.427
		c-1.984,0.117-3.97,0.223-5.941,0.451c-0.658,0.076-1.313,0.154-1.97,0.239c-1.379,0.171-2.754,0.358-4.132,0.56
		c-0.457,0.084-0.915,0.17-1.374,0.259c-1.826,0.342-3.655,0.703-5.456,1.167c-1.236,0.319-2.47,0.638-3.707,0.958
		c-1.132,0.292-2.25,0.659-3.37,0.997c-1.145,0.395-2.288,0.796-3.435,1.194c-0.562,0.195-1.111,0.455-1.662,0.681
		c-0.517,0.21-1.036,0.424-1.555,0.638c-0.964,0.466-1.93,0.931-2.895,1.4c-0.117,0.057-0.232,0.113-0.347,0.172
		c-0.713,0.359-1.411,0.752-2.113,1.135c-0.924,0.5-1.841,1.011-2.752,1.537c-1.037,0.597-2.065,1.209-3.084,1.841
		c-1.661,1.054-3.263,2.184-4.794,3.419c-1.474,1.244-2.875,2.57-4.176,3.99c-0.68,0.74-1.357,1.481-2.034,2.219
		c-0.792,0.983-1.583,1.967-2.375,2.952c-0.372,0.46-0.684,0.982-1.022,1.468c-0.326,0.466-0.65,0.934-0.977,1.4
		c-0.716,1.185-1.438,2.367-2.154,3.553c-0.376,0.621-0.677,1.303-1.011,1.945c-0.289,0.553-0.575,1.104-0.861,1.656
		c-0.802,1.858-1.629,3.699-2.33,5.594c-0.602,1.713-1.106,3.452-1.506,5.225c-0.278,1.329-0.505,2.659-0.646,4.011
		c-0.117,1.513-0.138,3.026-0.088,4.542c0.08,1.431,0.229,2.846,0.448,4.26c0.217,1.202,0.491,2.387,0.83,3.563
		c0.404,1.281,0.874,2.531,1.418,3.76c0.853,1.795,1.816,3.537,2.862,5.224c0.774,1.216,1.574,2.417,2.479,3.541
		c0.999,1.16,2.07,2.245,3.189,3.289c1.338,1.212,2.727,2.347,4.138,3.474c1.451,1.161,2.904,2.303,4.421,3.377
		c1.359,0.931,2.756,1.802,4.211,2.579c1.259,0.625,2.548,1.165,3.866,1.648c1.753,0.605,3.538,1.081,5.347,1.487
		c1.624,0.34,3.254,0.614,4.899,0.805c1.04,0.123,2.075,0.243,3.114,0.364c1.232,0.079,2.462,0.157,3.693,0.237
		c1.044,0.068,2.088,0.074,3.135,0.089c1.011,0.018,2.023,0.063,3.035,0.022c1.253-0.051,2.508-0.103,3.763-0.153
		c1.44-0.144,2.884-0.284,4.323-0.428c0.712-0.069,1.422-0.214,2.129-0.32c0.641-0.096,1.276-0.194,1.918-0.289
		c0.66-0.128,1.322-0.254,1.982-0.382c0.711-0.136,1.44-0.238,2.145-0.413c1.496-0.371,2.988-0.741,4.484-1.111
		C78.739,98.837,80.06,98.42,81.38,98c0.622-0.195,1.228-0.488,1.832-0.731c0.646-0.257,1.293-0.516,1.938-0.775
		c1.018-0.497,2.036-0.995,3.059-1.494c0.859-0.418,1.692-0.89,2.532-1.349c1.909-1.041,3.769-2.148,5.635-3.26
		c1.218-0.803,2.438-1.611,3.658-2.415c0.578-0.383,1.123-0.841,1.679-1.257c0.611-0.458,1.222-0.914,1.829-1.369
		c0.003-0.002,0.003-0.005,0.003-0.005c0.33-0.282,0.661-0.564,0.991-0.846c1.051-0.898,2.091-1.803,3.086-2.764
		c0.664-0.641,1.354-1.261,1.987-1.931c0.731-0.773,1.458-1.549,2.189-2.321c0.672-0.783,1.343-1.559,2.012-2.339
		c0.646-0.748,1.207-1.573,1.807-2.363c0.502-0.773,1.008-1.543,1.514-2.315c0.226-0.342,0.407-0.718,0.605-1.075
		c0.261-0.469,0.523-0.935,0.787-1.404c0.368-0.771,0.736-1.543,1.105-2.316c0.358-0.737,0.625-1.53,0.922-2.299
		c0.234-0.721,0.465-1.443,0.696-2.164c0.226-0.707,0.368-1.45,0.545-2.173c0.13-0.685,0.258-1.372,0.388-2.055
		c0.135-0.714,0.207-1.443,0.306-2.164c0.104-1.297,0.187-2.579,0.159-3.882c-0.077-1.442-0.275-2.851-0.487-4.277
		c-0.244-1.22-0.492-2.438-0.784-3.648c-0.286-1.164-0.605-2.31-0.93-3.462c-0.451-1.399-0.921-2.782-1.425-4.161
		c-0.462-1.279-1.046-2.519-1.612-3.754c-0.212-0.424-0.421-0.849-0.633-1.27c-0.221-0.436-0.446-0.871-0.677-1.298
		c-0.495-0.908-1.013-1.792-1.54-2.675c-0.19-0.282-0.375-0.563-0.567-0.841c-0.16-0.241-0.322-0.485-0.484-0.725
		c-0.38-0.565-0.822-1.095-1.235-1.637c-0.625-0.739-1.246-1.472-1.904-2.184c-0.724-0.783-1.472-1.526-2.23-2.273
		c-0.622-0.567-1.246-1.133-1.894-1.668c-0.709-0.587-1.43-1.138-2.165-1.685c-0.85-0.57-1.697-1.119-2.566-1.652
		c-0.848-0.523-1.739-0.984-2.619-1.453c-0.025-0.015-0.056-0.028-0.08-0.042c-0.801-0.402-1.606-0.784-2.424-1.153
		c-0.864-0.394-1.772-0.713-2.669-1.038c-0.039-0.011-0.071-0.024-0.11-0.036c-0.616-0.204-1.235-0.41-1.865-0.583
		c-0.713-0.2-1.426-0.368-2.144-0.53c-1.708-0.329-3.414-0.63-5.147-0.83c-0.253-0.018-0.506-0.033-0.76-0.045
		c-0.488,0.887-1.44,1.5-2.506,1.468c-1.673-0.054-3.34-0.085-5.008-0.085C75.239,9.394,74.298,9.404,73.354,9.427z"/>
	<path fill="#FA9DB7" d="M50.472,50.82c-0.138-3.075,0.211-6.118,0.592-9.165c0.366-2.92,0.757-5.834,1.073-8.76
		c0.034-0.602,0.057-1.201,0.057-1.804c0-1.516,1.356-2.749,2.843-2.714c1.54,0.034,2.715,1.329,2.715,2.842
		c0,2.55-0.395,5.097-0.724,7.621c-0.339,2.59-0.681,5.178-0.929,7.779c-0.074,1.142-0.127,2.278-0.109,3.422
		c0.003,0.065,0.005,0.131,0.009,0.195c0.033,0.74-0.116,1.431-0.591,2.021c-0.458,0.58-1.146,0.956-1.881,1.033
		c-0.087,0.011-0.177,0.017-0.263,0.017C51.906,53.309,50.534,52.244,50.472,50.82z"/>
	<path fill="#FA9DB7" d="M68.438,55.108c-1.455-0.22-2.612-1.678-2.327-3.165c1.225-6.433,2.81-12.79,4.255-19.171
		c0.367-1.789,0.736-3.572,1.005-5.382c0.05-1.476,1.38-2.663,2.84-2.631c1.541,0.037,2.713,1.329,2.713,2.842
		c0,0.802-0.215,1.641-0.353,2.426c-0.141,0.798-0.303,1.587-0.468,2.377c-0.346,1.711-0.74,3.413-1.125,5.114
		c-0.734,3.248-1.513,6.485-2.229,9.738c-0.397,1.836-0.792,3.676-1.145,5.521c-0.258,1.354-1.387,2.362-2.745,2.362
		C68.722,55.14,68.581,55.13,68.438,55.108z"/>
	<path fill="#FA9DB7" d="M60.097,73.743c-3.099-0.304-6.178-0.934-9.118-1.97c-1.31-0.462-2.565-1.018-3.786-1.682
		c-1.152-0.627-2.174-1.437-3.135-2.322c-0.894-0.825-1.637-1.817-2.254-2.858c-0.413-0.702-0.805-1.535-0.894-2.347
		c-0.165-1.505,0.973-2.899,2.472-3.056c1.363-0.143,2.621,0.761,2.973,2.046c0.027,0.067,0.054,0.135,0.083,0.204
		c0.102,0.209,0.208,0.415,0.323,0.619c0.181,0.26,0.364,0.515,0.563,0.764c0.27,0.304,0.552,0.592,0.845,0.871
		c0.274,0.235,0.553,0.457,0.845,0.668c0.443,0.293,0.892,0.565,1.359,0.821c0.756,0.372,1.53,0.695,2.318,0.992
		c1.257,0.436,2.535,0.784,3.831,1.083c1.435,0.295,2.875,0.52,4.33,0.665c1.168,0.093,2.335,0.139,3.507,0.108
		c0.694-0.042,1.378-0.11,2.064-0.212c0.711-0.138,1.413-0.3,2.112-0.495c0.691-0.222,1.367-0.472,2.038-0.754
		c0.59-0.282,1.16-0.586,1.721-0.92c0.513-0.338,1.01-0.695,1.492-1.079c0.648-0.563,1.254-1.164,1.848-1.787
		c0.567-0.621,1.126-1.242,1.635-1.916c0.35-0.54,0.666-1.09,0.968-1.652c0.378-0.787,0.722-1.574,1.035-2.388
		c0.02-0.059,0.039-0.117,0.061-0.173c0.259-0.717,0.672-1.311,1.359-1.681c0.633-0.341,1.39-0.421,2.08-0.223
		c1.387,0.396,2.415,2.011,1.903,3.438c-0.946,2.659-2.146,5.18-4.017,7.323c-1.271,1.45-2.625,2.82-4.16,3.991
		c-2.347,1.792-5.165,2.919-8.026,3.575c-1.647,0.375-3.328,0.523-5.011,0.523C62.339,73.916,61.212,73.85,60.097,73.743z"/>
	<path fill="#FA9DB7" d="M21.375,135.578c-1.468,0-2.959-0.073-4.167-1.037c-0.481-0.384-0.845-0.838-1.116-1.34
		c-0.598-1.109-0.737-2.446-0.666-3.734c0.054-0.989,0.151-1.975,0.301-2.956c0.176-1.151,0.465-2.31,0.861-3.42
		c0.217-0.607,0.469-1.202,0.754-1.773c0.338-0.68,0.842-1.22,1.565-1.493c0.05-0.021,0.099-0.038,0.15-0.051
		c0.484-0.154,1.007-0.169,1.498-0.049c0.309-1.051,1.233-1.866,2.376-2.005c4.861-0.583,9.739-1.102,14.617-1.559
		c0.952-0.088,1.904-0.174,2.856-0.26c0.661-0.06,1.324-0.117,1.986-0.176c2.575-0.229,5.152-0.458,7.726-0.696
		c3.281-0.304,6.552-0.659,9.827-1.021c5.712-0.63,11.394-1.494,17.1-2.173c6.119-0.727,12.243-1.386,18.379-1.998
		c3.555-0.354,7.111-0.726,10.669-1.087c1.833-0.187,3.665-0.369,5.497-0.543c0.474-0.046,0.949-0.093,1.425-0.136
		c0.884-0.083,1.768-0.128,2.652-0.026c1.603,0.185,2.931,1.618,3.096,3.198c0.047,0.425,0.02,0.848-0.061,1.267
		c-0.206,1.12-0.772,2.2-1.313,3.154c-0.724,1.27-1.65,2.418-2.649,3.486c-0.311,0.336-0.636,0.663-0.958,0.983
		c-2.264,2.238-4.979,3.897-7.733,5.453c-1.255,0.709-2.564,1.34-3.896,1.895c-0.639,0.27-1.271,0.575-1.927,0.8
		c-0.869,0.297-1.738,0.594-2.61,0.891c-0.633,0.218-1.29,0.375-1.939,0.554c-0.655,0.181-1.304,0.38-1.971,0.534
		c-3.021,0.71-6.058,1.368-9.128,1.827c-2.978,0.446-5.96,0.889-8.958,1.173c-3.055,0.291-6.109,0.527-9.17,0.745
		c-2.874,0.202-5.749,0.435-8.625,0.607c-3.035,0.185-6.07,0.331-9.108,0.449c-5.977,0.236-11.953,0.378-17.933,0.446
		c-2.002,0.022-4.004,0.039-6.005,0.052c-0.965,0.007-1.929,0.011-2.892,0.015c-0.096,0-0.194,0-0.291,0.001
		C21.522,135.578,21.447,135.578,21.375,135.578z M22.443,123.528c-0.207,0.412-0.388,0.831-0.554,1.262
		c-0.212,0.616-0.385,1.243-0.537,1.876c-0.139,0.7-0.239,1.4-0.315,2.11c-0.033,0.417-0.061,0.836-0.075,1.254
		c0.966,0.025,1.938-0.017,2.899-0.021c1.122-0.004,2.245-0.014,3.368-0.022c2.387-0.018,4.774-0.048,7.163-0.08
		c4.746-0.063,9.488-0.207,14.229-0.392c2.915-0.121,5.827-0.26,8.739-0.436c2.905-0.176,5.808-0.413,8.712-0.617
		c3-0.213,5.996-0.447,8.992-0.731c2.978-0.283,5.94-0.722,8.896-1.164c1.906-0.325,3.824-0.625,5.706-1.068
		c1.001-0.234,2.02-0.433,3.01-0.707c1.001-0.276,2.003-0.554,3.007-0.83c0.884-0.301,1.767-0.605,2.649-0.905
		c0.804-0.274,1.58-0.656,2.36-0.988c0.71-0.338,1.442-0.653,2.125-1.04c1.078-0.615,2.162-1.22,3.225-1.874
		c0.915-0.597,1.802-1.231,2.657-1.916c0.737-0.634,1.438-1.303,2.107-2.008c0.43-0.483,0.831-0.979,1.205-1.499
		c-1.813,0.172-3.626,0.383-5.437,0.567c-2.911,0.296-5.827,0.59-8.74,0.881c-6.364,0.635-12.726,1.289-19.078,2.044
		c-2.902,0.346-5.794,0.736-8.688,1.11c-2.772,0.358-5.541,0.757-8.319,1.063c-3.066,0.338-6.132,0.7-9.203,0.984
		c-3.391,0.313-6.782,0.622-10.175,0.921c-6.293,0.556-12.587,1.186-18.858,1.941c-0.319,0.04-0.633,0.018-0.933-0.056
		C22.544,123.304,22.501,123.417,22.443,123.528z"/>
	<path fill="#FA9DB7" d="M69.444,235.087c-2.905-0.028-5.814-0.265-8.71-0.501c-2.703-0.22-5.397-0.495-8.09-0.809
		c-0.483-0.058-0.962-0.116-1.445-0.177c-1.4-0.17-2.793-0.379-4.187-0.61c-1.616-0.262-3.231-0.548-4.849-0.82
		c-2.926-0.5-5.851-0.984-8.787-1.446c-1.949-0.309-3.955-0.559-5.826-1.197c-1.419-0.481-2.718-1.367-3.268-2.82
		c-0.314-0.828-0.353-1.772-0.449-2.646c-0.298-2.707-0.638-5.409-0.959-8.116c-0.712-5.943-1.103-11.921-1.593-17.884
		c-0.476-5.777-1.008-11.549-1.516-17.322c-0.029-0.33-0.058-0.66-0.087-0.993c-0.245-2.799-0.46-5.599-0.671-8.4
		c-0.227-3.016-0.447-6.031-0.688-9.041c-0.504-6.333-1.089-12.65-1.68-18.97c-0.139-1.475-0.261-2.946-0.39-4.421
		c-0.075-0.864-0.123-1.73-0.183-2.594c-0.022-0.325-0.034-0.648-0.048-0.973c-0.021-0.491-0.086-1.013-0.042-1.501
		c0.019-0.222,0.057-0.437,0.114-0.645c0.235-0.851,0.795-1.556,1.674-1.89c0.409-0.157,0.864-0.207,1.311-0.157
		c0.157,0.017,0.304,0.047,0.447,0.087c0.6,0.161,1.147,0.513,1.481,1.04c-0.026-0.027-0.052-0.061-0.077-0.088
		c-0.05-0.066-0.103-0.128-0.159-0.191c-0.003-0.002-0.008-0.006-0.016-0.008c0.061,0.062,0.118,0.129,0.175,0.199
		c0.397,0.501,0.63,1.135,0.615,1.795c0,0.093-0.008,0.186-0.018,0.278c0.019,0.438,0.043,0.875,0.069,1.313
		c0.304,5.383,0.942,10.748,1.412,16.118c0.53,6.064,0.997,12.133,1.463,18.203c0.214,2.823,0.446,5.646,0.686,8.471
		c0.237,2.801,0.481,5.599,0.729,8.4c0.048,0.544,0.095,1.089,0.143,1.634c0.54,6.111,1.034,12.222,1.537,18.334
		c0.262,3.181,0.565,6.361,0.947,9.536c0.178,1.497,0.369,2.999,0.547,4.498c0.139,1.175,0.239,2.358,0.391,3.53
		c0.3,0.094,0.604,0.182,0.916,0.256c2.366,0.493,4.78,0.812,7.164,1.202c2.483,0.404,4.963,0.825,7.44,1.249
		c2.32,0.396,4.643,0.749,6.97,1.084c2.34,0.342,4.698,0.551,7.051,0.787c2.67,0.22,5.344,0.471,8.02,0.563
		c1.432,0.053,2.855,0.092,4.285,0.107c1.333,0.012,2.663-0.021,4.001-0.05c1.893-0.109,3.774-0.241,5.661-0.412
		c1.777-0.154,3.544-0.44,5.311-0.704c2.844-0.501,5.676-1.057,8.477-1.767c0.597-0.148,1.197-0.303,1.791-0.462
		c1.152-0.298,2.3-0.601,3.447-0.914c1.188-0.328,2.371-0.666,3.552-1.018c2.009-0.63,3.973-1.326,5.901-2.157
		c3.109-1.442,6.139-3.054,9.061-4.837c0.318-0.204,0.621-0.41,0.921-0.636c0.02-0.019,0.03-0.036,0.048-0.055
		c0.043-0.052,0.082-0.107,0.12-0.156c0.02-0.028,0.033-0.055,0.05-0.078c0.008-0.022,0.017-0.043,0.027-0.068
		c0.094-0.3,0.168-0.603,0.229-0.908c-0.025,0.118-0.053,0.234-0.08,0.349c0.089-0.5,0.159-0.999,0.209-1.505
		c0.24-3.051,0.18-6.108,0.119-9.165c-0.066-2.977-0.13-5.954-0.18-8.937c-0.047-2.944-0.038-5.893-0.047-8.842
		c-0.008-2.903-0.096-5.805-0.203-8.705c0-0.003,0-0.006,0-0.011c-0.135-3.115-0.294-6.229-0.5-9.344
		c-0.015-0.236-0.031-0.476-0.05-0.715c-0.196-2.754-0.465-5.502-0.707-8.254c0-0.011-0.003-0.024-0.003-0.035
		c-0.515-5.951-1.026-11.908-1.565-17.859c-0.41-4.452-0.837-8.902-1.233-13.354c-0.299-3.263-0.511-6.548-0.913-9.804
		c-0.104-0.892-0.228-1.782-0.368-2.667c-0.074-0.424-0.154-0.842-0.231-1.263c-0.286-1.486,0.539-2.985,2.058-3.346
		c0.875-0.209,1.832,0.057,2.504,0.636c0.424,0.363,0.732,0.852,0.845,1.424c1.023,5.339,1.273,10.793,1.796,16.196
		c0.578,6.017,1.117,12.035,1.638,18.055c0.121,1.392,0.245,2.779,0.369,4.166c0.277,3.106,0.558,6.207,0.825,9.31
		c0.118,1.354,0.229,2.702,0.338,4.05c0.495,6.215,0.775,12.441,0.93,18.67c0.072,2.991,0.039,5.984,0.05,8.975
		c0.017,2.938,0.065,5.882,0.138,8.826c0.072,3.208,0.151,6.411,0.088,9.622c-0.011,0.704-0.065,1.409-0.109,2.11
		c-0.097,1.635-0.271,3.371-0.999,4.859c-0.536,1.101-1.4,2.009-2.413,2.677c-0.597,0.393-1.211,0.773-1.826,1.136
		c-2.322,1.364-4.688,2.663-7.12,3.827c-2.708,1.296-5.495,2.336-8.37,3.205c-0.396,0.118-0.793,0.236-1.191,0.353
		c-1.901,0.558-3.811,1.084-5.726,1.573c-3.45,0.886-6.928,1.646-10.433,2.251c-2.899,0.5-5.852,0.899-8.793,1.067
		c-1.579,0.094-3.153,0.187-4.738,0.22c-0.713,0.017-1.421,0.022-2.133,0.022C71.059,235.104,70.251,235.095,69.444,235.087z"/>
	<path fill="#FA9DB7" d="M58.795,182.428c-1.75,0-3.5-0.011-5.247-0.028c-2.868-0.027-5.736-0.165-8.602-0.267
		c-1.428-0.05-2.855-0.099-4.285-0.135c-0.657-0.017-1.315-0.033-1.973-0.044c-0.277-0.005-0.556-0.011-0.837-0.022
		c-0.778-0.027-1.499-0.181-2.209-0.5c-2.385-1.084-3.054-3.989-3.421-6.336c-0.229-1.447-0.35-2.903-0.446-4.367
		c-0.237-3.725-0.282-7.464-0.342-11.198c-0.026-1.656-0.057-3.313-0.065-4.971c-0.004-0.812,0.032-1.609,0.106-2.416
		c0.071-0.762,0.323-1.456,0.676-2.127c0.375-0.715,1.073-1.15,1.836-1.291c0.265-1.276,1.442-2.283,2.787-2.231
		c0.811,0.033,1.618,0.071,2.43,0.091c0.966,0.022,1.93-0.008,2.893-0.031c6.112-0.297,12.209-0.75,18.296-1.339
		c2.727-0.261,5.445-0.605,8.168-0.895c3.108-0.327,6.218-0.638,9.329-0.913c2.864-0.253,5.731-0.479,8.592-0.771
		c0.688-0.069,1.37-0.138,2.053-0.214c1.002-0.116,2.024-0.297,3.015-0.014c2.973,0.85,3.61,4.3,3.925,6.947
		c0.715,6.119,0.828,12.298,0.924,18.453c0.024,1.425,0.039,2.848,0.055,4.27c0.006,0.589,0.042,1.197,0.028,1.796v0.006
		c-0.012,0.327-0.034,0.657-0.089,0.977c-0.12,0.734-0.285,1.549-0.707,2.185c-0.218,0.322-0.409,0.644-0.69,0.916
		c-0.016,0.022-0.038,0.042-0.061,0.061c-0.341,0.328-0.699,0.608-1.103,0.864c-0.009,0.005-0.015,0.011-0.025,0.016
		c-1.378,0.875-2.96,1.315-4.531,1.7c-1.301,0.314-2.616,0.523-3.943,0.705c-1.603,0.223-3.21,0.379-4.825,0.534
		c-1.057,0.104-2.118,0.181-3.181,0.244c-1.771,0.105-3.552,0.163-5.32,0.201c-3.248,0.08-6.493,0.126-9.74,0.14
		c-0.137,0-0.276,0.003-0.412,0c-0.7,0.003-1.396,0.006-2.095,0.006C59.435,182.431,59.115,182.431,58.795,182.428z M37.013,152.681
		c0,0.005,0,0.008,0,0.011c0,0,0,0.003-0.002,0.005c-0.019,0.105-0.031,0.209-0.042,0.316c-0.067,1.029-0.041,2.061-0.03,3.09
		c0.016,1.244,0.033,2.481,0.053,3.723c0.045,2.759,0.104,5.516,0.206,8.275c0.108,2.218,0.256,4.421,0.586,6.617
		c0.088,0.41,0.178,0.815,0.285,1.216c0.05,0.154,0.103,0.303,0.159,0.451c2.579,0.088,5.16,0.126,7.738,0.223
		c2.915,0.113,5.828,0.22,8.743,0.245c6.039,0.055,12.073,0.003,18.112-0.14c2.201-0.097,4.398-0.212,6.6-0.36
		c2.151-0.149,4.287-0.43,6.425-0.727c1.048-0.187,2.085-0.404,3.111-0.682c0.143-0.039,0.286-0.083,0.429-0.121
		c0.361-0.121,0.71-0.253,1.063-0.402c0.14-0.066,0.275-0.143,0.412-0.22c0,0,0.006-0.006,0.009-0.006
		c0.006-0.033,0.009-0.066,0.017-0.099c0.079-1.365,0.008-2.746-0.014-4.11c0-0.214-0.003-0.429-0.009-0.649
		c-0.014-1.029-0.027-2.061-0.046-3.092c-0.036-2.454-0.11-4.906-0.195-7.357c-0.16-3.274-0.292-6.584-0.793-9.828
		c-0.074-0.393-0.159-0.787-0.259-1.172c-1.098,0.115-2.198,0.25-3.298,0.357c-1.447,0.141-2.897,0.27-4.348,0.396
		c-3.057,0.264-6.107,0.528-9.162,0.825c-5.813,0.567-11.604,1.337-17.426,1.796c-3.336,0.262-6.676,0.482-10.017,0.691
		c-1.514,0.094-3.03,0.154-4.547,0.182c-1.185,0.025-2.361-0.017-3.545-0.061C37.179,152.279,37.105,152.483,37.013,152.681z"/>
	<path fill="#FA9DB7" d="M48.912,198.831c-5.093-2.125-10.354-3.957-15.168-6.694c-0.627-0.355-1.278-0.688-1.886-1.076
		c-0.707-0.448-1.415-0.896-2.123-1.348c-0.742-0.468-1.435-1.04-2.145-1.558c-0.627-0.462-1.213-0.979-1.813-1.475
		c-2.299-1.893-4.303-4.11-6.331-6.284c-0.977-1.045-1.923-2.124-2.837-3.221c-1.604-1.929-3.202-3.844-4.606-5.929
		c-2.08-3.087-3.763-6.499-4.732-10.103c-0.382-1.42-0.805-2.834-1.107-4.275c-0.525-2.521-1.04-5.024-1.334-7.583
		c-0.462-4.022-0.387-8.144,0.477-12.108c0.447-2.037,0.875-4.064,1.48-6.065c0.555-1.833,1.228-3.644,2.004-5.398
		c0.879-1.986,1.986-3.886,3.169-5.705c0.974-1.498,2.048-2.97,3.248-4.299c0.727-0.811,1.456-1.616,2.186-2.427
		c2.284-2.529,4.934-4.761,7.752-6.676c0.777-0.527,1.554-1.057,2.332-1.584c0.835-0.565,1.734-1.055,2.597-1.575
		c0.676-0.406,1.369-0.78,2.057-1.164c1.019-0.567,2.16-1.16,3.354-1.16c1.513,0,2.748,1.355,2.714,2.842
		c-0.032,1.355-1.039,2.427-2.312,2.663c-0.064,0.026-0.128,0.052-0.189,0.079c-1.757,0.831-3.413,1.885-5.072,2.892
		c-0.74,0.503-1.484,1.007-2.224,1.513c-1.162,0.788-2.273,1.633-3.357,2.523c-1.144,0.981-2.229,2.015-3.283,3.091
		c-0.548,0.605-1.095,1.21-1.641,1.819c-1.055,1.17-2.039,2.395-2.958,3.677c-0.985,1.449-1.879,2.951-2.696,4.502
		c-0.629,1.269-1.174,2.568-1.664,3.897c0-0.001,0.001-0.003,0.001-0.004c-0.572,1.621-1.099,3.265-1.466,4.947
		c-0.207,0.942-0.414,1.886-0.621,2.828c-0.204,1.131-0.382,2.267-0.502,3.409c-0.095,1.288-0.123,2.572-0.095,3.863
		c0.094,2.008,0.326,3.995,0.65,5.976c0.273,1.529,0.616,3.051,0.935,4.578c0.106,0.515,0.267,1.018,0.405,1.525
		c0.195,0.726,0.39,1.447,0.585,2.173c0.395,1.25,0.827,2.474,1.353,3.676c0.599,1.271,1.267,2.5,2.006,3.697
		c1.558,2.41,3.369,4.598,5.198,6.796c1.286,1.436,2.573,2.861,3.889,4.27c0.62,0.667,1.259,1.315,1.893,1.968
		c0.531,0.547,1.108,1.059,1.673,1.574c0.693,0.569,1.381,1.136,2.072,1.708c0.608,0.501,1.276,0.947,1.92,1.409
		c0.952,0.605,1.893,1.216,2.873,1.771c0.965,0.548,1.943,1.068,2.924,1.579c2.189,1.054,4.404,2.025,6.655,2.944
		c1.989,0.815,3.988,1.596,5.971,2.421c1.397,0.583,2.04,2.278,1.445,3.654c-0.454,1.048-1.491,1.662-2.571,1.662
		C49.633,199.045,49.264,198.979,48.912,198.831z"/>
	<path fill="#FA9DB7" d="M12.804,130.623c0,0.001,0,0.003-0.001,0.004C12.803,130.625,12.804,130.624,12.804,130.623z"/>
	<path fill="#FA9DB7" d="M12.804,130.626c-0.002,0.007-0.006,0.013-0.008,0.02C12.798,130.639,12.8,130.633,12.804,130.626z"/>
	<path fill="#FA9DB7" d="M40.887,211.954c-1.735-2.492-3.249-5.161-4.605-7.879c-0.73-1.463-1.378-2.96-2-4.476
		c-0.617-1.502-1.165-3.035-1.804-4.531c0.049,0.11,0.099,0.22,0.15,0.33c-0.123-0.289-0.262-0.567-0.417-0.836
		c0.064,0.104,0.129,0.209,0.195,0.311c-0.363-0.575-0.604-1.13-0.604-1.827c0-1.516,1.355-2.749,2.842-2.715
		c1.067,0.024,1.961,0.657,2.405,1.546c-0.002-0.011-0.006-0.022-0.011-0.036c0.514,0.892,0.886,1.849,1.266,2.806
		c0.303,0.765,0.601,1.533,0.899,2.297c0.496,1.282,1.05,2.537,1.616,3.786c1.115,2.234,2.309,4.414,3.617,6.542
		c0.309,0.479,0.625,0.958,0.955,1.425c0.864,1.244,0.618,2.98-0.623,3.879c-0.479,0.347-1.055,0.517-1.626,0.517
		C42.274,213.093,41.408,212.703,40.887,211.954z"/>
	<path fill="#FA9DB7" d="M33.599,192.151c-0.521-1.37,0.173-3.109,1.612-3.588c1.928-0.638,3.909-1.158,5.877-1.665
		c2.193-0.566,4.397-1.092,6.599-1.623c4.072-0.979,8.126-2.055,12.175-3.131c1.462-0.388,3.004,0.616,3.347,2.06
		c0.354,1.502-0.599,2.961-2.063,3.346c-3.996,1.062-7.999,2.091-12.011,3.092c-1.929,0.484-3.868,0.916-5.794,1.414
		c-1.994,0.515-3.981,1.057-5.957,1.64c-0.067,0.021-0.135,0.044-0.202,0.066c-0.317,0.104-0.642,0.157-0.964,0.157
		C35.091,193.92,34.03,193.287,33.599,192.151z"/>
	<path fill="#FA9DB7" d="M49.864,208.417c-1.931-1.552-3.815-3.161-5.614-4.867c-1.758-1.67-3.481-3.375-5.231-5.052
		c0.091,0.086,0.185,0.168,0.277,0.253c-0.492-0.448-0.977-0.911-1.486-1.342c-0.761-0.646-1.652-1.257-1.866-2.303
		c-0.304-1.48,0.553-2.991,2.062-3.349c0.946-0.223,1.967,0.096,2.64,0.768c2.75,2.328,5.251,4.933,7.861,7.412
		c1.57,1.425,3.17,2.806,4.82,4.132c1.18,0.949,1.391,2.718,0.443,3.907c-0.543,0.677-1.366,1.037-2.191,1.037
		C50.974,209.013,50.363,208.818,49.864,208.417z"/>
	<path fill="#FA9DB7" d="M98.265,182.367c-0.858-1.183-0.642-3.048,0.625-3.879c2.933-1.931,5.783-4.011,8.539-6.19
		c1.016-0.853,2.036-1.706,2.982-2.63c0.551-0.537,1.131-1.057,1.657-1.618c0.508-0.544,1.018-1.089,1.532-1.634
		c0.78-0.916,1.565-1.832,2.308-2.781c0.76-0.969,1.488-1.961,2.215-2.955c0.978-1.417,1.971-2.831,2.861-4.309
		c0.507-0.836,1.043-1.659,1.521-2.512c0.528-0.946,1.063-1.89,1.588-2.836c0.663-1.31,1.335-2.611,1.939-3.951
		c0.322-0.71,0.674-1.417,0.952-2.143c0.316-0.826,0.633-1.651,0.943-2.476c0.289-0.936,0.575-1.871,0.861-2.806
		c0.159-0.506,0.254-1.043,0.377-1.56c0.107-0.44,0.215-0.886,0.322-1.33c0.192-1.084,0.379-2.171,0.572-3.256
		c0.102-0.576,0.132-1.172,0.195-1.754c0.058-0.513,0.117-1.028,0.173-1.54c0.055-1.135,0.11-2.271,0.165-3.409
		c0.024-0.587-0.016-1.19-0.027-1.777c-0.003-0.537-0.011-1.073-0.017-1.609c-0.08-1.098-0.159-2.201-0.236-3.302
		c-0.038-0.531-0.133-1.063-0.198-1.591c-0.072-0.607-0.146-1.218-0.226-1.827c-0.1-0.578-0.204-1.153-0.309-1.73
		c-0.093-0.534-0.165-1.081-0.291-1.608c-0.402-1.67-0.782-3.341-1.274-4.986c-0.575-1.811-1.24-3.583-2.005-5.318
		c-0.854-1.836-1.816-3.612-2.875-5.339c-1.005-1.581-2.078-3.113-3.261-4.564c-0.752-0.879-1.535-1.715-2.375-2.512
		c-0.777-0.697-1.59-1.348-2.44-1.959c-0.577-0.384-1.166-0.741-1.776-1.069c-0.229-0.112-0.463-0.213-0.699-0.304
		c-0.233,0.025-0.474,0.021-0.715-0.015c-1.483-0.225-2.576-1.673-2.328-3.165c0.189-1.156,1.062-2.065,2.201-2.334
		c1.728-0.41,3.527,0.554,4.985,1.37c1.711,0.955,3.288,2.219,4.71,3.557c1.497,1.418,2.843,2.975,4.077,4.626
		c2.433,3.245,4.436,6.812,6.042,10.533c1.191,2.764,2.036,5.636,2.743,8.554c1.444,5.962,2.056,12.146,1.764,18.275
		c-0.036,0.714-0.038,1.442-0.121,2.154c-0.099,0.907-0.201,1.814-0.303,2.724c-0.156,1.388-0.435,2.757-0.68,4.131
		c-0.143,0.813-0.382,1.62-0.574,2.42c-0.154,0.639-0.314,1.257-0.51,1.885c-0.25,0.806-0.465,1.637-0.763,2.424
		c-0.324,0.842-0.643,1.687-0.965,2.528c-0.206,0.542-0.448,1.065-0.688,1.593c-0.3,0.66-0.578,1.343-0.911,1.995
		c-0.727,1.433-1.437,2.872-2.223,4.275c-1.453,2.594-2.982,5.137-4.669,7.588c-1.378,2.006-2.771,4.025-4.355,5.874
		c-1.638,1.909-3.311,3.824-5.181,5.519c-0.972,0.875-1.942,1.733-2.941,2.581c-1.007,0.847-2.063,1.637-3.114,2.426
		c-1.926,1.453-3.907,2.845-5.924,4.174c-0.509,0.335-1.086,0.503-1.658,0.503C99.643,183.495,98.815,183.126,98.265,182.367z"/>
	<path fill="#FA9DB7" d="M77.335,182.29c-0.153-1.472,0.963-2.936,2.475-3.054c3.105-0.239,6.215-0.498,9.318-0.762
		c2.96-0.25,5.923-0.547,8.895-0.547c1.516,0,2.748,1.356,2.716,2.845c-0.036,1.538-1.329,2.713-2.845,2.713
		c-0.645,0-1.291,0.011-1.938,0.033c-5.193,0.347-10.378,0.848-15.566,1.249c-0.074,0.006-0.148,0.006-0.226,0.006
		C78.744,184.772,77.49,183.751,77.335,182.29z"/>
	<path fill="#FA9DB7" d="M85.873,197.042c-1.213-0.969-1.349-2.69-0.443-3.907c1.915-2.57,4.006-5.007,6.053-7.473
		c1.005-1.21,2.003-2.429,3.03-3.618c0.58-0.674,1.152-1.356,1.76-2.006c0.801-0.85,1.585-1.788,2.578-2.421
		c0.627-0.396,1.299-0.607,2.047-0.495c0.732,0.11,1.397,0.518,1.835,1.117c0.848,1.172,0.658,3.07-0.622,3.882
		c-0.09,0.058-0.182,0.119-0.267,0.179c-0.624,0.556-1.186,1.17-1.755,1.78c-1.656,1.92-3.283,3.866-4.903,5.819
		c-1.832,2.207-3.692,4.4-5.408,6.7c-0.518,0.69-1.335,1.037-2.16,1.037C86.992,197.637,86.37,197.438,85.873,197.042z"/>
	<path fill="#FA9DB7" d="M92.908,208.229c-0.713-0.209-1.326-0.704-1.679-1.359c-0.352-0.658-0.388-1.368-0.226-2.08
		c0.964-4.174,2.129-8.303,3.269-12.43c0.57-2.074,1.188-4.133,1.813-6.19c0.286-0.949,0.607-1.887,0.916-2.831
		c0.583-1.777,1.326-4.025,3.346-4.564c1.463-0.385,3.01,0.622,3.351,2.063c0.237,1.007-0.112,1.992-0.809,2.652
		c-0.124,0.264-0.236,0.536-0.347,0.814c-1.282,3.646-2.319,7.384-3.346,11.107c-1.002,3.621-2.003,7.25-2.851,10.909
		c-0.28,1.229-1.502,2.008-2.707,2.008C93.393,208.328,93.145,208.295,92.908,208.229z"/>
	<path fill="#FA9DB7" d="M105.123,200.696c-0.135-0.54-0.285-1.07-0.439-1.604c-0.966-3.029-2.118-5.979-3.393-8.893
		c-0.498-1.004-0.996-2.005-1.527-2.996c-0.264-0.498-0.53-0.996-0.795-1.491c-0.398-0.759-0.894-1.573-0.933-2.448
		c-0.033-0.743,0.115-1.431,0.589-2.025c0.463-0.578,1.145-0.955,1.882-1.035c1.371-0.143,2.837,0.853,3.037,2.251
		c0.608,1.243,1.315,2.438,1.929,3.675c0.693,1.397,1.384,2.801,1.956,4.253c1.167,2.96,2.309,5.938,3.104,9.024
		c0.376,1.466-0.608,3.004-2.062,3.348c-0.212,0.05-0.421,0.074-0.63,0.074C106.585,202.831,105.453,201.954,105.123,200.696z"/>
	<path fill="#FA9DB7" d="M100.686,184.172c-3.288-2.336-6.399-4.93-9.538-7.461c-3.192-2.572-6.378-5.156-9.597-7.692
		c-1.188-0.936-1.384-2.724-0.443-3.904c0.949-1.188,2.716-1.378,3.904-0.442c3.222,2.536,6.411,5.114,9.597,7.692
		c3.137,2.537,6.25,5.128,9.541,7.461c1.232,0.875,1.349,2.768,0.44,3.901c-0.462,0.581-1.145,0.958-1.882,1.035
		c-0.094,0.011-0.188,0.017-0.28,0.017C101.788,184.777,101.214,184.546,100.686,184.172z"/>
	<path fill="#FA9DB7" d="M39.793,117.385c-1.45-0.033-2.831-1.33-2.714-2.842c0.13-1.649,0.3-3.297,0.476-4.942
		c0.084-0.771,0.177-1.541,0.263-2.313c0.084-0.748,0.096-1.552,0.289-2.284c0.293-1.116,1.28-1.83,2.382-1.998c0,0,0,0,0.001,0
		c1.497-0.227,2.902,1.021,3.055,2.474c0.027,0.271,0.016,0.545-0.037,0.809c-0.314,2.635-0.6,5.279-0.836,7.922
		c-0.012,0.151-0.023,0.306-0.034,0.459c-0.06,0.747-0.309,1.418-0.86,1.945c-0.515,0.491-1.209,0.771-1.918,0.771
		C39.836,117.386,39.815,117.386,39.793,117.385z"/>
	<path fill="#FA9DB7" d="M106.098,108.775c-0.484-1.761-0.875-3.545-1.244-5.333c-0.385-1.852-0.742-3.713-1.025-5.582
		c-0.292-1.933-0.548-3.861-0.724-5.807c-0.083-0.885-0.116-1.768-0.154-2.651c-0.027-0.541-0.012-1.081-0.012-1.62
		c0-0.505,0.004-1.083,0.16-1.567c0.385-1.194,1.458-2.04,2.734-2.013c1.338,0.033,2.608,1.114,2.699,2.489v0.001
		c0.025,0.363-0.02,0.72-0.115,1.054c0.009,0,0.014,0.001,0.021,0.001c0.025-0.102,0.047-0.204,0.069-0.306
		c0.005-0.071,0.011-0.143,0.016-0.214c-0.027,0.625-0.032,1.245-0.032,1.872c0.061,1.291,0.154,2.571,0.272,3.86
		c0.129,1.435,0.371,2.864,0.586,4.288c0.589,3.437,1.232,6.876,2.154,10.242c0.399,1.458-0.625,3.007-2.061,3.347
		c-0.215,0.051-0.43,0.075-0.636,0.075C107.545,110.911,106.438,110.029,106.098,108.775z"/>
	<path fill="#FA9DB7" d="M28.083,273.072c-1.502-0.319-2.904-0.979-4.043-2.012c-0.605-0.55-1.135-1.183-1.466-1.934
		c-0.393-0.89-0.574-1.824-0.717-2.779c-0.225-1.497,0.065-3.181,0.828-4.495c0.926-1.591,2.292-2.752,3.95-3.527
		c1.194-0.559,2.489-0.886,3.781-1.123c0.807-0.147,1.608-0.305,2.419-0.423c1.521-0.221,3.038-0.395,4.571-0.551
		c1.361-0.144,2.74-0.187,4.104-0.289c1.224-0.09,2.43-0.239,3.639-0.432c0.363-0.077,0.721-0.163,1.08-0.262
		c0.086-0.029,0.175-0.063,0.261-0.094c0.012-0.079,0.022-0.156,0.033-0.233c0.124-1.579,0.174-3.169,0.248-4.754
		c0.08-1.739,0.156-3.48,0.229-5.223c0.149-3.541,0.181-7.081,0.118-10.625c-0.018-0.391-0.037-0.776-0.071-1.164
		c-0.078-0.333-0.096-0.683-0.043-1.031c0-0.006,0-0.006,0-0.006c0.15-0.981,0.834-1.827,1.761-2.179
		c0.871-0.33,2.006-0.215,2.719,0.424c0.466,0.418,0.853,0.913,0.983,1.54c0.106,0.51,0.14,1.019,0.165,1.538
		c0.039,0.861,0.054,1.726,0.071,2.589c0.028,1.491-0.002,2.985-0.015,4.474c-0.024,2.911-0.18,5.822-0.315,8.732
		c-0.066,1.48-0.132,2.961-0.21,4.44c-0.037,0.725-0.064,1.453-0.157,2.169c-0.045,0.363-0.1,0.731-0.192,1.084
		c-0.194,0.734-0.484,1.609-1.085,2.117c-0.065,0.056-0.129,0.105-0.189,0.16c0.438,0.748,0.545,1.685,0.162,2.51
		c-1.618,3.494-4.25,6.465-7.55,8.468c-1.466,0.886-3.021,1.604-4.681,2.039c-0.792,0.206-1.582,0.404-2.381,0.583
		c-1.572,0.36-3.207,0.581-4.834,0.581C30.187,273.385,29.122,273.289,28.083,273.072z M27.598,266.759
		c0.005,0.012,0.011,0.021,0.016,0.025c0.054,0.058,0.108,0.118,0.16,0.173c0.065,0.056,0.13,0.107,0.197,0.157
		c0.12,0.08,0.239,0.151,0.363,0.22c0.114,0.053,0.229,0.107,0.347,0.152c0.148,0.049,0.297,0.093,0.447,0.132
		c0.341,0.065,0.678,0.118,1.021,0.159c0.552,0.036,1.102,0.044,1.655,0.033c0.896-0.061,1.769-0.19,2.651-0.336
		c1.004-0.226,2.005-0.453,2.99-0.74c0.482-0.157,0.949-0.335,1.412-0.536c0.517-0.254,1.016-0.525,1.508-0.819
		c0.537-0.35,1.052-0.722,1.551-1.12c0.553-0.484,1.071-0.999,1.579-1.524c0.322-0.394,0.63-0.79,0.935-1.197
		c0.071-0.11,0.143-0.22,0.214-0.33c-0.131,0.017-0.259,0.034-0.386,0.047c-1.483,0.165-2.965,0.278-4.455,0.377
		c-1.267,0.086-2.522,0.192-3.788,0.325c-0.996,0.099-1.981,0.258-2.973,0.404c-1.066,0.195-2.137,0.382-3.181,0.671
		c-0.282,0.094-0.559,0.192-0.834,0.3c-0.221,0.113-0.438,0.231-0.655,0.357c-0.085,0.056-0.167,0.116-0.248,0.176
		c-0.095,0.089-0.191,0.177-0.286,0.271c0.042-0.05,0.089-0.099,0.132-0.146c-0.007,0.002-0.013,0.011-0.022,0.016
		c-0.099,0.113-0.196,0.224-0.288,0.345c-0.04,0.071-0.083,0.143-0.122,0.217c-0.037,0.075-0.07,0.151-0.105,0.229
		c-0.015,0.05-0.029,0.102-0.044,0.151c-0.013,0.096-0.025,0.195-0.038,0.289c-0.003,0.066-0.005,0.132-0.005,0.198
		c0.02,0.203,0.043,0.407,0.076,0.61c0.041,0.221,0.094,0.44,0.155,0.655c-0.034-0.11-0.068-0.226-0.105-0.342
		C27.506,266.496,27.547,266.63,27.598,266.759z"/>
	<path fill="#FA9DB7" d="M130.451,255.939c-0.77-0.333-1.402-0.853-1.967-1.469c-0.487-0.531-0.798-1.17-1.078-1.824
		c-0.3-0.699-0.396-1.502-0.448-2.251c-0.074-1.046,0.071-2.091,0.271-3.114c0.386-1.944,1.109-3.829,1.847-5.667
		c0.518-1.294,1.101-2.554,1.678-3.819c0.265-0.572,0.578-1.128,0.864-1.689c0.272-0.533,0.534-1.078,0.826-1.601
		c0.264-0.474,0.527-0.944,0.792-1.415c-0.333,0.166-0.666,0.33-1.007,0.49c-2.763,1.304-5.602,2.432-8.49,3.42
		c-0.622,0.212-1.238,0.418-1.868,0.603c-0.807,0.234-1.612,0.517-2.43,0.701c-0.843,0.195-1.689,0.386-2.531,0.578
		c-1.662,0.38-3.384,0.597-5.09,0.657c-1.782,0.061-3.527-0.1-5.247-0.605c-1.725-0.506-3.222-1.496-4.542-2.685
		c-1.921-1.729-3.488-3.733-4.864-5.904c-0.204-0.319-0.404-0.639-0.616-0.952c-0.848-1.255-0.633-2.969,0.622-3.879
		c1.196-0.87,3.037-0.633,3.882,0.621c0.886,1.31,1.687,2.652,2.671,3.888c0.611,0.699,1.255,1.373,1.926,2.017
		c0.314,0.278,0.633,0.548,0.969,0.804c0.242,0.159,0.487,0.303,0.743,0.443c0.165,0.079,0.333,0.15,0.503,0.223
		c0.33,0.107,0.657,0.203,0.994,0.288c0.343,0.063,0.682,0.116,1.028,0.157c0.614,0.038,1.22,0.05,1.832,0.033
		c0.963-0.063,1.921-0.171,2.878-0.319c1.194-0.215,2.372-0.501,3.555-0.771c0.886-0.203,1.756-0.498,2.628-0.759
		c1.491-0.509,2.968-1.029,4.438-1.594c1.343-0.512,2.658-1.092,3.973-1.67c1.612-0.765,3.181-1.587,4.722-2.492
		c0.801-0.465,1.596-0.936,2.396-1.403c0.592-0.35,1.186-0.688,1.846-0.892c0.899-0.27,1.893-0.236,2.719,0.259
		c0.792,0.473,1.298,1.343,1.414,2.245c0.099,0.718-0.056,1.387-0.289,2.041c0.344,2.746,0.6,5.492,0.646,8.26
		c0.027,1.425-0.11,2.867-0.264,4.284c-0.16,1.487-0.383,2.965-0.683,4.433c-0.501,2.415-1.194,4.825-2.581,6.899
		c-1.411,2.118-3.909,3.879-6.492,3.879C131.901,256.387,131.173,256.25,130.451,255.939z M135.486,240.819
		c-0.297,0.648-0.622,1.29-0.888,1.953c-0.287,0.718-0.57,1.43-0.862,2.143c-0.379,1.109-0.762,2.207-1.037,3.349
		c-0.077,0.404-0.14,0.801-0.187,1.205c-0.014,0.188-0.02,0.374-0.014,0.563c0.005,0.11,0.016,0.221,0.03,0.33
		c0.02,0.089,0.041,0.183,0.058,0.27c0.011,0.028,0.021,0.056,0.032,0.083c0.022,0.033,0.039,0.072,0.058,0.104
		c0.028-0.002,0.059-0.005,0.086-0.011c0.044-0.011,0.083-0.021,0.127-0.039c0.074-0.027,0.146-0.055,0.22-0.085
		c0.082-0.041,0.162-0.091,0.245-0.132c0.157-0.107,0.308-0.218,0.457-0.333c0.102-0.093,0.2-0.19,0.3-0.292
		c0.115-0.131,0.226-0.271,0.333-0.415c0.185-0.283,0.352-0.567,0.515-0.861c0.17-0.357,0.33-0.724,0.473-1.095
		c0.27-0.787,0.479-1.585,0.69-2.395c0.35-1.738,0.619-3.478,0.814-5.24c0.058-0.757,0.103-1.516,0.124-2.271
		C136.521,238.7,135.977,239.746,135.486,240.819z"/>
	<path fill="#FA9DB7" d="M34.329,22.933c-1.24-1.113-1.971-2.581-2.719-4.039c-0.579-1.132-1.111-2.293-1.667-3.435
		c-1.021-2.095-2.077-4.17-3.143-6.242c-0.695-1.345-0.22-3.036,1.13-3.764c1.315-0.708,3.072-0.213,3.766,1.134
		c0.959,1.863,1.905,3.731,2.832,5.609c0.962,1.949,1.828,3.966,2.915,5.849c0.127,0.191,0.255,0.375,0.391,0.557
		c0.07,0.074,0.14,0.146,0.215,0.219c-0.054-0.047-0.105-0.095-0.158-0.145c0.003,0.001,0.004,0.004,0.004,0.007
		c0.509,0.483,0.854,1.067,0.93,1.784c0.076,0.721-0.139,1.457-0.59,2.022c-0.529,0.665-1.396,1.051-2.249,1.051
		C35.386,23.542,34.793,23.353,34.329,22.933z"/>
	<path fill="#FA9DB7" d="M62.131,17.34c-0.667-0.402-1.056-1.017-1.276-1.743c-0.608-1.993-0.854-4.082-1.093-6.144
		c-0.247-2.121-0.431-4.253-0.558-6.385c-0.047-0.733,0.122-1.437,0.588-2.02c0.462-0.581,1.146-0.956,1.885-1.035
		c1.454-0.151,2.963,0.96,3.054,2.474c0.184,3.061,0.484,6.117,0.917,9.152c0.166,0.901,0.345,1.792,0.614,2.671
		c0.441,1.449-0.659,3.016-2.061,3.349c-0.211,0.046-0.425,0.073-0.639,0.073C63.061,17.732,62.562,17.597,62.131,17.34z"/>
	<path fill="#FA9DB7" d="M91.865,20.42c-1.439-0.217-2.633-1.682-2.327-3.166c0.346-1.694,1.361-3.197,2.25-4.658
		c0.372-0.611,0.817-1.183,1.225-1.775c0.5-0.726,1.062-1.415,1.596-2.115c0.889-1.161,1.887-2.265,2.877-3.343
		c1.09-1.188,2.19-2.362,3.324-3.511c1.062-1.079,2.905-0.979,3.929,0.091c1.07,1.12,0.968,2.85-0.093,3.93
		c-1.146,1.161-2.257,2.345-3.357,3.546c0.088-0.094,0.17-0.185,0.256-0.278c-0.696,0.785-1.384,1.577-2.056,2.384
		c-0.665,0.797-1.281,1.626-1.915,2.449c-0.373,0.535-0.764,1.067-1.105,1.626c-0.439,0.722-0.861,1.442-1.266,2.182
		c-0.071,0.151-0.137,0.305-0.203,0.462c-0.006,0.021-0.012,0.042-0.017,0.063c0.005-0.018,0.008-0.035,0.011-0.051v0.002
		c0-0.002,0-0.002,0-0.003c0.006-0.024,0.012-0.05,0.017-0.074c-0.159,0.702-0.501,1.312-1.098,1.743
		c-0.474,0.345-1.052,0.528-1.632,0.528C92.141,20.453,92,20.442,91.865,20.42z"/>
	<path fill="#FA9DB7" d="M94.993,18.259L94.993,18.259L94.993,18.259z"/>
	<path fill="#FA9DB7" d="M111.328,30.856c-0.427-0.589-0.603-1.332-0.495-2.047c0.115-0.756,0.527-1.369,1.119-1.835
		c2.642-2.093,5.762-3.432,8.81-4.807c3.01-1.359,6.097-2.615,9.206-3.729c1.425-0.508,3.043,0.179,3.588,1.613
		c0.528,1.395-0.188,3.076-1.612,3.583c-3.854,1.378-7.612,3.013-11.341,4.691c-0.738,0.364-1.475,0.732-2.212,1.099
		c-0.54,0.267-1.055,0.597-1.574,0.905c-0.545,0.372-1.095,0.737-1.606,1.148c-0.462,0.362-1.013,0.53-1.568,0.53
		C112.75,32.008,111.854,31.584,111.328,30.856z"/>
</g>
</svg>
