<?xml version="1.0" encoding="utf-8"?>
<!-- Generator: Adobe Illustrator 16.0.0, SVG Export Plug-In . SVG Version: 6.00 Build 0)  -->
<!DOCTYPE svg PUBLIC "-//W3C//DTD SVG 1.1//EN" "http://www.w3.org/Graphics/SVG/1.1/DTD/svg11.dtd">
<svg version="1.1" id="圖層_1" xmlns="http://www.w3.org/2000/svg" xmlns:xlink="http://www.w3.org/1999/xlink" x="0px" y="0px"
	 width="126.604px" height="318.131px" viewBox="0 0 126.604 318.131" enable-background="new 0 0 126.604 318.131"
	 xml:space="preserve">
<g>
	<path fill="#45B3DF" d="M60.996,103.354c-0.505,0-1.011-0.003-1.516-0.008c-2.081-0.021-4.159-0.239-6.226-0.473
		c-4.101-0.462-8.087-1.595-12.036-2.75c-1.042-0.304-2.057-0.689-3.076-1.05c-0.764-0.268-1.521-0.539-2.272-0.846
		c-1.98-0.811-3.93-1.661-5.878-2.548c-1.946-0.887-3.794-1.942-5.638-3.017c-1.845-1.07-3.556-2.377-5.267-3.647
		c-1.692-1.256-3.242-2.713-4.764-4.167c-0.751-0.716-1.451-1.473-2.157-2.237c-1.188-1.28-2.352-2.577-3.385-3.99
		c-1.647-2.261-3.131-4.636-4.354-7.154c-1.258-2.592-2.389-5.281-3.061-8.095c-0.735-3.06-1.109-6.154-1.297-9.288
		c-0.117-1.983-0.098-4.021,0.131-6c0.234-2.03,0.469-4.093,0.988-6.075c0.501-1.904,1.191-3.701,1.996-5.49
		c0.387-0.87,0.805-1.759,1.29-2.578c1.106-1.863,2.25-3.657,3.574-5.373c1.318-1.703,2.792-3.251,4.301-4.788
		c1.451-1.477,3.093-2.791,4.684-4.11c1.492-1.242,3.067-2.4,4.658-3.503c1.698-1.171,3.403-2.345,5.185-3.38
		c1.768-1.027,3.556-1.996,5.381-2.917c3.485-1.757,7.225-2.98,10.888-4.291c-0.013,0.005-0.024,0.009-0.038,0.014
		c2.82-1.012,5.641-2.03,8.5-2.912c0.545-0.168,1.103-0.193,1.638-0.102c0.364-0.436,0.827-0.797,1.372-1.04
		c0.995-0.443,2.123-0.736,3.201-0.911c1.008-0.167,2.006-0.342,3.021-0.434c2.199-0.198,4.398-0.271,6.604-0.097
		c2.174,0.172,4.321,0.515,6.452,0.969c2.283,0.483,4.564,1.044,6.794,1.73c2.976,0.917,5.774,2.188,8.578,3.519
		c1.49,0.707,2.941,1.497,4.339,2.37c1.436,0.897,2.897,1.792,4.23,2.84c1.811,1.418,3.656,2.798,5.368,4.341
		c3.336,3.01,6.321,6.35,8.637,10.22c2.418,4.048,4.172,8.407,5.425,12.948c0.753,2.715,1.472,5.497,1.73,8.312
		c0.242,2.599,0.28,5.205,0.082,7.81c-0.418,5.566-1.453,11.137-3.628,16.303c-0.615,1.448-1.272,2.866-1.944,4.291
		c-0.631,1.33-1.263,2.648-2.014,3.917c-1.397,2.353-2.983,4.576-4.795,6.627c-1.719,1.952-3.559,3.841-5.593,5.462
		c-2.085,1.664-4.345,3.188-6.712,4.414c-0.947,0.49-1.894,0.979-2.841,1.469c-4.057,2.1-8.539,3.323-13.015,4.141
		c-1.085,0.198-2.174,0.448-3.268,0.592c-1.177,0.155-2.351,0.315-3.526,0.472c-0.973,0.13-1.955,0.186-2.938,0.255
		c-0.864,0.066-1.728,0.153-2.596,0.177C64.468,103.326,62.736,103.354,60.996,103.354z M70.113,95.448
		c2.935-0.391,5.859-0.8,8.759-1.413c1.978-0.45,3.92-0.981,5.834-1.638c1.135-0.431,2.239-0.91,3.339-1.425
		c2.228-1.156,4.422-2.332,6.514-3.734c1.117-0.8,2.182-1.649,3.208-2.562c1.325-1.242,2.57-2.549,3.756-3.923
		c1.003-1.226,1.94-2.497,2.811-3.822c1.283-2.107,2.321-4.319,3.37-6.545c0.733-1.69,1.418-3.387,1.979-5.14
		c0.517-1.769,0.931-3.551,1.252-5.363c0.347-2.237,0.594-4.482,0.703-6.744c0.037-1.458,0.02-2.909-0.077-4.365
		c-0.145-1.378-0.366-2.736-0.639-4.096c-0.56-2.47-1.252-4.917-2.079-7.311c-0.639-1.729-1.342-3.417-2.164-5.068
		c-0.807-1.508-1.684-2.96-2.643-4.372c-0.783-1.082-1.605-2.123-2.491-3.122c-1.494-1.583-3.067-3.07-4.718-4.487
		c-0.891-0.699-1.778-1.396-2.665-2.092c-1.233-0.965-2.515-1.849-3.828-2.697c-1.504-0.932-3.042-1.801-4.642-2.561
		c-0.818-0.391-1.641-0.779-2.464-1.169c-1.642-0.701-3.3-1.339-5.005-1.875c-2.621-0.762-5.289-1.388-7.97-1.889
		c-1.496-0.241-2.993-0.399-4.505-0.482c-1.163-0.025-2.321,0.003-3.48,0.08c-1.086,0.107-2.153,0.269-3.229,0.445
		c-0.427,0.099-0.851,0.198-1.271,0.327c-0.051,0.021-0.102,0.041-0.149,0.063c-0.675,0.299-1.4,0.372-2.091,0.255
		c-0.467,0.556-1.097,0.987-1.835,1.214c-2.095,0.646-4.167,1.366-6.236,2.099c0.155-0.052,0.311-0.109,0.462-0.162
		c-1.746,0.623-3.492,1.247-5.234,1.87c-2.941,1.076-5.813,2.261-8.616,3.654c-1.474,0.807-2.932,1.63-4.364,2.512
		c-1.356,0.833-2.668,1.725-3.98,2.628c-1.343,0.987-2.699,1.968-3.986,3.036c-1.299,1.075-2.554,2.172-3.809,3.299
		c-0.628,0.631-1.29,1.238-1.873,1.903c-0.5,0.575-1.004,1.148-1.505,1.724c-0.45,0.567-0.932,1.125-1.334,1.724
		c-0.374,0.554-0.751,1.11-1.125,1.665c-0.666,1.13-1.296,2.263-1.901,3.429c-0.514,1.154-1.002,2.301-1.395,3.503
		c-0.241,0.859-0.428,1.724-0.615,2.597c-0.285,1.826-0.481,3.637-0.611,5.481c-0.006,0.711-0.041,1.429-0.003,2.137
		c0.044,0.769,0.092,1.539,0.14,2.307c0.184,1.694,0.383,3.373,0.709,5.046c0.292,1.272,0.646,2.52,1.065,3.755
		c0.64,1.711,1.407,3.345,2.205,4.988c0.78,1.35,1.56,2.689,2.428,3.982c0.843,1.179,1.739,2.308,2.685,3.413
		c-0.118-0.126-0.231-0.253-0.346-0.378c0.779,0.844,1.527,1.752,2.357,2.544c0.834,0.794,1.66,1.587,2.494,2.381
		c1.029,0.859,2.06,1.714,3.141,2.515c1.185,0.883,2.401,1.699,3.638,2.513c0.786,0.466,1.568,0.967,2.383,1.379
		c0.875,0.438,1.743,0.879,2.611,1.32c1.711,0.778,3.426,1.529,5.172,2.244c1.609,0.657,3.257,1.21,4.898,1.787
		c1.687,0.496,3.366,0.997,5.077,1.402c0.865,0.208,1.73,0.44,2.604,0.599c0.855,0.152,1.715,0.306,2.573,0.461
		c1.011,0.117,2.031,0.287,3.049,0.344c0.938,0.054,1.876,0.106,2.813,0.162c1.975,0.016,3.935,0.011,5.907-0.043
		C66.822,95.709,68.467,95.573,70.113,95.448z"/>
	<path fill="#45B3DF" d="M81.797,45.763c1.982-0.301,3.538-2.277,3.164-4.3c-0.64-3.419-1.431-6.809-2.223-10.196
		c-0.369-1.568-0.738-3.137-1.164-4.691c-0.523-1.9-0.995-3.907-1.9-5.661c-0.942-1.832-3.5-2.307-5.181-1.301
		c-0.864,0.518-1.501,1.383-1.73,2.365c-0.211,0.886-0.068,1.718,0.29,2.518c0.008,0.021,0.014,0.041,0.021,0.062
		c-0.028-0.056-0.055-0.109-0.082-0.163c0.053,0.131,0.106,0.263,0.16,0.395c1.545,4.598,2.565,9.381,3.6,14.121
		c-0.003-0.009-0.004-0.018-0.006-0.027c0.266,1.236,0.518,2.473,0.752,3.719c0.34,1.833,1.891,3.204,3.732,3.204
		C81.417,45.805,81.605,45.791,81.797,45.763z"/>
	<path fill="#45B3DF" d="M68.695,55.284c1.889-0.541,3.264-2.732,2.586-4.671c-1.613-4.612-3.242-9.221-4.866-13.831
		C65.617,34.51,64.831,32.229,64,29.97c-0.454-1.231-0.914-2.459-1.393-3.679c-0.244-0.623-0.504-1.339-0.874-1.896
		c-0.52-0.775-1.122-1.333-1.979-1.699c-1.892-0.802-4.164,0.328-4.87,2.191c-0.399,1.059-0.285,2.148,0.196,3.058
		c0.038,0.079,0.079,0.16,0.117,0.241c-0.003-0.005-0.01-0.009-0.016-0.014c0.01,0.011,0.019,0.022,0.025,0.035
		c0.767,1.615,1.337,3.335,1.952,5.009c-0.051-0.154-0.108-0.308-0.162-0.461c2.367,6.639,4.696,13.291,7.027,19.942
		c0.341,0.974,0.914,1.786,1.84,2.283c0.551,0.296,1.172,0.448,1.793,0.448C68.006,55.428,68.356,55.38,68.695,55.284z"/>
	<path fill="#45B3DF" d="M115.427,103.156c1.993-0.299,3.524-2.273,3.161-4.299c-0.716-4.021-1.81-8.05-3.72-11.68
		c-1.84-3.497-4.223-6.658-6.983-9.483c-0.619-0.634-1.283-1.22-1.971-1.784c-0.848-0.699-1.785-1.421-2.82-1.813
		c-1.555-0.587-3.403-0.455-4.728,0.604c-1.539,1.226-1.891,3.158-1.58,5.003c0.303,1.8,1.12,3.51,1.932,5.123
		c0.873,1.737,1.928,3.332,3.045,4.918c1.333,1.89,2.73,3.736,4.141,5.571c1.088,1.418,2.245,2.798,3.286,4.254
		c0.354,0.536,0.68,1.083,0.986,1.646c0.699,1.287,2.162,1.919,3.563,1.808c0.356,0.114,0.733,0.176,1.123,0.176
		C115.049,103.201,115.237,103.187,115.427,103.156z"/>
	<path fill="#45B3DF" d="M100.516,111.351c1.593-0.185,3.114-0.616,4.624-1.138c2.858-0.982,5.659-2.201,8.378-3.516
		c0.6-0.29,1.104-0.708,1.485-1.208c1.968-0.111,3.538-1.898,3.495-3.855c-0.051-2.091-1.809-3.687-3.863-3.687
		c-1.186,0-2.37,0.171-3.548,0.322c-1.482,0.188-2.955,0.479-4.42,0.773c-1.45,0.292-2.889,0.644-4.319,1.011
		c-2.281,0.588-4.589,1.239-6.363,2.873c-1.097,1.007-1.869,2.448-1.835,3.969c0.033,1.496,0.876,2.919,2.153,3.671
		c0.593,0.349,1.132,0.582,1.808,0.719c0.439,0.09,0.893,0.13,1.344,0.13C99.813,111.416,100.167,111.393,100.516,111.351z"/>
	<path fill="#45B3DF" d="M92.372,91.116c-1.968,0.298-3.563,2.281-3.164,4.298c0.147,0.75,0.405,1.469,0.63,2.201
		c0.251,0.805,0.466,1.621,0.696,2.433c0.413,1.448,0.777,2.907,1.161,4.36c0.858,3.27,1.723,6.541,2.563,9.817
		c0.834,3.261,1.703,6.52,2.479,9.798c0.813,3.445,1.61,6.894,2.385,10.352c1.715,7.946,3.123,15.946,4.53,23.952
		c1.408,8.016,2.777,16.04,4.178,24.06c1.263,7.235,2.518,14.463,3.527,21.735c0.257,1.844,0.507,3.695,0.749,5.54
		c0.142-0.066,0.282-0.14,0.422-0.212c1.405-0.732,2.809-1.467,4.216-2.196c0.84-0.438,1.654-0.941,2.469-1.439
		c-0.186-1.388-0.38-2.776-0.581-4.164c-1.191-8.239-2.651-16.431-4.072-24.635c-1.362-7.871-2.723-15.74-4.107-23.606
		c-0.711-4.02-1.41-8.042-2.197-12.047c-0.857-4.36-1.787-8.702-2.764-13.037c-1.271-5.637-2.691-11.24-4.145-16.833
		c-0.808-3.096-1.619-6.194-2.428-9.292c-0.356-1.359-0.698-2.722-1.082-4.073c-0.407-1.429-0.863-2.848-1.263-4.278
		c0.016,0.065,0.027,0.127,0.043,0.192c-0.225-0.906-0.694-1.689-1.467-2.253C94.353,91.209,93.345,90.969,92.372,91.116z"/>
	<path fill="#45B3DF" d="M28.233,161.025c0-0.054,0-0.106,0.006-0.16c0-0.004,0-0.014,0-0.021c0-0.014,0-0.028,0-0.044
		c0.329-8.017,0.539-16.047,0.729-24.069c0.197-8.311,0.181-16.625,0.272-24.938c0.058-4.718,0.093-9.437,0.257-14.152
		c0.054-1.066,0.092-2.141,0.188-3.205c0.019-0.094,0.031-0.188,0.044-0.282c0.022-0.181,0.028-0.359,0.022-0.54
		c-0.054-1.695-1.239-3.191-2.899-3.586c-1.781-0.421-3.79,0.566-4.405,2.335c-0.354,1.024-0.345,2.153-0.399,3.229
		c-0.057,1.203-0.102,2.405-0.148,3.609c-0.082,2.107-0.096,4.216-0.127,6.325c-0.061,3.868-0.092,7.74-0.133,11.609
		c-0.083,8.147-0.111,16.292-0.33,24.436c-0.171,6.373-0.352,12.749-0.602,19.118c-0.01,0.109-0.016,0.216-0.01,0.32
		c-0.025,0.543-0.044,1.083-0.069,1.625c0.006-0.162,0.013-0.323,0.019-0.481c-0.035,0.836-0.069,1.676-0.102,2.516
		c-0.003,0.063-0.003,0.13-0.003,0.196c-0.007,0.108-0.013,0.215-0.016,0.326c0-0.088,0.003-0.174,0.009-0.256
		c-0.003,0.025-0.003,0.051-0.006,0.079c-0.069,1.582-0.137,3.166-0.199,4.747c0.006-0.159,0.013-0.32,0.019-0.485
		c-0.342,7.726-0.64,15.445-1.268,23.152c-0.459,5.634-1.014,11.259-1.527,16.89c0.71,0.313,1.42,0.621,2.13,0.919
		c1.705,0.713,3.438,1.363,5.193,1.952c0.561-6.414,1.211-12.822,1.733-19.239c0.631-7.738,0.944-15.486,1.262-23.237
		c0.069-1.521,0.133-3.045,0.196-4.566c0.006-0.104,0.013-0.212,0.013-0.32c0.019-0.536,0.044-1.071,0.063-1.61
		c-0.004,0.032-0.004,0.063-0.007,0.095C28.17,162.55,28.201,161.789,28.233,161.025z"/>
	<path fill="#45B3DF" d="M18.295,201.34c-0.247,2.662-0.5,5.317-0.741,7.979c0.71,0.313,1.42,0.621,2.13,0.919
		c3.72,1.559,7.586,2.817,11.513,3.746c4.104,0.963,8.248,1.699,12.396,2.424c2.057,0.364,4.129,0.659,6.195,0.976
		c0.932,0.143,1.876,0.231,2.813,0.345c0.895,0.108,1.781,0.241,2.675,0.317c1.975,0.178,3.95,0.402,5.929,0.507
		c2.097,0.107,4.206,0.292,6.305,0.304c1.578,0.013,3.158,0.038,4.736,0.038c0.967,0,1.932-0.01,2.895-0.044
		c4.523-0.159,9.059-0.64,13.492-1.565c2.049-0.425,4.142-0.754,6.157-1.328c2.069-0.586,4.198-1.081,6.222-1.815
		c1.162-0.418,2.32-0.837,3.479-1.261c0.745-0.272,1.512-0.507,2.24-0.831c1.935-0.849,3.922-1.625,5.798-2.602
		c1.405-0.732,2.809-1.467,4.216-2.196c0.84-0.438,1.654-0.941,2.469-1.439c-0.186-1.388-0.38-2.776-0.581-4.164
		c-0.195-1.337-0.392-2.668-0.601-4.002c-0.951,0.615-1.911,1.208-2.887,1.788c-0.934,0.551-1.855,1.119-2.817,1.619
		c-1.186,0.621-2.367,1.233-3.553,1.851c-1.759,0.776-3.519,1.543-5.275,2.32c-0.864,0.38-1.799,0.653-2.687,0.973
		c-0.869,0.32-1.742,0.634-2.612,0.948c-2.009,0.567-4.017,1.141-6.027,1.705c-1.458,0.301-2.91,0.608-4.367,0.913
		c-2.893,0.602-5.813,1.017-8.759,1.292c-2.414,0.197-4.829,0.301-7.253,0.286c-1.583-0.01-3.164-0.022-4.747-0.032
		c-1.814-0.095-3.629-0.19-5.441-0.286c-1.787-0.095-3.571-0.304-5.354-0.466c-3.512-0.307-7.01-0.887-10.496-1.423
		c-2.604-0.456-5.216-0.881-7.805-1.416c-2.887-0.593-5.739-1.246-8.581-2.025c-1.512-0.481-3.033-0.957-4.51-1.527
		c-1.606-0.618-3.182-1.274-4.75-1.978C19.506,201.908,18.897,201.625,18.295,201.34z"/>
	<path fill="#45B3DF" d="M118.208,150.77c1.708-0.804,3.116-2.287,4.058-3.896c0.534-0.914,0.997-1.876,1.298-2.893
		c0.41-1.385,0.622-2.801,0.713-4.24c0.143-2.258-0.068-4.528-0.326-6.77c-0.239-2.062-0.564-4.104-0.927-6.148
		c-0.72-4.064-1.761-8.041-2.863-12.013c-0.577-2.076-1.344-4.105-2.117-6.116c-0.702-1.816-1.517-3.662-2.574-5.302
		c-0.322-0.496-0.638-0.99-1.065-1.407c-0.949-0.917-2.378-1.268-3.647-0.897c-1.976,0.575-3.154,2.688-2.589,4.671
		c0.143,0.498,0.385,0.944,0.7,1.325c0.401,0.642,0.759,1.298,1.109,1.966c0.662,1.485,1.265,2.978,1.848,4.494
		c0.56,1.719,1.103,3.437,1.586,5.18c0.483,1.73,0.912,3.471,1.342,5.214c0.394,1.896,0.767,3.785,1.103,5.691
		c0.328,1.849,0.544,3.711,0.758,5.572c0.097,1.308,0.176,2.606,0.146,3.918c-0.034,0.501-0.085,0.994-0.148,1.493
		c-0.084,0.433-0.18,0.853-0.293,1.277c-0.046,0.119-0.093,0.239-0.14,0.358c-0.167,0.342-0.343,0.675-0.536,1.006
		c-0.055,0.083-0.113,0.164-0.172,0.244c-0.056,0.06-0.114,0.121-0.173,0.179c-0.084,0.069-0.168,0.138-0.256,0.206
		c-0.024,0.017-0.05,0.035-0.077,0.052c-0.01-0.001-0.02-0.003-0.028-0.005c-0.099-0.025-0.195-0.049-0.293-0.075
		c-0.272-0.103-0.534-0.208-0.798-0.32c-0.302-0.162-0.597-0.325-0.887-0.502c-0.01-0.004-0.018-0.011-0.027-0.016
		c-1.15-0.802-2.263-1.649-3.35-2.532c-0.456-0.385-0.909-0.776-1.353-1.175c-1.529-1.374-3.882-1.397-5.335,0.125
		c-1.39,1.453-1.41,3.959,0.124,5.336c1.826,1.642,3.753,3.251,5.83,4.576c0.822,0.503,1.639,0.946,2.524,1.345
		c0.99,0.445,2.052,0.65,3.119,0.794c0.218,0.029,0.438,0.043,0.656,0.043C116.207,151.528,117.265,151.211,118.208,150.77z"/>
	<path fill="#45B3DF" d="M80.684,174.475c2.276-1.09,4.365-2.466,6.443-3.882c1.658-1.131,3.24-2.405,4.757-3.717
		c2.932-2.548,5.679-5.271,8.388-8.043c2.371-2.419,4.664-4.904,7.134-7.22c0.402-0.363,0.807-0.719,1.215-1.069
		c1.558-1.342,1.921-3.654,0.603-5.305c-1.246-1.562-3.746-1.946-5.305-0.602c-2.814,2.421-5.373,5.102-7.938,7.78
		c-2.511,2.618-5.078,5.173-7.741,7.631c-1.73,1.5-3.499,2.925-5.329,4.3c-1.602,1.083-3.213,2.129-4.923,3.045
		c-1.021,0.504-2.055,0.964-3.119,1.373c-0.718,0.241-1.436,0.462-2.17,0.646c-0.621,0.126-1.24,0.228-1.871,0.304
		c-0.471,0.025-0.937,0.035-1.408,0.031c-0.439-0.031-0.87-0.079-1.303-0.139c-0.446-0.089-0.884-0.193-1.323-0.317
		c-0.441-0.152-0.876-0.317-1.312-0.5c-0.514-0.254-1.011-0.523-1.502-0.818c-0.436-0.298-0.857-0.602-1.274-0.925
		c-0.614-0.529-1.196-1.087-1.759-1.673c-0.599-0.688-1.159-1.394-1.698-2.129c-1.924-2.85-3.482-5.922-5.067-8.968
		c-1.876-3.748-3.752-7.5-5.396-11.356c-0.96-2.253-1.885-4.511-2.785-6.788c-0.729-1.844-1.392-3.714-2.072-5.577
		c-1.071-3.136-2.114-6.276-3.131-9.429c-0.995-3.096-1.905-6.222-2.846-9.333c-0.888-2.94-1.775-5.88-2.69-8.811
		c-0.504-1.627-1.011-3.256-1.557-4.869c-0.26-0.751-0.462-1.576-0.82-2.285c-0.631-1.26-1.664-2.055-3.077-2.259
		c-2.034-0.298-3.938,1.375-4.148,3.359c-0.072,0.697,0.048,1.353,0.314,1.932c-0.007-0.01-0.01-0.019-0.016-0.029
		c0.021,0.046,0.047,0.095,0.066,0.145c1.268,3.617,2.363,7.298,3.479,10.966c1.261,4.17,2.522,8.339,3.799,12.506
		c2.38,7.75,5.105,15.41,8.293,22.862c1.604,3.744,3.372,7.414,5.2,11.055c2.14,4.267,4.294,8.635,7.197,12.447
		c2.994,3.942,7.143,6.905,11.977,8.065c1.255,0.301,2.521,0.437,3.783,0.437C73.532,177.313,77.291,176.097,80.684,174.475z"/>
	<path fill="#45B3DF" d="M111.83,316.125c-3.938,0-7.854-0.916-11.504-2.396c-1.767-0.717-3.445-1.61-5.04-2.659
		c-1.221-0.802-2.409-1.654-3.647-2.431c0.055,0.032,0.11,0.066,0.164,0.102c-0.878-0.542-1.551-1.268-1.839-2.281
		c-0.143-0.494-0.181-1.011-0.117-1.515c-0.725-1.217-0.807-2.563-0.771-3.942c0.146-5.609,0.494-11.218,0.74-16.82
		c0.263-6.775,0.436-13.551,0.4-20.326c-0.041-8.411-0.13-16.814-0.298-25.218c-0.085-4.253-0.188-8.505-0.277-12.761
		c-0.034-1.803-0.052-3.609-0.041-5.41c0.013-1.961,0.074-3.923,0.074-5.884c0-2.057,1.595-3.809,3.686-3.86
		c2.021-0.047,3.86,1.632,3.86,3.686c0,2.953-0.086,5.9-0.059,8.854c0.028,3.067,0.103,6.128,0.174,9.196
		c0.147,6.269,0.257,12.533,0.326,18.801c0.096,8.071,0.201,16.146-0.011,24.217c-0.198,7.463-0.588,14.919-0.913,22.382
		c0.837-0.428,1.67-0.855,2.51-1.268c1.452-0.707,2.947-1.407,4.457-1.98c2.713-1.036,5.454-2.076,8.381-2.291
		c2.373-0.175,4.918,0.019,7.123,0.995c1.85,0.82,3.654,1.897,4.925,3.518c1.383,1.765,2.273,3.828,2.436,6.077
		c0.15,2.073-0.175,4.316-1.186,6.154c-0.634,1.157-1.387,2.174-2.344,3.077c-0.831,0.783-1.763,1.416-2.755,1.98
		c-1.863,1.046-4.077,1.705-6.206,1.901C113.329,316.093,112.58,316.125,111.83,316.125z M112.77,308.573
		c0.517-0.054,1.025-0.13,1.536-0.225c0.405-0.099,0.803-0.209,1.199-0.336c0.377-0.149,0.744-0.311,1.112-0.485
		c0.229-0.13,0.458-0.266,0.68-0.411c0.207-0.149,0.407-0.314,0.601-0.482c0.118-0.117,0.236-0.237,0.347-0.364
		c0.089-0.114,0.173-0.231,0.254-0.349c0.072-0.133,0.147-0.266,0.22-0.399c0.061-0.146,0.114-0.288,0.165-0.434
		c0.051-0.188,0.095-0.374,0.133-0.564c0.022-0.168,0.04-0.333,0.053-0.497c0.001-0.172-0.002-0.343-0.012-0.511
		c-0.023-0.161-0.047-0.326-0.071-0.487c-0.037-0.146-0.079-0.289-0.125-0.435c-0.052-0.127-0.107-0.254-0.166-0.38
		c-0.073-0.131-0.149-0.257-0.229-0.381c-0.078-0.102-0.159-0.203-0.243-0.304c-0.125-0.127-0.253-0.251-0.385-0.368
		c-0.176-0.136-0.354-0.266-0.538-0.387c-0.181-0.107-0.365-0.209-0.554-0.301c-0.344-0.143-0.688-0.275-1.042-0.396
		c-0.186-0.051-0.373-0.095-0.562-0.133c-0.425-0.063-0.844-0.104-1.272-0.136c-0.437,0-0.869,0.013-1.305,0.038
		c-0.471,0.06-0.933,0.13-1.396,0.219c-0.934,0.24-1.843,0.528-2.757,0.823c-2.756,1.062-5.462,2.231-8.092,3.571
		c-0.255,0.13-0.509,0.26-0.764,0.39c0.125,0.083,0.252,0.168,0.379,0.247c0.789,0.479,1.599,0.906,2.432,1.3
		c0.969,0.418,1.947,0.779,2.949,1.105c1.138,0.32,2.283,0.6,3.442,0.84c0.723,0.102,1.439,0.185,2.168,0.251
		C111.542,308.608,112.153,308.605,112.77,308.573z"/>
	<path fill="#45B3DF" d="M58.949,318.131c-0.916,0-1.832-0.048-2.729-0.13c-1.803-0.165-3.574-0.526-5.251-1.229
		c-1.397-0.59-2.329-1.883-2.424-3.314c-0.615-0.387-1.122-0.951-1.468-1.674c-0.608-1.28-0.459-2.693-0.402-4.068
		c0.032-0.792,0.07-1.585,0.102-2.38c0.066-1.563,0.133-3.121,0.196-4.684c0,0.003,0,0.006,0,0.01c0.025-0.584,0-1.198,0.076-1.788
		c0.003-0.082,0.007-0.164,0.007-0.247c0,0.096-0.007,0.19-0.013,0.285c0.44-10.98,0.614-21.973,0.685-32.957
		c0.054-8.563,0.202-17.109,0.52-25.662c0.146-3.892,0.374-7.805,0.799-11.674c0.225-2.085,0.431-4.17,0.716-6.243
		c0.152-1.071,0.298-2.136,0.456-3.201c0.121-0.776,0.282-1.559,0.361-2.339c0.203-2.047,2.11-3.571,4.145-3.359
		c2.057,0.215,3.567,2.104,3.361,4.151c-0.078,0.779-0.239,1.559-0.356,2.335c-0.152,1.004-0.292,2.009-0.431,3.014
		c-0.254,1.819-0.444,3.644-0.644,5.463c-0.409,3.796-0.638,7.596-0.847,11.408c-0.133,3.59-0.26,7.178-0.342,10.771
		c-0.184,8.3-0.19,16.602-0.305,24.904c-0.107,7.897-0.266,15.798-0.589,23.691c0,0.003,0,0.006,0,0.006
		c0-0.038,0.003-0.079,0.006-0.12c-0.003,0.044-0.006,0.086-0.006,0.127c0.003,0.151,0,0.304-0.02,0.45
		c0,0.101-0.006,0.202-0.013,0.301c0.004-0.022,0.007-0.048,0.007-0.073c-0.045,1.065-0.089,2.13-0.134,3.197
		c0.33-0.177,0.666-0.345,1.008-0.51c1.03-0.481,2.092-0.926,3.168-1.306c2.003-0.707,4.02-1.395,6.104-1.832
		c3.785-0.792,8.024-1.34,11.226,1.318c0.569,0.476,1.043,1.005,1.466,1.61c0.302,0.438,0.528,0.884,0.769,1.356
		c0.469,0.915,0.582,2.019,0.629,3.022c0.106,2.193-1.126,4.234-2.544,5.79c-0.959,1.049-2.268,1.81-3.517,2.449
		c-0.726,0.374-1.465,0.691-2.229,0.97c-0.977,0.355-1.957,0.669-2.963,0.926c-1.853,0.476-3.746,0.827-5.645,1.062
		C60.924,318.077,59.937,318.131,58.949,318.131z M60.911,310.478c1.138-0.146,2.261-0.345,3.383-0.566
		c1.009-0.231,2.004-0.491,2.997-0.796c0.644-0.241,1.276-0.488,1.905-0.773c0.425-0.228,0.833-0.469,1.242-0.729
		c0.117-0.089,0.232-0.178,0.344-0.275c0.071-0.079,0.144-0.155,0.216-0.238c0.036-0.051,0.072-0.101,0.11-0.151
		c0.028-0.051,0.059-0.102,0.089-0.152c0.008-0.022,0.016-0.041,0.023-0.063l0,0c-0.01-0.02-0.021-0.038-0.03-0.058
		c-0.011-0.016-0.021-0.031-0.029-0.044c-0.018-0.019-0.034-0.038-0.051-0.057c-0.012-0.007-0.022-0.02-0.033-0.025
		c-0.034-0.022-0.065-0.042-0.099-0.063c-0.045-0.02-0.087-0.038-0.13-0.058c0.085,0.025,0.171,0.054,0.257,0.079
		c0-0.003-0.002-0.003-0.004-0.006c-0.163-0.051-0.327-0.092-0.494-0.13c-0.133-0.01-0.268-0.019-0.402-0.032
		c-0.469,0-0.933,0.02-1.4,0.048c-0.875,0.108-1.729,0.276-2.591,0.453c-1.772,0.463-3.501,0.995-5.23,1.598
		c-0.988,0.405-1.969,0.808-2.931,1.273c-0.44,0.241-0.872,0.494-1.297,0.754c0.353,0.032,0.701,0.058,1.05,0.076
		C58.847,310.566,59.875,310.548,60.911,310.478z"/>
</g>
</svg>
