<?xml version="1.0" encoding="utf-8"?>
<!-- Generator: Adobe Illustrator 16.0.0, SVG Export Plug-In . SVG Version: 6.00 Build 0)  -->
<!DOCTYPE svg PUBLIC "-//W3C//DTD SVG 1.1//EN" "http://www.w3.org/Graphics/SVG/1.1/DTD/svg11.dtd">
<svg version="1.1" id="圖層_1" xmlns="http://www.w3.org/2000/svg" xmlns:xlink="http://www.w3.org/1999/xlink" x="0px" y="0px"
	 width="180.632px" height="285.113px" viewBox="0 0 180.632 285.113" enable-background="new 0 0 180.632 285.113"
	 xml:space="preserve">
<g>
	<g>
		<path fill="#FA9DB7" d="M124.249,156.185c-1.574-0.022-3.151-0.209-4.712-0.414c-1.418-0.187-2.832-0.431-4.232-0.713
			c-2.742-0.556-5.472-1.171-8.032-2.341c-0.813-0.373-1.649-0.716-2.445-1.133c-0.787-0.418-1.578-0.836-2.367-1.254
			c-0.578-0.304-1.122-0.667-1.683-1.004c-1.04-0.636-2.063-1.276-3.063-1.969c-3.441-2.398-6.479-5.339-8.826-8.824
			c-0.749-1.111-1.392-2.285-2.001-3.479c-0.564-1.109-1.124-2.213-1.634-3.35c-0.807-1.805-1.495-3.649-1.96-5.567
			c-0.5-2.074-0.796-4.246-0.88-6.373c-0.082-2.109,0.031-4.194,0.244-6.29c0.223-2.196,0.545-4.363,1.087-6.504
			c0.511-2.042,1.245-4.023,2.04-5.968c0.813-1.985,1.731-3.904,2.872-5.722c2.205-3.522,5.181-6.532,8.502-9.005
			c0.991-0.736,2.038-1.394,3.099-2.024c0.838-0.499,1.664-1.016,2.524-1.476c5.521-2.967,11.731-4.907,18.004-5.26
			c0.695-0.038,1.392-0.072,2.089-0.093c0.522-1.142,1.761-1.794,3.052-1.653c3.048,0.335,6.091,0.712,9.12,1.187
			c1.467,0.229,2.925,0.505,4.383,0.793c1.445,0.288,2.905,0.618,4.314,1.056c1.502,0.468,2.967,1.027,4.367,1.75
			c1.258,0.646,2.467,1.359,3.646,2.15c2.601,1.748,5.09,3.625,7.433,5.71c2.298,2.045,4.472,4.243,6.365,6.675
			c0.938,1.209,1.883,2.414,2.717,3.699c0.902,1.389,1.742,2.798,2.471,4.288c1.39,2.823,2.423,5.801,3.117,8.869
			c0.657,2.925,0.842,5.883,0.582,8.868c-0.115,1.323-0.275,2.623-0.561,3.925c-0.422,1.92-1.045,3.77-1.898,5.543
			c-1.07,2.231-2.498,4.219-3.93,6.224c-0.493,0.689-1.089,1.327-1.629,1.982c-0.491,0.596-1.029,1.138-1.563,1.698
			c-0.453,0.474-0.891,0.971-1.378,1.414c-0.702,0.631-1.404,1.267-2.107,1.9c-0.587,0.527-1.233,1.002-1.849,1.494
			c-0.536,0.429-1.067,0.842-1.625,1.243c-0.76,0.542-1.509,1.098-2.292,1.609c-1.904,1.254-3.9,2.37-5.985,3.299
			c-1.265,0.569-2.545,1.076-3.854,1.516c-0.888,0.298-1.766,0.631-2.666,0.889c-1.413,0.4-2.815,0.822-4.249,1.147
			c-0.827,0.188-1.649,0.407-2.485,0.544c-0.878,0.145-1.756,0.285-2.632,0.429c-0.595,0.098-1.19,0.156-1.791,0.216
			c-0.836,0.082-1.672,0.187-2.514,0.218c-0.9,0.038-1.798,0.073-2.696,0.109c-0.2,0.007-0.404,0.009-0.604,0.009
			C125.507,156.22,124.876,156.194,124.249,156.185z M125.689,150.448c1.338,0.02,2.669-0.049,4.005-0.1
			c-0.122,0.004-0.247,0.009-0.369,0.013c1.067-0.104,2.134-0.209,3.201-0.315c0.54-0.053,1.084-0.178,1.618-0.262
			c0.439-0.074,0.88-0.145,1.32-0.216c1.044-0.238,2.089-0.478,3.134-0.713c0.986-0.222,1.956-0.547,2.925-0.832
			c2.01-0.678,4.001-1.347,5.941-2.205c1.394-0.658,2.745-1.382,4.061-2.183c1.245-0.793,2.437-1.658,3.641-2.516
			c0.791-0.569,1.538-1.218,2.299-1.836c0.746-0.673,1.488-1.347,2.235-2.021c0.356-0.318,0.667-0.696,0.996-1.04
			c0.338-0.354,0.676-0.705,1.011-1.056c0.607-0.74,1.217-1.48,1.821-2.219c0.524-0.64,0.978-1.347,1.448-2.027
			c0.585-0.889,1.13-1.796,1.63-2.736c0.355-0.72,0.676-1.452,0.962-2.201c0.285-0.845,0.521-1.7,0.721-2.569
			c0.253-1.307,0.387-2.605,0.504-3.925c0.029-0.769,0.036-1.534,0.012-2.3c-0.058-0.925-0.16-1.836-0.303-2.752
			c-0.264-1.438-0.646-2.834-1.058-4.232c-0.235-0.662-0.472-1.322-0.707-1.982c-0.211-0.6-0.486-1.183-0.737-1.765
			c-0.283-0.571-0.565-1.143-0.845-1.716c-0.278-0.567-0.63-1.107-0.947-1.658c-0.68-1.036-1.374-2.05-2.099-3.057
			c-0.715-0.989-1.507-1.923-2.291-2.858c0.007,0.007,0.011,0.014,0.016,0.021c-1.214-1.348-2.461-2.631-3.776-3.875
			c-1.052-0.931-2.109-1.845-3.203-2.727c-1.082-0.874-2.216-1.684-3.358-2.479c-1.331-0.905-2.683-1.744-4.101-2.494
			c-0.836-0.387-1.667-0.736-2.525-1.057c-1.431-0.443-2.876-0.802-4.334-1.127c-2.476-0.489-4.959-0.89-7.452-1.236
			c-0.623,0.815-1.661,1.295-2.721,1.118c-0.191-0.032-0.387-0.043-0.58-0.059c0.098,0.008,0.195,0.016,0.293,0.024
			c-1.902-0.107-3.799-0.121-5.705-0.099c-0.679,0.029-1.367,0.032-2.039,0.12c-0.915,0.12-1.831,0.239-2.747,0.359
			c-1.627,0.294-3.229,0.672-4.818,1.141c-1.738,0.554-3.425,1.217-5.09,1.965c-1.143,0.537-2.261,1.106-3.345,1.75
			c-0.643,0.382-1.285,0.766-1.928,1.147c-1.148,0.751-2.258,1.542-3.325,2.408c-0.962,0.823-1.869,1.693-2.738,2.615
			c-0.809,0.908-1.569,1.845-2.276,2.836c-0.595,0.891-1.146,1.802-1.65,2.75c-0.852,1.729-1.588,3.516-2.245,5.33
			c-0.434,1.283-0.812,2.579-1.125,3.899c-0.387,1.88-0.604,3.79-0.782,5.699c-0.113,1.472-0.153,2.943-0.106,4.417
			c0.075,1.163,0.213,2.309,0.397,3.458c0.174,0.982,0.38,1.954,0.651,2.914c0.392,1.196,0.852,2.365,1.36,3.516
			c0.854,1.84,1.767,3.659,2.818,5.395c0.553,0.849,1.143,1.665,1.775,2.456c0.832,0.971,1.719,1.885,2.652,2.756
			c1.033,0.916,2.109,1.767,3.238,2.567c1.275,0.865,2.596,1.656,3.912,2.458c0.811,0.496,1.671,0.914,2.516,1.349
			c1.218,0.556,2.423,1.118,3.672,1.594c1.082,0.371,2.181,0.674,3.292,0.94c1.127,0.229,2.247,0.467,3.381,0.658
			c1.335,0.225,2.671,0.416,4.014,0.591C123.122,150.359,124.4,150.433,125.689,150.448z"/>
		<path fill="#FA9DB7" d="M118.79,108.229c-1.491-0.227-2.726-1.743-2.411-3.276c0.5-2.445,1.073-4.876,1.65-7.307
			c0.587-2.44,1.183-4.881,1.867-7.297c0.427-1.508,2.059-2.4,3.562-1.972c1.507,0.433,2.396,2.053,1.969,3.561
			c-1.176,4.152-2.16,8.369-3.089,12.586c-0.092,0.431-0.183,0.862-0.271,1.293c-0.156,0.767-0.514,1.431-1.156,1.9
			c-0.493,0.355-1.089,0.542-1.691,0.542C119.074,108.26,118.933,108.25,118.79,108.229z"/>
		<path fill="#FA9DB7" d="M128.499,114.59c-0.759-0.116-1.449-0.538-1.9-1.158c-0.456-0.629-0.589-1.358-0.514-2.118
			c0.355-3.547,0.751-7.09,1.146-10.635c0.2-1.796,0.423-3.59,0.653-5.382c0.104-0.785,0.231-1.569,0.369-2.352
			c0.094-0.539,0.191-1.089,0.487-1.562c0.464-0.739,1.273-1.33,2.171-1.382c0.761-0.044,1.485,0.125,2.092,0.609
			c0.601,0.479,0.989,1.189,1.069,1.952c0.038,0.36,0,0.723-0.101,1.069c-0.518,2.996-0.842,6.022-1.178,9.042
			c-0.355,3.169-0.704,6.334-1.021,9.508c-0.142,1.418-1.507,2.438-2.874,2.438C128.766,114.619,128.632,114.61,128.499,114.59z"/>
		<path fill="#FA9DB7" d="M120.924,134.267c-1.484-0.425-2.43-2.061-1.97-3.559c0.524-1.72,1.729-3.225,2.907-4.539
			c0.813-0.905,1.701-1.716,2.583-2.549c0.458-0.427,0.951-0.818,1.437-1.214c0.857-0.7,1.769-1.371,2.727-1.927
			c1.909-1.107,3.954-1.823,6.1-2.318c1.66-0.385,3.371-0.6,5.061-0.816c1.662-0.211,3.348-0.351,5.025-0.289
			c1.567,0.06,2.845,1.36,2.81,2.942c-0.038,1.552-1.376,2.867-2.94,2.81c-0.423-0.016-0.836-0.016-1.256-0.009
			c-2.007,0.106-3.994,0.382-5.981,0.693c-0.982,0.187-1.951,0.385-2.918,0.658c-0.641,0.207-1.265,0.433-1.883,0.7
			c-0.411,0.204-0.813,0.42-1.214,0.651c-0.831,0.538-1.618,1.131-2.387,1.754c-0.979,0.833-1.916,1.723-2.801,2.656
			c-0.396,0.449-0.773,0.907-1.134,1.39c-0.204,0.309-0.396,0.62-0.573,0.944c-0.022,0.047-0.042,0.093-0.063,0.138
			c-0.021,0.067-0.047,0.134-0.073,0.196c0.009-0.022,0.016-0.047,0.024-0.071c-0.009,0.027-0.018,0.049-0.026,0.074
			c-0.458,1.082-1.522,1.793-2.674,1.793C121.446,134.376,121.184,134.34,120.924,134.267z"/>
		<path fill="#FA9DB7" d="M127.956,230.284c-6.177-0.307-12.354-0.76-18.479-1.648c-1.711-0.252-3.418-0.507-5.125-0.782
			c-1.865-0.298-3.743-0.627-5.562-1.151c-0.791-0.231-1.608-0.529-2.331-0.937c-0.616-0.349-1.345-0.784-1.736-1.404
			c-0.378-0.601-0.707-1.189-0.777-1.909c-0.036-0.371-0.049-0.747-0.054-1.12c-0.018-1.236,0.014-2.472,0.036-3.705
			c0.093-5.941,0.373-11.878,0.873-17.795c0.54-6.404,1.58-12.771,2.647-19.108c0.809-4.801,1.725-9.589,2.62-14.376
			c0.478-2.556,0.963-5.112,1.436-7.668c0.461-2.469,0.887-4.948,1.423-7.401c0.002-0.004,0.002-0.009,0.002-0.011
			c0.009-0.049,0.021-0.096,0.031-0.145c0.016-0.063,0.029-0.127,0.045-0.191c-0.014,0.058-0.027,0.116-0.04,0.174
			c0.369-1.454,1.7-2.48,3.24-2.248c1.498,0.227,2.717,1.741,2.412,3.276c-0.024,0.129-0.054,0.256-0.083,0.385
			c-0.587,2.82-1.084,5.659-1.615,8.488c-0.601,3.205-1.203,6.412-1.798,9.618c-1.121,6.037-2.264,12.073-3.144,18.15
			c-0.56,3.83-1.071,7.66-1.453,11.514c-0.312,3.73-0.524,7.463-0.669,11.207c-0.074,1.878-0.134,3.754-0.167,5.632
			c-0.022,1.254-0.063,2.517-0.054,3.774c0.138,0.056,0.275,0.111,0.414,0.165c0.608,0.19,1.227,0.351,1.849,0.495
			c5.412,1.024,10.855,1.736,16.332,2.313c3.521,0.299,7.042,0.576,10.573,0.681c3.732,0.111,7.457,0.143,11.193,0.044
			c2.799-0.117,5.591-0.293,8.378-0.577c2.627-0.267,5.254-0.645,7.863-1.069c-0.026,0.007-0.049,0.009-0.073,0.014
			c0.58-0.101,1.162-0.203,1.738-0.322c0.024-0.059,0.049-0.116,0.073-0.174c0.151-0.469,0.282-0.936,0.396-1.414
			c0.174-0.908,0.289-1.822,0.387-2.747c0.103-1.52,0.216-3.04,0.263-4.565c0.054-1.749,0.071-3.489,0.071-5.24
			c0-3.161-0.12-6.322-0.227-9.478c-0.261-6.104-0.547-12.207-1.001-18.297c-0.453-6.072-0.925-12.163-1.733-18.199
			c-0.209-1.551-0.44-3.094-0.689-4.637c-0.551-3.245-1.102-6.485-2.009-9.653c-0.432-1.505,0.66-3.114,2.132-3.463
			c0.727-0.173,1.504-0.056,2.145,0.331c0.683,0.409,1.104,1.049,1.32,1.8c0.704,2.463,1.195,4.963,1.636,7.481
			c0.522,2.987,0.996,5.977,1.367,8.989c0.378,3.023,0.655,6.059,0.934,9.093c0.262,2.887,0.502,5.781,0.693,8.675
			c0.418,6.323,0.775,12.654,0.991,18.99c0.227,6.622,0.432,13.296-0.3,19.9c-0.196,1.791-0.561,3.636-1.35,5.27
			c-0.354,0.725-0.851,1.383-1.478,1.894c-0.688,0.561-1.472,0.858-2.33,1.054c-1.373,0.313-2.787,0.5-4.178,0.707
			c-2.954,0.434-5.913,0.796-8.887,1.049c-2.972,0.254-5.966,0.365-8.948,0.402c-0.93,0.012-1.858,0.021-2.787,0.021
			C132.246,230.431,130.099,230.391,127.956,230.284z"/>
		<path fill="#FA9DB7" d="M90.23,154.776c-1.178-0.103-2.315-0.605-3.24-1.32c-0.871-0.671-1.531-1.554-2.074-2.499
			c-0.531-0.931-0.784-1.987-1-3.023c-0.251-1.209-0.335-2.449-0.331-3.685c0-1.305,0.022-2.618,0.195-3.917
			c0.169-1.315,0.352-2.64,0.665-3.934c0.204-0.84,0.425-1.663,0.735-2.474c0.383-0.996,1.378-1.754,2.432-1.854
			c1.559-0.148,2.996,0.992,3.161,2.559c0.063,0.6-0.071,1.187-0.352,1.689c-0.009,0.022-0.018,0.044-0.026,0.067
			c-0.143,0.476-0.263,0.954-0.378,1.438c-0.282,1.447-0.498,2.887-0.641,4.354c-0.035,1.009-0.042,2.011-0.021,3.018
			c0.04,0.478,0.093,0.947,0.164,1.418c0.078,0.382,0.16,0.76,0.263,1.136c0.04,0.114,0.082,0.225,0.129,0.333
			c0.058,0.123,0.122,0.238,0.19,0.354c0.033,0.049,0.067,0.098,0.103,0.145c0.098,0.111,0.2,0.218,0.307,0.322
			c0.033,0.027,0.067,0.056,0.103,0.084c0.044,0.013,0.089,0.027,0.133,0.038c0.12,0.02,0.24,0.042,0.36,0.056
			c0.016,0,0.031,0,0.049,0c0.078-0.006,0.156-0.013,0.231-0.027c0.178-0.035,0.354-0.08,0.529-0.129
			c1.3-0.427,2.554-0.96,3.803-1.516c0.758-0.351,1.507-0.716,2.254-1.084c1.4-0.705,3.136-0.24,3.896,1.169
			c0.727,1.349,0.229,3.196-1.172,3.898c-2.209,1.105-4.468,2.169-6.819,2.941c-0.953,0.313-1.892,0.478-2.864,0.478
			C90.756,154.811,90.498,154.8,90.23,154.776z"/>
		<path fill="#FA9DB7" d="M163.994,200.405c-0.76-0.018-1.488-0.34-2.014-0.889c-1.042-1.091-1.093-3.042,0.094-4.065
			c2.814-2.427,5.377-5.108,7.893-7.835c1.31-1.465,2.567-2.958,3.719-4.554c0.229-0.365,0.447-0.731,0.653-1.111
			c0.109-0.231,0.209-0.465,0.3-0.707c0.056-0.169,0.104-0.342,0.149-0.516c0.024-0.133,0.044-0.269,0.063-0.405
			c0.03-0.56,0.04-1.12,0.03-1.685c-0.013-0.213-0.035-0.431-0.066-0.645c-0.098-0.529-0.22-1.051-0.359-1.569
			c-0.263-0.802-0.552-1.583-0.86-2.367c-0.463-0.982-0.93-1.962-1.442-2.923c-0.641-1.191-1.303-2.36-1.992-3.529
			c-0.925-1.432-1.845-2.867-2.876-4.226c-0.564-0.74-1.103-1.509-1.696-2.227c-0.562-0.682-1.127-1.365-1.691-2.047
			c-0.671-0.747-1.347-1.494-2.022-2.243c-0.618-0.687-1.284-1.336-1.913-2.021c-0.731-0.796-1.461-1.591-2.172-2.407
			c-0.827-0.949-1.691-1.909-2.336-2.994c-0.646-1.096-0.347-2.587,0.549-3.445c0.947-0.905,2.341-1.009,3.463-0.387
			c0.24,0.131,0.438,0.309,0.643,0.482c0.394,0.331,0.687,0.749,0.864,1.202c0.231,0.289,0.472,0.574,0.709,0.86
			c2.074,2.378,4.271,4.641,6.384,6.986c0.533,0.591,1.021,1.231,1.529,1.845c0.444,0.538,0.876,1.076,1.298,1.631
			c0.951,1.256,1.923,2.51,2.78,3.836c0.921,1.418,1.808,2.85,2.665,4.31c0.756,1.287,1.425,2.651,2.061,4.005
			c0.758,1.612,1.39,3.25,1.827,4.981c0.342,1.35,0.432,2.721,0.402,4.108c-0.031,1.72-0.456,3.356-1.26,4.881
			c-0.925,1.751-2.184,3.345-3.475,4.845c-1.096,1.267-2.223,2.505-3.374,3.723c-2.069,2.194-4.186,4.332-6.473,6.306
			c-0.571,0.489-1.227,0.796-1.984,0.796C164.039,200.407,164.017,200.407,163.994,200.405z"/>
		<path fill="#FA9DB7" d="M78.535,200.333c-1.623-0.042-3.308-0.544-4.619-1.518c-0.72-0.529-1.32-1.126-1.84-1.854
			c-0.538-0.751-0.862-1.649-1.071-2.542c-0.467-2.029-0.134-4.217,0.249-6.235c0.587-3.119,1.969-5.995,3.376-8.813
			c1.447-2.9,3.061-5.708,4.724-8.486c0.822-1.376,1.691-2.725,2.549-4.081c0.812-1.283,1.665-2.556,2.55-3.792
			c0.838-1.173,1.645-2.378,2.521-3.525c0.922-1.209,1.812-2.447,2.78-3.619c2.001-2.423,4.076-4.792,6.015-7.264
			c0.6-0.769,1.178-1.654,1.947-2.263c1.231-0.974,3.125-0.583,4.016,0.645c0.443,0.609,0.625,1.378,0.514,2.121
			c-0.111,0.729-0.493,1.331-1.042,1.8c0.058-0.049,0.113-0.096,0.171-0.145c0.085-0.091,0.164-0.18,0.249-0.269
			c-0.554,0.634-1.058,1.316-1.576,1.979c-0.504,0.645-1.033,1.273-1.549,1.909c-1.087,1.34-2.233,2.634-3.334,3.963
			c-2.143,2.601-4.114,5.319-6.072,8.06c-1.519,2.26-3.052,4.516-4.452,6.854c-1.547,2.581-3.031,5.184-4.45,7.839
			c-0.894,1.794-1.747,3.59-2.516,5.441c-0.134,0.402-0.267,0.807-0.402,1.209c-0.131,0.396-0.216,0.811-0.313,1.22
			c-0.129,0.702-0.244,1.398-0.342,2.105c-0.036,0.462-0.063,0.922-0.063,1.385c0.018,0.249,0.044,0.496,0.078,0.742
			c0.015,0.069,0.033,0.138,0.049,0.207c0.016,0.047,0.033,0.089,0.051,0.134c0.035,0.06,0.068,0.12,0.103,0.18
			c0.026,0.036,0.049,0.067,0.073,0.103c0.047,0.051,0.096,0.102,0.14,0.153c0.063,0.051,0.125,0.1,0.187,0.149
			c0.107,0.064,0.214,0.129,0.32,0.191c0.12,0.056,0.24,0.107,0.364,0.151c0.014,0.004,0.022,0.004,0.036,0.009
			c-0.036-0.014-0.071-0.027-0.104-0.038c0.084,0.021,0.167,0.042,0.251,0.064c0.127,0.024,0.253,0.045,0.378,0.06
			c0.284,0.016,0.564,0.025,0.849,0.025c0.449-0.031,0.892-0.085,1.336-0.151c0.651-0.133,1.291-0.298,1.932-0.467
			c1.014-0.331,1.998-0.696,2.982-1.107c1.578-0.738,3.102-1.545,4.584-2.458c1.216-0.778,2.396-1.6,3.559-2.458
			c1.262-0.929,3.104-0.616,4.018,0.645c0.925,1.276,0.618,3.089-0.646,4.019c-2.318,1.703-4.723,3.348-7.311,4.621
			c-3.38,1.66-7.048,3.107-10.868,3.109C78.786,200.34,78.66,200.336,78.535,200.333z"/>
		<path fill="#FA9DB7" d="M87.61,139.417c-1.514-0.436-2.392-2.052-1.972-3.559c0.223-0.798,0.798-1.36,1.4-1.887
			c0.46-0.4,0.942-0.778,1.438-1.14c0.936-0.687,1.904-1.335,2.887-1.956c0.649-0.412,1.343-0.631,2.12-0.514
			c0.759,0.113,1.447,0.536,1.896,1.16c0.876,1.209,0.68,3.176-0.645,4.014c-1.303,0.822-2.587,1.685-3.785,2.654
			c-0.12,0.103-0.235,0.205-0.347,0.312c-0.549,0.64-1.374,1.022-2.223,1.022C88.124,139.524,87.866,139.488,87.61,139.417z"/>
		<path fill="#FA9DB7" d="M103.92,284.877c-1.547-0.352-3.058-1.103-4.32-2.059c-0.613-0.467-1.188-0.969-1.678-1.563
			c-0.601-0.729-1.027-1.495-1.395-2.36c-0.582-1.357-0.604-3.024-0.129-4.412c0.205-0.6,0.525-1.106,0.887-1.627
			c0.421-0.604,1.069-1.068,1.641-1.524c1.322-1.049,2.905-1.658,4.559-1.951c3.17-0.564,6.33,0.24,9.411,1.033
			c-0.009-0.838-0.022-1.678-0.022-2.514c0-1.541,0.022-3.081,0.04-4.621c0.036-2.9,0.085-5.804,0.134-8.706
			c0.111-6.361,0.178-12.723,0.277-19.084c0.021-1.223,0.038-2.445,0.082-3.663c0.027-0.687,0.043-1.373,0.08-2.059
			c0.054-0.986,0.003-2.084,0.4-3.005c0.396-0.915,1.325-1.649,2.338-1.718c1.565-0.104,2.996,0.956,3.166,2.559
			c0.03,0.315,0.009,0.629-0.063,0.934c-0.005,0.026-0.009,0.053-0.014,0.08c-0.223,3.178-0.227,6.372-0.28,9.555
			c-0.044,2.909-0.068,5.816-0.108,8.727c-0.087,6.154-0.216,12.303-0.282,18.455c-0.022,2.195-0.019,4.39,0,6.585
			c0.004,0.763-0.052,1.576-0.315,2.308c0.844,0.713,1.253,1.892,0.934,3.003c-0.141,0.484-0.299,0.951-0.48,1.415
			c-0.229,0.574-0.604,1.088-0.969,1.576c-0.512,0.688-1.196,1.268-1.892,1.756c-1.149,0.81-2.358,1.423-3.681,1.9
			c-1.266,0.456-2.555,0.785-3.875,1.016c-0.733,0.129-1.482,0.2-2.231,0.2C105.39,285.113,104.645,285.042,103.92,284.877z
			 M106.263,279.361c0.36-0.022,0.721-0.058,1.081-0.103c0.725-0.138,1.434-0.302,2.145-0.504c0.587-0.198,1.162-0.402,1.735-0.636
			c0.276-0.143,0.547-0.287,0.818-0.442c0.312-0.205,0.613-0.42,0.911-0.645c0.064-0.059,0.127-0.118,0.187-0.178
			c0.094-0.111,0.183-0.221,0.27-0.334c0.007-0.014,0.016-0.021,0.022-0.035c-0.28-0.064-0.557-0.138-0.823-0.205
			c-0.387-0.093-0.773-0.206-1.157-0.311c-0.536-0.138-1.072-0.27-1.609-0.398c-1.125-0.242-2.25-0.473-3.393-0.604
			c-0.387-0.02-0.767-0.024-1.153-0.018c-0.237,0.016-0.478,0.042-0.716,0.073c-0.319,0.063-0.633,0.138-0.949,0.225
			c-0.146,0.051-0.288,0.104-0.431,0.164c-0.103,0.052-0.204,0.105-0.302,0.163c-0.325,0.222-0.637,0.453-0.938,0.697
			c-0.044,0.045-0.089,0.085-0.134,0.127c0,0.014-0.002,0.024-0.002,0.038c0.002,0.044,0.007,0.089,0.012,0.131
			c0.009,0.058,0.021,0.118,0.03,0.176c-0.026-0.098-0.058-0.195-0.086-0.291c-0.003,0-0.003,0.002-0.003,0.002
			c0.049,0.185,0.111,0.364,0.183,0.542c0.063,0.111,0.122,0.221,0.183,0.331c0.093,0.136,0.193,0.268,0.3,0.394
			c-0.016-0.013-0.029-0.024-0.042-0.038c0.013,0.014,0.026,0.025,0.042,0.038c0.047,0.054,0.091,0.109,0.14,0.162
			c-0.04-0.046-0.08-0.095-0.12-0.142c0.009,0.007,0.014,0.011,0.019,0.016c-0.005-0.005-0.01-0.009-0.019-0.016
			c-0.042-0.052-0.084-0.104-0.129-0.158c0.103,0.103,0.2,0.205,0.301,0.307c0.131,0.111,0.265,0.218,0.401,0.32
			c0.358,0.238,0.725,0.458,1.104,0.662c0.248,0.116,0.497,0.223,0.751,0.32c0.098,0.031,0.2,0.058,0.298,0.084
			c0.155,0.027,0.311,0.052,0.467,0.069C105.856,279.356,106.059,279.363,106.263,279.361z"/>
		<path fill="#FA9DB7" d="M152.557,281.501c-1.549-0.153-3.076-0.531-4.55-1.029c-0.74-0.253-1.362-0.702-1.74-1.402
			c-0.22-0.407-0.333-0.862-0.343-1.32c-0.117-0.021-0.237-0.047-0.357-0.08c-0.713-0.202-1.376-0.585-1.815-1.191
			c-0.421-0.575-0.634-1.245-0.77-1.937c-0.143-0.715-0.187-1.453-0.265-2.178c-0.131-1.294-0.206-2.596-0.3-3.89
			c-0.436-6.067-0.944-12.127-1.596-18.175c-0.358-3.327-0.747-6.652-1.132-9.978c-0.38-3.292-0.775-6.579-1.265-9.857
			c-0.098-0.522-0.187-1.047-0.326-1.561c0.011,0.04,0.024,0.08,0.037,0.122c-0.371-1.418,0.325-2.94,1.741-3.476
			c1.438-0.545,3.193,0.187,3.714,1.669c0.227,0.646,0.322,1.34,0.453,2.012c0.169,0.885,0.275,1.782,0.409,2.674
			c0.209,1.38,0.364,2.771,0.529,4.158c0.38,3.201,0.748,6.406,1.111,9.613c0.684,5.999,1.269,12.005,1.737,18.025
			c0.153,2.01,0.271,4.025,0.432,6.037c0.313-0.287,0.629-0.571,0.946-0.852c1.191-1.053,2.403-2.08,3.647-3.066
			c1.216-0.968,2.432-1.921,3.764-2.726c1.322-0.796,3.014-1.289,4.541-0.88c1.446,0.387,2.549,1.269,3.47,2.423
			c0.831,1.047,1.385,2.423,1.666,3.716c0.245,1.12,0.405,2.231,0.365,3.379c-0.045,1.329-0.533,2.587-1.036,3.796
			c-0.425,1.019-0.942,2.014-1.725,2.81c-1.045,1.054-2.362,1.742-3.745,2.254c-0.898,0.333-1.852,0.493-2.794,0.653
			c-1.129,0.195-2.268,0.324-3.407,0.324C153.488,281.57,153.023,281.547,152.557,281.501z M154.17,275.825
			c0.721-0.042,1.432-0.122,2.147-0.225c0.556-0.098,1.107-0.205,1.656-0.347c0.265-0.089,0.526-0.187,0.784-0.296
			c0.233-0.113,0.463-0.233,0.689-0.362c0.071-0.051,0.146-0.104,0.218-0.16c0.04-0.035,0.084-0.075,0.124-0.117
			c0.031-0.036,0.059-0.071,0.087-0.109c0.042-0.066,0.082-0.133,0.122-0.2c0.245-0.514,0.463-1.035,0.672-1.564
			c0.075-0.235,0.146-0.476,0.211-0.716c0.016-0.084,0.026-0.167,0.037-0.249c0.005-0.096,0.005-0.191,0.005-0.284
			c-0.024-0.34-0.066-0.676-0.115-1.014c-0.063-0.284-0.125-0.564-0.196-0.849c-0.075-0.214-0.153-0.425-0.239-0.636
			c-0.089-0.179-0.185-0.35-0.285-0.521c-0.049-0.066-0.098-0.133-0.146-0.2c-0.026-0.026-0.051-0.056-0.078-0.084
			c-0.006,0.004-0.015,0.007-0.021,0.009c-0.202,0.104-0.402,0.213-0.599,0.326c-1.544,1.034-2.986,2.217-4.423,3.396
			c-1.115,0.958-2.212,1.936-3.298,2.923c-0.271,0.245-0.543,0.493-0.81,0.742c0.343,0.098,0.689,0.187,1.04,0.267
			c0.522,0.107,1.043,0.188,1.574,0.247C153.608,275.818,153.889,275.823,154.17,275.825z"/>
	</g>
	<g>
		<path fill="#FA9DB7" d="M54.726,99.877c-1.173-0.011-2.291-0.169-3.436-0.422c-0.979-0.216-1.935-0.618-2.832-1.048
			c-0.878-0.418-1.716-0.926-2.505-1.494c-1.643-1.182-3.029-2.618-4.228-4.247c-1.256-1.71-2.141-3.652-2.7-5.69
			c-0.592-2.154-0.521-4.506-0.049-6.671c0.448-2.047,1.209-3.986,2.427-5.703c0.645-0.915,1.378-1.742,2.207-2.492
			c0.754-0.681,1.589-1.241,2.452-1.776c1.782-1.108,3.815-1.888,5.854-2.368c1.127-0.266,2.281-0.311,3.43-0.29
			c0.818,0.014,1.559,0.391,2.072,0.968c0.491-0.12,0.998-0.1,1.511,0.019c1.427,0.326,2.867,0.68,4.226,1.233
			c1.338,0.543,2.543,1.256,3.717,2.092c0.606,0.432,1.148,0.967,1.671,1.492c0.827,0.829,1.409,1.825,1.974,2.836
			c0.771,1.374,1.348,2.87,1.792,4.375c0.271,0.91,0.448,1.837,0.573,2.778c0.204,1.565,0.004,3.155-0.521,4.636
			c-0.269,0.748-0.551,1.478-0.899,2.193c-0.794,1.623-1.834,3.021-3.159,4.247c-0.911,0.844-1.991,1.572-3.043,2.223
			c-1.498,0.931-3.109,1.62-4.812,2.077c-1.067,0.286-2.127,0.577-3.219,0.775c-0.789,0.143-1.603,0.257-2.411,0.257
			C54.788,99.877,54.757,99.877,54.726,99.877z M54.755,94.126c0.462-0.029,0.918-0.081,1.376-0.147
			c1.096-0.21,2.178-0.496,3.249-0.808c0.507-0.164,0.998-0.347,1.489-0.552c0.494-0.238,0.972-0.499,1.44-0.781
			c0.629-0.416,1.245-0.85,1.841-1.311c0.282-0.242,0.549-0.492,0.813-0.757c0.22-0.252,0.429-0.51,0.633-0.776
			c0.187-0.286,0.36-0.576,0.527-0.875c0.227-0.469,0.439-0.939,0.64-1.423c0.129-0.373,0.256-0.745,0.362-1.127
			c0.021-0.107,0.036-0.212,0.052-0.319c0.013-0.279,0.018-0.554,0.011-0.833c-0.018-0.239-0.042-0.478-0.078-0.718
			c-0.122-0.639-0.284-1.263-0.464-1.887c-0.193-0.537-0.398-1.064-0.618-1.591c-0.336-0.71-0.693-1.407-1.096-2.084
			c-0.103-0.149-0.209-0.292-0.32-0.435c-0.173-0.189-0.351-0.37-0.531-0.552c-0.354-0.307-0.718-0.596-1.096-0.874
			c-0.396-0.249-0.791-0.481-1.2-0.701c-0.432-0.197-0.867-0.375-1.312-0.542c-1.031-0.329-2.076-0.601-3.132-0.842
			c-0.553-0.126-1.02-0.439-1.367-0.854c-0.244,0.063-0.5,0.095-0.76,0.09c-0.331-0.008-0.662-0.009-0.991-0.001
			c-0.187,0.014-0.373,0.033-0.558,0.059c-0.447,0.087-0.883,0.188-1.32,0.307c-0.623,0.205-1.228,0.438-1.829,0.698
			c-0.649,0.308-1.276,0.642-1.89,1.012c-0.313,0.214-0.618,0.435-0.92,0.668c-0.329,0.287-0.641,0.583-0.942,0.898
			c-0.245,0.292-0.476,0.588-0.7,0.894c-0.202,0.311-0.39,0.627-0.571,0.95c-0.185,0.383-0.352,0.771-0.503,1.168
			c-0.16,0.5-0.298,1.003-0.415,1.514c-0.076,0.431-0.136,0.859-0.183,1.292c-0.02,0.416-0.026,0.825-0.018,1.238
			c0.016,0.228,0.038,0.455,0.071,0.682c0.077,0.397,0.169,0.787,0.273,1.178c0.151,0.455,0.319,0.897,0.511,1.336
			c0.236,0.476,0.489,0.934,0.763,1.387c0.331,0.498,0.678,0.975,1.052,1.44c0.377,0.436,0.775,0.848,1.193,1.243
			c0.375,0.322,0.762,0.629,1.162,0.921c0.463,0.305,0.934,0.588,1.423,0.852c0.404,0.19,0.813,0.365,1.229,0.522
			c0.362,0.112,0.728,0.209,1.096,0.297c0.28,0.052,0.561,0.093,0.845,0.121C54.246,94.121,54.502,94.129,54.755,94.126z"/>
		<path fill="#FA9DB7" d="M28.379,88.575c-2.045-0.15-4.055-0.429-6.055-0.886c-4.114-0.937-8.033-2.804-11.265-5.521
			c-1.583-1.333-3.005-2.858-4.35-4.427c-1.496-1.746-2.585-3.738-3.586-5.789c-0.351-0.724-0.655-1.47-0.96-2.214
			c-0.476-1.155-0.769-2.348-1.022-3.566c-0.631-3.07-1.005-6.232-1.085-9.365c-0.084-3.179-0.102-6.364,0.145-9.537
			c0.249-3.234,0.714-6.426,1.425-9.59c0.85-3.764,1.89-7.513,3.438-11.057c1.318-3.016,3.036-5.879,5.097-8.446
			c0.571-0.712,1.132-1.436,1.733-2.122c1.447-1.651,3.027-3.182,4.715-4.586c1.056-0.879,2.136-1.717,3.283-2.474
			c0.777-0.515,1.54-1.09,2.355-1.552c0.747-0.417,1.494-0.838,2.238-1.258c0.585-0.33,1.181-0.609,1.792-0.893
			c0.753-0.35,1.5-0.757,2.275-1.056c0.825-0.32,1.651-0.639,2.474-0.958c3.313-1.281,6.784-2.067,10.296-2.553
			c1.063-0.146,2.125-0.243,3.194-0.338c0.795-0.069,1.598-0.172,2.396-0.209C48.449,0.112,49.992,0,51.529,0
			c1.605,0,3.201-0.004,4.802,0.06c1.657,0.068,3.303,0.169,4.961,0.299c1.685,0.133,3.356,0.338,5.032,0.54
			c1.542,0.185,3.069,0.474,4.601,0.73c1.484,0.247,2.952,0.635,4.423,0.961c1.014,0.228,2.019,0.567,3.005,0.89
			c0.947,0.31,1.881,0.666,2.806,1.034c1.08,0.432,2.115,0.94,3.16,1.448c4.219,2.054,8.197,4.564,11.629,7.78
			c3.241,3.034,6.441,6.284,8.291,10.382c0.934,2.072,1.611,4.221,2.149,6.425c0.373,1.546,0.582,3.138,0.8,4.712
			c0.195,1.4,0.373,2.805,0.467,4.214c0.103,1.523,0.2,3.067,0.066,4.595c-0.068,0.807-0.129,1.611-0.244,2.416
			c-0.12,0.848-0.258,1.681-0.416,2.524c-0.286,1.55-0.676,3.075-1.091,4.596c-0.387,1.427-0.871,2.856-1.39,4.238
			c-0.577,1.534-1.202,3.025-1.896,4.506c-1.322,2.818-3.063,5.419-4.972,7.868c-1.905,2.445-4.146,4.58-6.5,6.583
			c-2.367,2.014-4.985,3.708-7.761,5.101c-3.405,1.712-7.042,2.985-10.641,4.219c-1.482,0.508-3.141-0.169-3.709-1.67
			c-0.543-1.429,0.187-3.202,1.667-3.71c3-1.028,5.99-2.104,8.886-3.393c1.298-0.615,2.557-1.278,3.797-2.001
			c1.36-0.88,2.66-1.823,3.932-2.83c0.735-0.624,1.478-1.245,2.171-1.917c0.766-0.743,1.508-1.498,2.241-2.27
			c0.538-0.628,1.069-1.252,1.575-1.904c0.516-0.662,1.008-1.339,1.496-2.02c0.472-0.726,0.94-1.447,1.376-2.195
			c0.387-0.661,0.742-1.332,1.094-2.009c0.702-1.495,1.338-3,1.923-4.542c0.396-1.153,0.771-2.308,1.136-3.472
			c0.359-1.151,0.617-2.336,0.88-3.514c0.227-1.232,0.432-2.458,0.604-3.701c-0.009,0.121-0.022,0.246-0.031,0.367
			c0.058-0.688,0.132-1.374,0.153-2.063c0.021-0.706,0.016-1.404,0.002-2.108c-0.152-2.3-0.433-4.573-0.753-6.857
			c-0.153-0.898-0.307-1.792-0.522-2.681c-0.24-0.983-0.529-1.946-0.827-2.919c0.038,0.12,0.073,0.239,0.109,0.358
			c-0.313-0.899-0.655-1.776-1.038-2.645c-0.32-0.665-0.669-1.308-1.049-1.939c-0.396-0.595-0.822-1.162-1.268-1.722
			c-0.866-0.996-1.738-1.964-2.653-2.917c-0.85-0.889-1.763-1.717-2.665-2.556c-1.036-0.884-2.094-1.729-3.205-2.514
			c-1.571-1.06-3.21-1.987-4.856-2.929c-0.66-0.324-1.32-0.645-1.98-0.966c-1.27-0.616-2.561-1.158-3.881-1.647
			c-1.465-0.51-2.947-0.956-4.463-1.292c-0.862-0.192-1.726-0.385-2.588-0.576c-1.373-0.23-2.747-0.459-4.12-0.687
			c-0.601-0.101-1.219-0.149-1.823-0.22c-0.765-0.092-1.533-0.185-2.298-0.276c-1.791-0.14-3.581-0.28-5.379-0.352
			c-1.965-0.078-3.923-0.083-5.893-0.083c-1.193,0.048-2.394,0.067-3.58,0.17c-2.313,0.204-4.61,0.396-6.908,0.759
			c-1.734,0.313-3.441,0.72-5.133,1.223c-1.558,0.501-3.073,1.109-4.601,1.699c-0.936,0.436-1.869,0.871-2.803,1.307
			c-0.453,0.211-0.882,0.494-1.315,0.737c-0.479,0.27-0.956,0.539-1.437,0.81c-0.604,0.4-1.209,0.8-1.812,1.199
			c-1.06,0.703-2.064,1.47-3.047,2.279c-1.258,1.083-2.449,2.223-3.581,3.438c-1.145,1.285-2.229,2.645-3.228,4.051
			c-0.84,1.243-1.598,2.529-2.291,3.86c-0.656,1.322-1.231,2.669-1.74,4.056c-0.522,1.495-0.98,3.014-1.394,4.542
			c-0.376,1.397-0.693,2.803-1.014,4.215c-0.181,1.025-0.364,2.048-0.547,3.073c-0.169,0.968-0.249,1.958-0.369,2.932
			c-0.138,1.771-0.275,3.539-0.289,5.317c-0.013,1.908,0.003,3.806,0.049,5.714c0.08,1.124,0.147,2.245,0.276,3.365
			c0.142,1.216,0.315,2.42,0.506,3.632c0.17,0.828,0.329,1.656,0.552,2.474c0.302,0.917,0.685,1.803,1.076,2.685
			c0.5,1.025,1.013,2.037,1.604,3.012c0.36,0.54,0.733,1.062,1.129,1.573c0.355,0.426,0.707,0.862,1.094,1.257
			c0.765,0.777,1.527,1.549,2.32,2.294c0.589,0.518,1.198,1.002,1.832,1.466c0.64,0.43,1.298,0.822,1.978,1.188
			c0.979,0.482,1.974,0.915,2.992,1.298c0.995,0.336,2.005,0.614,3.029,0.85c1.162,0.238,2.334,0.387,3.512,0.542
			c1.229,0.089,2.456,0.17,3.689,0.22c1.271,0.052,2.536,0.045,3.808,0.041c1.4-0.079,2.796-0.161,4.183-0.368
			c0.252-0.05,0.501-0.104,0.749-0.169c0.061-0.021,0.118-0.043,0.176-0.065c0.027-0.015,0.054-0.029,0.08-0.043
			c1.355-0.787,3.174-0.173,3.896,1.174c0.758,1.413,0.183,3.109-1.174,3.896c-1.584,0.921-3.559,0.998-5.341,1.185
			c-1.645,0.174-3.32,0.143-4.977,0.15c-0.042,0-0.087,0.001-0.129,0.001C31.243,88.787,29.806,88.679,28.379,88.575z"/>
		<path fill="#FA9DB7" d="M47.104,47.666c-0.62-0.494-0.954-1.179-1.069-1.95c-0.211-1.4-0.458-2.816-0.554-4.23
			c-0.1-1.434,0.345-2.883,1.552-3.759c0.571-0.416,1.275-0.62,1.977-0.636c0.319-0.009,0.633-0.003,0.951-0.012
			c0.511-0.027,1.018-0.069,1.524-0.143c0.476-0.087,0.938-0.191,1.404-0.319c0.578-0.182,1.146-0.382,1.71-0.607
			c0.377-0.186,0.749-0.379,1.117-0.584c0.352-0.236,0.694-0.48,1.031-0.737c0.679-0.613,1.325-1.252,1.961-1.913
			c0.269-0.314,0.524-0.637,0.767-0.97c0.214-0.335,0.409-0.671,0.599-1.019c0.119-0.251,0.229-0.505,0.328-0.763
			c0.165-0.487,0.305-0.976,0.427-1.477c0.099-0.563,0.187-1.122,0.247-1.689c0.016-0.249,0.02-0.497,0.018-0.746
			c-0.02-0.34-0.053-0.672-0.1-1.01c-0.129-0.687-0.28-1.366-0.469-2.039c-0.08-0.238-0.172-0.473-0.27-0.704
			c-0.08-0.167-0.169-0.329-0.262-0.488c-0.071-0.11-0.147-0.216-0.228-0.319c-0.104-0.116-0.211-0.227-0.324-0.333
			c-0.131-0.115-0.267-0.225-0.409-0.329c-0.111-0.074-0.227-0.145-0.342-0.211c-0.307-0.143-0.613-0.269-0.93-0.389
			c-0.199-0.065-0.404-0.124-0.613-0.174c-0.852-0.167-1.705-0.287-2.567-0.395c-0.411-0.024-0.817-0.036-1.229-0.034
			c-0.378,0.026-0.751,0.063-1.127,0.115c-0.554,0.099-1.103,0.208-1.647,0.358c-0.253,0.092-0.502,0.191-0.751,0.298
			c-0.204,0.101-0.409,0.209-0.606,0.323c-0.785,0.503-1.55,1.03-2.281,1.614c-0.246,0.219-0.484,0.442-0.72,0.674
			c-0.22,0.252-0.429,0.51-0.629,0.779c-0.094,0.146-0.183,0.293-0.265,0.445c-0.269,0.546-0.518,1.102-0.744,1.669
			c-0.083,0.257-0.156,0.512-0.223,0.775c0,0.01-0.002,0.02-0.004,0.03c-0.014,1.557-1.41,2.818-2.941,2.783
			c-1.594-0.036-2.81-1.375-2.81-2.941c0-1.124,0.421-2.228,0.825-3.256c0.526-1.344,1.244-2.601,2.153-3.722
			c0.914-1.125,2.092-2.031,3.276-2.858c0.963-0.672,1.958-1.256,3.027-1.744c1.136-0.517,2.421-0.767,3.654-0.938
			c1.514-0.211,3.005-0.17,4.519,0.017c0.991,0.121,1.967,0.308,2.934,0.543c1.848,0.451,3.466,1.475,4.806,2.792
			c1.27,1.243,1.938,2.959,2.423,4.626c0.373,1.299,0.629,2.73,0.622,4.076c-0.004,1.255-0.146,2.506-0.422,3.729
			c-0.223,0.98-0.524,1.917-0.905,2.846c-0.424,1.036-1.044,1.977-1.688,2.887c-0.543,0.763-1.234,1.473-1.91,2.124
			c-0.613,0.596-1.23,1.189-1.913,1.71c-1.221,0.937-2.55,1.623-3.972,2.198c-1.096,0.442-2.278,0.734-3.437,0.935
			c-0.4,0.07-0.8,0.119-1.196,0.154c0.107,0.798,0.236,1.594,0.356,2.385c0.235,1.55-1.054,3.005-2.561,3.162
			c-0.099,0.011-0.198,0.015-0.298,0.015C48.251,48.291,47.613,48.072,47.104,47.666z"/>
		<path fill="#FA9DB7" d="M47.658,52.098c0.037-1.594,1.373-2.808,2.942-2.808c1.567,0,2.845,1.401,2.81,2.944
			c-0.038,1.592-1.374,2.808-2.943,2.808C48.9,55.042,47.622,53.641,47.658,52.098z"/>
		<path fill="#FA9DB7" d="M57.02,127.037c-0.902-0.205-1.7-0.529-2.512-0.965c-0.786-0.426-1.518-1.064-2.151-1.687
			c-1.273-1.251-2.46-2.674-3.143-4.346c-0.352-0.858-0.627-1.758-0.745-2.685c-0.142-1.143-0.122-2.254-0.011-3.396
			c0.169-1.78,0.916-3.503,1.987-4.912c0.838-1.1,2.063-1.787,3.214-2.505c1.324-0.827,2.796-1.313,4.339-1.514
			c0.662-0.084,1.404-0.06,2.096,0.106c0.606-0.48,1.4-0.725,2.207-0.591c0.775,0.124,1.545,0.289,2.285,0.56
			c0.685,0.253,1.331,0.569,1.969,0.929c0.881,0.504,1.681,1.149,2.365,1.896c0.938,1.016,1.447,2.261,1.86,3.559
			c0.478,1.509,0.723,3.054,0.655,4.641c-0.07,1.614-0.671,3.132-1.439,4.525c-0.887,1.609-2.201,2.947-3.614,4.089
			c-1.35,1.092-2.965,1.823-4.642,2.245c-0.784,0.2-1.62,0.298-2.453,0.298C58.518,127.286,57.749,127.201,57.02,127.037z
			 M59.407,121.516c0.258-0.018,0.509-0.044,0.765-0.08c0.253-0.053,0.5-0.116,0.746-0.182c0.172-0.06,0.341-0.125,0.507-0.193
			c0.28-0.136,0.552-0.282,0.82-0.438c0.31-0.205,0.604-0.422,0.896-0.649c0.301-0.271,0.587-0.545,0.871-0.833
			c0.231-0.276,0.454-0.556,0.672-0.847c0.178-0.271,0.342-0.544,0.502-0.827c0.111-0.24,0.218-0.48,0.312-0.725
			c0.047-0.146,0.089-0.291,0.124-0.438c0.027-0.151,0.052-0.302,0.069-0.456c0.009-0.153,0.014-0.307,0.011-0.462
			c-0.024-0.347-0.062-0.685-0.111-1.029c-0.068-0.332-0.148-0.656-0.239-0.982c-0.127-0.396-0.258-0.789-0.416-1.171
			c-0.033-0.063-0.064-0.125-0.1-0.182c-0.045-0.067-0.089-0.129-0.138-0.191c-0.067-0.076-0.134-0.146-0.205-0.213
			c-0.145-0.125-0.293-0.245-0.446-0.36c-0.225-0.145-0.451-0.285-0.683-0.418c-0.267-0.129-0.538-0.247-0.813-0.355
			c-0.187-0.056-0.373-0.107-0.564-0.156c-0.146-0.027-0.296-0.053-0.444-0.078c-0.754,0.611-1.787,0.807-2.723,0.513
			c-0.007-0.002-0.016-0.004-0.022-0.004c-0.069-0.004-0.141-0.004-0.212-0.004c-0.11,0.013-0.227,0.027-0.337,0.044
			c-0.116,0.022-0.231,0.051-0.347,0.084c-0.179,0.058-0.356,0.125-0.534,0.2c-0.568,0.282-1.108,0.609-1.649,0.942
			c-0.187,0.12-0.368,0.244-0.544,0.382c-0.064,0.062-0.132,0.125-0.198,0.189c-0.053,0.064-0.106,0.133-0.16,0.202
			c-0.073,0.113-0.142,0.231-0.206,0.349c-0.109,0.227-0.202,0.46-0.282,0.696c0.004-0.02,0.006-0.04,0.011-0.058
			c-0.005,0.02-0.009,0.04-0.014,0.06c-0.015,0.051-0.033,0.1-0.051,0.153c0.016-0.042,0.031-0.084,0.045-0.125
			c-0.003,0.013-0.005,0.027-0.009,0.04c0.004-0.013,0.009-0.027,0.009-0.042c0.026-0.073,0.053-0.148,0.079-0.222
			c-0.039,0.145-0.079,0.292-0.122,0.438c-0.068,0.351-0.117,0.698-0.157,1.049c-0.014,0.271-0.018,0.542-0.014,0.813
			c0.016,0.235,0.04,0.471,0.071,0.702c0.047,0.236,0.103,0.471,0.164,0.703c0.058,0.164,0.12,0.327,0.187,0.489
			c0.094,0.196,0.198,0.391,0.308,0.58c0.208,0.313,0.427,0.611,0.657,0.907c0.307,0.354,0.629,0.687,0.965,1.018
			c0.267,0.233,0.538,0.456,0.824,0.671c0.101,0.064,0.203,0.125,0.305,0.18c0.107,0.047,0.216,0.091,0.325,0.138
			c0.178,0.053,0.357,0.1,0.542,0.138c0.009,0,0.018,0,0.026,0.002c-0.075-0.016-0.153-0.034-0.23-0.051
			c0.15,0.022,0.302,0.044,0.453,0.066C58.936,121.507,59.171,121.516,59.407,121.516z"/>
	</g>
</g>
</svg>
