<?xml version="1.0" encoding="utf-8"?>
<!-- Generator: Adobe Illustrator 16.0.0, SVG Export Plug-In . SVG Version: 6.00 Build 0)  -->
<!DOCTYPE svg PUBLIC "-//W3C//DTD SVG 1.1//EN" "http://www.w3.org/Graphics/SVG/1.1/DTD/svg11.dtd">
<svg version="1.1" id="圖層_1" xmlns="http://www.w3.org/2000/svg" xmlns:xlink="http://www.w3.org/1999/xlink" x="0px" y="0px"
	 width="186.403px" height="339.266px" viewBox="0 0 186.403 339.266" enable-background="new 0 0 186.403 339.266"
	 xml:space="preserve">
<g>
	<g>
		<path fill="#A8E5FD" d="M100.388,219.627c-1.369-0.016-2.729-0.02-4.094-0.116c-0.601-0.044-1.214-0.052-1.813-0.128
			c-0.789-0.1-1.579-0.196-2.368-0.292c-1.246-0.152-2.479-0.411-3.715-0.631c-0.655-0.116-1.302-0.315-1.947-0.472
			c-1.047-0.255-2.073-0.547-3.1-0.878c-3.395-1.09-6.586-2.752-9.42-4.917c-2.721-2.081-5.125-4.622-6.937-7.529
			c-0.847-1.362-1.5-2.844-1.943-4.377c-0.476-1.642-0.573-3.335-0.457-5.033c0.118-1.666,0.587-3.307,1.145-4.869
			c0.601-1.678,1.42-3.295,2.354-4.805c0.849-1.37,1.81-2.648,2.87-3.862c1.235-1.414,2.653-2.668,4.118-3.839
			c2.75-2.192,5.827-4.042,9.057-5.432c2.722-1.171,5.596-1.8,8.535-2.066c0.737-0.066,1.475-0.122,2.211-0.167
			c0.558-0.685,1.48-1.075,2.371-0.835c2.506,0.681,4.871,1.695,7.224,2.785c2.249,1.042,4.422,2.329,6.343,3.898
			c1.432,1.167,2.752,2.421,3.946,3.835c0.831,0.982,1.622,2.057,2.263,3.175c0.361,0.631,0.755,1.254,1.078,1.905
			c0.294,0.595,0.594,1.186,0.887,1.781c0.306,0.611,0.556,1.258,0.831,1.885c0.541,1.227,0.953,2.513,1.362,3.783
			c0.377,1.186,0.648,2.417,0.86,3.643c0.481,2.804,0.686,5.632,0.288,8.46c-0.445,3.164-1.74,6.175-3.979,8.48
			c-1.074,1.11-2.404,1.965-3.687,2.804c-1.506,0.987-3.14,1.729-4.833,2.329c-1.564,0.551-3.22,0.883-4.859,1.126
			c-0.98,0.148-1.983,0.264-2.983,0.319C101.459,219.619,100.921,219.631,100.388,219.627z M99.535,214.866
			c1.141,0.012,2.275-0.04,3.411-0.14c1.183-0.128,2.351-0.312,3.512-0.563c0.782-0.192,1.551-0.423,2.316-0.687
			c0.707-0.272,1.39-0.579,2.064-0.923c0.895-0.491,1.746-1.05,2.587-1.629c0.463-0.336,0.912-0.687,1.348-1.063
			c0.264-0.26,0.512-0.527,0.753-0.807c0.233-0.308,0.453-0.619,0.661-0.942c0.202-0.352,0.386-0.711,0.56-1.083
			c0.176-0.432,0.333-0.867,0.475-1.31c0.16-0.579,0.29-1.163,0.394-1.753c0.098-0.707,0.156-1.418,0.184-2.133
			c0.007-0.955-0.036-1.909-0.121-2.864c-0.114-0.975-0.29-1.941-0.458-2.908c-0.147-0.599-0.295-1.198-0.443-1.797
			c-0.159-0.651-0.407-1.294-0.617-1.929c-0.321-0.835-0.639-1.662-0.998-2.48c-0.418-0.951-0.869-1.874-1.332-2.804
			c-0.541-0.938-1.074-1.873-1.688-2.768c-0.586-0.803-1.209-1.569-1.876-2.3c-0.853-0.887-1.771-1.686-2.718-2.465
			c-0.707-0.511-1.418-0.999-2.15-1.474c-1.51-0.871-3.059-1.642-4.646-2.353c-1.051-0.452-2.102-0.883-3.178-1.254
			c-0.373,0.271-0.827,0.443-1.314,0.463c-1.235,0.06-2.464,0.152-3.694,0.26c-0.988,0.12-1.967,0.271-2.941,0.475
			c-0.852,0.208-1.684,0.459-2.511,0.751c-1.13,0.427-2.227,0.927-3.304,1.478c-1.549,0.831-3.041,1.753-4.481,2.768
			c-1.11,0.811-2.177,1.673-3.199,2.596c-0.772,0.739-1.504,1.51-2.196,2.325c-0.67,0.834-1.282,1.706-1.852,2.608
			c-0.493,0.835-0.94,1.686-1.346,2.564c-0.338,0.783-0.638,1.57-0.892,2.385c-0.167,0.607-0.312,1.214-0.425,1.833
			c-0.061,0.476-0.102,0.951-0.126,1.43c0.002,0.359,0.016,0.715,0.04,1.07c0.054,0.408,0.122,0.803,0.205,1.203
			c0.11,0.419,0.234,0.827,0.376,1.234c0.193,0.483,0.407,0.951,0.639,1.414c0.346,0.631,0.718,1.242,1.121,1.837
			c0.595,0.815,1.226,1.594,1.905,2.345c0.813,0.847,1.661,1.646,2.563,2.404c0.918,0.735,1.867,1.422,2.861,2.049
			c1.009,0.603,2.041,1.142,3.109,1.625c1.294,0.547,2.61,1.019,3.952,1.426c1.108,0.316,2.239,0.563,3.361,0.835
			c0.447,0.108,0.913,0.164,1.366,0.248c0.457,0.08,0.917,0.164,1.374,0.244c0.929,0.116,1.855,0.228,2.784,0.344
			c0.927,0.116,1.875,0.132,2.806,0.196C98.349,214.85,98.942,214.858,99.535,214.866z"/>
		<path fill="#A8E5FD" d="M87.778,194.495c-1.24-0.12-2.333-1.31-2.145-2.596c0.317-2.177,0.687-4.346,1.074-6.515
			c0.205-1.146,0.419-2.289,0.633-3.431c0.178-0.951,0.336-1.909,0.556-2.848c0.295-1.262,1.575-2.081,2.848-1.797
			c1.256,0.284,2.089,1.585,1.793,2.848c-0.195,0.839-0.335,1.698-0.499,2.544c-0.182,0.947-0.359,1.897-0.527,2.844
			c-0.327,1.817-0.643,3.635-0.937,5.452c0.004-0.036,0.01-0.072,0.017-0.107c-0.007,0.04-0.013,0.083-0.019,0.124
			c-0.01,0.06-0.02,0.12-0.03,0.18c0.011-0.056,0.019-0.112,0.028-0.167c-0.067,0.439-0.136,0.883-0.2,1.326
			c-0.092,0.635-0.355,1.202-0.866,1.617c-0.39,0.32-0.875,0.503-1.372,0.531C88.014,194.507,87.896,194.503,87.778,194.495z"/>
		<path fill="#A8E5FD" d="M98.463,193.449c-1.278-0.124-2.282-1.306-2.145-2.596c0.323-3.012,0.619-6.027,0.872-9.047
			c0.11-1.29,1.313-2.265,2.595-2.141c1.298,0.12,2.251,1.298,2.143,2.588c-0.253,3.02-0.549,6.035-0.872,9.051
			c-0.126,1.17-1.089,2.085-2.241,2.149C98.698,193.461,98.581,193.457,98.463,193.449z"/>
		<path fill="#A8E5FD" d="M92.583,207.656c-1.166-0.14-2.298-0.459-3.393-0.879c-1.055-0.407-2.025-0.982-2.978-1.585
			c-3.438-2.185-6.081-5.832-7.072-9.782c-0.313-1.258,0.315-2.581,1.6-2.96c1.2-0.359,2.645,0.339,2.96,1.598
			c0.109,0.439,0.246,0.871,0.394,1.298c0.168,0.415,0.352,0.819,0.549,1.218c0.298,0.543,0.617,1.066,0.965,1.574
			c0.304,0.411,0.619,0.803,0.957,1.182c0.385,0.396,0.786,0.771,1.208,1.13c0.469,0.363,0.95,0.703,1.45,1.022
			c0.443,0.264,0.889,0.507,1.352,0.727c0.405,0.168,0.813,0.319,1.23,0.451c0.346,0.092,0.69,0.168,1.042,0.24
			c0.447,0.064,0.893,0.108,1.345,0.136c0.441,0,0.878-0.012,1.317-0.048c0.396-0.048,0.785-0.112,1.179-0.192
			c0.476-0.116,0.942-0.248,1.408-0.403c0.669-0.255,1.322-0.539,1.965-0.863c0.468-0.259,0.921-0.539,1.362-0.838
			c0.354-0.268,0.691-0.547,1.022-0.843c0.864-0.851,1.644-1.761,2.421-2.684c0.916-1.138,1.807-2.289,2.6-3.515
			c0.048-0.08,0.094-0.16,0.142-0.24c0.332-0.559,0.795-0.987,1.429-1.178c0.589-0.172,1.238-0.112,1.783,0.172
			c1.103,0.579,1.663,2.097,1.002,3.211c-0.937,1.582-2.045,3.028-3.197,4.454c-0.942,1.163-1.913,2.309-3.018,3.323
			c-1.739,1.602-3.856,2.788-6.095,3.543c-1.374,0.459-2.776,0.739-4.196,0.819C94.413,207.796,93.5,207.768,92.583,207.656z"/>
		<path fill="#A8E5FD" d="M86.608,275.048c-2.479-0.196-4.949-0.504-7.43-0.691c-1.408-0.107-2.81-0.208-4.218-0.287
			c-1.728-0.097-3.463-0.116-5.165-0.452c-1.286-0.251-2.456-1.011-2.997-2.229c-0.466-1.047-0.346-2.229-0.308-3.339
			c0.038-1.219,0.115-2.433,0.178-3.647c0.134-2.484,0.241-4.973,0.461-7.449c0.222-2.485,0.42-4.977,0.743-7.454
			c0.188-1.43,0.377-2.86,0.567-4.293c0.186-1.402,0.438-2.796,0.654-4.198c0.815-5.201,1.824-10.377,2.832-15.545
			c0.368-1.885,0.745-3.767,1.135-5.648c0.233-1.13,0.463-2.257,0.705-3.383c0.117-0.551,0.235-1.094,0.352-1.646
			c0.164-0.771,0.327-1.578,1.002-2.085c0.502-0.379,1.091-0.583,1.726-0.523c0.72,0.068,1.438,0.487,1.804,1.123
			c0.338,0.591,0.415,1.27,0.252,1.885c0.002-0.008,0.006-0.02,0.008-0.028c-0.501,2.153-0.923,4.333-1.37,6.502
			c-0.423,2.033-0.821,4.078-1.218,6.115c-0.871,4.474-1.674,8.955-2.451,13.449c-0.365,2.325-0.723,4.645-1.03,6.978
			c-0.304,2.296-0.565,4.593-0.769,6.898c-0.408,4.637-0.707,9.291-0.863,13.944c1.166,0.16,2.345,0.191,3.52,0.252
			c0.799,0.04,1.598,0.088,2.398,0.132c1.768,0.1,3.528,0.287,5.29,0.459c1.474,0.14,2.946,0.288,4.422,0.407
			c1.72,0.141,3.437,0.244,5.16,0.34c1.171,0.032,2.337,0.068,3.509,0.052c1.364-0.02,2.715-0.088,4.076-0.172
			c2.052-0.207,4.097-0.436,6.134-0.751c2.041-0.312,4.096-0.603,6.123-1.006c0.002-0.627-0.03-1.255-0.084-1.882
			c-0.399-3.774-1.216-7.497-2.041-11.196c-0.805-3.611-1.636-7.217-2.444-10.833c0.004,0.012,0.006,0.028,0.01,0.04
			c-0.809-3.507-1.636-7.006-2.429-10.513c-0.786-3.471-1.454-6.97-2.23-10.441c-0.338-1.474-0.669-2.964-1.183-4.39
			c-0.436-1.218,0.41-2.608,1.6-2.959c0.59-0.176,1.238-0.116,1.783,0.172c0.588,0.308,0.957,0.815,1.177,1.426
			c0.447,1.246,0.749,2.544,1.053,3.834c0.359,1.522,0.685,3.052,1.009,4.582c0.641,3.028,1.27,6.051,1.949,9.067
			c1.136,4.925,2.28,9.846,3.395,14.775c0.569,2.524,1.166,5.044,1.684,7.581c0.279,1.362,0.545,2.717,0.783,4.087
			c0.212,1.222,0.379,2.448,0.547,3.679c0.198,1.453,0.3,2.983,0.019,4.429c-0.26,1.326-1.215,2.393-2.457,2.885
			c-0.729,0.283-1.536,0.387-2.307,0.522c-0.579,0.101-1.16,0.2-1.743,0.296c-2.496,0.407-4.997,0.771-7.508,1.091
			c-1.206,0.147-2.416,0.255-3.624,0.323C94.736,275.563,90.666,275.375,86.608,275.048z"/>
		<path fill="#A8E5FD" d="M106.523,221.217c-0.507-0.02-1.013-0.048-1.518-0.072c-0.015,0-0.028,0-0.04,0
			c-1.297,0.076-2.415-1.027-2.461-2.297c-0.042-1.318,1.005-2.384,2.299-2.457c0.266-0.016,0.537,0.008,0.803,0.024
			c0.388,0.024,0.775,0.04,1.162,0.056c0.392,0,0.779-0.012,1.169-0.036c0.436-0.048,0.866-0.112,1.298-0.2
			c0.609-0.156,1.204-0.347,1.798-0.559c0.874-0.343,1.724-0.735,2.562-1.162c1.119-0.604,2.193-1.271,3.238-1.997
			c0.826-0.6,1.629-1.227,2.416-1.881c0.33-0.276,0.663-0.551,0.98-0.843c0.028-0.028,0.057-0.056,0.084-0.084
			c0.05-0.048,0.1-0.096,0.152-0.14c0.054-0.048,0.107-0.1,0.161-0.147c0.363-0.34,0.729-0.683,1.093-1.022
			c0.128-0.12,0.254-0.236,0.381-0.348c0.061-0.064,0.122-0.128,0.187-0.184c0.646-0.663,1.294-1.326,1.938-1.989
			c0.607-0.623,1.171-1.302,1.75-1.949c0.084-0.104,0.166-0.208,0.254-0.308c0.02-0.024,0.041-0.052,0.062-0.076
			c0.122-0.152,0.239-0.3,0.363-0.439c0.022-0.028,0.044-0.06,0.068-0.092c0.044-0.06,0.088-0.116,0.138-0.172
			c0.109-0.136,0.226-0.271,0.337-0.412c-0.067,0.084-0.136,0.168-0.203,0.252c0.096-0.116,0.191-0.236,0.287-0.352
			c0.03-0.04,0.063-0.08,0.097-0.116c0.041-0.052,0.083-0.104,0.125-0.156c-0.02,0.024-0.038,0.048-0.058,0.072
			c0.541-0.663,1.059-1.37,1.55-2.073c0.507-0.727,1.028-1.454,1.521-2.193c1.057-1.585,2.094-3.183,3.107-4.797
			c1.475-2.437,2.838-4.933,4.021-7.525c0.282-0.651,0.548-1.31,0.763-1.985c0.046-0.168,0.084-0.332,0.116-0.5
			c0.086-0.619,0.112-1.242,0.132-1.865c0,0.02,0,0.044,0,0.064c0-0.024,0-0.052,0-0.076c0.004-0.076,0.006-0.152,0.008-0.228
			c-0.002,0.072-0.004,0.14-0.006,0.208c0.002-0.152,0.004-0.304,0-0.456c-0.012-0.016-0.024-0.036-0.034-0.052
			c-0.082-0.108-0.163-0.212-0.249-0.312c-0.306-0.28-0.628-0.543-0.848-0.903c-0.271-0.443-0.395-0.982-0.337-1.498
			c0.09-0.775,0.56-1.458,1.202-1.841c0.034-0.092,0.074-0.18,0.12-0.268c0.308-0.587,0.816-0.958,1.428-1.174
			c1.23-0.439,2.597-0.763,3.908-0.687c0.451,0.024,0.923,0.08,1.351,0.24c0.574,0.216,1.03,0.495,1.453,0.943
			c0.797,0.847,1.047,2.021,0.745,3.135c-0.503,1.833-2.234,2.656-3.988,2.856c-0.008,0.403-0.026,0.811-0.046,1.218
			c-0.03,0.619-0.094,1.242-0.218,1.849c-0.191,0.943-0.555,1.85-0.927,2.732c-1.975,4.669-4.701,8.987-7.501,13.197
			c-1.053,1.578-2.169,3.107-3.306,4.629c-0.146,0.196-0.297,0.396-0.465,0.575c-0.116,0.144-0.231,0.284-0.348,0.427
			c-0.18,0.26-0.399,0.496-0.597,0.735c0.058-0.072,0.115-0.144,0.176-0.22c-0.061,0.076-0.118,0.148-0.178,0.22
			c-0.011,0.012-0.019,0.02-0.026,0.032c0.008-0.012,0.016-0.02,0.024-0.028c-0.022,0.024-0.046,0.052-0.068,0.08
			c-0.054,0.076-0.11,0.144-0.172,0.212c-0.038,0.048-0.075,0.092-0.113,0.14c0.027-0.032,0.056-0.068,0.081-0.1
			c-0.052,0.063-0.104,0.127-0.155,0.191c-0.016,0.02-0.032,0.04-0.05,0.06c0.014-0.016,0.025-0.032,0.038-0.048
			c-0.743,0.895-1.54,1.753-2.351,2.584c-0.487,0.503-0.977,1.003-1.464,1.502c-0.063,0.064-0.126,0.128-0.192,0.188
			c-0.211,0.22-0.453,0.415-0.673,0.619c-0.371,0.351-0.743,0.699-1.116,1.046c-0.022,0.02-0.042,0.04-0.064,0.06
			c-0.014,0.012-0.029,0.028-0.043,0.04c-0.007,0.004-0.013,0.012-0.017,0.016c-0.074,0.076-0.151,0.148-0.233,0.216
			c-2.245,2.065-4.758,3.882-7.443,5.316c-1.482,0.791-3.018,1.446-4.617,1.957c-1.089,0.348-2.233,0.543-3.379,0.611
			C107.484,221.233,107.003,221.237,106.523,221.217z"/>
		<path fill="#A8E5FD" d="M74.323,215.761c-0.795-0.064-1.535-0.412-2.254-0.735c-0.657-0.296-1.295-0.615-1.938-0.951
			c-2.69-1.398-5.236-3.044-7.635-4.897c-1.169-0.907-2.349-1.85-3.411-2.876c-0.588-0.571-1.175-1.138-1.764-1.706
			c-0.455-0.443-0.927-0.871-1.358-1.338c-0.479-0.52-0.958-1.042-1.439-1.562c-0.903-0.979-1.766-1.977-2.625-2.996
			c-0.834-0.986-1.605-2.025-2.39-3.056c-0.376-0.491-0.709-1.022-1.057-1.534c-0.334-0.491-0.667-0.979-0.975-1.49
			c-0.37-0.619-0.765-1.23-1.101-1.87c-0.331-0.635-0.663-1.274-0.997-1.909c-0.295-0.567-0.535-1.174-0.801-1.757
			c-0.283-0.615-0.527-1.262-0.756-1.905c-0.496-1.382-0.955-2.768-1.335-4.186c-0.182-0.675-0.337-1.354-0.485-2.037
			c-0.151-0.707-0.201-1.434-0.264-2.149c-0.021-0.248-0.037-0.495-0.048-0.743c-0.854-0.132-1.663-0.443-2.339-1.067
			c-0.331-0.312-0.513-0.679-0.675-1.094c-0.186-0.487-0.261-0.979-0.146-1.494c0.115-0.511,0.313-1.039,0.686-1.423
			c0.389-0.404,0.778-0.725,1.297-0.957c0.376-0.167,0.783-0.266,1.188-0.349c0.111-0.056,0.229-0.106,0.352-0.148
			c1.328-0.469,2.746-0.681,4.151-0.503c0.757,0.094,1.516,0.206,2.201,0.565c0.912,0.477,1.663,1.406,1.699,2.467
			c0.032,0.923-0.329,1.777-1.026,2.389c-0.6,0.519-1.294,0.823-2.053,1.022c-0.196,0.052-0.392,0.1-0.588,0.148
			c0.021,0.467,0.05,0.935,0.088,1.398c0.074,0.587,0.174,1.158,0.296,1.737c0.419,1.654,0.923,3.268,1.494,4.877
			c0.359,0.899,0.73,1.782,1.132,2.66c0.39,0.859,0.841,1.686,1.274,2.521c-0.048-0.092-0.096-0.184-0.144-0.275
			c0.415,0.691,0.828,1.382,1.244,2.073c0.421,0.699,0.919,1.366,1.384,2.041c0.535,0.707,1.076,1.414,1.615,2.121
			c0.468,0.611,0.989,1.186,1.484,1.773c1.017,1.202,2.089,2.345,3.153,3.499c0.649,0.627,1.298,1.254,1.949,1.885
			c1.034,0.999,2.104,1.949,3.214,2.868c1.541,1.23,3.146,2.376,4.813,3.431c1.618,0.979,3.283,1.869,5.007,2.652
			c0.126,0.052,0.254,0.1,0.384,0.147c1.266,0.132,2.207,1.326,2.091,2.588c-0.114,1.187-1.104,2.081-2.261,2.145
			C74.548,215.772,74.436,215.769,74.323,215.761z"/>
		<path fill="#A8E5FD" d="M73.914,339.14c-0.519-0.101-1.044-0.376-1.47-0.676c-0.549-0.391-1.076-0.926-1.426-1.502
			c-0.671-1.098-1.087-2.248-1.24-3.526c-0.107-0.887-0.084-1.802-0.102-2.7c-0.026-1.187,0.113-2.377,0.379-3.531
			c0.344-1.498,1.051-2.959,1.877-4.246c0.288-0.447,0.567-0.895,0.877-1.321c0.382-0.531,0.791-1.047,1.154-1.59
			c0.011-0.024,0.021-0.044,0.032-0.064c0.002-0.016,0.006-0.031,0.01-0.048c0.002-0.035,0.006-0.071,0.009-0.107
			c0-2.4-0.166-4.805-0.264-7.202c-0.103-2.504-0.17-5.005-0.23-7.509c-0.125-5.037-0.191-10.077-0.115-15.114
			c0.046-3.104,0.105-6.211,0.178-9.311c0.031-1.395,0.052-2.788,0.098-4.178c0.036-1.071,0.04-2.134,0.229-3.191
			c0.198-1.091,1.229-1.85,2.293-1.909c1.294-0.072,2.414,1.026,2.458,2.3c0.01,0.308-0.04,0.604-0.138,0.875
			c-0.06,0.735-0.077,1.474-0.102,2.213c-0.112,5.192-0.241,10.385-0.286,15.573c-0.039,4.993,0.057,9.986,0.2,14.975
			c0.082,2.912,0.204,5.824,0.319,8.736c0.024,0.675,0.054,1.346,0.078,2.017c0.014,0.331,0.034,0.671,0.044,1.015
			c0.405,0.308,0.675,0.73,0.854,1.222c0.388,1.067,0.737,2.142,1.049,3.231c0.298,1.043,0.567,2.117,0.743,3.188
			c0.161,0.986,0.27,1.953,0.243,2.96c-0.02,0.827-0.122,1.678-0.281,2.492c-0.232,1.198-0.583,2.349-1.108,3.451
			c-0.589,1.238-1.649,2.444-2.906,3.027c-0.497,0.232-0.99,0.376-1.523,0.496c-0.182,0.044-0.363,0.063-0.548,0.075
			C74.837,339.287,74.37,339.228,73.914,339.14z M75.099,334.486c0.004,0,0.008,0,0.012-0.005c0.028-0.008,0.057-0.02,0.086-0.027
			c0.03-0.016,0.059-0.028,0.088-0.04c0.032-0.021,0.064-0.04,0.096-0.06c0.074-0.061,0.146-0.12,0.216-0.184
			c-0.014,0.016-0.025,0.031-0.04,0.048c0.015-0.017,0.026-0.032,0.04-0.048c0.048-0.045,0.096-0.093,0.142-0.137
			c-0.042,0.036-0.082,0.076-0.121,0.112c0.002-0.004,0.006-0.008,0.01-0.012c-0.004,0.004-0.008,0.008-0.012,0.012
			c-0.038,0.036-0.076,0.072-0.114,0.107c0.07-0.075,0.142-0.155,0.214-0.235c0.062-0.08,0.121-0.168,0.18-0.256
			c0.08-0.14,0.155-0.279,0.226-0.427c0.13-0.315,0.245-0.636,0.348-0.963c0.1-0.376,0.188-0.751,0.264-1.135
			c0.077-0.535,0.147-1.063,0.186-1.602c0.004-0.379-0.006-0.755-0.036-1.13c-0.086-0.68-0.22-1.347-0.361-2.014
			c-0.111-0.447-0.226-0.891-0.348-1.334c-0.092,0.14-0.182,0.279-0.271,0.42c-0.281,0.487-0.543,0.979-0.785,1.485
			c-0.125,0.312-0.239,0.619-0.346,0.938c-0.079,0.3-0.149,0.6-0.211,0.907c-0.063,0.439-0.1,0.874-0.122,1.317
			c-0.014,0.883,0.002,1.778,0.062,2.656c0.021,0.156,0.046,0.316,0.074,0.472c-0.021-0.1-0.046-0.199-0.068-0.296
			c0.036,0.185,0.082,0.368,0.143,0.548c0.082,0.203,0.168,0.399,0.262,0.595c0.035,0.057,0.069,0.116,0.105,0.172
			C75.041,334.41,75.07,334.45,75.099,334.486z"/>
		<path fill="#A8E5FD" d="M103.45,337.761c-1.334-0.606-2.396-1.577-3.3-2.72c-1.068-1.358-1.705-2.96-2.207-4.593
			c-0.373-1.203-0.561-2.505-0.633-3.759c-0.069-1.179-0.034-2.377,0.1-3.547c0.136-1.194,0.416-2.361,0.649-3.539
			c0.04-0.196,0.104-0.38,0.189-0.552c-0.098-0.419-0.115-0.874-0.138-1.298c-0.02-0.327-0.021-0.659-0.03-0.986
			c-0.058-2.413-0.104-4.821-0.147-7.229c-0.088-5.145-0.084-10.289-0.058-15.438c0.018-3.467,0.036-6.938,0.046-10.408
			c0.006-1.511,0.012-3.021,0.026-4.53c0.008-0.866,0.016-1.737,0.027-2.607c0.012-0.827,0.006-1.666,0.068-2.493
			c0.098-1.29,1.319-2.261,2.592-2.145c1.309,0.124,2.243,1.302,2.145,2.592c-0.01,0.116-0.012,0.232-0.018,0.344
			c-0.142,5.112-0.088,10.233-0.109,15.351c-0.024,5.068-0.068,10.133-0.017,15.201c0.024,2.134,0.056,4.267,0.101,6.399
			c0.02,1.05,0.039,2.101,0.063,3.155c0.02,0.971,0.008,1.949,0.082,2.916c0.006,0.052,0.014,0.1,0.023,0.151
			c0.013,0.036,0.026,0.076,0.038,0.112c0.066,0.147,0.134,0.299,0.208,0.443c0.367,0.65,0.778,1.262,1.204,1.873
			c0.783,1.07,1.56,2.145,2.316,3.235c0.729,1.055,1.332,2.201,1.899,3.352c0.797,1.605,1.526,3.347,1.7,5.141
			c0.115,1.206,0.041,2.56-0.542,3.654c-0.277,0.523-0.606,0.999-1.054,1.394c-0.51,0.448-1.077,0.739-1.726,0.936
			c-0.28,0.088-0.571,0.136-0.863,0.151C105.186,338.368,104.249,338.125,103.45,337.761z M105.533,333.479
			c0.002-0.008,0.004-0.016,0.006-0.024c0.01-0.079,0.016-0.159,0.021-0.235c0-0.22-0.008-0.436-0.023-0.655
			c-0.022-0.147-0.046-0.295-0.076-0.443c-0.092-0.352-0.198-0.694-0.315-1.042c-0.369-0.923-0.781-1.817-1.221-2.708
			c-0.277-0.504-0.557-1.003-0.864-1.49c-0.328-0.523-0.673-1.03-1.022-1.538c0,0.46,0.014,0.919,0.038,1.383
			c0.067,0.583,0.159,1.154,0.27,1.729c0.119,0.468,0.249,0.932,0.39,1.391c0.169,0.432,0.349,0.851,0.545,1.274
			c0.155,0.275,0.315,0.543,0.487,0.807c0.159,0.216,0.327,0.427,0.501,0.631c0.172,0.176,0.35,0.348,0.533,0.512
			c0.066,0.048,0.132,0.096,0.2,0.14c0.153,0.088,0.306,0.168,0.463,0.247C105.487,333.464,105.511,333.472,105.533,333.479z"/>
	</g>
	<g>
		<path fill="#A8E5FD" d="M31.967,88.405c-0.777-0.013-1.559-0.167-2.324-0.293c-0.624-0.103-1.24-0.23-1.859-0.357
			c-0.527-0.11-1.047-0.248-1.568-0.386c-1.332-0.353-2.82-0.967-3.572-2.194c-0.168-0.271-0.32-0.587-0.412-0.893
			c-0.09-0.304-0.1-0.619-0.123-0.933c-0.053-0.623,0.213-1.282,0.459-1.837c0.241-0.542,0.509-1.069,0.791-1.594
			c0.088-0.164,0.18-0.326,0.273-0.486c-1.303-0.115-2.597-0.365-3.841-0.654c-1.456-0.339-2.85-0.881-4.168-1.578
			c-1.558-0.823-2.94-1.937-4.224-3.135c-1.162-1.084-2.199-2.323-3.156-3.59c-1.057-1.393-1.982-2.882-2.808-4.425
			c-0.799-1.503-1.476-3.068-2.055-4.67c-0.443-1.216-0.858-2.45-1.173-3.707c-0.201-0.803-0.403-1.607-0.605-2.409
			c-0.125-0.506-0.268-1.01-0.361-1.522c-0.149-0.796-0.297-1.592-0.445-2.39c-0.092-0.487-0.195-0.975-0.253-1.469
			c-0.156-1.35-0.376-2.709-0.432-4.068c-0.054-1.354-0.142-2.704-0.1-4.06c0.044-1.335,0.065-2.661,0.2-3.991
			c0.077-0.769,0.153-1.539,0.232-2.308c0.063-0.616,0.2-1.229,0.305-1.838c0.117-0.697,0.223-1.397,0.373-2.091
			c0.383-1.79,0.898-3.575,1.556-5.284c1.116-2.909,2.854-5.605,4.808-8.022c0.447-0.554,0.895-1.108,1.342-1.663
			c1.034-1.28,2.232-2.418,3.507-3.454c2.653-2.152,5.743-3.611,8.993-4.62c3.393-1.056,7.002-1.546,10.553-1.523
			c3.559,0.022,7.084,0.637,10.438,1.834c6.614,2.359,12.034,7.265,15.665,13.207c0.837,1.365,1.592,2.778,2.253,4.237
			c0.581,1.281,1.096,2.634,1.455,3.997c0.194,0.722,0.386,1.445,0.577,2.167c0.172,0.645,0.27,1.314,0.396,1.969
			c0.094,0.497,0.185,0.983,0.246,1.485c0.092,0.728,0.216,1.46,0.262,2.193c0.048,0.719,0.092,1.441,0.136,2.161
			c0.042,0.645,0.006,1.298,0.006,1.944c-0.002,1.221-0.1,2.449-0.254,3.659c-0.159,1.243-0.321,2.505-0.629,3.722
			c-0.164,0.646-0.327,1.292-0.491,1.938c-0.184,0.731-0.439,1.447-0.661,2.167c-0.365,1.185-0.881,2.331-1.378,3.463
			c-1.04,2.373-2.313,4.625-3.799,6.749c-1.452,2.08-3.081,4.086-4.927,5.83c-1.915,1.807-4.056,3.306-6.415,4.478
			c-2.131,1.056-4.342,1.875-6.632,2.505c-1.12,0.31-2.259,0.573-3.397,0.804c-0.691,0.139-1.384,0.259-2.077,0.376
			c0.399,0.191,0.751,0.493,0.993,0.892c0.818,1.351,1.575,2.784,1.98,4.321c0.304,1.142,0.311,2.422-0.252,3.492
			c-0.259,0.496-0.662,0.974-1.14,1.269c-0.599,0.367-1.21,0.542-1.884,0.58C32.225,88.404,32.099,88.407,31.967,88.405z
			 M30.76,83.479c-0.169-0.39-0.352-0.772-0.541-1.152c-0.201-0.373-0.411-0.74-0.633-1.104c-0.334-0.551-0.413-1.196-0.275-1.788
			c-0.434,0.583-0.829,1.192-1.221,1.807c-0.289,0.486-0.566,0.977-0.824,1.477c0.041,0.014,0.084,0.028,0.125,0.042
			C28.504,83.05,29.626,83.284,30.76,83.479z M26.063,74.688c0.206-0.029,0.41-0.06,0.613-0.1c0.288-0.056,0.574-0.05,0.848,0.007
			c0.606-0.425,1.271-0.763,2.007-1.001c0.776-0.253,1.634-0.306,2.437-0.444c1.038-0.181,2.072-0.39,3.102-0.619
			c1.529-0.364,3.033-0.789,4.52-1.302c1.176-0.458,2.322-0.966,3.451-1.527c0.928-0.501,1.814-1.045,2.68-1.646
			c0.633-0.476,1.24-0.968,1.835-1.491c0.936-0.896,1.806-1.836,2.65-2.815c0.577-0.712,1.16-1.425,1.686-2.176
			c0.583-0.834,1.139-1.678,1.684-2.537c0.288-0.511,0.575-1.021,0.861-1.53c0.31-0.549,0.566-1.132,0.847-1.698
			c0.392-0.897,0.78-1.79,1.122-2.707c0.34-0.906,0.625-1.82,0.911-2.742c0.167-0.662,0.333-1.324,0.503-1.986
			c0.158-0.62,0.246-1.262,0.361-1.893c0.084-0.644,0.164-1.287,0.248-1.93c0.086-0.661,0.092-1.342,0.13-2.01
			c0.002-0.686,0.002-1.372,0.002-2.058c0-0.721-0.086-1.454-0.136-2.176c-0.092-0.749-0.188-1.497-0.28-2.245
			c-0.048-0.381-0.146-0.763-0.218-1.14c-0.077-0.398-0.151-0.799-0.229-1.197c-0.371-1.394-0.734-2.773-1.224-4.132
			c-0.408-1.051-0.871-2.073-1.385-3.075c-0.715-1.321-1.487-2.611-2.342-3.847c-0.743-1.02-1.536-1.99-2.391-2.919
			c-0.865-0.898-1.766-1.752-2.721-2.556c-0.832-0.665-1.697-1.281-2.599-1.851c-0.922-0.545-1.869-1.032-2.844-1.476
			c-1.012-0.43-2.039-0.806-3.089-1.128c-0.985-0.274-1.976-0.499-2.983-0.669c-1.232-0.179-2.469-0.293-3.713-0.347
			c-1.211-0.024-2.415,0.02-3.621,0.122c-1.41,0.149-2.8,0.375-4.182,0.681c-1.168,0.286-2.314,0.626-3.447,1.025
			c-0.931,0.355-1.836,0.752-2.723,1.206c-0.767,0.421-1.506,0.877-2.227,1.376c-0.693,0.511-1.357,1.047-1.997,1.622
			c-0.579,0.552-1.12,1.134-1.649,1.735c-1.342,1.663-2.65,3.333-3.791,5.148c-0.505,0.85-0.956,1.72-1.365,2.62
			c-0.414,0.983-0.756,1.987-1.059,3.01c-0.328,1.166-0.607,2.339-0.811,3.534c-0.118,0.69-0.234,1.38-0.352,2.07
			c-0.116,1.123-0.227,2.245-0.34,3.367c-0.057,0.548-0.036,1.116-0.055,1.667c-0.016,0.536-0.033,1.072-0.051,1.608
			c0.045,1.17,0.098,2.341,0.143,3.513c0.131,1.127,0.262,2.252,0.393,3.38c0.069,0.623,0.231,1.248,0.346,1.864
			c0.109,0.592,0.219,1.187,0.331,1.779c0.214,0.855,0.429,1.713,0.644,2.57c0.363,1.46,0.803,2.894,1.312,4.309
			c0.491,1.286,1.036,2.545,1.661,3.771c0.605,1.125,1.272,2.212,1.998,3.265c0.723,1,1.497,1.956,2.33,2.868
			c0.613,0.635,1.254,1.232,1.928,1.799c0.477,0.372,0.965,0.72,1.474,1.045c0.474,0.277,0.952,0.53,1.446,0.763
			c0.48,0.199,0.971,0.37,1.469,0.526c0.85,0.235,1.706,0.406,2.574,0.552c0.693,0.099,1.385,0.175,2.084,0.212
			C25.27,74.733,25.664,74.72,26.063,74.688z"/>
		<path fill="#A8E5FD" d="M157.386,81.543c-1.242-0.082-2.482-0.189-3.718-0.318c-1.303-0.135-2.608-0.273-3.896-0.494
			c-1.718-0.296-3.432-0.6-5.045-1.283c-1.175-0.5-2.371-1.36-2.752-2.64c-0.186-0.622-0.184-1.296,0.004-1.911
			c0.166-0.551,0.436-1.025,0.735-1.511c0.639-1.03,1.355-1.998,2.11-2.944c0.346-0.43,0.699-0.854,1.063-1.267
			c-1.655-0.38-3.275-0.925-4.835-1.623c-3.268-1.463-6.225-3.513-8.877-5.909c-2.555-2.308-4.722-5.046-6.365-8.067
			c-1.67-3.062-2.802-6.367-3.557-9.763c-0.791-3.55-0.933-7.233-0.682-10.85c0.242-3.466,0.989-6.906,2.155-10.176
			c0.673-1.886,1.521-3.696,2.343-5.52c1.176-2.617,2.702-5.005,4.579-7.175c4.565-5.278,11.181-8.483,17.988-9.639
			c3.431-0.581,6.972-0.535,10.429-0.243c1.602,0.137,3.18,0.394,4.716,0.878c1.676,0.527,3.267,1.256,4.789,2.132
			c2.978,1.711,5.53,4.042,7.805,6.599c2.353,2.645,4.352,5.636,5.993,8.766c1.604,3.062,2.658,6.397,3.357,9.773
			c0.73,3.522,0.881,7.171,0.399,10.735c-0.361,2.653-1.106,5.226-2.053,7.721c-0.202,0.535-0.397,1.071-0.64,1.589
			c-0.317,0.679-0.633,1.358-0.95,2.037c-0.28,0.602-0.651,1.176-0.973,1.756c-0.31,0.559-0.663,1.093-1.007,1.633
			c-0.671,1.054-1.372,2.088-2.109,3.099c-0.643,0.881-1.31,1.73-2.055,2.529c-0.856,0.921-1.821,1.732-2.828,2.485
			c-1.036,0.774-2.123,1.48-3.263,2.089c-2.235,1.192-4.55,2.173-6.998,2.834c-0.032,0.008-0.063,0.017-0.094,0.025
			c-0.24,0.873-0.971,1.582-1.911,1.737c-0.605,0.099-1.205,0.254-1.804,0.381c-0.084,0.018-0.17,0.036-0.254,0.052
			c0.679,0.912,1.338,1.843,1.938,2.808c0.335,0.541,0.675,1.084,0.965,1.652c0.702,1.383,1.315,3.067,0.982,4.643
			c-0.068,0.317-0.152,0.606-0.27,0.909c-0.112,0.291-0.282,0.539-0.447,0.798c-0.326,0.506-0.867,0.904-1.389,1.184
			c-0.641,0.344-1.315,0.481-2.009,0.521C158.44,81.604,157.913,81.579,157.386,81.543z M158.323,76.836
			c-0.032-0.111-0.064-0.221-0.101-0.331c-0.119-0.293-0.247-0.579-0.387-0.863c-0.581-1.008-1.209-1.983-1.874-2.941
			c-0.233-0.326-0.471-0.649-0.715-0.969c-0.455-0.605-0.613-1.358-0.459-2.049c-0.909,0.09-1.821,0.132-2.734,0.137
			c-0.419,0.323-0.811,0.667-1.2,1.021c-0.772,0.777-1.5,1.58-2.2,2.421c-0.525,0.658-1.031,1.327-1.502,2.02
			c0.151,0.053,0.303,0.103,0.455,0.151c0.996,0.266,2.007,0.448,3.023,0.623C153.183,76.411,155.749,76.695,158.323,76.836z
			 M150.688,65.047c0.529-0.293,1.085-0.544,1.666-0.738c1.238-0.414,2.53-0.565,3.814-0.78c1.114-0.188,2.223-0.395,3.331-0.627
			c0.074-0.019,0.146-0.034,0.22-0.046c0.237-0.085,0.489-0.145,0.745-0.174c1.396-0.334,2.768-0.76,4.122-1.241
			c0.911-0.373,1.804-0.778,2.692-1.21c1-0.542,1.965-1.12,2.916-1.744c0.685-0.515,1.355-1.031,1.994-1.605
			c0.546-0.527,1.057-1.08,1.544-1.661c1.251-1.585,2.343-3.289,3.428-4.989c0.367-0.668,0.738-1.333,1.106-2
			c0.197-0.359,0.352-0.751,0.525-1.122c0.14-0.3,0.279-0.601,0.421-0.901c0.451-1.193,0.913-2.378,1.286-3.601
			c0.342-1.205,0.627-2.421,0.841-3.656c0.16-1.09,0.266-2.18,0.308-3.279c0.014-1.088-0.028-2.171-0.118-3.253
			c-0.144-1.348-0.361-2.678-0.648-4.002c-0.352-1.487-0.785-2.947-1.303-4.385c-0.483-1.264-1.032-2.49-1.653-3.689
			c-0.807-1.492-1.716-2.92-2.69-4.309c-0.967-1.329-1.995-2.608-3.102-3.823c-0.948-1.001-1.938-1.948-2.997-2.83
			c-0.808-0.639-1.636-1.233-2.505-1.781c-0.772-0.46-1.565-0.881-2.381-1.261c-0.659-0.284-1.325-0.532-2.009-0.752
			c-0.617-0.173-1.234-0.318-1.863-0.437c-1.472-0.217-2.96-0.316-4.445-0.364c-1.516-0.031-3.032-0.017-4.544,0.105
			c-1.292,0.136-2.57,0.342-3.841,0.619c-1.152,0.282-2.28,0.621-3.396,1.02c-1.051,0.407-2.077,0.861-3.082,1.373
			c-0.98,0.531-1.929,1.107-2.846,1.743c-0.833,0.606-1.63,1.25-2.396,1.937c-0.769,0.732-1.49,1.502-2.177,2.313
			c-0.625,0.786-1.202,1.6-1.741,2.445c-1.089,1.835-1.93,3.792-2.798,5.735c-0.558,1.37-1.083,2.746-1.515,4.16
			c-0.399,1.418-0.719,2.848-0.96,4.299c-0.216,1.452-0.352,2.907-0.411,4.372c-0.036,1.499,0.012,2.99,0.144,4.482
			c0.144,1.319,0.355,2.624,0.637,3.919c0.325,1.362,0.723,2.7,1.19,4.021c0.497,1.317,1.068,2.597,1.718,3.846
			c0.511,0.931,1.066,1.83,1.673,2.701c0.688,0.938,1.422,1.834,2.207,2.693c0.9,0.935,1.846,1.814,2.836,2.651
			c1.139,0.916,2.325,1.754,3.565,2.526c0.916,0.542,1.853,1.035,2.821,1.479c0.891,0.382,1.796,0.719,2.721,1.008
			c0.851,0.236,1.709,0.425,2.582,0.577C149.106,64.927,149.894,65.005,150.688,65.047z"/>
		<path fill="#A8E5FD" d="M41.4,177.064c-0.758-2.992-1.551-5.98-2.268-8.984c-0.357-1.504-0.722-3.007-1.029-4.525
			c-0.307-1.512-0.587-3.027-0.845-4.551c-1.036-6.125-1.991-12.272-2.844-18.428c-0.858-6.195-1.676-12.399-2.542-18.595
			c-0.855-6.131-1.628-12.274-2.498-18.402c-0.396-2.783-0.787-5.566-1.225-8.342c-0.21-1.345-0.42-2.692-0.604-4.042
			c-0.096-0.704-0.178-1.401-0.24-2.108c-0.025-0.29-0.035-0.575-0.037-0.864c-0.006-0.457-0.044-0.923,0.09-1.362
			c0.226-0.745,1.135-1.103,1.831-0.847c0.359,0.13,0.655,0.41,0.812,0.758c0.082,0.18,0.117,0.365,0.117,0.549
			c0-0.001,0.002-0.003,0.002-0.005c-0.01,0.452,0,0.901,0.014,1.354c0.006,0.313,0.047,0.628,0.078,0.94
			c0.438,3.146,0.925,6.282,1.398,9.421c0.48,3.201,0.9,6.411,1.332,9.618c0.83,6.195,1.68,12.391,2.54,18.583
			c0.417,3,0.808,6.002,1.212,9.004c0.412,3.038,0.855,6.073,1.297,9.109c0.453,3.105,0.935,6.211,1.438,9.311
			c0.485,3.008,0.955,6.027,1.607,9.007c0.086,0.387,0.172,0.777,0.258,1.165c0.891,3.82,1.875,7.62,2.842,11.422
			c0.194,0.751-0.189,1.546-0.958,1.777c-0.103,0.028-0.206,0.048-0.31,0.052C42.229,178.115,41.566,177.715,41.4,177.064z"/>
		<path fill="#A8E5FD" d="M142.684,175.978c-0.374-0.084-0.701-0.32-0.903-0.647c-0.199-0.328-0.235-0.688-0.174-1.059
			c0.063-0.379,0.124-0.759,0.185-1.139c0.457-2.898,0.891-5.8,1.273-8.71c0.401-3.025,0.817-6.051,1.181-9.081
			c0.39-3.24,0.737-6.477,1.043-9.724c0.275-2.906,0.521-5.818,0.792-8.726c0.588-6.244,1.192-12.485,1.859-18.721
			c0.701-6.566,1.354-13.137,2.037-19.706c0.312-3.01,0.68-6.012,1.059-9.012c0.202-1.592,0.434-3.176,0.665-4.762
			c0.21-1.436,0.453-2.872,0.768-4.288c0.096-0.426,0.241-0.837,0.591-1.12c0.249-0.203,0.549-0.306,0.864-0.324
			c0.777-0.044,1.45,0.614,1.475,1.377c0.008,0.233-0.04,0.452-0.132,0.648c-0.3,1.169-0.462,2.381-0.663,3.57
			c-0.196,1.369-0.418,2.735-0.592,4.108c-0.193,1.528-0.399,3.054-0.575,4.583c-0.389,3.43-0.761,6.86-1.114,10.294
			c-0.317,3.08-0.621,6.161-0.94,9.24c-0.312,3-0.637,5.997-0.95,8.996c-0.665,6.391-1.271,12.788-1.852,19.188
			c-0.277,3.045-0.55,6.093-0.863,9.137c-0.319,3.085-0.705,6.163-1.108,9.239c-0.679,5.194-1.361,10.389-2.217,15.559
			c-0.105,0.639-0.713,1.074-1.33,1.106C142.933,176.014,142.808,176.006,142.684,175.978z"/>
	</g>
</g>
</svg>
