<?xml version="1.0" encoding="utf-8"?>
<!-- Generator: Adobe Illustrator 16.0.0, SVG Export Plug-In . SVG Version: 6.00 Build 0)  -->
<!DOCTYPE svg PUBLIC "-//W3C//DTD SVG 1.1//EN" "http://www.w3.org/Graphics/SVG/1.1/DTD/svg11.dtd">
<svg version="1.1" id="圖層_1" xmlns="http://www.w3.org/2000/svg" xmlns:xlink="http://www.w3.org/1999/xlink" x="0px" y="0px"
	 width="407.916px" height="61.055px" viewBox="63.653 289 407.916 61.055" enable-background="new 63.653 289 407.916 61.055"
	 xml:space="preserve">
<path fill="#FFFFFF" d="M170.581,348.913c-1.271,0.189-2.604,0.286-4,0.286c-2.986,0-5.065-0.524-6.239-1.572
	c-1.176-1.048-1.762-2.905-1.762-5.572v-51.531c0.697-0.126,1.697-0.285,3-0.476c1.301-0.19,2.587-0.286,3.857-0.286
	c2.856,0,4.92,0.477,6.19,1.429s1.905,2.826,1.905,5.62v17.146l21.05-23.813c3.812,0,6.54,0.714,8.191,2.144
	c1.649,1.429,2.477,3.16,2.477,5.19c0,1.524-0.366,2.938-1.096,4.239c-0.73,1.302-1.921,2.779-3.571,4.429l-13.523,13.525
	c4.381,4.763,8.334,9.018,11.857,12.764c3.524,3.748,6.43,6.764,8.716,9.049c-0.063,2.478-0.904,4.414-2.523,5.812
	c-1.619,1.396-3.511,2.096-5.668,2.096c-2.351,0-4.271-0.588-5.763-1.763c-1.492-1.174-2.938-2.556-4.334-4.145l-15.812-17.906
	v22.765C172.834,348.532,171.851,348.722,170.581,348.913z"/>
<path fill="#FFFFFF" d="M224.302,349.103c-2.985,0-5.064-0.509-6.238-1.523c-1.177-1.016-1.763-2.857-1.763-5.524v-51.531
	c0.697-0.126,1.697-0.285,3-0.476c1.302-0.19,2.619-0.286,3.953-0.286c2.857,0,4.905,0.477,6.145,1.429
	c1.237,0.952,1.856,2.826,1.856,5.62v51.531c-0.7,0.19-1.684,0.364-2.953,0.523C227.031,349.023,225.698,349.103,224.302,349.103z"
	/>
<path fill="#FFFFFF" d="M297.453,319.385c0,5.081-0.762,9.525-2.286,13.335c-1.522,3.811-3.667,6.985-6.43,9.524
	c-2.763,2.541-6.097,4.445-10.001,5.716c-3.905,1.27-8.239,1.904-13.001,1.904c-1.081,0-2.304-0.032-3.668-0.096
	c-1.366-0.063-2.763-0.176-4.19-0.334c-1.429-0.159-2.874-0.381-4.334-0.666c-1.462-0.286-2.795-0.649-4.001-1.096
	c-3.302-1.205-4.952-3.365-4.952-6.477v-45.339c0-1.27,0.333-2.253,1-2.952c0.666-0.698,1.634-1.271,2.904-1.715
	c2.604-0.824,5.366-1.364,8.287-1.618c2.92-0.254,5.587-0.382,8.001-0.382c4.889,0,9.335,0.604,13.335,1.811
	c4.001,1.207,7.43,3.063,10.287,5.572c2.856,2.509,5.079,5.652,6.668,9.43C296.658,309.781,297.453,314.241,297.453,319.385z
	 M282.024,319.575c0-6.158-1.51-10.747-4.524-13.765c-3.017-3.015-6.938-4.523-11.763-4.523c-1.145,0-2.225,0.032-3.239,0.095
	c-1.017,0.064-2.032,0.191-3.048,0.381v35.434c0.824,0.189,1.825,0.333,3.001,0.429c1.174,0.095,2.301,0.143,3.381,0.143
	c4.953,0,8.89-1.508,11.812-4.523C280.563,330.229,282.024,325.671,282.024,319.575z"/>
<path fill="#FFFFFF" d="M326.456,345.102c-3.208,3.112-7.764,4.668-13.669,4.668c-3.429,0-6.255-0.57-8.478-1.715
	c-2.224-1.143-3.334-3.144-3.334-6.001c0-1.205,0.175-2.253,0.523-3.143s0.746-1.587,1.19-2.097c1.144,0.254,2.206,0.461,3.19,0.619
	c0.983,0.159,2.016,0.238,3.096,0.238c4.89,0,7.334-2.539,7.334-7.621v-39.527c0.698-0.126,1.698-0.285,3-0.476
	s2.588-0.286,3.858-0.286c2.857,0,4.92,0.477,6.191,1.429c1.269,0.952,1.903,2.826,1.903,5.62v35.053
	C331.266,337.578,329.661,341.992,326.456,345.102z"/>
<path fill="#FFFFFF" d="M415.911,319.48c0,4.953-0.938,9.334-2.813,13.146c-1.876,3.811-4.487,7.001-7.839,9.573
	c-3.351,2.57-7.3,4.523-11.846,5.856c-4.547,1.334-9.495,2-14.838,2c-5.348,0-10.291-0.666-14.84-2
	c-4.545-1.333-8.478-3.286-11.785-5.856c-3.312-2.572-5.904-5.764-7.778-9.573c-1.876-3.811-2.812-8.191-2.812-13.146
	s0.957-9.317,2.872-13.097c1.914-3.777,4.547-6.954,7.896-9.525c3.351-2.571,7.278-4.523,11.786-5.857c4.506-1.333,9.394-2,14.659-2
	c5.265,0,10.171,0.667,14.719,2c4.547,1.333,8.495,3.286,11.846,5.857c3.352,2.571,5.982,5.748,7.897,9.525
	C414.954,310.162,415.911,314.527,415.911,319.48z M403.559,319.48c0-6.096-1.615-10.683-4.847-13.764
	c-3.231-3.079-14.631-4.62-20.135-4.62c-5.427,0-17.168,1.541-20.438,4.62c-3.271,3.081-4.905,7.668-4.905,13.764
	c0,6.16,1.615,10.78,4.847,13.859c3.23,3.08,14.993,4.619,20.498,4.619c5.504,0,16.902-1.539,20.135-4.619
	C401.944,330.26,403.559,325.64,403.559,319.48z"/>
<path fill="#FFFFFF" d="M471.569,296.62c0,0.762-0.271,1.842-0.81,3.237c-0.54,1.397-1.476,3.334-2.81,5.812
	c-1.333,2.477-3.129,5.62-5.383,9.43c-2.255,3.811-5.096,8.478-8.523,14.001v19.241c-0.699,0.19-1.667,0.364-2.905,0.523
	c-1.237,0.157-2.523,0.237-3.856,0.237c-2.985,0-5.049-0.509-6.191-1.523c-1.143-1.016-1.715-2.793-1.715-5.334v-13.24
	c-1.651-2.412-3.429-5.127-5.334-8.145c-1.904-3.016-3.778-6.063-5.619-9.144c-1.843-3.08-3.558-6.111-5.145-9.097
	c-1.588-2.984-2.856-5.651-3.811-8.001c0.698-1.079,1.698-2.063,3.001-2.953c1.301-0.89,2.905-1.333,4.81-1.333
	c2.224,0,4.032,0.461,5.431,1.381c1.396,0.921,2.729,2.652,4,5.191c0.127,0.189,0.442,0.777,0.953,1.762
	c0.507,0.984,1.095,2.128,1.762,3.429c0.667,1.302,1.381,2.715,2.144,4.239c0.763,1.523,1.477,2.938,2.144,4.239
	s1.253,2.429,1.763,3.381c0.507,0.953,0.824,1.523,0.952,1.714h0.478c1.015-2.095,1.951-4.096,2.81-6
	c0.856-1.905,1.698-3.794,2.524-5.667c0.823-1.872,1.666-3.777,2.522-5.715c0.857-1.938,1.763-4.048,2.715-6.334
	c1.017-0.508,2.145-0.905,3.382-1.19c1.238-0.285,2.396-0.429,3.478-0.429c2.03,0,3.746,0.54,5.144,1.619
	C470.869,293.033,471.569,294.588,471.569,296.62z"/>
<g>
	<path fill="#FA9DB7" d="M89.37,349.146c14.628-11.565,50.652-24.289,59.541-27.326v-18.698c-6.701-2.822-19.687-5.721-40.868-0.692
		c-33.556,7.967-44.391,36.26-44.391,36.26c3.142-1.858,6.377-3.392,9.462-4.643c8.965-3.647,16.608-4.925,16.608-4.925
		l-0.171,9.739L89.37,349.146z"/>
	<path fill="#45B3DF" d="M148.911,303.121c-6.701-2.822-19.687-5.721-40.868-0.692c-33.556,7.967-44.391,36.26-44.391,36.26
		c3.142-1.858,6.377-3.392,9.462-4.643c7.007-7.499,32.549-30.663,75.797-24.39V303.121L148.911,303.121z"/>
	<path fill="#FDC563" d="M148.911,317.492c-29.635,0.204-51.91,15.506-59.358,21.368l-0.183,10.285
		c14.628-11.565,50.652-24.289,59.541-27.326V317.492z"/>
</g>
<g>
	<path fill="#FFFFFF" d="M387.13,320.079c-1.161-0.547-2.531-0.068-3.422,1.226c-0.258,0.375-0.511,0.777-0.671,1.201
		c-1.36,3.557-6.721,4.24-9.303,0.907c-0.529-0.684-0.957-1.439-1.473-2.13c-0.989-1.322-2.272-1.712-3.441-1.082
		c-1.083,0.582-1.455,1.854-0.979,3.34c1.565,4.896,7.322,8.3,12.604,7.232c0.56-0.188,1.397-0.41,2.192-0.749
		c3.024-1.271,4.874-3.588,5.74-6.698C388.801,321.815,388.276,320.623,387.13,320.079z"/>
	<path fill="#FFFFFF" d="M369.688,312.437c-0.381-1.536-1.774-2.439-3.233-2.102c-1.622,0.381-2.458,2.014-2.027,3.961
		c0.347,1.548,1.575,2.451,2.979,2.183C369.031,316.167,370.132,314.217,369.688,312.437z"/>
	<path fill="#FFFFFF" d="M390.844,311.486c-1.625,0.382-2.458,2.014-2.027,3.966c0.342,1.545,1.575,2.444,2.979,2.18
		c1.625-0.314,2.725-2.262,2.284-4.044C393.696,312.053,392.303,311.146,390.844,311.486z"/>
</g>
</svg>
