<?xml version="1.0" encoding="utf-8"?>
<!-- Generator: Adobe Illustrator 16.0.0, SVG Export Plug-In . SVG Version: 6.00 Build 0)  -->
<!DOCTYPE svg PUBLIC "-//W3C//DTD SVG 1.1//EN" "http://www.w3.org/Graphics/SVG/1.1/DTD/svg11.dtd">
<svg version="1.1" id="圖層_1" xmlns="http://www.w3.org/2000/svg" xmlns:xlink="http://www.w3.org/1999/xlink" x="0px" y="0px"
	 width="291.274px" height="350.015px" viewBox="0 0 291.274 350.015" enable-background="new 0 0 291.274 350.015"
	 xml:space="preserve">
<g>
	<path fill="#A8E5FD" d="M200.964,134.12c-1.267,0-2.533-0.038-3.797-0.121c-1.06-0.069-2.15-0.071-3.203-0.21
		c-1.15-0.154-2.297-0.306-3.443-0.46c-0.932-0.122-1.854-0.293-2.774-0.466c-0.898-0.169-1.801-0.308-2.691-0.509
		c-3.992-0.917-7.996-1.854-11.921-3.038c-1.97-0.592-3.943-1.171-5.887-1.833c-0.929-0.314-1.872-0.594-2.778-0.964
		c-1.157-0.472-2.315-0.943-3.474-1.417c-0.988-0.404-1.939-0.914-2.898-1.378c-0.718-0.346-1.439-0.682-2.139-1.06
		c-1.989-1.081-3.963-2.173-5.925-3.299c-4.579-2.635-9.161-5.393-13.143-8.887c-4-3.515-7.545-7.707-10.074-12.414
		c-1.222-2.263-2.241-4.598-3.166-6.994c-1.48-3.821-2.586-7.825-3.184-11.883c-0.605-4.12-1.124-8.246-1.406-12.402
		c-0.146-2.156-0.169-4.295-0.146-6.457c0.026-2.137,0.297-4.28,0.522-6.404c0.229-2.124,0.673-4.223,1.094-6.312
		c0.196-0.938,0.459-1.863,0.688-2.792c0.128-0.517,0.319-1.03,0.478-1.538c0.143-0.462,0.267-0.943,0.432-1.4
		c0.861-2.342,1.768-4.686,2.996-6.868c1.451-2.584,3.185-4.928,5.057-7.214c2.571-3.135,5.484-6.075,8.575-8.701
		c3.053-2.592,6.157-5.214,9.563-7.334c3.439-2.143,7.022-4.068,10.789-5.568c1.932-0.771,3.876-1.513,5.834-2.222
		c1.88-0.682,3.805-1.317,5.767-1.726c1.993-0.415,3.985-0.829,6.008-1.054c2.222-0.248,4.439-0.462,6.665-0.648
		c3.988-0.333,8.015-0.425,12.015-0.547c1.199-0.036,2.297,0.528,3.019,1.41c2.567-0.252,5.165-0.209,7.736,0
		c2.361,0.189,4.711,0.545,7.061,0.852c0.951,0.12,1.895,0.346,2.834,0.528c1.004,0.19,2.012,0.382,3.016,0.575
		c0.801,0.15,1.598,0.427,2.383,0.637c1.248,0.334,2.493,0.671,3.744,1.006c1.918,0.517,3.82,1.165,5.685,1.848
		c2.507,0.919,4.98,1.938,7.379,3.109c2.313,1.129,4.591,2.352,6.733,3.786c2.259,1.509,4.409,3.173,6.439,4.979
		c3.955,3.521,7.504,7.511,10.571,11.827c3.252,4.571,6.21,9.412,8.184,14.682c1.042,2.797,1.88,5.643,2.545,8.552
		c0.478,2.09,0.914,4.233,1.15,6.368c0.282,2.571,0.647,5.148,0.771,7.738c0.271,5.686-0.064,11.46-1.158,17.052
		c-1.049,5.363-2.632,10.695-5.222,15.528c-2.643,4.925-6.116,9.425-10.214,13.227c-2.022,1.88-4.203,3.588-6.515,5.098
		c-2.188,1.434-4.485,2.769-6.872,3.846c-1.695,0.767-3.38,1.592-5.109,2.284c-2.019,0.803-4.029,1.611-6.071,2.355
		c-2.112,0.771-4.232,1.496-6.375,2.197c-3.778,1.24-7.646,2.31-11.561,3.041c-1.045,0.195-2.098,0.438-3.153,0.581
		c-1.237,0.165-2.481,0.334-3.722,0.5C206.114,133.952,203.539,134.12,200.964,134.12z M267.104,74.008
		c-0.003,0.16-0.011,0.323-0.019,0.483c0.105-2.534,0.057-5.055-0.105-7.584c-0.161-1.46-0.319-2.919-0.48-4.381
		c-0.252-2.288-0.636-4.547-1.109-6.799c-0.519-2.237-1.124-4.445-1.872-6.62c-0.711-1.934-1.522-3.823-2.436-5.675
		c-1.324-2.526-2.827-4.947-4.429-7.302c-1.895-2.684-3.933-5.255-6.136-7.691c-1.65-1.754-3.383-3.402-5.21-4.966
		c-1.673-1.381-3.402-2.674-5.218-3.855c-2.098-1.288-4.274-2.427-6.508-3.464c-3.21-1.433-6.496-2.626-9.853-3.673
		c-2.098-0.564-4.191-1.13-6.289-1.694c-0.79-0.21-1.617-0.318-2.422-0.468c-0.921-0.179-1.838-0.35-2.755-0.526
		c-2.91-0.38-5.805-0.788-8.736-0.94c-1.549-0.042-3.083,0.019-4.632,0.137c-2.203,0.252-4.413,0.474-6.594,0.904
		c-0.737,0.184-1.463,0.391-2.185,0.631c-0.315,0.122-0.628,0.25-0.936,0.393c-0.016,0.006-0.026,0.014-0.038,0.021
		c-0.718,0.53-1.466,0.868-2.387,0.91c-2.045,0.092-3.801-1.637-3.884-3.639c-0.635,0.047-1.271,0.094-1.902,0.145
		c-1.604,0.18-3.202,0.363-4.8,0.6c-1.392,0.207-2.752,0.478-4.128,0.761c-1.402,0.393-2.782,0.803-4.161,1.259
		c-1.699,0.617-3.388,1.248-5.061,1.916c-1.707,0.678-3.372,1.443-5.033,2.222c-1.248,0.646-2.478,1.31-3.699,2.007
		c-1.185,0.675-2.316,1.453-3.443,2.222c-3.079,2.272-6.019,4.686-8.872,7.235c-1.861,1.81-3.636,3.673-5.376,5.6
		c-1.319,1.62-2.598,3.251-3.744,5.005c-0.598,0.985-1.146,1.989-1.662,3.022c-0.466,1.058-0.928,2.111-1.33,3.199
		c-0.388,1.051-0.722,2.109-1.053,3.175c-0.439,1.755-0.831,3.503-1.191,5.271c-0.229,1.503-0.444,3-0.602,4.511
		c-0.144,1.314-0.226,2.632-0.309,3.949c-0.019,1.265-0.034,2.526,0.015,3.797c0.042,1.209,0.124,2.417,0.207,3.624
		c0.406,4.352,0.943,8.667,1.733,12.966c0.263,1.162,0.533,2.321,0.864,3.47c0.323,1.12,0.695,2.222,1.075,3.325
		c0.76,1.964,1.53,3.915,2.466,5.804c0.752,1.421,1.571,2.797,2.467,4.139c1.011,1.429,2.09,2.799,3.248,4.111
		c1.252,1.344,2.575,2.603,3.974,3.799c1.353,1.114,2.748,2.174,4.221,3.127c0.752,0.489,1.508,0.978,2.26,1.47
		c2.354,1.425,4.703,2.874,7.12,4.188c1.309,0.71,2.59,1.483,3.929,2.13c1.199,0.579,2.395,1.158,3.59,1.737
		c0.669,0.274,1.338,0.545,2.011,0.821c0.598,0.242,1.192,0.528,1.805,0.735c1.278,0.434,2.557,0.869,3.835,1.303
		c3.18,0.951,6.364,1.863,9.578,2.695c1.827,0.472,3.665,0.898,5.504,1.319c1.395,0.325,2.808,0.559,4.214,0.816
		c0.797,0.107,1.591,0.214,2.388,0.317c0.602,0.081,1.214,0.203,1.823,0.241c1.428,0.096,2.856,0.188,4.281,0.278
		c2.03,0.043,4.045-0.005,6.067-0.166c2.071-0.205,4.128-0.498,6.191-0.771c1.343-0.184,2.681-0.496,4.012-0.748
		c1.191-0.288,2.383-0.579,3.575-0.867c1.033-0.252,2.053-0.577,3.075-0.872c2.078-0.605,4.131-1.286,6.191-1.962
		c5.086-1.861,10.135-3.786,14.973-6.238c1.794-0.949,3.526-1.987,5.203-3.132c1.489-1.065,2.91-2.201,4.274-3.415
		c1.425-1.331,2.744-2.748,4.008-4.235c1.202-1.468,2.326-2.978,3.356-4.571c0.929-1.507,1.76-3.058,2.519-4.656
		c0.729-1.652,1.357-3.333,1.902-5.049c0.741-2.498,1.35-5.017,1.805-7.577C266.699,79.525,266.962,76.771,267.104,74.008z"/>
	<path fill="#A8E5FD" d="M220.407,78.931c-0.282,0-0.564-0.005-0.846-0.015c-2.624-0.088-5.26-0.331-7.782-1.109
		c-4.917-1.515-9.578-4.669-12.567-8.904c-1.653-2.346-2.98-4.823-3.876-7.562c-0.815-2.476-1.417-5.013-1.608-7.62
		c-0.35-4.846,0.12-10.145,3.086-14.189c1.587-2.162,3.602-4.043,5.898-5.44c1.88-1.145,3.872-2.071,5.925-2.863
		c3.842-1.487,7.759-2.806,11.732-3.883c1.146-0.31,2.331-0.069,3.244,0.57c0.207-0.011,0.41-0.021,0.609-0.022
		c3.083-0.063,6.165,0.323,9.116,1.227c2.947,0.902,5.714,2.226,8.154,4.13c1.108,0.868,2.195,1.776,3.165,2.804
		c0.831,0.885,1.669,1.79,2.263,2.857c1.489,2.652,2.32,5.479,2.632,8.498c0.271,2.641,0.067,5.331-0.413,7.936
		c-0.52,2.793-1.418,5.603-2.865,8.069c-1.35,2.313-2.879,4.569-4.695,6.546c-1.774,1.94-3.774,3.699-6.082,4.983
		c-2.286,1.276-4.748,2.314-7.293,2.955C225.659,78.54,223.035,78.931,220.407,78.931z M225.347,35.478
		c-0.496,0-0.984,0.011-1.478,0.042c-0.278,0.032-0.556,0.073-0.831,0.124c-0.131,0.034-0.259,0.071-0.387,0.109
		c-0.154,0.064-0.305,0.126-0.459,0.188c-0.041,0.026-0.086,0.051-0.128,0.081c-1.218,0.806-2.8,0.675-3.988-0.072
		c-1.586,0.504-3.161,1.043-4.729,1.598c-1.736,0.671-3.462,1.337-5.131,2.15c-0.688,0.369-1.361,0.758-2.012,1.185
		c-0.56,0.406-1.098,0.827-1.62,1.282c-0.372,0.355-0.729,0.72-1.075,1.104c-0.263,0.338-0.511,0.682-0.752,1.038
		c-0.188,0.323-0.36,0.646-0.526,0.981c-0.165,0.414-0.315,0.825-0.454,1.246c-0.136,0.528-0.256,1.053-0.357,1.581
		c-0.09,0.624-0.15,1.246-0.195,1.872c-0.026,1.103,0.004,2.197,0.079,3.299c0.104,0.964,0.252,1.913,0.443,2.862
		c0.282,1.186,0.635,2.346,1.03,3.5c0.285,0.739,0.598,1.453,0.939,2.166c0.384,0.71,0.797,1.4,1.237,2.075
		c0.499,0.688,1.025,1.35,1.586,1.994c0.437,0.453,0.887,0.883,1.357,1.299c0.714,0.566,1.443,1.088,2.199,1.586
		c0.616,0.372,1.24,0.708,1.887,1.026c0.703,0.301,1.406,0.564,2.136,0.801c0.594,0.152,1.184,0.282,1.781,0.395
		c1.045,0.152,2.091,0.261,3.143,0.323c1.17,0.03,2.335-0.002,3.5-0.088c0.854-0.096,1.692-0.22,2.538-0.377
		c1.135-0.265,2.244-0.592,3.35-0.976c0.785-0.299,1.549-0.623,2.312-0.979c0.771-0.412,1.515-0.854,2.244-1.336
		c0.549-0.41,1.083-0.834,1.598-1.284c0.658-0.639,1.286-1.303,1.892-1.991c0.932-1.154,1.785-2.355,2.598-3.596
		c0.443-0.733,0.853-1.474,1.226-2.244c0.297-0.701,0.563-1.404,0.808-2.124c0.241-0.834,0.44-1.667,0.605-2.519
		c0.169-1.077,0.289-2.154,0.357-3.239c0.015-0.754,0-1.498-0.049-2.252c-0.075-0.722-0.188-1.43-0.327-2.139
		c-0.136-0.53-0.282-1.051-0.451-1.569c-0.192-0.483-0.398-0.955-0.628-1.427c-0.136-0.248-0.286-0.492-0.439-0.729
		c-0.144-0.19-0.286-0.374-0.44-0.555c-0.643-0.673-1.301-1.312-1.996-1.925c-0.733-0.594-1.484-1.148-2.267-1.673
		c-0.598-0.357-1.199-0.682-1.823-0.983c-0.865-0.361-1.744-0.684-2.636-0.972c-0.763-0.209-1.529-0.386-2.308-0.543
		c-1.004-0.148-2.004-0.25-3.019-0.312C225.572,35.478,225.46,35.478,225.347,35.478z"/>
	<path fill="#A8E5FD" d="M223.851,63.742c2.037-0.308,3.508-2.284,3.185-4.325c-0.471-2.962-1.02-5.912-1.666-8.842
		c-0.338-1.543-0.688-3.079-1.075-4.609c-0.263-1.052-0.511-2.12-0.978-3.107c-0.571-1.203-1.736-2.182-3.108-2.271
		c-2.064-0.133-3.951,1.257-4.173,3.378c-0.071,0.656,0.049,1.319,0.312,1.917l0,0c0.008,0.021,0.02,0.042,0.026,0.064
		c0.02,0.034,0.034,0.066,0.053,0.098c0.016,0.034,0.03,0.066,0.045,0.098c0.365,1.122,0.632,2.282,0.898,3.427
		c0.252,1.083,0.493,2.166,0.733,3.252c0.534,2.571,1.012,5.146,1.425,7.738c0.297,1.857,1.929,3.224,3.767,3.224
		C223.479,63.783,223.666,63.772,223.851,63.742z"/>
	<path fill="#A8E5FD" d="M216.344,45.879c0,0.002,0,0.004,0.003,0.004C216.347,45.881,216.347,45.881,216.344,45.879z"/>
	<path fill="#A8E5FD" d="M216.344,45.879c0,0,0,0,0,0.002C216.344,45.879,216.344,45.879,216.344,45.879z"/>
	<path fill="#A8E5FD" d="M172.318,87.442c-0.162,0-0.319-0.004-0.478-0.004c-2.609-0.042-5.252-0.261-7.785-0.919
		c-5.166-1.34-9.962-3.895-14.098-7.25c-3.15-2.551-5.545-5.823-7.312-9.457c-1.041-2.137-1.74-4.353-1.943-6.729
		c-0.195-2.297,0.008-4.59,0.681-6.802c1.063-3.497,2.669-6.805,4.582-9.919c1.305-2.124,2.854-4.055,4.706-5.724
		c1.38-1.246,2.884-2.297,4.451-3.288c1.632-1.028,3.368-2.011,5.169-2.72c1.959-0.771,3.937-1.423,5.974-1.949
		c1.169-0.303,2.376-0.057,3.293,0.605c0.313-0.087,0.636-0.128,0.974-0.115c1.508,0.052,3.016,0.175,4.478,0.566
		c1.44,0.385,2.842,0.857,4.188,1.515c2.815,1.38,5.432,3.272,7.665,5.478c2.248,2.224,4.315,4.712,5.853,7.484
		c1.595,2.872,2.778,5.883,3.522,9.084c0.79,3.387,1.128,7.026,0.707,10.49c-0.364,2.978-1.094,6.045-2.643,8.65
		c-1.534,2.583-3.474,4.787-5.939,6.519c-2.579,1.81-5.542,2.945-8.598,3.633C177.333,87.14,174.814,87.442,172.318,87.442z
		 M168.326,39.989c-1.354,0.35-2.677,0.757-3.996,1.21c-0.79,0.314-1.564,0.643-2.343,0.994c-1.484,0.776-2.932,1.613-4.319,2.551
		c-0.702,0.513-1.372,1.047-2.022,1.619c-0.571,0.549-1.112,1.118-1.635,1.718c-0.522,0.673-1.012,1.367-1.478,2.083
		c-0.929,1.526-1.774,3.109-2.541,4.722c-0.433,0.976-0.823,1.964-1.162,2.978c-0.21,0.724-0.387,1.451-0.526,2.193
		c-0.041,0.311-0.075,0.624-0.098,0.937c0,0.503,0.022,1.005,0.057,1.507c0.049,0.416,0.109,0.821,0.188,1.231
		c0.102,0.402,0.215,0.792,0.343,1.19c0.222,0.566,0.462,1.12,0.729,1.673c0.604,1.126,1.225,2.228,1.939,3.292
		c0.443,0.609,0.906,1.193,1.406,1.763c0.549,0.57,1.127,1.104,1.725,1.619c1.038,0.831,2.105,1.6,3.223,2.319
		c1.21,0.737,2.439,1.416,3.714,2.026c1.019,0.447,2.041,0.848,3.102,1.195c0.958,0.272,1.917,0.498,2.895,0.682
		c1.082,0.16,2.165,0.273,3.255,0.335c1.268,0.034,2.53,0,3.794-0.088c1.139-0.119,2.263-0.288,3.387-0.509
		c0.861-0.203,1.699-0.44,2.541-0.716c0.695-0.263,1.372-0.558,2.045-0.881c0.463-0.258,0.922-0.53,1.373-0.818
		c0.499-0.361,0.974-0.739,1.436-1.143c0.342-0.334,0.669-0.678,0.988-1.032c0.373-0.458,0.719-0.93,1.042-1.421
		c0.256-0.433,0.492-0.869,0.718-1.32c0.248-0.581,0.466-1.169,0.669-1.769c0.177-0.66,0.331-1.319,0.463-1.989
		c0.116-0.801,0.203-1.596,0.252-2.402c0.026-1.015,0.003-2.021-0.064-3.032c-0.124-1.178-0.297-2.338-0.53-3.5
		c-0.274-1.158-0.608-2.293-0.992-3.421c-0.36-0.928-0.759-1.836-1.195-2.731c-0.53-0.996-1.105-1.955-1.736-2.893
		c-0.692-0.955-1.422-1.872-2.196-2.756c-0.801-0.848-1.631-1.648-2.511-2.413c-0.876-0.71-1.774-1.374-2.718-1.995
		c-0.594-0.35-1.192-0.678-1.813-0.987c-0.556-0.244-1.12-0.466-1.699-0.666c-0.594-0.165-1.184-0.31-1.789-0.432
		c-0.534-0.075-1.067-0.122-1.609-0.152C169.781,40.718,168.995,40.496,168.326,39.989z"/>
	<path fill="#A8E5FD" d="M176.514,66.697c2.063-0.312,3.47-2.278,3.181-4.325c-0.305-2.177-0.636-4.352-1.016-6.517
		c-0.188-1.077-0.376-2.156-0.598-3.228c-0.203-0.97-0.36-1.976-0.643-2.925c-0.594-1.981-2.691-3.176-4.695-2.601
		c-1.974,0.563-3.199,2.718-2.605,4.695c0.064,0.22,0.117,0.445,0.166,0.671c0.755,3.66,1.36,7.348,1.883,11.047
		c0.264,1.862,1.947,3.223,3.778,3.223C176.146,66.738,176.329,66.723,176.514,66.697z"/>
	<path fill="#A8E5FD" d="M203.911,109.565c3-0.72,5.74-2.028,8.226-3.853c1.263-0.93,2.376-2.086,3.406-3.261
		c1.022-1.164,1.86-2.462,2.525-3.859c1.309-2.748,1.729-5.987,1.508-9.003c-0.06-0.831-0.083-1.679-0.421-2.455
		c-0.488-1.131-1.451-1.846-2.605-2.184c-1.988-0.581-4.116,0.882-4.575,2.816c-0.127,0.545-0.131,1.118-0.019,1.664
		c0.004,0.015,0.008,0.032,0.012,0.047c0.041,0.697,0.06,1.391,0.056,2.088c-0.029,0.468-0.075,0.928-0.135,1.395
		c-0.105,0.536-0.226,1.062-0.368,1.59c-0.079,0.231-0.162,0.457-0.256,0.678c-0.181,0.371-0.376,0.729-0.583,1.086
		c-0.24,0.355-0.488,0.696-0.756,1.032c-0.47,0.53-0.951,1.041-1.458,1.536c-0.447,0.395-0.906,0.765-1.384,1.124
		c-0.504,0.336-1.019,0.646-1.553,0.938c-0.582,0.278-1.169,0.534-1.774,0.769c-0.575,0.19-1.153,0.359-1.74,0.504
		c-0.643,0.124-1.278,0.216-1.925,0.288c-0.537,0.024-1.06,0.026-1.59,0.015c-0.549-0.047-1.087-0.104-1.632-0.181
		c-0.297-0.06-0.598-0.133-0.895-0.218c-0.248-0.083-0.5-0.171-0.74-0.272c-0.448-0.216-0.884-0.447-1.316-0.699
		c-0.484-0.329-0.951-0.677-1.417-1.038c-0.733-0.639-1.413-1.312-2.098-2.003c-1.004-1.154-1.974-2.325-2.864-3.567
		c-0.091-0.138-0.185-0.273-0.274-0.412c-1.132-1.729-3.384-2.404-5.207-1.306c-1.722,1.03-2.439,3.478-1.309,5.208
		c1.549,2.368,3.361,4.5,5.339,6.517c1.063,1.083,2.301,2.038,3.56,2.878c1.354,0.904,2.876,1.631,4.451,2.053
		c1.643,0.436,3.346,0.652,5.045,0.652C200.75,110.129,202.358,109.938,203.911,109.565z"/>
	<path fill="#A8E5FD" d="M105.117,74.45c1.835-0.795,2.88-3.135,1.978-4.996c-0.308-0.632-0.579-1.263-0.834-1.916
		c-0.124-0.412-0.249-0.821-0.354-1.24c-0.091-0.464-0.158-0.925-0.215-1.397c-0.007-0.237-0.015-0.474-0.007-0.714
		c0.019-0.196,0.037-0.395,0.056-0.59c0.087-0.451,0.192-0.893,0.313-1.334c0.083-0.235,0.169-0.464,0.267-0.69
		c0.087-0.181,0.181-0.355,0.282-0.526c0.049-0.071,0.102-0.143,0.15-0.214c0.165-0.184,0.335-0.355,0.507-0.528
		c0.136-0.114,0.271-0.225,0.414-0.329c0.094-0.06,0.188-0.117,0.282-0.169c0.082-0.038,0.165-0.075,0.252-0.109
		c0.102-0.034,0.202-0.06,0.304-0.086c0.144-0.024,0.282-0.045,0.422-0.062c0.474-0.024,0.939-0.021,1.405-0.009
		c2.195,0.169,4.368,0.478,6.538,0.817c4.387,0.767,8.74,1.666,13.09,2.63c2.379,0.528,4.763,1.028,7.165,1.464
		c1.026,0.185,2.075,0.342,3.116,0.435c1.512,0.133,3.079,0.325,4.594,0.109c1.508-0.216,2.771-1.395,3.12-2.874
		c0.387-1.637-0.388-3.441-1.898-4.224c-0.462-0.24-0.906-0.353-1.417-0.436c-0.388-0.065-0.774-0.054-1.143,0.021
		c-0.32,0.001-0.632-0.004-0.947-0.015c-1.335-0.119-2.65-0.276-3.974-0.46c-3.538-0.652-7.042-1.453-10.557-2.222
		c-3.653-0.797-7.334-1.498-11.025-2.084c-1.654-0.261-3.309-0.477-4.974-0.646c-0.974-0.102-1.967-0.133-2.943-0.117
		c-1.843,0.034-3.572,0.547-5.173,1.437c-0.711,0.391-1.347,0.943-1.937,1.492c-0.714,0.664-1.354,1.406-1.857,2.246
		c-1.21,2.028-1.943,4.419-2.011,6.786c-0.083,3.007,0.71,5.895,2.015,8.579c0.681,1.395,2.049,2.286,3.52,2.286
		C104.129,74.76,104.629,74.661,105.117,74.45z"/>
	<path fill="#A8E5FD" d="M281.743,62.458c1.94-1.122,3.602-2.602,5.154-4.207c0.579-0.596,1.162-1.192,1.685-1.842
		c0.755-0.939,1.578-2.021,1.966-3.18c0.782-2.355,0.959-4.877,0.037-7.233c-0.864-2.214-2.251-4.062-4.071-5.586
		c-0.913-0.765-1.917-1.4-2.932-2.028c-1.146-0.709-2.429-1.134-3.718-1.498c-2.181-0.624-4.549-0.498-6.767-0.226
		c-2.162,0.263-4.313,0.874-6.346,1.622c-0.959,0.354-1.906,0.691-2.835,1.109c-1.053,0.476-2.083,0.97-3.116,1.487
		c-1.793,0.898-3.567,1.838-5.331,2.797c-3.346,1.821-6.608,3.799-9.925,5.675c-1.391,0.592-2.375,2.043-2.338,3.6
		c0.049,2.103,1.815,3.708,3.884,3.708c0.823,0,1.549-0.335,2.244-0.729c0.639-0.355,1.263-0.733,1.895-1.1
		c1.35-0.79,2.71-1.562,4.06-2.344c2.598-1.502,5.237-2.923,7.892-4.314c1.135-0.569,2.263-1.131,3.417-1.654
		c1.075-0.485,2.173-0.893,3.274-1.3c0.947-0.295,1.898-0.56,2.864-0.786c0.782-0.15,1.563-0.273,2.36-0.359
		c0.451-0.022,0.902-0.032,1.357-0.028c0.402,0.026,0.801,0.067,1.203,0.124c0.252,0.052,0.504,0.115,0.756,0.19
		c0.24,0.081,0.48,0.165,0.714,0.263c0.372,0.188,0.733,0.386,1.091,0.6c0.466,0.309,0.924,0.623,1.372,0.959
		c0.312,0.276,0.612,0.558,0.905,0.853c0.136,0.164,0.268,0.327,0.392,0.5c0.128,0.196,0.252,0.397,0.364,0.602
		c0.083,0.175,0.158,0.354,0.233,0.53c0.026,0.096,0.053,0.19,0.079,0.282c0.019,0.107,0.041,0.216,0.056,0.323
		c0-0.056-0.007-0.115-0.015-0.175v0.004c0-0.006,0-0.013,0-0.019c-0.004-0.045-0.008-0.088-0.012-0.129
		c0.004,0.005,0.004,0.011,0.008,0.021c0.022,0.226,0.034,0.447,0.034,0.673c-0.016,0.122-0.03,0.241-0.045,0.359
		c-0.016,0.092-0.038,0.186-0.057,0.278c-0.026,0.075-0.053,0.152-0.075,0.226c-0.14,0.276-0.297,0.543-0.478,0.795
		c0.086-0.143,0.177-0.284,0.267-0.427c-0.169,0.257-0.35,0.507-0.541,0.75c-0.861,0.947-1.748,1.861-2.677,2.738
		c-0.425,0.352-0.85,0.698-1.289,1.028c-0.297,0.194-0.591,0.378-0.898,0.553c-1.79,1.038-2.361,3.455-1.309,5.21
		c0.711,1.188,1.978,1.829,3.271,1.829C280.466,62.98,281.135,62.81,281.743,62.458z"/>
	<path fill="#A8E5FD" d="M283.608,49.096c0,0.007,0,0.015,0,0.021C283.608,49.111,283.608,49.103,283.608,49.096z"/>
	<path fill="#A8E5FD" d="M168.642,281.382c2.012-1.338,2.974-3.5,3.823-5.677c1.004-2.582,1.831-5.232,2.665-7.868
		c1.782-5.653,3.398-11.356,5.087-17.037c1.248-4,2.519-7.984,3.808-11.966c1.188-3.649,2.402-7.312,3.771-10.897
		c1.504-3.955,3.068-7.88,4.692-11.793c1.545-3.726,3.067-7.459,4.507-11.229c0.729-1.909,1.481-3.812,2.185-5.736
		c0.729-2.008,1.519-4,2.191-6.03c1.409-4.218,2.774-8.443,4.12-12.68c2.485-7.844,4.819-15.725,6.883-23.689
		c0.85-3.28,1.741-6.545,2.644-9.808c0.507-1.538,1.011-3.071,1.519-4.607c0.433-1.297,1.026-2.55,1.56-3.815
		c0.365-0.744,0.729-1.491,1.098-2.235c0.384-0.784,0.914-1.513,1.229-2.333c0.733-1.931-0.274-4.164-2.206-4.896
		c-1.797-0.679-3.839,0.137-4.715,1.802c0.004-0.013,0.016-0.028,0.02-0.047c-0.309,0.637-0.677,1.252-1.016,1.876
		c-0.447,0.812-0.819,1.666-1.226,2.496c-0.447,0.912-0.797,1.878-1.188,2.816c-0.252,0.607-0.512,1.205-0.718,1.827
		c-0.575,1.739-1.226,3.468-1.715,5.235c-0.557,2.026-1.112,4.053-1.673,6.081c-0.902,3.278-1.703,6.584-2.605,9.866
		c-0.954,3.466-1.97,6.907-3.007,10.351c-1.26,4.052-2.53,8.099-3.805,12.144c-1.226,3.888-2.583,7.722-3.981,11.549
		c-2.777,7.608-5.871,15.082-8.932,22.578c-1.519,3.718-2.939,7.466-4.278,11.248c-1.304,3.691-2.511,7.413-3.722,11.135
		c-2.36,7.289-4.451,14.653-6.661,21.984c0.004-0.004,0.004-0.008,0.008-0.008c-0.681,2.195-1.372,4.384-2.091,6.571
		c-0.624,1.918-1.263,3.857-2.075,5.715c-0.12,0.24-0.24,0.473-0.372,0.706c-0.029,0.038-0.06,0.083-0.09,0.12
		c-0.677,0.545-1.173,1.241-1.38,2.117c-0.226,0.954-0.067,1.984,0.437,2.83c0.684,1.143,2.019,1.854,3.342,1.854
		C167.424,281.931,168.074,281.758,168.642,281.382z"/>
	<path fill="#A8E5FD" d="M168.991,262.04c0,0.008-0.004,0.016-0.008,0.023C168.987,262.056,168.991,262.048,168.991,262.04z"/>
	<path fill="#A8E5FD" d="M168.999,262.025c0,0.008-0.004,0.011-0.008,0.015C168.995,262.036,168.999,262.033,168.999,262.025z"/>
	<path fill="#A8E5FD" d="M68.27,248.8c-0.595,0-1.192-0.037-1.782-0.127c-1.075-0.162-2.181-0.339-3.195-0.745
		c-1.166-0.466-2.29-1.007-3.331-1.706c-3.305-2.222-5.864-5.188-8.383-8.218c-2.666-3.203-4.974-6.718-7.195-10.233
		c-2.237-3.537-4.105-7.285-5.85-11.082c-1.662-3.616-3.037-7.406-4.15-11.226c-0.59-2.03-1.019-4.094-1.26-6.195
		c-0.398-3.474-0.383-7.049,0.504-10.443c1.222-4.653,3.319-9.097,5.605-13.313c2.037-3.755,4.346-7.345,6.699-10.909
		c2.146-3.248,4.334-6.503,6.732-9.569c2.571-3.274,5.199-6.494,7.857-9.697c2.673-3.224,5.304-6.517,8.153-9.59
		c2.801-3.019,5.669-6.011,8.872-8.614c3.135-2.543,6.459-4.85,9.774-7.15c3.075-2.141,6.184-4.235,9.319-6.288
		c0.83-0.543,1.665-1.077,2.515-1.59c0.812-0.492,1.643-1.015,2.519-1.383c0.695-0.29,1.402-0.551,2.113-0.792
		c0.075-0.129,0.161-0.257,0.255-0.379c1.046-1.338,2.613-2.207,4.087-2.991c1.598-0.848,3.293-1.521,5.022-2.052
		c1.823-0.557,3.653-1.068,5.533-1.408c3.636-0.66,7.315-1.024,10.985-0.368c2.36,0.425,4.751,1.056,6.909,2.141
		c1.181,0.594,2.338,1.288,3.387,2.102c0.865,0.675,1.744,1.365,2.504,2.158c3.278,3.427,5.804,7.741,6.936,12.37
		c1.185,4.833,1.646,9.919,0.951,14.866c-0.557,3.957-1.695,7.757-3.203,11.447c-0.755,1.848-1.522,3.681-2.334,5.506
		c-3.364,7.539-6.729,15.084-10.214,22.568c-1.797,3.863-3.598,7.72-5.586,11.49c-0.523,1-1.008,2.042-1.587,3.012
		c-0.508,0.86-1.019,1.718-1.53,2.579c-1.112,1.875-2.278,3.698-3.478,5.525c-2.232,3.398-4.537,6.756-6.8,10.135
		c-2.301,3.437-4.53,6.918-6.838,10.346c-2.227,3.309-4.64,6.52-7.241,9.526c-2.673,3.09-5.627,5.913-8.503,8.812
		c-1.278,1.293-2.557,2.594-3.831,3.891c-1.466,1.485-3.011,2.981-4.872,3.975c-1.278,0.676-2.616,1.277-4.011,1.68
		c-0.933,0.268-1.865,0.5-2.809,0.726c-1.045,0.241-2.105,0.429-3.161,0.602c-0.895,0.15-1.801,0.313-2.703,0.391
		C70.532,248.673,69.4,248.8,68.27,248.8z M125.609,109.974c-0.748,0-1.488,0.028-2.236,0.084c-1.316,0.143-2.605,0.374-3.906,0.611
		c-1.703,0.404-3.384,0.836-5.041,1.406c-0.719,0.271-1.421,0.562-2.109,0.877c-0.207,1.449-1.229,2.748-2.707,3.154
		c-1.236,0.34-2.466,0.703-3.688,1.1c-0.526,0.199-1.045,0.41-1.557,0.65c-2.127,1.199-4.143,2.571-6.184,3.906
		c-2.049,1.338-4.063,2.728-6.075,4.118c-4.011,2.788-8.015,5.584-11.698,8.797c-2.177,2.032-4.309,4.126-6.282,6.357
		c-1.97,2.224-3.895,4.489-5.801,6.765c-3.56,4.29-7.199,8.542-10.511,13.032c-3.282,4.445-6.334,9.056-9.281,13.727
		c-0.888,1.509-1.774,3.011-2.609,4.552c-0.797,1.463-1.53,2.947-2.256,4.443c-0.872,2-1.71,4-2.391,6.079
		c-0.218,0.763-0.402,1.534-0.557,2.312c-0.112,0.797-0.191,1.587-0.244,2.392c-0.019,1.03,0.026,2.041,0.071,3.067
		c0.14,1.188,0.313,2.36,0.512,3.549c0.612,2.504,1.398,4.932,2.252,7.368c0.691,1.797,1.383,3.598,2.191,5.35
		c0.864,1.891,1.778,3.74,2.718,5.598c0.688,1.21,1.327,2.466,2.071,3.646c0.797,1.259,1.594,2.519,2.391,3.777
		c2.313,3.313,4.677,6.575,7.376,9.583c0.801,0.85,1.636,1.665,2.516,2.439c0.549,0.439,1.108,0.857,1.688,1.252
		c0.429,0.256,0.857,0.481,1.305,0.699c0.18,0.075,0.364,0.143,0.553,0.211c0.263,0.071,0.529,0.135,0.801,0.188
		c0.405,0.061,0.808,0.105,1.214,0.136c0.439,0,0.872-0.016,1.308-0.038c2.095-0.203,4.154-0.537,6.222-0.939
		c0.929-0.219,1.85-0.459,2.768-0.722c0.608-0.226,1.206-0.463,1.804-0.737c0.406-0.226,0.797-0.466,1.185-0.722
		c0.339-0.259,0.669-0.526,0.992-0.805c2.376-2.248,4.613-4.646,6.925-6.962c1.313-1.309,2.658-2.594,3.925-3.947
		c1.165-1.24,2.297-2.508,3.413-3.789c1.993-2.508,3.892-5.067,5.733-7.685c1.703-2.417,3.285-4.925,4.905-7.391
		c3.526-5.364,7.143-10.665,10.669-16.019c1.042-1.748,2.14-3.47,3.087-5.263c1.139-2.161,2.278-4.319,3.346-6.515
		c2.004-4.12,3.925-8.28,5.834-12.447c1.884-4.159,3.748-8.323,5.624-12.484c2.071-4.588,4.218-9.178,5.771-13.973
		c0.41-1.385,0.744-2.776,1.012-4.195c0.203-1.329,0.327-2.654,0.398-3.998c0.026-1.329,0-2.652-0.102-3.974
		c-0.143-1.348-0.35-2.673-0.609-4c-0.236-1.026-0.519-2.034-0.86-3.03c-0.274-0.716-0.583-1.416-0.91-2.107
		c-0.5-0.945-1.037-1.862-1.628-2.757c-0.436-0.598-0.898-1.167-1.38-1.724c-0.515-0.526-1.037-1.021-1.594-1.496
		c-0.5-0.387-1.007-0.755-1.53-1.111c-0.439-0.267-0.883-0.517-1.342-0.752c-0.62-0.269-1.244-0.509-1.883-0.729
		c-0.993-0.287-1.996-0.524-3.008-0.714c-0.654-0.092-1.305-0.154-1.962-0.194C126.03,109.976,125.82,109.974,125.609,109.974z"/>
	<path fill="#A8E5FD" d="M101.396,178.821c0.467-0.207,0.898-0.41,1.309-0.718c0.549-0.406,0.955-0.847,1.384-1.369
		c0.395-0.48,0.714-1.1,1.033-1.631c0.215-0.355,0.433-0.708,0.643-1.067c0.485-0.831,0.971-1.658,1.437-2.495
		c1.943-3.484,3.726-7.046,5.526-10.603c1.718-3.4,3.616-6.689,5.586-9.949c1.805-2.846,3.646-5.679,5.384-8.569
		c0.958-1.605,1.921-3.203,2.812-4.85c0.913-1.682,1.793-3.359,2.628-5.079c1.632-3.387,3.15-6.821,4.684-10.253
		c0.756-1.688,1.526-3.37,2.29-5.053c0.616-1.357,1.267-2.725,1.759-4.133c0.677-1.953-0.229-4.15-2.206-4.898
		c-1.896-0.718-4.219,0.25-4.895,2.205c-0.44,1.254-1.02,2.46-1.553,3.677c-0.658,1.501-1.357,2.99-2.034,4.486
		c-1.252,2.761-2.484,5.532-3.736,8.295c-1.057,2.19-2.113,4.365-3.267,6.5c-1.177,2.171-2.44,4.28-3.711,6.398
		c-3.236,5.11-6.537,10.188-9.35,15.554c-1.474,2.818-2.883,5.671-4.342,8.498c-1.323,2.554-2.736,5.064-4.218,7.528
		c-0.162-0.109-0.315-0.228-0.47-0.346c-0.605-0.528-1.173-1.088-1.726-1.671c-2.583-2.929-4.876-6.107-7.139-9.282
		c-0.579-0.859-1.162-1.714-1.696-2.604c-0.608-1.009-1.176-2.022-1.74-3.052c-2.334-4.743-4.229-9.675-6.436-14.477
		c-0.861-1.882-3.064-2.81-4.992-1.976c-1.869,0.808-2.839,3.115-1.974,4.994c1.552,3.391,2.925,6.864,4.45,10.269
		c0.816,1.831,1.65,3.658,2.613,5.419c1.022,1.872,2.139,3.658,3.327,5.428c1.188,1.78,2.492,3.485,3.771,5.199
		c1.736,2.329,3.567,4.628,5.643,6.665c1.586,1.557,3.767,3.136,6.063,3.293c0.346,0.016,0.699,0.038,1.049,0.038
		C100.02,179.193,100.734,179.114,101.396,178.821z"/>
	<path fill="#A8E5FD" d="M64.871,220.402c1.729-0.252,3.176-1.285,4.56-2.271c0.774-0.557,1.53-1.143,2.271-1.744
		c1.571-1.286,3.124-2.602,4.643-3.947c2.421-2.146,4.695-4.451,6.917-6.801c1.166-1.229,2.237-2.553,3.331-3.838
		c1.083-1.271,2.135-2.567,3.188-3.861c1.918-2.346,4.041-4.992,3.892-8.191c-0.105-2.199-1.745-4.007-2.959-5.736
		c-1.797-2.563-3.594-5.12-5.387-7.691c-1.737-2.553-3.429-5.126-5.064-7.737c-1.582-2.528-3.098-5.099-4.631-7.656
		c-1.481-2.472-3.022-4.904-4.571-7.333c-0.752-1.175-1.553-2.323-2.342-3.47c-0.429-0.626-0.857-1.25-1.286-1.872
		c-0.587-0.848-1.143-1.733-1.981-2.355c-1.06-0.786-2.529-0.933-3.736-0.406c-0.289,0.124-0.636,0.317-0.876,0.528
		c0.026-0.019,0.053-0.04,0.079-0.057c-1.068,0.823-1.685,2.207-1.47,3.6c0.131,0.872,0.56,1.63,1.165,2.19
		c0.132,0.169,0.256,0.342,0.38,0.517c-0.057-0.081-0.113-0.164-0.169-0.246c2.033,2.942,4.067,5.891,5.936,8.941
		c2.132,3.483,4.226,6.987,6.342,10.477c3.925,6.472,8.376,12.6,12.722,18.795c0.026,0.041,0.056,0.082,0.086,0.128
		c-0.086,0.161-0.173,0.319-0.267,0.48c-1.439,2.128-3.181,4.075-4.827,6.061c0.109-0.136,0.218-0.264,0.327-0.398
		c-1.579,1.856-3.18,3.684-4.86,5.462c-1.474,1.561-3.045,3.034-4.62,4.488c-2.361,2.087-4.756,4.14-7.313,5.981
		c-0.232,0.15-0.466,0.301-0.706,0.436c-0.022,0.012-0.049,0.023-0.071,0.03c-0.023,0.008-0.046,0.016-0.064,0.022
		c-0.011,0-0.015,0-0.022,0c-0.038,0-0.075,0-0.116,0c-0.057-0.015-0.113-0.022-0.173-0.029c-0.068-0.016-0.136-0.038-0.203-0.053
		c-0.117-0.045-0.229-0.087-0.346-0.128c-0.121-0.061-0.233-0.12-0.35-0.188c-0.497-0.33-0.971-0.688-1.44-1.06
		c-3.06-2.685-5.887-5.662-8.684-8.616c-3.752-4.219-7.315-8.609-10.598-13.203c-0.421-0.616-0.827-1.24-1.222-1.876
		c-1.079-1.763-3.421-2.379-5.21-1.308c-1.76,1.056-2.384,3.443-1.305,5.206c2.146,3.512,4.755,6.752,7.323,9.959
		c2.484,3.112,5.12,6.108,7.909,8.958c1.526,1.561,3.071,3.105,4.643,4.616c1.372,1.323,2.782,2.609,4.384,3.646
		c1.643,1.061,3.5,1.646,5.417,1.646C63.965,220.5,64.42,220.463,64.871,220.402z"/>
	<path fill="#A8E5FD" d="M77.728,158.733c1.037-0.156,1.86-0.728,2.507-1.53c1.016-1.261,1.963-2.571,2.898-3.895
		c0.951-1.346,1.85-2.746,2.861-4.047c1.09-0.693,1.797-1.932,1.797-3.304c0-0.166-0.026-0.331-0.045-0.498
		c-0.166-1.376-1.177-2.449-2.406-2.978c-0.864-0.37-2.057-0.389-2.902,0.047c-0.368,0.19-0.736,0.359-1.067,0.621
		c-0.567,0.457-1.022,1.03-1.478,1.59c-0.718,0.872-1.323,1.848-1.97,2.771c-1.237,1.78-2.481,3.557-3.842,5.245
		c-1.301,1.613-0.76,4.135,0.85,5.3c0.65,0.472,1.439,0.72,2.236,0.72C77.355,158.775,77.543,158.764,77.728,158.733z"/>
	<path fill="#A8E5FD" d="M163.668,225.718c2.365-0.232,4.688-0.669,7.022-1.12c1.966-0.38,3.921-0.864,5.86-1.376
		c2.339-0.616,4.654-1.312,6.91-2.188c3.173-1.226,5.943-3.098,8.503-5.301c1.681-1.443,3.128-3.165,4.485-4.909
		c1.181-1.504,2.218-3.15,3.075-4.865c0.909-1.815,1.575-3.691,2.128-5.653c1.052-3.752,1.387-7.76,1.222-11.65
		c-0.343-8.053-2.128-15.986-5.342-23.381c-1.636-3.767-3.692-7.315-5.85-10.802c-2.226-3.602-4.91-6.939-7.496-10.287
		c-2.376-3.071-4.827-6.079-7.323-9.052c-0.541-0.647-1.132-1.256-1.699-1.878c-0.612-0.675-1.214-1.363-1.868-1.996
		c-0.771-0.752-1.542-1.504-2.313-2.256c-0.759-0.735-1.627-1.381-2.432-2.067c-2.906-2.479-6.162-4.553-9.368-6.616
		c-1.443-0.929-2.892-1.848-4.342-2.765c-0.997-0.63-1.993-1.254-2.993-1.88c-0.872-0.547-1.781-1.081-2.823-1.203
		c-2.052-0.233-3.958,1.338-4.172,3.379c-0.181,1.724,0.853,3.301,2.387,3.925c0.673,0.359,1.315,0.772,1.962,1.18
		c0,0,0,0,0.004,0.002s0.008,0.004,0.012,0.008c-0.004-0.002-0.004-0.004-0.008-0.006c0.012,0.008,0.022,0.015,0.03,0.022
		c0.015,0.008,0.03,0.017,0.045,0.026c0,0,0-0.002-0.004-0.004c0.038,0.024,0.075,0.049,0.109,0.072
		c0.004,0,0.004,0.003,0.007,0.003c2.347,1.483,4.681,2.97,7.008,4.47c2.402,1.543,4.695,3.216,6.974,4.933
		c0.789,0.671,1.575,1.342,2.36,2.015c0.947,0.811,1.809,1.76,2.703,2.632c1.323,1.455,2.632,2.917,3.898,4.424
		c1.214,1.451,2.413,2.914,3.579,4.402c2.616,3.331,5.21,6.665,7.688,10.097c1.057,1.577,2.083,3.164,3.083,4.784
		c0.891,1.441,1.673,2.951,2.462,4.449c0.955,1.97,1.823,3.955,2.624,5.998c0.789,2.265,1.492,4.543,2.083,6.879
		c0.556,2.695,0.97,5.398,1.267,8.132c0.135,1.808,0.191,3.598,0.158,5.409c-0.072,1.301-0.181,2.594-0.357,3.887
		c-0.244,1.305-0.553,2.595-0.925,3.869c-0.248,0.74-0.522,1.47-0.827,2.191c-0.421,0.883-0.884,1.74-1.38,2.586
		c-0.646,0.978-1.338,1.925-2.056,2.854c-0.857,0.988-1.745,1.929-2.677,2.854c-0.768,0.65-1.538,1.263-2.339,1.868
		c-0.691,0.463-1.402,0.888-2.135,1.29c-1.03,0.503-2.087,0.947-3.169,1.346c-1.53,0.492-3.057,0.977-4.617,1.383
		c-1.653,0.437-3.315,0.823-4.984,1.203c-2.36,0.463-4.726,0.914-7.124,1.158c-1.297,0.098-2.598,0.128-3.902,0.098
		c-1.413-0.075-2.815-0.226-4.214-0.437c-2.083-0.372-4.098-0.909-6.143-1.451c-1.364-0.443-2.736-0.88-4.086-1.391
		c-1.516-0.571-3.004-1.181-4.5-1.812c-1.691-0.79-3.368-1.605-5.015-2.493c-1.602-0.86-3.181-1.771-4.76-2.665
		c-1.522-0.868-3.053-1.729-4.56-2.62c-1.191-0.703-2.361-1.462-3.616-2.045c-0.914-0.421-1.861-0.587-2.85-0.305
		c-0.974,0.278-1.813,0.959-2.294,1.854c-0.939,1.74-0.334,4.274,1.545,5.139c1.256,0.587,2.429,1.342,3.617,2.045
		c1.582,0.933,3.18,1.835,4.777,2.744c3.437,1.955,6.884,3.937,10.534,5.481c1.842,0.778,3.688,1.586,5.586,2.21
		c1.075,0.354,2.146,0.703,3.222,1.057c1.162,0.38,2.357,0.646,3.537,0.959c3.343,0.887,6.831,1.338,10.309,1.338
		C161.149,225.898,162.412,225.839,163.668,225.718z"/>
	<path fill="#A8E5FD" d="M149.285,123.009c0.004,0.002,0.004,0.004,0.008,0.006C149.293,123.013,149.289,123.011,149.285,123.009z"
		/>
	<path fill="#A8E5FD" d="M149.206,122.958c-0.004-0.002-0.004-0.002-0.004-0.002c-0.004-0.002-0.007-0.003-0.011-0.005
		c0.007,0.003,0.011,0.005,0.019,0.009L149.206,122.958z"/>
	<path fill="#A8E5FD" d="M149.397,123.08l0.004,0.004L149.397,123.08z"/>
	<path fill="#A8E5FD" d="M149.397,123.08L149.397,123.08L149.397,123.08z"/>
	<path fill="#A8E5FD" d="M149.391,123.077c0.004,0,0.007,0.003,0.007,0.003S149.395,123.077,149.391,123.077z"/>
	<path fill="#A8E5FD" d="M149.255,122.992c0.012,0.005,0.019,0.009,0.026,0.013C149.273,123.001,149.267,122.996,149.255,122.992z"
		/>
	<path fill="#A8E5FD" d="M149.232,122.977c0.004,0.001,0.008,0.003,0.008,0.005c0.007,0.004,0.011,0.006,0.015,0.01
		C149.247,122.986,149.24,122.982,149.232,122.977z"/>
	<path fill="#A8E5FD" d="M149.218,122.966c0.004,0.003,0.011,0.007,0.015,0.011C149.229,122.973,149.222,122.969,149.218,122.966z"
		/>
	<path fill="#A8E5FD" d="M161.86,207.433c2.699-0.195,5.383-0.714,7.946-1.604c2.365-0.827,4.579-2.117,6.444-3.794
		c1.808-1.623,3.12-3.702,3.887-6.007c0.583-1.744,0.898-3.563,1.057-5.391c0.102-1.15,0.202-2.315,0.21-3.47
		c0-0.898,0.026-1.801-0.03-2.703c-0.078-1.256-0.191-2.488-0.35-3.736c-0.24-1.94-0.661-3.896-1.153-5.79
		c-1.042-4.009-2.26-7.99-3.898-11.8c-0.827-1.915-1.677-3.836-2.681-5.667c-0.575-1.056-1.154-2.113-1.729-3.166
		c-0.492-0.904-1.071-1.767-1.612-2.643c-0.951-1.549-1.967-3.054-3-4.551c0.011,0.015,0.019,0.028,0.03,0.042
		c-0.016-0.017-0.026-0.032-0.034-0.049c-0.087-0.122-0.169-0.245-0.256-0.365c0.071,0.1,0.14,0.201,0.211,0.303
		c-0.113-0.162-0.226-0.316-0.343-0.466c-0.191-0.308-0.409-0.615-0.624-0.926c-0.375-0.54-0.751-1.083-1.127-1.623
		c0.003,0.006,0.007,0.01,0.007,0.015c-0.007-0.011-0.015-0.024-0.022-0.036c-0.015-0.021-0.026-0.038-0.041-0.058
		c0,0.002,0.004,0.003,0.008,0.007c-0.053-0.079-0.109-0.156-0.162-0.231c-0.015-0.021-0.03-0.043-0.045-0.064
		c0,0.001,0.004,0.001,0.004,0.005c-0.711-1.03-1.429-2.052-2.146-3.079c-1.485-2.164-2.959-4.334-4.421-6.517
		c-0.892-1.334-1.79-2.661-2.711-3.975c-0.714-1.021-1.492-2.021-2.376-2.9c-1.47-1.46-3.962-1.35-5.368,0.124
		c-1.451,1.519-1.346,3.91,0.124,5.368c0.016,0.019,0.034,0.036,0.057,0.057c0.86,1.005,1.62,2.077,2.38,3.16
		c2.755,4.131,5.545,8.234,8.391,12.304c0.691,1.001,1.391,2.001,2.086,3.003c0,0,0-0.002-0.004-0.002
		c0.008,0.008,0.016,0.013,0.02,0.022c0.003,0.006,0.007,0.014,0.011,0.019c0-0.002,0-0.004-0.004-0.005
		c0.079,0.111,0.154,0.22,0.226,0.329c-0.094-0.137-0.191-0.276-0.285-0.414c1.071,1.543,2.102,3.113,3.09,4.708
		c0.481,0.774,0.985,1.54,1.425,2.336c0.545,0.995,1.086,1.991,1.636,2.987c0.643,1.306,1.3,2.609,1.879,3.949
		c0.654,1.519,1.256,3.045,1.835,4.59c0.541,1.63,1.057,3.256,1.541,4.902c0.44,1.483,0.778,2.997,1.12,4.511
		c0.248,1.391,0.463,2.771,0.644,4.177c0.078,1.323,0.112,2.624,0.108,3.954c-0.071,1.398-0.158,2.797-0.35,4.188
		c-0.135,0.726-0.305,1.436-0.511,2.143c-0.068,0.203-0.14,0.398-0.222,0.602c-0.17,0.346-0.35,0.684-0.546,1.022
		c-0.128,0.181-0.263,0.364-0.402,0.541c-0.161,0.181-0.326,0.361-0.496,0.534c-0.356,0.309-0.722,0.594-1.102,0.88
		c-0.436,0.285-0.883,0.549-1.334,0.808c-0.492,0.237-0.989,0.455-1.496,0.658c-0.813,0.271-1.632,0.496-2.467,0.699
		c-1.127,0.226-2.259,0.391-3.405,0.512c-3.116,0.202-6.233,0.09-9.35-0.03c-6.003-0.421-11.977-0.955-17.928-1.854
		c-2.947-0.44-5.898-0.898-8.838-1.388c-1.699-0.281-3.391-0.578-5.102-0.781c-2.057-0.241-3.962,1.338-4.177,3.379
		c-0.214,2.072,1.323,3.937,3.38,4.173c2.582,0.301,5.143,0.794,7.706,1.207c3.79,0.612,7.587,1.229,11.402,1.677
		c4.24,0.488,8.496,0.834,12.755,1.135c2.004,0.144,4.022,0.181,6.026,0.181C158.864,207.557,160.353,207.546,161.86,207.433z"/>
	<path fill="#A8E5FD" d="M164.759,143.956c0,0.002,0.003,0.004,0.003,0.007C164.762,143.959,164.759,143.958,164.759,143.956z"/>
	<path fill="#A8E5FD" d="M160.597,151.25c0.016,0.017,0.026,0.036,0.042,0.056C160.623,151.286,160.612,151.268,160.597,151.25z"/>
	<path fill="#A8E5FD" d="M164.762,143.963c0.012,0.013,0.02,0.028,0.03,0.043c0.004,0.005,0.012,0.015,0.016,0.021
		C164.792,144.006,164.777,143.982,164.762,143.963z"/>
	<path fill="#A8E5FD" d="M164.529,143.626c0.004,0.01,0.015,0.021,0.022,0.034C164.544,143.647,164.536,143.64,164.529,143.626z"/>
	<path fill="#A8E5FD" d="M250.88,229.665c2.057,0,3.729-1.864,3.688-3.879c-0.053-2.113-1.815-3.699-3.887-3.711
		c-1.417-0.008-2.838-0.041-4.256-0.098c-2.259-0.112-4.507-0.274-6.744-0.605c-0.229-0.045-0.455-0.094-0.684-0.15
		c-0.605-0.218-1.199-0.477-1.79-0.744c-2.556-1.18-5.029-2.533-7.496-3.895c-2.661-1.462-5.319-2.936-7.984-4.391
		c-2.925-1.594-5.827-3.218-8.714-4.887c-2.685-1.542-5.305-3.203-7.929-4.843c-2.004-1.346-4-2.677-5.936-4.116
		c-0.891-0.673-1.797-1.323-2.654-2.033c-0.921-0.764-1.834-1.526-2.748-2.286c-1.21-1.098-2.417-2.203-3.624-3.305
		c-1.191-1.086-2.301-2.281-3.443-3.417c-1.271-1.439-2.537-2.872-3.759-4.346c-1.564-1.887-3.095-3.789-4.609-5.714
		c-2.59-3.284-5.008-6.691-7.439-10.094c-1-1.496-2-2.987-3-4.479c-1.162-1.738-2.222-3.554-3.327-5.327
		c-1.071-1.716-2.022-3.515-3.026-5.265c-0.925-1.61-1.718-3.304-2.571-4.955c0.075,0.148,0.15,0.293,0.226,0.442
		c-0.932-1.951-1.812-3.916-2.56-5.941c-0.553-1.607-1.008-3.229-1.47-4.863c-0.309-1.507-0.591-3.002-0.749-4.536
		c-0.007-0.143-0.015-0.286-0.015-0.425c0-2.067-1.85-3.755-3.88-3.707c-2.104,0.049-3.71,1.814-3.71,3.885
		c0,2.037,0.466,4.079,0.872,6.062c0.214,1.03,0.526,2.032,0.812,3.043c0.557,1.955,1.252,3.868,2.023,5.75
		c1.218,2.966,2.759,5.784,4.232,8.626c0.947,1.833,2.041,3.6,3.067,5.391c1.049,1.821,2.218,3.575,3.331,5.352
		c1.045,1.682,2.191,3.304,3.297,4.951c1.128,1.683,2.338,3.31,3.519,4.96c1.094,1.528,2.218,3.055,3.384,4.535
		c2.673,3.396,5.35,6.782,8.206,10.019c0.636,0.715,1.244,1.474,1.925,2.147c0.955,0.95,1.913,1.901,2.868,2.856
		c1.35,1.331,2.782,2.579,4.185,3.857c0.808,0.736,1.691,1.405,2.533,2.102c0.666,0.556,1.323,1.124,2.02,1.643
		c1.049,0.789,2.101,1.571,3.149,2.356c0.719,0.538,1.481,1.012,2.222,1.508c3.564,2.391,7.229,4.616,10.91,6.815
		c3.395,2.034,6.887,3.892,10.356,5.786c3.466,1.887,6.898,3.834,10.387,5.68c1.591,0.839,3.203,1.624,4.85,2.342
		c0.526,0.233,1.061,0.467,1.605,0.647c1.075,0.353,2.195,0.503,3.312,0.653c3.64,0.475,7.339,0.583,11,0.602
		C250.865,229.665,250.868,229.665,250.88,229.665z"/>
	<path fill="#A8E5FD" d="M252.797,231.951c2.594-0.508,5.417-1.722,6.624-4.24c0.496-1.034,0.62-2.282,0.301-3.398
		c-0.191-0.673-0.575-1.188-1.015-1.722c-0.429-0.512-0.981-0.963-1.624-1.185c-0.677-0.229-1.286-0.384-1.996-0.447
		c-0.471-0.045-0.937-0.008-1.406,0.03c-0.628,0.045-1.244,0.112-1.865,0.195c-1.161,0.158-2.304,0.429-3.439,0.711
		c-1.214,0.304-2.436,0.793-3.47,1.503c-0.346,0.237-0.658,0.5-0.921,0.801c-0.504-0.12-1-0.252-1.5-0.391
		c-0.711-0.248-1.402-0.512-2.094-0.827c-1.888-0.846-4.195,0.361-4.898,2.207c-0.346,0.921-0.323,1.958,0.067,2.853
		c0.421,0.978,1.188,1.62,2.14,2.046c2.36,1.063,4.879,1.699,7.45,1.984c1.268,0.136,2.526,0.229,3.786,0.229
		C250.226,232.301,251.512,232.199,252.797,231.951z"/>
	<path fill="#A8E5FD" d="M41.153,123.969c1.433-0.216,2.793-1.321,3.315-2.665c0.282-0.737,0.41-1.363,0.467-2.148
		c0.041-0.602-0.026-1.192-0.14-1.78c-0.181-0.934-0.541-1.817-0.86-2.707c-0.471-1.297-1.046-2.56-1.602-3.817
		c-1.128-2.545-2.489-4.991-3.516-7.577c-0.011-0.032-0.019-0.062-0.029-0.094c0.864-1.284,1.808-2.495,2.785-3.694
		c1.335-1.554,2.74-3.017,4.222-4.43c1.063-0.908,2.143-1.769,3.256-2.615c1.098-0.738,2.222-1.408,3.387-2.028
		c1.297-0.637,2.616-1.205,3.97-1.708c1.331-0.451,2.669-0.833,4.03-1.156c1.323-0.274,2.643-0.479,3.984-0.615
		c1.463-0.102,2.921-0.124,4.388-0.083c3.511,0.171,6.984,0.639,10.466,1.115c1.297,0.237,2.594,0.478,3.895,0.718
		c1.154,0.21,2.285,0.498,3.425,0.761c2.541,0.598,5.049,1.292,7.563,1.989c2.53,0.786,5.049,1.571,7.545,2.458
		c1.199,0.427,2.417,0.818,3.598,1.305c1.508,0.62,3.022,1.242,4.534,1.868c4.736,2.194,9.428,4.444,13.984,6.994
		c0.323,0.205,0.646,0.41,0.966,0.626c1.707,1.167,4.06,0.861,5.301-0.85c1.188-1.641,0.856-4.135-0.854-5.3
		c-1.612-1.104-3.335-2.057-5.071-2.949c-2.061-1.062-4.135-2.092-6.218-3.109c-0.677-0.333-1.361-0.643-2.045-0.96
		c-1.095-0.504-2.177-1.059-3.294-1.519c-1.759-0.728-3.499-1.534-5.293-2.171c-3.992-1.417-7.988-2.842-12.074-3.97
		c-2.057-0.566-4.105-1.147-6.181-1.633c-1.128-0.265-2.255-0.528-3.383-0.792c-1.008-0.235-2.046-0.378-3.064-0.564
		c-4.425-0.81-8.917-1.398-13.413-1.588c-5.285-0.222-10.507,0.538-15.484,2.338c-2.36,0.854-4.616,1.916-6.789,3.171
		c-1.485,0.857-2.835,1.887-4.195,2.919c-1.646,1.252-3.139,2.741-4.583,4.224c-1.35,1.387-2.578,2.898-3.781,4.414
		c-0.519,0.652-1.004,1.333-1.481,2.015c-0.898,1.284-1.695,2.627-1.756,4.238c-0.06,1.551,0.395,3.043,1.012,4.481
		c-0.146,0.51-0.195,1.059-0.128,1.617c0.158,1.333,0.368,2.652,0.609,3.972c0.271,1.494,0.601,3.013,1.12,4.443
		c0.789,2.154,1.771,4.496,3.691,5.887c0.895,0.65,1.921,1.024,3.004,1.024C40.672,124.024,40.913,124.005,41.153,123.969z"/>
	<path fill="#A8E5FD" d="M169.649,280.469c0.206-2-1.316-4.038-3.38-4.173c-0.421-0.03-0.842-0.098-1.26-0.166
		c-1.161-0.222-2.3-0.496-3.439-0.789c-3.199-1.004-6.327-2.165-9.458-3.361c-3.041-1.165-6.003-2.519-8.97-3.864
		c-3.673-1.834-7.319-3.722-10.97-5.604c-3.628-1.869-7.285-3.681-10.95-5.481c-3.715-1.831-7.41-3.681-11.03-5.688
		c-3.436-1.91-6.864-3.835-10.274-5.782c-1.529-0.872-3.045-1.763-4.541-2.684c-2.484-1.609-4.887-3.354-7.165-5.241
		c-1.59-1.323-4.146-0.74-5.301,0.85c-0.579,0.801-0.823,1.819-0.677,2.797c0.158,1.046,0.729,1.847,1.53,2.508
		c2.85,2.364,5.884,4.526,9.067,6.421c3.313,1.974,6.695,3.838,10.057,5.732c3.432,1.937,6.86,3.88,10.395,5.632
		c3.804,1.884,7.619,3.744,11.413,5.646c3.405,1.714,6.781,3.481,10.161,5.24c3.24,1.692,6.556,3.188,9.883,4.699
		c0.872,0.398,1.782,0.733,2.669,1.098c0.703,0.286,1.402,0.594,2.113,0.864c1.883,0.723,3.759,1.444,5.661,2.113
		c1.819,0.639,3.65,1.24,5.515,1.729c1.549,0.398,3.177,0.774,4.778,0.88c0.09,0.007,0.184,0.011,0.278,0.011
		C167.702,283.855,169.438,282.491,169.649,280.469z"/>
	<path fill="#A8E5FD" d="M269.033,350.015c-0.988,0-1.929-0.375-2.631-1.015c-0.959,0.315-2.03,0.323-3.046,0.049
		c-1.383-0.372-2.598-1.248-3.773-2.041c-1.602-1.075-3.199-2.158-4.782-3.256c-3.429-2.376-6.831-4.781-10.226-7.195
		c-3.248-2.308-6.556-4.511-9.905-6.661c-4.685-2.895-9.398-5.752-13.988-8.801c-2.616-1.74-5.237-3.477-7.854-5.222
		c-2.177-1.443-4.387-2.842-6.59-4.251c-5.695-3.463-11.428-6.854-17.202-10.185c-3.571-2.056-7.199-4.022-10.805-6.015
		c-3.549-1.955-7.041-4.015-10.519-6.086c-3.447-2.049-6.925-4.042-10.383-6.068c-1.774-1.041-3.561-2.063-5.289-3.169
		c-0.94-0.601-1.876-1.188-2.782-1.823c-0.76-0.529-1.496-1.086-2.26-1.608c-1.706-1.169-2.041-3.658-0.849-5.301
		c1.237-1.71,3.594-2.019,5.3-0.85c0.974,0.665,1.929,1.376,2.895,2.057c0.876,0.616,1.809,1.169,2.719,1.744
		c-0.046-0.03-0.095-0.064-0.144-0.094c5.203,3.049,10.421,6.063,15.605,9.146c4.95,2.947,9.992,5.722,15.018,8.526
		c7.519,4.195,14.933,8.563,22.285,13.033c3.658,2.226,7.211,4.636,10.778,7.004c3.229,2.154,6.47,4.271,9.732,6.364
		c2.933,1.809,5.891,3.583,8.789,5.443c3.219,2.071,6.384,4.195,9.519,6.395c4.722,3.316,9.41,6.685,14.195,9.914
		c0.113-1.098,0.211-2.196,0.342-3.286c0.26-2.116,0.617-4.218,1.004-6.315c0.748-4.022,1.816-7.955,3.143-11.823
		c0.347-1.007,0.745-2.015,1.196-2.984c0.598-1.271,1.173-2.534,1.947-3.715c0.706-1.082,1.503-2.161,2.48-3.019
		c0.963-0.838,1.985-1.447,3.185-1.876c1.033-0.372,2.146-0.594,3.252-0.519c1.026,0.064,1.984,0.309,2.95,0.662
		c2.121,0.789,3.978,2.484,5.32,4.271c1.281,1.71,2.315,3.627,2.872,5.706c0.627,2.357,0.913,4.782,0.635,7.218
		c-0.259,2.233-0.809,4.474-1.736,6.526c-0.888,1.959-1.79,3.913-2.884,5.767c-1.053,1.786-2.124,3.563-3.297,5.274
		c-1.481,2.15-3.395,4.214-5.657,5.537c-2.451,1.429-5.245,2.136-8.042,2.508C269.379,350.004,269.206,350.015,269.033,350.015z
		 M279.029,314.092c-0.015,0-0.03,0.003-0.049,0.003c-0.094,0.027-0.188,0.049-0.282,0.072c0.075-0.03,0.146-0.057,0.222-0.083
		c-0.007,0-0.019,0-0.022,0c-0.354,0.12-0.691,0.278-1.019,0.462c0.15-0.078,0.297-0.15,0.443-0.229
		c-0.18,0.127-0.364,0.255-0.549,0.383c0.144-0.098,0.278-0.195,0.418-0.293c-0.068,0.061-0.136,0.12-0.203,0.181
		c-0.098,0.105-0.195,0.21-0.294,0.312c-0.319,0.41-0.627,0.823-0.921,1.26c-0.515,0.88-0.951,1.789-1.383,2.714
		c-0.568,1.429-1.094,2.85-1.594,4.305c-0.508,1.695-1.02,3.402-1.402,5.132c-0.402,1.842-0.774,3.684-1.12,5.541
		c-0.286,1.812-0.557,3.627-0.741,5.454c-0.098,0.959-0.195,1.914-0.301,2.868c0.038-0.007,0.079-0.015,0.12-0.022
		c0.677-0.165,1.35-0.346,2.012-0.563c0.334-0.128,0.661-0.271,0.988-0.429c0.207-0.12,0.414-0.244,0.613-0.376
		c0.383-0.281,0.752-0.575,1.108-0.887c0.418-0.429,0.816-0.857,1.203-1.305c0.703-0.929,1.35-1.876,1.974-2.861
		c1.244-2.022,2.395-4.071,3.474-6.184c0.526-1.181,1.026-2.357,1.425-3.583c0.128-0.466,0.24-0.932,0.339-1.405
		c0.09-0.628,0.15-1.252,0.191-1.88c0-0.459-0.012-0.906-0.041-1.357c-0.057-0.429-0.124-0.854-0.203-1.278
		c-0.128-0.519-0.271-1.022-0.437-1.525c-0.124-0.327-0.263-0.647-0.417-0.963c-0.199-0.372-0.414-0.733-0.643-1.086
		c-0.32-0.418-0.647-0.82-1-1.211c-0.14-0.143-0.29-0.286-0.444-0.421c-0.153-0.12-0.315-0.241-0.478-0.346
		c-0.143-0.087-0.289-0.166-0.432-0.237c-0.105-0.033-0.211-0.075-0.316-0.112c-0.06-0.016-0.12-0.03-0.184-0.046
		C279.067,314.095,279.052,314.092,279.029,314.092z"/>
	<path fill="#A8E5FD" d="M75.032,315.851c-3.41,0-6.835-0.563-10.053-1.602c-4.157-1.338-7.925-3.466-11.552-5.872
		c-6.921-4.582-13.526-9.653-19.553-15.375c-2.898-2.752-5.732-5.575-8.635-8.323c-1.387-1.309-2.782-2.609-4.139-3.947
		c-0.109-0.109-0.219-0.218-0.327-0.323c-0.019,0.067-0.034,0.136-0.053,0.211c-0.218,0.864-0.515,1.751-0.842,2.586
		c-0.564,1.413-1.132,2.842-1.898,4.161c-1.068,1.839-2.327,3.696-4.026,5.008c-0.895,0.691-1.842,1.372-2.891,1.815
		c-0.737,0.309-1.534,0.64-2.339,0.729c-0.902,0.098-1.86,0.169-2.752-0.082c-0.74-0.207-1.421-0.459-2.09-0.85
		c-1.496-0.877-2.561-2.278-3.177-3.88c-1.395-3.62-0.537-7.812,0.939-11.259c0.5-1.162,1.057-2.297,1.719-3.373
		c0.842-1.368,1.891-2.533,3.067-3.623c1.319-1.215,2.767-2.38,4.312-3.294c1.248-0.744,2.52-1.353,3.933-1.691
		c0.992-0.24,1.996-0.417,3.011-0.567c2.042-0.305,4.012,1.131,4.323,3.184c0.075,0.474,0.049,0.947-0.056,1.398
		c1.267,1.174,2.447,2.444,3.676,3.654c1.211,1.188,2.433,2.365,3.666,3.526c2.405,2.274,4.781,4.579,7.157,6.887
		c2.451,2.38,4.959,4.692,7.53,6.94c2.439,2.015,4.905,3.962,7.447,5.846c2.466,1.83,5.015,3.545,7.578,5.244
		c1.673,1.029,3.376,1.996,5.15,2.842c1.094,0.48,2.203,0.902,3.338,1.271c1.143,0.327,2.301,0.602,3.474,0.815
		c1.087,0.158,2.169,0.268,3.264,0.327c0.887,0.015,1.778-0.004,2.669-0.053c0.902-0.09,1.793-0.218,2.691-0.383
		c0.729-0.181,1.451-0.376,2.169-0.609c0.902-0.339,1.778-0.714,2.643-1.136c1.064-0.586,2.091-1.206,3.095-1.887
		c1.872-1.331,3.646-2.778,5.356-4.312c1.459-1.357,2.85-2.778,4.154-4.286c1.094-1.327,2.112-2.703,3.049-4.146
		c1.255-2.041,2.342-4.15,3.35-6.323c1.177-2.789,2.315-5.578,3.413-8.397c1.015-2.595,1.887-5.233,2.748-7.888
		c0.293-1.098,0.59-2.195,0.884-3.293c0.251-0.947,0.405-1.925,0.601-2.884c0.132-0.875,0.229-1.748,0.268-2.639
		c0.086-2.071,2.21-3.582,4.173-3.38c1.004,0.105,1.943,0.62,2.575,1.414c0.643,0.808,0.846,1.752,0.805,2.759
		c-0.061,1.392-0.26,2.76-0.542,4.12c-0.169,0.827-0.305,1.677-0.526,2.489c-0.297,1.12-0.598,2.232-0.895,3.35
		c-0.289,1.094-0.699,2.165-1.049,3.236c-0.598,1.819-1.244,3.632-1.939,5.41c-2.12,5.432-4.229,10.887-7.319,15.856
		c-2.892,4.653-6.688,8.688-10.895,12.176c-4.237,3.519-8.906,6.53-14.346,7.741C79.295,315.629,77.163,315.851,75.032,315.851z
		 M14.09,275.431c-0.815,0.587-1.602,1.211-2.372,1.861c-0.409,0.38-0.804,0.763-1.184,1.18c-0.229,0.294-0.451,0.595-0.662,0.902
		c-0.384,0.65-0.718,1.32-1.049,1.996c-0.271,0.64-0.526,1.264-0.756,1.918c-0.112,0.413-0.214,0.819-0.3,1.232
		c-0.061,0.429-0.105,0.85-0.14,1.278c-0.004,0.316,0,0.624,0.015,0.937c0.02,0.112,0.038,0.222,0.049,0.334
		c0.026,0.087,0.049,0.177,0.079,0.264c0.105-0.041,0.211-0.087,0.316-0.136c0.232-0.128,0.462-0.263,0.684-0.405
		c0.218-0.166,0.429-0.335,0.632-0.512c0.244-0.248,0.478-0.5,0.703-0.76c0.278-0.36,0.541-0.729,0.801-1.104
		c0.409-0.685,0.781-1.372,1.128-2.091c0.511-1.165,0.929-2.346,1.323-3.556c0.199-0.79,0.405-1.579,0.563-2.38
		C13.984,276.077,14.037,275.754,14.09,275.431z"/>
</g>
</svg>
