<svg xmlns="http://www.w3.org/2000/svg" width="393" height="61" viewBox="0 0 393 61" fill="none">
  <path fill-rule="evenodd" clip-rule="evenodd" d="M135.129 0.642311C132.484 1.76519 130.969 5.30201 131.919 8.1395C133.296 12.2549 140.422 13.0474 143.055 9.37765C144.051 7.98987 143.972 4.5941 142.904 2.88491C141.961 1.37462 139.424 -0.0276137 137.687 0.000413154C137.089 0.0103582 135.937 0.299208 135.129 0.642311ZM171.203 1.79955C161.604 4.2537 154.719 10.6095 151.372 20.1033C149.559 25.2449 149.253 34.0698 150.683 39.9319C153.096 49.8263 159.21 56.5333 168.519 59.4978C173.304 61.0216 180.855 61.2201 185.204 59.9367C196.671 56.5523 202.986 47.8477 202.519 36.066C202.243 29.0778 201.211 28.5241 188.406 28.487C177.511 28.4558 177.355 28.5214 177.355 33.1209C177.355 37.7381 177.711 37.9546 185.3 37.9546H191.48L191.476 39.6498C191.47 41.8196 189.718 45.4319 187.716 47.4028C185.328 49.7539 183.016 50.5907 178.878 50.602C172.425 50.6201 167.599 47.8929 164.751 42.6202C162.999 39.3754 162.303 36.2626 162.303 31.6653C162.303 24.2685 164.009 19.4827 168.051 15.5427C171.41 12.2698 173.885 11.2839 178.744 11.2839C184.004 11.2839 186.012 12.1799 189.783 16.2094C190.881 17.3825 191.439 17.6126 193.187 17.6126C194.947 17.6126 195.527 17.3698 196.853 16.0756C198.192 14.7683 198.427 14.2245 198.427 12.4366C198.427 9.79172 197.587 8.19691 195.099 6.11795C189.525 1.46097 179.565 -0.339082 171.203 1.79955ZM20.8159 1.96545C20.0513 2.29047 19.1579 2.87226 18.8295 3.25785C18.5016 3.6439 17.116 7.18387 15.7506 11.1253C14.3853 15.0662 10.2236 27.0246 6.50187 37.6997C2.58423 48.9385 -0.150575 57.4591 0.0064276 57.9409C0.566356 59.6637 2.25031 60.2084 6.49169 60.0384C11.4509 59.8395 11.5482 59.7401 13.6425 52.6959L15.2028 47.4476L18.0093 47.4381C19.553 47.4331 24.5177 47.382 29.0425 47.3251C36.0164 47.2374 37.3002 47.3246 37.4762 47.8996C37.5901 48.2726 38.3168 50.8153 39.0911 53.5502C40.8515 59.7672 41.2095 60.1072 45.9923 60.0981C50.1304 60.0904 51.7866 59.4472 51.9876 57.7705C52.0654 57.1196 51.197 53.7677 50.0572 50.3222C48.9179 46.8767 46.4161 39.0735 44.4982 32.9821C39.9456 18.5221 34.8275 4.27315 33.7813 3.14439C33.3242 2.65166 32.1997 2.04456 31.2827 1.79593C28.9277 1.15764 22.4693 1.26207 20.8159 1.96545ZM105.393 6.19841C104.422 6.98723 104.134 9.10959 103.986 16.5955L103.948 18.5167H101.17C99.0349 18.5167 98.1818 18.7205 97.4904 19.3954C95.5906 21.2497 95.9254 26.0595 98.0313 27.1598C98.5565 27.4342 100.089 27.5698 101.436 27.4604L103.885 27.2624L104.035 39.954C104.166 50.9817 104.295 52.8834 105.017 54.4543C107.167 59.1334 110.871 60.811 118.275 60.4598C123.629 60.2057 125.402 59.463 126.186 57.1449C126.81 55.2996 126.47 52.7673 125.493 51.9753C125.037 51.606 123.89 51.5382 121.796 51.757C118.211 52.1317 116.389 51.5617 115.506 49.7901C114.771 48.316 114.359 37.4126 114.813 31.4782L115.13 27.3316L119.091 27.4794C123.983 27.662 124.948 27.4387 125.636 25.965C126.533 24.0425 126.324 20.4668 125.252 19.4208C124.444 18.6315 123.709 18.5167 119.463 18.5167H114.6V12.5044C114.6 8.43106 114.421 6.31729 114.045 5.94978C113.127 5.05428 106.569 5.24279 105.393 6.19841ZM26.167 16.2736C25.3624 16.2736 21.8899 26.9812 20.3787 31.626C19.5293 34.2366 18.6929 36.8304 18.5202 37.3896C18.2099 38.3954 18.2534 38.4062 22.5216 38.3619C24.8947 38.3371 27.1005 38.3619 30.8056 38.3619C34.5106 38.3619 34.279 37.9334 34.279 37.9334C34.279 37.9334 34.5106 38.0229 33.8159 36.1252C32.5442 32.6512 30.9395 27.1055 30.9395 27.1055C26.8617 15.1435 27.5564 16.2736 26.167 16.2736ZM221.352 18.7364C217.671 19.5315 216.363 20.055 213.856 21.7393C211.112 23.5818 209.65 26.5319 210.495 28.5223C211.082 29.9082 213.015 31.174 214.542 31.174C215.024 31.174 216.672 30.3526 218.203 29.3486C221.45 27.2208 224.789 26.488 228.128 27.1706C231.204 27.7999 232.362 29.1854 232.61 32.5364L232.81 35.2424L228.934 35.2582C217.402 35.3052 208.958 39.3876 207.188 45.7714C206.426 48.5199 206.899 52.8681 208.212 55.1857C211.524 61.0293 220.092 62.6856 227.864 58.9852C229.662 58.129 231.532 56.9984 232.019 56.4723L232.906 55.5162L233.613 57.6978L234.32 59.8789L238.122 60.01C244.078 60.2152 243.723 61.2599 243.481 44.2345C243.261 28.7076 243 26.8316 240.604 23.6035C237.276 19.1188 229.124 17.0584 221.352 18.7364ZM269.214 18.6948C266.499 19.6418 263.423 21.5689 262.206 23.0868L261.078 24.4936L260.843 22.1073C260.54 19.0284 259.817 18.5167 255.767 18.5167C250.35 18.5167 250.7 17.0308 250.858 39.3695L250.993 58.3772L252.086 59.241C252.927 59.906 253.92 60.1049 256.391 60.1049C259.184 60.1049 259.751 59.9602 260.74 58.9951L261.877 57.8858V45.3894C261.877 31.272 262.001 30.6482 265.219 28.5693C267.536 27.0725 271.291 26.6915 273.372 27.7416C276.299 29.2193 276.44 29.9448 276.697 44.889L276.928 58.3785L278.022 59.2415C279.577 60.4697 284.932 60.4697 286.487 59.2415L287.58 58.3785L287.812 45.115C288.041 32.0098 288.057 31.8339 289.156 30.33C291.473 27.1589 297.126 26.0649 299.809 28.2687C300.609 28.9259 301.411 30.155 301.652 31.0939C301.886 32.008 302.211 38.4519 302.374 45.4134C302.729 60.6171 302.432 59.8789 308.186 59.8789C313.879 59.8789 313.542 60.8702 313.376 44.6051C313.23 30.1975 312.917 27.2651 311.169 23.887C308.904 19.5107 305.338 17.8535 298.829 18.1532C293.702 18.3892 290.943 19.5478 287.941 22.727L286.023 24.7576L284.852 23.0299C283.475 20.9998 281.261 19.2987 279.059 18.5791C276.96 17.8933 271.324 17.9593 269.214 18.6948ZM333.315 18.763C329.603 19.7385 327.239 21.096 324.395 23.8847C320.212 27.9852 318.394 32.6576 318.384 39.3289C318.369 50.2792 323.94 57.7814 333.983 60.3345C340.99 62.116 350.219 59.9896 354.072 55.706C354.819 54.8761 355.429 53.7112 355.429 53.1172C355.429 51.6399 353.415 49.423 351.517 48.8119C349.776 48.2504 348.184 48.7662 345.322 50.819C340.674 54.1523 333.141 51.8654 330.465 46.3093C328.526 42.2821 327.768 42.5339 342.271 42.3824L355.048 42.2491L356.218 40.92C357.311 39.6801 357.374 39.3469 357.172 35.9475C356.662 27.3826 352.198 21.2348 344.844 18.971C341.401 17.9109 336.869 17.8291 333.315 18.763ZM371.354 18.7029C366.368 19.8836 362.913 22.8111 361.643 26.931C360.3 31.2851 361.006 34.6113 363.95 37.8077C366.233 40.2868 369.305 41.8336 375.447 43.5966C377.668 44.2345 380.048 45.2281 380.734 45.8044C382.42 47.2202 382.424 49.3322 380.741 50.974C379.671 52.0187 379.136 52.1801 376.843 52.1471C374.112 52.1077 371.031 50.9451 369.789 49.485C367.409 46.6859 363.033 46.9232 360.565 49.9859C357.465 53.8319 362.368 58.9987 370.613 60.5759C375.133 61.4407 381.051 60.948 384.548 59.416C394.185 55.1948 396.044 42.4982 387.717 37.7702C386.643 37.1604 383.288 35.9548 380.261 35.0914C373.758 33.2357 372.39 32.4003 372.193 30.1636C371.989 27.8401 373.667 26.6535 377.156 26.6535C379.86 26.6535 380.668 27.0047 383.581 29.4467C386.029 31.499 389.013 31.0713 390.391 28.4707C391.505 26.3687 391.27 24.6238 389.627 22.798C386.07 18.8435 378.203 17.0805 371.354 18.7029ZM55.3203 19.748C54.3435 20.9604 54.3306 21.2131 54.4894 35.9087C54.6427 50.0663 54.7043 50.9672 55.6769 53.3427C56.7671 56.0044 59.1402 58.5607 61.8032 59.9422C63.0671 60.5976 64.3935 60.7784 67.8239 60.7617C73.0129 60.7364 75.6087 59.76 78.8233 56.6241L80.7917 54.7043V56.295C80.7917 57.3813 81.152 58.2375 81.9286 58.9951C82.9133 59.9566 83.4875 60.1049 86.2251 60.1049C88.3356 60.1049 89.7269 59.8712 90.4142 59.4011L91.4437 58.6977V39.3551C91.4437 16.7329 91.8883 18.5167 86.2483 18.5167C83.4903 18.5167 82.5145 18.7002 81.6535 19.381L80.5601 20.2457L80.5212 33.2814C80.4781 47.929 80.4059 48.2956 77.1468 50.4008C73.1268 52.9974 68.2208 52.1796 66.4549 48.6188C65.5689 46.8324 65.5083 45.8799 65.5083 33.723V20.7358L64.3713 19.6264C63.3672 18.6459 62.8309 18.5167 59.7738 18.5167C56.5578 18.5167 56.2428 18.6039 55.3203 19.748ZM134.515 18.8372C134.133 18.9746 133.455 19.3968 133.01 19.7756C132.262 20.4116 132.199 21.9296 132.199 39.3808C132.199 61.8851 131.771 60.3015 137.79 60.0348C143.518 59.7812 143.082 61.4163 143.089 40.1444C143.092 29.1361 142.91 21.4721 142.625 20.6169C142.235 19.4452 141.845 19.1545 140.304 18.8887C138.117 18.5108 135.49 18.4877 134.515 18.8372ZM334.82 27.0558C333.801 27.5146 332.508 28.3776 331.948 28.9734C330.762 30.2314 329.494 32.998 329.494 34.3238C329.494 35.2139 329.757 35.2424 338.062 35.2424C347.625 35.2424 347.131 35.4417 346.146 31.979C344.778 27.1706 339.58 24.9113 334.82 27.0558ZM225.752 41.4173C222.408 41.9227 220.558 42.693 219.285 44.1079C217.542 46.0458 217.125 48.1542 218.056 50.3289C219.881 54.5913 227.057 53.9205 231.02 49.1175C232.234 47.6465 232.467 46.9409 232.622 44.258L232.804 41.1189L229.857 41.1805C228.236 41.2144 226.389 41.321 225.752 41.4173Z" fill="url(#paint0_linear_2728_5570)"/>
  <defs>
    <linearGradient id="paint0_linear_2728_5570" x1="0" y1="30.5" x2="393" y2="30.5" gradientUnits="userSpaceOnUse">
      <stop stop-color="#0067B1"/>
      <stop offset="0.230769" stop-color="#3D9881"/>
      <stop offset="0.519231" stop-color="#FEBF2C"/>
      <stop offset="0.75" stop-color="#F66533"/>
      <stop offset="1" stop-color="#F34D33"/>
    </linearGradient>
  </defs>
</svg>