<svg width="849" height="574" viewBox="0 0 849 574" fill="none" xmlns="http://www.w3.org/2000/svg">
<path fill-rule="evenodd" clip-rule="evenodd" d="M291.771 439.567C286.06 442.051 282.79 449.875 284.84 456.152C287.813 465.256 303.2 467.009 308.885 458.891C311.036 455.821 310.866 448.309 308.56 444.528C306.523 441.187 301.046 438.085 297.295 438.147C296.003 438.169 293.517 438.808 291.771 439.567ZM369.662 442.127C348.937 447.556 334.07 461.616 326.844 482.618C322.93 493.992 322.268 513.514 325.355 526.482C330.566 548.37 343.767 563.207 363.868 569.765C374.199 573.136 390.503 573.575 399.894 570.736C424.654 563.249 438.288 543.993 437.281 517.93C436.684 502.471 434.457 501.246 406.807 501.164C383.284 501.095 382.946 501.24 382.946 511.415C382.946 521.629 383.715 522.108 400.101 522.108H413.446L413.436 525.858C413.424 530.658 409.641 538.649 405.318 543.009C400.161 548.21 395.17 550.061 386.234 550.086C372.301 550.126 361.881 544.093 355.732 532.429C351.948 525.251 350.446 518.365 350.446 508.195C350.446 491.832 354.13 481.245 362.858 472.529C370.11 465.289 375.454 463.108 385.946 463.108C397.302 463.108 401.639 465.09 409.781 474.004C412.151 476.599 413.356 477.108 417.131 477.108C420.932 477.108 422.183 476.571 425.046 473.708C427.938 470.816 428.446 469.613 428.446 465.658C428.446 459.807 426.632 456.279 421.259 451.68C409.223 441.378 387.718 437.396 369.662 442.127ZM44.9459 442.494C43.2949 443.213 41.3659 444.5 40.6569 445.353C39.9489 446.207 36.9569 454.038 34.0089 462.757C31.0609 471.475 22.0749 497.929 14.0389 521.544C5.57988 546.406 -0.325121 565.255 0.0138785 566.321C1.22288 570.132 4.85888 571.337 14.0169 570.961C24.7249 570.521 24.9349 570.301 29.4569 554.718L32.8259 543.108L38.8859 543.087C42.2189 543.076 52.9389 542.963 62.7089 542.837C77.7669 542.643 80.5389 542.836 80.9189 544.108C81.1649 544.933 82.7339 550.558 84.4059 556.608C88.2069 570.361 88.9799 571.113 99.3069 571.093C108.242 571.076 111.818 569.653 112.252 565.944C112.42 564.504 110.545 557.089 108.084 549.467C105.624 541.845 100.222 524.583 96.0809 511.108C86.2509 479.12 75.1999 447.599 72.9409 445.102C71.9539 444.012 69.5259 442.669 67.5459 442.119C62.4609 440.707 48.5159 440.938 44.9459 442.494ZM227.565 451.858C225.468 453.603 224.848 458.298 224.528 474.858L224.446 479.108H218.446C213.837 479.108 211.995 479.559 210.502 481.052C206.4 485.154 207.123 495.794 211.67 498.228C212.804 498.835 216.113 499.135 219.021 498.893L224.309 498.455L224.634 526.531C224.916 550.926 225.194 555.133 226.753 558.608C231.396 568.959 239.393 572.67 255.381 571.893C266.941 571.331 270.77 569.688 272.462 564.56C273.809 560.478 273.076 554.876 270.965 553.124C269.98 552.307 267.504 552.157 262.982 552.641C255.242 553.47 251.307 552.209 249.401 548.29C247.815 545.029 246.924 520.909 247.905 507.781L248.59 498.608L257.143 498.935C267.705 499.339 269.789 498.845 271.275 495.585C273.212 491.332 272.76 483.422 270.446 481.108C268.7 479.362 267.113 479.108 257.946 479.108H247.446V465.808C247.446 456.797 247.059 452.121 246.246 451.308C244.265 449.327 230.105 449.744 227.565 451.858ZM56.5 474.146C54.7628 474.146 47.2649 497.833 44.0019 508.108C42.1679 513.883 40.3619 519.621 39.9889 520.858C39.3189 523.083 39.4129 523.107 48.6289 523.009C53.7529 522.954 58.5156 523.009 66.5156 523.009C74.5156 523.009 74.0156 522.062 74.0156 522.062C74.0156 522.062 74.5156 522.259 73.0156 518.062C70.2696 510.376 66.8049 498.108 66.8049 498.108C58 471.646 59.5 474.146 56.5 474.146ZM477.946 479.594C469.996 481.353 467.173 482.511 461.759 486.237C455.834 490.313 452.678 496.839 454.502 501.242C455.771 504.308 459.943 507.108 463.24 507.108C464.281 507.108 467.839 505.291 471.146 503.07C478.157 498.363 485.366 496.742 492.575 498.252C499.218 499.644 501.717 502.709 502.253 510.122L502.686 516.108L494.316 516.143C469.416 516.247 451.183 525.278 447.362 539.4C445.716 545.48 446.738 555.099 449.574 560.226C456.724 573.153 475.224 576.817 492.005 568.631C495.888 566.737 499.925 564.236 500.978 563.072L502.892 560.957L504.419 565.783L505.946 570.608L514.156 570.898C527.015 571.352 526.249 573.663 525.727 536C525.252 501.652 524.687 497.502 519.514 490.361C512.328 480.44 494.727 475.882 477.946 479.594ZM581.29 479.502C575.426 481.597 568.785 485.86 566.157 489.218L563.722 492.33L563.215 487.051C562.56 480.24 560.998 479.108 552.255 479.108C540.557 479.108 541.313 475.821 541.655 525.238L541.946 567.286L544.307 569.197C546.123 570.668 548.266 571.108 553.602 571.108C559.632 571.108 560.857 570.788 562.991 568.653L565.446 566.199V538.555C565.446 507.325 565.714 505.945 572.662 501.346C577.665 498.035 585.773 497.192 590.266 499.515C596.588 502.784 596.892 504.389 597.446 537.448L597.946 567.289L600.307 569.198C603.665 571.915 615.227 571.915 618.585 569.198L620.946 567.289L621.446 537.948C621.94 508.957 621.975 508.568 624.347 505.241C629.351 498.226 641.557 495.806 647.35 500.681C649.078 502.135 650.809 504.854 651.329 506.931C651.835 508.953 652.537 523.208 652.888 538.608C653.654 572.241 653.014 570.608 665.438 570.608C677.731 570.608 677.003 572.801 676.645 536.82C676.328 504.948 675.653 498.461 671.878 490.988C666.987 481.307 659.288 477.641 645.235 478.304C634.163 478.826 628.207 481.389 621.725 488.422L617.583 492.914L615.054 489.092C612.082 484.601 607.302 480.838 602.547 479.246C598.014 477.729 585.845 477.875 581.29 479.502ZM719.697 479.653C711.682 481.811 706.578 484.814 700.436 490.983C691.405 500.054 687.478 510.39 687.458 525.148C687.424 549.372 699.453 565.968 721.139 571.616C736.268 575.557 756.195 570.853 764.515 561.377C766.127 559.541 767.446 556.964 767.446 555.65C767.446 552.382 763.096 547.478 758.999 546.126C755.239 544.884 751.802 546.025 745.623 550.566C735.587 557.94 719.32 552.881 713.542 540.59C709.355 531.681 707.72 532.238 739.034 531.903L766.622 531.608L769.149 528.668C771.508 525.925 771.645 525.188 771.209 517.668C770.108 498.721 760.468 485.121 744.591 480.113C737.156 477.768 727.37 477.587 719.697 479.653ZM801.83 479.52C791.064 482.132 783.605 488.608 780.862 497.722C777.963 507.354 779.486 514.712 785.843 521.783C790.774 527.267 797.407 530.689 810.668 534.589C815.464 536 820.602 538.198 822.084 539.473C825.725 542.605 825.732 547.277 822.1 550.909C819.788 553.22 818.633 553.577 813.683 553.504C807.785 553.417 801.133 550.845 798.452 547.615C793.313 541.423 783.863 541.948 778.534 548.723C771.842 557.231 782.428 568.661 800.23 572.15C809.99 574.063 822.768 572.973 830.319 569.584C851.127 560.246 855.141 532.159 837.162 521.7C834.843 520.351 827.599 517.684 821.063 515.774C807.021 511.669 804.067 509.821 803.642 504.873C803.201 499.733 806.824 497.108 814.358 497.108C820.196 497.108 821.941 497.885 828.231 503.287C833.517 507.827 839.961 506.881 842.936 501.128C845.34 496.478 844.833 492.618 841.286 488.579C833.606 479.831 816.618 475.931 801.83 479.52ZM119.448 481.832C117.339 484.514 117.311 485.073 117.654 517.582C117.985 548.901 118.118 550.894 120.218 556.149C122.572 562.037 127.696 567.692 133.446 570.748C136.175 572.198 139.039 572.598 146.446 572.561C157.65 572.505 163.255 570.345 170.196 563.408L174.446 559.161V562.68C174.446 565.083 175.224 566.977 176.901 568.653C179.027 570.78 180.267 571.108 186.178 571.108C190.735 571.108 193.739 570.591 195.223 569.551L197.446 567.995V525.206C197.446 475.162 198.406 479.108 186.228 479.108C180.273 479.108 178.166 479.514 176.307 481.02L173.946 482.933L173.862 511.77C173.769 544.173 173.613 544.984 166.576 549.641C157.896 555.385 147.303 553.576 143.49 545.699C141.577 541.747 141.446 539.64 141.446 512.747V484.017L138.991 481.563C136.823 479.394 135.665 479.108 129.064 479.108C122.12 479.108 121.44 479.301 119.448 481.832ZM290.446 479.817C289.621 480.121 288.158 481.055 287.196 481.893C285.582 483.3 285.446 486.658 285.446 525.263C285.446 575.046 284.521 571.543 297.518 570.953C309.885 570.392 308.944 574.009 308.958 526.952C308.965 502.6 308.573 485.646 307.958 483.754C307.116 481.162 306.273 480.519 302.946 479.931C298.223 479.095 292.55 479.044 290.446 479.817ZM722.946 497.998C720.746 499.013 717.955 500.922 716.744 502.24C714.185 505.023 711.446 511.143 711.446 514.076C711.446 516.045 712.015 516.108 729.946 516.108C750.595 516.108 749.529 516.549 747.402 508.889C744.448 498.252 733.224 493.254 722.946 497.998ZM487.446 529.768C480.226 530.886 476.23 532.59 473.481 535.72C469.718 540.007 468.819 544.671 470.829 549.482C474.768 558.911 490.264 557.427 498.821 546.802C501.442 543.548 501.944 541.987 502.279 536.052L502.672 529.108L496.309 529.244C492.809 529.319 488.821 529.555 487.446 529.768Z" fill="url(#paint0_linear_376_3609)"/>
<path d="M585.334 2C589.234 1.4 593.734 0.7 595.334 0.5C596.934 0.4 602.634 0.1 607.834 0C613.034 0 622.034 0.4 627.834 0.9C633.634 1.5 643.034 3 648.834 4.3C654.634 5.6 664.034 8.5 669.834 10.8C675.634 13.1 684.334 17.4 689.334 20.3C694.334 23.2 701.934 28.5 706.234 32C710.634 35.5 716.934 41.4 720.234 45.1C723.634 48.8 727.934 54.4 729.834 57.5C733.034 62.9 734.027 63.9834 734.027 71.5C734.027 77 732.834 80.5 731.634 82.9C730.634 84.8 728.334 88.2 726.534 90.4C724.634 92.6 720.734 95.8 717.734 97.4C712.834 100.1 712.027 100.5 703.027 101C694.527 100.5 692.734 100.1 688.334 97.8C685.634 96.3 679.734 92 675.334 88.2C670.934 84.4 664.434 79.3 660.834 76.9C657.234 74.5 650.534 70.8 645.834 68.8C641.134 66.8 634.234 64.5 630.334 63.6C626.434 62.8 620.434 61.8 616.834 61.4C613.234 61 606.334 61.3 601.334 61.9C596.334 62.5 588.034 64.4 582.834 66.2C577.234 68 569.134 71.8 563.334 75.4C557.834 78.7 549.234 84.5 544.334 88.3C539.334 92.2 529.234 101.4 521.734 108.8C514.234 116.3 497.934 133.9 485.334 147.9C472.834 161.9 459.5 176.5 446.5 189C433.5 201.5 403.325 222.264 398.5 226C393.675 229.736 390.5 231.5 390.5 231.5C386.3 234.6 377.6 239.4 371.5 243C365.457 246.567 353.745 252.194 346.04 255.896L345.825 256C338.125 259.7 325.725 264.8 318.325 267.2C310.925 269.7 300.125 272.9 294.325 274.3C288.525 275.7 278.1 277.3 271.5 278.5C264.9 279.6 252 280.5 243.5 280.5C229.5 280 229.5 279.5 223 278C218.9 276.7 213.9 274.2 211 272C208 269.5 205.8 267.2 204 264C201.5 259.556 201 256 201 252.5C201 249 202 245 205 241C208 237.5 210.4 235.5 213 233.5C216 231.5 219.4 230.1 223 229C226.6 227.9 237.8 224.7 248.5 223C259.2 221.4 272.025 217.5 278.325 215.9C284.625 214.4 294.325 211.4 299.825 209.4C305.325 207.3 315.425 202.8 322.325 199.3C329.225 195.9 339.625 189.8 345.525 186C353.025 181.1 355.975 178.9 356.5 178.5C356.5 178.5 370.312 169.537 382.5 160C392.941 151.83 401.923 142.969 403 142C405.334 139.9 409.693 135.9 411 134.5C412.307 133.1 427.734 117.2 437.734 105.9C447.834 94.6 463.334 78 472.134 69.1C481.034 60.1 492.834 49.1 498.334 44.6C503.834 40.2 513.334 33.3 519.334 29.3C525.334 25.3 534.334 20.1 539.334 17.6C544.334 15.1 551.734 11.7 555.834 10.1C559.934 8.5 566.734 6.2 570.834 5.1C574.934 4 581.434 2.6 585.334 2Z" fill="url(#paint1_linear_376_3609)"/>
<path d="M335.879 54.467C341.779 61.567 356.501 79.067 367.301 93.367C367.301 93.367 389.389 121.477 403.867 138.967C420.723 159.328 447.867 189.967 447.867 189.967L458.867 201.967C465.767 209.967 476.901 222.867 484.201 230.867C491.501 238.867 503.267 250.667 509.867 256.967C516.367 263.267 524.901 271.067 529.201 274.367C533.601 277.667 540.301 282.267 544.201 284.567C548.101 286.967 555.701 290.667 561.201 292.767C566.701 294.967 575.801 297.667 581.501 298.767C587.201 299.967 595.501 300.867 600.501 300.867C605.301 300.867 612.101 300.367 615.701 299.767C619.301 299.267 626.201 297.367 631.201 295.767C636.201 294.067 643.801 290.767 648.201 288.267C652.601 285.867 659.601 280.967 663.701 277.567C667.801 274.167 674.301 267.467 678.001 262.867C682.301 257.567 686.901 250.167 690.301 243.367C693.501 236.767 696.401 228.967 697.601 223.867C698.701 219.167 699.801 213.167 700.801 205.367L660.501 205.767C625.601 206.067 619.667 204.367 615.367 202.967C612.567 202.067 606.867 199.467 605.867 198.467C601.867 195.467 599.267 192.267 597.867 189.467C595.967 185.667 595.301 182.767 595.301 177.867C595.201 172.567 595.801 170.167 598.401 164.867C600.301 160.867 603.267 157.767 605.867 155.467C608.367 153.367 612.867 150.717 618.867 149.467C630.867 146.967 733.174 148.267 734.367 148.467C735.56 148.667 745.16 148.467 748.367 150.467C751.367 152.408 754.201 154.167 755.901 156.767C757.501 159.067 759.401 163.467 760.201 166.667C761.201 170.467 761.701 177.167 761.701 186.867C761.701 194.867 761.201 205.167 760.701 209.867C760.101 214.567 758.701 222.867 757.601 228.367C756.501 233.867 753.801 243.767 751.601 250.367C749.401 256.967 745.401 266.867 742.701 272.367C740.001 277.867 735.201 286.267 732.001 291.067C728.801 295.867 722.901 303.567 718.901 308.267C715.001 312.967 708.601 318.967 704.301 322.567C700.101 326.267 692.301 332.067 687.101 335.567C681.901 338.967 672.001 344.567 665.101 347.867C658.201 351.167 648.601 355.067 643.601 356.467C638.601 357.867 630.601 359.767 625.601 360.667C620.001 361.667 611.101 362.367 602.101 362.367C592.601 362.367 584.001 361.767 577.101 360.567C571.301 359.567 561.001 356.867 554.101 354.667C547.201 352.467 536.601 348.067 530.601 344.967C524.601 341.967 515.801 336.967 511.101 333.867C506.401 330.867 497.901 324.567 492.101 319.967C486.301 315.367 470.601 301.867 457.701 288.967L399.867 225.467L355.367 172.5L341.867 156C332.867 144.033 320.367 127.967 313.367 119.467C306.867 110.467 297.367 100.588 292.867 95C288.867 90.0332 281.167 83.4 276.867 79.5C272.667 75.6 266.667 71 262.867 69C259.167 67 253.479 64.267 250.179 63.467C246.879 62.567 240.079 61.867 235.179 61.867C230.279 61.867 223.479 62.567 220.179 63.467C216.879 64.267 211.479 66.267 208.179 67.867C204.879 69.367 198.779 73.267 194.679 76.567C190.079 80.167 184.579 85.867 180.379 91.367C176.579 96.367 171.079 105.267 168.179 111.367C165.179 117.467 161.579 125.967 160.179 130.367C158.779 134.767 156.679 141.967 155.679 146.367C154.679 150.767 152.979 159.567 151.979 165.867C150.579 174.867 147.575 196.567 147.575 217.367C147.575 234.867 146.379 253.367 147.779 271.467C148.979 286.567 149.775 313.267 149.775 322.367C149.775 331.467 149.275 341.567 148.675 344.867C148.175 348.167 146.675 352.667 145.475 354.867C144.275 356.967 141.675 359.867 139.775 361.067C137.875 362.367 134.275 363.667 131.775 363.967C129.175 364.367 125.575 364.067 123.275 363.367C120.875 362.567 117.275 360.067 114.275 356.967C111.475 354.167 107.575 348.767 105.575 344.867C103.575 340.967 101.376 333.967 99.8764 328.467C98.3764 322.967 95.1764 306.567 93.8764 299.967C92.8764 293.467 91.6725 282.867 90.8725 276.967C89.9725 270.967 89.275 259.267 88.475 250.667C87.675 241.967 87.1672 227.567 86.8672 218.467C86.8665 209.067 88.8795 182.167 89.5795 173.367C90.2795 165.167 91.4795 153.667 92.2795 147.867C93.0795 142.067 94.8795 132.667 96.2795 126.867C97.5795 121.067 100.079 112.067 101.879 106.867C103.579 101.667 107.079 92.867 109.579 87.367C112.179 81.867 116.58 73.567 119.38 68.867C122.28 64.167 127.48 56.767 130.98 52.367C134.48 47.967 140.979 41.067 145.279 37.067C149.579 32.967 157.279 26.967 162.179 23.667C167.079 20.367 174.979 15.667 179.679 13.367C184.379 11.067 192.579 7.66703 197.879 5.96703C203.279 4.26703 211.879 2.16703 216.879 1.26703C223.879 0.067028 229.779 -0.232972 240.679 0.167028C250.579 0.567028 257.379 1.36703 262.179 2.66703C266.079 3.76703 270.979 5.36703 273.179 6.16703C275.379 6.96703 280.779 9.36703 285.179 11.667C289.579 13.867 296.879 18.267 301.379 21.467C305.879 24.767 313.079 30.567 317.379 34.467C321.679 38.367 329.979 47.367 335.879 54.467Z" fill="url(#paint2_linear_376_3609)"/>
<defs>
<linearGradient id="paint0_linear_376_3609" x1="0" y1="505.617" x2="848.569" y2="505.617" gradientUnits="userSpaceOnUse">
<stop stop-color="#0061A6"/>
<stop offset="0.278846" stop-color="#FFBF2D"/>
<stop offset="0.605769" stop-color="#F34D33"/>
<stop offset="1" stop-color="#489C7B"/>
</linearGradient>
<linearGradient id="paint1_linear_376_3609" x1="734" y1="50.5" x2="201" y2="253.5" gradientUnits="userSpaceOnUse">
<stop stop-color="#F55634"/>
<stop offset="0.533628" stop-color="#FFC02D"/>
<stop offset="0.875203" stop-color="#FEBF2C"/>
</linearGradient>
<linearGradient id="paint2_linear_376_3609" x1="727.367" y1="294.967" x2="94.8672" y2="121.467" gradientUnits="userSpaceOnUse">
<stop offset="0.110577" stop-color="#F34D33"/>
<stop offset="0.254808" stop-color="#F44E34"/>
<stop offset="0.596154" stop-color="#449E7C"/>
<stop offset="0.811763" stop-color="#0061A6"/>
</linearGradient>
</defs>
</svg>
