<svg xmlns="http://www.w3.org/2000/svg" width="40" height="41" fill="none"><g fill="#002B51" clip-path="url(#a)"><path d="M25.472 14.625a4.884 4.884 0 0 0-3.256-1.498 4.879 4.879 0 0 0-3.326 1.057 4.884 4.884 0 0 0-3.326-1.057 4.882 4.882 0 0 0-3.256 1.498c-.884.92-1.354 2.156-1.322 3.48a4.997 4.997 0 0 0 1.452 3.435l5.672 5.67a1.1 1.1 0 0 0 1.561.001l1.718-1.718h.691v1.523c0 .582.473 1.055 1.055 1.055h1.64c.582 0 1.055-.473 1.055-1.055v-1.523h1.523c.582 0 1.055-.473 1.055-1.055v-1.64c0-.582-.473-1.055-1.055-1.055H25.83v-.775c1.398-1.916 1.257-4.662-.358-6.343Zm-6.582 11.71-5.623-5.624c-1.432-1.432-1.484-3.847-.114-5.274a3.742 3.742 0 0 1 5.045-.306 1.1 1.1 0 0 0 1.385 0c1.49-1.221 3.706-1.086 5.044.306.988 1.028 1.246 2.585.751 3.918a1.048 1.048 0 0 0-.603-.19h-1.64c-.582 0-1.055.473-1.055 1.055v1.523h-1.523c-.582 0-1.055.473-1.055 1.055v1.64c0 .35.171.659.434.85l-1.046 1.046Zm8.346-3.42v1.406h-1.523c-.582 0-1.055.473-1.055 1.055v1.523h-1.406v-1.523c0-.582-.473-1.055-1.055-1.055h-1.523v-1.406h1.523c.582 0 1.055-.473 1.055-1.055v-1.523h1.406v1.523c0 .582.473 1.055 1.055 1.055h1.523Zm4.468 8.41a2.518 2.518 0 0 0-.49-.193 2.493 2.493 0 0 0-.1-.571 2.51 2.51 0 0 0-2.387-1.778c-.267 0-.53.043-.784.128l-6.616 2.193-5.066-2.681a3.33 3.33 0 0 0-1.553-.386H9.305v-.488c0-.582-.473-1.055-1.054-1.055H1.055C.473 26.494 0 26.967 0 27.55v5.897a.586.586 0 1 0 1.172 0v-5.78h6.962v9.295H1.172v-.78a.586.586 0 1 0-1.172 0v.898c0 .581.473 1.054 1.055 1.054H8.25c.581 0 1.054-.473 1.054-1.055v-.487h1.039c.284 0 .566.07.815.2l5.311 2.784a4.114 4.114 0 0 0 3.214.253l11.666-3.93a2.49 2.49 0 0 0 .354-4.574Zm-3.391-1.302c.134-.045.274-.068.414-.068a1.33 1.33 0 0 1 1.308 1.143c-.089.02-.177.043-.265.072l-5.851 1.94a2.493 2.493 0 0 0-1.128-1.231l-.03-.016 5.552-1.84Zm2.663 4.764L19.31 38.718a2.942 2.942 0 0 1-2.295-.181l-5.31-2.784a2.94 2.94 0 0 0-1.36-.334h-1.04v-6.21h5.403c.35 0 .697.086 1.005.25l6.53 3.455a1.324 1.324 0 0 1 .552 1.78l-.003.004-.007.014a1.31 1.31 0 0 1-.778.644c-.337.103-.694.07-1.006-.095l-5.152-2.727a.586.586 0 1 0-.548 1.036l5.152 2.727a2.478 2.478 0 0 0 1.899.179 2.476 2.476 0 0 0 1.465-1.209l.004-.006a2.491 2.491 0 0 0 .288-.979l6.03-2a1.308 1.308 0 0 1 1.024.082 1.31 1.31 0 0 1 .712 1.172 1.32 1.32 0 0 1-.899 1.25Zm7.969-32.834H31.75c-.581 0-1.054.473-1.054 1.055v.488h-1.039a1.77 1.77 0 0 1-.815-.2L23.53.512a4.119 4.119 0 0 0-3.214-.254L8.65 4.19a2.49 2.49 0 0 0 .136 4.764c.01.194.044.386.1.572a2.51 2.51 0 0 0 2.387 1.778c.267 0 .53-.043.784-.128l6.616-2.193 5.066 2.681a3.33 3.33 0 0 0 1.553.386h1.52a.586.586 0 1 0 0-1.172h-1.52c-.35 0-.697-.086-1.005-.25l-6.53-3.455a1.324 1.324 0 0 1-.552-1.78l.003-.004a1.31 1.31 0 0 1 .785-.657c.337-.104.694-.07 1.006.094l5.152 2.727a.586.586 0 0 0 .548-1.036L19.547 3.79a2.475 2.475 0 0 0-1.899-.179 2.475 2.475 0 0 0-1.465 1.21l-.004.005a2.49 2.49 0 0 0-.288.979l-6.03 2a1.308 1.308 0 0 1-1.024-.082 1.311 1.311 0 0 1-.712-1.172c0-.567.361-1.07.899-1.25L20.69 1.368a2.942 2.942 0 0 1 2.295.18l5.31 2.784a2.94 2.94 0 0 0 1.36.335h1.039v6.21h-1.149a.586.586 0 1 0 0 1.172h1.149v.488c0 .582.473 1.055 1.054 1.055h7.196c.582 0 1.055-.473 1.055-1.055v-9.53c0-.582-.473-1.055-1.055-1.055ZM16.081 6.977c.221.521.615.96 1.128 1.231l.03.016-5.552 1.84a1.307 1.307 0 0 1-.414.068 1.33 1.33 0 0 1-1.308-1.145c.088-.019.177-.041.265-.07l5.851-1.94Zm22.747 5.444h-6.962V3.125h6.962v9.296Z"/></g><defs><clipPath id="a"><path fill="#fff" d="M0 .044h40v40H0z"/></clipPath></defs></svg>