<svg xmlns="http://www.w3.org/2000/svg" width="77" height="70" fill="none"><path fill="#D097EE" d="M32.899 60.98a5.663 5.663 0 0 1 1.12-3.391c.262-.354.4-.79.662-1.144l.876-1.18c.72-.843 1.44-1.687 2.177-2.43.37-.372.845-.761 1.302-1.25l1.427-1.169.776-.542c.087-.118.3-.154.388-.272l.388-.271c.6-.307 1.095-.596 1.677-1.003a21.04 21.04 0 0 1 7.705-2.214c2.61-.125 5.19.17 7.65 1 .588.212 1.177.424 1.659.654l.356.147.376.247.733.395c.5.33.983.56 1.483.89.502.33.896.678 1.397 1.008.77.595 1.559 1.29 2.26 2.104.645.513.933.878 1.222 1.244.288.365.576.73.739 1.014a6.17 6.17 0 0 1 1.26 3.201c-.063.838-.645 1.245-1.728 1.322-.32.053-.55-.012-.764.023-.338-.047-.657.007-.995-.04-.676-.095-1.459-.17-2.26-.348-.444-.029-.908-.158-1.352-.188-.463-.13-.908-.159-1.459-.17l-.782-.077c-.106.018-.232-.064-.338-.047-.107.018-.232-.064-.445-.029-.55-.011-1.12-.123-1.565-.153a40.673 40.673 0 0 0-7.142-.05c-2.379.19-4.826.597-7.13 1.188-.513.188-1.044.277-1.577.366l-.425.07-.407.172-.726.224c-.513.189-.939.26-1.452.449s-.833.242-1.258.313c-.833.242-1.559.466-2.285.69l-.957.16-.852.142c-.976.059-1.584-.253-1.734-1.055Zm-11.36-10.822c-.539-.53-.408-1.586.161-3.231.138-.437.294-.773.52-1.327.243-.455.487-.909.712-1.463a33.622 33.622 0 0 1 2.134-3.25l1.314-1.77c.437-.589.982-1.197 1.507-1.904a69.637 69.637 0 0 1 3.53-4c2.74-2.937 5.75-5.61 9.01-8.116 3.154-2.49 6.47-4.696 9.931-6.72 1.59-.885 3.18-1.77 4.594-2.42l2.122-.973c.707-.325 1.327-.531 2.034-.856 1.133-.395 2.372-.808 3.63-1.121.532-.089 1.045-.278 1.47-.349.426-.07.958-.16 1.278-.212 1.865-.001 2.898.24 3.136.924.583 1.35-1.895 3.934-5.962 7.403-.476.389-1.04.896-1.621 1.303l-1.815 1.44c-1.251.932-2.572 2.082-3.91 3.132-2.767 2.218-5.745 4.472-8.9 6.961-3.153 2.49-6.113 4.843-8.898 6.961-1.34 1.05-2.678 2.1-3.93 3.033l-1.833 1.339-1.746 1.22c-4.318 3.305-7.391 5.057-8.468 3.996ZM5.802 38.824c-.801-.176-1.002-.66-.833-1.515l.206-.654c.069-.219.225-.555.294-.773.225-.554.663-1.144 1.082-1.834.157-.336.42-.69.682-1.044l.663-1.144c.507-.808 1.014-1.616 1.608-2.542 1.082-1.835 2.252-3.787 3.296-5.821a94.256 94.256 0 0 0 2.746-5.833c.382-.89.763-1.781 1.057-2.554l.557-1.126c.156-.336.294-.773.45-1.109.313-.672.625-1.344.957-1.916.175-.236.331-.573.507-.809.175-.235.244-.454.419-.69.525-.707 1.32-1.15 2.278-1.31.995.042 1.853.519 2.535 1.232.25.165.414.448.558.63l.488.85c.345.666.67 1.232.909 1.916.075.4.257.784.332 1.185l.226 1.203c.063.92.126 1.84-.024 2.795-.243 2.211-.95 4.293-1.994 6.327-1.239 2.17-2.709 4.276-4.448 6.117-.933.879-1.759 1.74-2.816 2.536L16.11 34.11c-.476.39-.97.679-1.446 1.068-.882.56-1.87 1.139-2.753 1.7-.388.27-.902.46-1.308.63l-1.22.514c-1.096.596-2.373.809-3.58.803Z"/></svg>