<svg xmlns="http://www.w3.org/2000/svg" width="49" height="48" fill="none"><path fill="#002B51" d="M27.596 24a3.875 3.875 0 0 0 3.87 3.872A3.875 3.875 0 0 0 35.339 24v-.774h-7.742V24Zm6.061.775a2.327 2.327 0 0 1-2.19 1.548c-1.01 0-1.87-.647-2.19-1.548h4.38Zm-4.512-5.42h1.549a3.1 3.1 0 0 0-3.097-3.097 3.1 3.1 0 0 0-3.097 3.097h1.548a1.55 1.55 0 0 1 1.549-1.549 1.55 1.55 0 0 1 1.548 1.549Zm6.194-3.097a3.1 3.1 0 0 0-3.097 3.097h1.549a1.55 1.55 0 0 1 1.548-1.549 1.55 1.55 0 0 1 1.548 1.549h1.549a3.1 3.1 0 0 0-3.097-3.097Z"/><path fill="#002B51" d="M48.5 11.613a3.828 3.828 0 0 0-1.623-3.141c.05-.244.075-.488.075-.73a3.876 3.876 0 0 0-3.42-3.845 3.859 3.859 0 0 0-3.548-2.349c-.445 0-.884.08-1.307.238C37.501.71 35.682.478 34.285 1.229A3.82 3.82 0 0 0 31.468 0a3.819 3.819 0 0 0-2.828 1.24c-1.416-.765-3.236-.528-4.408.546a3.725 3.725 0 0 0-1.307-.238 3.86 3.86 0 0 0-3.549 2.35 3.876 3.876 0 0 0-3.418 3.844c0 .242.024.487.074.73a3.827 3.827 0 0 0-1.623 3.14c0 .969.364 1.886 1.014 2.595-.16.426-.24.866-.24 1.313 0 1.286.644 2.475 1.694 3.192a3.87 3.87 0 0 0 3.752 2.965h.774v.775c0 .258.016.517.039.774h-.813a1.55 1.55 0 0 0-1.548 1.548h-6.336a2.32 2.32 0 0 0-2.18-1.548H9.016a2.32 2.32 0 0 0-2.18 1.548h-1.69a1.55 1.55 0 0 0-1.55-1.548H2.049A1.55 1.55 0 0 0 .5 24.774v21.678A1.55 1.55 0 0 0 2.048 48h1.549a1.55 1.55 0 0 0 1.548-1.548v-1.549h5.42v1.549A1.55 1.55 0 0 0 12.112 48h18.58a6.975 6.975 0 0 0 6.968-6.968V37.98l.002-.045v-4.646a3.845 3.845 0 0 0-1.134-2.737c-.085-.085-.184-.15-.276-.227 3.094-1.277 5.28-4.324 5.28-7.873v-.775h.773a3.87 3.87 0 0 0 3.76-2.988 3.875 3.875 0 0 0 1.66-3.169c0-.448-.08-.887-.24-1.313a3.826 3.826 0 0 0 1.014-2.594Zm-27.87 8.516a2.325 2.325 0 0 1-2.323-2.323 2.325 2.325 0 0 1 2.322-2.322h.774v4.645h-.774ZM36.114 33.29h-.002v4.667a3.874 3.874 0 0 1-3.869 3.849h-6.198a.775.775 0 0 1-.77-.774v-3.096c0-.428.347-.775.775-.775h4.232L31.6 39.14l1.288-.858-1.417-2.128-.001-2.863a2.325 2.325 0 0 1 2.315-2.321h.008v-.001h.001c.62 0 1.203.241 1.64.68.439.438.681 1.02.681 1.642ZM17.61 40.258h-2.83a3.093 3.093 0 0 0-2.055-1.486c.008-.02.013-.042.02-.062h4.93a2.28 2.28 0 0 0-.143.773c0 .266.027.524.078.775ZM6.836 37.161h-1.69v-4.645h6.335a2.32 2.32 0 0 0 2.18 1.549h1.549a2.32 2.32 0 0 0 2.18-1.549h1.69v4.645h-6.335a2.32 2.32 0 0 0-2.18-1.548H9.016a2.32 2.32 0 0 0-2.18 1.548Zm6.051-5.419c0-.427.347-.774.774-.774h1.549a.774.774 0 0 1 0 1.548h-1.55a.775.775 0 0 1-.774-.774Zm-3.87 5.42h1.548a.775.775 0 0 1 0 1.548H9.016a.775.775 0 0 1 0-1.549ZM19.85 38.71h.004v-.001h1.548v-.774c0-.428.347-.775.774-.775h.134c.207 0 .401.081.547.227l.87.869v2.776c0 .273.056.53.142.774h-2.467a2.325 2.325 0 0 1-2.322-2.323c0-.426.345-.771.77-.773Zm9.907-7.182c.248-.124.508-.22.773-.304-.38.6-.61 1.305-.61 2.066l.002 2.323H26.87a5.27 5.27 0 0 1 2.887-4.085Zm-4.445 4.216c-.447.15-.83.43-1.11.799l-.25-.251c-.07-.07-.15-.126-.227-.187v-7.813a8.397 8.397 0 0 0 4.36 2.459 6.788 6.788 0 0 0-2.773 4.993Zm-3.136-10.97v10.838a2.31 2.31 0 0 0-1.548.6V24.774h1.548Zm-13.16 0h1.548a.775.775 0 0 1 0 1.549H9.016a.775.775 0 0 1 0-1.549Zm-2.181 1.549a2.32 2.32 0 0 0 2.18 1.548h1.549a2.32 2.32 0 0 0 2.18-1.548h6.336v4.645h-1.69a2.32 2.32 0 0 0-2.18-1.549h-1.55a2.32 2.32 0 0 0-2.18 1.549H5.145v-4.645h1.691ZM2.048 46.452V24.774h1.549l.001 21.678h-1.55Zm3.097-3.097V38.71h1.691a2.32 2.32 0 0 0 2.18 1.548h1.549v3.097h-5.42Zm7.742 3.097h-.774v-6.194a1.55 1.55 0 0 1 1.548 1.548v4.646h-.774Zm17.807 0H15.21v-4.645h3.117a3.855 3.855 0 0 0 3.076 1.547h10.841a5.4 5.4 0 0 0 3.811-1.572c-.368 2.634-2.629 4.67-5.361 4.67Zm2.322-17.033H29.92a6.918 6.918 0 0 1-6.194-3.79v-.855c0-.536-.274-1.009-.69-1.287a7.019 7.019 0 0 1-.084-1.035v-8.925a2.31 2.31 0 0 1 1.283-2.077l.46-.23c.496 1.567 1.947 2.715 3.676 2.715.478 0 .947-.086 1.386-.255a3.862 3.862 0 0 0 3.26 1.804 3.862 3.862 0 0 0 3.258-1.804 3.83 3.83 0 0 0 3.708-.539v9.31a6.975 6.975 0 0 1-6.967 6.968Zm9.29-9.29h-.774v-4.645h.774a2.325 2.325 0 0 1 2.323 2.322 2.325 2.325 0 0 1-2.323 2.323Zm3.762-6.71-.514.408.32.573c.201.362.303.74.303 1.12 0 .35-.095.681-.24.988-.537-1.495-1.954-2.573-3.63-2.573h-.775v-3.87h-1.548a2.325 2.325 0 0 1-3.623 1.924l-.832-.564-.333.95a2.32 2.32 0 0 1-2.18 1.56 2.32 2.32 0 0 1-2.18-1.56l-.333-.95-.832.564a2.325 2.325 0 0 1-3.622-1.925 2.325 2.325 0 0 1 2.322-2.322V6.194c-1.962 0-3.57 1.472-3.82 3.367l-1.008.504a3.851 3.851 0 0 0-2.14 3.462v.409h-.774c-1.69 0-3.114 1.095-3.642 2.607a2.309 2.309 0 0 1-.255-1.023c0-.381.102-.758.303-1.12l.319-.573-.512-.408a2.307 2.307 0 0 1-.884-1.806 2.3 2.3 0 0 1 1.318-2.083l.64-.308-.253-.663a2.29 2.29 0 0 1-.157-.816c0-1.28 1.042-2.323 2.271-2.325l.753.039.155-.609c.358-1.4 1.99-2.204 3.355-1.45l.572.317.408-.51a2.303 2.303 0 0 1 1.803-.882c.687 0 1.19.305 1.492.562l.698.592.467-.787a2.304 2.304 0 0 1 1.988-1.142c.813 0 1.553.423 1.98 1.13l.467.773.694-.578c.299-.25.8-.55 1.478-.55.697 0 1.354.32 1.803.881l.408.51.571-.316c1.367-.756 2.998.049 3.355 1.45l.155.608.629-.027c.042-.001.083-.006.073-.01a2.325 2.325 0 0 1 2.322 2.323c0 .265-.052.54-.158.818l-.25.662.637.308a2.303 2.303 0 0 1 1.32 2.083c0 .7-.322 1.358-.884 1.805Z"/></svg>