<svg xmlns="http://www.w3.org/2000/svg" width="589" height="561" fill="none"><path fill="#FAD039" d="M243.014 0C138.121-.218 77.791 46.25 60.738 69.512c-15.656 21.356-24.053 43.132-15.656 77.753 11.462 47.256-3.075 59.345-25.44 86.545-38.631 46.984-13.345 116.208 16.494 142.867 27.534 24.6 52.683 64.088 72.193 95.981 11.808 19.302 25.613 37.803 44.881 49.997 103.754 65.668 276.707 34.448 305.347-13.551 25.049-41.981 72.687-83.98 93.374-99.732 41.096-24.452 57.031-136.274 0-161.825-29.918-13.404-42.718-42.427-47.197-68.103-4.002-22.943-1.685-47.357-12.228-68.202-8.875-17.545-21.534-31.964-33.915-42.85-17.829-15.676-38.38-28.728-60.047-38.694C366.897 15.14 314.773.151 243.014.001Z"/></svg>