<svg xmlns="http://www.w3.org/2000/svg" width="24" height="25" fill="none"><path fill="#EEF8FF" d="m2.004 22.24 1.352-4.968A9.954 9.954 0 0 1 2 12.24c0-5.523 4.477-10 10-10s10 4.477 10 10-4.477 10-10 10a9.953 9.953 0 0 1-5.03-1.355L2.004 22.24ZM8.391 7.548a.961.961 0 0 0-.371.1 1.293 1.293 0 0 0-.294.228c-.12.113-.188.211-.261.306A2.729 2.729 0 0 0 6.9 9.86c.002.49.13.967.33 1.413.409.902 1.082 1.857 1.971 2.742.214.213.423.427.648.626a9.447 9.447 0 0 0 3.84 2.046l.569.087c.185.01.37-.004.556-.013a1.99 1.99 0 0 0 .833-.23c.131-.068.259-.142.383-.22 0 0 .043-.029.125-.09a2.3 2.3 0 0 0 .33-.289c.083-.086.155-.187.21-.302.078-.163.156-.474.188-.733.024-.198.017-.306.014-.373-.004-.107-.093-.218-.19-.265l-.582-.26s-.87-.38-1.401-.622a.498.498 0 0 0-.177-.04.482.482 0 0 0-.378.126v-.002c-.005 0-.072.057-.795.933a.35.35 0 0 1-.368.13 1.404 1.404 0 0 1-.191-.066c-.124-.052-.167-.072-.252-.109l-.005-.002a6.006 6.006 0 0 1-1.57-1c-.126-.11-.243-.23-.363-.346a6.296 6.296 0 0 1-1.02-1.268l-.059-.095a.923.923 0 0 1-.102-.205c-.038-.147.061-.265.061-.265s.243-.266.356-.41a4.35 4.35 0 0 0 .263-.373c.118-.19.155-.385.093-.536-.28-.684-.57-1.365-.868-2.04-.059-.135-.234-.23-.393-.25a4.439 4.439 0 0 0-.162-.016 3.387 3.387 0 0 0-.403.005Z" opacity=".8"/></svg>