<svg xmlns="http://www.w3.org/2000/svg" width="32" height="33" fill="none"><path stroke="#FAD039" stroke-linejoin="round" stroke-width="1.5" d="m2.666 8.5 9.217 5.223c3.399 1.925 4.834 1.925 8.232 0L29.333 8.5"/><path stroke="#FAD039" stroke-linejoin="round" stroke-width="1.5" d="M2.687 18.468c.087 4.087.13 6.13 1.639 7.645 1.508 1.514 3.607 1.566 7.805 1.672 2.587.065 5.15.065 7.737 0 4.198-.106 6.297-.158 7.805-1.672s1.552-3.558 1.639-7.645c.028-1.314.028-2.62 0-3.935-.088-4.088-.131-6.131-1.64-7.645-1.507-1.514-3.606-1.567-7.804-1.672-2.588-.065-5.15-.065-7.737 0-4.198.105-6.297.158-7.805 1.672s-1.552 3.557-1.639 7.645a92.096 92.096 0 0 0 0 3.935Z"/></svg>