<svg xmlns="http://www.w3.org/2000/svg" width="157" height="44" fill="none"><path fill="#FE753B" fill-rule="evenodd" d="M23.289 6.233c.06.014.112-.013.164-.04.058-.031.117-.062.187-.034a.51.51 0 0 1 .152-.035c1.093-.24 2.206-.274 3.311-.166 3.65.36 6.618 1.988 8.827 4.925 1.369 1.82 2.183 3.865 2.283 6.164a7.58 7.58 0 0 1-.177 1.928l-.591-.847c-.466 2.854-2.067 4.718-4.72 5.798.028-.172.114-.261.192-.343.021-.022.042-.043.06-.066 1.556-1.863 2.396-3.99 2.378-6.433-.005-.577-.009-.578-.598-.613h-.002c-2.008-.118-3.98-.4-5.846-1.201-1.195-.514-2.294-1.166-3.121-2.26l-.064.262-.031.127v-.007.007c-.114 1.842-.751 3.503-1.763 5.027-1.13 1.703-2.677 2.953-4.407 3.995-.287.173-.577.343-.867.512h-.001v.001c-.843.493-1.685.986-2.468 1.567-1.713 1.271-2.716 2.961-2.723 5.127-.008 2.057 1.066 3.497 2.831 4.556.043-.248.069-.49.094-.726.03-.275.059-.543.112-.809.889-4.391 4.395-7.69 8.814-8.219 1.942-.232 3.81.077 5.543 1.037v.001h.001c2.627 1.55 4.345 3.772 4.881 6.804.97 5.48-2.83 10.744-8.336 11.59-2.93.45-5.584-.193-7.913-2.062a7.536 7.536 0 0 1-.547-.502 19.67 19.67 0 0 0-.218-.21h.002c-.802-.945-1.428-1.988-1.795-3.176-.057-.185-.174-.245-.338-.3-1.067-.358-2.114-.763-3.08-1.351-1.848-1.123-3.221-2.628-3.658-4.805-.49-2.439.247-4.543 1.925-6.334 1.043-1.113 2.347-1.87 3.649-2.625l.184-.107.298-.173c1.5-.87 3.002-1.74 4.387-2.79 2.218-1.68 3.48-3.942 3.94-6.669.037-.218.057-.438.077-.66.009-.102.018-.203.029-.305v-.005l-.001.005-.005-1.425v.005-.005c-.151-1.123-.324-2.24-.756-3.3-.073-.18-.144-.36-.215-.54l-.085-.216c-.186-.006-.319.095-.451.196-.045.034-.09.068-.136.098-.96.61-1.929 1.203-3.034 1.527-.978.286-1.94.374-2.869-.16-.254-.146-.383-.01-.506.197-.753 1.272-1.903 1.979-3.312 2.315a2.38 2.38 0 0 1-.221.04.874.874 0 0 1-.145-.014l.022-.045c.184-.386.362-.76.476-1.16a3.718 3.718 0 0 0-.055-2.283c-.04-.114-.09-.258-.239-.256-.125 0-.16.118-.191.222l-.006.02c-.734 2.283-2.372 3.73-4.426 4.796-.6.307-1.223.569-1.862.783-.247.084-.386.23-.485.472-.487 1.179-.286 2.334.108 3.478a8.99 8.99 0 0 0 1.705 2.93c.065.076.129.153.19.231a.428.428 0 0 1 .034.101 6.8 6.8 0 0 1-2.066-.751c-1.9-1.047-3.234-2.604-4.085-4.587a2.08 2.08 0 0 1-.1-.243c-.086-.304-.207-.258-.402-.073-.232.219-.476.424-.73.638-.112.094-.226.19-.34.289-.109-.276-.126-.522-.14-.764-.323-6 3.55-12.23 10.118-13.936a11.525 11.525 0 0 1 13.047 5.669l.106.191Zm-1.263 33.471c.137-.095.259-.028.376.036.033.018.066.036.098.05 2.094.909 4.194.95 6.225-.118 2.212-1.165 3.391-3.024 3.447-5.56.025-1.156-.212-2.242-.819-3.224-.883-1.428-2.15-2.345-3.79-2.724-.488-.112-.98-.199-1.485-.183h-.022c-.109.003-.223.006-.32-.054l-.045.024c-.94.265-1.875.549-2.702 1.09-1.837 1.203-2.907 2.88-3.124 5.082a4.17 4.17 0 0 0 .004 1.008c.027.188.104.309.294.33 1.743.194 3.47.247 5.086-.613a2 2 0 0 0 .734-.63l.004-.006c.062-.09.138-.2.061-.303-.054-.072-.144-.05-.227-.03-.02.005-.038.01-.056.013-.624.116-1.242.257-1.86.397-.48.11-.959.218-1.44.316-.061.012-.122.026-.182.039-.172.037-.343.075-.518.088-.215.017-.3-.085-.27-.294a.262.262 0 0 0 .002-.017v-.003a.288.288 0 0 0 .005-.016c.503-1.563 1.174-3.012 2.665-3.9 2.262-1.346 5.078-.225 5.803 2.307a4.483 4.483 0 0 1-1.657 4.87c-1.174.865-2.527 1.23-3.946 1.412-.996.128-1.992.097-3.004-.019.09.141.217.233.34.322.124.09.245.177.323.31Zm-.53-5.286-.001.003v-.001c0-.002.001-.004.002-.002Zm-3.72-13.872 1.034-.613a3.883 3.883 0 0 1-.1-.045c-.05-.023-.08-.037-.112-.043-2.634-.62-5.233-.559-7.772.444-5.268 2.078-8.164 7.436-6.882 12.95.806 3.469 2.937 5.944 6.204 7.388 2.497 1.104 5.087 1.291 7.74.652.242-.059.313-.116.124-.348-.62-.765-1.096-1.614-1.378-2.561-.061-.208-.182-.231-.36-.228A13.382 13.382 0 0 1 14.07 38c-2.002-.3-3.736-1.137-5.045-2.701-3.29-3.93-1.613-9.871 3.235-11.542.05-.017.1-.032.15-.047.153-.046.307-.093.44-.19.684-.494 1.415-.915 2.144-1.336.213-.122.425-.245.636-.37.705-.415 1.408-.832 2.13-1.259l.003-.002.007-.004.003-.002.002-.001Zm-2.693-4.176c1.024.04 1.98.023 2.905-.298.925-.32 1.67-.9 2.278-1.72.17.89-.448 2.33-1.53 2.811-1.158.514-2.85.19-3.653-.793Zm7.516 6.233c-.05.067-.1.134-.145.201 1.246.189 2.953-.638 3.583-1.72.006-.011.015-.023.024-.036.034-.05.072-.104.015-.157-.034-.032-.12-.027-.175-.012-1.031.284-2.072.515-3.189.601.377.476.131.8-.113 1.123Zm-9.481-7.664a.663.663 0 0 1-.63.699.697.697 0 0 1-.734-.683.67.67 0 0 1 .65-.684.702.702 0 0 1 .714.668Zm15.6 3.788a.669.669 0 0 0-.472-.189.663.663 0 0 0-.667.664.674.674 0 0 0 .94.644.67.67 0 0 0 .402-.652.669.669 0 0 0-.203-.467Zm-7.156-6.85a.675.675 0 0 1-.021-1.35.691.691 0 0 1 .69.687.676.676 0 0 1-.67.663Z" clip-rule="evenodd"/><path fill="#fff" d="M52.718 32.068V11.822L50.22 8.918h7.643l-1.58 3.49v9.958L66.57 11.748l-2.02-2.83h6.908L61.023 19.723 72.046 35.56h-7.165l.772-2.976L58.56 22.33l-2.278 2.388v7.937l2.462 2.903h-7.643l1.616-3.49ZM76.986 8.073c.612 0 1.126.209 1.543.625.416.417.625.943.625 1.58 0 .637-.209 1.164-.625 1.58-.392.417-.906.625-1.543.625-.637 0-1.164-.208-1.58-.625-.392-.416-.588-.943-.588-1.58 0-.637.208-1.163.624-1.58.417-.416.931-.625 1.544-.625Zm-1.727 24.069V19.575l-3.124-3.491h6.614v16.682l2.426 2.793h-7.496l1.58-3.417ZM90.983 36c-1.617 0-3.038-.429-4.263-1.286-1.225-.858-2.168-2.07-2.83-3.638-.66-1.568-.991-3.38-.991-5.438s.33-3.859.992-5.402c.661-1.543 1.592-2.731 2.792-3.564 1.225-.857 2.646-1.286 4.263-1.286 1.445 0 2.744.355 3.895 1.065 1.151.686 2.082 1.666 2.793 2.94v-7.9L94.51 8h6.651v24.766l2.389 2.793h-5.586v-4.262c-.637 1.47-1.567 2.62-2.792 3.454-1.225.833-2.621 1.249-4.19 1.249Zm1.286-2.535c1.225 0 2.315-.343 3.27-1.03.956-.685 1.654-1.628 2.095-2.829V21.78c-.441-1.2-1.14-2.143-2.095-2.829-.955-.71-2.045-1.066-3.27-1.066-1.764 0-3.16.699-4.19 2.095-1.003 1.396-1.506 3.295-1.506 5.695 0 2.401.503 4.3 1.507 5.696 1.029 1.396 2.425 2.095 4.189 2.095ZM113.281 36c-1.617 0-3.037-.429-4.262-1.286-1.225-.858-2.168-2.07-2.83-3.638-.661-1.568-.992-3.38-.992-5.438s.331-3.859.992-5.402c.662-1.543 1.593-2.731 2.793-3.564 1.225-.857 2.646-1.286 4.262-1.286 1.446 0 2.744.355 3.895 1.065 1.152.686 2.083 1.666 2.793 2.94v-7.9L116.809 8h6.651v24.766l2.388 2.793h-5.585v-4.262c-.637 1.47-1.568 2.62-2.793 3.454-1.225.833-2.621 1.249-4.189 1.249Zm1.286-2.535c1.225 0 2.315-.343 3.271-1.03.955-.685 1.653-1.628 2.094-2.829V21.78c-.441-1.2-1.139-2.143-2.094-2.829-.956-.71-2.046-1.066-3.271-1.066-1.764 0-3.16.699-4.189 2.095-1.004 1.396-1.506 3.295-1.506 5.695 0 2.401.502 4.3 1.506 5.696 1.029 1.396 2.425 2.095 4.189 2.095Zm17.185-25.392c.612 0 1.127.209 1.543.625.417.417.625.943.625 1.58 0 .637-.208 1.164-.625 1.58-.392.417-.906.625-1.543.625-.637 0-1.164-.208-1.58-.625-.392-.416-.588-.943-.588-1.58 0-.637.208-1.163.625-1.58.416-.416.931-.625 1.543-.625Zm-1.727 24.069V19.575l-3.123-3.491h6.614v16.682l2.425 2.793h-7.496l1.58-3.417Zm11.351-6.394c.123 2.621.833 4.63 2.132 6.026 1.298 1.372 3.111 2.058 5.438 2.058 1.298 0 2.45-.245 3.454-.735 1.029-.514 2.131-1.36 3.307-2.535l.331.257c-.931 1.715-2.144 3.013-3.638 3.895-1.494.857-3.233 1.286-5.218 1.286-1.935 0-3.625-.404-5.071-1.213-1.42-.832-2.523-1.996-3.307-3.49-.759-1.52-1.139-3.283-1.139-5.292 0-2.082.404-3.92 1.213-5.512.808-1.616 1.935-2.866 3.38-3.748 1.47-.906 3.16-1.36 5.071-1.36 2.67 0 4.704.895 6.1 2.683 1.421 1.764 2.107 4.324 2.058 7.68h-14.111Zm5.806-8.635c-1.715 0-3.086.625-4.115 1.874-1.029 1.225-1.605 2.964-1.727 5.218h10.913c0-2.327-.429-4.091-1.286-5.292-.857-1.2-2.119-1.8-3.785-1.8Z"/></svg>