<svg xmlns="http://www.w3.org/2000/svg" width="32" height="33" fill="none"><path stroke="#D097EE" stroke-linejoin="round" stroke-width="1.5" d="M5.036 16.424c-1.264-2.205-1.874-4.004-2.242-5.829-.544-2.698.701-5.334 2.765-7.015.872-.711 1.871-.468 2.387.457L9.11 6.126c.923 1.655 1.385 2.483 1.293 3.36-.092.878-.714 1.593-1.958 3.022l-3.409 3.916Zm0 0c2.559 4.46 6.574 8.478 11.04 11.04m0 0c2.204 1.264 4.004 1.874 5.828 2.242 2.699.544 5.334-.701 7.016-2.765.71-.872.468-1.872-.457-2.387l-2.089-1.165c-1.655-.922-2.483-1.384-3.36-1.292-.878.091-1.593.713-3.023 1.958l-3.915 3.409Z"/><path stroke="#D097EE" stroke-linecap="round" stroke-width="1.5" d="M18.666 9.61a7.994 7.994 0 0 1 4.224 4.224M19.538 3.167a14.368 14.368 0 0 1 9.795 9.794"/></svg>