<svg xmlns="http://www.w3.org/2000/svg" width="39" height="44" fill="none"><path fill="#FE753B" fill-rule="evenodd" d="M23.289 6.233c.06.014.112-.013.164-.04.058-.031.117-.062.187-.034a.51.51 0 0 1 .152-.035c1.093-.24 2.206-.274 3.311-.166 3.65.36 6.618 1.988 8.827 4.925 1.369 1.82 2.183 3.865 2.283 6.164a7.58 7.58 0 0 1-.177 1.928l-.591-.847c-.466 2.854-2.067 4.718-4.72 5.798.028-.172.114-.261.192-.343.021-.022.042-.043.06-.066 1.556-1.863 2.396-3.99 2.378-6.433-.005-.577-.009-.578-.598-.613h-.002c-2.008-.118-3.98-.4-5.846-1.201-1.195-.514-2.294-1.166-3.121-2.26l-.064.262-.031.127v-.007.007c-.114 1.842-.751 3.503-1.763 5.027-1.13 1.703-2.677 2.953-4.407 3.995-.287.173-.577.343-.867.512h-.001v.001c-.843.493-1.685.986-2.468 1.567-1.713 1.271-2.716 2.961-2.723 5.127-.008 2.057 1.066 3.497 2.831 4.556.043-.248.069-.49.094-.726.03-.275.059-.543.112-.809.889-4.391 4.395-7.69 8.814-8.219 1.942-.232 3.81.077 5.543 1.037v.001h.001c2.627 1.55 4.345 3.772 4.881 6.804.97 5.48-2.83 10.744-8.336 11.59-2.93.45-5.584-.193-7.913-2.062a7.536 7.536 0 0 1-.547-.502 19.67 19.67 0 0 0-.218-.21h.002c-.802-.945-1.428-1.988-1.795-3.176-.057-.185-.174-.245-.338-.3-1.067-.358-2.114-.763-3.08-1.351-1.848-1.123-3.221-2.628-3.658-4.805-.49-2.439.247-4.543 1.925-6.334 1.043-1.113 2.347-1.87 3.649-2.625l.184-.107.298-.173c1.5-.87 3.002-1.74 4.387-2.79 2.218-1.68 3.48-3.942 3.94-6.669.037-.218.057-.438.077-.66.009-.102.018-.203.029-.305v-.005l-.001.005-.005-1.425v.005-.005c-.151-1.123-.324-2.24-.756-3.3-.073-.18-.144-.36-.215-.54l-.085-.216c-.186-.006-.319.095-.451.196-.045.034-.09.068-.136.098-.96.61-1.929 1.203-3.034 1.527-.978.286-1.94.374-2.869-.16-.254-.146-.383-.01-.506.197-.753 1.272-1.903 1.979-3.312 2.315a2.38 2.38 0 0 1-.221.04.874.874 0 0 1-.145-.014l.022-.045c.184-.386.362-.76.476-1.16a3.718 3.718 0 0 0-.055-2.283c-.04-.114-.09-.258-.239-.256-.125 0-.16.118-.191.222l-.006.02c-.734 2.283-2.372 3.73-4.426 4.796-.6.307-1.223.569-1.862.783-.247.084-.386.23-.485.472-.487 1.179-.286 2.334.108 3.478a8.99 8.99 0 0 0 1.705 2.93c.065.076.129.153.19.231a.428.428 0 0 1 .034.101 6.8 6.8 0 0 1-2.066-.751c-1.9-1.047-3.234-2.604-4.085-4.587a2.08 2.08 0 0 1-.1-.243c-.086-.304-.207-.258-.402-.073-.232.219-.476.424-.73.638-.112.094-.226.19-.34.289-.109-.276-.126-.522-.14-.764-.323-6 3.55-12.23 10.118-13.936a11.525 11.525 0 0 1 13.047 5.669l.106.191Zm-1.263 33.471c.137-.095.259-.028.376.036.033.018.066.036.098.05 2.094.909 4.194.95 6.225-.118 2.212-1.165 3.391-3.024 3.447-5.56.025-1.156-.212-2.242-.819-3.224-.883-1.428-2.15-2.345-3.79-2.724-.488-.112-.98-.199-1.485-.183h-.022c-.109.003-.223.006-.32-.054l-.045.024c-.94.265-1.875.549-2.702 1.09-1.837 1.203-2.907 2.88-3.124 5.082a4.17 4.17 0 0 0 .004 1.008c.027.188.104.309.294.33 1.743.194 3.47.247 5.086-.613a2 2 0 0 0 .734-.63l.004-.006c.062-.09.138-.2.061-.303-.054-.072-.144-.05-.227-.03-.02.005-.038.01-.056.013-.624.116-1.242.257-1.86.397-.48.11-.959.218-1.44.316-.061.012-.122.026-.182.039-.172.037-.343.075-.518.088-.215.017-.3-.085-.27-.294a.262.262 0 0 0 .002-.017v-.003a.288.288 0 0 0 .005-.016c.503-1.563 1.174-3.012 2.665-3.9 2.262-1.346 5.078-.225 5.803 2.307a4.483 4.483 0 0 1-1.657 4.87c-1.174.865-2.527 1.23-3.946 1.412-.996.128-1.992.097-3.004-.019.09.141.217.233.34.322.124.09.245.177.323.31Zm-.53-5.286-.001.003v-.001c0-.002.001-.004.002-.002Zm-3.72-13.872 1.034-.613a3.883 3.883 0 0 1-.1-.045c-.05-.023-.08-.037-.112-.043-2.634-.62-5.233-.559-7.772.444-5.268 2.078-8.164 7.436-6.882 12.95.806 3.469 2.937 5.944 6.204 7.388 2.497 1.104 5.087 1.291 7.74.652.242-.059.313-.116.124-.348-.62-.765-1.096-1.614-1.378-2.561-.061-.208-.182-.231-.36-.228A13.382 13.382 0 0 1 14.07 38c-2.002-.3-3.736-1.137-5.045-2.701-3.29-3.93-1.613-9.871 3.235-11.542.05-.017.1-.032.15-.047.153-.046.307-.093.44-.19.684-.494 1.415-.915 2.144-1.336.213-.122.425-.245.636-.37.705-.415 1.408-.832 2.13-1.259l.003-.002.007-.004.003-.002.002-.001Zm-2.693-4.176c1.024.04 1.98.023 2.905-.298.925-.32 1.67-.9 2.278-1.72.17.89-.448 2.33-1.53 2.811-1.158.514-2.85.19-3.653-.793Zm7.516 6.233c-.05.067-.1.134-.145.201 1.246.189 2.953-.638 3.583-1.72.006-.011.015-.023.024-.036.034-.05.072-.104.015-.157-.034-.032-.12-.027-.175-.012-1.031.284-2.072.515-3.189.601.377.476.131.8-.113 1.123Zm-9.481-7.664a.663.663 0 0 1-.63.699.697.697 0 0 1-.734-.683.67.67 0 0 1 .65-.684.702.702 0 0 1 .714.668Zm15.6 3.788a.669.669 0 0 0-.472-.189.663.663 0 0 0-.667.664.674.674 0 0 0 .94.644.67.67 0 0 0 .402-.652.669.669 0 0 0-.203-.467Zm-7.156-6.85a.675.675 0 0 1-.021-1.35.691.691 0 0 1 .69.687.676.676 0 0 1-.67.663Z" clip-rule="evenodd"/></svg>