<svg xmlns="http://www.w3.org/2000/svg" width="49" height="48" fill="none"><g fill="#002B51" clip-path="url(#a)"><path d="M32.721 18.647a3.186 3.186 0 0 0-1.957-.912 3.185 3.185 0 0 0-.912-1.957c-.651-.652-1.54-.98-2.502-.922-.92.055-1.802.46-2.482 1.14a3.842 3.842 0 0 0-1.139 2.48c-.057.963.27 1.852.922 2.504.52.52 1.207.838 1.957.911.073.75.391 1.437.912 1.957.62.62 1.443.925 2.292.925.951 0 1.934-.384 2.692-1.142a3.843 3.843 0 0 0 1.14-2.482c.056-.962-.271-1.85-.923-2.502Zm-.95 2.391a1.971 1.971 0 0 1-.593 1.267c-.703.703-1.75.8-2.332.217a1.338 1.338 0 0 1-.379-.94c-.01-.743-.807-1.54-1.549-1.55a1.338 1.338 0 0 1-.941-.378c-.268-.268-.401-.646-.376-1.066.027-.462.238-.912.593-1.267a1.97 1.97 0 0 1 1.366-.596c.38 0 .72.132.967.379.305.305.374.68.378.94.01.742.807 1.539 1.549 1.55.26.004.636.073.941.378.268.268.401.646.376 1.066Zm4.646-3.732a.943.943 0 0 0-.663-.275c-.247 0-.488.1-.663.275a.945.945 0 0 0-.275.663c0 .246.1.488.275.663a.945.945 0 0 0 .663.274c.247 0 .488-.1.663-.274a.94.94 0 0 0 0-1.326Zm-5.221-5.223a.944.944 0 0 0-.663-.274c-.246 0-.488.1-.663.274a.945.945 0 0 0-.274.663.94.94 0 0 0 1.6.663.943.943 0 0 0 .275-.663c0-.247-.1-.488-.275-.663Z"/><path d="M43.487 5.013A17.003 17.003 0 0 0 31.385 0c-4.572 0-8.87 1.78-12.103 5.013L5.513 18.783A17.004 17.004 0 0 0 .5 30.884c0 4.571 1.78 8.87 5.013 12.102A17.003 17.003 0 0 0 17.615 48c4.572 0 8.87-1.78 12.103-5.013l13.769-13.77A17.003 17.003 0 0 0 48.5 17.116c0-4.571-1.78-8.87-5.013-12.102Zm-20.525 4.993a2.045 2.045 0 0 1-.287-.239c-.784-.784-.792-2.052-.018-2.826a1.97 1.97 0 0 1 1.398-.576 2.017 2.017 0 0 1 1.668.881.937.937 0 0 0 1.243.279 10.255 10.255 0 0 1 12.389 1.62 10.255 10.255 0 0 1 1.62 12.39.937.937 0 0 0 .28 1.242c.103.072.2.153.287.24.38.38.592.885.594 1.42a1.962 1.962 0 0 1-.577 1.406c-.774.774-2.042.767-2.826-.017a2.047 2.047 0 0 1-.24-.288.938.938 0 0 0-1.242-.28 10.254 10.254 0 0 1-12.39-1.62 10.254 10.254 0 0 1-1.62-12.389.937.937 0 0 0-.279-1.243ZM6.84 41.661a15.14 15.14 0 0 1-4.464-10.776 15.12 15.12 0 0 1 3.19-9.333 35.254 35.254 0 0 0 1.753 12.563 34.462 34.462 0 0 0 6.498 11.535 15.147 15.147 0 0 1-6.977-3.99Zm10.776 4.464c-.285 0-.57-.009-.853-.024-6.946-7.138-10.268-16.857-9.147-26.77l6.91-6.909a35.258 35.258 0 0 0 1.762 12.792c1.722 5.15 4.556 9.72 8.422 13.587a35.286 35.286 0 0 0 3.486 3.052 15.136 15.136 0 0 1-10.58 4.272Zm11.92-5.608a33.406 33.406 0 0 1-7.917-8.498 34.906 34.906 0 0 0 13.455 2.691l.273-.003-5.81 5.81Zm12.626-12.625-4.868 4.868a33.032 33.032 0 0 1-17.313-3.568c-2.941-5.716-4.158-12.22-3.412-18.813l4.04-4.04c.16-.161.325-.317.492-.47a3.88 3.88 0 0 0 .151 5.123A12.126 12.126 0 0 0 37.508 27.25a3.88 3.88 0 0 0 5.123.15c-.153.168-.309.332-.47.493Zm.804-6.1a12.135 12.135 0 0 0-2.284-13.973c-3.7-3.7-9.344-4.59-13.972-2.284A3.888 3.888 0 0 0 22.137 5a15.124 15.124 0 0 1 9.248-3.125A15.14 15.14 0 0 1 42.16 6.339a15.14 15.14 0 0 1 4.464 10.776c0 3.384-1.096 6.6-3.12 9.241a3.82 3.82 0 0 0 .506-1.927 3.872 3.872 0 0 0-1.046-2.638Z"/><path d="m14.163 25.959-.01-.03a.937.937 0 1 0-1.779.592l.015.044a.938.938 0 0 0 1.774-.606ZM18.92 35.4a36.638 36.638 0 0 1-3.513-6.23.938.938 0 0 0-1.716.757 38.517 38.517 0 0 0 3.693 6.55.936.936 0 1 0 1.535-1.077Zm10.438-16.243a.944.944 0 0 0-.663-.274c-.246 0-.488.1-.663.274a.945.945 0 0 0-.274.663c0 .248.1.489.274.663a.945.945 0 0 0 .663.275c.247 0 .489-.1.663-.275a.944.944 0 0 0 .275-.663c0-.246-.1-.488-.275-.663Z"/></g><defs><clipPath id="a"><path fill="#fff" d="M.5 0h48v48H.5z"/></clipPath></defs></svg>