<svg xmlns="http://www.w3.org/2000/svg" width="78" height="70" fill="none"><path fill="#D097EE" d="M33.694 61.243a5.663 5.663 0 0 1 1.119-3.39c.263-.354.4-.79.663-1.145l.876-1.18c.72-.843 1.44-1.686 2.177-2.43.37-.371.845-.76 1.302-1.25l1.427-1.168.776-.543c.087-.118.3-.153.388-.271l.388-.271c.6-.307 1.095-.596 1.677-1.003a21.036 21.036 0 0 1 7.705-2.214c2.61-.125 5.189.169 7.65 1 .588.211 1.176.423 1.659.653l.356.148.376.247.733.395c.5.33.983.56 1.483.89.501.33.896.678 1.397 1.008.77.595 1.559 1.29 2.26 2.104.645.513.933.878 1.222 1.244.288.365.576.73.739 1.014a6.17 6.17 0 0 1 1.259 3.2c-.062.838-.644 1.245-1.727 1.322-.32.053-.551-.011-.764.024-.338-.047-.657.006-.995-.04-.676-.095-1.459-.171-2.26-.348-.444-.03-.908-.159-1.352-.188-.463-.13-.908-.159-1.459-.17l-.782-.077c-.107.018-.232-.065-.338-.047-.107.018-.232-.065-.445-.03-.55-.01-1.12-.123-1.565-.152a40.672 40.672 0 0 0-7.142-.05 42.774 42.774 0 0 0-7.13 1.187c-.513.19-1.045.278-1.577.366l-.425.071-.407.171-.726.225c-.513.189-.939.26-1.452.448-.513.19-.833.242-1.258.313-.833.242-1.559.467-2.285.691l-.958.16-.85.141c-.977.06-1.585-.253-1.735-1.055Zm-11.36-10.821c-.539-.53-.408-1.586.161-3.232.138-.436.294-.772.52-1.327.243-.454.487-.908.712-1.462a33.625 33.625 0 0 1 2.134-3.25l1.313-1.77c.438-.59.983-1.197 1.508-1.905a69.672 69.672 0 0 1 3.53-3.999c2.74-2.937 5.75-5.61 9.01-8.117 3.154-2.49 6.47-4.696 9.931-6.72 1.59-.884 3.18-1.77 4.594-2.419l2.122-.973c.707-.325 1.326-.531 2.034-.856 1.133-.396 2.372-.809 3.63-1.122.532-.088 1.045-.277 1.47-.348l1.278-.213c1.865 0 2.898.241 3.136.925.583 1.35-1.895 3.934-5.962 7.402-.476.39-1.04.897-1.621 1.304l-1.815 1.44c-1.252.931-2.572 2.082-3.911 3.132-2.766 2.218-5.745 4.471-8.898 6.96-3.154 2.49-6.114 4.844-8.899 6.962a205.69 205.69 0 0 1-3.93 3.032l-1.833 1.34-1.746 1.22c-4.318 3.304-7.391 5.057-8.468 3.996ZM6.597 39.088c-.801-.177-1.002-.66-.833-1.515l.206-.655c.069-.218.225-.554.294-.772.225-.555.663-1.145 1.082-1.834.157-.337.42-.69.682-1.044l.663-1.145c.507-.808 1.014-1.616 1.608-2.542 1.082-1.834 2.252-3.786 3.296-5.82a94.253 94.253 0 0 0 2.746-5.833c.382-.89.763-1.781 1.057-2.554l.557-1.126c.156-.337.294-.773.45-1.11.313-.671.625-1.344.957-1.916.175-.236.331-.572.507-.808.175-.236.244-.454.419-.69.525-.708 1.32-1.15 2.278-1.31.995.041 1.853.518 2.535 1.232.25.165.414.448.558.63l.488.85c.345.666.67 1.232.909 1.915.075.401.257.785.332 1.186l.226 1.202c.063.92.126 1.84-.024 2.795-.243 2.212-.95 4.293-1.994 6.328-1.239 2.17-2.71 4.276-4.449 6.116-.932.88-1.758 1.74-2.815 2.537l-1.427 1.168c-.476.39-.97.678-1.446 1.068-.882.56-1.87 1.139-2.753 1.699-.388.271-.901.46-1.308.631l-1.22.514c-1.096.596-2.373.809-3.581.803Z"/></svg>