<svg xmlns="http://www.w3.org/2000/svg" width="40" height="41" fill="none"><path fill="#002B51" d="M16.02 10.061h-4.57a.64.64 0 0 1 0-1.28h4.57a.64.64 0 1 1 0 1.28Zm12.003 24.577H6.49a3.136 3.136 0 0 1-3.13-3.133v-19.59A3.136 3.136 0 0 1 6.49 8.78h2.49a.64.64 0 0 1 0 1.28H6.49a1.854 1.854 0 0 0-1.85 1.853v19.591a1.854 1.854 0 0 0 1.85 1.853h21.533c.255 0 .508-.053.742-.154a.64.64 0 1 1 .514 1.172 3.157 3.157 0 0 1-1.256.262Zm2.49-10.952a.64.64 0 0 1-.64-.64V11.914a1.854 1.854 0 0 0-1.85-1.853h-2.49a.64.64 0 0 1 0-1.28h2.49a3.135 3.135 0 0 1 3.13 3.133v11.132a.64.64 0 0 1-.64.64Zm-7.451-13.625h-4.57a.64.64 0 0 1 0-1.28h4.57a.64.64 0 0 1 0 1.28Z"/><path fill="#002B51" d="M9.297 20.79H7.613a1.212 1.212 0 0 1-1.21-1.211v-1.687a1.212 1.212 0 0 1 1.21-1.208h1.684a1.211 1.211 0 0 1 1.21 1.21v1.687a1.211 1.211 0 0 1-1.21 1.208Zm-1.615-1.28h1.546v-1.546H7.682v1.545Zm7.483 1.28H13.48a1.211 1.211 0 0 1-1.21-1.211v-1.687a1.211 1.211 0 0 1 1.21-1.208h1.684a1.212 1.212 0 0 1 1.21 1.21v1.687a1.211 1.211 0 0 1-1.209 1.208Zm-1.615-1.28h1.545v-1.546H13.55v1.545Zm7.484 1.28h-1.685a1.212 1.212 0 0 1-1.21-1.211v-1.687a1.211 1.211 0 0 1 1.21-1.208h1.684a1.211 1.211 0 0 1 1.21 1.21v1.687a1.212 1.212 0 0 1-1.21 1.208Zm-1.615-1.28h1.545v-1.546h-1.545v1.545Zm7.481 1.28h-1.684a1.211 1.211 0 0 1-1.21-1.211v-1.687a1.211 1.211 0 0 1 1.21-1.208h1.685a1.212 1.212 0 0 1 1.21 1.21v1.687a1.212 1.212 0 0 1-1.21 1.208Zm-1.614-1.28h1.545v-1.546h-1.545v1.545ZM9.297 26.349H7.613a1.212 1.212 0 0 1-1.21-1.21v-1.687a1.212 1.212 0 0 1 1.21-1.21h1.684a1.212 1.212 0 0 1 1.21 1.21v1.686a1.211 1.211 0 0 1-1.21 1.21Zm-1.615-1.28h1.546V23.52H7.682v1.548Zm7.483 1.28H13.48a1.211 1.211 0 0 1-1.21-1.21v-1.687a1.212 1.212 0 0 1 1.21-1.21h1.684a1.212 1.212 0 0 1 1.21 1.21v1.686a1.211 1.211 0 0 1-1.209 1.21Zm-1.615-1.28h1.545V23.52H13.55v1.548Zm7.484 1.28h-1.685a1.212 1.212 0 0 1-1.21-1.21v-1.687a1.212 1.212 0 0 1 1.21-1.21h1.684a1.212 1.212 0 0 1 1.21 1.21v1.686a1.212 1.212 0 0 1-1.21 1.21Zm-1.615-1.28h1.545V23.52h-1.545v1.548ZM9.297 31.907H7.613a1.212 1.212 0 0 1-1.21-1.21V29.01a1.212 1.212 0 0 1 1.21-1.21h1.684a1.211 1.211 0 0 1 1.21 1.21v1.687a1.211 1.211 0 0 1-1.21 1.21Zm-1.615-1.28h1.546V29.08H7.682v1.547Zm7.483 1.28H13.48a1.211 1.211 0 0 1-1.21-1.21V29.01a1.212 1.212 0 0 1 1.21-1.21h1.684a1.212 1.212 0 0 1 1.21 1.21v1.687a1.211 1.211 0 0 1-1.209 1.21Zm-1.615-1.28h1.545V29.08H13.55v1.547Zm7.484 1.28h-1.685a1.212 1.212 0 0 1-1.21-1.21V29.01a1.212 1.212 0 0 1 1.21-1.21h1.684a1.211 1.211 0 0 1 1.21 1.21v1.687a1.212 1.212 0 0 1-1.21 1.21Zm-1.615-1.28h1.545V29.08h-1.545v1.547Zm11.094-15.396H3.999a.64.64 0 0 1 0-1.28h26.514a.64.64 0 1 1 0 1.28ZM10.24 13.356h-.05a1.853 1.853 0 0 1-1.85-1.852V7.3a1.853 1.853 0 0 1 1.85-1.85h.05a1.853 1.853 0 0 1 1.85 1.85v4.204a1.853 1.853 0 0 1-1.85 1.852Zm-.05-6.627a.572.572 0 0 0-.57.571v4.204a.572.572 0 0 0 .57.572h.05a.572.572 0 0 0 .57-.572V7.3a.572.572 0 0 0-.57-.57h-.05Zm7.09 6.627h-.048a1.853 1.853 0 0 1-1.851-1.852V7.3a1.853 1.853 0 0 1 1.851-1.85h.049a1.853 1.853 0 0 1 1.85 1.85v4.204a1.853 1.853 0 0 1-1.85 1.852Zm-.048-6.627a.572.572 0 0 0-.571.571v4.204a.572.572 0 0 0 .571.572h.049a.572.572 0 0 0 .57-.572V7.3a.572.572 0 0 0-.57-.57h-.049Zm7.09 6.627h-.049a1.853 1.853 0 0 1-1.851-1.852V7.3a1.853 1.853 0 0 1 1.851-1.85h.049a1.853 1.853 0 0 1 1.85 1.85v4.204a1.854 1.854 0 0 1-1.85 1.852Zm-.049-6.627a.572.572 0 0 0-.571.571v4.204a.572.572 0 0 0 .571.572h.049a.572.572 0 0 0 .57-.572V7.3a.572.572 0 0 0-.57-.57h-.049Zm6.252 27.91a6.123 6.123 0 0 1-6.117-6.116 6.123 6.123 0 0 1 6.117-6.117 6.123 6.123 0 0 1 6.116 6.118 6.12 6.12 0 0 1-6.116 6.115Zm0-10.953a4.837 4.837 0 1 0 0 9.675 4.837 4.837 0 0 0 0-9.675Z"/><path fill="#002B51" d="M29.523 31.164a.64.64 0 0 1-.453-.188l-2-2a.64.64 0 1 1 .905-.905l1.548 1.548 3.547-3.548a.64.64 0 1 1 .905.905l-4 4a.64.64 0 0 1-.452.188Z"/></svg>