<svg xmlns="http://www.w3.org/2000/svg" width="40" height="41" fill="none"><g fill="#002B51" clip-path="url(#a)"><path d="M39.167 19.21h-.876c-.427-9.442-8.015-17.03-17.458-17.457V.877a.833.833 0 1 0-1.666 0v.876C9.724 2.18 2.137 9.768 1.709 19.21H.833a.833.833 0 1 0 0 1.666h.876c.427 9.443 8.015 17.03 17.458 17.458v.876a.833.833 0 1 0 1.666 0v-.876c9.443-.428 17.03-8.015 17.458-17.458h.876a.833.833 0 1 0 0-1.666Zm-5 1.667h2.457c-.424 8.525-7.266 15.367-15.79 15.791v-2.457a.833.833 0 1 0-1.667 0v2.457c-8.525-.424-15.367-7.267-15.791-15.79h2.457a.833.833 0 1 0 0-1.667H3.376c.424-8.525 7.266-15.367 15.79-15.792v2.458a.833.833 0 1 0 1.667 0V3.42c8.525.425 15.367 7.267 15.791 15.792h-2.457a.833.833 0 1 0 0 1.666Z"/><path d="M20 20.044a4.172 4.172 0 0 0 4.167-4.166 4.172 4.172 0 0 0-4.166-4.167 4.172 4.172 0 0 0-4.167 4.167 4.172 4.172 0 0 0 4.167 4.166Zm0-6.666c1.38 0 2.5 1.121 2.5 2.5 0 1.378-1.12 2.5-2.5 2.5a2.503 2.503 0 0 1-2.5-2.5c0-1.379 1.122-2.5 2.5-2.5Zm5.7 9.218c-1.33-.784-3.4-1.719-5.7-1.719-2.3 0-4.37.935-5.7 1.72-1.11.655-1.8 1.927-1.8 3.319v.534c0 1.063.8 1.927 1.786 1.927h11.429c.984 0 1.785-.864 1.785-1.927v-.534c0-1.392-.69-2.664-1.8-3.32Zm.133 3.854c0 .173-.098.26-.118.26h-11.43c-.02 0-.118-.087-.118-.26v-.534c0-.793.385-1.532.98-1.884 1.151-.679 2.928-1.488 4.853-1.488 1.925 0 3.702.81 4.854 1.488.594.352.98 1.09.98 1.884v.534Z"/></g><defs><clipPath id="a"><path fill="#fff" d="M0 .044h40v40H0z"/></clipPath></defs></svg>