<svg xmlns="http://www.w3.org/2000/svg" width="49" height="48" fill="none"><g fill="#002B51" clip-path="url(#a)"><path d="M34 34.64a.703.703 0 0 0 .703-.703v-1.635a11.174 11.174 0 0 0 5.807-2.164c.82-.61 1.535-1.316 2.14-2.103a3.77 3.77 0 0 0 1.127-.778l1.895-1.894c.288-.288.446-.671.446-1.078 0-.407-.158-.79-.446-1.078l-.159-.158a1.517 1.517 0 0 0-.522-.343 1.52 1.52 0 0 0-.44-1.222l-.157-.158a1.514 1.514 0 0 0-1.223-.44 1.521 1.521 0 0 0-.342-.522l-.158-.158a1.514 1.514 0 0 0-1.078-.446c-.407 0-.79.158-1.078.446l-.923.923a1.585 1.585 0 0 0-.979-.389 3.087 3.087 0 0 0 1.31-2.52v-1.998a3.104 3.104 0 0 0-3.11-3.093h-.147c-.029-.46-.087-.911-.17-1.355.278-.008.547-.126.743-.328.22-.228.334-.541.312-.86a10.132 10.132 0 0 0-1.056-3.766c-1.072-2.124-2.79-3.758-5.121-4.878C25.878-.873 21.33-.125 18.418 1.056c-4.28 1.735-6.922 5.06-7.431 6.869-.323 1.146.052 1.73.424 2.019.19.147.46.292.9.33a11.227 11.227 0 0 0-.56 2.855h-.148a3.105 3.105 0 0 0-3.11 3.093v1.998a3.105 3.105 0 0 0 3.11 3.093h.642a10.935 10.935 0 0 0 3.513 5.123 8.16 8.16 0 0 0-2.225 5.6v7.911H10.78l-.176-.649A3.898 3.898 0 0 0 6.84 36.44c-.339 0-.678.044-1.009.132a3.866 3.866 0 0 0-2.378 1.814 3.803 3.803 0 0 0-.38 2.916l1.041 3.84A3.898 3.898 0 0 0 7.878 48a3.955 3.955 0 0 0 2.454-.86h27.571a3.905 3.905 0 0 0 2.454.859 3.899 3.899 0 0 0 3.764-2.86l1.042-3.839a3.801 3.801 0 0 0-.38-2.916 3.866 3.866 0 0 0-2.379-1.814 3.943 3.943 0 0 0-1.01-.132 3.898 3.898 0 0 0-3.763 2.86l-.175.648h-2.753v-2.635a.703.703 0 1 0-1.407 0v3.338c0 .389.315.703.704.703h3.074l-.484 1.786a3.794 3.794 0 0 0 .215 2.596H11.43a3.795 3.795 0 0 0 .216-2.597l-.484-1.785h3.074a.703.703 0 0 0 .703-.703v-2.767c.23.401.484.79.767 1.165a.702.702 0 1 0 1.123-.847 9.275 9.275 0 0 1-1.89-5.627v-.538c0-1.857.754-3.543 1.977-4.776a10.943 10.943 0 0 0 3.384 1.377 4.186 4.186 0 0 0 3.913 2.686c1.79 0 3.32-1.12 3.915-2.689a10.948 10.948 0 0 0 3.436-1.412l.096.054c.346.194.418.235.531.266.57.157 1.142.232 1.706.232a6.425 6.425 0 0 0 4.004-1.408 3.574 3.574 0 0 0 2.6 1.937 9.664 9.664 0 0 1-6.519 2.622.703.703 0 0 0-.696.741c.007.13.01.25.01.37v1.9c0 .389.315.704.704.704ZM11.603 19.907A1.697 1.697 0 0 1 9.9 18.22v-1.998c0-.93.764-1.687 1.703-1.687h.124v3.467c0 .65.057 1.286.168 1.905h-.292Zm-1.556 25.445a2.471 2.471 0 0 1-1.52 1.157 2.536 2.536 0 0 1-.649.085 2.49 2.49 0 0 1-2.407-1.822l-1.041-3.84a2.407 2.407 0 0 1 .24-1.844 2.47 2.47 0 0 1 1.521-1.158c.213-.056.431-.085.65-.085a2.49 2.49 0 0 1 2.406 1.822l1.042 3.84c.17.626.084 1.281-.242 1.845Zm27.9-1.845 1.042-3.84a2.488 2.488 0 0 1 2.406-1.822c.218 0 .436.029.65.085a2.471 2.471 0 0 1 1.52 1.158c.325.563.41 1.218.24 1.845l-1.04 3.84a2.489 2.489 0 0 1-2.408 1.82c-.218 0-.436-.028-.649-.084a2.472 2.472 0 0 1-1.52-1.157 2.407 2.407 0 0 1-.241-1.845ZM32.168 4.013c1.344.905 2.372 2.054 3.072 3.44a8.785 8.785 0 0 1 .873 2.872c-2.583-.367-4.55-1.778-5.853-4.2a57.008 57.008 0 0 0 1.909-2.112ZM15.785 24.555a9.462 9.462 0 0 1-2.429-4.518c.365-.186.77-.284 1.19-.284 1.431 0 2.596 1.148 2.596 2.557 0 .946-.532 1.804-1.357 2.245Zm8.43 5.361c-.88 0-1.665-.406-2.174-1.037.217.013.436.022.656.022h3.025c.224 0 .445-.01.666-.022a2.785 2.785 0 0 1-2.174 1.037Zm1.507-2.421h-3.025a9.556 9.556 0 0 1-5.82-1.966 3.95 3.95 0 0 0 1.671-3.22c0-2.184-1.795-3.962-4.003-3.962-.482 0-.95.086-1.392.248a9.604 9.604 0 0 1-.019-.593v-4.15a9.82 9.82 0 0 1 .751-3.772 13.611 13.611 0 0 0 1.835-.66c.217-.094.43-.19.635-.286.002.029.005.058.009.086.06.473.365 1.13 1.48 1.581.909.368 2.121.107 3.603-.777.13-.077.255-.156.376-.234.035.185.099.365.202.53.191.305.584.668 1.365.668.727 0 1.597-.356 2.663-1.088a.703.703 0 1 0-.797-1.159c-1.064.732-1.626.84-1.866.84a.557.557 0 0 1-.18-.022c-.057-.147.035-.653.234-1.07a.703.703 0 0 0-1.096-.836c-.007.006-.734.636-1.638 1.173-1.03.611-1.882.856-2.339.671-.431-.174-.6-.353-.612-.454-.032-.243.38-.751.767-1.04a.704.704 0 0 0-.772-1.174c-.012.007-1.225.709-2.575 1.292-2.213.957-2.822.75-2.897.715-.01-.036-.038-.183.06-.53.362-1.287 2.672-4.352 6.606-5.948 2.668-1.08 6.866-1.755 11.983.938-.677.779-1.9 2.142-3.23 3.404a.703.703 0 1 0 .97 1.02c.19-.183.38-.366.565-.55 1.364 2.333 3.3 3.8 5.775 4.378.178.74.273 1.511.273 2.304v4.15c0 .2-.007.396-.019.593a4.011 4.011 0 0 0-1.392-.248c-2.207 0-4.003 1.777-4.003 3.962a3.95 3.95 0 0 0 1.672 3.22 9.558 9.558 0 0 1-5.82 1.966Zm5.554-5.185c0-1.41 1.165-2.556 2.597-2.556.42 0 .824.097 1.19.283a9.46 9.46 0 0 1-2.43 4.518 2.553 2.553 0 0 1-1.357-2.245Zm1.596 3.95a10.928 10.928 0 0 0 3.3-4.947h.642a3.1 3.1 0 0 0 .372-.023 1.588 1.588 0 0 0-.375 1.616l.651 1.967a5 5 0 0 1-4.59 1.387Zm3.942-6.353h-.291c.11-.619.168-1.255.168-1.905v-3.467h.123c.94 0 1.703.757 1.703 1.687v1.998c0 .93-.764 1.687-1.703 1.687Zm2.755 6.403a2.204 2.204 0 0 1-.636-1.4.708.708 0 0 0-.033-.17l-.755-2.279a.183.183 0 0 1 .115-.231l.229-.077a.183.183 0 0 1 .232.115l.071.214a.704.704 0 0 0 1.161.276l.007-.006 1.55-1.552a.116.116 0 0 1 .084-.034c.023 0 .055.006.083.034l.159.159a.11.11 0 0 1 .034.083.116.116 0 0 1-.034.084l-1.368 1.368a.703.703 0 0 0 0 .994l.101.102a.703.703 0 0 0 .995 0l1.67-1.67a.115.115 0 0 1 .083-.035c.022 0 .055.007.084.035l.158.159a.118.118 0 0 1 0 .166l-1.67 1.67a.703.703 0 0 0 0 .995l.102.102a.703.703 0 0 0 .994 0l1.369-1.37a.115.115 0 0 1 .083-.034c.022 0 .055.006.083.035l.159.159c.028.028.034.06.034.083a.115.115 0 0 1-.035.083l-1.894 1.894c-.444.445-1.03.69-1.65.69-.595 0-1.15-.228-1.565-.642Z"/><path d="M18.234 14.379a.703.703 0 0 0-.703.703v.784a.703.703 0 0 0 1.407 0v-.784a.703.703 0 0 0-.704-.703Zm12.653 1.488v-.785a.703.703 0 0 0-1.407 0v.784a.703.703 0 1 0 1.407 0Zm-6.879 2.487h.867a.703.703 0 1 0 0-1.406h-.632V15.8a.703.703 0 0 0-1.407 0v1.381c0 .646.526 1.172 1.172 1.172Zm3.527 1.609h-6.654c-.694 0-1.258.56-1.258 1.25 0 2.714 2.057 4.921 4.585 4.921s4.585-2.207 4.585-4.92c0-.69-.564-1.251-1.258-1.251Zm-3.327 4.765c-1.705 0-3.101-1.493-3.175-3.359h6.35c-.074 1.866-1.47 3.359-3.175 3.359Zm-.091 8.694a.708.708 0 0 0 .498-.206.71.71 0 0 0 .205-.497.706.706 0 0 0-1.2-.497.706.706 0 0 0 0 .994.71.71 0 0 0 .497.206Zm-.497 2.138a.707.707 0 0 0 .497.206.71.71 0 0 0 .498-.207.71.71 0 0 0 .205-.496.71.71 0 0 0-.205-.497.706.706 0 0 0-1.2.497c0 .184.074.366.205.496Z"/><path d="M30.163 40.023a1.526 1.526 0 0 0-.898-1.96l-1.224-.455a1.589 1.589 0 0 0-.364-1.539l-.166-.177a1.587 1.587 0 0 0-2.244-.074l-1.67 1.555c-2.297-.423-4.041-2.413-4.041-4.799a.703.703 0 0 0-1.407 0c0 2.734 1.773 5.063 4.24 5.928a3.568 3.568 0 0 0-.412 3.18 9.554 9.554 0 0 1-2.955-1.375.703.703 0 0 0-.801 1.156 10.955 10.955 0 0 0 4.904 1.874c.316.262.68.476 1.087.628l2.511.934a1.53 1.53 0 0 0 1.96-.898l.078-.21c.075-.2.106-.41.094-.617.421-.148.768-.477.928-.908l.079-.21a1.52 1.52 0 0 0-.111-1.295c.144-.149.258-.327.333-.528l.079-.21Zm-1.319-.49-.078.21a.118.118 0 0 1-.151.07l-1.815-.675a.704.704 0 0 0-.903.414l-.05.135a.703.703 0 0 0 .413.904l2.214.823a.117.117 0 0 1 .07.152l-.079.21a.118.118 0 0 1-.151.07l-2.214-.824a.703.703 0 0 0-.904.414l-.05.135a.703.703 0 0 0 .414.904l1.814.675a.116.116 0 0 1 .07.152l-.079.21a.119.119 0 0 1-.152.068l-2.51-.933c-1.193-.444-1.812-1.746-1.382-2.904a2.202 2.202 0 0 1 1.008-1.16.699.699 0 0 0 .141-.102l1.757-1.635a.179.179 0 0 1 .125-.049.18.18 0 0 1 .133.058l.166.176a.183.183 0 0 1-.008.258l-.165.154a.703.703 0 0 0 .23 1.17l.011.004 2.056.765a.117.117 0 0 1 .066.061c.01.02.017.053.003.09Z"/></g><defs><clipPath id="a"><path fill="#fff" d="M.5 0h48v48H.5z"/></clipPath></defs></svg>