<svg xmlns="http://www.w3.org/2000/svg" width="577" height="551" fill="none"><path fill="#D097EE" d="M67.219 460.981C5.131 409.561-5.399 346.707 2.103 296.402c7.23-48.477 43.032-86.204 68.57-128.022a450.983 450.983 0 0 0 19.242-34.909c8.35-16.867 17.477-30.983 26.842-42.816 29.668-37.487 69.102-70.114 114.709-84.353 73.383-22.912 148.983 21.617 183.94 54.02 16.226 13.874 41.742 44.489 68.605 72.913 31.607 33.443 71.024 62.727 85.448 106.443 17.986 54.506 1.552 107.245-25.632 145.901-19.72 28.042-50.273 45.677-78.025 65.782-32.381 23.457-64.963 51.029-74.753 60.603-14.392 14.076-116.601 61.657-183.465 26.128-71.963-38.237-89.438-39.982-140.365-77.111Z"/></svg>