<svg xmlns="http://www.w3.org/2000/svg" width="40" height="41" fill="none"><path fill="#002B51" d="M38.176 5.645a15.088 15.088 0 0 0-1.307-2.975.56.56 0 0 0-.593-.25c-.058.013-1.445.337-3.044 1.135-2.16 1.078-3.668 2.518-4.363 4.162-.578 1.369-.661 3.043-.25 4.892a15.576 15.576 0 0 0-2.93-2.55 22.691 22.691 0 0 0-2.546-3.901c-.445-.548-1.302.14-.852.692a21.984 21.984 0 0 1 2.027 2.982l-5.004-.975-4.755-6.485c.462.006.925.05 1.386.141 1.462.286 2.905 1.03 4.292 2.212.543.463 1.248-.38.712-.836-1.531-1.305-3.144-2.131-4.793-2.454-2.517-.493-5.452.154-8.49 1.87C5.402 4.585 3.888 5.99 3.825 6.05a.581.581 0 0 0-.066.755 22.417 22.417 0 0 0 2.464 3.867 17.18 17.18 0 0 0 2.597 2.67 12.66 12.66 0 0 0-3.666 5.043 12.685 12.685 0 0 0-.896 4.568 12.622 12.622 0 0 0 2.18 7.255 12.684 12.684 0 0 0 5.745 4.653c.654.265 1.068-.752.413-1.018a11.592 11.592 0 0 1-2.376-1.307c.094-.52.311-2.393-.933-4.333-.174-.27.347-1.336.657-1.972.321-.656.653-1.334.807-1.972.165-.679-.02-1.248-.534-1.647-.377-.293-.871-.445-1.306-.58-.283-.086-.603-.184-.718-.28-.235-.197-.62-.927-.93-1.514-.343-.65-.67-1.269-1.004-1.65a11.682 11.682 0 0 1 3.468-4.569c1.38.94 2.955 1.589 4.629 1.72-1.941 1.505-2.57 3.426-1.672 5.27 1.049 2.155 3.206 1.811 5.11 1.508.33-.053.67-.107.996-.148.123-.015.16.019.184.04.417.371.405 2.142.396 3.435-.012 1.789-.024 3.478.642 4.346.34.442.819.668 1.38.668a2.77 2.77 0 0 0 1.085-.245c1.657-.71 3.379-2.845 3.116-4.535-.23-1.477-.381-2.453-.023-3.24.331-.728 1.132-1.402 2.708-2.262a11.6 11.6 0 0 1 .275 2.643 11.52 11.52 0 0 1-3.487 8.163 11.665 11.665 0 0 1-9.394 3.237c-.7-.076-.822 1.015-.12 1.093a12.77 12.77 0 0 0 10.282-3.545 12.612 12.612 0 0 0 3.817-8.937c.05-4.497-2.258-8.48-5.77-10.775a21.444 21.444 0 0 0 1.566-1.225c1.28.918 2.416 2.05 3.361 3.369a14.486 14.486 0 0 1 2.534 10.868c-1.31 7.933-8.83 13.322-16.764 12.011a14.487 14.487 0 0 1-9.477-5.894 14.484 14.484 0 0 1-2.534-10.868c.114-.692-.97-.873-1.084-.18a15.578 15.578 0 0 0 2.724 11.689A15.582 15.582 0 0 0 14.4 38.56c.865.143 1.73.213 2.589.213 3.248 0 6.407-1.008 9.1-2.937a15.576 15.576 0 0 0 6.338-10.192c.5-3.028.113-6.066-1.09-8.813a15.813 15.813 0 0 0 2.534-.997c2.159-1.078 3.667-2.518 4.362-4.162.695-1.644.676-3.729-.056-6.028ZM6.29 20.75c.41.775.796 1.508 1.197 1.844.285.237.68.36 1.1.488 1.074.33 1.198.492 1.095.917-.126.522-.43 1.145-.725 1.748-.568 1.16-1.104 2.257-.596 3.049a5.225 5.225 0 0 1 .832 2.914C5.92 28.76 4.589 24.1 5.808 19.864c.161.277.331.599.483.886ZM32.87 9.955 31.308 6.17c.76-.71 1.641-1.245 2.392-1.622.64-.32 1.248-.56 1.736-.73L32.87 9.955Zm3.578-5.71c.219.468.471 1.073.688 1.756.236.75.454 1.68.497 2.648l-3.659 1.51 2.474-5.914Zm-6.568 3.9c.162-.384.372-.739.614-1.067l1.777 4.307-1.595 3.813a14.59 14.59 0 0 1-.712-1.809c-.45-1.42-.828-3.483-.084-5.244Zm3.52 6.696c-.616.309-1.203.543-1.681.711l1.655-3.956 4.212-1.739c-.06.472-.177.94-.367 1.389-.744 1.76-2.488 2.927-3.82 3.595Zm-19.81-.313a7.4 7.4 0 0 1-.574-.137l6.08-4.457 5.007.976c-1.824 1.437-6.262 4.45-10.512 3.618Zm-5.556-3.437c-1.3-1.402-2.253-2.9-2.8-3.86l6.37 1.243-3.57 2.617ZM9.16 3.76l2.666 3.636-6.412-1.25A21.656 21.656 0 0 1 9.16 3.761Zm4.255 3.946L10.184 3.3c.967-.397 2.006-.71 3.07-.85l4.47 6.098-4.309-.84Zm-.342 1.053 4.557.888-5.848 4.286c-1.103-.51-2.095-1.241-2.964-2.055l4.255-3.12ZM27.98 19.488c-1.98 1.055-2.95 1.883-3.41 2.894-.495 1.086-.314 2.251-.063 3.864.148.95-.982 2.722-2.463 3.356-.548.235-.938.207-1.16-.083-.437-.568-.425-2.287-.416-3.668.014-1.912.025-3.562-.764-4.264a1.295 1.295 0 0 0-1.049-.309 30.59 30.59 0 0 0-1.034.153c-2.02.322-3.29.45-3.949-.903-1.066-2.192 1.093-3.816 2.07-4.412.2-.121.384-.264.556-.423 2.363-.283 4.596-1.297 6.586-2.567a11.661 11.661 0 0 1 5.096 6.362Z"/></svg>